<?xml version="1.0" encoding="UTF-8" standalone="no"?>
<svg
   xmlns:dc="http://purl.org/dc/elements/1.1/"
   xmlns:cc="http://creativecommons.org/ns#"
   xmlns:rdf="http://www.w3.org/1999/02/22-rdf-syntax-ns#"
   xmlns:svg="http://www.w3.org/2000/svg"
   xmlns="http://www.w3.org/2000/svg"
   xmlns:sodipodi="http://sodipodi.sourceforge.net/DTD/sodipodi-0.dtd"
   xmlns:inkscape="http://www.inkscape.org/namespaces/inkscape"
   version="1.1"
   x="0px"
   y="0px"
   viewBox="0 0 62.7 52.375"
   enable-background="new 0 0 62.7 41.9"
   xml:space="preserve"
   id="svg3771"
   sodipodi:docname="noun_vr goggles_337515.svg"
   inkscape:version="0.92.4 (fd57863, 2020-04-02)"><metadata
     id="metadata3777"><rdf:RDF><cc:Work
         rdf:about=""><dc:format>image/svg+xml</dc:format><dc:type
           rdf:resource="http://purl.org/dc/dcmitype/StillImage" /></cc:Work></rdf:RDF></metadata><defs
     id="defs3775" /><sodipodi:namedview
     pagecolor="#ffffff"
     bordercolor="#666666"
     borderopacity="1"
     objecttolerance="10"
     gridtolerance="10"
     guidetolerance="10"
     inkscape:pageopacity="0"
     inkscape:pageshadow="2"
     inkscape:window-width="1850"
     inkscape:window-height="1016"
     id="namedview3773"
     showgrid="true"
     inkscape:zoom="11.313709"
     inkscape:cx="14.43457"
     inkscape:cy="33.460579"
     inkscape:window-x="70"
     inkscape:window-y="27"
     inkscape:window-maximized="1"
     inkscape:current-layer="svg3771" /><path
     d="m 53.4,9.9194174 h -44 c -2.1,0 -3.7,1.6999996 -3.7,3.6999996 v 22.6 c 0,2.1 1.7,3.7 3.7,3.7 h 13.4 c 1.1,0 2.1,-0.6 2.5,-1.6 l 3,-7.5 c 1.2,-2.6 4.9,-2.5 6,0.1 l 2.6,7.3 c 0.4,1 1.4,1.7 2.5,1.7 h 13.9 c 2.1,0 3.7,-1.7 3.7,-3.7 v -22.5 c 0.2,-2.1 -1.5,-3.7999996 -3.6,-3.7999996 z m -33,21.4999996 c -3.2,0 -5.7,-2.6 -5.7,-5.7 0,-3.1 2.6,-5.7 5.7,-5.7 3.1,0 5.7,2.6 5.7,5.7 0,3.1 -2.5,5.7 -5.7,5.7 z m 22,0 c -3.2,0 -5.7,-2.6 -5.7,-5.7 0,-3.1 2.6,-5.7 5.7,-5.7 3.1,0 5.7,2.6 5.7,5.7 0,3.1 -2.5,5.7 -5.7,5.7 z"
     id="path3765"
     inkscape:connector-curvature="0"
     style="fill:#ffffff;fill-opacity:0.95588237;opacity:0.5" /></svg>