<svg width="23" height="24" viewBox="0 0 23 24" fill="none" xmlns="http://www.w3.org/2000/svg">
<path d="M20.9685 13.2567C21.5729 12.5091 21.5441 11.4015 20.8247 10.7093C20.5944 10.4878 20.2779 10.3216 19.9613 10.2386C20.0764 9.98936 20.134 9.71247 20.134 9.43558C20.134 8.90948 19.9326 8.43877 19.5584 8.07882C18.839 7.38659 17.7455 7.33121 16.9685 7.88499C16.8822 7.66348 16.767 7.44197 16.5944 7.24814C16.2203 6.8605 15.7023 6.6113 15.1555 6.6113C14.6375 6.58361 14.1195 6.77743 13.7454 7.13739C13.6879 7.05432 13.6303 6.94356 13.544 6.88819C13.1699 6.50054 12.6519 6.25134 12.1051 6.25134C11.5296 6.22365 11.0116 6.44516 10.6375 6.80512L7.75973 9.54633C7.44318 8.38339 6.29208 7.58041 5.02588 7.71886C4.68055 7.74655 4.364 7.91268 4.13378 8.13419C3.61579 7.58041 2.81002 7.24814 1.97548 7.33121C1.19849 7.41428 0.594164 8.05113 0.594164 8.82642L0.622941 12.8413C0.622941 13.8935 0.479054 14.9734 0.220058 15.9148V15.9425C-0.355489 17.8807 0.220058 19.9574 1.6877 21.3695C3.2129 22.8371 5.2561 23.64 7.38562 23.64C7.55829 23.64 7.75973 23.64 7.93239 23.6124C8.73816 23.8616 9.60148 24 10.436 24C12.508 24 14.58 23.2524 16.1339 21.7295L21.688 16.3578C22.0621 15.9979 22.2635 15.4995 22.2635 15.0011C22.2635 14.475 22.0621 14.0043 21.688 13.6443C21.4865 13.4782 21.2275 13.3397 20.9685 13.2567ZM11.472 7.6081C11.6447 7.44197 11.8749 7.38659 12.0763 7.38659C12.3066 7.38659 12.508 7.49734 12.6519 7.63579C12.7382 7.74655 12.7958 7.88499 12.7958 8.02344L8.0475 12.7029L7.90361 11.0139L11.472 7.6081ZM2.52225 20.5943C1.34238 19.459 0.910715 17.8253 1.34238 16.3025C1.65893 15.1949 1.80281 14.032 1.80281 12.869L1.77404 8.85411C1.77404 8.68797 1.91792 8.52184 2.09059 8.52184C2.8388 8.43877 3.50068 8.96486 3.58701 9.65709L3.64456 10.3216L3.67334 13.229C3.67334 14.2812 3.52946 15.3333 3.29924 16.2748C3.29924 16.3025 3.27046 16.3025 3.27046 16.3301C2.69491 18.2684 3.27046 20.3451 4.7381 21.7572C4.88199 21.8956 5.05466 22.0341 5.19854 22.1725C4.19133 21.8403 3.27046 21.3142 2.52225 20.5943ZM20.8534 15.5825L15.2994 20.9542C12.6231 23.5293 8.24894 23.5293 5.57265 20.9542C4.42155 19.8466 3.96112 18.213 4.39278 16.6901V16.6624C4.70933 15.5272 4.85321 14.3919 4.85321 13.229V10.3216V10.2386V9.21406C4.85321 9.04793 4.9971 8.8818 5.16976 8.8818C5.91798 8.79873 6.57986 9.32482 6.66619 10.017L6.86763 12.8136C6.92518 13.229 7.21296 13.5889 7.61584 13.7274C8.0475 13.8658 8.47916 13.7551 8.79571 13.4782L14.4936 7.99575C14.6663 7.82961 14.8102 7.74655 15.098 7.77424C15.3282 7.77424 15.5296 7.88499 15.6735 8.02344C15.9325 8.30033 15.9037 8.85411 15.5872 9.15869L11.3569 13.2567C11.1267 13.4782 11.1267 13.8381 11.3569 14.0596C11.472 14.1704 11.6159 14.2258 11.7886 14.2258C11.9324 14.2258 12.1051 14.1704 12.2202 14.0596L16.4793 9.96167L17.6016 8.8818C17.9181 8.57722 18.4361 8.57722 18.7527 8.8818C18.8966 9.02024 18.9829 9.21406 18.9829 9.43558C18.9829 9.65709 18.8966 9.85091 18.7527 9.98936L13.3425 15.1672C13.1123 15.3887 13.1123 15.7487 13.3425 15.9702C13.4576 16.0809 13.6015 16.1363 13.7742 16.1363C13.9469 16.1363 14.0907 16.0809 14.2059 15.9702L17.2275 13.0628L18.839 11.5123C19.1556 11.2077 19.6736 11.2077 19.9901 11.5123C20.3067 11.8168 20.3067 12.3152 19.9901 12.6198L18.8966 13.672L18.0908 14.4196L15.3282 17.0777C15.098 17.2993 15.098 17.6592 15.3282 17.8807C15.4433 17.9915 15.5872 18.0469 15.7598 18.0469C15.9325 18.0469 16.0764 17.9915 16.1915 17.8807L19.7311 14.475C20.0477 14.1704 20.5657 14.1704 20.8822 14.475C21.0261 14.6134 21.1124 14.8072 21.1124 15.0288C21.1124 15.2503 21.0261 15.4441 20.8534 15.5825ZM17.1411 3.78702L18.6088 0.768914C18.7527 0.492024 19.098 0.353579 19.3858 0.492024C19.6736 0.630469 19.8174 0.962737 19.6736 1.23963L18.2347 4.28542C18.1196 4.50693 17.9181 4.61769 17.6879 4.61769C17.6016 4.61769 17.5153 4.59 17.4289 4.56231C17.1411 4.42386 17.026 4.06391 17.1411 3.78702ZM14.062 0.713536C13.9756 0.408957 14.1771 0.104377 14.4936 0.0213103C14.8102 -0.0617567 15.1267 0.104377 15.2131 0.408957L16.1052 3.62088C16.1915 3.92546 15.9901 4.23004 15.6735 4.31311C15.6159 4.31311 15.5584 4.3408 15.5296 4.3408C15.2706 4.3408 15.0404 4.17466 14.9541 3.92546L14.062 0.713536ZM22.6664 4.59L19.5297 6.00214C19.4433 6.02983 19.357 6.05752 19.2707 6.05752C19.0405 6.05752 18.839 5.94676 18.7239 5.72525C18.58 5.44836 18.7239 5.0884 19.0117 4.97764L22.1484 3.5655C22.4362 3.42706 22.8103 3.5655 22.9254 3.84239C23.0981 4.11929 22.9542 4.45155 22.6664 4.59Z" fill="white"/>
</svg>
