<svg width="44" height="44" viewBox="0 0 44 44" fill="none" xmlns="http://www.w3.org/2000/svg">
<path d="M31.8641 23.1339L32.7882 22.2097C33.2108 21.8041 33.4616 21.2518 33.4892 20.6668C33.5167 20.0817 33.3188 19.5083 32.9363 19.0647C32.6359 18.7268 32.2391 18.489 31.7994 18.3833L31.9865 18.1962C32.4103 17.791 32.662 17.2384 32.6896 16.6527C32.7171 16.0671 32.5184 15.4933 32.1346 15.0501C31.9324 14.8231 31.6858 14.64 31.4099 14.5122C31.1341 14.3844 30.835 14.3146 30.5311 14.3072C30.2267 14.3012 29.9243 14.3558 29.6413 14.4679C29.3583 14.5799 29.1004 14.7471 28.8827 14.9598L28.7795 15.0629C28.3843 14.6873 27.8643 14.4707 27.3192 14.4547C27.0158 14.449 26.7143 14.504 26.4325 14.6164C26.1506 14.7289 25.894 14.8965 25.6778 15.1094L24.6136 16.1736C24.4963 15.6849 24.2182 15.2498 23.8238 14.9382C23.4295 14.6267 22.9418 14.4567 22.4393 14.4557H22.436C22.1431 14.4555 21.853 14.5132 21.5825 14.6256C21.3119 14.738 21.0663 14.9028 20.8598 15.1105L16.7976 19.1727C16.7216 18.5148 16.4134 17.9055 15.9285 17.4543C15.6107 17.1673 15.1945 17.0138 14.7665 17.0257C14.3384 17.0377 13.9314 17.2141 13.6301 17.5184L9.78174 21.3668C8.08841 23.0104 7.09428 25.2438 7.00637 27.602C6.91845 29.9602 7.74352 32.2614 9.30978 34.0265C10.3854 35.2233 11.7632 36.1086 13.2987 36.5897C14.8342 37.0708 16.4709 37.13 18.0371 36.761C18.4426 36.8161 18.8513 36.8443 19.2606 36.8454C20.4438 36.8461 21.6155 36.6122 22.7078 36.1573C23.8001 35.7023 24.7914 35.0353 25.6243 34.1949L32.8561 26.9684C33.2776 26.5611 33.5275 26.0081 33.5547 25.4226C33.5819 24.8371 33.3844 24.2633 33.0026 23.8186C32.7021 23.4792 32.3047 23.2402 31.8641 23.1339ZM32.1415 19.7788C32.3376 20.0203 32.4355 20.3269 32.4157 20.6373C32.3959 20.9478 32.2598 21.2394 32.0346 21.454L29.7582 23.7304L29.663 23.8255C29.6475 23.8106 29.6304 23.7988 29.6149 23.7849C29.577 23.7512 29.5385 23.7186 29.4989 23.6882C29.4594 23.6577 29.4049 23.6198 29.3562 23.5877C29.3177 23.5626 29.2793 23.5342 29.2392 23.5134C29.1814 23.4808 29.1216 23.453 29.0617 23.4257C29.027 23.4097 28.9938 23.3921 28.9586 23.3782C28.8615 23.3391 28.7616 23.3073 28.6598 23.283L29.3984 22.5438L29.5839 22.3594C29.6783 22.263 29.7644 22.159 29.8415 22.0483C29.8742 22.0029 29.9014 21.9553 29.9303 21.9083C29.9656 21.8495 29.9992 21.7907 30.0297 21.7298C30.0602 21.6688 30.096 21.5919 30.1238 21.5208C30.1334 21.4946 30.1409 21.4673 30.15 21.4427C30.2528 21.1489 30.2956 20.8373 30.2756 20.5266V20.5218C30.2684 20.4208 30.2545 20.3205 30.2339 20.2214C30.2296 20.2 30.2237 20.1786 30.2189 20.1573C30.2066 20.1038 30.1981 20.0504 30.182 20.0028L30.4493 19.7355L30.4578 19.727C30.5685 19.616 30.7008 19.5289 30.8465 19.4712C30.9923 19.4134 31.1483 19.3862 31.305 19.3913C31.4636 19.3951 31.6196 19.4314 31.7636 19.4981C31.9075 19.5648 32.0361 19.6603 32.1415 19.7788ZM29.6384 15.7166C29.7519 15.6043 29.8869 15.5161 30.0354 15.4574C30.1838 15.3987 30.3426 15.3707 30.5022 15.3751C30.6613 15.3793 30.8178 15.4162 30.962 15.4834C31.1063 15.5506 31.2352 15.6467 31.3408 15.7658C31.5372 16.0072 31.635 16.314 31.6145 16.6245C31.5941 16.935 31.457 17.2263 31.2307 17.4399L29.7004 18.9696L29.6898 18.9808L29.5951 19.076C29.5818 19.0637 29.5674 19.0535 29.5545 19.0418C29.5118 19.0038 29.469 18.9669 29.4241 18.9349C29.3792 18.9028 29.3402 18.8745 29.2974 18.8461C29.2547 18.8178 29.2114 18.7879 29.1659 18.7622C29.1205 18.7366 29.059 18.7088 29.0056 18.6842C28.965 18.6649 28.9254 18.6441 28.8837 18.6275C28.7901 18.5904 28.694 18.5597 28.5962 18.5356H28.5903L28.7779 18.3485C28.8782 18.2463 28.9691 18.1352 29.0494 18.0166C29.0633 17.9968 29.0756 17.977 29.0884 17.9567C29.1501 17.8624 29.205 17.7638 29.2525 17.6617C29.2659 17.6334 29.2803 17.6082 29.2926 17.5778C29.342 17.4611 29.3819 17.3406 29.4118 17.2175C29.4214 17.1785 29.4257 17.1389 29.4332 17.0999C29.4492 17.0168 29.4609 16.933 29.4685 16.8487C29.4727 16.7953 29.4749 16.7418 29.4754 16.6846C29.4754 16.6109 29.4717 16.5376 29.4653 16.4639C29.4605 16.4104 29.4583 16.357 29.4503 16.3078C29.4331 16.1972 29.4075 16.088 29.3739 15.9812L29.6384 15.7166ZM12.4387 35.0816C11.5568 34.639 10.7643 34.037 10.1014 33.306C8.72069 31.7438 7.99566 29.7093 8.0772 27.626C8.15874 25.5427 9.04056 23.5711 10.5391 22.1216L14.3875 18.2732C14.5034 18.1568 14.6606 18.091 14.8248 18.0904C14.9631 18.0884 15.097 18.1395 15.1989 18.2331C15.369 18.3924 15.5054 18.5842 15.5998 18.7973C15.6943 19.0103 15.7449 19.2402 15.7488 19.4732C15.7526 19.7062 15.7096 19.9376 15.6222 20.1537C15.5348 20.3697 15.4048 20.566 15.2401 20.7308L11.621 24.3477C11.5699 24.3971 11.5292 24.456 11.5012 24.5212C11.4732 24.5865 11.4584 24.6566 11.4578 24.7276C11.4572 24.7985 11.4707 24.8689 11.4976 24.9346C11.5245 25.0003 11.5641 25.06 11.6143 25.1102C11.6645 25.1603 11.7242 25.2 11.7899 25.2269C11.8556 25.2538 11.926 25.2673 11.9969 25.2667C12.0679 25.2661 12.138 25.2513 12.2032 25.2233C12.2685 25.1953 12.3274 25.1546 12.3767 25.1035L15.9921 21.4887L21.6145 15.8663C21.7223 15.7578 21.8506 15.6717 21.9919 15.6131C22.1332 15.5544 22.2847 15.5244 22.4376 15.5247C22.6691 15.5249 22.8953 15.5936 23.0877 15.7222C23.28 15.8508 23.43 16.0336 23.5185 16.2474C23.6071 16.4613 23.6303 16.6965 23.5851 16.9235C23.54 17.1505 23.4286 17.359 23.2651 17.5227L17.2444 23.5444C17.1934 23.5937 17.1527 23.6527 17.1247 23.7179C17.0966 23.7831 17.0819 23.8532 17.0813 23.9242C17.0807 23.9952 17.0942 24.0656 17.1211 24.1313C17.1479 24.1969 17.1876 24.2566 17.2378 24.3068C17.288 24.357 17.3477 24.3967 17.4134 24.4236C17.4791 24.4504 17.5494 24.464 17.6204 24.4633C17.6914 24.4627 17.7615 24.448 17.8267 24.42C17.8919 24.3919 17.9509 24.3512 18.0002 24.3002L24.0214 18.2785L26.4352 15.8652C26.5476 15.7529 26.6818 15.6646 26.8295 15.6058C26.9772 15.547 27.1353 15.5189 27.2942 15.5233C27.4531 15.5276 27.6095 15.5643 27.7538 15.6311C27.898 15.6979 28.0272 15.7934 28.1333 15.9117C28.2812 16.0784 28.3745 16.2864 28.4005 16.5077C28.4005 16.5221 28.4005 16.5376 28.4032 16.5526C28.4086 16.6089 28.4101 16.6655 28.4075 16.722C28.4075 16.7418 28.4037 16.7616 28.4021 16.7814C28.397 16.8353 28.3886 16.8888 28.377 16.9417C28.3727 16.961 28.3679 16.9802 28.3626 16.9994C28.347 17.056 28.3277 17.1116 28.3049 17.1657C28.2995 17.179 28.2942 17.1924 28.2883 17.2052C28.2225 17.3477 28.132 17.4774 28.021 17.5885L26.7805 18.829L26.4886 19.1203L26.4854 19.1241V19.1267L19.6545 25.9545C19.6035 26.0038 19.5627 26.0627 19.5347 26.128C19.5067 26.1932 19.492 26.2633 19.4913 26.3343C19.4907 26.4052 19.5043 26.4756 19.5311 26.5413C19.558 26.607 19.5977 26.6667 19.6479 26.7169C19.6981 26.7671 19.7577 26.8067 19.8234 26.8336C19.8891 26.8605 19.9595 26.874 20.0305 26.8734C20.1014 26.8728 20.1716 26.858 20.2368 26.83C20.302 26.802 20.361 26.7613 20.4103 26.7102L27.2385 19.882C27.2604 19.8601 27.2856 19.8446 27.3086 19.8248C27.5205 19.6469 27.7871 19.5471 28.0638 19.5421C28.075 19.5421 28.0852 19.5421 28.0959 19.5421C28.1754 19.5441 28.2546 19.5541 28.3321 19.572C28.5656 19.627 28.7764 19.7528 28.9356 19.9322C29.0565 20.0691 29.14 20.2347 29.1782 20.4133C29.224 20.6258 29.2155 20.8464 29.1537 21.0547C29.0919 21.2631 28.9786 21.4526 28.8244 21.6058L28.7175 21.7127L26.549 23.8758C26.5442 23.8806 26.5431 23.8865 26.5383 23.8913L22.064 28.3656C22.013 28.4149 21.9723 28.4739 21.9442 28.5391C21.9162 28.6043 21.9015 28.6744 21.9009 28.7454C21.9003 28.8164 21.9138 28.8868 21.9407 28.9524C21.9675 29.0181 22.0072 29.0778 22.0574 29.128C22.1076 29.1782 22.1673 29.2179 22.233 29.2448C22.2986 29.2716 22.369 29.2851 22.44 29.2845C22.511 29.2839 22.5811 29.2692 22.6463 29.2412C22.7115 29.2131 22.7705 29.1724 22.8198 29.1214L27.3096 24.6348C27.4743 24.4695 27.685 24.3578 27.9141 24.3141L27.9296 24.3098C28.0079 24.2958 28.0875 24.29 28.167 24.2927C28.2389 24.2953 28.3105 24.3044 28.3808 24.32L28.4032 24.3232C28.4305 24.3296 28.4567 24.3419 28.4818 24.3499C28.6834 24.4115 28.8646 24.5266 29.0061 24.6829C29.0565 24.7388 29.1007 24.7999 29.1381 24.8651C29.2631 25.1071 29.3069 25.3829 29.2629 25.6517C29.2189 25.9205 29.0895 26.168 28.8939 26.3575L21.6616 33.5861C21.5146 33.733 21.3628 33.8725 21.2072 34.0062C21.1784 34.0302 21.149 34.0527 21.1201 34.0767C20.9961 34.1799 20.8705 34.2793 20.7417 34.3744C20.6914 34.4113 20.6396 34.4466 20.5888 34.4813C20.4787 34.5583 20.3672 34.6324 20.2542 34.7037C20.1922 34.7427 20.1302 34.7801 20.0671 34.8175C19.9602 34.879 19.8565 34.9378 19.7491 34.995C19.6786 35.0324 19.6075 35.0698 19.5353 35.1051C19.4359 35.1543 19.3349 35.1997 19.2333 35.2441C19.1526 35.2799 19.073 35.3168 18.9896 35.351C18.9062 35.3852 18.8164 35.4151 18.7298 35.4467C18.6293 35.483 18.5299 35.521 18.4284 35.5536C18.4086 35.56 18.3883 35.5648 18.3685 35.5707C18.2124 35.6188 18.0547 35.6631 17.8955 35.7016C17.8907 35.7016 17.8869 35.7064 17.8816 35.708C16.0503 36.1489 14.122 35.927 12.4387 35.0816ZM24.8686 33.4375C23.7624 34.5522 22.3497 35.3127 20.8101 35.6225C20.8422 35.6022 20.871 35.5771 20.9031 35.5562C21.0752 35.4456 21.2409 35.3237 21.4066 35.2002C21.5028 35.1292 21.6022 35.0629 21.6952 34.9864C21.8946 34.8261 22.0854 34.6508 22.273 34.4707C22.3201 34.4263 22.3719 34.3878 22.4173 34.3424L29.6491 27.1106C29.7456 27.0115 29.8333 26.9042 29.911 26.7899C29.9378 26.7519 29.9602 26.7129 29.9848 26.6739C30.027 26.6062 30.0657 26.5365 30.1008 26.4649C30.1307 26.404 30.1585 26.3436 30.1831 26.281C30.1986 26.241 30.2109 26.1998 30.2243 26.1586C30.3165 25.8834 30.356 25.5933 30.3408 25.3034C30.3408 25.2874 30.3408 25.2714 30.3408 25.2553C30.3344 25.1643 30.3221 25.0738 30.3039 24.9843C30.2969 24.9485 30.2873 24.9138 30.2788 24.8774C30.2702 24.8411 30.2611 24.7898 30.2478 24.7476L30.5113 24.4835C30.6235 24.3706 30.7575 24.2817 30.9053 24.2224C31.053 24.1631 31.2113 24.1346 31.3705 24.1387C31.5296 24.1427 31.6863 24.1792 31.8308 24.246C31.9753 24.3127 32.1047 24.4083 32.211 24.5268C32.4065 24.77 32.5037 25.0776 32.4833 25.389C32.4629 25.7004 32.3265 25.9928 32.1009 26.2083L24.8686 33.4375Z" fill="white"/>
<path d="M37.8606 8.28761C37.7603 8.1874 37.6244 8.13111 37.4827 8.13111C37.341 8.13111 37.205 8.1874 37.1048 8.28761L33.8978 11.4946C33.8467 11.5439 33.806 11.6029 33.778 11.6681C33.75 11.7333 33.7353 11.8035 33.7346 11.8744C33.734 11.9454 33.7475 12.0158 33.7744 12.0815C33.8013 12.1472 33.841 12.2068 33.8912 12.257C33.9414 12.3072 34.001 12.3469 34.0667 12.3738C34.1324 12.4006 34.2028 12.4142 34.2738 12.4135C34.3447 12.4129 34.4149 12.3982 34.4801 12.3702C34.5453 12.3422 34.6043 12.3014 34.6536 12.2504L37.8606 9.04339C37.9608 8.94316 38.0171 8.80723 38.0171 8.6655C38.0171 8.52377 37.9608 8.38784 37.8606 8.28761Z" fill="white"/>
<path d="M37.2439 12.4631L35.1059 13.5321C34.979 13.5955 34.8825 13.7067 34.8376 13.8412C34.7927 13.9757 34.803 14.1225 34.8664 14.2494C34.9298 14.3763 35.0409 14.4728 35.1755 14.5177C35.31 14.5626 35.4568 14.5522 35.5837 14.4889L37.7217 13.4199C37.8486 13.3565 37.9451 13.2453 37.99 13.1108C38.0349 12.9763 38.0245 12.8294 37.9612 12.7026C37.8978 12.5757 37.7866 12.4792 37.6521 12.4343C37.5176 12.3894 37.3707 12.3997 37.2439 12.4631Z" fill="white"/>
<path d="M31.8625 11.2616C31.984 11.3345 32.1295 11.3563 32.267 11.322C32.4045 11.2877 32.5228 11.2002 32.5958 11.0788L34.1993 8.40626C34.2693 8.28491 34.2889 8.14093 34.2537 8.00531C34.2186 7.8697 34.1317 7.75328 34.0116 7.68113C33.8915 7.60897 33.7479 7.58684 33.6117 7.61949C33.4755 7.65215 33.3575 7.73698 33.2832 7.85573L31.6797 10.5282C31.6067 10.6497 31.585 10.7952 31.6193 10.9328C31.6535 11.0703 31.741 11.1885 31.8625 11.2616Z" fill="white"/>
<path d="M18.8186 10.4796C18.8758 10.6079 18.9811 10.7085 19.1119 10.7597C19.2427 10.8109 19.3883 10.8086 19.5174 10.7533C19.6465 10.6979 19.7486 10.594 19.8017 10.464C19.8547 10.334 19.8545 10.1883 19.801 10.0584L18.1975 6.31691C18.1403 6.18863 18.035 6.08801 17.9042 6.0368C17.7734 5.98559 17.6278 5.98791 17.4987 6.04324C17.3696 6.09858 17.2675 6.2025 17.2144 6.33253C17.1614 6.46255 17.1616 6.60824 17.2151 6.73809L18.8186 10.4796Z" fill="white"/>
<path d="M21.4478 10.8035C21.5896 10.8035 21.7255 10.7472 21.8258 10.6469C21.926 10.5467 21.9823 10.4108 21.9823 10.269V7.062C21.9823 6.92024 21.926 6.78429 21.8258 6.68405C21.7255 6.58381 21.5896 6.5275 21.4478 6.5275C21.3061 6.5275 21.1701 6.58381 21.0699 6.68405C20.9696 6.78429 20.9133 6.92024 20.9133 7.062V10.269C20.9133 10.4108 20.9696 10.5467 21.0699 10.6469C21.1701 10.7472 21.3061 10.8035 21.4478 10.8035Z" fill="white"/>
<path d="M16.7542 11.6721C16.8428 11.7828 16.9718 11.8538 17.1127 11.8694C17.2537 11.885 17.395 11.8441 17.5057 11.7555C17.6165 11.6669 17.6874 11.5379 17.7031 11.397C17.7187 11.256 17.6777 11.1147 17.5891 11.0039L15.4511 8.33144C15.3625 8.22073 15.2336 8.14974 15.0926 8.13411C14.9517 8.11847 14.8103 8.15946 14.6996 8.24806C14.5889 8.33666 14.5179 8.46561 14.5023 8.60654C14.4866 8.74748 14.5276 8.88885 14.6162 8.99957L16.7542 11.6721Z" fill="white"/>
<circle opacity="0.3" cx="22" cy="22" r="22" fill="url(#paint0_radial)"/>
<defs>
<radialGradient id="paint0_radial" cx="0" cy="0" r="1" gradientUnits="userSpaceOnUse" gradientTransform="translate(22 22) rotate(90) scale(22)">
<stop stop-color="white" stop-opacity="0"/>
<stop offset="1" stop-color="white"/>
</radialGradient>
</defs>
</svg>
