<svg width="71" height="71" viewBox="0 0 71 71" fill="none" xmlns="http://www.w3.org/2000/svg">
<path opacity="0.2" d="M24.2972 13.6408L27.1307 18.5476C26.1791 18.1811 25.1372 18.1187 24.1487 18.369C23.1601 18.6192 22.2735 19.1698 21.6108 19.9449C20.9482 20.72 20.5422 21.6815 20.4487 22.697C20.3553 23.7124 20.579 24.7319 21.089 25.6149L18.8976 21.8191C18.3349 20.8413 17.4528 20.0869 16.3993 19.6831L15.7573 18.5715C15.4335 18.0107 15.2234 17.3917 15.1389 16.7497C15.0543 16.1077 15.0971 15.4554 15.2647 14.83C15.6031 13.5668 16.4295 12.4899 17.562 11.836C18.6945 11.1822 20.0404 11.005 21.3035 11.3434C22.5667 11.6819 23.6436 12.5083 24.2975 13.6408H24.2972ZM55.3482 27.9767L50.6914 19.911C50.0376 18.7784 48.9606 17.952 47.6974 17.6135C46.4343 17.275 45.0884 17.4522 43.9558 18.1061C42.8233 18.7599 41.9969 19.8369 41.6584 21.1C41.3199 22.3632 41.4971 23.7091 42.1509 24.8416L35.0288 12.5056C34.3703 11.3824 33.2943 10.5652 32.0355 10.2324C30.7767 9.8996 29.4374 10.0782 28.3098 10.7292C27.1822 11.3803 26.3579 12.4509 26.0168 13.7074C25.6756 14.964 25.8454 16.3044 26.4889 17.4363L27.1304 18.5479L27.1307 18.5482C28.1842 18.952 29.0665 19.7063 29.6292 20.6843L36.7513 33.02C36.2414 32.137 36.0178 31.1176 36.1113 30.1023C36.2048 29.0869 36.6108 28.1255 37.2734 27.3505C37.936 26.5754 38.8225 26.0249 39.811 25.7746C40.7994 25.5243 41.8412 25.5866 42.7927 25.953L42.7933 25.9538V25.9532C43.8467 26.3571 44.7289 27.1114 45.2915 28.0893L49.9482 36.1551C51.3642 38.6015 52.2364 41.3243 52.5056 44.1381C52.7748 46.9518 52.4347 49.7906 51.5083 52.4611C54.85 49.4333 57.0536 45.352 57.7523 40.8971C58.451 36.4421 57.6025 31.8822 55.3482 27.9767Z" fill="#FCFCFC"/>
<path d="M52.1146 19.0893C51.5384 18.0891 50.7088 17.2583 49.7092 16.6808C48.7097 16.1033 47.5756 15.7995 46.4212 15.7999C45.2669 15.8003 44.133 16.105 43.1339 16.6832C42.1348 17.2614 41.3057 18.0927 40.7302 19.0934L36.4523 11.684C35.8705 10.6735 35.03 9.83606 34.0174 9.25791C33.0047 8.67976 31.8563 8.3817 30.6903 8.39436C29.5243 8.40702 28.3827 8.72995 27.3828 9.32996C26.3829 9.92997 25.5609 10.7854 25.0011 11.8084C24.0295 10.6842 22.7058 9.92222 21.2457 9.64676C19.7855 9.3713 18.2752 9.59857 16.9608 10.2915C15.6464 10.9845 14.6055 12.1022 14.0077 13.4626C13.41 14.8229 13.2907 16.3456 13.6693 17.7824C12.6079 17.9379 11.6007 18.3509 10.7357 18.9853C9.87071 19.6198 9.17423 20.4564 8.7071 21.4221C8.23997 22.3877 8.01642 23.4531 8.05596 24.5251C8.0955 25.5971 8.39693 26.6431 8.93393 27.5718L9.92417 29.2871C8.76986 29.2854 7.63548 29.588 6.63531 30.1642C5.63514 30.7405 4.80448 31.5702 4.22701 32.5697C3.64955 33.5692 3.34565 34.7032 3.34595 35.8575C3.34624 37.0118 3.65071 38.1457 4.22869 39.1449L14.364 56.6998C16.3943 60.2172 19.3852 63.083 22.9861 64.9613C26.587 66.8397 30.6487 67.6527 34.6952 67.3052C38.7416 66.9576 42.6052 65.4638 45.833 62.9989C49.0608 60.534 51.5192 57.2001 52.92 53.388C56.4064 50.078 58.681 45.6936 59.3794 40.9372C60.0777 36.1807 59.1593 31.3275 56.7714 27.1551L52.1146 19.0893ZM27.5837 14.1203C27.7519 13.4923 28.1026 12.9283 28.5914 12.4996C29.0802 12.0709 29.6852 11.7968 30.3298 11.7119C30.9744 11.6271 31.6297 11.7353 32.2128 12.0229C32.7959 12.3104 33.2806 12.7645 33.6057 13.3276L39.8205 24.0921C38.8862 24.2647 38.0006 24.6385 37.2253 25.1876C36.4499 25.7368 35.8033 26.448 35.3303 27.2721L31.0524 19.8624C30.4079 18.7435 29.4463 17.8406 28.289 17.2677L27.9138 16.618L27.9124 16.6147C27.6954 16.2413 27.5547 15.8286 27.4983 15.4004C27.4419 14.9723 27.4709 14.5372 27.5837 14.1203ZM16.8521 15.2552C17.0203 14.6272 17.371 14.0631 17.8598 13.6345C18.3486 13.2058 18.9536 12.9317 19.5982 12.8468C20.2428 12.7619 20.8981 12.8701 21.4812 13.1577C22.0643 13.4453 22.549 13.8994 22.8741 14.4624L24.1579 16.6867C23.2011 16.8638 22.2955 17.2514 21.507 17.8217C20.7184 18.3919 20.0666 19.1304 19.5987 19.9837C19.0303 19.3263 18.3366 18.7887 17.558 18.4026L17.1805 17.7496C16.9635 17.3762 16.8227 16.9634 16.7664 16.5353C16.71 16.1071 16.7391 15.672 16.8521 15.2552ZM41.9073 61.6734C37.7535 64.0652 32.8206 64.7117 28.1907 63.4711C23.5608 62.2306 19.612 59.2042 17.2106 55.0559L7.07534 37.5011C6.63944 36.746 6.52132 35.8488 6.74697 35.0067C6.97261 34.1646 7.52354 33.4466 8.27856 33.0107C9.03357 32.5748 9.93082 32.4567 10.7729 32.6823C11.615 32.908 12.333 33.4589 12.7689 34.2139L12.7692 34.2145L19.3434 45.6011C19.4505 45.7895 19.5939 45.9549 19.7652 46.0877C19.9365 46.2205 20.1324 46.3181 20.3416 46.3749C20.5507 46.4317 20.7691 46.4465 20.984 46.4186C21.199 46.3906 21.4063 46.3205 21.594 46.2121C21.7817 46.1037 21.9461 45.9593 22.0778 45.7871C22.2094 45.6149 22.3057 45.4184 22.3612 45.2088C22.4166 44.9993 22.43 44.7808 22.4006 44.5661C22.3712 44.3513 22.2997 44.1445 22.1901 43.9575L11.7808 25.9279C11.5616 25.5539 11.4185 25.1403 11.3598 24.7108C11.301 24.2813 11.3279 23.8444 11.4387 23.4253C11.5495 23.0062 11.7421 22.6131 12.0054 22.2688C12.2687 21.9244 12.5976 21.6355 12.973 21.4188C13.3484 21.202 13.763 21.0617 14.1929 21.0058C14.6228 20.9499 15.0595 20.9796 15.4778 21.0932C15.8962 21.2068 16.288 21.402 16.6306 21.6676C16.9732 21.9332 17.2599 22.2639 17.4741 22.6408L27.8834 40.6704C28.1013 41.0479 28.4603 41.3234 28.8814 41.4362C29.3024 41.5491 29.7511 41.49 30.1286 41.2721C30.5061 41.0541 30.7816 40.6951 30.8944 40.2741C31.0073 39.853 30.9482 39.4043 30.7303 39.0268L22.5125 24.793C22.2932 24.4191 22.1501 24.0054 22.0914 23.5759C22.0327 23.1464 22.0595 22.7095 22.1703 22.2904C22.2811 21.8713 22.4737 21.4783 22.737 21.1339C23.0004 20.7895 23.3292 20.5006 23.7046 20.2839C24.08 20.0671 24.4946 19.9268 24.9245 19.8709C25.3544 19.815 25.7911 19.8447 26.2095 19.9583C26.6278 20.0719 27.0196 20.2671 27.3622 20.5327C27.7048 20.7983 27.9915 21.1291 28.2058 21.5059L39.7107 41.433C39.9302 41.8074 40.2889 42.0798 40.7085 42.1907C41.1281 42.3017 41.5745 42.2421 41.9504 42.0251C42.3262 41.8081 42.601 41.4512 42.7147 41.0324C42.8284 40.6136 42.7718 40.1667 42.5573 39.7894L38.1745 32.1984V32.1981C37.9587 31.8243 37.8186 31.4116 37.7622 30.9836C37.7059 30.5556 37.7344 30.1207 37.8461 29.7037C38.0718 28.8616 38.6227 28.1437 39.3777 27.7078C40.1327 27.2719 41.03 27.1537 41.8721 27.3794C42.7142 27.605 43.4322 28.156 43.8681 28.911L48.5248 36.9768C49.712 39.0329 50.4825 41.3027 50.7924 43.6566C51.1023 46.0105 50.9456 48.4024 50.3311 50.6957C49.7166 52.989 48.6564 55.1388 47.211 57.0224C45.7657 58.9059 43.9635 60.4864 41.9073 61.6734ZM54.2398 46.2922C54.2938 42.4469 53.3025 38.6591 51.3717 35.3332L46.715 27.2674C46.0704 26.1487 45.1088 25.2459 43.9516 24.6731L43.5747 24.0197C43.1499 23.2655 43.0399 22.3741 43.2684 21.5391C43.4969 20.7042 44.0456 19.993 44.7953 19.5602C45.5449 19.1273 46.4351 19.0077 47.2725 19.2272C48.1098 19.4467 48.8268 19.9877 49.2677 20.7326L53.9245 28.7984C55.4436 31.4527 56.2689 34.4471 56.324 37.5049C56.3791 40.5626 55.6622 43.5849 54.2398 46.2922ZM45.7206 6.89549L46.8552 2.66223C46.968 2.24115 47.2435 1.88212 47.621 1.66413C47.9985 1.44614 48.4471 1.38703 48.8682 1.49982C49.2893 1.61261 49.6483 1.88805 49.8663 2.26555C50.0843 2.64306 50.1434 3.09169 50.0306 3.51277L48.8957 7.74631C48.8399 7.95481 48.7435 8.15026 48.6121 8.32152C48.4807 8.49277 48.3169 8.63647 48.13 8.74441C47.9431 8.85235 47.7367 8.92241 47.5227 8.95061C47.3087 8.9788 47.0913 8.96456 46.8828 8.90872C46.6743 8.85287 46.4788 8.7565 46.3076 8.62512C46.1363 8.49373 45.9926 8.3299 45.8847 8.14298C45.7767 7.95606 45.7067 7.74971 45.6785 7.53572C45.6503 7.32172 45.6645 7.10426 45.7204 6.89577L45.7206 6.89549ZM52.8597 9.59449L55.3735 6.00441C55.4973 5.8276 55.6548 5.67691 55.8368 5.56094C56.0188 5.44497 56.2219 5.36599 56.4345 5.32851C56.647 5.29103 56.8649 5.29578 57.0756 5.3425C57.2863 5.38921 57.4858 5.47698 57.6626 5.60078C57.8394 5.72458 57.9901 5.88199 58.1061 6.06403C58.222 6.24606 58.301 6.44916 58.3385 6.66172C58.376 6.87428 58.3712 7.09214 58.3245 7.30286C58.2778 7.51358 58.19 7.71304 58.0662 7.88985L55.5524 11.4799C55.3024 11.837 54.9208 12.0801 54.4915 12.1558C54.0622 12.2315 53.6204 12.1336 53.2633 11.8836C52.9063 11.6335 52.6631 11.2519 52.5874 10.8226C52.5118 10.3933 52.6097 9.95157 52.8597 9.59449ZM64.1208 14.7514L60.5305 17.2653C60.1734 17.5153 59.7316 17.6132 59.3024 17.5375C58.8731 17.4618 58.4914 17.2187 58.2414 16.8616C57.9914 16.5046 57.8935 16.0628 57.9691 15.6335C58.0448 15.2042 58.288 14.8226 58.645 14.5726L62.2351 12.0585C62.5922 11.8084 63.034 11.7105 63.4633 11.7862C63.8925 11.8619 64.2742 12.105 64.5242 12.4621C64.7742 12.8192 64.8722 13.2609 64.7965 13.6902C64.7208 14.1195 64.4776 14.5011 64.1206 14.7512L64.1208 14.7514Z" fill="white"/>
</svg>
