<svg width="44" height="44" viewBox="0 0 44 44" fill="none" xmlns="http://www.w3.org/2000/svg">
<path d="M27.1176 33.2099C25.4042 34.0356 23.5267 34.4645 21.6248 34.4645C19.7228 34.4645 17.8453 34.0356 16.132 33.2099V35.2148C19.6521 36.6555 23.5974 36.6555 27.1176 35.2148V33.2099Z" fill="white"/>
<path d="M21.6247 7C18.5945 7.00472 15.6402 7.94914 13.1692 9.70313C10.6982 11.4571 8.83194 13.9343 7.82772 16.7933C6.82349 19.6524 6.73071 22.7525 7.56214 25.6664C8.39358 28.5804 10.1083 31.1648 12.47 33.0634V30.6008C10.7038 28.7981 9.50904 26.5141 9.03564 24.0352C8.56225 21.5562 8.83125 18.9927 9.80893 16.666C10.7866 14.3394 12.4294 12.3531 14.5314 10.9564C16.6334 9.55959 19.101 8.8145 21.6247 8.8145C24.1485 8.8145 26.616 9.55959 28.718 10.9564C30.82 12.3531 32.4628 14.3394 33.4405 16.666C34.4182 18.9927 34.6872 21.5562 34.2138 24.0352C33.7404 26.5141 32.5457 28.7981 30.7794 30.6008V33.0634C33.1411 31.1648 34.8559 28.5804 35.6873 25.6664C36.5187 22.7525 36.426 19.6524 35.4217 16.7933C34.4175 13.9343 32.5513 11.4571 30.0802 9.70313C27.6092 7.94914 24.655 7.00472 21.6247 7Z" fill="white"/>
<path d="M21.6247 30.8022C20.8963 30.8022 20.1978 30.5129 19.6827 29.9978C19.1676 29.4828 18.8783 28.7842 18.8783 28.0558V26.2249C18.8783 25.4965 19.1676 24.7979 19.6827 24.2829C20.1978 23.7678 20.8963 23.4785 21.6247 23.4785C22.3531 23.4785 23.0517 23.7678 23.5667 24.2829C24.0818 24.7979 24.3711 25.4965 24.3711 26.2249V28.0558C24.3711 28.7842 24.0818 29.4828 23.5667 29.9978C23.0517 30.5129 22.3531 30.8022 21.6247 30.8022ZM21.6247 25.3094C21.3819 25.3094 21.1491 25.4058 20.9774 25.5775C20.8057 25.7492 20.7092 25.9821 20.7092 26.2249V28.0558C20.7092 28.2986 20.8057 28.5315 20.9774 28.7031C21.1491 28.8748 21.3819 28.9713 21.6247 28.9713C21.8675 28.9713 22.1004 28.8748 22.272 28.7031C22.4437 28.5315 22.5402 28.2986 22.5402 28.0558V26.2249C22.5402 25.9821 22.4437 25.7492 22.272 25.5775C22.1004 25.4058 21.8675 25.3094 21.6247 25.3094Z" fill="white"/>
<path d="M14.301 36.295C14.0582 36.295 13.8253 36.1986 13.6536 36.0269C13.4819 35.8552 13.3855 35.6224 13.3855 35.3796V20.732C13.3855 20.4892 13.4819 20.2564 13.6536 20.0847C13.8253 19.913 14.0582 19.8166 14.301 19.8166C14.5438 19.8166 14.7766 19.913 14.9483 20.0847C15.12 20.2564 15.2164 20.4892 15.2164 20.732V35.3796C15.2164 35.6224 15.12 35.8552 14.9483 36.0269C14.7766 36.1986 14.5438 36.295 14.301 36.295Z" fill="white"/>
<path d="M28.9484 36.295C28.7056 36.295 28.4728 36.1986 28.3011 36.0269C28.1294 35.8552 28.033 35.6224 28.033 35.3796V20.732C28.033 20.4892 28.1294 20.2564 28.3011 20.0847C28.4728 19.913 28.7056 19.8166 28.9484 19.8166C29.1912 19.8166 29.4241 19.913 29.5958 20.0847C29.7674 20.2564 29.8639 20.4892 29.8639 20.732V35.3796C29.8639 35.6224 29.7674 35.8552 29.5958 36.0269C29.4241 36.1986 29.1912 36.295 28.9484 36.295Z" fill="white"/>
<path d="M14.3009 18.9011C14.1573 18.9028 14.0156 18.8682 13.889 18.8004C13.6734 18.6907 13.51 18.5 13.4345 18.2701C13.359 18.0403 13.3776 17.7899 13.4862 17.5737L13.5777 17.3906C13.8408 16.8639 14.2252 16.4072 14.6993 16.0581C15.1734 15.709 15.7236 15.4776 16.3047 15.3828C16.8858 15.2881 17.481 15.3327 18.0415 15.5131C18.6019 15.6934 19.1115 16.0043 19.5283 16.4202C19.7007 16.5926 19.7975 16.8264 19.7975 17.0702C19.7975 17.314 19.7007 17.5478 19.5283 17.7202C19.3559 17.8925 19.1221 17.9894 18.8783 17.9894C18.6345 17.9894 18.4007 17.8925 18.2283 17.7202C18.0206 17.5054 17.7635 17.3448 17.4795 17.2522C17.1955 17.1597 16.8931 17.138 16.5988 17.1892C16.3029 17.2328 16.0222 17.3482 15.7812 17.5253C15.5402 17.7025 15.3463 17.9359 15.2164 18.2053L15.1157 18.3976C15.0396 18.5486 14.9232 18.6755 14.7794 18.7644C14.6356 18.8533 14.47 18.9006 14.3009 18.9011Z" fill="white"/>
<path d="M28.9485 18.9011C28.7794 18.9006 28.6138 18.8533 28.47 18.7644C28.3262 18.6755 28.2098 18.5486 28.1337 18.3976L28.033 18.2053C27.9031 17.9359 27.7092 17.7025 27.4682 17.5253C27.2272 17.3482 26.9465 17.2328 26.6506 17.1892C26.3563 17.138 26.0539 17.1597 25.7699 17.2522C25.4859 17.3448 25.2288 17.5054 25.0211 17.7202C24.8487 17.8925 24.6149 17.9894 24.3711 17.9894C24.1273 17.9894 23.8935 17.8925 23.7211 17.7202C23.5488 17.5478 23.4519 17.314 23.4519 17.0702C23.4519 16.8264 23.5488 16.5926 23.7211 16.4202C24.1379 16.0043 24.6475 15.6934 25.2079 15.5131C25.7684 15.3327 26.3636 15.2881 26.9447 15.3828C27.5258 15.4776 28.076 15.709 28.5501 16.0581C29.0242 16.4072 29.4086 16.8639 29.6717 17.3906L29.7632 17.5737C29.8718 17.7899 29.8904 18.0403 29.8149 18.2701C29.7394 18.5 29.576 18.6907 29.3604 18.8004C29.2338 18.8682 29.0921 18.9028 28.9485 18.9011Z" fill="white"/>
<circle opacity="0.3" cx="22" cy="22" r="22" fill="url(#paint0_radial)"/>
<defs>
<radialGradient id="paint0_radial" cx="0" cy="0" r="1" gradientUnits="userSpaceOnUse" gradientTransform="translate(22 22) rotate(90) scale(22)">
<stop stop-color="white" stop-opacity="0"/>
<stop offset="1" stop-color="white"/>
</radialGradient>
</defs>
</svg>
