<svg width="66" height="66" viewBox="0 0 66 66" fill="none" xmlns="http://www.w3.org/2000/svg">
<path d="M33.3166 0.0554047C15.378 0.0554047 0.843811 14.8059 0.843811 33.0114C0.843811 44.9845 7.15505 55.4294 16.5564 61.1967V37.2638C16.5564 36.0944 17.4992 35.1376 18.6515 35.1376C19.8037 35.1376 20.7465 36.0944 20.7465 37.2638V63.4027C24.6092 65.0505 28.8647 65.9674 33.3166 65.9674C37.7685 65.9674 42.024 65.0505 45.8867 63.4027V37.2638C45.8867 36.0944 46.8294 35.1376 47.9817 35.1376C49.1339 35.1376 50.0767 36.0944 50.0767 37.2638V61.1967C59.4781 55.4294 65.7893 44.9712 65.7893 33.0114C65.7893 14.8059 51.2551 0.0554047 33.3166 0.0554047ZM24.7401 28.8254C22.8022 27.0713 18.6907 27.0713 16.7528 28.8254L15.5089 29.955C15.0114 30.3935 14.2912 30.4865 13.7151 30.1676C13.1389 29.8487 12.8116 29.1842 12.9163 28.5198C13.4401 25.1711 17.3944 22.9253 20.7596 22.9253C24.1247 22.9253 28.079 25.1711 28.6028 28.5198C28.7075 29.1842 28.3802 29.8487 27.8041 30.1676C27.0446 30.5796 26.3375 30.2606 26.0102 29.955L24.7401 28.8254ZM33.3166 54.2733C29.8467 54.2733 27.0315 50.4595 27.0315 45.7685C27.0315 41.0776 29.8467 37.2638 33.3166 37.2638C36.7864 37.2638 39.6016 41.0776 39.6016 45.7685C39.6016 50.4595 36.7864 54.2733 33.3166 54.2733ZM52.9312 30.1543C52.1717 30.5663 51.4647 30.2473 51.1373 29.9417L49.8934 28.8122C47.9555 27.0581 43.844 27.0581 41.9061 28.8122L40.6491 29.955C40.1516 30.3935 39.4314 30.4865 38.8553 30.1676C38.2791 29.8487 37.9518 29.1842 38.0565 28.5198C38.5803 25.1711 42.5346 22.9253 45.8998 22.9253C49.2649 22.9253 53.2192 25.1711 53.743 28.5198C53.8215 29.171 53.5073 29.8354 52.9312 30.1543Z" fill="white"/>
</svg>
