<svg width="44" height="44" viewBox="0 0 44 44" fill="none" xmlns="http://www.w3.org/2000/svg">
<circle opacity="0.3" cx="22" cy="22" r="22" fill="url(#paint0_radial)"/>
<path d="M25.2753 18.2821V24.2764C26.1066 26.7704 27.3755 32.1084 24.8377 35.915C24.4439 36.5275 23.5251 36.615 22.9563 36.09C22.5188 35.6962 22.475 35.0399 22.7813 34.5586C24.4877 31.9334 23.7439 27.908 22.7813 24.9327L20.1561 32.5897C19.8498 33.5523 18.6247 33.9023 17.8371 33.246L13.7242 29.6582C13.1992 29.2206 13.1554 28.4768 13.593 27.9518C14.0305 27.4267 14.8181 27.383 15.2994 27.8205L18.1434 30.227L19.5435 24.9765V18.5447C18.2746 18.5009 16.8745 18.4571 15.5619 18.4134C14.5993 18.3696 13.8555 17.5383 13.943 16.532L14.5118 9.83762C14.6868 9.35633 15.2119 9.05005 15.6932 9.05005C16.4807 9.05005 17.137 9.83762 16.9183 10.6252L16.4807 14.1693C16.3932 14.7818 16.9183 15.3506 17.5308 15.3506H24.7502C25.1003 15.3506 25.4065 15.2194 25.5816 14.9568C26.5879 13.6442 27.2442 11.544 27.5942 10.0126C27.8568 9.22507 28.3818 9.05005 28.9506 9.05005C29.6507 9.13756 30.132 9.83762 30.0007 10.5377C29.5194 12.7254 28.2505 17.0133 25.2753 18.2821Z" fill="white"/>
<path d="M19.8935 12.7692C19.1934 11.7191 19.0622 10.5377 19.631 9.53139C20.1123 8.5688 21.1186 8 22.1687 8C23.7439 8 25.0565 9.31262 25.0565 10.8878C25.0565 11.9379 24.4439 13.0755 23.5688 13.6443C23.1313 13.9505 22.65 14.0818 22.1687 14.0818C21.8187 14.0818 21.5124 13.9943 21.1624 13.863C20.6373 13.6443 20.1998 13.2942 19.8935 12.7692Z" fill="white"/>
<path d="M29.9189 34.8203H30.6709C31.029 34.8203 31.2943 34.7308 31.4668 34.5518C31.6393 34.3727 31.7256 34.1351 31.7256 33.8389C31.7256 33.5524 31.6393 33.3294 31.4668 33.1699C31.2975 33.0104 31.0632 32.9307 30.7637 32.9307C30.4935 32.9307 30.2673 33.0055 30.085 33.1553C29.9027 33.3018 29.8115 33.4938 29.8115 33.7314H28.4004C28.4004 33.3604 28.4997 33.0283 28.6982 32.7354C28.9001 32.4391 29.18 32.208 29.5381 32.042C29.8994 31.876 30.2965 31.793 30.7295 31.793C31.4814 31.793 32.0706 31.9736 32.4971 32.335C32.9235 32.693 33.1367 33.1878 33.1367 33.8193C33.1367 34.1449 33.0374 34.4443 32.8389 34.7178C32.6403 34.9912 32.3799 35.2012 32.0576 35.3477C32.458 35.4909 32.7559 35.7057 32.9512 35.9922C33.1497 36.2786 33.249 36.6172 33.249 37.0078C33.249 37.6393 33.0179 38.1455 32.5557 38.5264C32.0967 38.9072 31.488 39.0977 30.7295 39.0977C30.0199 39.0977 29.4388 38.9105 28.9863 38.5361C28.5371 38.1618 28.3125 37.667 28.3125 37.0518H29.7236C29.7236 37.3187 29.8229 37.5368 30.0215 37.7061C30.2233 37.8753 30.4707 37.96 30.7637 37.96C31.099 37.96 31.361 37.8721 31.5498 37.6963C31.7419 37.5173 31.8379 37.2812 31.8379 36.9883C31.8379 36.2786 31.4473 35.9238 30.666 35.9238H29.9189V34.8203Z" fill="white"/>
<path d="M11.8759 24C11.2512 24 10.6889 23.6823 10.2516 23.174C10.0017 22.8564 9.81427 22.4116 9.81427 22.0304C9.81427 22.0304 9.81427 21.9669 9.81427 21.9033V15.9311L8.00254 17.4559C7.75264 17.71 7.31533 17.6465 7.12791 17.3924C6.94049 17.1382 6.94049 16.6935 7.25285 16.5029L10.0642 14.1521C10.2516 13.9615 10.5015 13.9615 10.7514 14.0886C11.0013 14.2156 11.1262 14.4062 11.1262 14.6604V20.0608C11.1887 20.0608 11.2512 19.9973 11.3761 19.9973C12.0008 19.8067 12.6881 19.9338 13.1878 20.315C13.6876 20.6962 14 21.3315 14 21.9669C13.9375 23.047 13.0004 24 11.8759 24Z" fill="white"/>
<defs>
<radialGradient id="paint0_radial" cx="0" cy="0" r="1" gradientUnits="userSpaceOnUse" gradientTransform="translate(22 22) rotate(90) scale(22)">
<stop stop-color="white" stop-opacity="0"/>
<stop offset="1" stop-color="white"/>
</radialGradient>
</defs>
</svg>
