<svg width="92" height="92" viewBox="0 0 92 92" fill="none" xmlns="http://www.w3.org/2000/svg">
<path d="M51.7117 21.0064C55.9284 21.0064 59.3784 17.5564 59.3784 13.3398C59.3784 9.1231 55.9284 5.6731 51.7117 5.6731C47.4951 5.6731 44.0451 9.1231 44.0451 13.3398C44.0451 17.5564 47.4951 21.0064 51.7117 21.0064ZM39.5601 67.0064L41.7451 57.4231L49.7951 65.0898V84.2564C49.7951 86.3648 51.5201 88.0898 53.6284 88.0898C55.7367 88.0898 57.4617 86.3648 57.4617 84.2564V62.6364C57.4617 60.5281 56.6184 58.5348 55.0851 57.0781L49.4117 51.6731L51.7117 40.1731C56.0316 45.1116 61.9453 48.3804 68.4251 49.4114C70.7251 49.7564 72.7951 47.9164 72.7951 45.5781C72.7951 43.6998 71.4151 42.1281 69.5367 41.8214C63.7101 40.8631 58.8801 37.4131 56.3117 32.8898L52.4784 26.7564C50.9451 24.4564 48.6451 22.9231 45.9617 22.9231C44.8117 22.9231 44.0451 23.3064 42.8951 23.3064L27.6384 29.7464C26.2496 30.34 25.0659 31.3287 24.2345 32.5895C23.403 33.8504 22.9604 35.3278 22.9617 36.8381V45.9231C22.9617 48.0314 24.6867 49.7564 26.7951 49.7564C28.9034 49.7564 30.6284 48.0314 30.6284 45.9231V36.7231L37.5284 34.0398L31.3951 65.0898L16.3684 62.0231C14.2984 61.6014 12.2667 62.9431 11.8451 65.0131V65.1664C11.4234 67.2364 12.7651 69.2681 14.8351 69.6898L30.5901 72.8331C32.5497 73.2221 34.5837 72.8307 36.2591 71.7425C37.9344 70.6542 39.1188 68.9549 39.5601 67.0064Z" fill="white"/>
</svg>
