<svg width="44" height="44" viewBox="0 0 44 44" fill="none" xmlns="http://www.w3.org/2000/svg">
<path d="M21.5 37C13.4892 37 7 30.5108 7 22.5C7 14.4892 13.4892 8 21.5 8C29.5108 8 36 14.4892 36 22.5C36 30.5108 29.5108 37 21.5 37ZM21.5 9.34259C14.25 9.34259 8.34259 15.25 8.34259 22.5C8.34259 29.75 14.25 35.6574 21.5 35.6574C28.75 35.6574 34.6574 29.75 34.6574 22.5C34.6574 15.25 28.75 9.34259 21.5 9.34259Z" fill="white"/>
<path fill-rule="evenodd" clip-rule="evenodd" d="M17.9001 20.4698C17.1319 21.1685 16.0298 21.5784 14.8421 21.5784C13.6543 21.5784 12.5523 21.1685 11.784 20.4698C11.5084 20.2192 11.0959 20.5526 11.2831 20.8747C11.998 22.1046 13.3501 22.8818 14.8421 22.8818C16.3341 22.8818 17.6861 22.1046 18.401 20.8747C18.5883 20.5526 18.1757 20.2192 17.9001 20.4698Z" fill="white"/>
<path fill-rule="evenodd" clip-rule="evenodd" d="M31.2596 20.4698C30.4914 21.1685 29.3893 21.5784 28.2016 21.5784C27.0138 21.5784 25.9118 21.1685 25.1435 20.4698C24.8679 20.2192 24.4554 20.5526 24.6426 20.8747C25.3575 22.1046 26.7096 22.8818 28.2016 22.8818C29.6936 22.8818 31.0456 22.1046 31.7605 20.8747C31.9478 20.5526 31.5352 20.2192 31.2596 20.4698Z" fill="white"/>
<path fill-rule="evenodd" clip-rule="evenodd" d="M25.4924 28.1522C24.5408 27.1194 23.1314 26.4661 21.5219 26.4661C19.9123 26.4661 18.5029 27.1194 17.5513 28.1522C16.6914 29.0856 16.3563 30.1978 16.8884 30.7509C17.1919 31.0664 17.5763 31.0969 18.0461 30.9234C18.2102 30.8628 18.3833 30.7804 18.6259 30.652C18.6375 30.6459 19.1116 30.3905 19.2598 30.3142C20.093 29.8851 20.7631 29.6728 21.5218 29.6728C22.2804 29.6728 22.9506 29.8851 23.7838 30.3142C23.932 30.3905 24.4061 30.6459 24.4177 30.652C24.6604 30.7804 24.8334 30.8628 24.9975 30.9234C25.4673 31.0969 25.8517 31.0664 26.1553 30.7509C26.6873 30.1978 26.3523 29.0856 25.4924 28.1522Z" fill="white"/>
<circle opacity="0.3" cx="22" cy="22" r="22" fill="url(#paint0_radial)"/>
</svg>
