<?xml version="1.0" encoding="UTF-8" standalone="no"?><!DOCTYPE svg PUBLIC "-//W3C//DTD SVG 1.1//EN" "http://www.w3.org/Graphics/SVG/1.1/DTD/svg11.dtd"><svg width="100%" height="100%" viewBox="0 0 167 167" version="1.1" xmlns="http://www.w3.org/2000/svg" xmlns:xlink="http://www.w3.org/1999/xlink" xml:space="preserve" xmlns:serif="http://www.serif.com/" style="fill-rule:evenodd;clip-rule:evenodd;stroke-linejoin:round;stroke-miterlimit:2;"><g><path d="M66.12,69.894c-5.405,0.183 -9.738,4.137 -9.738,8.886c-0,0.119 0.003,0.238 0.008,0.357c-0.019,0.217 -0.028,0.435 -0.028,0.653c-0,4.686 4.392,8.543 9.73,8.543c5.338,-0 9.73,-3.857 9.73,-8.543c0,-0.218 -0.009,-0.436 -0.028,-0.653c0.009,-0.152 0.013,-0.303 0.013,-0.455c0,-4.715 -4.319,-8.633 -9.687,-8.788Zm34.768,0c-5.406,0.183 -9.739,4.137 -9.739,8.886c0,0.119 0.003,0.238 0.008,0.357c-0.019,0.217 -0.028,0.435 -0.028,0.653c-0,4.686 4.392,8.543 9.73,8.543c5.338,-0 9.731,-3.857 9.731,-8.543c-0,-0.218 -0.01,-0.436 -0.029,-0.653c0.007,-0.136 0.011,-0.271 0.011,-0.407c-0,-4.722 -4.309,-8.654 -9.684,-8.836Z" style="fill:#fff;fill-rule:nonzero;"/><path d="M147.149,0l-127.632,0c-10.716,0.027 -19.517,7.777 -19.517,17.186l0,112.56c0,9.401 8.811,17.136 19.517,17.136l108.115,0l-5.065,-15.387l12.234,9.992l11.381,9.342l20.485,15.838l-0,-149.481c-0,-9.409 -8.801,-17.159 -19.518,-17.186Zm-36.759,108.763c0,-0 -3.414,-3.597 -6.259,-6.745c6.85,-1.464 12.897,-5.004 17.071,-9.992c-3.412,2.028 -7.078,3.704 -10.925,4.996c-4.444,1.645 -9.081,2.851 -13.828,3.598c-8.142,1.333 -16.496,1.333 -24.638,-0c-4.831,-0.825 -9.557,-2.063 -14.112,-3.698c-2.383,-0.795 -4.702,-1.729 -6.942,-2.797c-0.285,-0 -0.569,-0.25 -0.854,-0.45c-0.161,-0.041 -0.301,-0.129 -0.398,-0.25c-0.921,-0.422 -1.814,-0.889 -2.674,-1.399c4.057,4.937 9.958,8.473 16.672,9.992c-2.845,3.148 -6.373,6.895 -6.373,6.895c-11.418,0.167 -22.224,-4.624 -28.85,-12.79c0.309,-16.891 5,-33.5 13.714,-48.561c7.769,-5.32 17.241,-8.378 27.085,-8.743l0.911,0.999c-9.148,1.991 -17.692,5.707 -25.037,10.891c-7.345,5.184 2.105,-0.999 5.69,-2.398c6.868,-2.641 14.163,-4.327 21.623,-4.996c0.529,-0.049 1.064,-0.049 1.593,0c6.388,-0.682 12.846,-0.682 19.233,0c9.978,1.044 19.636,3.758 28.451,7.994c-6.986,-5.202 -15.181,-9.005 -24.013,-11.141l1.366,-1.349c9.846,0.358 19.32,3.417 27.086,8.743c8.655,15.074 13.286,31.682 13.542,48.561c-6.74,8.163 -17.654,12.898 -29.134,12.64Z" style="fill:#fff;fill-rule:nonzero;"/></g></svg>