<svg width="31" height="35" viewBox="0 0 31 35" fill="none" xmlns="http://www.w3.org/2000/svg">
<path d="M26.7123 0.843994H4.28779C2.39677 0.843994 0.857178 2.37733 0.857178 4.27733V26.8107C0.857178 28.7107 2.39677 30.244 4.28779 30.244H23.2649L22.378 27.1607L24.52 29.144L26.5449 31.0107L30.1429 34.1773V4.27733C30.1429 2.37733 28.6033 0.843994 26.7123 0.843994ZM20.2527 22.6107C20.2527 22.6107 19.6502 21.894 19.1482 21.2607C21.3404 20.644 22.1772 19.2773 22.1772 19.2773C21.4911 19.7273 20.8384 20.044 20.2527 20.2607C19.416 20.6107 18.6127 20.844 17.8262 20.9773C16.2196 21.2773 14.747 21.194 13.4919 20.9607C12.538 20.7773 11.718 20.5107 11.0319 20.244C10.647 20.094 10.2286 19.9107 9.81024 19.6773C9.76003 19.644 9.70983 19.6273 9.65963 19.594C9.62616 19.5773 9.60942 19.5607 9.59269 19.544C9.29146 19.3773 9.12412 19.2607 9.12412 19.2607C9.12412 19.2607 9.92738 20.594 12.0527 21.2273C11.5506 21.8607 10.9315 22.6107 10.9315 22.6107C7.2331 22.494 5.82738 20.0773 5.82738 20.0773C5.82738 14.7107 8.23718 10.3607 8.23718 10.3607C10.647 8.56066 12.9396 8.61066 12.9396 8.61066L13.107 8.81066C10.0947 9.67733 8.70575 10.994 8.70575 10.994C8.70575 10.994 9.07391 10.794 9.6931 10.5107C11.4837 9.72733 12.9062 9.51066 13.4919 9.46066C13.5923 9.44399 13.676 9.42733 13.7764 9.42733C14.7972 9.29399 15.9519 9.26066 17.1568 9.394C18.7466 9.57733 20.4535 10.044 22.1939 10.994C22.1939 10.994 20.8719 9.74399 18.027 8.87733L18.2613 8.61066C18.2613 8.61066 20.5539 8.56066 22.9637 10.3607C22.9637 10.3607 25.3735 14.7107 25.3735 20.0773C25.3735 20.0773 23.9511 22.494 20.2527 22.6107Z" fill="#7289DA"/>
</svg>
