<?xml version="1.0" encoding="UTF-8" standalone="no"?><!DOCTYPE svg PUBLIC "-//W3C//DTD SVG 1.1//EN" "http://www.w3.org/Graphics/SVG/1.1/DTD/svg11.dtd"><svg width="100%" height="100%" viewBox="0 0 184 184" version="1.1" xmlns="http://www.w3.org/2000/svg" xmlns:xlink="http://www.w3.org/1999/xlink" xml:space="preserve" xmlns:serif="http://www.serif.com/" style="fill-rule:evenodd;clip-rule:evenodd;stroke-linejoin:round;stroke-miterlimit:2;"><circle cx="91.667" cy="91.667" r="91.667" style="fill:url(#_Radial1);"/><path d="M105.314,76.175l-0,24.977c3.463,10.391 8.751,32.633 -1.824,48.494c-1.64,2.552 -5.469,2.917 -7.839,0.729c-1.823,-1.641 -2.005,-4.375 -0.729,-6.381c7.11,-10.938 4.011,-27.711 0,-40.108l-10.938,31.904c-1.277,4.011 -6.381,5.47 -9.663,2.735l-17.137,-14.949c-2.187,-1.824 -2.37,-4.923 -0.547,-7.11c1.823,-2.188 5.105,-2.37 7.11,-0.547l11.85,10.027l5.834,-21.877l0,-26.799c-5.287,-0.183 -11.121,-0.365 -16.59,-0.548c-4.011,-0.182 -7.11,-3.646 -6.745,-7.839l2.37,-27.893c0.729,-2.005 2.917,-3.281 4.922,-3.281c3.282,-0 6.016,3.281 5.105,6.563l-1.823,14.767c-0.365,2.552 1.823,4.922 4.375,4.922l30.081,-0c1.459,-0 2.734,-0.547 3.464,-1.641c4.193,-5.469 6.927,-14.22 8.386,-20.601c1.094,-3.281 3.281,-4.01 5.651,-4.01c2.918,0.364 4.923,3.281 4.376,6.198c-2.005,9.115 -7.293,26.982 -19.689,32.268Z" style="fill:#fff;fill-rule:nonzero;"/><path d="M82.89,53.205c-2.917,-4.375 -3.464,-9.298 -1.094,-13.491c2.005,-4.011 6.198,-6.381 10.574,-6.381c6.563,0 12.032,5.47 12.032,12.033c0,4.375 -2.552,9.115 -6.199,11.485c-1.823,1.276 -3.828,1.823 -5.833,1.823c-1.459,0 -2.735,-0.364 -4.193,-0.911c-2.188,-0.912 -4.011,-2.37 -5.287,-4.558Z" style="fill:#fff;fill-rule:nonzero;"/><defs><radialGradient id="_Radial1" cx="0" cy="0" r="1" gradientUnits="userSpaceOnUse" gradientTransform="matrix(-3.50952e-14,91.6667,-91.6667,-3.50952e-14,91.6667,91.6667)"><stop offset="0" style="stop-color:#fff;stop-opacity:0"/><stop offset="1" style="stop-color:#fff;stop-opacity:0.3"/></radialGradient></defs></svg>