<?xml version="1.0" encoding="UTF-8" standalone="no"?><!DOCTYPE svg PUBLIC "-//W3C//DTD SVG 1.1//EN" "http://www.w3.org/Graphics/SVG/1.1/DTD/svg11.dtd"><svg width="100%" height="100%" viewBox="0 0 167 167" version="1.1" xmlns="http://www.w3.org/2000/svg" xmlns:xlink="http://www.w3.org/1999/xlink" xml:space="preserve" xmlns:serif="http://www.serif.com/" style="fill-rule:evenodd;clip-rule:evenodd;stroke-linejoin:round;stroke-miterlimit:2;"><path d="M155.487,42.545c-7.452,-13.089 -17.56,-23.45 -30.327,-31.088c-12.768,-7.639 -26.707,-11.457 -41.828,-11.457c-15.118,0 -29.062,3.819 -41.828,11.457c-12.768,7.637 -22.876,17.999 -30.328,31.088c-7.45,13.087 -11.176,27.379 -11.176,42.875c0,18.613 5.298,35.352 15.896,50.218c10.597,14.868 24.287,25.156 41.068,30.865c1.954,0.371 3.4,0.11 4.34,-0.777c0.941,-0.89 1.411,-2.003 1.411,-3.336c-0,-0.223 -0.019,-2.224 -0.055,-6.006c-0.037,-3.783 -0.055,-7.082 -0.055,-9.898l-2.496,0.443c-1.591,0.298 -3.599,0.425 -6.022,0.389c-2.422,-0.034 -4.937,-0.295 -7.541,-0.778c-2.604,-0.48 -5.027,-1.592 -7.27,-3.335c-2.241,-1.742 -3.833,-4.023 -4.773,-6.839l-1.085,-2.559c-0.723,-1.705 -1.862,-3.598 -3.418,-5.673c-1.555,-2.076 -3.128,-3.484 -4.719,-4.225l-0.76,-0.558c-0.506,-0.371 -0.976,-0.817 -1.41,-1.336c-0.434,-0.518 -0.759,-1.037 -0.976,-1.557c-0.218,-0.52 -0.037,-0.947 0.542,-1.281c0.58,-0.335 1.627,-0.497 3.147,-0.497l2.169,0.332c1.447,0.297 3.237,1.185 5.371,2.669c2.134,1.483 3.888,3.41 5.262,5.782c1.665,3.041 3.67,5.358 6.022,6.953c2.351,1.594 4.72,2.39 7.107,2.39c2.386,0 4.448,-0.185 6.185,-0.554c1.735,-0.371 3.362,-0.929 4.882,-1.669c0.651,-4.971 2.423,-8.789 5.316,-11.458c-4.123,-0.444 -7.829,-1.113 -11.122,-2.002c-3.29,-0.891 -6.69,-2.336 -10.198,-4.34c-3.51,-2.002 -6.421,-4.486 -8.735,-7.451c-2.315,-2.966 -4.214,-6.86 -5.696,-11.679c-1.482,-4.821 -2.224,-10.381 -2.224,-16.684c0,-8.974 2.858,-16.61 8.573,-22.913c-2.677,-6.747 -2.425,-14.31 0.759,-22.689c2.097,-0.668 5.208,-0.167 9.331,1.501c4.124,1.668 7.143,3.098 9.06,4.283c1.918,1.184 3.454,2.188 4.612,3.002c6.729,-1.927 13.672,-2.891 20.833,-2.891c7.161,0 14.106,0.964 20.835,2.891l4.123,-2.668c2.82,-1.78 6.149,-3.412 9.981,-4.895c3.834,-1.482 6.765,-1.89 8.792,-1.222c3.254,8.379 3.544,15.942 0.866,22.688c5.714,6.304 8.573,13.942 8.573,22.914c0,6.303 -0.744,11.881 -2.224,16.739c-1.482,4.858 -3.398,8.748 -5.748,11.678c-2.353,2.93 -5.283,5.396 -8.791,7.397c-3.508,2.003 -6.91,3.448 -10.2,4.338c-3.292,0.891 -6.999,1.56 -11.121,2.005c3.76,3.336 5.64,8.601 5.64,15.793l0,23.467c0,1.333 0.453,2.446 1.358,3.335c0.904,0.888 2.332,1.149 4.285,0.777c16.784,-5.708 30.474,-15.996 41.07,-30.864c10.596,-14.867 15.895,-31.604 15.895,-50.218c-0.003,-15.494 -3.731,-29.785 -11.178,-42.872Z" style="fill:#fff;fill-rule:nonzero;"/></svg>