<svg width="40" height="40" viewBox="0 0 40 40" fill="none" xmlns="http://www.w3.org/2000/svg">
<path d="M37.3169 9.96085C35.5284 6.89656 33.1025 4.47056 30.0385 2.6823C26.974 0.893948 23.6286 0 19.9997 0C16.3713 0 13.0247 0.894222 9.96085 2.6823C6.89656 4.47047 4.47074 6.89656 2.6823 9.96085C0.894131 13.025 0 16.3712 0 19.9991C0 24.3571 1.27147 28.276 3.81504 31.7566C6.35833 35.2376 9.64389 37.6462 13.6714 38.9829C14.1403 39.0699 14.4873 39.0087 14.713 38.8009C14.9387 38.5927 15.0515 38.3321 15.0515 38.0199C15.0515 37.9678 15.047 37.4993 15.0383 36.6137C15.0294 35.7282 15.0252 34.9556 15.0252 34.2965L14.4262 34.4001C14.0443 34.47 13.5625 34.4997 12.9809 34.4913C12.3995 34.4832 11.796 34.4222 11.1711 34.309C10.546 34.1967 9.9645 33.9363 9.42627 33.5283C8.88831 33.1203 8.50642 32.5863 8.28067 31.927L8.02027 31.3278C7.84669 30.9288 7.57343 30.4856 7.20011 29.9998C6.82679 29.5136 6.44927 29.184 6.06737 29.0104L5.88504 28.8799C5.76355 28.7931 5.65082 28.6885 5.54656 28.5671C5.4424 28.4457 5.36442 28.3242 5.31234 28.2026C5.26016 28.0808 5.3034 27.9809 5.44249 27.9026C5.58159 27.8242 5.83296 27.7862 6.19771 27.7862L6.71834 27.864C7.06557 27.9336 7.49508 28.1414 8.00741 28.4889C8.51946 28.836 8.94039 29.2873 9.2703 29.8426C9.6698 30.5546 10.1511 31.0971 10.7156 31.4704C11.2797 31.8437 11.8483 32.0301 12.4211 32.0301C12.9939 32.0301 13.4887 31.9867 13.9055 31.9003C14.3219 31.8135 14.7125 31.6829 15.0773 31.5095C15.2335 30.3458 15.6589 29.4519 16.3531 28.827C15.3637 28.723 14.4741 28.5664 13.6839 28.3582C12.8942 28.1497 12.0782 27.8113 11.2363 27.3421C10.394 26.8735 9.69524 26.2917 9.13987 25.5976C8.5844 24.9031 8.12853 23.9914 7.77291 22.8632C7.4171 21.7346 7.23914 20.4327 7.23914 18.9571C7.23914 16.856 7.92504 15.0681 9.29657 13.5924C8.65408 12.0128 8.71474 10.2421 9.47871 8.28031C9.98219 8.12388 10.7288 8.24127 11.7183 8.63174C12.7079 9.02239 13.4325 9.35704 13.8927 9.6345C14.353 9.91187 14.7217 10.1469 14.9996 10.3375C16.6144 9.88633 18.2809 9.66068 19.9995 9.66068C21.7181 9.66068 23.3849 9.88633 24.9999 10.3375L25.9894 9.71285C26.6661 9.29602 27.4652 8.91403 28.3848 8.5668C29.3049 8.21974 30.0085 8.12416 30.4948 8.28058C31.2758 10.2424 31.3454 12.0131 30.7027 13.5926C32.0741 15.0684 32.7603 16.8568 32.7603 18.9573C32.7603 20.4329 32.5817 21.739 32.2265 22.8763C31.8707 24.0137 31.4109 24.9246 30.8469 25.6106C30.2822 26.2966 29.579 26.8739 28.7371 27.3424C27.8951 27.8112 27.0788 28.1496 26.2891 28.3581C25.499 28.5666 24.6094 28.7233 23.62 28.8274C24.5224 29.6084 24.9737 30.8411 24.9737 32.525V38.0192C24.9737 38.3313 25.0823 38.5919 25.2995 38.8001C25.5165 39.008 25.8592 39.0692 26.328 38.9821C30.3561 37.6456 33.6417 35.2368 36.1849 31.7559C38.7278 28.2752 39.9997 24.3564 39.9997 19.9984C39.9988 16.3709 39.1042 13.025 37.3169 9.96085Z" fill="#D1D1D1"/>
</svg>
