<svg width="77" height="77" viewBox="0 0 77 77" fill="none" xmlns="http://www.w3.org/2000/svg">
<path d="M38.3722 6.39539C20.7402 6.39539 6.39532 20.7402 6.39532 38.3723C6.39532 56.0044 20.7402 70.3492 38.3722 70.3492C56.0043 70.3492 70.3492 56.0044 70.3492 38.3723C70.3492 20.7402 56.0043 6.39539 38.3722 6.39539ZM38.3722 63.9538C24.2672 63.9538 12.7907 52.4773 12.7907 38.3723C12.7907 24.2673 24.2672 12.7908 38.3722 12.7908C52.4773 12.7908 63.9538 24.2673 63.9538 38.3723C63.9538 52.4773 52.4773 63.9538 38.3722 63.9538Z" fill="white"/>
<path d="M27.1804 35.1746C29.8294 35.1746 31.9769 33.0271 31.9769 30.3781C31.9769 27.729 29.8294 25.5815 27.1804 25.5815C24.5313 25.5815 22.3839 27.729 22.3839 30.3781C22.3839 33.0271 24.5313 35.1746 27.1804 35.1746Z" fill="white"/>
<path d="M49.5418 35.1298C52.1785 35.1298 54.316 32.9924 54.316 30.3557C54.316 27.719 52.1785 25.5815 49.5418 25.5815C46.9051 25.5815 44.7676 27.719 44.7676 30.3557C44.7676 32.9924 46.9051 35.1298 49.5418 35.1298Z" fill="white"/>
<path d="M38.3723 57.5584C54.3607 57.5584 57.5584 41.57 57.5584 41.57H19.1862C19.1862 41.57 22.3838 57.5584 38.3723 57.5584Z" fill="white"/>
</svg>
