<svg width="66" height="66" viewBox="0 0 66 66" fill="none" xmlns="http://www.w3.org/2000/svg">
<path d="M32.6278 5.43799C17.6353 5.43799 5.43799 17.6353 5.43799 32.6277C5.43799 47.6202 17.6353 59.8175 32.6278 59.8175C47.6202 59.8175 59.8175 47.6202 59.8175 32.6277C59.8175 17.6353 47.6202 5.43799 32.6278 5.43799ZM32.6278 54.3796C20.6343 54.3796 10.8759 44.6211 10.8759 32.6277C10.8759 20.6343 20.6343 10.8759 32.6278 10.8759C44.6212 10.8759 54.3796 20.6343 54.3796 32.6277C54.3796 44.6211 44.6212 54.3796 32.6278 54.3796Z" fill="white"/>
<path d="M23.1114 29.9086C25.3639 29.9086 27.1899 28.0827 27.1899 25.8302C27.1899 23.5777 25.3639 21.7517 23.1114 21.7517C20.8589 21.7517 19.033 23.5777 19.033 25.8302C19.033 28.0827 20.8589 29.9086 23.1114 29.9086Z" fill="white"/>
<path d="M42.1251 29.8706C44.3671 29.8706 46.1845 28.0531 46.1845 25.8111C46.1845 23.5692 44.3671 21.7517 42.1251 21.7517C39.8831 21.7517 38.0657 23.5692 38.0657 25.8111C38.0657 28.0531 39.8831 29.8706 42.1251 29.8706Z" fill="white"/>
<path d="M32.6278 48.9415C46.2227 48.9415 48.9417 35.3467 48.9417 35.3467H16.314C16.314 35.3467 19.0329 48.9415 32.6278 48.9415Z" fill="white"/>
</svg>
