<svg width="1184" height="256" viewBox="0 0 1184 256" fill="none" xmlns="http://www.w3.org/2000/svg">
<g clip-path="url(#clip0_5014_9385)">
<path d="M184.641 230.648L148.336 147.56C148.336 147.56 156.682 141.834 159.8 139.482C170.757 131.66 177.357 120.53 177.393 106.46V83.1765C177.393 57.6966 162.958 34.4046 140.097 23.0044L94.0509 0.0446777L46.4282 23.7839V37.6289C47.8642 37.6289 47.8642 37.6289 46.4282 37.6289C22.3147 37.6289 2.7762 57.1209 2.7762 81.1569C2.7762 105.193 22.3236 124.685 46.4282 124.685V132.595L27.6713 141.395C10.8244 149.297 0.146786 166.255 0.324449 184.817V233.5L46.3793 255.238L46.4326 255.264L90.0846 233.5L135.717 255.264L184.641 230.648ZM94.0598 8.89374L136.548 30.0819C156.842 40.2021 169.456 60.5445 169.456 83.1721V106.424C169.429 117.342 164.619 126.293 155.176 133.029L155.087 133.091L155.007 133.153C152.062 135.372 143.912 140.975 143.832 141.028L138.449 144.726L174.368 226.941L139.577 244.466L100.509 157.233C114.842 158.965 129.77 144.558 129.77 129.256V105.835C129.77 79.8858 114.806 56.2572 91.3149 45.0962L55.5246 28.0978L94.0598 8.89374ZM46.4371 205.757C46.4371 188.679 55.6401 172.912 70.5327 164.475L90.0446 153.385L90.089 153.402V224.673L46.4371 246.437V205.757ZM10.7178 81.1702C10.7178 61.5321 26.7341 45.5524 46.4371 45.5524C66.14 45.5524 82.1563 61.5233 82.1563 81.1702C82.1563 100.817 66.14 116.788 46.4371 116.788C26.7474 116.779 10.7178 100.808 10.7178 81.1702Z" fill="white"/>
<path d="M310.339 234.12L298.844 217.799C297.423 217.901 296.303 217.95 295.495 217.95H282.321V234.12H274.708V180.972H295.495C302.397 180.972 307.829 182.615 311.791 185.906C315.749 189.197 317.729 193.728 317.729 199.494C317.729 203.595 316.712 207.085 314.683 209.973C312.653 212.856 309.757 214.956 306.004 216.276L318.644 234.116H310.339V234.12ZM306.306 208.388C308.842 206.31 310.112 203.347 310.112 199.503C310.112 195.659 308.842 192.709 306.306 190.658C303.77 188.608 300.087 187.58 295.268 187.58H282.321V211.497H295.268C300.087 211.501 303.765 210.465 306.306 208.388Z" fill="white"/>
<path d="M467.126 227.516V234.12H428.444V180.972H466.056V187.576H436.057V203.901H462.782V210.354H436.057V227.516H467.126Z" fill="white"/>
<path d="M611.784 220.833H583.46L577.597 234.12H569.753L593.889 180.972H601.426L625.642 234.12H617.647L611.784 220.833ZM609.119 214.761L597.62 188.719L586.121 214.761H609.119Z" fill="white"/>
<path d="M731.951 180.973H739.564V227.517H768.425V234.12H731.956V180.973H731.951Z" fill="white"/>
<path d="M875.554 180.972H883.171V234.12H875.554V180.972Z" fill="white"/>
<path d="M1008.12 187.576H989.842V180.972H1033.93V187.576H1015.65V234.12H1008.12V187.576Z" fill="white"/>
<path d="M1160.4 215.749V234.125H1152.87V215.598L1131.7 180.977H1139.85L1156.9 208.995L1174.04 180.977H1181.57L1160.4 215.749Z" fill="white"/>
<path d="M294.371 22.739H274.015V134.659H294.371V22.739Z" fill="white"/>
<path d="M434.011 101.566L359.659 24.2315C358.193 22.708 356.439 21.7602 354.409 21.3793C352.379 20.9851 350.385 21.1844 348.461 21.9639C346.636 22.7921 345.135 24.0632 343.967 25.7507C342.79 27.4381 342.19 29.3204 342.19 31.4065V134.664H362.555V55.8323L436.907 133.255C437.906 134.3 439.034 135.053 440.318 135.523C441.579 135.988 442.854 136.231 444.102 136.231C445.519 136.231 446.843 135.966 448.104 135.452C449.353 134.92 450.436 134.203 451.36 133.308C452.262 132.383 452.995 131.32 453.545 130.062C454.096 128.813 454.363 127.462 454.363 126V22.739H434.006V101.566H434.011Z" fill="white"/>
<path d="M508.232 23.5185C506.984 24.0367 505.901 24.7763 504.986 25.6976C504.062 26.6454 503.351 27.7349 502.836 28.9839C502.307 30.2373 502.041 31.5615 502.041 32.9566V134.659H522.397V88.9212H594.874V68.4859H522.397V43.037H603.957V22.739H512.301C510.835 22.739 509.48 22.9915 508.232 23.5185Z" fill="white"/>
<path d="M664.95 22.739H644.595V134.659H664.95V22.739Z" fill="white"/>
<path d="M804.611 101.566L730.245 24.2268C728.779 22.7033 727.038 21.7555 725.008 21.3746C722.965 20.9804 720.984 21.1797 719.061 21.9592C717.222 22.7874 715.734 24.0585 714.557 25.746C713.38 27.4334 712.803 29.3157 712.803 31.4018V134.659H733.159V55.8321L807.511 133.255C808.497 134.3 809.634 135.053 810.922 135.523C812.197 135.988 813.449 136.231 814.706 136.231C816.114 136.231 817.447 135.965 818.708 135.452C819.956 134.92 821.04 134.203 821.951 133.308C822.865 132.382 823.603 131.319 824.136 130.062C824.691 128.813 824.953 127.462 824.953 126V22.7387H804.615V101.566H804.611Z" fill="white"/>
<path d="M893.15 22.7387H872.798V134.659H893.15V22.7387Z" fill="white"/>
<path d="M932.298 43.0367H977.229V134.659H997.581V43.0367H1042.43V22.7387H932.298V43.0367Z" fill="white"/>
<path d="M1182.87 22.739H1091.23C1089.76 22.739 1088.4 22.9915 1087.15 23.5185C1085.89 24.0367 1084.82 24.7763 1083.89 25.6976C1082.98 26.6454 1082.28 27.7349 1081.74 28.9839C1081.23 30.2373 1080.97 31.5615 1080.97 32.9566V106.176C1080.97 111.425 1081.92 115.858 1083.83 119.486C1085.72 123.091 1088.1 126.04 1090.95 128.295C1093.8 130.571 1096.89 132.188 1100.23 133.184C1103.56 134.168 1106.64 134.659 1109.47 134.659H1182.87V114.374H1109.61C1106.91 114.374 1104.85 113.67 1103.44 112.266C1102.02 110.867 1101.32 108.829 1101.32 106.181V88.9256H1173.73V68.4904H1101.32V43.0414H1182.87V22.739Z" fill="white"/>
</g>
<defs>
<clipPath id="clip0_5014_9385">
<rect width="1183.24" height="255.552" fill="white"/>
</clipPath>
</defs>
</svg>
