<svg width="88" height="124" viewBox="0 0 88 124" fill="none" xmlns="http://www.w3.org/2000/svg">
<path d="M87.125 111.939L70.1362 71.652C70.1362 71.652 74.0415 68.8753 75.5006 67.7349C80.628 63.9424 83.7164 58.5458 83.7331 51.7231V40.4337C83.7331 28.0791 76.9783 16.7853 66.2808 11.2577L44.7342 0.125L22.4497 11.6356V18.3487C23.1217 18.3487 23.1217 18.3487 22.4497 18.3487C11.1661 18.3487 2.02329 27.7999 2.02329 39.4544C2.02329 51.1089 11.1703 60.5601 22.4497 60.5601V64.3956L13.6727 68.6627C5.78933 72.4938 0.792886 80.7166 0.876022 89.7168V113.322L22.4269 123.862L22.4518 123.875L42.8782 113.322L64.2316 123.875L87.125 111.939ZM44.7384 4.41571L64.6202 14.6894C74.1164 19.5964 80.019 29.46 80.019 40.4316V51.706C80.0065 56.9996 77.7556 61.3397 73.337 64.606L73.2954 64.6361L73.258 64.6661C71.88 65.742 68.0662 68.4586 68.0288 68.4844L65.5098 70.2776L82.3177 110.142L66.0377 118.639L47.7562 76.3421C54.4631 77.1818 61.4486 70.196 61.4486 62.7763V51.4203C61.4486 38.8381 54.4465 27.3812 43.4539 21.9695L26.7063 13.7273L44.7384 4.41571ZM22.4539 99.8702C22.4539 91.5894 26.7603 83.9443 33.7291 79.8533L42.8595 74.476L42.8803 74.4845V109.042L22.4539 119.595V99.8702ZM5.73945 39.4609C5.73945 29.9388 13.2341 22.1906 22.4539 22.1906C31.6736 22.1906 39.1683 29.9345 39.1683 39.4609C39.1683 48.9872 31.6736 56.7311 22.4539 56.7311C13.2404 56.7268 5.73945 48.9829 5.73945 39.4609Z" fill="#080808"/>
</svg>
