<svg width="44" height="44" viewBox="0 0 44 44" fill="none" xmlns="http://www.w3.org/2000/svg">
<path d="M25.2759 14.7586C25.7464 14.7586 26.2065 14.6191 26.5977 14.3576C26.989 14.0962 27.294 13.7246 27.4741 13.2898C27.6541 12.8551 27.7013 12.3767 27.6094 11.9151C27.5176 11.4536 27.291 11.0296 26.9583 10.6969C26.6255 10.3641 26.2016 10.1375 25.74 10.0457C25.2785 9.95391 24.8001 10.001 24.3653 10.1811C23.9306 10.3612 23.559 10.6662 23.2975 11.0574C23.0361 11.4487 22.8965 11.9087 22.8965 12.3793C22.8973 13.0101 23.1482 13.6149 23.5943 14.0609C24.0403 14.507 24.6451 14.7579 25.2759 14.7586Z" fill="white"/>
<path d="M33.8476 18.4713L33.599 18.1071C33.536 18.0144 33.4556 17.9353 33.3625 17.8744C33.2694 17.8134 33.1654 17.7717 33.0564 17.7518C32.9474 17.7318 32.8356 17.7339 32.7275 17.758C32.6193 17.7821 32.5169 17.8277 32.4261 17.8921L29.2278 20.1497L25.4295 15.8761C25.3168 15.7708 25.1911 15.6806 25.0557 15.608C23.7285 15.0108 23.4341 14.8786 23.3631 14.8472C23.2075 14.7687 23.0318 14.7414 22.8603 14.7692L16.1628 15.8609C16.0278 15.889 15.8996 15.9439 15.7856 16.0226C15.6715 16.1012 15.5739 16.2021 15.4983 16.3193L13.044 20.647C12.9886 20.7445 12.9526 20.8521 12.9381 20.9637C12.9236 21.0753 12.9309 21.1887 12.9595 21.2975C12.9882 21.4062 13.0376 21.5081 13.105 21.5974C13.1725 21.6867 13.2565 21.7615 13.3524 21.8177L13.7263 22.0392C13.8221 22.0956 13.9278 22.1323 14.0375 22.147C14.1472 22.1618 14.2587 22.1544 14.3655 22.1252C14.4724 22.0961 14.5726 22.0458 14.6603 21.9772C14.7481 21.9085 14.8216 21.823 14.8768 21.7254L17.047 17.9007L21.4705 17.1808L16.7731 28.0093L11.615 29.4814C11.5084 29.5117 11.4086 29.5631 11.3216 29.6327C11.2345 29.7023 11.1618 29.7887 11.1076 29.8869C11.0534 29.9851 11.0188 30.0933 11.0058 30.2052C10.9928 30.3171 11.0016 30.4304 11.0318 30.5388L11.1673 31.0314C11.1966 31.1404 11.2468 31.2423 11.3149 31.3315C11.3831 31.4206 11.468 31.4951 11.5646 31.5507C11.6612 31.6063 11.7676 31.6419 11.8778 31.6554C11.988 31.669 12.0998 31.6602 12.2066 31.6296L18.734 29.7667C18.8857 29.7232 19.0224 29.6372 19.1284 29.5185C19.1934 29.448 19.2465 29.367 19.2854 29.2788L21.3911 24.447L24.1435 27.318L22.6481 32.5539C22.6169 32.6621 22.6071 32.7754 22.6191 32.8874C22.631 32.9995 22.6647 33.108 22.718 33.2068C22.7713 33.3056 22.8433 33.3927 22.9298 33.4631C23.0163 33.5335 23.1156 33.5858 23.222 33.6171L23.7052 33.7588C23.8114 33.7903 23.9227 33.8003 24.0327 33.788C24.1427 33.7757 24.2493 33.7415 24.3462 33.6873C24.4432 33.633 24.5287 33.5598 24.5979 33.4719C24.667 33.384 24.7184 33.2831 24.7491 33.1749C25.3211 31.1684 26.6529 26.4982 26.6604 26.4707C26.6982 26.326 26.6986 26.1739 26.6614 26.029C26.6242 25.8842 26.5508 25.7517 26.4483 25.6443L23.1164 22.1686L24.7744 18.3648L28.4016 22.4462C28.5415 22.6031 28.7336 22.7016 28.9408 22.7227C29.148 22.7438 29.3555 22.6859 29.5231 22.5604C29.6503 22.4748 30.2708 22.0383 33.6289 19.6723C33.7216 19.6088 33.8009 19.5271 33.8622 19.432C33.9235 19.3369 33.9656 19.2303 33.9859 19.1185C34.0063 19.0067 34.0045 18.8918 33.9808 18.7807C33.957 18.6696 33.9118 18.5644 33.8476 18.4713Z" fill="white"/>
<circle opacity="0.3" cx="22" cy="22" r="22" fill="url(#paint0_radial)"/>
<defs>
</defs>
</svg>
