<svg width="76" height="76" viewBox="0 0 76 76" fill="none" xmlns="http://www.w3.org/2000/svg">
<path d="M37.741 7.07642C20.833 7.07642 7.07642 20.833 7.07642 37.741C7.07642 54.649 20.833 68.4056 37.741 68.4056C43.329 68.4056 48.5514 66.8794 53.0686 64.2588L49.6695 60.763C45.9869 62.6845 41.8947 63.6879 37.741 63.6879C23.4348 63.6879 11.794 52.0472 11.794 37.741C11.794 23.4348 23.4348 11.794 37.741 11.794C52.0472 11.794 63.6879 23.4348 63.6879 37.741C63.6879 37.8023 63.6785 37.8613 63.6785 37.9203C65.3408 38.179 66.9221 38.8139 68.3018 39.7766C68.3442 39.0997 68.4056 38.4298 68.4056 37.741C68.4056 20.833 54.649 7.07642 37.741 7.07642ZM27.1263 28.3057C26.1879 28.3057 25.288 28.6785 24.6244 29.3421C23.9609 30.0056 23.5881 30.9056 23.5881 31.844C23.5881 32.7823 23.9609 33.6823 24.6244 34.3459C25.288 35.0094 26.1879 35.3822 27.1263 35.3822C28.0647 35.3822 28.9647 35.0094 29.6282 34.3459C30.2918 33.6823 30.6645 32.7823 30.6645 31.844C30.6645 30.9056 30.2918 30.0056 29.6282 29.3421C28.9647 28.6785 28.0647 28.3057 27.1263 28.3057ZM47.1762 28.3057C42.2369 28.3057 38.6609 31.1528 38.6609 31.1528L41.5387 34.8939C41.5387 34.8939 44.0909 33.0234 47.1786 33.0234C50.2663 33.0234 52.8162 34.8939 52.8162 34.8939L55.6939 31.1528C55.6868 31.1528 52.1132 28.3057 47.1762 28.3057ZM35.3822 40.1187V43.6333C37.5098 43.6333 38.8661 44.6122 38.8661 45.1194C38.8661 45.6289 37.5169 46.596 35.4058 46.6054H35.3822V50.1248H35.4058C37.5169 50.1318 38.8661 51.1013 38.8661 51.6084C38.8661 52.118 37.5075 53.0945 35.3822 53.0945V56.6115C39.319 56.6115 42.4044 54.4131 42.4044 51.6084C42.4044 50.3536 41.7628 49.2355 40.7272 48.3651C41.7628 47.4947 42.402 46.3766 42.402 45.1217C42.402 42.3147 39.319 40.1187 35.3822 40.1187ZM53.663 42.4586C50.054 42.4586 47.1762 45.5015 47.1762 49.0633C47.1762 51.1367 48.3674 52.6605 49.2284 53.545L57.7909 62.3434L66.377 53.545C67.2379 52.6628 68.4056 51.4433 68.4056 49.0633C68.4056 45.5015 65.5278 42.4586 61.9188 42.4586C60.1969 42.4586 58.7816 43.0483 57.7909 43.638C56.8002 43.0483 55.3849 42.4586 53.663 42.4586ZM53.663 47.1762C54.2267 47.1762 54.8023 47.3508 55.3778 47.6928L57.7909 49.1317L60.204 47.6928C60.7181 47.3682 61.3109 47.1896 61.9188 47.1762C62.8623 47.1762 63.6879 48.0608 63.6879 49.0633C63.6879 49.5067 63.6691 49.5657 63.0015 50.2498L57.7956 55.583L52.6062 50.2521C52.342 49.9809 51.8939 49.4619 51.8939 49.0656C51.8939 48.0608 52.7194 47.1762 53.663 47.1762Z" fill="white"/>
</svg>
