<svg width="62" height="62" viewBox="0 0 62 62" fill="none" xmlns="http://www.w3.org/2000/svg">
<path d="M30.741 0.0763855C13.833 0.0763855 0.076416 13.833 0.076416 30.741C0.076416 47.6489 13.833 61.4055 30.741 61.4055C36.329 61.4055 41.5514 59.8794 46.0686 57.2587L42.6695 53.763C38.9869 55.6844 34.8947 56.6879 30.741 56.6879C16.4348 56.6879 4.79404 45.0472 4.79404 30.741C4.79404 16.4348 16.4348 4.79401 30.741 4.79401C45.0472 4.79401 56.6879 16.4348 56.6879 30.741C56.6879 30.8023 56.6785 30.8613 56.6785 30.9202C58.3408 31.179 59.9221 31.8139 61.3018 32.7766C61.3442 32.0996 61.4056 31.4297 61.4056 30.741C61.4056 13.833 47.649 0.0763855 30.741 0.0763855ZM20.1263 21.3057C19.1879 21.3057 18.288 21.6785 17.6244 22.342C16.9609 23.0056 16.5881 23.9055 16.5881 24.8439C16.5881 25.7823 16.9609 26.6823 17.6244 27.3458C18.288 28.0094 19.1879 28.3821 20.1263 28.3821C21.0647 28.3821 21.9647 28.0094 22.6282 27.3458C23.2918 26.6823 23.6645 25.7823 23.6645 24.8439C23.6645 23.9055 23.2918 23.0056 22.6282 22.342C21.9647 21.6785 21.0647 21.3057 20.1263 21.3057ZM40.1762 21.3057C35.2369 21.3057 31.6609 24.1528 31.6609 24.1528L34.5387 27.8939C34.5387 27.8939 37.0909 26.0233 40.1786 26.0233C43.2663 26.0233 45.8162 27.8939 45.8162 27.8939L48.6939 24.1528C48.6868 24.1528 45.1132 21.3057 40.1762 21.3057ZM28.3822 33.1186V36.6333C30.5098 36.6333 31.8661 37.6122 31.8661 38.1193C31.8661 38.6288 30.5169 39.5959 28.4058 39.6054H28.3822V43.1247H28.4058C30.5169 43.1318 31.8661 44.1013 31.8661 44.6084C31.8661 45.1179 30.5075 46.0945 28.3822 46.0945V49.6115C32.319 49.6115 35.4044 47.413 35.4044 44.6084C35.4044 43.3535 34.7628 42.2355 33.7272 41.365C34.7628 40.4946 35.402 39.3766 35.402 38.1217C35.402 35.3147 32.319 33.1186 28.3822 33.1186ZM46.663 35.4586C43.054 35.4586 40.1762 38.5014 40.1762 42.0633C40.1762 44.1367 41.3674 45.6604 42.2284 46.545L50.7909 55.3434L59.377 46.545C60.2379 45.6628 61.4056 44.4433 61.4056 42.0633C61.4056 38.5014 58.5278 35.4586 54.9188 35.4586C53.1969 35.4586 51.7816 36.0483 50.7909 36.638C49.8002 36.0483 48.3849 35.4586 46.663 35.4586ZM46.663 40.1762C47.2267 40.1762 47.8023 40.3508 48.3778 40.6928L50.7909 42.1317L53.204 40.6928C53.7181 40.3681 54.3109 40.1896 54.9188 40.1762C55.8623 40.1762 56.6879 41.0608 56.6879 42.0633C56.6879 42.5067 56.6691 42.5657 56.0015 43.2497L50.7956 48.583L45.6062 43.2521C45.342 42.9808 44.8939 42.4619 44.8939 42.0656C44.8939 41.0608 45.7194 40.1762 46.663 40.1762Z" fill="white"/>
</svg>
