<svg width="44" height="44" viewBox="0 0 44 44" fill="none" xmlns="http://www.w3.org/2000/svg">
<circle opacity="0.3" cx="22" cy="22" r="22" fill="url(#paint0_radial)"/>
<path d="M22 9C19.4288 9 16.9154 9.76244 14.7776 11.1909C12.6398 12.6194 10.9735 14.6497 9.98957 17.0251C9.00563 19.4006 8.74819 22.0144 9.2498 24.5362C9.75141 27.0579 10.9895 29.3743 12.8076 31.1924C14.6257 33.0105 16.9421 34.2486 19.4638 34.7502C21.9856 35.2518 24.5995 34.9944 26.9749 34.0104C29.3503 33.0265 31.3807 31.3603 32.8091 29.2224C34.2376 27.0846 35 24.5712 35 22C35 18.5522 33.6304 15.2456 31.1924 12.8076C28.7544 10.3696 25.4478 9 22 9ZM26 15C26.5304 15 27.0391 15.2107 27.4142 15.5858C27.7893 15.9609 28 16.4696 28 17C28 17.2652 27.8946 17.5196 27.7071 17.7071C27.5196 17.8946 27.2652 18 27 18C26.7348 18 26.4804 17.8946 26.2929 17.7071C26.1054 17.5196 26 17.2652 26 17C26 17.2652 25.8946 17.5196 25.7071 17.7071C25.5196 17.8946 25.2652 18 25 18C24.7348 18 24.4804 17.8946 24.2929 17.7071C24.1054 17.5196 24 17.2652 24 17C24 16.4696 24.2107 15.9609 24.5858 15.5858C24.9609 15.2107 25.4696 15 26 15ZM18 15C18.5304 15 19.0391 15.2107 19.4142 15.5858C19.7893 15.9609 20 16.4696 20 17C20 17.2652 19.8946 17.5196 19.7071 17.7071C19.5196 17.8946 19.2652 18 19 18C18.7348 18 18.4804 17.8946 18.2929 17.7071C18.1054 17.5196 18 17.2652 18 17C18 17.2652 17.8946 17.5196 17.7071 17.7071C17.5196 17.8946 17.2652 18 17 18C16.7348 18 16.4804 17.8946 16.2929 17.7071C16.1054 17.5196 16 17.2652 16 17C16 16.4696 16.2107 15.9609 16.5858 15.5858C16.9609 15.2107 17.4696 15 18 15ZM22 31C19.6131 31 17.3239 30.0518 15.636 28.364C13.9482 26.6761 13 24.3869 13 22C13 21.7348 13.1054 21.4804 13.2929 21.2929C13.4804 21.1054 13.7348 21 14 21H30C30.2652 21 30.5196 21.1054 30.7071 21.2929C30.8946 21.4804 31 21.7348 31 22C31 24.3869 30.0518 26.6761 28.364 28.364C26.6761 30.0518 24.387 31 22 31Z" fill="white"/>
<defs>
</defs>
</svg>
