<svg width="44" height="44" viewBox="0 0 44 44" fill="none" xmlns="http://www.w3.org/2000/svg">
<path d="M21.5 37C13.4892 37 7 30.5108 7 22.5C7 14.4892 13.4892 8 21.5 8C29.5108 8 36 14.4892 36 22.5C36 30.5108 29.5108 37 21.5 37ZM21.5 9.34259C14.25 9.34259 8.34259 15.25 8.34259 22.5C8.34259 29.75 14.25 35.6574 21.5 35.6574C28.75 35.6574 34.6574 29.75 34.6574 22.5C34.6574 15.25 28.75 9.34259 21.5 9.34259ZM21.5 33.375C16.3534 33.375 11.8781 29.7052 10.8488 24.6481C10.7145 24.0664 10.8935 23.4846 11.2515 23.037C11.6096 22.5895 12.1466 22.321 12.7284 22.321H30.3164C30.8981 22.321 31.4352 22.5895 31.7932 23.037C32.1512 23.4846 32.2855 24.0216 32.196 24.6034V24.6929C31.1667 29.7052 26.6466 33.375 21.5 33.375ZM12.7284 23.7083C12.5046 23.7083 12.3704 23.8426 12.2809 23.9321C12.1914 24.0664 12.1466 24.2454 12.1466 24.4244C13.0417 28.8549 16.9799 32.0324 21.5 32.0324C26.0201 32.0324 29.9583 28.8102 30.8534 24.3796V24.2901C30.8981 24.1559 30.8086 23.9769 30.7191 23.9321C30.6296 23.7978 30.4506 23.7083 30.2716 23.7083H12.7284ZM14.6975 19.8596C14.4738 19.5463 14.5633 19.1435 14.8765 18.9198L17.3827 17.2639L14.6975 15.3395C14.3843 15.1157 14.3395 14.713 14.5185 14.3997C14.7423 14.0864 15.1451 14.0417 15.4583 14.2207L18.6358 16.4583C18.9043 16.6373 19.0386 16.9506 19.0386 17.2639C19.0386 17.5772 18.8596 17.8904 18.591 18.0694L15.5926 20.0833C15.3241 20.2623 14.8765 20.1728 14.6975 19.8596ZM28.3025 19.8596C28.0787 20.1728 27.6759 20.2623 27.3627 20.0386L24.3642 18.0694C24.0957 17.8904 23.9614 17.6219 23.9167 17.2639C23.9167 16.9506 24.0509 16.6373 24.3194 16.4583L27.4969 14.2207C27.8102 13.9969 28.213 14.0864 28.4367 14.3997C28.6605 14.713 28.571 15.1157 28.2577 15.3395L25.5278 17.2639L28.0339 18.9198C28.4367 19.1435 28.5262 19.5463 28.3025 19.8596Z" fill="white"/>
<circle opacity="0.3" cx="22" cy="22" r="22" fill="url(#paint0_radial)"/>
<defs>
<radialGradient id="paint0_radial" cx="0" cy="0" r="1" gradientUnits="userSpaceOnUse" gradientTransform="translate(22 22) rotate(90) scale(22)">
<stop stop-color="white" stop-opacity="0"/>
<stop offset="1" stop-color="white"/>
</radialGradient>
</defs>
</svg>
