<svg width="77" height="107" viewBox="0 0 77 107" fill="none" xmlns="http://www.w3.org/2000/svg">
<g clip-path="url(#clip0)">
<path d="M38.3165 20.0552C20.3779 20.0552 5.84375 34.8056 5.84375 53.0112C5.84375 64.9843 12.155 75.4292 21.5564 81.1965V57.2635C21.5564 56.0941 22.4991 55.1374 23.6514 55.1374C24.8037 55.1374 25.7464 56.0941 25.7464 57.2635V83.4024C29.6091 85.0502 33.8646 85.9671 38.3165 85.9671C42.7684 85.9671 47.0239 85.0502 50.8866 83.4024V57.2635C50.8866 56.0941 51.8294 55.1374 52.9816 55.1374C54.1339 55.1374 55.0766 56.0941 55.0766 57.2635V81.1965C64.478 75.4292 70.7893 64.971 70.7893 53.0112C70.7893 34.8056 56.2551 20.0552 38.3165 20.0552ZM29.74 48.8252C27.8021 47.0711 23.6907 47.0711 21.7528 48.8252L20.5089 49.9548C20.0113 50.3933 19.2911 50.4863 18.715 50.1674C18.1389 49.8484 17.8115 49.184 17.9163 48.5196C18.44 45.1708 22.3944 42.925 25.7595 42.925C29.1246 42.925 33.079 45.1708 33.6027 48.5196C33.7075 49.184 33.3801 49.8484 32.804 50.1674C32.0446 50.5793 31.3375 50.2604 31.0101 49.9548L29.74 48.8252ZM38.3165 74.2731C34.8466 74.2731 32.0315 70.4592 32.0315 65.7683C32.0315 61.0774 34.8466 57.2635 38.3165 57.2635C41.7864 57.2635 44.6016 61.0774 44.6016 65.7683C44.6016 70.4592 41.7864 74.2731 38.3165 74.2731ZM57.9311 50.1541C57.1717 50.566 56.4646 50.2471 56.1372 49.9415L54.8933 48.8119C52.9554 47.0578 48.844 47.0578 46.9061 48.8119L45.6491 49.9548C45.1515 50.3933 44.4313 50.4863 43.8552 50.1674C43.2791 49.8484 42.9517 49.184 43.0565 48.5196C43.5802 45.1708 47.5346 42.925 50.8997 42.925C54.2648 42.925 58.2192 45.1708 58.7429 48.5196C58.8215 49.1707 58.5072 49.8352 57.9311 50.1541Z" fill="white"/>
</g>
<defs>
<clipPath id="clip0">
<rect width="64.9455" height="68.0382" fill="white" transform="translate(5.84375 18.9919)"/>
</clipPath>
</defs>
</svg>
