<svg width="432" height="73" viewBox="0 0 432 73" fill="none" xmlns="http://www.w3.org/2000/svg">
<path d="M25.1964 30.0061L42.0321 0.915771H50.0491L29.3194 35.618L50.9654 71.2365H42.9484L25.4254 41.459L7.9025 71.2365H0L21.4169 35.618L0.34359 1.0303H8.36061L25.1964 30.0061Z" fill="white"/>
<path d="M86.1265 43.1779H68.9471V71.352H62.1899V1.03125H83.2633C90.135 1.03125 95.5178 2.86371 99.2973 6.64317C103.191 10.4226 105.138 15.5764 105.138 22.3336C105.138 27.0293 103.993 31.0378 101.702 34.4737C99.4118 37.795 96.3196 40.2001 92.4256 41.5745L107.887 70.8939V71.4665H100.672L86.1265 43.1779ZM68.9471 36.8788H84.294C88.6461 36.8788 92.082 35.5045 94.6016 32.8703C97.1212 30.1216 98.3811 26.6857 98.3811 22.4482C98.3811 17.7525 97.0067 13.973 94.3726 11.3389C91.7384 8.70469 87.9589 7.33034 83.1487 7.33034H68.9471V36.8788Z" fill="white"/>
<path d="M123.921 30.3497H150.034V10.1926H119.798V0.915771H160.685V71.2365H119.455V62.0742H150.034V39.3975H123.921V30.3497Z" fill="white"/>
<path d="M221.729 71.352H211.078L182.217 18.4397V71.352H171.565V1.03125H182.217L211.078 53.9436V1.03125H221.729V71.352Z" fill="white"/>
<path d="M284.835 62.3037C280.368 68.9464 272.695 72.3823 261.814 72.3823C253.683 72.3823 247.04 69.4045 242.115 63.3345C237.191 57.2645 234.671 49.1329 234.556 38.9398V33.6715C234.556 23.0203 236.847 14.7742 241.428 8.81873C246.009 2.97776 252.423 0 260.784 0C267.655 0 273.153 1.83246 277.161 5.61192C281.17 9.39137 283.804 14.8888 284.835 22.3331H274.183C272.809 13.6289 268.457 9.27685 260.784 9.27685C251.049 9.27685 245.895 16.3776 245.208 30.6938L245.093 38.8253C245.093 46.4988 246.582 52.4543 249.56 56.8064C252.537 61.1585 256.66 63.3345 261.814 63.3345C266.854 63.3345 270.518 62.3037 272.924 60.1277L274.183 58.8679V44.4372H260.784V35.733H284.72V62.3037H284.835Z" fill="white"/>
<path d="M310.031 71.352H299.265V1.03125H309.916V71.352H310.031Z" fill="white"/>
<path d="M375.426 71.352H364.775L335.913 18.4397V71.352H325.262V1.03125H335.913L364.775 53.9436V1.03125H375.426V71.352Z" fill="white"/>
<path d="M427.422 39.6271H401.309V62.3038H431.888V71.4661H390.658V1.14539H431.43V10.4222H401.194V30.5793H427.307V39.6271H427.422Z" fill="white"/>
</svg>
