<svg width="534" height="467" viewBox="0 0 534 467" fill="none" xmlns="http://www.w3.org/2000/svg">
<g filter="url(#filter0_bd)">
<path fill-rule="evenodd" clip-rule="evenodd" d="M153.738 359.74L153.55 359.847C165.905 386.814 155.803 419.227 129.536 434.177C103.268 449.128 70.2416 441.261 53.364 416.868L53.2898 416.911C22.2682 373.747 4 320.802 4 263.589C4 118.338 121.749 0.589355 267 0.589355C412.251 0.589355 530 118.338 530 263.589C530 335.226 501.359 400.173 454.903 447.604C433.676 463.416 403.506 461.686 384.235 442.415C364.666 422.847 363.185 392.04 379.791 370.77C409.497 342.368 428 302.345 428 258C428 171.844 358.156 102 272 102C185.844 102 116 171.844 116 258C116 296.873 130.218 332.425 153.738 359.74Z" fill="url(#paint0_linear)" fill-opacity="0.5" shape-rendering="crispEdges"/>
</g>
<defs>
<filter id="filter0_bd" x="-46" y="-49.4106" width="626" height="557.704" filterUnits="userSpaceOnUse" color-interpolation-filters="sRGB">
<feFlood flood-opacity="0" result="BackgroundImageFix"/>
<feGaussianBlur in="BackgroundImage" stdDeviation="25"/>
<feComposite in2="SourceAlpha" operator="in" result="effect1_backgroundBlur"/>
<feColorMatrix in="SourceAlpha" type="matrix" values="0 0 0 0 0 0 0 0 0 0 0 0 0 0 0 0 0 0 127 0" result="hardAlpha"/>
<feOffset dy="4"/>
<feGaussianBlur stdDeviation="2"/>
<feComposite in2="hardAlpha" operator="out"/>
<feColorMatrix type="matrix" values="0 0 0 0 0 0 0 0 0 0 0 0 0 0 0 0 0 0 0.25 0"/>
<feBlend mode="normal" in2="effect1_backgroundBlur" result="effect2_dropShadow"/>
<feBlend mode="normal" in="SourceGraphic" in2="effect2_dropShadow" result="shape"/>
</filter>
<linearGradient id="paint0_linear" x1="267" y1="0.589355" x2="267" y2="458.294" gradientUnits="userSpaceOnUse">
<stop stop-color="#8989F2"/>
<stop offset="1" stop-color="#5C5C5C"/>
</linearGradient>
</defs>
</svg>
