<svg width="79" height="79" viewBox="0 0 79 79" fill="none" xmlns="http://www.w3.org/2000/svg">
<path d="M39.3297 36.052L36.0522 12.2182C36.0522 10.6908 36.6586 9.22581 37.7401 8.14425C41.0963 4.78811 46.8417 6.70216 47.5136 11.4021L52.4396 32.7745L57.3821 12.0346C57.7774 10.6939 58.6672 9.55345 59.8714 8.84394C61.0757 8.13442 62.5045 7.90884 63.8688 8.21285C65.2331 8.51686 66.4309 9.32774 67.22 10.4814C68.0091 11.6351 68.3305 13.0455 68.1191 14.4272L62.2721 52.4394" stroke="white" stroke-width="3.5" stroke-linecap="round" stroke-linejoin="round"/>
<path d="M60.5375 52.2073C59.7107 58.3777 57.1537 62.8505 53.3414 65.8052C49.5019 68.781 44.2096 70.3546 37.691 70.3546V73.8546C44.7476 73.8546 50.8675 72.1507 55.4855 68.5716C60.1308 64.9713 63.0766 59.6116 64.0065 52.6721L60.5375 52.2073ZM37.691 70.3546C31.1567 70.3546 25.4112 68.7734 21.3477 65.7795C17.3458 62.831 14.8599 58.4371 14.8599 52.4397H11.3599C11.3599 59.5522 14.3768 64.9908 19.2716 68.5972C24.1049 72.1583 30.6499 73.8546 37.691 73.8546V70.3546Z" fill="white"/>
<path d="M39.3297 42.6072V36.0523C39.3297 34.3138 38.6391 32.6465 37.4098 31.4172C36.1805 30.1879 34.5132 29.4973 32.7747 29.4973C31.0363 29.4973 29.369 30.1879 28.1397 31.4172C26.9104 32.6465 26.2198 34.3138 26.2198 36.0523V49.1622M13.1099 52.4397V39.3298C13.1099 37.5913 13.8005 35.924 15.0298 34.6947C16.2591 33.4654 17.9263 32.7748 19.6648 32.7748C21.4033 32.7748 23.0706 33.4654 24.2999 34.6947C25.5292 35.924 26.2198 37.5913 26.2198 39.3298L13.1099 52.4397Z" stroke="white" stroke-width="3.5" stroke-linecap="round" stroke-linejoin="round"/>
<path d="M44.8753 55.7171H36.0523C34.3138 55.7171 32.6465 55.0265 31.4172 53.7972C30.1879 52.5679 29.4973 50.9006 29.4973 49.1621C29.4973 47.4237 30.1879 45.7564 31.4172 44.5271C32.6465 43.2978 34.3138 42.6072 36.0523 42.6072H49.1622C56.4054 42.6072 63.9109 49.1621 60.6334 58.9946" stroke="white" stroke-width="3.5" stroke-linecap="round" stroke-linejoin="round"/>
</svg>
