<svg width="44" height="44" viewBox="0 0 44 44" fill="none" xmlns="http://www.w3.org/2000/svg">
<path d="M32.0576 16.7683C31.4635 16.7438 30.8781 16.9171 30.3925 17.2612C29.9068 17.6052 29.5483 18.1007 29.3726 18.6704C29.1952 19.7147 28.6959 20.677 27.945 21.4219H27.9325C27.3432 21.3281 27.5287 19.6827 27.5991 19.0594C27.6179 18.8964 27.6333 18.7572 27.6396 18.6572C27.6647 18.2703 28.3474 13.7685 28.8007 10.8373C28.8774 10.3639 28.7687 9.87918 28.4974 9.48433C28.3675 9.29193 28.1999 9.12808 28.0048 9.00276C27.8097 8.87744 27.5912 8.79326 27.3627 8.75537C27.1475 8.71227 26.9259 8.71329 26.7111 8.75837C26.4963 8.80346 26.2929 8.89167 26.113 9.01771C25.9062 9.1617 25.7301 9.34563 25.595 9.55873C25.4599 9.77183 25.3686 10.0098 25.3263 10.2588L25.1171 11.6292L25.2433 8.73998C25.2474 8.28597 25.0722 7.84879 24.756 7.52396C24.4397 7.19913 24.0082 7.01307 23.5556 7.00644C23.3338 6.98698 23.1103 7.01174 22.8981 7.07927C22.6858 7.14681 22.489 7.25579 22.3189 7.39994C22.1488 7.5441 22.0088 7.72058 21.907 7.91922C21.8052 8.11787 21.7436 8.33475 21.7256 8.55739L21.6845 9.46684C21.6457 9.11338 21.4804 8.78602 21.2193 8.5455C20.8948 8.24383 20.4755 8.0652 20.0338 8.04041C19.5809 8.01471 19.1354 8.16348 18.7882 8.45631C18.4411 8.74914 18.2186 9.16392 18.1661 9.61585L18.4228 18.3291C18.2568 17.4288 18.1663 16.5161 18.1522 15.6007C18.2024 14.317 17.8035 13.6076 16.975 13.4929C16.5611 13.42 16.1353 13.514 15.7901 13.7544C15.4449 13.9948 15.2083 14.3621 15.1318 14.7766C14.7015 17.4924 15.3626 25.5291 16.5684 27.1087C17.2411 28.1146 17.5234 29.3327 17.362 30.5331C17.3611 30.5483 17.3611 30.5635 17.362 30.5786H16.4345C16.3796 30.5786 16.3251 30.5895 16.2744 30.6106C16.2236 30.6317 16.1775 30.6626 16.1386 30.7015C16.0998 30.7405 16.0689 30.7868 16.0479 30.8377C16.0269 30.8886 16.0161 30.9432 16.0161 30.9983L16.0335 36.5803C16.0335 36.6916 16.0776 36.7983 16.1561 36.8771C16.2345 36.9558 16.341 37 16.4519 37L27.422 36.9692C27.5329 36.9692 27.6394 36.925 27.7179 36.8463C27.7963 36.7676 27.8404 36.6608 27.8404 36.5495L27.8195 30.9662C27.8195 30.8548 27.7754 30.7481 27.6969 30.6694C27.6185 30.5906 27.512 30.5464 27.4011 30.5464L26.2155 30.5499L26.2789 29.0864C27.1463 28.2146 27.3805 27.7957 28.4064 27.119C30.129 25.9682 31.9237 24.1621 32.6685 19.8205C32.7034 19.5876 32.7584 19.3406 32.8128 19.0979C32.9816 18.3402 33.1406 17.6246 32.7933 17.1503C32.7064 17.0361 32.5953 16.9426 32.4681 16.8766C32.3409 16.8106 32.2007 16.7736 32.0576 16.7683ZM27.0007 36.1311L16.8704 36.1626L16.8571 31.4216L26.9861 31.3901L27.0007 36.1311ZM31.9962 18.9167C31.9383 19.1797 31.879 19.4456 31.8428 19.6862C31.0805 24.1306 29.2782 25.5274 27.9433 26.4194C27.912 26.4404 25.479 28.242 25.4463 28.9745L25.3765 30.5513L18.1996 30.5737C18.3812 29.1734 18.0361 27.7554 17.2316 26.5966C16.2427 25.3024 15.5286 17.6211 15.9589 14.9116C16.0047 14.7161 16.1244 14.5461 16.2927 14.4372C16.461 14.3284 16.6649 14.2893 16.8613 14.3282C17.0008 14.3464 17.362 14.3981 17.316 15.5993C17.4457 19.994 18.4786 20.6083 18.7917 20.6915C18.8548 20.7082 18.9209 20.7099 18.9847 20.6965C19.0485 20.683 19.1084 20.6548 19.1594 20.614C19.2104 20.5732 19.2512 20.521 19.2786 20.4616C19.3059 20.4022 19.319 20.3372 19.3168 20.2718L19.0016 9.64173C19.0458 9.41816 19.1688 9.21806 19.3481 9.07812C19.5275 8.93819 19.7511 8.86781 19.978 8.8799C20.2251 8.89149 20.4604 8.98922 20.6433 9.15623C20.7163 9.22251 20.7731 9.30474 20.8094 9.39656C20.8457 9.48839 20.8604 9.58735 20.8525 9.68581L21.2521 19.0895C21.2568 19.1976 21.3029 19.2998 21.3809 19.3746C21.4589 19.4494 21.5626 19.4911 21.6705 19.491C21.7782 19.4912 21.8818 19.4496 21.9597 19.3751C22.0377 19.3006 22.084 19.1988 22.089 19.0909L22.5618 8.59727C22.6041 8.37493 22.7253 8.17551 22.903 8.03599C23.0807 7.89647 23.3027 7.82632 23.528 7.83853C23.7534 7.85074 23.9666 7.9445 24.1283 8.10242C24.2899 8.26034 24.389 8.4717 24.4071 8.69731L23.9441 19.3231C23.9385 19.431 23.9746 19.5368 24.0448 19.6186C24.115 19.7005 24.214 19.752 24.3211 19.7625C24.4282 19.7731 24.5353 19.7418 24.62 19.6752C24.7047 19.6086 24.7606 19.5119 24.7761 19.405L26.152 10.3924C26.1752 10.2552 26.2254 10.1239 26.2996 10.0064C26.3738 9.88878 26.4707 9.78719 26.5844 9.70749C26.6748 9.64436 26.7771 9.60027 26.8849 9.57791C26.9928 9.55554 27.1041 9.55536 27.2121 9.57737C27.332 9.59662 27.4467 9.6404 27.549 9.70598C27.6513 9.77157 27.7391 9.85757 27.8069 9.95864C27.9557 10.1763 28.0147 10.4433 27.9715 10.7037C27.8551 11.4536 26.8376 18.0492 26.8027 18.5984C26.7971 18.6893 26.7825 18.8132 26.7657 18.9601C26.6372 19.7292 26.6504 20.5155 26.8048 21.2799C26.2369 21.2403 25.674 21.4086 25.2203 21.7535C25.1371 21.8272 25.0864 21.9311 25.0796 22.0423C25.0727 22.1535 25.1102 22.2629 25.1837 22.3464C25.2572 22.4299 25.3608 22.4806 25.4716 22.4875C25.5825 22.4944 25.6915 22.4568 25.7747 22.3831C26.2469 21.9633 27.4108 22.1487 27.7811 22.2432H27.7895C27.8062 22.2432 27.8195 22.2516 27.8362 22.2537C27.8629 22.2554 27.8897 22.2554 27.9164 22.2537C27.9297 22.2537 27.9429 22.2537 27.9562 22.2537C28.8726 22.1795 29.9389 20.2011 30.1927 18.8258C30.33 18.4626 30.5756 18.1508 30.8959 17.9328C31.2163 17.7147 31.5958 17.601 31.9829 17.6071C32.0157 17.6071 32.0938 17.6204 32.1161 17.6505C32.241 17.8149 32.0938 18.4795 31.9962 18.9167Z" fill="white"/>
<circle opacity="0.3" cx="22" cy="22" r="22" fill="url(#paint0_radial)"/>
</svg>
