<svg width="1405" height="1237" viewBox="0 0 1405 1237" fill="none" xmlns="http://www.w3.org/2000/svg">
<g clip-path="url(#clip0_6_33)">
<path fill-rule="evenodd" clip-rule="evenodd" d="M686.9 305.5L800.2 362.2C853.5 388.8 886.6 442.4 886.6 502V565.8C886.5 593.5 874.3 616.3 850.2 633.5L849.3 634.2L848.5 634.9C840.9 641.2 828.3 650.3 828.1 650.4L809.5 663.7L818.7 684.6L908.7 887.8L814.3 935.6L711.6 705.6C748.4 705.2 784.5 667.9 784.5 628.5V564.3C784.5 493.1 743.6 428.3 679.3 397.7L589.2 354.7L686.9 305.5ZM556.8 339.1L686.9 274L812.9 336.9C875.4 368.2 914.9 432.1 914.9 502V565.8C914.8 604.4 896.8 634.9 866.8 656.4C858.3 663.5 844.9 673.1 844.9 673.1L945.7 900.8L801 974L698.1 743.6V743.8L800.9 974L676.1 914.3L556.7 974L526.2 959.4L430.7 914.2V780.7C430.2 729.8 459.4 683.4 505.4 661.5L556.7 637.4V627.3C484.5 627.4 426 568.9 426 496.7C426 424.5 484.5 366 556.7 366V339.1V339L556.8 339.1ZM669.9 885.8L556.8 942.4V838C556.8 791.1 582 747.9 622.7 724.8L669.9 697.9V885.8ZM659.1 496.7C659.1 440.3 613.2 394.3 556.7 394.3C500.3 394.3 454.3 440.3 454.3 496.7C454.3 553.1 500.2 599.1 556.7 599.1C613.1 599.1 659.1 553.1 659.1 496.7Z" fill="black"/>
</g>
<path d="M404.372 1234.33C402.772 1233.23 398.972 1229.73 395.972 1226.53C392.972 1223.23 380.872 1210.53 368.972 1198.13C347.872 1176.13 333.672 1161.33 315.272 1142.13C310.272 1136.93 302.372 1128.63 297.772 1123.73L289.372 1114.93L288.872 1174.23L288.372 1233.63H273.372H258.372L258.072 1155.63C257.872 1099.63 258.172 1076.43 258.972 1073.43C261.472 1064.23 272.372 1059.33 280.372 1063.93C283.572 1065.73 289.972 1072.33 353.372 1138.63C364.972 1150.73 379.472 1165.73 385.572 1172.13L396.872 1183.63V1124.43V1065.13H412.372H427.872V1144.33C427.872 1221.63 427.872 1223.63 425.872 1227.53C423.072 1233.23 419.572 1235.43 412.872 1235.93C408.672 1236.13 406.672 1235.73 404.372 1234.33Z" fill="black"/>
<path d="M1092.37 1235.13C1090.47 1234.33 1079.37 1223.23 1055.87 1198.63C1049.57 1192.03 1039.27 1181.23 1032.87 1174.63C988.072 1128.03 979.272 1118.73 978.072 1117.03C977.372 1116.03 976.372 1115.13 975.772 1115.13C975.272 1115.13 974.872 1138.03 974.872 1174.63V1234.13H959.872H944.872V1154.13C944.872 1064.53 944.472 1069.83 952.172 1064.73C960.372 1059.43 966.172 1061.53 977.772 1073.73C982.372 1078.63 990.672 1087.33 996.272 1093.13C1010.57 1108.03 1051.07 1150.23 1059.37 1158.93C1063.27 1162.93 1069.97 1170.03 1074.37 1174.73C1078.77 1179.33 1082.77 1183.13 1083.17 1183.13C1083.57 1183.13 1083.87 1156.63 1083.87 1124.13V1065.13H1098.87H1113.87V1144.63C1113.87 1232.83 1114.17 1228.83 1107.27 1233.53C1103.27 1236.23 1096.67 1236.93 1092.37 1235.13Z" fill="black"/>
<path d="M34.8721 1233.13C20.2721 1230.73 8.27214 1221.13 2.27214 1207.13C0.472136 1202.93 0.372136 1199.13 0.072136 1140.63C-0.127864 1098.03 0.0721359 1077.43 0.872136 1074.93C1.47214 1072.73 3.47214 1070.03 5.67214 1068.23L9.37214 1065.13H81.5721H153.872V1080.13V1095.13L92.1721 1095.33L30.3721 1095.63V1114.63V1133.63L85.1721 1133.93L139.872 1134.13V1149.13V1164.13L85.1721 1164.33L30.3721 1164.63V1179.13C30.3721 1195.13 31.5721 1199.73 36.4721 1202.03C38.2721 1202.83 55.5721 1203.13 96.4721 1203.13H153.972L153.672 1218.43L153.372 1233.63L96.3721 1233.73C64.9721 1233.83 37.3721 1233.53 34.8721 1233.13Z" fill="black"/>
<path d="M809.872 1149.63V1065.13H824.872H839.872V1149.63V1234.13H824.872H809.872V1149.63Z" fill="black"/>
<path d="M1253.37 1233.13C1238.47 1230.93 1224.67 1219.13 1220.47 1205.23C1219.07 1200.43 1218.87 1191.93 1218.87 1138.03C1218.87 1069.63 1218.67 1071.83 1225.27 1067.33L1228.47 1065.13H1300.17H1371.87V1080.13V1095.13H1310.37H1248.87L1249.07 1114.43L1249.37 1133.63L1304.17 1133.93L1358.87 1134.13V1149.13V1164.13L1304.17 1164.33L1249.37 1164.63V1180.83V1197.13L1252.17 1199.83L1254.87 1202.63L1313.37 1202.93L1371.87 1203.13V1218.63V1234.13L1315.17 1234.03C1283.87 1233.93 1256.17 1233.53 1253.37 1233.13Z" fill="black"/>
<path d="M607.372 1230.73C597.572 1228.23 589.372 1225.13 583.872 1221.93C562.672 1209.33 550.972 1188.03 548.872 1158.13C545.872 1115.83 558.272 1087.43 585.872 1073.63C588.872 1072.13 592.072 1070.53 592.972 1070.13C595.872 1068.63 610.272 1065.33 618.872 1064.13C627.972 1062.83 654.672 1063.33 665.372 1065.03C672.772 1066.13 682.672 1068.63 686.272 1070.23L688.872 1071.43V1085.33C688.872 1096.13 688.572 1099.23 687.672 1098.83C684.072 1097.43 669.572 1093.13 664.372 1091.93C656.172 1090.13 628.272 1090.23 620.372 1092.03C593.572 1098.33 580.872 1115.93 580.872 1146.63C580.872 1171.03 588.872 1189.53 603.372 1198.33C614.072 1204.93 632.072 1208.23 646.072 1206.13C650.672 1205.53 655.072 1204.63 655.872 1204.23C657.172 1203.53 657.372 1199.53 657.672 1179.23L657.872 1155.13H673.372H688.872V1190.03V1224.93L685.872 1226.03C678.872 1228.63 676.872 1229.13 667.872 1231.13C659.972 1232.83 655.072 1233.13 637.372 1233.03C619.072 1232.93 615.172 1232.63 607.372 1230.73Z" fill="black"/>
<path d="M103.03 128C108.563 128 113.43 127.267 117.63 125.8C121.896 124.333 125.463 122.3 128.33 119.7C131.263 117.033 133.463 113.867 134.93 110.2C136.396 106.533 137.13 102.5 137.13 98.1C137.13 88.9667 134.296 81.8333 128.63 76.7C123.03 71.5667 114.496 69 103.03 69H80.0297V128H103.03ZM103.03 53.7C112.096 53.7 119.963 54.7667 126.63 56.9C133.363 58.9667 138.93 61.9333 143.33 65.8C147.73 69.6667 150.996 74.3333 153.13 79.8C155.33 85.2667 156.43 91.3667 156.43 98.1C156.43 104.767 155.263 110.867 152.93 116.4C150.596 121.933 147.163 126.7 142.63 130.7C138.163 134.7 132.596 137.833 125.93 140.1C119.33 142.3 111.696 143.4 103.03 143.4H80.0297V197H60.7297V53.7H103.03ZM313.247 125.4C313.247 136.133 311.547 146 308.147 155C304.747 163.933 299.947 171.633 293.747 178.1C287.547 184.567 280.08 189.6 271.347 193.2C262.68 196.733 253.08 198.5 242.547 198.5C232.014 198.5 222.414 196.733 213.747 193.2C205.08 189.6 197.647 184.567 191.447 178.1C185.247 171.633 180.447 163.933 177.047 155C173.647 146 171.947 136.133 171.947 125.4C171.947 114.667 173.647 104.833 177.047 95.9C180.447 86.9 185.247 79.1667 191.447 72.7C197.647 66.1667 205.08 61.1 213.747 57.5C222.414 53.9 232.014 52.1 242.547 52.1C253.08 52.1 262.68 53.9 271.347 57.5C280.08 61.1 287.547 66.1667 293.747 72.7C299.947 79.1667 304.747 86.9 308.147 95.9C311.547 104.833 313.247 114.667 313.247 125.4ZM293.347 125.4C293.347 116.6 292.147 108.7 289.747 101.7C287.347 94.7 283.947 88.8 279.547 84C275.147 79.1333 269.814 75.4 263.547 72.8C257.28 70.2 250.28 68.9 242.547 68.9C234.88 68.9 227.914 70.2 221.647 72.8C215.38 75.4 210.014 79.1333 205.547 84C201.147 88.8 197.747 94.7 195.347 101.7C192.947 108.7 191.747 116.6 191.747 125.4C191.747 134.2 192.947 142.1 195.347 149.1C197.747 156.033 201.147 161.933 205.547 166.8C210.014 171.6 215.38 175.3 221.647 177.9C227.914 180.433 234.88 181.7 242.547 181.7C250.28 181.7 257.28 180.433 263.547 177.9C269.814 175.3 275.147 171.6 279.547 166.8C283.947 161.933 287.347 156.033 289.747 149.1C292.147 142.1 293.347 134.2 293.347 125.4ZM524.555 53.7L479.855 197H462.455L426.155 87.7C425.821 86.6333 425.488 85.5 425.155 84.3C424.888 83.1 424.588 81.8333 424.255 80.5C423.921 81.8333 423.588 83.1 423.255 84.3C422.921 85.5 422.588 86.6333 422.255 87.7L385.755 197H368.355L323.655 53.7H339.755C341.488 53.7 342.921 54.1333 344.055 55C345.255 55.8667 346.021 56.9667 346.355 58.3L375.955 157.9C376.421 159.7 376.855 161.633 377.255 163.7C377.721 165.767 378.155 167.967 378.555 170.3C379.021 167.967 379.488 165.767 379.955 163.7C380.488 161.567 381.055 159.633 381.655 157.9L415.355 58.3C415.755 57.1667 416.521 56.1333 417.655 55.2C418.855 54.2 420.288 53.7 421.955 53.7H427.555C429.288 53.7 430.688 54.1333 431.755 55C432.821 55.8667 433.621 56.9667 434.155 58.3L467.755 157.9C468.355 159.633 468.888 161.5 469.355 163.5C469.888 165.5 470.388 167.6 470.855 169.8C471.188 167.6 471.555 165.5 471.955 163.5C472.355 161.5 472.788 159.633 473.255 157.9L502.955 58.3C503.288 57.1 504.021 56.0333 505.155 55.1C506.355 54.1667 507.788 53.7 509.455 53.7H524.555ZM634.286 181.2L634.186 197H545.886V53.7H634.186V69.5H565.286V117.1H621.086V132.3H565.286V181.2H634.286ZM701.016 123.1C706.616 123.1 711.549 122.433 715.816 121.1C720.149 119.7 723.749 117.767 726.616 115.3C729.549 112.767 731.749 109.767 733.216 106.3C734.682 102.833 735.416 99 735.416 94.8C735.416 86.2667 732.616 79.8333 727.016 75.5C721.416 71.1667 713.016 69 701.816 69H680.616V123.1H701.016ZM767.216 197H750.016C746.482 197 743.882 195.633 742.216 192.9L705.016 141.7C703.882 140.1 702.649 138.967 701.316 138.3C700.049 137.567 698.049 137.2 695.316 137.2H680.616V197H661.316V53.7H701.816C710.882 53.7 718.716 54.6333 725.316 56.5C731.916 58.3 737.349 60.9333 741.616 64.4C745.949 67.8667 749.149 72.0667 751.216 77C753.282 81.8667 754.316 87.3333 754.316 93.4C754.316 98.4667 753.516 103.2 751.916 107.6C750.316 112 747.982 115.967 744.916 119.5C741.916 122.967 738.216 125.933 733.816 128.4C729.482 130.867 724.549 132.733 719.016 134C721.482 135.4 723.616 137.433 725.416 140.1L767.216 197ZM875.106 181.2L875.006 197H786.706V53.7H875.006V69.5H806.106V117.1H861.906V132.3H806.106V181.2H875.106ZM1026.34 125.4C1026.34 136.133 1024.64 145.9 1021.24 154.7C1017.84 163.5 1013.04 171.033 1006.84 177.3C1000.64 183.567 993.169 188.433 984.436 191.9C975.769 195.3 966.169 197 955.636 197H902.136V53.7H955.636C966.169 53.7 975.769 55.4333 984.436 58.9C993.169 62.3 1000.64 67.1667 1006.84 73.5C1013.04 79.7667 1017.84 87.3 1021.24 96.1C1024.64 104.9 1026.34 114.667 1026.34 125.4ZM1006.44 125.4C1006.44 116.6 1005.24 108.733 1002.84 101.8C1000.44 94.8667 997.036 89 992.636 84.2C988.236 79.4 982.903 75.7333 976.636 73.2C970.369 70.6667 963.369 69.4 955.636 69.4H921.536V181.3H955.636C963.369 181.3 970.369 180.033 976.636 177.5C982.903 174.967 988.236 171.333 992.636 166.6C997.036 161.8 1000.44 155.933 1002.84 149C1005.24 142.067 1006.44 134.2 1006.44 125.4ZM1155.76 181.6C1161.29 181.6 1166.06 180.967 1170.06 179.7C1174.06 178.433 1177.32 176.667 1179.86 174.4C1182.46 172.067 1184.36 169.333 1185.56 166.2C1186.76 163 1187.36 159.5 1187.36 155.7C1187.36 148.3 1184.72 142.467 1179.46 138.2C1174.19 133.867 1166.29 131.7 1155.76 131.7H1124.76V181.6H1155.76ZM1124.76 69V117.9H1150.36C1155.82 117.9 1160.56 117.3 1164.56 116.1C1168.62 114.9 1171.96 113.233 1174.56 111.1C1177.22 108.967 1179.19 106.4 1180.46 103.4C1181.72 100.333 1182.36 97 1182.36 93.4C1182.36 84.9333 1179.82 78.7667 1174.76 74.9C1169.69 70.9667 1161.82 69 1151.16 69H1124.76ZM1151.16 53.7C1159.96 53.7 1167.52 54.5667 1173.86 56.3C1180.26 58.0333 1185.49 60.5 1189.56 63.7C1193.69 66.9 1196.72 70.8333 1198.66 75.5C1200.59 80.1 1201.56 85.3 1201.56 91.1C1201.56 94.6333 1200.99 98.0333 1199.86 101.3C1198.79 104.5 1197.16 107.5 1194.96 110.3C1192.76 113.1 1189.96 115.633 1186.56 117.9C1183.22 120.1 1179.29 121.9 1174.76 123.3C1185.29 125.3 1193.19 129.067 1198.46 134.6C1203.79 140.067 1206.46 147.267 1206.46 156.2C1206.46 162.267 1205.32 167.8 1203.06 172.8C1200.86 177.8 1197.59 182.1 1193.26 185.7C1188.99 189.3 1183.72 192.1 1177.46 194.1C1171.19 196.033 1164.06 197 1156.06 197H1105.46V53.7H1151.16ZM1283.87 139.9V197H1264.47V139.9L1211.97 53.7H1228.97C1230.7 53.7 1232.07 54.1333 1233.07 55C1234.07 55.8 1234.93 56.8667 1235.67 58.2L1268.47 113.9C1269.67 116.233 1270.77 118.433 1271.77 120.5C1272.77 122.5 1273.63 124.533 1274.37 126.6C1275.1 124.533 1275.93 122.5 1276.87 120.5C1277.8 118.433 1278.83 116.233 1279.97 113.9L1312.67 58.2C1313.27 57.0667 1314.1 56.0333 1315.17 55.1C1316.23 54.1667 1317.6 53.7 1319.27 53.7H1336.37L1283.87 139.9Z" fill="black"/>
<defs>
<clipPath id="clip0_6_33">
<rect width="519.7" height="700" fill="white" transform="translate(426 274)"/>
</clipPath>
</defs>
</svg>
