<svg width="451" height="173" viewBox="0 0 451 173" fill="none" xmlns="http://www.w3.org/2000/svg">
<g clip-path="url(#clip0_219_2)">
<g clip-path="url(#clip1_219_2)">
<path d="M112.421 69.6296C111.868 68.6509 110.32 68.2159 109.324 68.8684L61.9807 95.7282L14.4161 68.3247C13.4206 67.7809 11.9826 68.1072 11.3189 69.0859C10.987 69.6296 10.987 70.1733 11.0976 70.717C11.2083 71.2608 11.6507 71.8045 12.0932 72.022L60.6534 99.9692C61.0957 100.187 61.5383 100.295 61.8701 100.295C61.9807 100.295 61.9807 100.295 62.0912 100.295C62.5338 100.295 62.8656 100.187 63.1974 99.9692L111.536 72.457C112.089 72.1307 112.421 71.6957 112.642 71.152C112.864 70.717 112.753 70.0646 112.421 69.6296Z" fill="url(#paint0_linear_219_2)"/>
<path d="M112.418 88.1152C111.865 87.1365 110.316 86.7015 109.321 87.354L61.9773 114.214L14.4128 86.8103C13.4173 86.2665 11.9793 86.5928 11.3156 87.5715C10.6519 88.659 11.0943 89.9638 12.0899 90.6162L60.65 118.564C61.0924 118.781 61.5349 118.89 61.8668 118.89C61.9773 118.89 61.9773 118.89 62.0881 118.89C62.5304 118.89 62.8623 118.781 63.1941 118.564L111.533 91.16C112.086 90.8338 112.418 90.3989 112.528 89.8551C112.86 89.2027 112.75 88.5503 112.418 88.1152Z" fill="url(#paint1_linear_219_2)"/>
<path d="M112.418 106.601C111.865 105.622 110.427 105.187 109.321 105.84L61.9773 132.7L14.4128 105.296C13.4173 104.752 11.9793 105.079 11.3156 106.057C10.6519 107.145 11.0943 108.45 12.0899 109.102L60.65 137.158C61.0924 137.376 61.5349 137.484 61.8668 137.484C61.9773 137.484 61.9773 137.484 62.0881 137.484C62.5304 137.484 62.8623 137.376 63.1941 137.158L111.533 109.646C112.086 109.32 112.418 108.885 112.528 108.341C112.86 107.689 112.75 107.036 112.418 106.601Z" fill="url(#paint2_linear_219_2)"/>
<path d="M112.328 125.154C111.775 124.175 110.337 123.74 109.231 124.392L61.8875 151.252L14.4336 123.74C13.438 123.196 12 123.523 11.3363 124.501C11.0045 125.045 10.8939 125.589 11.1151 126.132C11.2257 126.676 11.6682 127.22 12.1106 127.437L60.56 155.493C61.0026 155.711 61.445 155.819 61.7768 155.819C61.8875 155.819 61.8875 155.819 61.9981 155.819C62.4407 155.819 62.7725 155.711 63.1043 155.493L111.443 127.981C111.996 127.655 112.328 127.22 112.439 126.676C112.771 126.241 112.66 125.697 112.328 125.154Z" fill="url(#paint3_linear_219_2)"/>
</g>
<path d="M147.367 147.934V151H132.309V147.934H147.367ZM133.07 122.562V151H129.301V122.562H133.07ZM145.375 134.789V137.855H132.309V134.789H145.375ZM147.172 122.562V125.648H132.309V122.562H147.172ZM173.91 122.562V151H170.121L155.805 129.066V151H152.035V122.562H155.805L170.18 144.555V122.562H173.91ZM201.605 136.84V147.25C201.254 147.771 200.694 148.357 199.926 149.008C199.158 149.646 198.096 150.206 196.742 150.688C195.401 151.156 193.669 151.391 191.547 151.391C189.815 151.391 188.22 151.091 186.762 150.492C185.316 149.88 184.06 148.995 182.992 147.836C181.938 146.664 181.117 145.245 180.531 143.578C179.958 141.898 179.672 139.997 179.672 137.875V135.668C179.672 133.546 179.919 131.651 180.414 129.984C180.922 128.318 181.664 126.905 182.641 125.746C183.617 124.574 184.815 123.689 186.234 123.09C187.654 122.478 189.281 122.172 191.117 122.172C193.292 122.172 195.108 122.549 196.566 123.305C198.038 124.047 199.184 125.076 200.004 126.391C200.837 127.706 201.371 129.203 201.605 130.883H197.836C197.667 129.854 197.328 128.917 196.82 128.07C196.326 127.224 195.616 126.547 194.691 126.039C193.767 125.518 192.576 125.258 191.117 125.258C189.802 125.258 188.663 125.499 187.699 125.98C186.736 126.462 185.941 127.152 185.316 128.051C184.691 128.949 184.223 130.036 183.91 131.312C183.611 132.589 183.461 134.027 183.461 135.629V137.875C183.461 139.516 183.65 140.98 184.027 142.27C184.418 143.559 184.971 144.659 185.688 145.57C186.404 146.469 187.257 147.152 188.246 147.621C189.249 148.09 190.355 148.324 191.566 148.324C192.908 148.324 193.995 148.214 194.828 147.992C195.661 147.758 196.312 147.484 196.781 147.172C197.25 146.846 197.608 146.54 197.855 146.254V139.887H191.273V136.84H201.605ZM211.898 122.562V151H208.129V122.562H211.898ZM240.629 122.562V151H236.84L222.523 129.066V151H218.754V122.562H222.523L236.898 144.555V122.562H240.629ZM265.375 147.934V151H250.316V147.934H265.375ZM251.078 122.562V151H247.309V122.562H251.078ZM263.383 134.789V137.855H250.316V134.789H263.383ZM265.18 122.562V125.648H250.316V122.562H265.18Z" fill="#434DEA"/>
<path d="M159.985 107.27V112.497H134.32V107.27H159.985ZM135.618 64.0295V112.497H129.193V64.0295H135.618ZM156.589 84.8677V90.0939H134.32V84.8677H156.589ZM159.652 64.0295V69.289H134.32V64.0295H159.652Z" fill="url(#paint4_linear_219_2)"/>
<path d="M186.515 64.0295V112.497H180.19V88.2631V64.0295H186.515ZM202.094 64.0295V69.289H164.645V64.0295H202.094Z" fill="url(#paint5_linear_219_2)"/>
<path d="M238.906 84.8677V90.0939H212.675V84.8677H238.906ZM213.673 64.0295V112.497H207.249V64.0295H213.673ZM244.498 64.0295V112.497H238.107V64.0295H244.498Z" fill="url(#paint6_linear_219_2)"/>
<path d="M280.524 107.21V112.436H254.859V107.21H280.524ZM256.157 63.9692V112.436H249.732V63.9692H256.157ZM277.128 84.8074V90.0336H254.859V84.8074H277.128ZM280.191 63.9692V69.2287H254.859V63.9692H280.191Z" fill="url(#paint7_linear_219_2)"/>
<path d="M285.505 64.0295H301.55C305.189 64.0295 308.263 64.5843 310.771 65.6939C313.301 66.8035 315.22 68.4457 316.529 70.6205C317.861 72.7731 318.527 75.4251 318.527 78.5763C318.527 80.7955 318.072 82.8261 317.162 84.668C316.274 86.4877 314.987 88.0412 313.301 89.3283C311.636 90.5932 309.639 91.5364 307.309 92.1578L305.511 92.8568H290.432L290.365 87.6306H301.75C304.058 87.6306 305.977 87.2312 307.508 86.4323C309.04 85.6111 310.194 84.5127 310.97 83.1368C311.747 81.7609 312.135 80.2407 312.135 78.5763C312.135 76.7122 311.769 75.0811 311.037 73.683C310.305 72.2849 309.151 71.2086 307.575 70.4541C306.022 69.6774 304.013 69.289 301.55 69.289H291.93V112.497H285.505V64.0295ZM313.833 112.497L302.049 90.5267L308.74 90.4934L320.69 112.097V112.497H313.833Z" fill="url(#paint8_linear_219_2)"/>
<path d="M356.61 107.27V112.497H330.945V107.27H356.61ZM332.243 64.0295V112.497H325.819V64.0295H332.243ZM353.215 84.8677V90.0939H330.945V84.8677H353.215ZM356.277 64.0295V69.289H330.945V64.0295H356.277Z" fill="url(#paint9_linear_219_2)"/>
<path d="M384.543 68.3237L368.498 112.497H361.94L380.415 64.0295H384.643L384.543 68.3237ZM397.991 112.497L381.913 68.3237L381.813 64.0295H386.041L404.582 112.497H397.991ZM397.159 94.5545V99.814H369.93V94.5545H397.159Z" fill="url(#paint10_linear_219_2)"/>
<path d="M439.11 107.27V112.497H414.876V107.27H439.11ZM416.141 64.0295V112.497H409.717V64.0295H416.141Z" fill="url(#paint11_linear_219_2)"/>
<path d="M136.654 42.1923H131.335V40.0456H136.654C137.684 40.0456 138.518 39.8815 139.156 39.5533C139.794 39.2252 140.259 38.7694 140.551 38.186C140.851 37.6026 141.002 36.9371 141.002 36.1896C141.002 35.5059 140.851 34.8633 140.551 34.2616C140.259 33.66 139.794 33.1768 139.156 32.8122C138.518 32.4385 137.684 32.2516 136.654 32.2516H131.95V50H129.311V30.0912H136.654C138.158 30.0912 139.429 30.351 140.469 30.8706C141.508 31.3902 142.296 32.1103 142.834 33.031C143.372 33.9426 143.641 34.9863 143.641 36.1623C143.641 37.4385 143.372 38.5278 142.834 39.4303C142.296 40.3327 141.508 41.021 140.469 41.495C139.429 41.9599 138.158 42.1923 136.654 42.1923ZM162.305 39.4166V40.6746C162.305 42.1696 162.119 43.5096 161.745 44.6946C161.371 45.8797 160.833 46.887 160.131 47.7165C159.429 48.546 158.586 49.1796 157.602 49.6171C156.626 50.0547 155.532 50.2735 154.32 50.2735C153.144 50.2735 152.064 50.0547 151.079 49.6171C150.104 49.1796 149.256 48.546 148.536 47.7165C147.825 46.887 147.273 45.8797 146.881 44.6946C146.49 43.5096 146.294 42.1696 146.294 40.6746V39.4166C146.294 37.9216 146.485 36.5861 146.868 35.4102C147.26 34.2252 147.811 33.2179 148.522 32.3883C149.233 31.5497 150.077 30.9116 151.052 30.474C152.036 30.0365 153.117 29.8177 154.293 29.8177C155.505 29.8177 156.599 30.0365 157.574 30.474C158.559 30.9116 159.402 31.5497 160.104 32.3883C160.815 33.2179 161.357 34.2252 161.731 35.4102C162.114 36.5861 162.305 37.9216 162.305 39.4166ZM159.694 40.6746V39.3892C159.694 38.2042 159.571 37.1559 159.325 36.2443C159.088 35.3327 158.737 34.567 158.272 33.9471C157.807 33.3273 157.237 32.8578 156.562 32.5387C155.897 32.2197 155.14 32.0602 154.293 32.0602C153.472 32.0602 152.729 32.2197 152.064 32.5387C151.407 32.8578 150.842 33.3273 150.368 33.9471C149.903 34.567 149.543 35.3327 149.288 36.2443C149.033 37.1559 148.905 38.2042 148.905 39.3892V40.6746C148.905 41.8687 149.033 42.9262 149.288 43.8469C149.543 44.7584 149.908 45.5287 150.382 46.1577C150.865 46.7776 151.435 47.247 152.091 47.5661C152.757 47.8851 153.5 48.0447 154.32 48.0447C155.177 48.0447 155.938 47.8851 156.603 47.5661C157.269 47.247 157.83 46.7776 158.285 46.1577C158.75 45.5287 159.101 44.7584 159.338 43.8469C159.575 42.9262 159.694 41.8687 159.694 40.6746ZM171.494 43.9836L175.446 30.0912H177.36L176.253 35.4923L172 50H170.099L171.494 43.9836ZM167.406 30.0912L170.551 43.7101L171.494 50H169.607L164.78 30.0912H167.406ZM182.474 43.6964L185.551 30.0912H188.19L183.376 50H181.49L182.474 43.6964ZM177.647 30.0912L181.49 43.9836L182.884 50H180.984L176.881 35.4923L175.76 30.0912H177.647ZM203.764 47.8532V50H193.222V47.8532H203.764ZM193.755 30.0912V50H191.116V30.0912H193.755ZM202.369 38.6509V40.7976H193.222V38.6509H202.369ZM203.627 30.0912V32.2516H193.222V30.0912H203.627ZM207.032 30.0912H213.623C215.118 30.0912 216.38 30.3191 217.41 30.7748C218.449 31.2306 219.238 31.9052 219.776 32.7985C220.323 33.6828 220.596 34.7721 220.596 36.0665C220.596 36.9781 220.409 37.8122 220.036 38.5688C219.671 39.3163 219.142 39.9544 218.449 40.4831C217.766 41.0027 216.945 41.3902 215.988 41.6454L215.25 41.9325H209.056L209.028 39.7858H213.705C214.653 39.7858 215.441 39.6217 216.07 39.2935C216.699 38.9562 217.173 38.505 217.492 37.9398C217.811 37.3747 217.971 36.7502 217.971 36.0665C217.971 35.3008 217.82 34.6308 217.52 34.0565C217.219 33.4822 216.745 33.0401 216.098 32.7302C215.459 32.4111 214.634 32.2516 213.623 32.2516H209.671V50H207.032V30.0912ZM218.668 50L213.828 40.9754L216.576 40.9617L221.485 49.8359V50H218.668ZM236.936 47.8532V50H226.394V47.8532H236.936ZM226.927 30.0912V50H224.288V30.0912H226.927ZM235.541 38.6509V40.7976H226.394V38.6509H235.541ZM236.799 30.0912V32.2516H226.394V30.0912H236.799ZM245.592 50H241.435L241.462 47.8532H245.592C247.014 47.8532 248.199 47.557 249.147 46.9644C250.095 46.3628 250.806 45.5242 251.28 44.4485C251.763 43.3637 252.005 42.0966 252.005 40.6472V39.4303C252.005 38.2908 251.868 37.2789 251.594 36.3947C251.321 35.5014 250.92 34.7493 250.391 34.1386C249.862 33.5187 249.215 33.0492 248.449 32.7302C247.693 32.4111 246.822 32.2516 245.838 32.2516H241.353V30.0912H245.838C247.141 30.0912 248.331 30.3099 249.407 30.7475C250.482 31.1759 251.407 31.8004 252.182 32.6208C252.966 33.4321 253.568 34.4166 253.987 35.5743C254.407 36.7229 254.616 38.0173 254.616 39.4576V40.6472C254.616 42.0875 254.407 43.3865 253.987 44.5442C253.568 45.6928 252.962 46.6727 252.169 47.484C251.385 48.2954 250.437 48.9198 249.325 49.3573C248.222 49.7858 246.977 50 245.592 50ZM242.843 30.0912V50H240.204V30.0912H242.843ZM272.624 40.6882H267.579L267.551 38.5688H272.132C272.889 38.5688 273.55 38.4412 274.115 38.186C274.68 37.9307 275.118 37.5661 275.428 37.0921C275.747 36.6089 275.906 36.0346 275.906 35.3692C275.906 34.6399 275.765 34.0474 275.482 33.5916C275.209 33.1267 274.785 32.7894 274.211 32.5798C273.645 32.361 272.925 32.2516 272.05 32.2516H268.167V50H265.528V30.0912H272.05C273.071 30.0912 273.983 30.196 274.785 30.4057C275.587 30.6062 276.266 30.9253 276.822 31.3628C277.387 31.7912 277.816 32.3382 278.108 33.0036C278.399 33.6691 278.545 34.4667 278.545 35.3965C278.545 36.217 278.335 36.9599 277.916 37.6253C277.497 38.2817 276.913 38.8195 276.166 39.2388C275.428 39.6582 274.562 39.9271 273.568 40.0456L272.624 40.6882ZM272.501 50H266.54L268.03 47.8532H272.501C273.34 47.8532 274.051 47.7074 274.634 47.4157C275.227 47.124 275.678 46.7138 275.988 46.1851C276.298 45.6472 276.453 45.0137 276.453 44.2844C276.453 43.546 276.321 42.9079 276.057 42.3701C275.792 41.8323 275.377 41.4175 274.812 41.1258C274.247 40.8341 273.518 40.6882 272.624 40.6882H268.864L268.892 38.5688H274.033L274.593 39.3345C275.551 39.4166 276.362 39.6901 277.027 40.155C277.693 40.6108 278.199 41.1942 278.545 41.9052C278.901 42.6162 279.078 43.4002 279.078 44.2571C279.078 45.4968 278.805 46.5451 278.258 47.402C277.72 48.2498 276.959 48.897 275.974 49.3437C274.99 49.7812 273.832 50 272.501 50ZM283.126 30.0912L288.294 40.0866L293.477 30.0912H296.471L289.607 42.5615V50H286.968V42.5615L280.104 30.0912H283.126Z" fill="white"/>
</g>
<defs>
<linearGradient id="paint0_linear_219_2" x1="61.8944" y1="95.9272" x2="61.8944" y2="68.0627" gradientUnits="userSpaceOnUse">
<stop stop-color="#1D54FC"/>
<stop offset="1" stop-color="#F62E97"/>
</linearGradient>
<linearGradient id="paint1_linear_219_2" x1="61.8645" y1="115.067" x2="61.8645" y2="82.5875" gradientUnits="userSpaceOnUse">
<stop stop-color="#1D54FC"/>
<stop offset="1" stop-color="#F62E97"/>
</linearGradient>
<linearGradient id="paint2_linear_219_2" x1="61.8645" y1="137.484" x2="61.8645" y2="105.034" gradientUnits="userSpaceOnUse">
<stop stop-color="#1D54FC"/>
<stop offset="1" stop-color="#F62E97"/>
</linearGradient>
<linearGradient id="paint3_linear_219_2" x1="61.8194" y1="155.819" x2="61.8194" y2="123.478" gradientUnits="userSpaceOnUse">
<stop stop-color="#1D54FC"/>
<stop offset="1" stop-color="#F62E97"/>
</linearGradient>
<linearGradient id="paint4_linear_219_2" x1="125.861" y1="63.995" x2="451.466" y2="112.497" gradientUnits="userSpaceOnUse">
<stop stop-color="#1D54FC"/>
<stop offset="1" stop-color="#F62E97"/>
</linearGradient>
<linearGradient id="paint5_linear_219_2" x1="125.861" y1="63.995" x2="451.466" y2="112.497" gradientUnits="userSpaceOnUse">
<stop stop-color="#1D54FC"/>
<stop offset="1" stop-color="#F62E97"/>
</linearGradient>
<linearGradient id="paint6_linear_219_2" x1="125.861" y1="63.995" x2="451.466" y2="112.497" gradientUnits="userSpaceOnUse">
<stop stop-color="#1D54FC"/>
<stop offset="1" stop-color="#F62E97"/>
</linearGradient>
<linearGradient id="paint7_linear_219_2" x1="125.861" y1="63.995" x2="451.466" y2="112.497" gradientUnits="userSpaceOnUse">
<stop stop-color="#1D54FC"/>
<stop offset="1" stop-color="#F62E97"/>
</linearGradient>
<linearGradient id="paint8_linear_219_2" x1="125.861" y1="63.995" x2="451.466" y2="112.497" gradientUnits="userSpaceOnUse">
<stop stop-color="#1D54FC"/>
<stop offset="1" stop-color="#F62E97"/>
</linearGradient>
<linearGradient id="paint9_linear_219_2" x1="125.861" y1="63.995" x2="451.466" y2="112.497" gradientUnits="userSpaceOnUse">
<stop stop-color="#1D54FC"/>
<stop offset="1" stop-color="#F62E97"/>
</linearGradient>
<linearGradient id="paint10_linear_219_2" x1="125.861" y1="63.995" x2="451.466" y2="112.497" gradientUnits="userSpaceOnUse">
<stop stop-color="#1D54FC"/>
<stop offset="1" stop-color="#F62E97"/>
</linearGradient>
<linearGradient id="paint11_linear_219_2" x1="125.861" y1="63.995" x2="451.466" y2="112.497" gradientUnits="userSpaceOnUse">
<stop stop-color="#1D54FC"/>
<stop offset="1" stop-color="#F62E97"/>
</linearGradient>
<clipPath id="clip0_219_2">
<rect width="451" height="173" fill="white"/>
</clipPath>
<clipPath id="clip1_219_2">
<rect width="102" height="88" fill="white" transform="translate(11 68)"/>
</clipPath>
</defs>
</svg>
