<?xml version="1.0" encoding="UTF-8"?>
<!DOCTYPE svg PUBLIC "-//W3C//DTD SVG 1.1//EN" "http://www.w3.org/Graphics/SVG/1.1/DTD/svg11.dtd">
<svg xmlns="http://www.w3.org/2000/svg" version="1.1" width="5301px" height="1600px" style="shape-rendering:geometricPrecision; text-rendering:geometricPrecision; image-rendering:optimizeQuality; fill-rule:evenodd; clip-rule:evenodd" xmlns:xlink="http://www.w3.org/1999/xlink">
<g><path style="opacity:0.972" fill="#21212e" d="M 1679.5,97.5 C 1744.81,93.3261 1783.31,123.326 1795,187.5C 1799.7,218.548 1795.37,248.215 1782,276.5C 1762.55,309.4 1733.55,325.733 1695,325.5C 1645.05,324.376 1612.71,300.043 1598,252.5C 1590.35,221.56 1591.35,190.894 1601,160.5C 1615.5,124.824 1641.66,103.824 1679.5,97.5 Z M 1685.5,122.5 C 1716.62,119.804 1739.45,132.137 1754,159.5C 1767.19,192.222 1767.86,225.222 1756,258.5C 1741.31,290.43 1716.48,303.93 1681.5,299C 1657.16,293.002 1640.66,278.169 1632,254.5C 1623.05,224.724 1623.38,195.058 1633,165.5C 1642.91,141.743 1660.41,127.41 1685.5,122.5 Z"/></g>
<g><path style="opacity:0.976" fill="#22212e" d="M 1424.5,101.5 C 1452.17,101.333 1479.84,101.5 1507.5,102C 1546.79,105.952 1566.46,127.619 1566.5,167C 1567.29,202.113 1550.63,223.446 1516.5,231C 1496.23,233.173 1475.9,234.007 1455.5,233.5C 1455.5,262.833 1455.5,292.167 1455.5,321.5C 1445.17,321.5 1434.83,321.5 1424.5,321.5C 1424.5,248.167 1424.5,174.833 1424.5,101.5 Z M 1455.5,126.5 C 1470.5,126.333 1485.5,126.5 1500.5,127C 1522.8,130.895 1534.13,144.228 1534.5,167C 1534.58,189.52 1523.58,202.854 1501.5,207C 1486.17,207.5 1470.84,207.667 1455.5,207.5C 1455.5,180.5 1455.5,153.5 1455.5,126.5 Z"/></g>
<g><path style="opacity:0.972" fill="#21212e" d="M 1822.5,101.5 C 1833.26,100.872 1843.76,101.538 1854,103.5C 1869.16,163.796 1884.16,224.129 1899,284.5C 1913.94,223.575 1929.11,162.742 1944.5,102C 1956.08,101.18 1967.58,101.346 1979,102.5C 1994.16,162.796 2009.16,223.129 2024,283.5C 2039.31,223.58 2054.31,163.58 2069,103.5C 2079.24,101.538 2089.74,100.872 2100.5,101.5C 2082.65,174.226 2064.49,246.892 2046,319.5C 2039.74,320.812 2033.24,321.478 2026.5,321.5C 2019.76,321.478 2013.26,320.812 2007,319.5C 1992.16,257.796 1977.16,196.13 1962,134.5C 1946.2,196.034 1930.87,257.701 1916,319.5C 1909.74,320.812 1903.24,321.478 1896.5,321.5C 1890.17,321.167 1883.83,320.833 1877.5,320.5C 1858.7,247.614 1840.36,174.614 1822.5,101.5 Z"/></g>
<g><path style="opacity:0.984" fill="#22222f" d="M 2138.5,101.5 C 2185.17,101.5 2231.83,101.5 2278.5,101.5C 2278.5,110.167 2278.5,118.833 2278.5,127.5C 2242.17,127.5 2205.83,127.5 2169.5,127.5C 2169.5,148.5 2169.5,169.5 2169.5,190.5C 2204.17,190.5 2238.83,190.5 2273.5,190.5C 2273.5,199.167 2273.5,207.833 2273.5,216.5C 2238.83,216.5 2204.17,216.5 2169.5,216.5C 2169.5,242.833 2169.5,269.167 2169.5,295.5C 2206.83,295.5 2244.17,295.5 2281.5,295.5C 2281.5,304.167 2281.5,312.833 2281.5,321.5C 2233.83,321.5 2186.17,321.5 2138.5,321.5C 2138.5,248.167 2138.5,174.833 2138.5,101.5 Z"/></g>
<g><path style="opacity:0.969" fill="#21212e" d="M 2328.5,101.5 C 2356.5,101.333 2384.5,101.5 2412.5,102C 2451,105.671 2470.67,126.838 2471.5,165.5C 2471.46,191.348 2459.46,208.848 2435.5,218C 2440.89,220.726 2445.73,224.226 2450,228.5C 2454.72,234.221 2459.05,240.221 2463,246.5C 2475.76,271.011 2488.26,295.678 2500.5,320.5C 2489.27,321.82 2478.11,321.82 2467,320.5C 2456,298.5 2445,276.5 2434,254.5C 2429.57,247.07 2424.07,240.57 2417.5,235C 2411.61,231.611 2405.28,229.611 2398.5,229C 2385.5,228.5 2372.5,228.333 2359.5,228.5C 2359.5,259.5 2359.5,290.5 2359.5,321.5C 2349.17,321.5 2338.83,321.5 2328.5,321.5C 2328.5,248.167 2328.5,174.833 2328.5,101.5 Z M 2359.5,126.5 C 2374.84,126.333 2390.17,126.5 2405.5,127C 2427.62,130.112 2438.62,142.779 2438.5,165C 2438.18,188.651 2426.18,201.317 2402.5,203C 2388.17,203.5 2373.84,203.667 2359.5,203.5C 2359.5,177.833 2359.5,152.167 2359.5,126.5 Z"/></g>
<g><path style="opacity:0.982" fill="#22222f" d="M 2537.5,101.5 C 2583.83,101.5 2630.17,101.5 2676.5,101.5C 2676.5,110.167 2676.5,118.833 2676.5,127.5C 2640.17,127.5 2603.83,127.5 2567.5,127.5C 2567.5,148.5 2567.5,169.5 2567.5,190.5C 2602.5,190.5 2637.5,190.5 2672.5,190.5C 2672.5,199.167 2672.5,207.833 2672.5,216.5C 2637.5,216.5 2602.5,216.5 2567.5,216.5C 2567.5,242.833 2567.5,269.167 2567.5,295.5C 2604.83,295.5 2642.17,295.5 2679.5,295.5C 2679.5,304.167 2679.5,312.833 2679.5,321.5C 2632.17,321.5 2584.83,321.5 2537.5,321.5C 2537.5,248.167 2537.5,174.833 2537.5,101.5 Z"/></g>
<g><path style="opacity:0.979" fill="#21212e" d="M 2727.5,101.5 C 2755.17,101.333 2782.84,101.5 2810.5,102C 2878.6,106.429 2912.6,142.762 2912.5,211C 2913,277.827 2880,314.161 2813.5,320C 2784.85,321.347 2756.19,321.847 2727.5,321.5C 2727.5,248.167 2727.5,174.833 2727.5,101.5 Z M 2757.5,126.5 C 2773.5,126.333 2789.5,126.5 2805.5,127C 2856.99,131.165 2881.66,159.165 2879.5,211C 2880.64,232.258 2875.48,251.758 2864,269.5C 2851.48,283.844 2835.65,292.011 2816.5,294C 2796.86,295.379 2777.2,295.879 2757.5,295.5C 2757.5,239.167 2757.5,182.833 2757.5,126.5 Z"/></g>
<g><path style="opacity:0.969" fill="#21212e" d="M 3053.5,101.5 C 3086.53,101.051 3119.53,101.551 3152.5,103C 3191.19,111.048 3206.69,134.548 3199,173.5C 3194.35,189.481 3183.85,199.314 3167.5,203C 3195.54,211.067 3209.88,229.734 3210.5,259C 3208.79,293.05 3191.12,313.05 3157.5,319C 3151.21,320.023 3144.87,320.689 3138.5,321C 3110.17,321.5 3081.84,321.667 3053.5,321.5C 3053.5,248.167 3053.5,174.833 3053.5,101.5 Z M 3084.5,126.5 C 3102.17,126.333 3119.84,126.5 3137.5,127C 3166.98,131.779 3176.48,148.279 3166,176.5C 3158.83,185.667 3149.33,190.5 3137.5,191C 3119.84,191.5 3102.17,191.667 3084.5,191.5C 3084.5,169.833 3084.5,148.167 3084.5,126.5 Z M 3084.5,216.5 C 3103.17,216.333 3121.84,216.5 3140.5,217C 3165.23,218.396 3177.57,231.396 3177.5,256C 3177.8,279.705 3166.13,292.705 3142.5,295C 3123.17,295.5 3103.84,295.667 3084.5,295.5C 3084.5,269.167 3084.5,242.833 3084.5,216.5 Z"/></g>
<g><path style="opacity:0.967" fill="#21212e" d="M 3213.5,101.5 C 3224.51,101.333 3235.51,101.5 3246.5,102C 3266.14,131.464 3286.14,160.631 3306.5,189.5C 3326.54,160.592 3346.2,131.426 3365.5,102C 3376.52,101.168 3387.52,101.334 3398.5,102.5C 3372.8,140.364 3347.3,178.364 3322,216.5C 3321.5,251.498 3321.33,286.498 3321.5,321.5C 3311.17,321.5 3300.83,321.5 3290.5,321.5C 3290.67,286.165 3290.5,250.832 3290,215.5C 3263.86,177.873 3238.36,139.873 3213.5,101.5 Z"/></g>
<g><path style="opacity:0.994" fill="#2a75ff" d="M 695.5,481.5 C 676.045,474.137 656.379,473.637 636.5,480C 601.276,499.77 566.609,520.27 532.5,541.5C 412.051,611.229 291.385,680.729 170.5,750C 149.116,761.065 136.616,778.565 133,802.5C 132.5,818.497 132.333,834.497 132.5,850.5C 132.5,901.833 132.5,953.167 132.5,1004.5C 87.9276,979.928 43.5942,954.928 -0.5,929.5C -0.5,860.5 -0.5,791.5 -0.5,722.5C 3.66638,702.674 13.9997,686.84 30.5,675C 188.671,584.414 347.004,494.08 505.5,404C 524.637,397.726 543.637,398.059 562.5,405C 607.222,430.021 651.556,455.521 695.5,481.5 Z"/></g>
<g><path style="opacity:0.981" fill="#21222e" d="M 4641.5,455.5 C 4642.5,455.414 4643.33,455.748 4644,456.5C 4719.58,603.99 4795.41,751.323 4871.5,898.5C 4834,898.833 4796.5,899.167 4759,899.5C 4719.14,899.646 4679.31,899.146 4639.5,898C 4624.88,894.71 4615.38,885.877 4611,871.5C 4607.53,862.913 4604.36,854.246 4601.5,845.5C 4658.84,845.833 4716.17,845.5 4773.5,844.5C 4730,760.167 4686.5,675.833 4643,591.5C 4589.66,693.52 4536.82,795.853 4484.5,898.5C 4460.84,899.666 4437.17,899.833 4413.5,899C 4489.65,751.192 4565.65,603.358 4641.5,455.5 Z"/></g>
<g><path style="opacity:0.976" fill="#21222e" d="M 1426.5,463.5 C 1547.5,463.167 1668.5,463.5 1789.5,464.5C 1785.54,477.552 1780.71,490.218 1775,502.5C 1768.79,509.689 1760.96,513.855 1751.5,515C 1660.5,515.5 1569.5,515.667 1478.5,515.5C 1478.5,562.167 1478.5,608.833 1478.5,655.5C 1581.5,655.5 1684.5,655.5 1787.5,655.5C 1787.5,672.833 1787.5,690.167 1787.5,707.5C 1684.5,707.5 1581.5,707.5 1478.5,707.5C 1478.5,754.167 1478.5,800.833 1478.5,847.5C 1581.5,847.5 1684.5,847.5 1787.5,847.5C 1787.5,864.833 1787.5,882.167 1787.5,899.5C 1667.17,899.5 1546.83,899.5 1426.5,899.5C 1426.5,754.167 1426.5,608.833 1426.5,463.5 Z"/></g>
<g><path style="opacity:0.983" fill="#21222e" d="M 1876.5,463.5 C 1998.5,463.5 2120.5,463.5 2242.5,463.5C 2242.5,482.167 2242.5,500.833 2242.5,519.5C 2191.17,519.5 2139.83,519.5 2088.5,519.5C 2088.5,646.167 2088.5,772.833 2088.5,899.5C 2069.17,899.5 2049.83,899.5 2030.5,899.5C 2030.5,772.833 2030.5,646.167 2030.5,519.5C 1979.17,519.5 1927.83,519.5 1876.5,519.5C 1876.5,500.833 1876.5,482.167 1876.5,463.5 Z"/></g>
<g><path style="opacity:0.988" fill="#21222e" d="M 2367.5,463.5 C 2385.83,463.5 2404.17,463.5 2422.5,463.5C 2422.5,525.833 2422.5,588.167 2422.5,650.5C 2508.83,650.5 2595.17,650.5 2681.5,650.5C 2681.5,588.167 2681.5,525.833 2681.5,463.5C 2699.83,463.5 2718.17,463.5 2736.5,463.5C 2736.5,608.833 2736.5,754.167 2736.5,899.5C 2718.17,899.5 2699.83,899.5 2681.5,899.5C 2681.5,834.5 2681.5,769.5 2681.5,704.5C 2595.17,704.5 2508.83,704.5 2422.5,704.5C 2422.5,769.5 2422.5,834.5 2422.5,899.5C 2404.17,899.5 2385.83,899.5 2367.5,899.5C 2367.5,754.167 2367.5,608.833 2367.5,463.5 Z"/></g>
<g><path style="opacity:0.981" fill="#21222e" d="M 2925.5,463.5 C 3046.5,463.333 3167.5,463.5 3288.5,464C 3284.81,474.075 3281.31,484.242 3278,494.5C 3272.76,506.543 3263.59,513.376 3250.5,515C 3159.17,515.5 3067.83,515.667 2976.5,515.5C 2976.5,562.167 2976.5,608.833 2976.5,655.5C 3079.83,655.5 3183.17,655.5 3286.5,655.5C 3286.5,672.833 3286.5,690.167 3286.5,707.5C 3183.17,707.5 3079.83,707.5 2976.5,707.5C 2976.5,754.167 2976.5,800.833 2976.5,847.5C 3079.83,847.5 3183.17,847.5 3286.5,847.5C 3286.5,864.833 3286.5,882.167 3286.5,899.5C 3166.17,899.5 3045.83,899.5 2925.5,899.5C 2925.5,754.167 2925.5,608.833 2925.5,463.5 Z"/></g>
<g><path style="opacity:0.982" fill="#21222e" d="M 3453.5,463.5 C 3538.83,463.333 3624.17,463.5 3709.5,464C 3755.55,469.435 3789.39,492.602 3811,533.5C 3827.66,572.683 3825.99,611.016 3806,648.5C 3783.37,685.073 3750.54,705.24 3707.5,709C 3689.83,709.333 3672.17,709.667 3654.5,710C 3709.38,772.927 3764.38,835.76 3819.5,898.5C 3794.51,899.666 3769.51,899.833 3744.5,899C 3689.54,835.704 3634.21,772.704 3578.5,710C 3553.17,709.5 3527.84,709.333 3502.5,709.5C 3502.5,772.833 3502.5,836.167 3502.5,899.5C 3483.5,899.5 3464.5,899.5 3445.5,899.5C 3445.5,817.5 3445.5,735.5 3445.5,653.5C 3532.17,653.667 3618.83,653.5 3705.5,653C 3742.77,646.071 3762.77,623.737 3765.5,586C 3762.2,548.361 3741.86,526.361 3704.5,520C 3632.83,519.667 3561.17,519.333 3489.5,519C 3480.38,517.028 3473.22,512.195 3468,504.5C 3462.47,491.075 3457.64,477.408 3453.5,463.5 Z"/></g>
<g><path style="opacity:0.975" fill="#21222e" d="M 3959.5,463.5 C 4080.5,463.167 4201.5,463.5 4322.5,464.5C 4318.49,477.025 4313.99,489.358 4309,501.5C 4302.93,509.786 4294.76,514.286 4284.5,515C 4193.5,515.5 4102.5,515.667 4011.5,515.5C 4011.5,562.167 4011.5,608.833 4011.5,655.5C 4114.83,655.5 4218.17,655.5 4321.5,655.5C 4321.5,672.833 4321.5,690.167 4321.5,707.5C 4218.17,707.5 4114.83,707.5 4011.5,707.5C 4011.5,754.167 4011.5,800.833 4011.5,847.5C 4114.83,847.5 4218.17,847.5 4321.5,847.5C 4321.5,864.833 4321.5,882.167 4321.5,899.5C 4200.83,899.5 4080.17,899.5 3959.5,899.5C 3959.5,754.167 3959.5,608.833 3959.5,463.5 Z"/></g>
<g><path style="opacity:0.983" fill="#21222e" d="M 5300.5,844.5 C 5300.5,862.833 5300.5,881.167 5300.5,899.5C 5195.83,899.5 5091.17,899.5 4986.5,899.5C 4986.5,754.167 4986.5,608.833 4986.5,463.5C 5005.17,463.5 5023.83,463.5 5042.5,463.5C 5042.5,590.5 5042.5,717.5 5042.5,844.5C 5128.5,844.5 5214.5,844.5 5300.5,844.5 Z"/></g>
<g><path style="opacity:0.994" fill="#2950ff" d="M 695.5,481.5 C 754.464,514.315 813.131,547.649 871.5,581.5C 814.113,600.405 756.447,618.739 698.5,636.5C 642.868,605.351 587.535,573.684 532.5,541.5C 566.609,520.27 601.276,499.77 636.5,480C 656.379,473.637 676.045,474.137 695.5,481.5 Z"/></g>
<g><path style="opacity:0.992" fill="#2e4dff" d="M 871.5,581.5 C 905.365,600.596 939.032,619.929 972.5,639.5C 915.113,658.406 857.446,676.739 799.5,694.5C 765.336,675.922 731.669,656.588 698.5,636.5C 756.447,618.739 814.113,600.405 871.5,581.5 Z"/></g>
<g><path style="opacity:0.992" fill="#3548ff" d="M 972.5,639.5 C 989.139,648.821 1005.81,658.155 1022.5,667.5C 964.834,686.61 906.834,704.943 848.5,722.5C 831.67,713.922 815.337,704.589 799.5,694.5C 857.446,676.739 915.113,658.406 972.5,639.5 Z"/></g>
<g><path style="opacity:0.992" fill="#3945ff" d="M 1022.5,667.5 C 1027.04,669.93 1031.37,672.597 1035.5,675.5C 977.833,694.167 920.167,712.833 862.5,731.5C 857.797,728.486 853.13,725.486 848.5,722.5C 906.834,704.943 964.834,686.61 1022.5,667.5 Z"/></g>
<g><path style="opacity:0.992" fill="#3c43ff" d="M 1035.5,675.5 C 1038.62,677.448 1041.62,679.615 1044.5,682C 1046.79,683.777 1048.46,685.944 1049.5,688.5C 993.637,706.565 937.637,724.232 881.5,741.5C 875.036,738.434 868.702,735.101 862.5,731.5C 920.167,712.833 977.833,694.167 1035.5,675.5 Z"/></g>
<g><path style="opacity:0.994" fill="#4040ff" d="M 1049.5,688.5 C 1053.24,691.91 1056.24,695.91 1058.5,700.5C 1050.33,705.42 1041.99,710.087 1033.5,714.5C 990.167,726.849 946.834,740.183 903.5,754.5C 895.829,750.667 888.496,746.334 881.5,741.5C 937.637,724.232 993.637,706.565 1049.5,688.5 Z"/></g>
<g><path style="opacity:0.992" fill="#03eaff" d="M 666.5,702.5 C 666.5,750.833 666.5,799.167 666.5,847.5C 659.671,851.749 652.671,855.749 645.5,859.5C 645.5,808.167 645.5,756.833 645.5,705.5C 652.276,702.425 659.276,701.425 666.5,702.5 Z"/></g>
<g><path style="opacity:0.996" fill="#2a75ff" d="M 1058.5,700.5 C 1063.03,708.934 1065.87,717.934 1067,727.5C 1067.83,767.837 1067.67,808.171 1066.5,848.5C 1029.63,869.432 992.634,890.099 955.5,910.5C 945.97,866.563 929.97,825.23 907.5,786.5C 915.5,781.5 923.5,776.5 931.5,771.5C 966.111,753.53 1000.11,734.53 1033.5,714.5C 1041.99,710.087 1050.33,705.42 1058.5,700.5 Z"/></g>
<g><path style="opacity:0.993" fill="#02f0ff" d="M 666.5,702.5 C 673.718,702.684 680.384,704.684 686.5,708.5C 686.5,750.833 686.5,793.167 686.5,835.5C 680.201,839.988 673.534,843.988 666.5,847.5C 666.5,799.167 666.5,750.833 666.5,702.5 Z"/></g>
<g><path style="opacity:0.992" fill="#05e3ff" d="M 645.5,705.5 C 645.5,756.833 645.5,808.167 645.5,859.5C 637.836,864.668 629.836,869.335 621.5,873.5C 621.5,822.167 621.5,770.833 621.5,719.5C 628.836,713.827 636.836,709.161 645.5,705.5 Z"/></g>
<g><path style="opacity:0.99" fill="#00f6ff" d="M 686.5,708.5 C 693.5,712.5 700.5,716.5 707.5,720.5C 707.5,754.833 707.5,789.167 707.5,823.5C 700.996,828.255 693.996,832.255 686.5,835.5C 686.5,793.167 686.5,750.833 686.5,708.5 Z"/></g>
<g><path style="opacity:0.978" fill="#00fafe" d="M 707.5,720.5 C 736.97,737.403 766.303,754.569 795.5,772C 766.276,789.442 736.942,806.609 707.5,823.5C 707.5,789.167 707.5,754.833 707.5,720.5 Z"/></g>
<g><path style="opacity:0.993" fill="#07ddff" d="M 621.5,719.5 C 621.5,770.833 621.5,822.167 621.5,873.5C 615.201,877.988 608.534,881.988 601.5,885.5C 601.5,833.833 601.5,782.167 601.5,730.5C 607.873,726.313 614.539,722.647 621.5,719.5 Z"/></g>
<g><path style="opacity:0.988" fill="#463cff" d="M 1033.5,714.5 C 1000.11,734.53 966.111,753.53 931.5,771.5C 922.167,765.833 912.833,760.167 903.5,754.5C 946.834,740.183 990.167,726.849 1033.5,714.5 Z"/></g>
<g><path style="opacity:0.992" fill="#08d7ff" d="M 601.5,730.5 C 601.5,782.167 601.5,833.833 601.5,885.5C 594.671,889.749 587.671,893.749 580.5,897.5C 580.5,846.167 580.5,794.833 580.5,743.5C 587.296,738.93 594.296,734.597 601.5,730.5 Z"/></g>
<g><path style="opacity:0.993" fill="#09d1ff" d="M 580.5,743.5 C 580.5,794.833 580.5,846.167 580.5,897.5C 574.43,901.868 567.764,905.202 560.5,907.5C 560.5,856.5 560.5,805.5 560.5,754.5C 566.873,750.313 573.539,746.647 580.5,743.5 Z"/></g>
<g><path style="opacity:0.993" fill="#0bcbff" d="M 560.5,754.5 C 560.5,805.5 560.5,856.5 560.5,907.5C 552.871,910.745 544.871,913.078 536.5,914.5C 536.5,865.833 536.5,817.167 536.5,768.5C 544.5,763.833 552.5,759.167 560.5,754.5 Z"/></g>
<g><path style="opacity:0.992" fill="#0dc4ff" d="M 536.5,768.5 C 536.5,817.167 536.5,865.833 536.5,914.5C 529.891,915.659 523.224,916.326 516.5,916.5C 516.5,871.167 516.5,825.833 516.5,780.5C 523.167,776.5 529.833,772.5 536.5,768.5 Z"/></g>
<g><path style="opacity:0.993" fill="#1d7fff" d="M 304.5,772.5 C 304.5,816.833 304.5,861.167 304.5,905.5C 296.483,909.862 288.483,914.195 280.5,918.5C 280.5,869.833 280.5,821.167 280.5,772.5C 288.5,771.167 296.5,771.167 304.5,772.5 Z"/></g>
<g><path style="opacity:0.993" fill="#1f79ff" d="M 280.5,772.5 C 280.5,821.167 280.5,869.833 280.5,918.5C 274.201,922.988 267.534,926.988 260.5,930.5C 260.5,879.5 260.5,828.5 260.5,777.5C 266.913,774.897 273.58,773.23 280.5,772.5 Z"/></g>
<g><path style="opacity:0.991" fill="#1c86ff" d="M 304.5,772.5 C 311.386,773.352 318.053,775.019 324.5,777.5C 324.5,816.167 324.5,854.833 324.5,893.5C 317.869,897.485 311.202,901.485 304.5,905.5C 304.5,861.167 304.5,816.833 304.5,772.5 Z"/></g>
<g><path style="opacity:0.992" fill="#2073ff" d="M 260.5,777.5 C 260.5,828.5 260.5,879.5 260.5,930.5C 253.671,934.749 246.671,938.749 239.5,942.5C 239.5,891.167 239.5,839.833 239.5,788.5C 246.27,784.396 253.27,780.73 260.5,777.5 Z"/></g>
<g><path style="opacity:0.989" fill="#1a8cff" d="M 324.5,777.5 C 332.024,780.757 339.024,784.757 345.5,789.5C 345.5,820.167 345.5,850.833 345.5,881.5C 338.663,885.753 331.663,889.753 324.5,893.5C 324.5,854.833 324.5,816.167 324.5,777.5 Z"/></g>
<g><path style="opacity:0.992" fill="#0ebeff" d="M 516.5,780.5 C 516.5,825.833 516.5,871.167 516.5,916.5C 509.401,916.659 502.401,915.992 495.5,914.5C 495.5,873.833 495.5,833.167 495.5,792.5C 502.5,788.5 509.5,784.5 516.5,780.5 Z"/></g>
<g><path style="opacity:0.992" fill="#2879ff" d="M 907.5,786.5 C 929.97,825.23 945.97,866.563 955.5,910.5C 950.167,913.5 944.833,916.5 939.5,919.5C 930.616,875.41 915.282,833.743 893.5,794.5C 897.833,791.331 902.5,788.664 907.5,786.5 Z"/></g>
<g><path style="opacity:0.993" fill="#226dff" d="M 239.5,788.5 C 239.5,839.833 239.5,891.167 239.5,942.5C 232.869,946.485 226.202,950.485 219.5,954.5C 219.5,903.167 219.5,851.833 219.5,800.5C 226.131,796.515 232.798,792.515 239.5,788.5 Z"/></g>
<g><path style="opacity:0.986" fill="#1992ff" d="M 345.5,789.5 C 352.996,792.745 359.996,796.745 366.5,801.5C 366.5,824.167 366.5,846.833 366.5,869.5C 359.663,873.753 352.663,877.753 345.5,881.5C 345.5,850.833 345.5,820.167 345.5,789.5 Z"/></g>
<g><path style="opacity:0.99" fill="#0fb8ff" d="M 495.5,792.5 C 495.5,833.167 495.5,873.833 495.5,914.5C 488.032,913.096 481.366,910.096 475.5,905.5C 475.5,871.833 475.5,838.167 475.5,804.5C 482.167,800.5 488.833,796.5 495.5,792.5 Z"/></g>
<g><path style="opacity:0.992" fill="#267fff" d="M 893.5,794.5 C 915.282,833.743 930.616,875.41 939.5,919.5C 933.5,922.833 927.5,926.167 921.5,929.5C 913.262,885.108 897.928,843.441 875.5,804.5C 881.17,800.663 887.17,797.33 893.5,794.5 Z"/></g>
<g><path style="opacity:0.992" fill="#2367ff" d="M 219.5,800.5 C 219.5,851.833 219.5,903.167 219.5,954.5C 211.5,959.167 203.5,963.833 195.5,968.5C 195.5,917.167 195.5,865.833 195.5,814.5C 203.164,809.332 211.164,804.665 219.5,800.5 Z"/></g>
<g><path style="opacity:0.981" fill="#1798ff" d="M 366.5,801.5 C 374.337,805.584 382.003,809.917 389.5,814.5C 389.5,830.5 389.5,846.5 389.5,862.5C 381.263,863.024 373.596,865.357 366.5,869.5C 366.5,846.833 366.5,824.167 366.5,801.5 Z"/></g>
<g><path style="opacity:0.987" fill="#11b2ff" d="M 475.5,804.5 C 475.5,838.167 475.5,871.833 475.5,905.5C 467.164,901.335 459.164,896.668 451.5,891.5C 451.5,865.833 451.5,840.167 451.5,814.5C 459.91,812.141 467.91,808.808 475.5,804.5 Z"/></g>
<g><path style="opacity:0.993" fill="#2486ff" d="M 875.5,804.5 C 897.928,843.441 913.262,885.108 921.5,929.5C 916.167,932.5 910.833,935.5 905.5,938.5C 897.782,894.01 883.115,852.01 861.5,812.5C 865.806,809.343 870.472,806.676 875.5,804.5 Z"/></g>
<g><path style="opacity:0.991" fill="#228cff" d="M 861.5,812.5 C 883.115,852.01 897.782,894.01 905.5,938.5C 900.167,941.5 894.833,944.5 889.5,947.5C 882.956,902.529 868.289,860.529 845.5,821.5C 850.502,817.997 855.835,814.997 861.5,812.5 Z"/></g>
<g><path style="opacity:0.992" fill="#2561ff" d="M 195.5,814.5 C 195.5,865.833 195.5,917.167 195.5,968.5C 190.833,971.167 186.167,973.833 181.5,976.5C 181.5,925.167 181.5,873.833 181.5,822.5C 185.833,819.331 190.5,816.664 195.5,814.5 Z"/></g>
<g><path style="opacity:0.98" fill="#169fff" d="M 389.5,814.5 C 396.151,817.564 403.151,819.231 410.5,819.5C 410.5,835.833 410.5,852.167 410.5,868.5C 403.931,865.107 396.931,863.107 389.5,862.5C 389.5,846.5 389.5,830.5 389.5,814.5 Z"/></g>
<g><path style="opacity:0.984" fill="#13abff" d="M 451.5,814.5 C 451.5,840.167 451.5,865.833 451.5,891.5C 444.365,887.765 437.365,883.765 430.5,879.5C 430.5,859.5 430.5,839.5 430.5,819.5C 437.586,818.216 444.586,816.549 451.5,814.5 Z"/></g>
<g><path style="opacity:0.979" fill="#14a5ff" d="M 410.5,819.5 C 417.114,820.055 423.781,820.055 430.5,819.5C 430.5,839.5 430.5,859.5 430.5,879.5C 424.154,875.326 417.488,871.659 410.5,868.5C 410.5,852.167 410.5,835.833 410.5,819.5 Z"/></g>
<g><path style="opacity:0.992" fill="#2092ff" d="M 845.5,821.5 C 868.289,860.529 882.956,902.529 889.5,947.5C 884.395,950.601 879.062,953.267 873.5,955.5C 867.281,910.844 853.281,868.844 831.5,829.5C 835.887,826.469 840.554,823.803 845.5,821.5 Z"/></g>
<g><path style="opacity:0.993" fill="#265eff" d="M 181.5,822.5 C 181.5,873.833 181.5,925.167 181.5,976.5C 179.004,977.58 176.67,978.914 174.5,980.5C 174.5,929.167 174.5,877.833 174.5,826.5C 176.663,824.917 178.996,823.584 181.5,822.5 Z"/></g>
<g><path style="opacity:0.993" fill="#265aff" d="M 174.5,826.5 C 174.5,877.833 174.5,929.167 174.5,980.5C 167.816,984.195 161.15,987.862 154.5,991.5C 154.5,940.167 154.5,888.833 154.5,837.5C 161.194,833.821 167.86,830.154 174.5,826.5 Z"/></g>
<g><path style="opacity:0.992" fill="#2096ff" d="M 831.5,829.5 C 853.281,868.844 867.281,910.844 873.5,955.5C 872.564,956.974 871.23,957.974 869.5,958.5C 863.885,913.324 849.885,870.99 827.5,831.5C 828.833,830.833 830.167,830.167 831.5,829.5 Z"/></g>
<g><path style="opacity:0.993" fill="#1e99ff" d="M 827.5,831.5 C 849.885,870.99 863.885,913.324 869.5,958.5C 864.659,961.421 859.659,964.088 854.5,966.5C 849.594,921.452 836.261,879.118 814.5,839.5C 818.63,836.597 822.963,833.93 827.5,831.5 Z"/></g>
<g><path style="opacity:0.992" fill="#2854ff" d="M 154.5,837.5 C 154.5,888.833 154.5,940.167 154.5,991.5C 147.532,996.322 140.199,1000.66 132.5,1004.5C 132.5,953.167 132.5,901.833 132.5,850.5C 139.833,846.167 147.167,841.833 154.5,837.5 Z"/></g>
<g><path style="opacity:0.992" fill="#1c9fff" d="M 814.5,839.5 C 836.261,879.118 849.594,921.452 854.5,966.5C 849.202,969.485 843.868,972.485 838.5,975.5C 834.776,930.001 821.442,887.667 798.5,848.5C 803.502,844.997 808.835,841.997 814.5,839.5 Z"/></g>
<g><path style="opacity:0.992" fill="#1aa5ff" d="M 798.5,848.5 C 821.442,887.667 834.776,930.001 838.5,975.5C 833.089,978.894 827.422,981.894 821.5,984.5C 819.294,938.885 806.961,896.218 784.5,856.5C 788.833,853.331 793.5,850.664 798.5,848.5 Z"/></g>
<g><path style="opacity:0.992" fill="#19abff" d="M 784.5,856.5 C 806.961,896.218 819.294,938.885 821.5,984.5C 816.498,988.003 811.165,991.003 805.5,993.5C 803.931,947.553 791.931,904.553 769.5,864.5C 774.368,861.566 779.368,858.9 784.5,856.5 Z"/></g>
<g><path style="opacity:0.992" fill="#17b1ff" d="M 769.5,864.5 C 791.931,904.553 803.931,947.553 805.5,993.5C 799.162,997.671 792.496,1001.34 785.5,1004.5C 785.767,958.233 774.767,914.9 752.5,874.5C 757.967,870.929 763.633,867.596 769.5,864.5 Z"/></g>
<g><path style="opacity:0.991" fill="#14b8ff" d="M 752.5,874.5 C 774.767,914.9 785.767,958.233 785.5,1004.5C 779.87,1008.65 773.87,1012.32 767.5,1015.5C 770.644,968.198 760.311,924.198 736.5,883.5C 741.798,880.515 747.132,877.515 752.5,874.5 Z"/></g>
<g><path style="opacity:0.992" fill="#13beff" d="M 736.5,883.5 C 760.311,924.198 770.644,968.198 767.5,1015.5C 761.5,1018.83 755.5,1022.17 749.5,1025.5C 754.602,978.012 745.602,933.346 722.5,891.5C 726.887,888.469 731.554,885.803 736.5,883.5 Z"/></g>
<g><path style="opacity:0.992" fill="#11c4ff" d="M 722.5,891.5 C 745.602,933.346 754.602,978.012 749.5,1025.5C 743.298,1029.1 736.964,1032.43 730.5,1035.5C 738.927,987.726 731.26,942.726 707.5,900.5C 712.216,897.137 717.216,894.137 722.5,891.5 Z"/></g>
<g><path style="opacity:0.992" fill="#0fcbff" d="M 707.5,900.5 C 731.26,942.726 738.927,987.726 730.5,1035.5C 723.031,1040.07 715.364,1044.4 707.5,1048.5C 719.974,999.957 714.307,953.624 690.5,909.5C 696.035,906.233 701.702,903.233 707.5,900.5 Z"/></g>
<g><path style="opacity:0.991" fill="#09ddff" d="M 442.5,907.5 C 400.548,955.051 393.548,1007.38 421.5,1064.5C 416.701,1067.74 411.701,1070.74 406.5,1073.5C 379.703,1020.83 381.369,969.162 411.5,918.5C 420.681,911.882 431.015,908.215 442.5,907.5 Z"/></g>
<g><path style="opacity:0.993" fill="#07e3ff" d="M 442.5,907.5 C 448.558,907.669 454.225,909.002 459.5,911.5C 421.765,947.104 410.598,989.771 426,1039.5C 428.574,1045.65 431.408,1051.65 434.5,1057.5C 430.423,1060.23 426.09,1062.56 421.5,1064.5C 393.548,1007.38 400.548,955.051 442.5,907.5 Z"/></g>
<g><path style="opacity:0.991" fill="#0dd1ff" d="M 690.5,909.5 C 714.307,953.624 719.974,999.957 707.5,1048.5C 701.292,1052.13 694.625,1054.8 687.5,1056.5C 703.251,1008.76 699.251,962.763 675.5,918.5C 680.299,915.263 685.299,912.263 690.5,909.5 Z"/></g>
<g><path style="opacity:0.994" fill="#06e6ff" d="M 459.5,911.5 C 461.921,911.878 464.254,912.545 466.5,913.5C 432.281,942.304 419.115,978.971 427,1023.5C 429.525,1034.59 433.691,1044.92 439.5,1054.5C 438.035,1055.74 436.368,1056.74 434.5,1057.5C 431.408,1051.65 428.574,1045.65 426,1039.5C 410.598,989.771 421.765,947.104 459.5,911.5 Z"/></g>
<g><path style="opacity:0.993" fill="#05eaff" d="M 466.5,913.5 C 472.192,916.009 477.526,919.009 482.5,922.5C 446.968,949.59 434.802,984.923 446,1028.5C 448.237,1034.64 450.737,1040.64 453.5,1046.5C 449.167,1049.67 444.5,1052.34 439.5,1054.5C 433.691,1044.92 429.525,1034.59 427,1023.5C 419.115,978.971 432.281,942.304 466.5,913.5 Z"/></g>
<g><path style="opacity:0.991" fill="#0bd7ff" d="M 411.5,918.5 C 381.369,969.162 379.703,1020.83 406.5,1073.5C 401.632,1076.43 396.632,1079.1 391.5,1081.5C 366.19,1033.22 363.857,983.884 384.5,933.5C 393.24,928.107 402.24,923.107 411.5,918.5 Z"/></g>
<g><path style="opacity:0.993" fill="#0bd7ff" d="M 675.5,918.5 C 699.251,962.763 703.251,1008.76 687.5,1056.5C 680.908,1057.82 674.242,1058.49 667.5,1058.5C 680.565,1027.06 683.065,994.727 675,961.5C 671.428,949.279 666.595,937.612 660.5,926.5C 665.368,923.566 670.368,920.9 675.5,918.5 Z"/></g>
<g><path style="opacity:0.991" fill="#03f0ff" d="M 482.5,922.5 C 488.367,925.596 494.033,928.929 499.5,932.5C 468.413,951.012 455.246,978.345 460,1014.5C 461.569,1022.95 464.735,1030.62 469.5,1037.5C 464.498,1041 459.165,1044 453.5,1046.5C 450.737,1040.64 448.237,1034.64 446,1028.5C 434.802,984.923 446.968,949.59 482.5,922.5 Z"/></g>
<g><path style="opacity:0.992" fill="#09ddff" d="M 660.5,926.5 C 666.595,937.612 671.428,949.279 675,961.5C 683.065,994.727 680.565,1027.06 667.5,1058.5C 661.41,1058.49 655.41,1057.82 649.5,1056.5C 666.252,1019.76 666.752,982.761 651,945.5C 649.408,941.979 647.575,938.646 645.5,935.5C 650.299,932.263 655.299,929.263 660.5,926.5 Z"/></g>
<g><path style="opacity:0.99" fill="#01f6ff" d="M 499.5,932.5 C 506.097,935.775 512.43,939.442 518.5,943.5C 491.659,952.499 477.325,971.166 475.5,999.5C 475.675,1010.2 478.342,1020.2 483.5,1029.5C 479.167,1032.67 474.5,1035.34 469.5,1037.5C 464.735,1030.62 461.569,1022.95 460,1014.5C 455.246,978.345 468.413,951.012 499.5,932.5 Z"/></g>
<g><path style="opacity:0.992" fill="#07e3ff" d="M 645.5,935.5 C 647.575,938.646 649.408,941.979 651,945.5C 666.752,982.761 666.252,1019.76 649.5,1056.5C 644.465,1055.6 639.799,1053.93 635.5,1051.5C 653.306,1014.94 652.639,978.603 633.5,942.5C 637.164,939.665 641.164,937.332 645.5,935.5 Z"/></g>
<g><path style="opacity:0.992" fill="#0dd1ff" d="M 384.5,933.5 C 363.857,983.884 366.19,1033.22 391.5,1081.5C 387.167,1084.67 382.5,1087.34 377.5,1089.5C 352.043,1044.17 346.709,996.501 361.5,946.5C 368.997,941.917 376.663,937.584 384.5,933.5 Z"/></g>
<g><path style="opacity:0.99" fill="#06e6ff" d="M 633.5,942.5 C 652.639,978.603 653.306,1014.94 635.5,1051.5C 633.447,1051.6 631.78,1050.93 630.5,1049.5C 643.547,1023.28 646.047,995.945 638,967.5C 635.644,959.791 632.478,952.458 628.5,945.5C 629.659,943.75 631.326,942.75 633.5,942.5 Z"/></g>
<g><path style="opacity:0.987" fill="#00fafe" d="M 518.5,943.5 C 527.415,948.79 536.748,953.29 546.5,957C 556.376,959.161 566.376,959.994 576.5,959.5C 592.363,978.824 595.696,1000.16 586.5,1023.5C 577.355,1018.09 568.021,1012.93 558.5,1008C 547.628,1002.62 536.628,1002.29 525.5,1007C 511.605,1014.78 497.605,1022.28 483.5,1029.5C 478.342,1020.2 475.675,1010.2 475.5,999.5C 477.325,971.166 491.659,952.499 518.5,943.5 Z"/></g>
<g><path style="opacity:0.99" fill="#05eaff" d="M 628.5,945.5 C 632.478,952.458 635.644,959.791 638,967.5C 646.047,995.945 643.547,1023.28 630.5,1049.5C 625.5,1047.34 620.833,1044.67 616.5,1041.5C 629.342,1011.37 628.342,981.703 613.5,952.5C 618.375,949.896 623.375,947.562 628.5,945.5 Z"/></g>
<g><path style="opacity:0.992" fill="#0fcbff" d="M 361.5,946.5 C 346.709,996.501 352.043,1044.17 377.5,1089.5C 371.83,1093.34 365.83,1096.67 359.5,1099.5C 335.313,1055.53 327.98,1008.87 337.5,959.5C 345.527,955.154 353.527,950.821 361.5,946.5 Z"/></g>
<g><path style="opacity:0.988" fill="#03f0ff" d="M 613.5,952.5 C 628.342,981.703 629.342,1011.37 616.5,1041.5C 611.299,1038.74 606.299,1035.74 601.5,1032.5C 612.143,1006.66 610.476,981.657 596.5,957.5C 602.196,955.992 607.862,954.325 613.5,952.5 Z"/></g>
<g><path style="opacity:0.987" fill="#01f6ff" d="M 596.5,957.5 C 610.476,981.657 612.143,1006.66 601.5,1032.5C 596.299,1029.74 591.299,1026.74 586.5,1023.5C 595.696,1000.16 592.363,978.824 576.5,959.5C 583.218,959.302 589.885,958.635 596.5,957.5 Z"/></g>
<g><path style="opacity:0.992" fill="#11c4ff" d="M 337.5,959.5 C 327.98,1008.87 335.313,1055.53 359.5,1099.5C 355.167,1102.67 350.5,1105.34 345.5,1107.5C 321.006,1065.03 312.006,1019.36 318.5,970.5C 324.997,967.086 331.33,963.419 337.5,959.5 Z"/></g>
<g><path style="opacity:0.992" fill="#13beff" d="M 318.5,970.5 C 312.006,1019.36 321.006,1065.03 345.5,1107.5C 340.701,1110.74 335.701,1113.74 330.5,1116.5C 306.797,1074.67 296.464,1029.67 299.5,981.5C 305.634,977.596 311.968,973.929 318.5,970.5 Z"/></g>
<g><path style="opacity:0.992" fill="#14b8ff" d="M 299.5,981.5 C 296.464,1029.67 306.797,1074.67 330.5,1116.5C 325.632,1119.43 320.632,1122.1 315.5,1124.5C 291.662,1083.15 280.662,1038.48 282.5,990.5C 288.035,987.233 293.702,984.233 299.5,981.5 Z"/></g>
<g><path style="opacity:0.992" fill="#17b1ff" d="M 282.5,990.5 C 280.662,1038.48 291.662,1083.15 315.5,1124.5C 309.83,1128.34 303.83,1131.67 297.5,1134.5C 274.593,1093.54 262.926,1049.54 262.5,1002.5C 269.131,998.515 275.798,994.515 282.5,990.5 Z"/></g>
<g><path style="opacity:0.993" fill="#2073ff" d="M 937.5,1000.5 C 937.5,1049.83 937.5,1099.17 937.5,1148.5C 935.81,1148.86 934.81,1149.86 934.5,1151.5C 927.369,1154.9 920.369,1158.57 913.5,1162.5C 913.5,1112.17 913.5,1061.83 913.5,1011.5C 920.806,1007.51 928.14,1003.51 935.5,999.5C 936.183,999.863 936.85,1000.2 937.5,1000.5 Z"/></g>
<g><path style="opacity:0.995" fill="#226dff" d="M 937.5,1000.5 C 946.035,1005.26 954.368,1010.26 962.5,1015.5C 962.5,1055.17 962.5,1094.83 962.5,1134.5C 954.328,1139.42 945.995,1144.09 937.5,1148.5C 937.5,1099.17 937.5,1049.83 937.5,1000.5 Z"/></g>
<g><path style="opacity:0.993" fill="#19abff" d="M 262.5,1002.5 C 262.926,1049.54 274.593,1093.54 297.5,1134.5C 293.167,1137.67 288.5,1140.34 283.5,1142.5C 259.941,1102.14 247.275,1058.47 245.5,1011.5C 251.035,1008.23 256.702,1005.23 262.5,1002.5 Z"/></g>
<g><path style="opacity:0.992" fill="#1aa5ff" d="M 245.5,1011.5 C 247.275,1058.47 259.941,1102.14 283.5,1142.5C 278.701,1145.74 273.701,1148.74 268.5,1151.5C 245.585,1111.19 232.251,1067.85 228.5,1021.5C 233.967,1017.93 239.633,1014.6 245.5,1011.5 Z"/></g>
<g><path style="opacity:0.992" fill="#2077ff" d="M 913.5,1011.5 C 913.5,1061.83 913.5,1112.17 913.5,1162.5C 911.365,1164.07 909.032,1165.4 906.5,1166.5C 906.5,1116.17 906.5,1065.83 906.5,1015.5C 908.996,1014.42 911.33,1013.09 913.5,1011.5 Z"/></g>
<g><path style="opacity:0.992" fill="#1f7aff" d="M 906.5,1015.5 C 906.5,1065.83 906.5,1116.17 906.5,1166.5C 900.965,1169.77 895.298,1172.77 889.5,1175.5C 889.5,1125.5 889.5,1075.5 889.5,1025.5C 894.967,1021.93 900.633,1018.6 906.5,1015.5 Z"/></g>
<g><path style="opacity:0.994" fill="#2367ff" d="M 962.5,1015.5 C 972.431,1020.78 982.098,1026.44 991.5,1032.5C 991.5,1061.17 991.5,1089.83 991.5,1118.5C 981.994,1124.09 972.327,1129.42 962.5,1134.5C 962.5,1094.83 962.5,1055.17 962.5,1015.5 Z"/></g>
<g><path style="opacity:0.992" fill="#1c9fff" d="M 228.5,1021.5 C 232.251,1067.85 245.585,1111.19 268.5,1151.5C 263.659,1154.42 258.659,1157.09 253.5,1159.5C 230.736,1119.46 217.07,1076.46 212.5,1030.5C 217.474,1027.01 222.808,1024.01 228.5,1021.5 Z"/></g>
<g><path style="opacity:0.993" fill="#1d7fff" d="M 889.5,1025.5 C 889.5,1075.5 889.5,1125.5 889.5,1175.5C 880.323,1181.59 870.657,1186.92 860.5,1191.5C 860.5,1141.5 860.5,1091.5 860.5,1041.5C 870.033,1035.9 879.7,1030.57 889.5,1025.5 Z"/></g>
<g><path style="opacity:0.992" fill="#1e99ff" d="M 212.5,1030.5 C 217.07,1076.46 230.736,1119.46 253.5,1159.5C 249.113,1162.53 244.446,1165.2 239.5,1167.5C 217.1,1127.3 203.1,1084.3 197.5,1038.5C 202.5,1035.83 207.5,1033.17 212.5,1030.5 Z"/></g>
<g><path style="opacity:0.993" fill="#2560ff" d="M 991.5,1032.5 C 999.968,1036.9 1008.3,1041.57 1016.5,1046.5C 1016.5,1065.83 1016.5,1085.17 1016.5,1104.5C 1008.33,1109.42 999.995,1114.09 991.5,1118.5C 991.5,1089.83 991.5,1061.17 991.5,1032.5 Z"/></g>
<g><path style="opacity:0.992" fill="#2096ff" d="M 197.5,1038.5 C 203.1,1084.3 217.1,1127.3 239.5,1167.5C 238.395,1168.6 237.062,1169.27 235.5,1169.5C 213.307,1129.59 199.307,1086.92 193.5,1041.5C 194.795,1040.51 196.128,1039.51 197.5,1038.5 Z"/></g>
<g><path style="opacity:0.993" fill="#2092ff" d="M 193.5,1041.5 C 199.307,1086.92 213.307,1129.59 235.5,1169.5C 231.194,1172.66 226.528,1175.32 221.5,1177.5C 198.902,1138.04 184.236,1095.71 177.5,1050.5C 182.502,1047 187.835,1044 193.5,1041.5 Z"/></g>
<g><path style="opacity:0.993" fill="#1c86ff" d="M 860.5,1041.5 C 860.5,1091.5 860.5,1141.5 860.5,1191.5C 852.897,1196.14 844.564,1198.81 835.5,1199.5C 835.5,1151.5 835.5,1103.5 835.5,1055.5C 843.833,1050.83 852.167,1046.17 860.5,1041.5 Z"/></g>
<g><path style="opacity:0.986" fill="#265aff" d="M 1016.5,1046.5 C 1024.5,1051.17 1032.5,1055.83 1040.5,1060.5C 1040.67,1070.84 1040.5,1081.17 1040,1091.5C 1032.25,1095.96 1024.42,1100.29 1016.5,1104.5C 1016.5,1085.17 1016.5,1065.83 1016.5,1046.5 Z"/></g>
<g><path style="opacity:0.994" fill="#0dc4ff" d="M 605.5,1049.5 C 605.5,1096.17 605.5,1142.83 605.5,1189.5C 597.535,1194.15 589.535,1198.82 581.5,1203.5C 581.5,1152.5 581.5,1101.5 581.5,1050.5C 589.454,1048.36 597.454,1048.03 605.5,1049.5 Z"/></g>
<g><path style="opacity:0.991" fill="#0ebeff" d="M 605.5,1049.5 C 614.478,1051.83 622.811,1055.49 630.5,1060.5C 630.5,1098.83 630.5,1137.17 630.5,1175.5C 622.167,1180.17 613.833,1184.83 605.5,1189.5C 605.5,1142.83 605.5,1096.17 605.5,1049.5 Z"/></g>
<g><path style="opacity:0.992" fill="#228cff" d="M 177.5,1050.5 C 184.236,1095.71 198.902,1138.04 221.5,1177.5C 216.701,1180.74 211.701,1183.74 206.5,1186.5C 183.777,1147 168.777,1104.67 161.5,1059.5C 166.502,1056 171.835,1053 177.5,1050.5 Z"/></g>
<g><path style="opacity:0.992" fill="#0bcbff" d="M 581.5,1050.5 C 581.5,1101.5 581.5,1152.5 581.5,1203.5C 571.669,1208.91 562.002,1214.58 552.5,1220.5C 552.5,1169.17 552.5,1117.83 552.5,1066.5C 561.681,1060.41 571.348,1055.07 581.5,1050.5 Z"/></g>
<g><path style="opacity:0.993" fill="#1a8cff" d="M 835.5,1055.5 C 835.5,1103.5 835.5,1151.5 835.5,1199.5C 827.167,1200.83 818.833,1200.83 810.5,1199.5C 810.5,1156.17 810.5,1112.83 810.5,1069.5C 818.995,1065.09 827.328,1060.42 835.5,1055.5 Z"/></g>
<g><path style="opacity:0.992" fill="#2486ff" d="M 161.5,1059.5 C 168.777,1104.67 183.777,1147 206.5,1186.5C 201.5,1189.17 196.5,1191.83 191.5,1194.5C 168.875,1155.23 153.541,1113.23 145.5,1068.5C 150.502,1065 155.835,1062 161.5,1059.5 Z"/></g>
<g><path style="opacity:0.988" fill="#0fb8ff" d="M 630.5,1060.5 C 638.833,1065.17 647.167,1069.83 655.5,1074.5C 655.5,1103.17 655.5,1131.83 655.5,1160.5C 647.368,1165.74 639.035,1170.74 630.5,1175.5C 630.5,1137.17 630.5,1098.83 630.5,1060.5 Z"/></g>
<g><path style="opacity:0.993" fill="#09d1ff" d="M 552.5,1066.5 C 552.5,1117.83 552.5,1169.17 552.5,1220.5C 544.483,1224.86 536.483,1229.2 528.5,1233.5C 528.5,1182.5 528.5,1131.5 528.5,1080.5C 536.164,1075.33 544.164,1070.67 552.5,1066.5 Z"/></g>
<g><path style="opacity:0.992" fill="#267fff" d="M 145.5,1068.5 C 153.541,1113.23 168.875,1155.23 191.5,1194.5C 185.76,1198.23 179.76,1201.56 173.5,1204.5C 151.642,1164.93 136.309,1122.93 127.5,1078.5C 133.17,1074.66 139.17,1071.33 145.5,1068.5 Z"/></g>
<g><path style="opacity:0.991" fill="#1992ff" d="M 810.5,1069.5 C 810.5,1112.83 810.5,1156.17 810.5,1199.5C 802.135,1198.38 794.135,1196.04 786.5,1192.5C 786.5,1156.17 786.5,1119.83 786.5,1083.5C 794.465,1078.85 802.465,1074.18 810.5,1069.5 Z"/></g>
<g><path style="opacity:0.984" fill="#11b2ff" d="M 655.5,1074.5 C 664.869,1080.18 674.203,1085.85 683.5,1091.5C 683.5,1109.83 683.5,1128.17 683.5,1146.5C 673.919,1150.62 664.586,1155.29 655.5,1160.5C 655.5,1131.83 655.5,1103.17 655.5,1074.5 Z"/></g>
<g><path style="opacity:0.995" fill="#2851ff" d="M 1040.5,1060.5 C 1049.45,1065.61 1058.28,1070.94 1067,1076.5C 1067.5,1101.83 1067.67,1127.16 1067.5,1152.5C 1023.25,1178.43 978.921,1203.43 934.5,1227.5C 934.5,1202.17 934.5,1176.83 934.5,1151.5C 934.81,1149.86 935.81,1148.86 937.5,1148.5C 945.995,1144.09 954.328,1139.42 962.5,1134.5C 972.327,1129.42 981.994,1124.09 991.5,1118.5C 999.995,1114.09 1008.33,1109.42 1016.5,1104.5C 1024.42,1100.29 1032.25,1095.96 1040,1091.5C 1040.5,1081.17 1040.67,1070.84 1040.5,1060.5 Z"/></g>
<g><path style="opacity:0.993" fill="#2879ff" d="M 127.5,1078.5 C 136.309,1122.93 151.642,1164.93 173.5,1204.5C 169.113,1207.53 164.446,1210.2 159.5,1212.5C 137.116,1173.38 121.116,1131.71 111.5,1087.5C 116.798,1084.52 122.132,1081.52 127.5,1078.5 Z"/></g>
<g><path style="opacity:0.992" fill="#08d7ff" d="M 528.5,1080.5 C 528.5,1131.5 528.5,1182.5 528.5,1233.5C 520.451,1238.86 512.118,1243.86 503.5,1248.5C 503.5,1197.17 503.5,1145.83 503.5,1094.5C 511.699,1089.57 520.032,1084.9 528.5,1080.5 Z"/></g>
<g><path style="opacity:0.987" fill="#1798ff" d="M 786.5,1083.5 C 786.5,1119.83 786.5,1156.17 786.5,1192.5C 776.669,1187.09 767.002,1181.42 757.5,1175.5C 757.5,1149.17 757.5,1122.83 757.5,1096.5C 767.483,1093.01 777.15,1088.68 786.5,1083.5 Z"/></g>
<g><path style="opacity:0.996" fill="#2a75ff" d="M 111.5,1087.5 C 121.116,1131.71 137.116,1173.38 159.5,1212.5C 150.869,1217.48 142.202,1222.48 133.5,1227.5C 91.5272,1250.82 49.5272,1274.15 7.5,1297.5C 3.84723,1291.2 1.18056,1284.54 -0.5,1277.5C -0.5,1235.17 -0.5,1192.83 -0.5,1150.5C 36.8333,1129.5 74.1667,1108.5 111.5,1087.5 Z"/></g>
<g><path style="opacity:0.976" fill="#21222e" d="M 1426.5,1087.5 C 1547.5,1087.17 1668.5,1087.5 1789.5,1088.5C 1785.9,1098.8 1782.4,1109.13 1779,1119.5C 1773.86,1130.97 1765.03,1137.47 1752.5,1139C 1661.17,1139.5 1569.83,1139.67 1478.5,1139.5C 1478.5,1186.17 1478.5,1232.83 1478.5,1279.5C 1581.5,1279.5 1684.5,1279.5 1787.5,1279.5C 1787.5,1296.83 1787.5,1314.17 1787.5,1331.5C 1684.5,1331.5 1581.5,1331.5 1478.5,1331.5C 1478.5,1378.17 1478.5,1424.83 1478.5,1471.5C 1581.5,1471.5 1684.5,1471.5 1787.5,1471.5C 1787.5,1488.83 1787.5,1506.17 1787.5,1523.5C 1667.17,1523.5 1546.83,1523.5 1426.5,1523.5C 1426.5,1378.17 1426.5,1232.83 1426.5,1087.5 Z"/></g>
<g><path style="opacity:0.981" fill="#21222e" d="M 1965.5,1087.5 C 1983.17,1087.33 2000.84,1087.5 2018.5,1088C 2111.31,1203.77 2204.47,1319.27 2298,1434.5C 2298.5,1318.83 2298.67,1203.17 2298.5,1087.5C 2317.17,1087.5 2335.83,1087.5 2354.5,1087.5C 2354.5,1232.5 2354.5,1377.5 2354.5,1522.5C 2336.83,1522.67 2319.16,1522.5 2301.5,1522C 2208.33,1406.83 2115.17,1291.67 2022,1176.5C 2021.5,1291.83 2021.33,1407.17 2021.5,1522.5C 2002.83,1522.5 1984.17,1522.5 1965.5,1522.5C 1965.5,1377.5 1965.5,1232.5 1965.5,1087.5 Z"/></g>
<g><path style="opacity:0.988" fill="#21222e" d="M 2650.5,1087.5 C 2735.5,1087.17 2820.5,1087.5 2905.5,1088.5C 2900.77,1101.87 2895.93,1115.2 2891,1128.5C 2885.78,1136.19 2878.62,1141.03 2869.5,1143C 2795.47,1143.02 2721.47,1143.69 2647.5,1145C 2618.97,1152.19 2601.14,1170.03 2594,1198.5C 2592.37,1266.48 2592.03,1334.48 2593,1402.5C 2595.63,1432.24 2610.79,1452.74 2638.5,1464C 2642.72,1465.47 2647.06,1466.47 2651.5,1467C 2719.83,1467.5 2788.17,1467.67 2856.5,1467.5C 2856.5,1404.17 2856.5,1340.83 2856.5,1277.5C 2875.17,1277.5 2893.83,1277.5 2912.5,1277.5C 2912.5,1359.5 2912.5,1441.5 2912.5,1523.5C 2821.14,1523.98 2729.81,1523.48 2638.5,1522C 2594.95,1512.8 2563.79,1487.96 2545,1447.5C 2540.76,1436.53 2538.09,1425.2 2537,1413.5C 2536.33,1341.5 2536.33,1269.5 2537,1197.5C 2543.71,1150.59 2568.54,1117.09 2611.5,1097C 2624.21,1092.07 2637.21,1088.9 2650.5,1087.5 Z"/></g>
<g><path style="opacity:0.985" fill="#21222e" d="M 3112.5,1087.5 C 3131.5,1087.5 3150.5,1087.5 3169.5,1087.5C 3169.5,1232.83 3169.5,1378.17 3169.5,1523.5C 3150.5,1523.5 3131.5,1523.5 3112.5,1523.5C 3112.5,1378.17 3112.5,1232.83 3112.5,1087.5 Z"/></g>
<g><path style="opacity:0.987" fill="#21222e" d="M 3371.5,1087.5 C 3389.18,1087.17 3406.85,1087.5 3424.5,1088.5C 3517.86,1204.02 3611.02,1319.69 3704,1435.5C 3704.5,1319.5 3704.67,1203.5 3704.5,1087.5C 3722.83,1087.5 3741.17,1087.5 3759.5,1087.5C 3759.5,1232.5 3759.5,1377.5 3759.5,1522.5C 3742.16,1522.67 3724.83,1522.5 3707.5,1522C 3614.33,1406.83 3521.17,1291.67 3428,1176.5C 3427.5,1291.83 3427.33,1407.17 3427.5,1522.5C 3408.83,1522.5 3390.17,1522.5 3371.5,1522.5C 3371.5,1377.5 3371.5,1232.5 3371.5,1087.5 Z"/></g>
<g><path style="opacity:0.975" fill="#21222e" d="M 3959.5,1087.5 C 4080.5,1087.5 4201.5,1087.5 4322.5,1087.5C 4319.09,1100.55 4314.59,1113.21 4309,1125.5C 4303.11,1133.39 4295.28,1137.89 4285.5,1139C 4194.17,1139.5 4102.83,1139.67 4011.5,1139.5C 4011.5,1186.17 4011.5,1232.83 4011.5,1279.5C 4114.83,1279.5 4218.17,1279.5 4321.5,1279.5C 4321.5,1296.83 4321.5,1314.17 4321.5,1331.5C 4218.17,1331.5 4114.83,1331.5 4011.5,1331.5C 4011.5,1378.17 4011.5,1424.83 4011.5,1471.5C 4114.83,1471.5 4218.17,1471.5 4321.5,1471.5C 4321.5,1488.83 4321.5,1506.17 4321.5,1523.5C 4200.83,1523.5 4080.17,1523.5 3959.5,1523.5C 3959.5,1378.17 3959.5,1232.83 3959.5,1087.5 Z"/></g>
<g><path style="opacity:0.979" fill="#13abff" d="M 683.5,1091.5 C 691.288,1095.88 699.622,1098.88 708.5,1100.5C 708.5,1116.17 708.5,1131.83 708.5,1147.5C 700.256,1145.3 691.922,1144.96 683.5,1146.5C 683.5,1128.17 683.5,1109.83 683.5,1091.5 Z"/></g>
<g><path style="opacity:0.992" fill="#06ddff" d="M 503.5,1094.5 C 503.5,1145.83 503.5,1197.17 503.5,1248.5C 495.301,1253.43 486.968,1258.1 478.5,1262.5C 478.5,1211.5 478.5,1160.5 478.5,1109.5C 486.549,1104.14 494.882,1099.14 503.5,1094.5 Z"/></g>
<g><path style="opacity:0.985" fill="#169fff" d="M 757.5,1096.5 C 757.5,1122.83 757.5,1149.17 757.5,1175.5C 749.127,1170.99 741.127,1165.99 733.5,1160.5C 733.5,1140.5 733.5,1120.5 733.5,1100.5C 741.569,1099.55 749.569,1098.22 757.5,1096.5 Z"/></g>
<g><path style="opacity:0.983" fill="#14a5ff" d="M 708.5,1100.5 C 716.84,1101.71 725.173,1101.71 733.5,1100.5C 733.5,1120.5 733.5,1140.5 733.5,1160.5C 725.319,1155.91 716.986,1151.58 708.5,1147.5C 708.5,1131.83 708.5,1116.17 708.5,1100.5 Z"/></g>
<g><path style="opacity:0.992" fill="#05e3ff" d="M 478.5,1109.5 C 478.5,1160.5 478.5,1211.5 478.5,1262.5C 469.5,1268.34 460.167,1273.67 450.5,1278.5C 450.5,1227.5 450.5,1176.5 450.5,1125.5C 459.5,1119.66 468.833,1114.33 478.5,1109.5 Z"/></g>
<g><path style="opacity:0.992" fill="#03eaff" d="M 450.5,1125.5 C 450.5,1176.5 450.5,1227.5 450.5,1278.5C 442.451,1283.86 434.118,1288.86 425.5,1293.5C 425.5,1242.17 425.5,1190.83 425.5,1139.5C 433.699,1134.57 442.032,1129.9 450.5,1125.5 Z"/></g>
<g><path style="opacity:0.992" fill="#02f0ff" d="M 425.5,1139.5 C 425.5,1190.83 425.5,1242.17 425.5,1293.5C 418.276,1298.35 410.276,1301.02 401.5,1301.5C 401.5,1252.17 401.5,1202.83 401.5,1153.5C 409.465,1148.85 417.465,1144.18 425.5,1139.5 Z"/></g>
<g><path style="opacity:0.992" fill="#00f6ff" d="M 401.5,1153.5 C 401.5,1202.83 401.5,1252.17 401.5,1301.5C 392.442,1301.49 384.109,1299.15 376.5,1294.5C 376.5,1252.17 376.5,1209.83 376.5,1167.5C 384.833,1162.83 393.167,1158.17 401.5,1153.5 Z"/></g>
<g><path style="opacity:0.997" fill="#2a75ff" d="M 1067.5,1152.5 C 1067.96,1194.53 1067.46,1236.53 1066,1278.5C 1061.09,1299.85 1049.26,1316.01 1030.5,1327C 873.833,1416.33 717.167,1505.67 560.5,1595C 555.423,1596.68 550.423,1598.18 545.5,1599.5C 537.167,1599.5 528.833,1599.5 520.5,1599.5C 511.848,1597.52 503.515,1594.35 495.5,1590C 453.443,1566.31 411.776,1542.14 370.5,1517.5C 393.194,1527.39 415.527,1526.56 437.5,1515C 457.387,1502.94 477.387,1491.11 497.5,1479.5C 509.451,1472.86 521.118,1465.86 532.5,1458.5C 666.174,1380.99 800.174,1303.99 934.5,1227.5C 978.921,1203.43 1023.25,1178.43 1067.5,1152.5 Z"/></g>
<g><path style="opacity:0.982" fill="#00fafe" d="M 376.5,1167.5 C 376.5,1209.83 376.5,1252.17 376.5,1294.5C 340.031,1273.76 303.697,1252.76 267.5,1231.5C 303.661,1209.92 339.994,1188.58 376.5,1167.5 Z"/></g>
<g><path style="opacity:0.993" fill="#2950ff" d="M 133.5,1227.5 C 200.167,1266.17 266.833,1304.83 333.5,1343.5C 272.222,1359.7 210.889,1375.7 149.5,1391.5C 110.527,1369.35 71.5273,1347.18 32.5,1325C 21.8351,1317.84 13.5017,1308.67 7.5,1297.5C 49.5272,1274.15 91.5272,1250.82 133.5,1227.5 Z"/></g>
<g><path style="opacity:0.992" fill="#2e4dff" d="M 333.5,1343.5 C 367.862,1362.68 401.862,1382.34 435.5,1402.5C 374.279,1418.05 313.279,1434.05 252.5,1450.5C 217.968,1431.07 183.635,1411.4 149.5,1391.5C 210.889,1375.7 272.222,1359.7 333.5,1343.5 Z"/></g>
<g><path style="opacity:0.992" fill="#3548ff" d="M 435.5,1402.5 C 452.004,1411.58 468.337,1420.92 484.5,1430.5C 423.85,1446.5 363.183,1462.5 302.5,1478.5C 285.537,1469.69 268.871,1460.35 252.5,1450.5C 313.279,1434.05 374.279,1418.05 435.5,1402.5 Z"/></g>
<g><path style="opacity:0.992" fill="#3945ff" d="M 484.5,1430.5 C 489.372,1432.43 493.705,1435.1 497.5,1438.5C 437.21,1454.66 376.877,1470.66 316.5,1486.5C 311.5,1484.34 306.833,1481.67 302.5,1478.5C 363.183,1462.5 423.85,1446.5 484.5,1430.5 Z"/></g>
<g><path style="opacity:0.992" fill="#3c43ff" d="M 497.5,1438.5 C 504.496,1441.66 511.162,1445.33 517.5,1449.5C 457.466,1465.29 397.466,1481.29 337.5,1497.5C 337.863,1498.18 338.196,1498.85 338.5,1499.5C 330.829,1495.67 323.496,1491.33 316.5,1486.5C 376.877,1470.66 437.21,1454.66 497.5,1438.5 Z"/></g>
<g><path style="opacity:0.997" fill="#4140ff" d="M 517.5,1449.5 C 522.701,1452.26 527.701,1455.26 532.5,1458.5C 521.118,1465.86 509.451,1472.86 497.5,1479.5C 497.083,1478.88 496.416,1478.54 495.5,1478.5C 451.862,1490.1 408.195,1501.6 364.5,1513C 365.381,1513.71 366.047,1514.54 366.5,1515.5C 356.833,1510.67 347.5,1505.34 338.5,1499.5C 338.196,1498.85 337.863,1498.18 337.5,1497.5C 397.466,1481.29 457.466,1465.29 517.5,1449.5 Z"/></g>
<g><path style="opacity:1" fill="#473cff" d="M 497.5,1479.5 C 477.387,1491.11 457.387,1502.94 437.5,1515C 415.527,1526.56 393.194,1527.39 370.5,1517.5C 368.847,1517.34 367.514,1516.67 366.5,1515.5C 366.047,1514.54 365.381,1513.71 364.5,1513C 408.195,1501.6 451.862,1490.1 495.5,1478.5C 496.416,1478.54 497.083,1478.88 497.5,1479.5 Z"/></g>
</svg>
