<svg width="52" height="60" viewBox="0 0 52 60" fill="none" xmlns="http://www.w3.org/2000/svg">
<g filter="url(#filter0_dii)">
<path fill-rule="evenodd" clip-rule="evenodd" d="M40.2887 37.2339L26.5 51L12.7113 37.2339C5.09618 29.6312 5.09623 17.3047 12.7114 9.70203C20.3267 2.09932 32.6733 2.09932 40.2886 9.70203C47.9038 17.3047 47.9038 29.6312 40.2887 37.2339ZM26.5 27.7941C28.8932 27.7941 30.8333 25.8572 30.8333 23.4679C30.8333 21.0786 28.8932 19.1416 26.5 19.1416C24.1068 19.1416 22.1667 21.0786 22.1667 23.4679C22.1667 25.8572 24.1068 27.7941 26.5 27.7941Z" fill="url(#paint0_linear)"/>
</g>
<defs>
<filter id="filter0_dii" x="1" y="1" width="51" height="59" filterUnits="userSpaceOnUse" color-interpolation-filters="sRGB">
<feFlood flood-opacity="0" result="BackgroundImageFix"/>
<feColorMatrix in="SourceAlpha" type="matrix" values="0 0 0 0 0 0 0 0 0 0 0 0 0 0 0 0 0 0 127 0" result="hardAlpha"/>
<feOffset dy="3"/>
<feGaussianBlur stdDeviation="3"/>
<feColorMatrix type="matrix" values="0 0 0 0 0.117393 0 0 0 0 0.639153 0 0 0 0 0.26562 0 0 0 0.552174 0"/>
<feBlend mode="normal" in2="BackgroundImageFix" result="effect1_dropShadow"/>
<feBlend mode="normal" in="SourceGraphic" in2="effect1_dropShadow" result="shape"/>
<feColorMatrix in="SourceAlpha" type="matrix" values="0 0 0 0 0 0 0 0 0 0 0 0 0 0 0 0 0 0 127 0" result="hardAlpha"/>
<feOffset dy="-2"/>
<feGaussianBlur stdDeviation="2.5"/>
<feComposite in2="hardAlpha" operator="arithmetic" k2="-1" k3="1"/>
<feColorMatrix type="matrix" values="0 0 0 0 0.219608 0 0 0 0 0.87451 0 0 0 0 0.403922 0 0 0 0.686899 0"/>
<feBlend mode="normal" in2="shape" result="effect2_innerShadow"/>
<feColorMatrix in="SourceAlpha" type="matrix" values="0 0 0 0 0 0 0 0 0 0 0 0 0 0 0 0 0 0 127 0" result="hardAlpha"/>
<feOffset/>
<feGaussianBlur stdDeviation="1.5"/>
<feComposite in2="hardAlpha" operator="arithmetic" k2="-1" k3="1"/>
<feColorMatrix type="matrix" values="0 0 0 0 1 0 0 0 0 1 0 0 0 0 1 0 0 0 1 0"/>
<feBlend mode="normal" in2="effect2_innerShadow" result="effect3_innerShadow"/>
</filter>
<linearGradient id="paint0_linear" x1="7" y1="4" x2="7" y2="51" gradientUnits="userSpaceOnUse">
<stop stop-color="#FDFDFF"/>
<stop offset="1" stop-color="#D9ECFF"/>
</linearGradient>
</defs>
</svg>
