<?xml version="1.0" encoding="UTF-8" standalone="no"?>
<svg
   xmlns:dc="http://purl.org/dc/elements/1.1/"
   xmlns:cc="http://creativecommons.org/ns#"
   xmlns:rdf="http://www.w3.org/1999/02/22-rdf-syntax-ns#"
   xmlns:svg="http://www.w3.org/2000/svg"
   xmlns="http://www.w3.org/2000/svg"
   xmlns:sodipodi="http://sodipodi.sourceforge.net/DTD/sodipodi-0.dtd"
   xmlns:inkscape="http://www.inkscape.org/namespaces/inkscape"
   sodipodi:docname="beakers.svg"
   inkscape:version="1.0 (6e3e5246a0, 2020-05-07)"
   id="svg22185"
   version="1.1"
   viewBox="0 0 26.820988 24.554255"
   height="24.554255mm"
   width="26.820988mm">
  <defs
     id="defs22179">
    <linearGradient
       x1="0"
       y1="0"
       x2="1"
       y2="0"
       gradientUnits="userSpaceOnUse"
       gradientTransform="matrix(46.012794,0,0,-46.012794,1220.1332,135.11601)"
       spreadMethod="pad"
       id="linearGradient6298">
      <stop
         style="stop-opacity:1;stop-color:#63d7c2"
         offset="0"
         id="stop6292" />
      <stop
         style="stop-opacity:1;stop-color:#63d7c2"
         offset="0.67807152"
         id="stop6294" />
      <stop
         style="stop-opacity:1;stop-color:#1e0757"
         offset="1"
         id="stop6296" />
    </linearGradient>
    <linearGradient
       x1="0"
       y1="0"
       x2="1"
       y2="0"
       gradientUnits="userSpaceOnUse"
       gradientTransform="matrix(43.887077,0,0,-43.887077,1252.2727,138.55879)"
       spreadMethod="pad"
       id="linearGradient6320">
      <stop
         style="stop-opacity:1;stop-color:#63d7c2"
         offset="0"
         id="stop6314" />
      <stop
         style="stop-opacity:1;stop-color:#63d7c2"
         offset="0.67807152"
         id="stop6316" />
      <stop
         style="stop-opacity:1;stop-color:#1e0757"
         offset="1"
         id="stop6318" />
    </linearGradient>
    <linearGradient
       x1="0"
       y1="0"
       x2="1"
       y2="0"
       gradientUnits="userSpaceOnUse"
       gradientTransform="matrix(28.877302,0,0,-28.877302,1258.8359,165.00134)"
       spreadMethod="pad"
       id="linearGradient6344">
      <stop
         style="stop-opacity:1;stop-color:#4d1f81"
         offset="0"
         id="stop6336" />
      <stop
         style="stop-opacity:1;stop-color:#4d1f81"
         offset="0.463165"
         id="stop6338" />
      <stop
         style="stop-opacity:1;stop-color:#f263bd"
         offset="0.63598748"
         id="stop6340" />
      <stop
         style="stop-opacity:1;stop-color:#f263bd"
         offset="1"
         id="stop6342" />
    </linearGradient>
    <linearGradient
       x1="0"
       y1="0"
       x2="1"
       y2="0"
       gradientUnits="userSpaceOnUse"
       gradientTransform="matrix(23.472692,0,0,-23.472692,1230.9591,158.09169)"
       spreadMethod="pad"
       id="linearGradient6368">
      <stop
         style="stop-opacity:1;stop-color:#4d1f81"
         offset="0"
         id="stop6360" />
      <stop
         style="stop-opacity:1;stop-color:#4d1f81"
         offset="0.463165"
         id="stop6362" />
      <stop
         style="stop-opacity:1;stop-color:#f263bd"
         offset="0.63598748"
         id="stop6364" />
      <stop
         style="stop-opacity:1;stop-color:#f263bd"
         offset="1"
         id="stop6366" />
    </linearGradient>
    <linearGradient
       x1="0"
       y1="0"
       x2="1"
       y2="0"
       gradientUnits="userSpaceOnUse"
       gradientTransform="matrix(2.3214815,0,0,-2.3214815,1239.4352,167.39336)"
       spreadMethod="pad"
       id="linearGradient6392">
      <stop
         style="stop-opacity:1;stop-color:#4d1f81"
         offset="0"
         id="stop6384" />
      <stop
         style="stop-opacity:1;stop-color:#4d1f81"
         offset="0.463165"
         id="stop6386" />
      <stop
         style="stop-opacity:1;stop-color:#f263bd"
         offset="0.63598748"
         id="stop6388" />
      <stop
         style="stop-opacity:1;stop-color:#f263bd"
         offset="1"
         id="stop6390" />
    </linearGradient>
    <linearGradient
       x1="0"
       y1="0"
       x2="1"
       y2="0"
       gradientUnits="userSpaceOnUse"
       gradientTransform="matrix(2.3085546,0,0,-2.3085546,1241.5422,177.79938)"
       spreadMethod="pad"
       id="linearGradient6416">
      <stop
         style="stop-opacity:1;stop-color:#4d1f81"
         offset="0"
         id="stop6408" />
      <stop
         style="stop-opacity:1;stop-color:#4d1f81"
         offset="0.463165"
         id="stop6410" />
      <stop
         style="stop-opacity:1;stop-color:#f263bd"
         offset="0.63598748"
         id="stop6412" />
      <stop
         style="stop-opacity:1;stop-color:#f263bd"
         offset="1"
         id="stop6414" />
    </linearGradient>
    <linearGradient
       x1="0"
       y1="0"
       x2="1"
       y2="0"
       gradientUnits="userSpaceOnUse"
       gradientTransform="matrix(2.2815118,0,0,-2.2815118,1244.0884,171.51463)"
       spreadMethod="pad"
       id="linearGradient6440">
      <stop
         style="stop-opacity:1;stop-color:#4d1f81"
         offset="0"
         id="stop6432" />
      <stop
         style="stop-opacity:1;stop-color:#4d1f81"
         offset="0.463165"
         id="stop6434" />
      <stop
         style="stop-opacity:1;stop-color:#f263bd"
         offset="0.63598748"
         id="stop6436" />
      <stop
         style="stop-opacity:1;stop-color:#f263bd"
         offset="1"
         id="stop6438" />
    </linearGradient>
    <linearGradient
       x1="0"
       y1="0"
       x2="1"
       y2="0"
       gradientUnits="userSpaceOnUse"
       gradientTransform="matrix(30.97814,0,0,-30.97814,1260.4841,128.40599)"
       spreadMethod="pad"
       id="linearGradient6462">
      <stop
         style="stop-opacity:1;stop-color:#f6d348"
         offset="0"
         id="stop6456" />
      <stop
         style="stop-opacity:1;stop-color:#f6d348"
         offset="0.03027482"
         id="stop6458" />
      <stop
         style="stop-opacity:1;stop-color:#f263bd"
         offset="1"
         id="stop6460" />
    </linearGradient>
    <clipPath
       clipPathUnits="userSpaceOnUse"
       id="clipPath6472">
      <path
         d="M 0,1080 H 1920 V 0 H 0 Z"
         id="path6470" />
    </clipPath>
    <linearGradient
       x1="0"
       y1="0"
       x2="1"
       y2="0"
       gradientUnits="userSpaceOnUse"
       gradientTransform="matrix(28.591566,0,0,-28.591566,1232.8716,123.96368)"
       spreadMethod="pad"
       id="linearGradient6496">
      <stop
         style="stop-opacity:1;stop-color:#f6d348"
         offset="0"
         id="stop6490" />
      <stop
         style="stop-opacity:1;stop-color:#f6d348"
         offset="0.03027482"
         id="stop6492" />
      <stop
         style="stop-opacity:1;stop-color:#f263bd"
         offset="1"
         id="stop6494" />
    </linearGradient>
    <linearGradient
       x1="0"
       y1="0"
       x2="1"
       y2="0"
       gradientUnits="userSpaceOnUse"
       gradientTransform="matrix(12.560694,0,0,-12.560694,1224.9414,123.94977)"
       spreadMethod="pad"
       id="linearGradient6518">
      <stop
         style="stop-opacity:1;stop-color:#f6d348"
         offset="0"
         id="stop6512" />
      <stop
         style="stop-opacity:1;stop-color:#f6d348"
         offset="0.03027482"
         id="stop6514" />
      <stop
         style="stop-opacity:1;stop-color:#f263bd"
         offset="1"
         id="stop6516" />
    </linearGradient>
    <linearGradient
       x1="0"
       y1="0"
       x2="1"
       y2="0"
       gradientUnits="userSpaceOnUse"
       gradientTransform="matrix(7.3603196,0,0,-7.3603196,1255.3344,134.59842)"
       spreadMethod="pad"
       id="linearGradient6540">
      <stop
         style="stop-opacity:1;stop-color:#f6d348"
         offset="0"
         id="stop6534" />
      <stop
         style="stop-opacity:1;stop-color:#f6d348"
         offset="0.03027482"
         id="stop6536" />
      <stop
         style="stop-opacity:1;stop-color:#f263bd"
         offset="1"
         id="stop6538" />
    </linearGradient>
    <linearGradient
       x1="0"
       y1="0"
       x2="1"
       y2="0"
       gradientUnits="userSpaceOnUse"
       gradientTransform="matrix(2.3294539,0,0,-2.3294539,1283.0099,130.24194)"
       spreadMethod="pad"
       id="linearGradient6564">
      <stop
         style="stop-opacity:1;stop-color:#4d1f81"
         offset="0"
         id="stop6556" />
      <stop
         style="stop-opacity:1;stop-color:#4d1f81"
         offset="0.463165"
         id="stop6558" />
      <stop
         style="stop-opacity:1;stop-color:#f263bd"
         offset="0.63598748"
         id="stop6560" />
      <stop
         style="stop-opacity:1;stop-color:#f263bd"
         offset="1"
         id="stop6562" />
    </linearGradient>
    <linearGradient
       x1="0"
       y1="0"
       x2="1"
       y2="0"
       gradientUnits="userSpaceOnUse"
       gradientTransform="matrix(2.3226225,0,0,-2.3226225,1282.2285,137.45471)"
       spreadMethod="pad"
       id="linearGradient6588">
      <stop
         style="stop-opacity:1;stop-color:#4d1f81"
         offset="0"
         id="stop6580" />
      <stop
         style="stop-opacity:1;stop-color:#4d1f81"
         offset="0.463165"
         id="stop6582" />
      <stop
         style="stop-opacity:1;stop-color:#f263bd"
         offset="0.63598748"
         id="stop6584" />
      <stop
         style="stop-opacity:1;stop-color:#f263bd"
         offset="1"
         id="stop6586" />
    </linearGradient>
    <linearGradient
       x1="0"
       y1="0"
       x2="1"
       y2="0"
       gradientUnits="userSpaceOnUse"
       gradientTransform="matrix(2.3228371,0,0,-2.3228371,1267.8551,122.05698)"
       spreadMethod="pad"
       id="linearGradient6612">
      <stop
         style="stop-opacity:1;stop-color:#4d1f81"
         offset="0"
         id="stop6604" />
      <stop
         style="stop-opacity:1;stop-color:#4d1f81"
         offset="0.463165"
         id="stop6606" />
      <stop
         style="stop-opacity:1;stop-color:#f263bd"
         offset="0.63598748"
         id="stop6608" />
      <stop
         style="stop-opacity:1;stop-color:#f263bd"
         offset="1"
         id="stop6610" />
    </linearGradient>
    <linearGradient
       x1="0"
       y1="0"
       x2="1"
       y2="0"
       gradientUnits="userSpaceOnUse"
       gradientTransform="matrix(2.3128767,0,0,-2.3128767,1262.5154,131.16983)"
       spreadMethod="pad"
       id="linearGradient6636">
      <stop
         style="stop-opacity:1;stop-color:#4d1f81"
         offset="0"
         id="stop6628" />
      <stop
         style="stop-opacity:1;stop-color:#4d1f81"
         offset="0.463165"
         id="stop6630" />
      <stop
         style="stop-opacity:1;stop-color:#f263bd"
         offset="0.63598748"
         id="stop6632" />
      <stop
         style="stop-opacity:1;stop-color:#f263bd"
         offset="1"
         id="stop6634" />
    </linearGradient>
    <linearGradient
       x1="0"
       y1="0"
       x2="1"
       y2="0"
       gradientUnits="userSpaceOnUse"
       gradientTransform="matrix(2.2510149,0,0,-2.2510149,1276.73,133.78261)"
       spreadMethod="pad"
       id="linearGradient6660">
      <stop
         style="stop-opacity:1;stop-color:#4d1f81"
         offset="0"
         id="stop6652" />
      <stop
         style="stop-opacity:1;stop-color:#4d1f81"
         offset="0.463165"
         id="stop6654" />
      <stop
         style="stop-opacity:1;stop-color:#f263bd"
         offset="0.63598748"
         id="stop6656" />
      <stop
         style="stop-opacity:1;stop-color:#f263bd"
         offset="1"
         id="stop6658" />
    </linearGradient>
    <linearGradient
       x1="0"
       y1="0"
       x2="1"
       y2="0"
       gradientUnits="userSpaceOnUse"
       gradientTransform="matrix(2.2272937,0,0,-2.2272937,1244.5863,122.94334)"
       spreadMethod="pad"
       id="linearGradient6684">
      <stop
         style="stop-opacity:1;stop-color:#4d1f81"
         offset="0"
         id="stop6676" />
      <stop
         style="stop-opacity:1;stop-color:#4d1f81"
         offset="0.463165"
         id="stop6678" />
      <stop
         style="stop-opacity:1;stop-color:#f263bd"
         offset="0.63598748"
         id="stop6680" />
      <stop
         style="stop-opacity:1;stop-color:#f263bd"
         offset="1"
         id="stop6682" />
    </linearGradient>
    <linearGradient
       x1="0"
       y1="0"
       x2="1"
       y2="0"
       gradientUnits="userSpaceOnUse"
       gradientTransform="matrix(2.3232987,0,0,-2.3232987,1239.4449,127.7163)"
       spreadMethod="pad"
       id="linearGradient6708">
      <stop
         style="stop-opacity:1;stop-color:#4d1f81"
         offset="0"
         id="stop6700" />
      <stop
         style="stop-opacity:1;stop-color:#4d1f81"
         offset="0.463165"
         id="stop6702" />
      <stop
         style="stop-opacity:1;stop-color:#f263bd"
         offset="0.63598748"
         id="stop6704" />
      <stop
         style="stop-opacity:1;stop-color:#f263bd"
         offset="1"
         id="stop6706" />
    </linearGradient>
    <linearGradient
       x1="0"
       y1="0"
       x2="1"
       y2="0"
       gradientUnits="userSpaceOnUse"
       gradientTransform="matrix(2.2258387,0,0,-2.2258387,1236.4373,120.67522)"
       spreadMethod="pad"
       id="linearGradient6732">
      <stop
         style="stop-opacity:1;stop-color:#4d1f81"
         offset="0"
         id="stop6724" />
      <stop
         style="stop-opacity:1;stop-color:#4d1f81"
         offset="0.463165"
         id="stop6726" />
      <stop
         style="stop-opacity:1;stop-color:#f263bd"
         offset="0.63598748"
         id="stop6728" />
      <stop
         style="stop-opacity:1;stop-color:#f263bd"
         offset="1"
         id="stop6730" />
    </linearGradient>
  </defs>
  <sodipodi:namedview
     inkscape:window-maximized="0"
     inkscape:window-y="27"
     inkscape:window-x="492"
     inkscape:window-height="1016"
     inkscape:window-width="1428"
     showgrid="false"
     inkscape:document-rotation="0"
     inkscape:current-layer="layer1"
     inkscape:document-units="mm"
     inkscape:cy="294.97317"
     inkscape:cx="-892.17181"
     inkscape:zoom="0.35"
     inkscape:pageshadow="2"
     inkscape:pageopacity="0.0"
     borderopacity="1.0"
     bordercolor="#666666"
     pagecolor="#ffffff"
     id="base" />
  <metadata
     id="metadata22182">
    <rdf:RDF>
      <cc:Work
         rdf:about="">
        <dc:format>image/svg+xml</dc:format>
        <dc:type
           rdf:resource="http://purl.org/dc/dcmitype/StillImage" />
        <dc:title></dc:title>
      </cc:Work>
    </rdf:RDF>
  </metadata>
  <g
     transform="translate(-341.88713,-70.121681)"
     id="layer1"
     inkscape:groupmode="layer"
     inkscape:label="Layer 1">
    <g
       transform="matrix(0.35277777,0,0,-0.35277777,-88.548321,133.22798)"
       id="g10957">
      <g
         id="g6280">
        <g
           id="g6282">
          <g
             id="g6288">
            <g
               id="g6290">
              <path
                 id="path6300"
                 style="fill:url(#linearGradient6298);stroke:none"
                 d="m 1233.403,160.79 c -1.406,-0.187 -2.518,-1.511 -2.444,-2.801 v 0 c 0.082,-1.413 1.368,-2.654 2.835,-2.717 v 0 c 0.517,-0.022 1.04,-0.039 1.555,0.002 v 0 c 0.6,0.049 0.805,-0.123 0.801,-0.715 v 0 c -0.029,-3.751 -0.017,-7.503 -0.01,-11.253 v 0 c 0,-0.361 -0.108,-0.66 -0.302,-0.971 v 0 c -1.761,-2.817 -3.504,-5.646 -5.254,-8.47 v 0 c -2.711,-4.376 -5.44,-8.741 -8.126,-13.13 v 0 c -0.799,-1.307 -1.829,-2.526 -2.055,-4.089 v 0 c -0.02,-0.132 -0.135,-0.18 -0.271,-0.184 v 0 -0.276 c 0.229,-0.369 0.226,-0.737 0,-1.105 v 0 -0.552 c 0.39,-0.008 0.283,-0.323 0.346,-0.513 v 0 c 0.78,-2.344 2.348,-3.937 4.965,-4.51 v 0 c 0.591,-0.13 1.211,-0.205 1.818,-0.209 v 0 c 2.61,-0.022 5.22,-0.008 7.83,-0.007 v 0 c 7.999,-0.002 15.997,-0.018 23.994,0.008 v 0 c 1.354,0.003 2.685,0.261 3.88,0.944 v 0 c 0.418,0.238 0.741,0.611 1.232,0.739 v 0 c 0.486,0.821 1.194,1.516 1.572,2.398 v 0 c 0.111,0.534 0.347,1.047 0.324,1.604 v 0 c 0.212,1.451 -0.247,2.751 -1.016,3.984 v 0 c -1.384,2.218 -2.761,4.438 -4.138,6.66 v 0 c -0.083,0.135 -0.135,0.289 -0.201,0.434 v 0 c -1.231,1.952 -2.476,3.898 -3.687,5.861 v 0 c -0.587,0.951 -1.256,1.861 -1.718,2.877 v 0 c -1.101,1.625 -2.188,3.26 -3.061,5.006 v 0 c -0.565,0.582 -0.853,1.332 -1.341,1.955 v 0 c -0.531,0.679 -0.585,1.416 -0.578,2.212 v 0 c 0.023,2.527 10e-4,5.054 -0.01,7.581 v 0 c 0.01,1.239 0.011,2.478 0.017,3.716 v 0 h -8.883 c -1.578,0.001 -2.609,0.696 -3.031,2.039 v 0 c -0.381,1.214 0.159,2.462 1.387,3.203 v 0 c 0.177,0.107 0.441,0.133 0.437,0.408 v 0 c -0.814,-0.022 -1.629,-0.006 -2.444,0.009 v 0 c -0.53,0.01 -1.061,0.021 -1.591,0.021 v 0 c -0.948,0 -1.894,-0.033 -2.838,-0.159 m 4.219,-26.516 c 1.036,-0.013 2.071,-0.034 3.106,-0.036 v 0 c 2.938,-0.006 5.876,-0.013 8.813,0.008 v 0 c 0.51,0.004 0.8,-0.145 1.054,-0.559 v 0 c 2.079,-3.393 4.182,-6.773 6.277,-10.157 v 0 c 1.381,-2.23 2.704,-4.492 4.159,-6.679 v 0 c 1.108,-1.667 -0.051,-3.208 -1.936,-3.193 v 0 c -8.392,0.069 -16.785,0.029 -25.177,0.028 v 0 c -0.296,0 -0.591,-0.021 -0.886,-0.031 v 0 c 0.076,-0.755 0.224,-1.481 0.515,-2.153 v 0 c -0.291,0.672 -0.44,1.398 -0.516,2.153 v 0 l -0.153,0.047 c -0.58,-0.003 -1.16,0 -1.742,0.005 v 0 c -1.32,0.01 -2.641,0.02 -3.955,-0.053 v 0 c -1.548,-0.087 -2.93,1.443 -1.863,3.065 v 0 c 1.146,1.742 2.202,3.536 3.298,5.307 v 0 c 2.318,3.737 4.67,7.46 6.928,11.229 v 0 c 0.49,0.817 1.014,1.148 1.958,0.928 v 0 z m -2.557,-24.805 c 0.017,-0.043 0.028,-0.089 0.028,-0.142 v 0 c 0,0.053 -0.011,0.099 -0.028,0.142" />
            </g>
          </g>
        </g>
      </g>
      <g
         id="g6302">
        <g
           id="g6304">
          <g
             id="g6310">
            <g
               id="g6312">
              <path
                 id="path6322"
                 style="fill:url(#linearGradient6320);stroke:none"
                 d="m 1261.758,167.819 c -1.623,-0.027 -2.952,-1.363 -2.922,-2.842 v 0 c 0.03,-1.476 1.321,-2.72 2.91,-2.79 v 0 c 0.468,-0.02 0.94,-0.032 1.405,-0.002 v 0 c 0.498,0.035 0.69,-0.1 0.686,-0.603 v 0 c -0.022,-3.542 -0.018,-7.084 -10e-4,-10.626 v 0 c 0,-0.438 -0.178,-0.645 -0.583,-0.835 v 0 c -0.857,-0.402 -1.706,-0.828 -2.516,-1.31 v 0 c -3.757,-2.233 -6.546,-5.267 -8.464,-9.006 v 0 c 0.873,-1.746 1.96,-3.381 3.061,-5.006 v 0 c 0.775,2.884 2.24,5.416 4.396,7.615 v 0 c 0.512,0.521 1.027,0.8 1.785,0.701 v 0 c 0.265,-0.035 0.536,-0.034 0.807,-0.034 v 0 c 0.124,0.001 0.248,0.001 0.373,-0.002 v 0 c 0.072,0.017 0.145,0.035 0.218,0.052 v 0 c 4.295,-0.007 8.59,-0.017 12.885,-0.02 v 0 c 3.135,-0.005 6.27,-0.009 9.406,0.007 v 0 c 0.455,0.002 0.78,-0.109 1.097,-0.425 v 0 c 3.148,-3.141 4.938,-6.814 5.141,-11.14 v 0 c 0.234,-5.01 -1.586,-9.301 -5.317,-12.847 v 0 c -2.881,-2.737 -6.438,-4.349 -10.539,-4.868 v 0 c -3.276,-0.415 -6.435,0.001 -9.492,1.145 v 0 c 0.023,-0.557 -0.213,-1.07 -0.324,-1.605 v 0 c 1.224,-1.457 2.631,-2.709 4.497,-3.435 v 0 c 0.468,-0.183 0.946,-0.344 1.42,-0.514 v 0 c 0.242,-0.139 0.509,-0.151 0.784,-0.147 v 0 c 5.617,0.042 10.728,1.504 15.128,4.82 v 0 c 4.248,3.203 6.927,7.342 8.075,12.317 v 0 c 0.199,0.864 0.417,1.747 0.343,2.653 v 0 c -0.01,0.139 0.01,0.276 0.143,0.371 v 0 3.04 c -0.148,0.802 -0.28,1.607 -0.446,2.406 v 0 c -0.8,3.826 -2.588,7.205 -5.368,10.111 v 0 c -2.053,2.148 -4.459,3.885 -7.272,5.1 v 0 c -0.42,0.182 -0.563,0.415 -0.561,0.843 v 0 c 0.017,2.369 0,4.74 -0.01,7.109 v 0 c 0,1.373 0.01,2.746 0.01,4.12 v 0 c -4.462,0.002 -8.924,-0.003 -13.387,0.009 v 0 c -1.857,0.004 -3.262,1.292 -3.194,2.926 v 0 c 0.045,1.074 0.641,1.853 1.624,2.385 v 0 c 0.23,0.124 0.476,0.222 0.716,0.331 v 0 c -1.366,0.002 -2.733,0.014 -4.099,0.014 v 0 c -0.806,0 -1.612,-0.004 -2.417,-0.018" />
            </g>
          </g>
        </g>
      </g>
      <g
         id="g6324">
        <g
           id="g6326">
          <g
             id="g6332">
            <g
               id="g6334">
              <path
                 id="path6346"
                 style="fill:url(#linearGradient6344);stroke:none"
                 d="m 1261.94,167.823 c -0.316,-0.109 -0.643,-0.207 -0.947,-0.331 v 0 c -1.304,-0.532 -2.096,-1.311 -2.154,-2.385 v 0 c -0.09,-1.634 1.773,-2.922 4.235,-2.926 v 0 c 5.916,-0.012 11.832,-0.007 17.749,-0.009 v 0 c 1.078,0 2.158,-0.014 3.235,0.003 v 0 c 2.017,0.034 3.651,1.287 3.655,2.783 v 0 c 0,1.568 -1.575,2.869 -3.618,2.872 v 0 c -2.169,0.004 -4.336,0.006 -6.505,0.006 v 0 c -5.216,0 -10.434,-0.009 -15.65,-0.013" />
            </g>
          </g>
        </g>
      </g>
      <g
         id="g6348">
        <g
           id="g6350">
          <g
             id="g6356">
            <g
               id="g6358">
              <path
                 id="path6370"
                 style="fill:url(#linearGradient6368);stroke:none"
                 d="m 1233.614,160.919 c 0.01,-0.275 -0.355,-0.301 -0.597,-0.408 v 0 c -1.678,-0.741 -2.415,-1.989 -1.893,-3.203 v 0 c 0.576,-1.343 1.983,-2.038 4.139,-2.039 v 0 h 12.129 c 0.943,0 1.894,0.049 2.828,-0.012 v 0 c 2.24,-0.149 4.33,1.338 4.206,2.86 v 0 c -0.122,1.525 -1.562,2.78 -4.142,2.8 v 0 c -1.993,0.015 -3.985,0.02 -5.979,0.02 v 0 c -3.563,0 -7.128,-0.016 -10.691,-0.018" />
            </g>
          </g>
        </g>
      </g>
      <g
         id="g6372">
        <g
           id="g6374">
          <g
             id="g6380">
            <g
               id="g6382">
              <path
                 id="path6394"
                 style="fill:url(#linearGradient6392);stroke:none"
                 d="m 1239.436,167.37 c 0.025,-0.573 0.546,-1.051 1.15,-1.054 v 0 c 0.64,-0.001 1.186,0.512 1.17,1.1 v 0 c -0.015,0.568 -0.538,1.049 -1.148,1.054 v 0 c 0,0 -0.01,0 -0.01,0 v 0 c -0.635,0 -1.187,-0.52 -1.162,-1.1" />
            </g>
          </g>
        </g>
      </g>
      <g
         id="g6396">
        <g
           id="g6398">
          <g
             id="g6404">
            <g
               id="g6406">
              <path
                 id="path6418"
                 style="fill:url(#linearGradient6416);stroke:none"
                 d="m 1241.544,177.857 c -0.035,-0.581 0.506,-1.127 1.135,-1.141 v 0 c 0.599,-0.014 1.138,0.462 1.17,1.031 v 0 c 0.034,0.591 -0.49,1.117 -1.128,1.136 v 0 c -0.011,0 -0.021,10e-4 -0.032,10e-4 v 0 c -0.585,-10e-4 -1.112,-0.468 -1.145,-1.027" />
            </g>
          </g>
        </g>
      </g>
      <g
         id="g6420">
        <g
           id="g6422">
          <g
             id="g6428">
            <g
               id="g6430">
              <path
                 id="path6442"
                 style="fill:url(#linearGradient6440);stroke:none"
                 d="m 1244.088,171.551 c 0,-0.598 0.453,-1.068 1.07,-1.099 v 0 c 0.654,-0.033 1.193,0.425 1.212,1.03 v 0 c 0.017,0.584 -0.451,1.061 -1.072,1.095 v 0 c -0.025,0.001 -0.05,0.002 -0.075,0.002 v 0 c -0.632,0 -1.131,-0.445 -1.135,-1.028" />
            </g>
          </g>
        </g>
      </g>
      <g
         id="g6444">
        <g
           id="g6446">
          <g
             id="g6452">
            <g
               id="g6454">
              <path
                 id="path6464"
                 style="fill:url(#linearGradient6462);stroke:none"
                 d="m 1262.695,143.079 c -0.395,-1.296 -0.839,-2.58 -1.169,-3.89 v 0 c -0.323,-1.283 -0.601,-2.583 -0.766,-3.889 v 0 c -0.18,-1.428 -0.309,-2.874 -0.269,-4.308 v 0 c 0.033,-1.139 -10e-4,-2.29 0.161,-3.423 v 0 c 0.072,-0.505 0.072,-1.005 0.087,-1.508 v 0 c 0.066,-0.145 0.118,-0.299 0.201,-0.434 v 0 c 1.377,-2.222 2.754,-4.442 4.138,-6.66 v 0 c 0.769,-1.233 1.228,-2.533 1.016,-3.984 v 0 c 3.057,-1.144 6.216,-1.56 9.492,-1.145 v 0 c 4.101,0.519 7.658,2.131 10.539,4.868 v 0 c 3.731,3.546 5.551,7.837 5.317,12.847 v 0 c -0.203,4.326 -1.993,7.999 -5.141,11.14 v 0 c -0.317,0.316 -0.642,0.427 -1.097,0.425 v 0 c -3.136,-0.016 -6.271,-0.012 -9.406,-0.007 v 0 c -4.295,0.003 -8.59,0.013 -12.885,0.02 v 0 c -0.073,-0.018 -0.146,-0.035 -0.218,-0.052 m 20.651,-6.714 c -0.619,0.004 -1.144,0.547 -1.117,1.152 v 0 c 0.027,0.58 0.563,1.051 1.167,1.026 v 0 c 0.589,-0.026 1.168,-0.561 1.155,-1.072 v 0 c -0.014,-0.568 -0.597,-1.106 -1.199,-1.106 v 0 c 0,0 0,0 -0.01,0 m -6.616,-2.562 c 0.01,0.62 0.439,1.024 1.104,1.031 v 0 c 0.637,0.006 1.124,-0.423 1.146,-1.008 v 0 c 0.023,-0.649 -0.422,-1.087 -1.114,-1.095 v 0 c -0.01,0 -0.012,0 -0.018,0 v 0 c -0.684,0 -1.125,0.421 -1.118,1.072 m -14.214,-2.658 c -0.02,0.639 0.45,1.081 1.143,1.076 v 0 c 0.642,-0.007 1.143,-0.445 1.168,-1.019 v 0 c 0.025,-0.579 -0.519,-1.079 -1.177,-1.083 v 0 c 0,0 0,0 -0.01,0 v 0 c -0.628,0 -1.111,0.439 -1.129,1.026 m 21.627,-1.982 c -0.632,0.02 -1.155,0.54 -1.133,1.125 v 0 c 0.021,0.546 0.652,1.068 1.25,1.031 v 0 c 0.581,-0.035 1.095,-0.563 1.079,-1.109 v 0 c -0.017,-0.591 -0.524,-1.047 -1.154,-1.047 v 0 c -0.014,0 -0.028,0 -0.042,0 m -15.211,-8.155 c -0.628,0.026 -1.094,0.497 -1.077,1.084 v 0 c 0.018,0.586 0.513,1.024 1.148,1.015 v 0 c 0.672,-0.009 1.199,-0.496 1.173,-1.084 v 0 c -0.024,-0.581 -0.538,-1.016 -1.186,-1.016 v 0 c -0.019,0 -0.039,0 -0.058,10e-4" />
            </g>
          </g>
        </g>
      </g>
      <g
         id="g6466">
        <g
           clip-path="url(#clipPath6472)"
           id="g6468">
          <g
             transform="translate(1264.1982,110.9805)"
             id="g6474">
            <path
               id="path6476"
               style="fill:#75cfc1;fill-opacity:1;fill-rule:nonzero;stroke:none"
               d="M 0,0 C 0.486,0.821 1.193,1.517 1.571,2.398 2.796,0.94 4.203,-0.312 6.069,-1.037 6.537,-1.22 7.015,-1.381 7.488,-1.552 5.273,-1.57 3.182,-1.018 1.113,-0.355 0.742,-0.237 0.371,-0.118 0,0" />
          </g>
        </g>
      </g>
      <g
         id="g6478">
        <g
           id="g6480">
          <g
             id="g6486">
            <g
               id="g6488">
              <path
                 id="path6498"
                 style="fill:url(#linearGradient6496);stroke:none"
                 d="m 1237.502,134.183 c -0.276,-1.655 -0.843,-3.245 -1.289,-4.861 v 0 c -0.974,-3.524 -1.976,-7.041 -2.984,-10.556 v 0 c -0.479,-1.672 -0.331,-3.372 -0.351,-5.064 v 0 c 0.052,-0.017 0.102,-0.032 0.154,-0.047 v 0 c 0.295,0.01 0.59,0.03 0.886,0.031 v 0 c 8.392,10e-4 16.785,0.041 25.177,-0.028 v 0 c 1.885,-0.015 3.044,1.526 1.936,3.193 v 0 c -1.455,2.187 -2.778,4.449 -4.159,6.679 v 0 c -2.095,3.384 -4.198,6.764 -6.277,10.157 v 0 c -0.254,0.414 -0.544,0.563 -1.054,0.559 v 0 c -2.937,-0.021 -5.875,-0.014 -8.813,-0.008 v 0 c -1.035,0.002 -2.07,0.023 -3.106,0.036 v 0 z m 3.084,-7.504 c -0.685,0.021 -1.179,0.468 -1.138,1.027 v 0 c 0.046,0.653 0.547,1.083 1.216,1.046 v 0 c 0.635,-0.035 1.133,-0.525 1.103,-1.083 v 0 c -0.031,-0.553 -0.538,-0.991 -1.141,-0.991 v 0 c -0.013,0 -0.027,0 -0.04,0.001 m 4.001,-3.768 c -0.022,0.604 0.514,1.135 1.135,1.125 v 0 c 0.61,-0.009 1.086,-0.473 1.091,-1.065 v 0 c 0.01,-0.624 -0.48,-1.117 -1.106,-1.12 v 0 c 0,0 -0.01,0 -0.01,0 v 0 c -0.594,0 -1.092,0.474 -1.112,1.06 m -6.982,-3.272 c -0.634,0.003 -1.147,0.446 -1.168,1.007 v 0 c -0.019,0.553 0.49,1.056 1.084,1.066 v 0 c 0.752,0.014 1.14,-0.337 1.142,-1.032 v 0 c 0,-0.67 -0.369,-1.041 -1.043,-1.041 v 0 c 0,0 -0.01,0 -0.015,0" />
            </g>
          </g>
        </g>
      </g>
      <g
         id="g6500">
        <g
           id="g6502">
          <g
             id="g6508">
            <g
               id="g6510">
              <path
                 id="path6520"
                 style="fill:url(#linearGradient6518);stroke:none"
                 d="m 1235.544,133.255 c -2.258,-3.769 -4.61,-7.492 -6.928,-11.229 v 0 c -1.096,-1.771 -2.152,-3.565 -3.298,-5.307 v 0 c -1.067,-1.622 0.315,-3.152 1.863,-3.065 v 0 c 1.314,0.073 2.635,0.063 3.955,0.053 v 0 c 0.582,-0.005 1.162,-0.008 1.742,-0.005 v 0 c 0.02,1.692 -0.128,3.392 0.351,5.064 v 0 c 1.008,3.515 2.01,7.032 2.984,10.556 v 0 c 0.446,1.616 1.013,3.206 1.289,4.861 v 0 c -0.191,0.044 -0.365,0.066 -0.525,0.066 v 0 c -0.63,0 -1.042,-0.342 -1.433,-0.994" />
            </g>
          </g>
        </g>
      </g>
      <g
         id="g6522">
        <g
           id="g6524">
          <g
             id="g6530">
            <g
               id="g6532">
              <path
                 id="path6542"
                 style="fill:url(#linearGradient6540);stroke:none"
                 d="m 1259.73,142.414 c -2.156,-2.199 -3.621,-4.731 -4.396,-7.615 v 0 c 0.462,-1.016 1.131,-1.926 1.718,-2.877 v 0 c 1.211,-1.963 2.456,-3.909 3.687,-5.861 v 0 c -0.015,0.503 -0.015,1.003 -0.087,1.508 v 0 c -0.162,1.133 -0.128,2.284 -0.161,3.423 v 0 c -0.04,1.434 0.089,2.88 0.269,4.308 v 0 c 0.165,1.306 0.443,2.606 0.766,3.889 v 0 c 0.33,1.31 0.774,2.594 1.169,3.89 v 0 c -0.125,0.003 -0.249,0.003 -0.373,0.002 v 0 c -0.271,0 -0.542,-10e-4 -0.807,0.034 v 0 c -0.102,0.014 -0.199,0.02 -0.293,0.02 v 0 c -0.603,0 -1.049,-0.27 -1.492,-0.721" />
            </g>
          </g>
        </g>
      </g>
      <g
         id="g6544">
        <g
           id="g6546">
          <g
             id="g6552">
            <g
               id="g6554">
              <path
                 id="path6566"
                 style="fill:url(#linearGradient6564);stroke:none"
                 d="m 1283.01,130.288 c -0.022,-0.585 0.501,-1.105 1.133,-1.125 v 0 c 0.649,-0.02 1.178,0.443 1.196,1.047 v 0 c 0.016,0.546 -0.498,1.074 -1.079,1.109 v 0 c -0.02,0.001 -0.04,0.002 -0.06,0.002 v 0 c -0.58,0 -1.17,-0.505 -1.19,-1.033" />
            </g>
          </g>
        </g>
      </g>
      <g
         id="g6568">
        <g
           id="g6570">
          <g
             id="g6576">
            <g
               id="g6578">
              <path
                 id="path6590"
                 style="fill:url(#linearGradient6588);stroke:none"
                 d="m 1282.229,137.517 c -0.027,-0.605 0.498,-1.148 1.117,-1.152 v 0 c 0.604,-0.003 1.191,0.536 1.205,1.106 v 0 c 0.013,0.511 -0.566,1.046 -1.155,1.072 v 0 c -0.016,0.001 -0.031,0.001 -0.047,0.001 v 0 c -0.584,0 -1.094,-0.462 -1.12,-1.027" />
            </g>
          </g>
        </g>
      </g>
      <g
         id="g6592">
        <g
           id="g6594">
          <g
             id="g6600">
            <g
               id="g6602">
              <path
                 id="path6614"
                 style="fill:url(#linearGradient6612);stroke:none"
                 d="m 1267.855,122.092 c -0.017,-0.587 0.449,-1.058 1.077,-1.084 v 0 c 0.675,-0.027 1.219,0.416 1.244,1.015 v 0 c 0.026,0.588 -0.501,1.075 -1.173,1.084 v 0 c -0.01,0 -0.014,0 -0.021,0 v 0 c -0.625,0 -1.109,-0.435 -1.127,-1.015" />
            </g>
          </g>
        </g>
      </g>
      <g
         id="g6616">
        <g
           id="g6618">
          <g
             id="g6624">
            <g
               id="g6626">
              <path
                 id="path6638"
                 style="fill:url(#linearGradient6636);stroke:none"
                 d="m 1262.516,131.145 c 0.018,-0.589 0.504,-1.028 1.134,-1.026 v 0 c 0.658,0.004 1.202,0.504 1.177,1.083 v 0 c -0.025,0.574 -0.526,1.012 -1.168,1.019 v 0 c 0,0 -0.01,0 -0.012,0 v 0 c -0.686,0 -1.151,-0.441 -1.131,-1.076" />
            </g>
          </g>
        </g>
      </g>
      <g
         id="g6640">
        <g
           id="g6642">
          <g
             id="g6648">
            <g
               id="g6650">
              <path
                 id="path6662"
                 style="fill:url(#linearGradient6660);stroke:none"
                 d="m 1277.834,134.834 c -0.665,-0.007 -1.098,-0.411 -1.104,-1.031 v 0 c -0.01,-0.657 0.441,-1.079 1.136,-1.072 v 0 c 0.692,0.008 1.137,0.446 1.114,1.095 v 0 c -0.022,0.582 -0.503,1.008 -1.134,1.008 v 0 c 0,0 -0.01,0 -0.012,0" />
            </g>
          </g>
        </g>
      </g>
      <g
         id="g6664">
        <g
           id="g6666">
          <g
             id="g6672">
            <g
               id="g6674">
              <path
                 id="path6686"
                 style="fill:url(#linearGradient6684);stroke:none"
                 d="m 1244.587,122.911 c 0.02,-0.588 0.522,-1.065 1.12,-1.06 v 0 c 0.626,0.003 1.112,0.496 1.106,1.12 v 0 c -0.01,0.592 -0.481,1.056 -1.091,1.065 v 0 c 0,0 -0.011,0 -0.017,0 v 0 c -0.613,0 -1.14,-0.526 -1.118,-1.125" />
            </g>
          </g>
        </g>
      </g>
      <g
         id="g6688">
        <g
           id="g6690">
          <g
             id="g6696">
            <g
               id="g6698">
              <path
                 id="path6710"
                 style="fill:url(#linearGradient6708);stroke:none"
                 d="m 1239.448,127.706 c -0.041,-0.559 0.453,-1.006 1.138,-1.027 v 0 c 0.62,-0.02 1.149,0.424 1.181,0.99 v 0 c 0.03,0.558 -0.468,1.048 -1.103,1.083 v 0 c -0.026,0.002 -0.053,0.002 -0.079,0.002 v 0 c -0.629,0 -1.092,-0.421 -1.137,-1.048" />
            </g>
          </g>
        </g>
      </g>
      <g
         id="g6712">
        <g
           id="g6714">
          <g
             id="g6720">
            <g
               id="g6722">
              <path
                 id="path6734"
                 style="fill:url(#linearGradient6732);stroke:none"
                 d="m 1237.521,121.712 c -0.594,-0.01 -1.103,-0.513 -1.084,-1.066 v 0 c 0.021,-0.561 0.534,-1.004 1.168,-1.007 v 0 c 0.683,-0.006 1.06,0.366 1.058,1.041 v 0 c 0,0.682 -0.376,1.033 -1.101,1.033 v 0 c -0.014,0 -0.027,0 -0.041,-10e-4" />
            </g>
          </g>
        </g>
      </g>
    </g>
  </g>
</svg>
