<?xml version="1.0" encoding="UTF-8" standalone="no"?>
<svg
   xmlns:dc="http://purl.org/dc/elements/1.1/"
   xmlns:cc="http://creativecommons.org/ns#"
   xmlns:rdf="http://www.w3.org/1999/02/22-rdf-syntax-ns#"
   xmlns:svg="http://www.w3.org/2000/svg"
   xmlns="http://www.w3.org/2000/svg"
   xmlns:sodipodi="http://sodipodi.sourceforge.net/DTD/sodipodi-0.dtd"
   xmlns:inkscape="http://www.inkscape.org/namespaces/inkscape"
   sodipodi:docname="location_pin.svg"
   inkscape:version="1.0 (6e3e5246a0, 2020-05-07)"
   id="svg11751"
   version="1.1"
   viewBox="0 0 17.077484 22.950899"
   height="22.950899mm"
   width="17.077484mm">
  <defs
     id="defs11745">
    <linearGradient
       x1="0"
       y1="0"
       x2="1"
       y2="0"
       gradientUnits="userSpaceOnUse"
       gradientTransform="matrix(48.408424,0,0,-48.408424,1474.8958,702.39075)"
       spreadMethod="pad"
       id="linearGradient1868">
      <stop
         style="stop-opacity:1;stop-color:#63d7c2"
         offset="0"
         id="stop1862" />
      <stop
         style="stop-opacity:1;stop-color:#63d7c2"
         offset="0.67807152"
         id="stop1864" />
      <stop
         style="stop-opacity:1;stop-color:#1e0757"
         offset="1"
         id="stop1866" />
    </linearGradient>
    <linearGradient
       x1="0"
       y1="0"
       x2="1"
       y2="0"
       gradientUnits="userSpaceOnUse"
       gradientTransform="matrix(47.682228,0,0,-47.682228,1475.4014,686.26251)"
       spreadMethod="pad"
       id="linearGradient1890">
      <stop
         style="stop-opacity:1;stop-color:#e35db8"
         offset="0"
         id="stop1884" />
      <stop
         style="stop-opacity:1;stop-color:#1e0757"
         offset="0.60396321"
         id="stop1886" />
      <stop
         style="stop-opacity:1;stop-color:#1e0757"
         offset="1"
         id="stop1888" />
    </linearGradient>
    <radialGradient
       fx="0"
       fy="0"
       cx="0"
       cy="0"
       r="1"
       gradientUnits="userSpaceOnUse"
       gradientTransform="matrix(7.8546867,0,0,-8.0895214,1499.2581,708.49127)"
       spreadMethod="pad"
       id="radialGradient1914">
      <stop
         style="stop-opacity:1;stop-color:#f6d348"
         offset="0"
         id="stop1906" />
      <stop
         style="stop-opacity:1;stop-color:#f6d348"
         offset="0.0264623"
         id="stop1908" />
      <stop
         style="stop-opacity:1;stop-color:#f6d348"
         offset="0.05593598"
         id="stop1910" />
      <stop
         style="stop-opacity:1;stop-color:#f263bd"
         offset="1"
         id="stop1912" />
    </radialGradient>
  </defs>
  <sodipodi:namedview
     inkscape:window-maximized="0"
     inkscape:window-y="27"
     inkscape:window-x="122"
     inkscape:window-height="1016"
     inkscape:window-width="1428"
     showgrid="false"
     inkscape:document-rotation="0"
     inkscape:current-layer="layer1"
     inkscape:document-units="mm"
     inkscape:cy="-230.91396"
     inkscape:cx="-847.72757"
     inkscape:zoom="0.35"
     inkscape:pageshadow="2"
     inkscape:pageopacity="0.0"
     borderopacity="1.0"
     bordercolor="#666666"
     pagecolor="#ffffff"
     id="base" />
  <metadata
     id="metadata11748">
    <rdf:RDF>
      <cc:Work
         rdf:about="">
        <dc:format>image/svg+xml</dc:format>
        <dc:type
           rdf:resource="http://purl.org/dc/dcmitype/StillImage" />
        <dc:title></dc:title>
      </cc:Work>
    </rdf:RDF>
  </metadata>
  <g
     transform="translate(-330.12792,-209.26265)"
     id="layer1"
     inkscape:groupmode="layer"
     inkscape:label="Layer 1">
    <g
       transform="matrix(0.35277777,0,0,-0.35277777,-190.18236,468.03467)"
       id="g9311">
      <g
         id="g1850">
        <g
           id="g1852">
          <g
             id="g1858">
            <g
               id="g1860">
              <path
                 id="path1870"
                 style="fill:url(#linearGradient1868);stroke:none"
                 d="m 1475.603,702.473 c 0.25,-0.178 0.332,-0.419 0.248,-0.718 v 0 c 0,10e-4 -0.206,-0.147 -0.206,-0.147 v 0 c 4.23,-10.016 9.829,-19.086 17.654,-26.544 v 0 c 5.387,-5.136 6.428,-5.043 11.797,0.064 v 0 c 8.094,7.698 13.865,17.002 17.98,27.461 v 0 c -10e-4,0 -0.215,0.083 -0.215,0.083 v 0 c 0.141,0.567 0.281,1.133 0.421,1.701 v 0 c 0.469,15.429 -6.606,26.023 -19.089,28.632 v 0 c -1.69,0.353 -3.358,0.522 -4.992,0.522 v 0 c -15.256,-0.001 -27.415,-14.7 -23.598,-31.054 m 23.048,-2.051 c -4.302,0.293 -7.49,4.122 -7.236,8.691 v 0 c 0.265,4.78 4.015,7.927 8.828,7.409 v 0 c 4.055,-0.436 7.17,-4.325 6.849,-8.551 v 0 c -0.32,-4.235 -3.869,-7.566 -7.933,-7.566 v 0 c -0.169,0 -0.338,0.006 -0.508,0.017" />
            </g>
          </g>
        </g>
      </g>
      <g
         id="g1872">
        <g
           id="g1874">
          <g
             id="g1880">
            <g
               id="g1882">
              <path
                 id="path1892"
                 style="fill:url(#linearGradient1890);stroke:none"
                 d="m 1505.096,676.595 c -5.369,-5.106 -6.41,-5.199 -11.797,-0.064 v 0 c -7.825,7.458 -13.424,16.529 -17.654,26.545 v 0 c -0.067,-0.813 -0.395,-1.719 -0.161,-2.427 v 0 c 4.082,-12.352 11.19,-22.61 20.74,-31.068 v 0 c 2.009,-1.778 4.067,-1.285 6.402,0.501 v 0 c 5.073,3.882 8.917,8.882 12.284,14.125 v 0 c 3.857,6.007 8.384,11.964 8.166,19.849 v 0 c -4.115,-10.459 -9.886,-19.764 -17.98,-27.461" />
            </g>
          </g>
        </g>
      </g>
      <g
         id="g1894">
        <g
           id="g1896">
          <g
             id="g1902">
            <g
               id="g1904">
              <path
                 id="path1916"
                 style="fill:url(#radialGradient1914);stroke:none"
                 d="m 1491.415,709.113 c -0.254,-4.569 2.934,-8.398 7.236,-8.691 v 0 c 4.272,-0.291 8.107,3.139 8.441,7.549 v 0 c 0.321,4.226 -2.794,8.115 -6.849,8.551 v 0 c -0.347,0.038 -0.688,0.056 -1.023,0.056 v 0 c -4.312,0 -7.559,-3.03 -7.805,-7.465" />
            </g>
          </g>
        </g>
      </g>
    </g>
  </g>
</svg>
