<?xml version="1.0" encoding="UTF-8" standalone="no"?>
<svg
   xmlns:dc="http://purl.org/dc/elements/1.1/"
   xmlns:cc="http://creativecommons.org/ns#"
   xmlns:rdf="http://www.w3.org/1999/02/22-rdf-syntax-ns#"
   xmlns:svg="http://www.w3.org/2000/svg"
   xmlns="http://www.w3.org/2000/svg"
   xmlns:sodipodi="http://sodipodi.sourceforge.net/DTD/sodipodi-0.dtd"
   xmlns:inkscape="http://www.inkscape.org/namespaces/inkscape"
   sodipodi:docname="microscope.svg"
   inkscape:version="1.0 (6e3e5246a0, 2020-05-07)"
   id="svg20915"
   version="1.1"
   viewBox="0 0 21.374411 27.587023"
   height="27.587023mm"
   width="21.374411mm">
  <defs
     id="defs20909">
    <linearGradient
       x1="0"
       y1="0"
       x2="1"
       y2="0"
       gradientUnits="userSpaceOnUse"
       gradientTransform="matrix(48.997566,0,0,-48.997566,607.97577,133.21216)"
       spreadMethod="pad"
       id="linearGradient138">
      <stop
         style="stop-opacity:1;stop-color:#e35db8"
         offset="0"
         id="stop132" />
      <stop
         style="stop-opacity:1;stop-color:#1e0757"
         offset="0.60396321"
         id="stop134" />
      <stop
         style="stop-opacity:1;stop-color:#1e0757"
         offset="1"
         id="stop136" />
    </linearGradient>
    <linearGradient
       x1="0"
       y1="0"
       x2="1"
       y2="0"
       gradientUnits="userSpaceOnUse"
       gradientTransform="matrix(27.828182,0,0,-27.828182,612.2785,160.5739)"
       spreadMethod="pad"
       id="linearGradient160">
      <stop
         style="stop-opacity:1;stop-color:#63d7c2"
         offset="0"
         id="stop154" />
      <stop
         style="stop-opacity:1;stop-color:#63d7c2"
         offset="0.67807152"
         id="stop156" />
      <stop
         style="stop-opacity:1;stop-color:#1e0757"
         offset="1"
         id="stop158" />
    </linearGradient>
    <linearGradient
       x1="0"
       y1="0"
       x2="1"
       y2="0"
       gradientUnits="userSpaceOnUse"
       gradientTransform="matrix(47.000488,0,0,-47.000488,610.61713,107.67607)"
       spreadMethod="pad"
       id="linearGradient182">
      <stop
         style="stop-opacity:1;stop-color:#63d7c2"
         offset="0"
         id="stop176" />
      <stop
         style="stop-opacity:1;stop-color:#63d7c2"
         offset="0.67807152"
         id="stop178" />
      <stop
         style="stop-opacity:1;stop-color:#1e0757"
         offset="1"
         id="stop180" />
    </linearGradient>
    <linearGradient
       x1="0"
       y1="0"
       x2="1"
       y2="0"
       gradientUnits="userSpaceOnUse"
       gradientTransform="matrix(14.215171,0,0,-14.215171,603.55402,176.06816)"
       spreadMethod="pad"
       id="linearGradient204">
      <stop
         style="stop-opacity:1;stop-color:#63d7c2"
         offset="0"
         id="stop198" />
      <stop
         style="stop-opacity:1;stop-color:#63d7c2"
         offset="0.67807152"
         id="stop200" />
      <stop
         style="stop-opacity:1;stop-color:#1e0757"
         offset="1"
         id="stop202" />
    </linearGradient>
    <linearGradient
       x1="0"
       y1="0"
       x2="1"
       y2="0"
       gradientUnits="userSpaceOnUse"
       gradientTransform="matrix(28.856695,0,0,-28.856695,635.28668,129.16887)"
       spreadMethod="pad"
       id="linearGradient226">
      <stop
         style="stop-opacity:1;stop-color:#63d7c2"
         offset="0"
         id="stop220" />
      <stop
         style="stop-opacity:1;stop-color:#63d7c2"
         offset="0.67807152"
         id="stop222" />
      <stop
         style="stop-opacity:1;stop-color:#1e0757"
         offset="1"
         id="stop224" />
    </linearGradient>
    <linearGradient
       x1="0"
       y1="0"
       x2="1"
       y2="0"
       gradientUnits="userSpaceOnUse"
       gradientTransform="matrix(10.247047,0,0,-10.247047,634.63458,147.00879)"
       spreadMethod="pad"
       id="linearGradient248">
      <stop
         style="stop-opacity:1;stop-color:#63d7c2"
         offset="0"
         id="stop242" />
      <stop
         style="stop-opacity:1;stop-color:#63d7c2"
         offset="0.67807152"
         id="stop244" />
      <stop
         style="stop-opacity:1;stop-color:#1e0757"
         offset="1"
         id="stop246" />
    </linearGradient>
    <linearGradient
       x1="0"
       y1="0"
       x2="1"
       y2="0"
       gradientUnits="userSpaceOnUse"
       gradientTransform="matrix(47.802376,0,0,-47.802376,609.9538,108.64319)"
       spreadMethod="pad"
       id="linearGradient270">
      <stop
         style="stop-opacity:1;stop-color:#f6d348"
         offset="0"
         id="stop264" />
      <stop
         style="stop-opacity:1;stop-color:#f6d348"
         offset="0.03027482"
         id="stop266" />
      <stop
         style="stop-opacity:1;stop-color:#f263bd"
         offset="1"
         id="stop268" />
    </linearGradient>
    <linearGradient
       x1="0"
       y1="0"
       x2="1"
       y2="0"
       gradientUnits="userSpaceOnUse"
       gradientTransform="matrix(4.5295448,0,0,-4.5295448,619.03302,156.14951)"
       spreadMethod="pad"
       id="linearGradient292">
      <stop
         style="stop-opacity:1;stop-color:#f6d348"
         offset="0"
         id="stop286" />
      <stop
         style="stop-opacity:1;stop-color:#f6d348"
         offset="0.03027482"
         id="stop288" />
      <stop
         style="stop-opacity:1;stop-color:#f263bd"
         offset="1"
         id="stop290" />
    </linearGradient>
    <linearGradient
       x1="0"
       y1="0"
       x2="1"
       y2="0"
       gradientUnits="userSpaceOnUse"
       gradientTransform="matrix(5.870111,0,0,-5.870111,633.87372,149.96463)"
       spreadMethod="pad"
       id="linearGradient314">
      <stop
         style="stop-opacity:1;stop-color:#f6d348"
         offset="0"
         id="stop308" />
      <stop
         style="stop-opacity:1;stop-color:#f6d348"
         offset="0.03027482"
         id="stop310" />
      <stop
         style="stop-opacity:1;stop-color:#f263bd"
         offset="1"
         id="stop312" />
    </linearGradient>
    <linearGradient
       x1="0"
       y1="0"
       x2="1"
       y2="0"
       gradientUnits="userSpaceOnUse"
       gradientTransform="matrix(6.9962697,0,0,-6.9962697,612.20398,171.4453)"
       spreadMethod="pad"
       id="linearGradient336">
      <stop
         style="stop-opacity:1;stop-color:#f6d348"
         offset="0"
         id="stop330" />
      <stop
         style="stop-opacity:1;stop-color:#f6d348"
         offset="0.03027482"
         id="stop332" />
      <stop
         style="stop-opacity:1;stop-color:#f263bd"
         offset="1"
         id="stop334" />
    </linearGradient>
  </defs>
  <sodipodi:namedview
     inkscape:window-maximized="0"
     inkscape:window-y="27"
     inkscape:window-x="122"
     inkscape:window-height="1016"
     inkscape:window-width="1428"
     showgrid="false"
     inkscape:document-rotation="0"
     inkscape:current-layer="layer1"
     inkscape:document-units="mm"
     inkscape:cy="-476.43846"
     inkscape:cx="608.964"
     inkscape:zoom="0.35"
     inkscape:pageshadow="2"
     inkscape:pageopacity="0.0"
     borderopacity="1.0"
     bordercolor="#666666"
     pagecolor="#ffffff"
     id="base" />
  <metadata
     id="metadata20912">
    <rdf:RDF>
      <cc:Work
         rdf:about="">
        <dc:format>image/svg+xml</dc:format>
        <dc:type
           rdf:resource="http://purl.org/dc/dcmitype/StillImage" />
        <dc:title></dc:title>
      </cc:Work>
    </rdf:RDF>
  </metadata>
  <g
     transform="translate(55.288392,-274.22434)"
     id="layer1"
     inkscape:groupmode="layer"
     inkscape:label="Layer 1">
    <g
       transform="matrix(0.35277777,0,0,-0.35277777,-268.20898,338.84688)"
       id="g10696">
      <g
         id="g120">
        <g
           id="g122">
          <g
             id="g128">
            <g
               id="g130">
              <path
                 id="path140"
                 style="fill:url(#linearGradient138);stroke:none"
                 d="m 614.478,155.902 c -8.926,-8.355 -8.652,-24.217 0.759,-32.198 v 0 c 1.373,-1.164 3.028,-2.011 4.3,-3.802 v 0 c -3.289,-2.515 -6.026,-5.058 -8.514,-7.856 v 0 c 0.645,-2.731 2.752,-2.703 4.69,-2.675 v 0 c 0.261,0.004 0.517,0.008 0.767,0.005 v 0 c 11.646,-0.136 23.294,-0.133 34.94,-0.005 v 0 c 0.186,0.001 0.376,0.001 0.567,0.001 v 0 c 2.022,-0.001 4.198,-0.003 4.987,2.677 v 0 c -2.411,3.458 -5.817,5.851 -9.177,8.323 v 0 c 2.341,2.149 4.956,3.758 6.479,6.459 v 0 c -3.324,3.708 -7.1,3.705 -11.452,-0.007 v 0 c -1.204,-0.502 -2.384,-1.077 -3.616,-1.492 v 0 c -7.318,-2.467 -14.892,-0.352 -19.834,5.5 v 0 c -4.777,5.657 -4.581,13.014 0.421,18.968 v 0 c 0.915,1.089 3.313,1.833 1.326,3.953 v 0 c -0.306,1.063 -1.093,1.346 -2.088,1.287 v 0 c -0.687,1.301 -1.361,2.11 -2.27,2.109 v 0 c -0.624,0 -1.359,-0.381 -2.285,-1.247" />
            </g>
          </g>
        </g>
      </g>
      <g
         id="g142">
        <g
           id="g144">
          <g
             id="g150">
            <g
               id="g152">
              <path
                 id="path162"
                 style="fill:url(#linearGradient160);stroke:none"
                 d="m 619.2,174.349 c -0.583,-0.472 -1.365,-0.51 -1.976,-0.915 v 0 c -1.569,-1.502 -3.616,-2.613 -4.044,-5.03 v 0 c -1.266,-1.574 -1.219,-3.05 0.272,-4.469 v 0 c 1.9,-1.81 3.772,-3.648 5.656,-5.474 v 0 c 1.705,-1.177 3.251,-2.508 4.278,-4.351 v 0 c 2.079,-2.12 4.236,-4.168 6.211,-6.381 v 0 c 1.505,-1.687 2.83,-1.266 4.276,-0.075 v 0 c 2.908,0.588 4.656,2.336 5.242,5.247 v 0 c 1.581,1.75 1.162,3.12 -0.479,4.706 v 0 c -5.099,4.929 -10.064,9.995 -15.06,15.032 v 0 c -0.977,0.985 -1.947,1.901 -3.282,1.901 v 0 c -0.339,0 -0.702,-0.059 -1.094,-0.191" />
            </g>
          </g>
        </g>
      </g>
      <g
         id="g164">
        <g
           id="g166">
          <g
             id="g172">
            <g
               id="g174">
              <path
                 id="path184"
                 style="fill:url(#linearGradient182);stroke:none"
                 d="m 611.249,105.238 c 14.454,-0.071 28.909,-0.096 43.361,-0.255 v 0 c 2.708,-0.029 3.115,1.384 2.987,3.509 v 0 c -0.739,1.866 -2.281,1.844 -3.812,1.824 v 0 c -0.165,-0.002 -0.328,-0.004 -0.49,-0.004 v 0 c -3.842,0.002 -7.682,-0.005 -11.523,-0.012 v 0 c -8.972,-0.016 -17.945,-0.033 -26.916,0.068 v 0 c -0.059,0.001 -0.116,0.001 -0.173,0.001 v 0 c -3.979,0 -4.844,-1.616 -3.434,-5.131" />
            </g>
          </g>
        </g>
      </g>
      <g
         id="g186">
        <g
           id="g188">
          <g
             id="g194">
            <g
               id="g196">
              <path
                 id="path206"
                 style="fill:url(#linearGradient204);stroke:none"
                 d="m 605.909,180.149 c -0.647,-0.674 -1.302,-1.347 -1.874,-2.082 v 0 c -0.483,-0.623 -0.726,-1.481 -0.126,-2.054 v 0 c 2.63,-2.507 4.331,-6.124 8.295,-7.058 v 0 c 1.942,0.674 3.103,2.319 4.521,3.643 v 0 c 0.508,0.539 0.957,1.113 1.033,1.89 v 0 c 0.204,2.987 -2.462,4.012 -4.049,5.679 v 0 c -1.922,2.019 -2.911,3.015 -3.891,3.015 v 0 c -0.993,0 -1.976,-1.02 -3.909,-3.033" />
            </g>
          </g>
        </g>
      </g>
      <g
         id="g208">
        <g
           id="g210">
          <g
             id="g216">
            <g
               id="g218">
              <path
                 id="path228"
                 style="fill:url(#linearGradient226);stroke:none"
                 d="m 645.988,131.5 c -3.002,-0.008 -6.003,-0.023 -9.004,-0.097 v 0 c -1.057,-0.028 -1.716,-0.605 -1.697,-1.772 v 0 c 0.018,-1.125 0.641,-1.611 1.68,-1.85 v 0 c 0.694,-0.159 1.425,-0.097 2.154,-0.035 v 0 c 1.305,0.11 2.607,0.221 3.703,-0.922 v 0 c 3.817,1.269 7.633,2.06 11.452,0.007 v 0 c 1.604,0.95 3.342,0.929 5.083,0.909 v 0 c 0.5,-0.006 1.002,-0.012 1.5,0.006 v 0 c 1.464,0.051 3.399,-0.206 3.279,1.988 v 0 c -0.1,1.837 -1.569,1.797 -2.88,1.759 v 0 c -0.217,-0.007 -0.429,-0.013 -0.63,-0.01 v 0 c -2.422,0.023 -4.843,0.031 -7.265,0.031 v 0 c -2.458,0 -4.917,-0.008 -7.375,-0.014" />
            </g>
          </g>
        </g>
      </g>
      <g
         id="g230">
        <g
           id="g232">
          <g
             id="g238">
            <g
               id="g240">
              <path
                 id="path250"
                 style="fill:url(#linearGradient248);stroke:none"
                 d="m 639.744,151.984 c -2.017,-1.285 -3.666,-2.942 -4.957,-4.955 v 0 c -0.8,-3.212 1.697,-4.197 3.784,-5.11 v 0 c 1.255,-0.55 6.82,5.017 6.273,6.279 v 0 c -0.788,1.816 -1.635,3.939 -3.949,3.939 v 0 c -0.349,0 -0.731,-0.048 -1.151,-0.153" />
            </g>
          </g>
        </g>
      </g>
      <g
         id="g252">
        <g
           id="g254">
          <g
             id="g260">
            <g
               id="g262">
              <path
                 id="path272"
                 style="fill:url(#linearGradient270);stroke:none"
                 d="m 654.165,110.915 c -0.053,0 -0.106,10e-4 -0.159,10e-4 v 0 c -13.348,-0.011 -26.694,-0.012 -40.041,0 v 0 c -0.09,0 -0.181,-10e-4 -0.272,-0.002 v 0 c -1.023,-0.008 -2.079,-0.016 -2.67,1.132 v 0 c -1.412,-2.32 -1.514,-4.594 0.226,-6.808 v 0 c 0.364,4.254 0.363,4.325 4.363,4.337 v 0 c 8.794,0.025 17.589,0.021 26.384,0.016 v 0 c 3.597,-0.002 7.196,-0.003 10.794,-0.002 v 0 c 1.685,0 3.407,0.157 4.807,-1.097 v 0 c 0.099,1.24 0.526,2.537 -0.624,3.557 v 0 c -0.644,-1.138 -1.743,-1.136 -2.808,-1.134" />
            </g>
          </g>
        </g>
      </g>
      <g
         id="g274">
        <g
           id="g276">
          <g
             id="g282">
            <g
               id="g284">
              <path
                 id="path294"
                 style="fill:url(#linearGradient292);stroke:none"
                 d="m 619.108,158.461 c -0.025,-1.141 -0.05,-2.28 -0.074,-3.422 v 0 c 0.252,-1.152 1.138,-1.27 2.087,-1.286 v 0 c 0.754,0.119 1.509,0.237 2.265,0.355 v 0 c 0.386,3.674 0.342,4.438 -2.24,4.438 v 0 c -0.555,0 -1.228,-0.035 -2.038,-0.085" />
            </g>
          </g>
        </g>
      </g>
      <g
         id="g296">
        <g
           id="g298">
          <g
             id="g304">
            <g
               id="g306">
              <path
                 id="path316"
                 style="fill:url(#linearGradient314);stroke:none"
                 d="m 633.874,147.653 c 0.248,-0.292 0.552,-0.499 0.914,-0.624 v 0 c 2.09,1.213 3.738,2.869 4.956,4.955 v 0 c -0.128,0.362 -0.337,0.668 -0.628,0.916 v 0 c -2.064,-1.431 -3.81,-3.182 -5.242,-5.247" />
            </g>
          </g>
        </g>
      </g>
      <g
         id="g318">
        <g
           id="g320">
          <g
             id="g326">
            <g
               id="g328">
              <path
                 id="path338"
                 style="fill:url(#linearGradient336);stroke:none"
                 d="m 616.803,173.711 c -10e-4,0 -0.002,0 -0.004,-0.001 v 0 c -1.825,-1.301 -3.454,-2.793 -4.595,-4.755 v 0 c 0.27,-0.282 0.596,-0.466 0.976,-0.551 v 0 c 1.922,1.216 3.49,2.793 4.776,4.661 v 0 c 0.414,0.428 0.829,0.856 1.244,1.284 v 0 c -0.481,0.047 -0.961,0.093 -1.441,0.138 v 0 c -0.319,-0.259 -0.638,-0.516 -0.956,-0.776" />
            </g>
          </g>
        </g>
      </g>
    </g>
  </g>
</svg>
