<?xml version="1.0" encoding="UTF-8" standalone="no"?>
<svg
   xmlns:dc="http://purl.org/dc/elements/1.1/"
   xmlns:cc="http://creativecommons.org/ns#"
   xmlns:rdf="http://www.w3.org/1999/02/22-rdf-syntax-ns#"
   xmlns:svg="http://www.w3.org/2000/svg"
   xmlns="http://www.w3.org/2000/svg"
   xmlns:sodipodi="http://sodipodi.sourceforge.net/DTD/sodipodi-0.dtd"
   xmlns:inkscape="http://www.inkscape.org/namespaces/inkscape"
   sodipodi:docname="planet_ringed.svg"
   inkscape:version="1.0 (6e3e5246a0, 2020-05-07)"
   id="svg16609"
   version="1.1"
   viewBox="0 0 27.501089 23.051208"
   height="23.051208mm"
   width="27.501089mm">
  <defs
     id="defs16603">
    <linearGradient
       x1="0"
       y1="0"
       x2="1"
       y2="0"
       gradientUnits="userSpaceOnUse"
       gradientTransform="matrix(98.345192,0,0,-98.345192,1015.278,449.94574)"
       spreadMethod="pad"
       id="linearGradient3386">
      <stop
         style="stop-opacity:1;stop-color:#f6d348"
         offset="0"
         id="stop3380" />
      <stop
         style="stop-opacity:1;stop-color:#f6d348"
         offset="0.03027482"
         id="stop3382" />
      <stop
         style="stop-opacity:1;stop-color:#f263bd"
         offset="1"
         id="stop3384" />
    </linearGradient>
    <linearGradient
       x1="0"
       y1="0"
       x2="1"
       y2="0"
       gradientUnits="userSpaceOnUse"
       gradientTransform="matrix(98.345192,0,0,-98.345192,1015.278,431.72379)"
       spreadMethod="pad"
       id="linearGradient3408">
      <stop
         style="stop-opacity:1;stop-color:#63d7c2"
         offset="0"
         id="stop3402" />
      <stop
         style="stop-opacity:1;stop-color:#63d7c2"
         offset="0.67807152"
         id="stop3404" />
      <stop
         style="stop-opacity:1;stop-color:#1e0757"
         offset="1"
         id="stop3406" />
    </linearGradient>
    <linearGradient
       x1="0"
       y1="0"
       x2="1"
       y2="0"
       gradientUnits="userSpaceOnUse"
       gradientTransform="matrix(98.345192,0,0,-98.345192,1015.278,434.39294)"
       spreadMethod="pad"
       id="linearGradient3430">
      <stop
         style="stop-opacity:1;stop-color:#63d7c2"
         offset="0"
         id="stop3424" />
      <stop
         style="stop-opacity:1;stop-color:#63d7c2"
         offset="0.67807152"
         id="stop3426" />
      <stop
         style="stop-opacity:1;stop-color:#1e0757"
         offset="1"
         id="stop3428" />
    </linearGradient>
    <linearGradient
       x1="0"
       y1="0"
       x2="1"
       y2="0"
       gradientUnits="userSpaceOnUse"
       gradientTransform="matrix(98.345192,0,0,-98.345192,1015.278,412.28165)"
       spreadMethod="pad"
       id="linearGradient3452">
      <stop
         style="stop-opacity:1;stop-color:#63d7c2"
         offset="0"
         id="stop3446" />
      <stop
         style="stop-opacity:1;stop-color:#63d7c2"
         offset="0.67807152"
         id="stop3448" />
      <stop
         style="stop-opacity:1;stop-color:#1e0757"
         offset="1"
         id="stop3450" />
    </linearGradient>
    <linearGradient
       x1="0"
       y1="0"
       x2="1"
       y2="0"
       gradientUnits="userSpaceOnUse"
       gradientTransform="matrix(98.345192,0,0,-98.345192,1015.278,412.96738)"
       spreadMethod="pad"
       id="linearGradient3474">
      <stop
         style="stop-opacity:1;stop-color:#f6d348"
         offset="0"
         id="stop3468" />
      <stop
         style="stop-opacity:1;stop-color:#f6d348"
         offset="0.03027482"
         id="stop3470" />
      <stop
         style="stop-opacity:1;stop-color:#f263bd"
         offset="1"
         id="stop3472" />
    </linearGradient>
    <linearGradient
       x1="0"
       y1="0"
       x2="1"
       y2="0"
       gradientUnits="userSpaceOnUse"
       gradientTransform="matrix(98.345192,0,0,-98.345192,1015.278,428.59171)"
       spreadMethod="pad"
       id="linearGradient3496">
      <stop
         style="stop-opacity:1;stop-color:#63d7c2"
         offset="0"
         id="stop3490" />
      <stop
         style="stop-opacity:1;stop-color:#63d7c2"
         offset="0.67807152"
         id="stop3492" />
      <stop
         style="stop-opacity:1;stop-color:#1e0757"
         offset="1"
         id="stop3494" />
    </linearGradient>
    <linearGradient
       x1="0"
       y1="0"
       x2="1"
       y2="0"
       gradientUnits="userSpaceOnUse"
       gradientTransform="matrix(107.1597,-41.625038,-41.625038,-107.1597,1018.3307,446.69)"
       spreadMethod="pad"
       id="linearGradient3518">
      <stop
         style="stop-opacity:1;stop-color:#e35db8"
         offset="0"
         id="stop3512" />
      <stop
         style="stop-opacity:1;stop-color:#1e0757"
         offset="0.60396321"
         id="stop3514" />
      <stop
         style="stop-opacity:1;stop-color:#1e0757"
         offset="1"
         id="stop3516" />
    </linearGradient>
    <linearGradient
       x1="0"
       y1="0"
       x2="1"
       y2="0"
       gradientUnits="userSpaceOnUse"
       gradientTransform="matrix(13.774923,0,0,-13.774923,1030.5234,434.4393)"
       spreadMethod="pad"
       id="linearGradient3540">
      <stop
         style="stop-opacity:1;stop-color:#f6d348"
         offset="0"
         id="stop3534" />
      <stop
         style="stop-opacity:1;stop-color:#f6d348"
         offset="0.03027482"
         id="stop3536" />
      <stop
         style="stop-opacity:1;stop-color:#f263bd"
         offset="1"
         id="stop3538" />
    </linearGradient>
  </defs>
  <sodipodi:namedview
     inkscape:window-maximized="0"
     inkscape:window-y="27"
     inkscape:window-x="122"
     inkscape:window-height="1016"
     inkscape:window-width="1428"
     showgrid="false"
     inkscape:document-rotation="0"
     inkscape:current-layer="layer1"
     inkscape:document-units="mm"
     inkscape:cy="-539.2958"
     inkscape:cx="-325.17228"
     inkscape:zoom="0.35"
     inkscape:pageshadow="2"
     inkscape:pageopacity="0.0"
     borderopacity="1.0"
     bordercolor="#666666"
     pagecolor="#ffffff"
     id="base" />
  <metadata
     id="metadata16606">
    <rdf:RDF>
      <cc:Work
         rdf:about="">
        <dc:format>image/svg+xml</dc:format>
        <dc:type
           rdf:resource="http://purl.org/dc/dcmitype/StillImage" />
        <dc:title></dc:title>
      </cc:Work>
    </rdf:RDF>
  </metadata>
  <g
     transform="translate(-191.8685,-290.85535)"
     id="layer1"
     inkscape:groupmode="layer"
     inkscape:label="Layer 1">
    <g
       transform="matrix(0.35277777,0,0,-0.35277777,-170.30502,453.57868)"
       id="g10053">
      <g
         id="g3368">
        <g
           id="g3370">
          <g
             id="g3376">
            <g
               id="g3378">
              <path
                 id="path3388"
                 style="fill:url(#linearGradient3386);stroke:none"
                 d="m 1036.424,457.264 c -6.658,-1.811 -9.279,-9.432 -5.32,-15.234 v 0 c 2.264,0.395 2.078,1.794 1.633,3.546 v 0 c -1.363,5.386 1.025,8.761 6.471,9.162 v 0 c 1.656,0.12 3.385,0.147 4.992,-0.199 v 0 c 2.025,-0.432 3.607,-0.056 5.301,1.829 v 0 c -2.919,0.89 -5.72,1.494 -8.501,1.494 v 0 c -1.525,0 -3.045,-0.182 -4.576,-0.598" />
            </g>
          </g>
        </g>
      </g>
      <g
         id="g3390">
        <g
           id="g3392">
          <g
             id="g3398">
            <g
               id="g3400">
              <path
                 id="path3410"
                 style="fill:url(#linearGradient3408);stroke:none"
                 d="m 1041.025,443.306 c 4.782,-2.934 6.754,-6.918 5.17,-12.404 v 0 c -0.155,-0.534 0.33,-1.461 0.794,-1.932 v 0 c 9.747,-9.924 20.896,-17.71 34.12,-22.356 v 0 c 1.864,-0.656 3.088,-0.204 4.444,1.113 v 0 c 11.527,11.2 11.566,29.894 0.024,41.224 v 0 c -5.625,5.521 -12.987,8.18 -20.254,8.18 v 0 c -9.734,0 -19.299,-4.771 -24.298,-13.825" />
            </g>
          </g>
        </g>
      </g>
      <g
         id="g3412">
        <g
           id="g3414">
          <g
             id="g3420">
            <g
               id="g3422">
              <path
                 id="path3432"
                 style="fill:url(#linearGradient3430);stroke:none"
                 d="m 1030.838,434.773 c -0.2,-3.619 2.591,-6.692 6.185,-6.814 v 0 c 3.448,-0.116 6.464,2.697 6.603,6.161 v 0 c 0.142,3.466 -2.601,6.491 -6.078,6.699 v 0 c -0.119,0.007 -0.237,0.011 -0.355,0.011 v 0 c -3.271,0 -6.171,-2.725 -6.355,-6.057" />
            </g>
          </g>
        </g>
      </g>
      <g
         id="g3434">
        <g
           id="g3436">
          <g
             id="g3442">
            <g
               id="g3444">
              <path
                 id="path3454"
                 style="fill:url(#linearGradient3452);stroke:none"
                 d="m 1045.861,407.318 c 7.089,-6.465 15.396,-8.949 25,-6.863 v 0 c -12.481,6.246 -23.43,14.504 -33.365,24.374 v 0 c 0.394,-7.124 3.309,-12.898 8.365,-17.511" />
            </g>
          </g>
        </g>
      </g>
      <g
         id="g3456">
        <g
           id="g3458">
          <g
             id="g3464">
            <g
               id="g3466">
              <path
                 id="path3476"
                 style="fill:url(#linearGradient3474);stroke:none"
                 d="m 1042.019,425.725 c 0.169,-0.271 0.293,-0.588 0.512,-0.812 v 0 c 10.802,-11.052 23.22,-19.616 38.04,-24.367 v 0 c 4.479,-1.435 9.104,-2.292 13.836,-1.169 v 0 c 3.546,0.842 6.12,2.928 6.909,6.519 v 0 c 1.261,5.749 -1.378,10.455 -4.249,15.021 v 0 c -0.421,-0.089 -0.841,-0.178 -1.26,-0.267 v 0 c 0.268,-1.602 0.427,-3.233 0.839,-4.798 v 0 c 0.357,-1.362 1.097,-2.622 1.497,-3.978 v 0 c 1.795,-6.066 -0.979,-10.154 -7.293,-9.972 v 0 c -3.777,0.109 -7.661,0.898 -11.254,2.108 v 0 c -13.173,4.432 -24.242,12.269 -34.03,21.986 v 0 c -0.699,0.695 -1.29,1.077 -1.843,1.077 v 0 c -0.581,0 -1.121,-0.422 -1.704,-1.348" />
            </g>
          </g>
        </g>
      </g>
      <g
         id="g3478">
        <g
           id="g3480">
          <g
             id="g3486">
            <g
               id="g3488">
              <path
                 id="path3498"
                 style="fill:url(#linearGradient3496);stroke:none"
                 d="m 1026.739,451.084 c -0.456,-3.24 0.693,-6.697 1.065,-10.062 v 0 c 0.157,-1.43 0.477,-2.933 0.207,-4.301 v 0 c -0.77,-3.897 0.381,-7.878 3.658,-9.969 v 0 c 1.708,-1.09 2.277,-2.414 2.582,-4.22 v 0 c 3.123,-18.464 22.39,-30.234 40.373,-24.775 v 0 c 1.254,0.38 2.744,0.213 4.089,0.029 v 0 c 4.368,-0.596 8.731,-1.948 13.073,-1.861 v 0 c 8.945,0.176 13.844,6.402 12.617,15.228 v 0 c -0.697,5.016 -3.236,9.251 -5.894,13.444 v 0 c -0.713,1.126 -1.216,2.593 -1.241,3.915 v 0 c -0.392,21.649 -20.532,36.492 -41.249,30.386 v 0 c -1.112,-0.327 -2.44,-0.22 -3.608,0 v 0 c -3.765,0.709 -7.504,1.564 -11.251,2.365 v 0 c -7.97,-0.35 -13.521,-3.793 -14.421,-10.179 m 9.685,6.18 c 4.322,1.175 8.556,0.481 13.077,-0.896 v 0 c -1.694,-1.885 -3.276,-2.261 -5.301,-1.829 v 0 c -1.607,0.346 -3.336,0.319 -4.992,0.199 v 0 c -5.446,-0.401 -7.834,-3.776 -6.471,-9.162 v 0 c 0.445,-1.752 0.631,-3.151 -1.633,-3.546 v 0 c -3.959,5.802 -1.338,13.423 5.32,15.234 m 44.685,-50.65 c -13.224,4.646 -24.373,12.432 -34.12,22.356 v 0 c -0.464,0.471 -0.949,1.398 -0.794,1.932 v 0 c 1.584,5.486 -0.388,9.47 -5.17,12.404 v 0 c 8.73,15.813 31.391,18.562 44.552,5.645 v 0 c 11.542,-11.33 11.503,-30.024 -0.024,-41.224 v 0 c -0.941,-0.914 -1.818,-1.411 -2.89,-1.411 v 0 c -0.473,0 -0.983,0.097 -1.554,0.298 m -45.131,43.392 c 1.636,2.469 4.373,1.736 7.26,1.598 v 0 c -2.142,-2.798 -4.062,-5.307 -6.311,-8.244 v 0 c -1.314,2.517 -2.259,4.665 -0.949,6.646 m 1.045,-22.047 c -3.594,0.122 -6.385,3.195 -6.185,6.814 v 0 c 0.19,3.452 3.297,6.252 6.71,6.046 v 0 c 3.477,-0.208 6.22,-3.233 6.078,-6.699 v 0 c -0.136,-3.394 -3.036,-6.164 -6.397,-6.164 v 0 c -0.068,0 -0.137,10e-4 -0.206,0.003 m 43.548,-27.413 c -14.82,4.751 -27.238,13.315 -38.04,24.367 v 0 c -0.219,0.224 -0.343,0.541 -0.512,0.812 v 0 c 1.137,1.806 2.112,1.697 3.547,0.271 v 0 c 9.788,-9.717 20.857,-17.554 34.03,-21.986 v 0 c 3.593,-1.21 7.477,-1.999 11.254,-2.108 v 0 c 6.314,-0.182 9.088,3.906 7.293,9.972 v 0 c -0.4,1.356 -1.14,2.616 -1.497,3.978 v 0 c -0.412,1.565 -0.571,3.196 -0.839,4.798 v 0 c 0.419,0.089 0.839,0.178 1.26,0.267 v 0 c 2.871,-4.566 5.51,-9.272 4.249,-15.021 v 0 c -0.789,-3.591 -3.363,-5.677 -6.909,-6.519 v 0 c -1.513,-0.359 -3.015,-0.516 -4.505,-0.516 v 0 c -3.17,0 -6.284,0.709 -9.331,1.685 m -34.71,6.772 c -5.056,4.613 -7.971,10.387 -8.365,17.511 v 0 c 9.935,-9.87 20.884,-18.128 33.365,-24.374 v 0 c -2.225,-0.483 -4.381,-0.721 -6.468,-0.721 v 0 c -6.92,0 -13.086,2.617 -18.532,7.584 m 41.909,-2.197 c 2.259,3.082 4.21,5.744 6.346,8.66 v 0 c 1.095,-2.419 2.441,-4.848 0.907,-7.13 v 0 c -0.959,-1.422 -2.351,-1.764 -3.937,-1.764 v 0 c -1.044,0 -2.172,0.148 -3.316,0.234" />
            </g>
          </g>
        </g>
      </g>
      <g
         id="g3500">
        <g
           id="g3502">
          <g
             id="g3508">
            <g
               id="g3510">
              <path
                 id="path3520"
                 style="fill:url(#linearGradient3518);stroke:none"
                 d="m 1026.739,451.084 c -0.456,-3.24 0.693,-6.697 1.065,-10.062 v 0 c 0.157,-1.43 0.477,-2.933 0.207,-4.301 v 0 c -0.77,-3.897 0.381,-7.878 3.658,-9.969 v 0 c 1.708,-1.09 2.277,-2.414 2.582,-4.22 v 0 c 3.123,-18.464 22.39,-30.234 40.373,-24.775 v 0 c 1.254,0.38 2.744,0.213 4.089,0.029 v 0 c 4.368,-0.596 8.731,-1.948 13.073,-1.861 v 0 c 8.945,0.176 13.844,6.402 12.617,15.228 v 0 c -0.697,5.016 -3.236,9.251 -5.894,13.444 v 0 c -0.713,1.126 -1.216,2.593 -1.241,3.915 v 0 c -0.392,21.649 -20.532,36.492 -41.249,30.386 v 0 c -1.112,-0.327 -2.44,-0.22 -3.608,0 v 0 c -3.765,0.709 -7.504,1.564 -11.251,2.365 v 0 c -7.97,-0.35 -13.521,-3.793 -14.421,-10.179 m 9.685,6.18 c 4.322,1.175 8.556,0.481 13.077,-0.896 v 0 c -1.694,-1.885 -3.276,-2.261 -5.301,-1.829 v 0 c -1.607,0.346 -3.336,0.319 -4.992,0.199 v 0 c -5.446,-0.401 -7.834,-3.776 -6.471,-9.162 v 0 c 0.445,-1.752 0.631,-3.151 -1.633,-3.546 v 0 c -3.959,5.802 -1.338,13.423 5.32,15.234 m 44.685,-50.65 c -13.224,4.646 -24.373,12.432 -34.12,22.356 v 0 c -0.464,0.471 -0.949,1.398 -0.794,1.932 v 0 c 1.584,5.486 -0.388,9.47 -5.17,12.404 v 0 c 8.73,15.813 31.391,18.562 44.552,5.645 v 0 c 11.542,-11.33 11.503,-30.024 -0.024,-41.224 v 0 c -0.941,-0.914 -1.818,-1.411 -2.89,-1.411 v 0 c -0.473,0 -0.983,0.097 -1.554,0.298 m -45.131,43.392 c 1.636,2.469 4.373,1.736 7.26,1.598 v 0 c -2.142,-2.798 -4.062,-5.307 -6.311,-8.244 v 0 c -1.314,2.517 -2.259,4.665 -0.949,6.646 m 1.045,-22.047 c -3.594,0.122 -6.385,3.195 -6.185,6.814 v 0 c 0.19,3.452 3.297,6.252 6.71,6.046 v 0 c 3.477,-0.208 6.22,-3.233 6.078,-6.699 v 0 c -0.136,-3.394 -3.036,-6.164 -6.397,-6.164 v 0 c -0.068,0 -0.137,10e-4 -0.206,0.003 m 43.548,-27.413 c -14.82,4.751 -27.238,13.315 -38.04,24.367 v 0 c -0.219,0.224 -0.343,0.541 -0.512,0.812 v 0 c 1.137,1.806 2.112,1.697 3.547,0.271 v 0 c 9.788,-9.717 20.857,-17.554 34.03,-21.986 v 0 c 3.593,-1.21 7.477,-1.999 11.254,-2.108 v 0 c 6.314,-0.182 9.088,3.906 7.293,9.972 v 0 c -0.4,1.356 -1.14,2.616 -1.497,3.978 v 0 c -0.412,1.565 -0.571,3.196 -0.839,4.798 v 0 c 0.419,0.089 0.839,0.178 1.26,0.267 v 0 c 2.871,-4.566 5.51,-9.272 4.249,-15.021 v 0 c -0.789,-3.591 -3.363,-5.677 -6.909,-6.519 v 0 c -1.513,-0.359 -3.015,-0.516 -4.505,-0.516 v 0 c -3.17,0 -6.284,0.709 -9.331,1.685 m -34.71,6.772 c -5.056,4.613 -7.971,10.387 -8.365,17.511 v 0 c 9.935,-9.87 20.884,-18.128 33.365,-24.374 v 0 c -2.225,-0.483 -4.381,-0.721 -6.468,-0.721 v 0 c -6.92,0 -13.086,2.617 -18.532,7.584 m 41.909,-2.197 c 2.259,3.082 4.21,5.744 6.346,8.66 v 0 c 1.095,-2.419 2.441,-4.848 0.907,-7.13 v 0 c -0.959,-1.422 -2.351,-1.764 -3.937,-1.764 v 0 c -1.044,0 -2.172,0.148 -3.316,0.234" />
            </g>
          </g>
        </g>
      </g>
      <g
         id="g3522">
        <g
           id="g3524">
          <g
             id="g3530">
            <g
               id="g3532">
              <path
                 id="path3542"
                 style="fill:url(#linearGradient3540);stroke:none"
                 d="m 1030.526,435.257 c -0.12,-3.986 3.22,-7.391 7.161,-7.299 v 0 c 3.837,0.089 6.599,2.829 6.611,6.558 v 0 c 0.014,4.284 -1.978,6.255 -6.475,6.399 v 0 c -0.156,0.005 -0.31,0.008 -0.462,0.008 v 0 c -4.291,0 -6.723,-2.008 -6.835,-5.666" />
            </g>
          </g>
        </g>
      </g>
    </g>
  </g>
</svg>
