<?xml version="1.0" encoding="UTF-8" standalone="no"?>
<svg
   xmlns:dc="http://purl.org/dc/elements/1.1/"
   xmlns:cc="http://creativecommons.org/ns#"
   xmlns:rdf="http://www.w3.org/1999/02/22-rdf-syntax-ns#"
   xmlns:svg="http://www.w3.org/2000/svg"
   xmlns="http://www.w3.org/2000/svg"
   xmlns:sodipodi="http://sodipodi.sourceforge.net/DTD/sodipodi-0.dtd"
   xmlns:inkscape="http://www.inkscape.org/namespaces/inkscape"
   sodipodi:docname="present.svg"
   inkscape:version="1.0 (6e3e5246a0, 2020-05-07)"
   id="svg17891"
   version="1.1"
   viewBox="0 0 29.94985 29.878817"
   height="29.878817mm"
   width="29.94985mm">
  <defs
     id="defs17885">
    <linearGradient
       x1="0"
       y1="0"
       x2="1"
       y2="0"
       gradientUnits="userSpaceOnUse"
       gradientTransform="matrix(49.937294,7.7488904,7.7488904,-49.937294,175.3528,283.97687)"
       spreadMethod="pad"
       id="linearGradient5042">
      <stop
         style="stop-opacity:1;stop-color:#4d1f81"
         offset="0"
         id="stop5036" />
      <stop
         style="stop-opacity:1;stop-color:#f263bd"
         offset="0.32192848"
         id="stop5038" />
      <stop
         style="stop-opacity:1;stop-color:#f263bd"
         offset="1"
         id="stop5040" />
    </linearGradient>
    <linearGradient
       x1="0"
       y1="0"
       x2="1"
       y2="0"
       gradientUnits="userSpaceOnUse"
       gradientTransform="matrix(34.583012,18.798235,18.798235,-34.583012,207.73856,316.4462)"
       spreadMethod="pad"
       id="linearGradient5064">
      <stop
         style="stop-opacity:1;stop-color:#4d1f81"
         offset="0"
         id="stop5058" />
      <stop
         style="stop-opacity:1;stop-color:#f263bd"
         offset="0.32192848"
         id="stop5060" />
      <stop
         style="stop-opacity:1;stop-color:#f263bd"
         offset="1"
         id="stop5062" />
    </linearGradient>
    <linearGradient
       x1="0"
       y1="0"
       x2="1"
       y2="0"
       gradientUnits="userSpaceOnUse"
       gradientTransform="matrix(53.071079,0,0,-53.071079,190.83189,288.83401)"
       spreadMethod="pad"
       id="linearGradient5086">
      <stop
         style="stop-opacity:1;stop-color:#63d7c2"
         offset="0"
         id="stop5080" />
      <stop
         style="stop-opacity:1;stop-color:#63d7c2"
         offset="0.67807152"
         id="stop5082" />
      <stop
         style="stop-opacity:1;stop-color:#1e0757"
         offset="1"
         id="stop5084" />
    </linearGradient>
    <linearGradient
       x1="0"
       y1="0"
       x2="1"
       y2="0"
       gradientUnits="userSpaceOnUse"
       gradientTransform="matrix(-52.089764,-38.887951,-38.887951,52.089764,239.37495,289.14603)"
       spreadMethod="pad"
       id="linearGradient5108">
      <stop
         style="stop-opacity:1;stop-color:#4d1f81"
         offset="0"
         id="stop5102" />
      <stop
         style="stop-opacity:1;stop-color:#f263bd"
         offset="0.32192848"
         id="stop5104" />
      <stop
         style="stop-opacity:1;stop-color:#f263bd"
         offset="1"
         id="stop5106" />
    </linearGradient>
    <linearGradient
       x1="0"
       y1="0"
       x2="1"
       y2="0"
       gradientUnits="userSpaceOnUse"
       gradientTransform="matrix(47.354328,16.071772,16.071772,-47.354328,230.61484,282.31226)"
       spreadMethod="pad"
       id="linearGradient5130">
      <stop
         style="stop-opacity:1;stop-color:#4d1f81"
         offset="0"
         id="stop5124" />
      <stop
         style="stop-opacity:1;stop-color:#f263bd"
         offset="0.32192848"
         id="stop5126" />
      <stop
         style="stop-opacity:1;stop-color:#f263bd"
         offset="1"
         id="stop5128" />
    </linearGradient>
    <linearGradient
       x1="0"
       y1="0"
       x2="1"
       y2="0"
       gradientUnits="userSpaceOnUse"
       gradientTransform="matrix(29.273586,-7.0314007,-7.0314007,-29.273586,223.98367,316.43634)"
       spreadMethod="pad"
       id="linearGradient5152">
      <stop
         style="stop-opacity:1;stop-color:#4d1f81"
         offset="0"
         id="stop5146" />
      <stop
         style="stop-opacity:1;stop-color:#f263bd"
         offset="0.32192848"
         id="stop5148" />
      <stop
         style="stop-opacity:1;stop-color:#f263bd"
         offset="1"
         id="stop5150" />
    </linearGradient>
    <linearGradient
       x1="0"
       y1="0"
       x2="1"
       y2="0"
       gradientUnits="userSpaceOnUse"
       gradientTransform="matrix(-22.529182,-9.3273687,-9.3273687,22.529182,211.95251,317.72549)"
       spreadMethod="pad"
       id="linearGradient5174">
      <stop
         style="stop-opacity:1;stop-color:#4d1f81"
         offset="0"
         id="stop5168" />
      <stop
         style="stop-opacity:1;stop-color:#f263bd"
         offset="0.32192848"
         id="stop5170" />
      <stop
         style="stop-opacity:1;stop-color:#f263bd"
         offset="1"
         id="stop5172" />
    </linearGradient>
  </defs>
  <sodipodi:namedview
     inkscape:window-maximized="0"
     inkscape:window-y="27"
     inkscape:window-x="122"
     inkscape:window-height="1016"
     inkscape:window-width="1428"
     showgrid="false"
     inkscape:document-rotation="0"
     inkscape:current-layer="layer1"
     inkscape:document-units="mm"
     inkscape:cy="56.463894"
     inkscape:cx="56.598142"
     inkscape:zoom="0.35"
     inkscape:pageshadow="2"
     inkscape:pageopacity="0.0"
     borderopacity="1.0"
     bordercolor="#666666"
     pagecolor="#ffffff"
     id="base" />
  <metadata
     id="metadata17888">
    <rdf:RDF>
      <cc:Work
         rdf:about="">
        <dc:format>image/svg+xml</dc:format>
        <dc:type
           rdf:resource="http://purl.org/dc/dcmitype/StillImage" />
        <dc:title></dc:title>
      </cc:Work>
    </rdf:RDF>
  </metadata>
  <g
     transform="translate(-90.858408,-133.22726)"
     id="layer1"
     inkscape:groupmode="layer"
     inkscape:label="Layer 1">
    <g
       transform="matrix(0.35277777,0,0,-0.35277777,29.145229,249.20507)"
       id="g10211">
      <g
         id="g5024">
        <g
           id="g5026">
          <g
             id="g5032">
            <g
               id="g5034">
              <path
                 id="path5044"
                 style="fill:url(#linearGradient5042);stroke:none"
                 d="m 177.626,308.769 c -0.007,-0.003 -0.016,-0.007 -0.024,-0.012 v 0 c -1.589,-0.756 -2.667,-2.284 -2.667,-4.042 v 0 -10.404 c 0,-0.474 0.326,-0.87 0.78,-1.005 v 0 c 1.561,-0.464 1.904,-1.729 1.883,-3.518 v 0 c -0.092,-7.922 0.018,-15.848 -0.067,-23.771 v 0 c -0.019,-1.746 0.384,-2.83 2.072,-3.598 v 0 c 3.796,-1.723 7.503,-3.643 11.247,-5.483 v 0 c 0.016,13.106 0.099,26.212 -0.018,39.316 v 0 c -0.021,2.458 0.753,3.744 2.948,4.772 v 0 c 3.763,1.759 7.367,3.855 11.477,6.045 v 0 c -5.866,1.362 -10.587,3.609 -13.075,8.964 v 0 c -4.849,-2.429 -9.687,-4.878 -14.556,-7.264" />
            </g>
          </g>
        </g>
      </g>
      <g
         id="g5046">
        <g
           id="g5048">
          <g
             id="g5054">
            <g
               id="g5056">
              <path
                 id="path5066"
                 style="fill:url(#linearGradient5064);stroke:none"
                 d="m 216.693,328.603 c -2.498,-2.151 -5.8,-2.86 -8.46,-4.722 v 0 c 2.94,-2.293 5.665,-4.81 7.663,-7.988 v 0 c 0.983,-1.563 1.696,-2.108 2.823,-0.116 v 0 c 1.857,3.278 4.894,5.524 7.44,8.198 v 0 c -2.506,1.905 -5.746,2.523 -8.139,4.628 v 0 c -0.238,0.105 -0.462,0.153 -0.676,0.153 v 0 c -0.228,0 -0.444,-0.055 -0.651,-0.153" />
            </g>
          </g>
        </g>
      </g>
      <g
         id="g5068">
        <g
           id="g5070">
          <g
             id="g5076">
            <g
               id="g5078">
              <path
                 id="path5088"
                 style="fill:url(#linearGradient5086);stroke:none"
                 d="m 230.806,325.648 c -1.582,-0.435 -3.099,-1.109 -4.647,-1.673 v 0 c -2.546,-2.674 -5.583,-4.92 -7.44,-8.198 v 0 c -1.127,-1.992 -1.84,-1.447 -2.823,0.116 v 0 c -1.998,3.178 -4.723,5.695 -7.663,7.988 v 0 c -1.023,0.386 -2.046,0.776 -3.07,1.159 v 0 c -6.898,2.579 -14.46,-1.831 -12.981,-9.007 v 0 c 2.488,-5.355 7.209,-7.602 13.075,-8.964 v 0 c -4.11,-2.19 -7.714,-4.286 -11.477,-6.045 v 0 c -2.195,-1.028 -2.969,-2.314 -2.948,-4.772 v 0 c 0.117,-13.104 0.034,-26.21 0.018,-39.315 v 0 c 3.279,-2.203 6.824,-3.877 10.501,-5.289 v 0 c 0.015,13.141 0.082,26.282 -0.007,39.421 v 0 c -0.013,2.152 0.542,3.397 2.542,4.374 v 0 c 3.961,1.933 7.804,4.116 11.633,6.302 v 0 c 1.299,0.742 2.329,0.772 3.642,0.021 v 0 c 3.926,-2.241 7.88,-4.445 11.922,-6.464 v 0 c 1.756,-0.876 2.256,-1.995 2.246,-3.875 v 0 c -0.068,-13.251 -0.028,-26.502 -0.023,-39.753 v 0 c 3.727,1.427 7.376,3.008 10.597,5.425 v 0 c -0.02,13.116 -0.101,26.232 0,39.347 v 0 c 0.018,2.331 -0.716,3.546 -2.805,4.528 v 0 c -3.871,1.824 -7.593,3.969 -11.965,6.293 v 0 c 5.735,1.615 10.35,4.111 13.405,8.814 v 0 c 0.976,6.204 -3.846,9.939 -8.966,9.939 v 0 c -0.923,-10e-4 -1.856,-0.122 -2.766,-0.372 m -28.913,-11.043 c -1.023,0.944 -2.402,2.082 -1.262,3.616 v 0 c 1.205,1.62 2.973,1.309 4.429,0.273 v 0 c 2.362,-1.68 4.162,-3.871 5.356,-7.055 v 0 c -3.379,0.423 -6.245,1.06 -8.523,3.166 m 28.089,4.099 c 1.455,0.848 3.08,0.986 4.148,-0.528 v 0 c 0.993,-1.405 -0.174,-2.491 -1.122,-3.392 v 0 c -2.341,-2.223 -5.25,-3.02 -8.74,-3.317 v 0 c 1.347,3.302 3.05,5.683 5.714,7.237" />
            </g>
          </g>
        </g>
      </g>
      <g
         id="g5090">
        <g
           id="g5092">
          <g
             id="g5098">
            <g
               id="g5100">
              <path
                 id="path5110"
                 style="fill:url(#linearGradient5108);stroke:none"
                 d="m 215.519,301.745 c -3.829,-2.186 -7.672,-4.369 -11.633,-6.302 v 0 c -2,-0.977 -2.555,-2.222 -2.542,-4.374 v 0 c 0.089,-13.139 0.022,-26.28 0.007,-39.421 v 0 c 4.615,-2.327 9.269,-4.583 13.824,-7.025 v 0 c 1.567,-0.84 2.766,-0.684 4.262,0.099 v 0 c 4.583,2.395 9.24,4.645 13.869,6.952 v 0 c -0.005,13.251 -0.045,26.502 0.023,39.753 v 0 c 0.01,1.88 -0.49,2.999 -2.246,3.875 v 0 c -4.042,2.019 -7.996,4.223 -11.922,6.464 v 0 c -0.646,0.369 -1.222,0.55 -1.796,0.55 v 0 c -0.594,0 -1.185,-0.194 -1.846,-0.571" />
            </g>
          </g>
        </g>
      </g>
      <g
         id="g5112">
        <g
           id="g5114">
          <g
             id="g5120">
            <g
               id="g5122">
              <path
                 id="path5132"
                 style="fill:url(#linearGradient5130);stroke:none"
                 d="m 229.133,307.267 c 4.372,-2.324 8.094,-4.469 11.965,-6.293 v 0 c 2.089,-0.982 2.823,-2.197 2.805,-4.528 v 0 c -0.101,-13.115 -0.02,-26.231 0,-39.347 v 0 c 3.656,1.79 7.272,3.674 10.99,5.327 v 0 c 1.804,0.803 2.307,1.92 2.284,3.817 v 0 c -0.096,7.833 -0.053,15.668 -0.008,23.502 v 0 c 0.006,1.025 -0.551,2.464 0.775,2.955 v 0 c 2.123,0.786 1.854,2.409 1.841,4.05 v 0 c -0.022,2.759 -0.129,5.526 0.036,8.273 v 0 c 0.112,1.844 -0.614,2.756 -2.21,3.523 v 0 c -5.063,2.434 -10.054,5.012 -15.073,7.535 v 0 c -3.055,-4.703 -7.67,-7.199 -13.405,-8.814" />
            </g>
          </g>
        </g>
      </g>
      <g
         id="g5134">
        <g
           id="g5136">
          <g
             id="g5142">
            <g
               id="g5144">
              <path
                 id="path5154"
                 style="fill:url(#linearGradient5152);stroke:none"
                 d="m 229.982,318.704 c -2.664,-1.554 -4.367,-3.935 -5.714,-7.237 v 0 c 3.49,0.297 6.399,1.094 8.74,3.317 v 0 c 0.948,0.901 2.115,1.987 1.122,3.392 v 0 c -0.579,0.821 -1.321,1.156 -2.112,1.156 v 0 c -0.668,0 -1.37,-0.239 -2.036,-0.628" />
            </g>
          </g>
        </g>
      </g>
      <g
         id="g5156">
        <g
           id="g5158">
          <g
             id="g5164">
            <g
               id="g5166">
              <path
                 id="path5176"
                 style="fill:url(#linearGradient5174);stroke:none"
                 d="m 200.631,318.221 c -1.14,-1.534 0.239,-2.672 1.262,-3.616 v 0 c 2.278,-2.106 5.144,-2.743 8.523,-3.166 v 0 c -1.194,3.184 -2.994,5.375 -5.356,7.055 v 0 c -0.733,0.522 -1.546,0.859 -2.326,0.859 v 0 c -0.768,0 -1.505,-0.328 -2.103,-1.132" />
            </g>
          </g>
        </g>
      </g>
    </g>
  </g>
</svg>
