<?xml version="1.0" encoding="UTF-8" standalone="no"?>
<svg
   xmlns:dc="http://purl.org/dc/elements/1.1/"
   xmlns:cc="http://creativecommons.org/ns#"
   xmlns:rdf="http://www.w3.org/1999/02/22-rdf-syntax-ns#"
   xmlns:svg="http://www.w3.org/2000/svg"
   xmlns="http://www.w3.org/2000/svg"
   xmlns:sodipodi="http://sodipodi.sourceforge.net/DTD/sodipodi-0.dtd"
   xmlns:inkscape="http://www.inkscape.org/namespaces/inkscape"
   sodipodi:docname="puzzle_pieces.svg"
   inkscape:version="1.0 (6e3e5246a0, 2020-05-07)"
   id="svg17715"
   version="1.1"
   viewBox="0 0 19.459253 19.444757"
   height="19.444757mm"
   width="19.459253mm">
  <defs
     id="defs17709">
    <linearGradient
       x1="0"
       y1="0"
       x2="1"
       y2="0"
       gradientUnits="userSpaceOnUse"
       gradientTransform="matrix(58.834167,30.995562,30.995562,-58.834167,1677.0077,404.72519)"
       spreadMethod="pad"
       id="linearGradient1062">
      <stop
         style="stop-opacity:1;stop-color:#4d1f81"
         offset="0"
         id="stop1056" />
      <stop
         style="stop-opacity:1;stop-color:#f263bd"
         offset="0.32192848"
         id="stop1058" />
      <stop
         style="stop-opacity:1;stop-color:#f263bd"
         offset="1"
         id="stop1060" />
    </linearGradient>
    <linearGradient
       x1="0"
       y1="0"
       x2="1"
       y2="0"
       gradientUnits="userSpaceOnUse"
       gradientTransform="matrix(-34.152515,6.0269146,6.0269146,34.152515,1739.9689,409.81775)"
       spreadMethod="pad"
       id="linearGradient1084">
      <stop
         style="stop-opacity:1;stop-color:#63d7c2"
         offset="0"
         id="stop1078" />
      <stop
         style="stop-opacity:1;stop-color:#63d7c2"
         offset="0.40817897"
         id="stop1080" />
      <stop
         style="stop-opacity:1;stop-color:#1e0757"
         offset="1"
         id="stop1082" />
    </linearGradient>
    <linearGradient
       x1="0"
       y1="0"
       x2="1"
       y2="0"
       gradientUnits="userSpaceOnUse"
       gradientTransform="matrix(29.163378,0,0,-29.163378,1681.817,444.78888)"
       spreadMethod="pad"
       id="linearGradient1106">
      <stop
         style="stop-opacity:1;stop-color:#63d7c2"
         offset="0"
         id="stop1100" />
      <stop
         style="stop-opacity:1;stop-color:#63d7c2"
         offset="0.30661009"
         id="stop1102" />
      <stop
         style="stop-opacity:1;stop-color:#1e0757"
         offset="1"
         id="stop1104" />
    </linearGradient>
    <linearGradient
       x1="0"
       y1="0"
       x2="1"
       y2="0"
       gradientUnits="userSpaceOnUse"
       gradientTransform="matrix(-33.004536,6.7444048,6.7444048,33.004536,1739.4078,439.6879)"
       spreadMethod="pad"
       id="linearGradient1128">
      <stop
         style="stop-opacity:1;stop-color:#4d1f81"
         offset="0"
         id="stop1122" />
      <stop
         style="stop-opacity:1;stop-color:#f263bd"
         offset="0.60300174"
         id="stop1124" />
      <stop
         style="stop-opacity:1;stop-color:#f263bd"
         offset="1"
         id="stop1126" />
    </linearGradient>
  </defs>
  <sodipodi:namedview
     inkscape:window-maximized="0"
     inkscape:window-y="27"
     inkscape:window-x="122"
     inkscape:window-height="1016"
     inkscape:window-width="1428"
     showgrid="false"
     inkscape:document-rotation="0"
     inkscape:current-layer="layer1"
     inkscape:document-units="mm"
     inkscape:cy="-237.53972"
     inkscape:cx="-1163.2266"
     inkscape:zoom="0.35"
     inkscape:pageshadow="2"
     inkscape:pageopacity="0.0"
     borderopacity="1.0"
     bordercolor="#666666"
     pagecolor="#ffffff"
     id="base" />
  <metadata
     id="metadata17712">
    <rdf:RDF>
      <cc:Work
         rdf:about="">
        <dc:format>image/svg+xml</dc:format>
        <dc:type
           rdf:resource="http://purl.org/dc/dcmitype/StillImage" />
        <dc:title></dc:title>
      </cc:Work>
    </rdf:RDF>
  </metadata>
  <g
     transform="translate(-413.60371,-211.01572)"
     id="layer1"
     inkscape:groupmode="layer"
     inkscape:label="Layer 1">
    <g
       transform="matrix(0.35277777,0,0,-0.35277777,-179.70394,371.93565)"
       id="g10174">
      <g
         id="g1044">
        <g
           id="g1046">
          <g
             id="g1052">
            <g
               id="g1054">
              <path
                 id="path1064"
                 style="fill:url(#linearGradient1062);stroke:none"
                 d="m 1689.303,428.193 c -0.812,-1.141 -1.073,-2.399 -0.837,-3.771 v 0 c 0.112,-0.656 0.101,-0.667 -0.551,-0.667 v 0 c -1.31,-10e-4 -2.62,-0.047 -3.927,0.015 v 0 c -1.01,0.046 -1.74,-0.273 -2.171,-1.203 v 0 -20.136 c 0.166,-0.766 0.636,-1.23 1.4,-1.399 v 0 h 20.137 c 0.682,0.332 1.191,0.798 1.192,1.624 v 0 c 0,2.421 0.01,4.842 -0.01,7.263 v 0 c -0.01,0.972 -0.747,1.63 -1.716,1.593 v 0 c -0.31,-0.012 -0.598,-0.111 -0.885,-0.208 v 0 c -0.596,-0.199 -1.206,-0.34 -1.825,-0.437 v 0 c -0.688,-0.106 -1.293,0.057 -1.713,0.645 v 0 c -0.417,0.584 -0.438,1.204 -0.041,1.809 v 0 c 0.41,0.626 1.021,0.807 1.733,0.71 v 0 c 0.764,-0.106 1.497,-0.344 2.237,-0.557 v 0 c 1.25,-0.359 2.209,0.353 2.213,1.641 v 0 c 0.01,2.296 0,4.591 0,6.887 v 0 c 0,1.078 -0.669,1.747 -1.741,1.751 v 0 c -1.363,0.006 -2.727,0.002 -4.09,0.002 v 0 c -0.818,0 -0.818,0 -0.678,0.813 v 0 c 0.369,2.126 -0.868,4.4 -2.841,5.225 v 0 c -0.656,0.275 -1.332,0.407 -1.992,0.407 v 0 c -1.53,0 -2.974,-0.71 -3.895,-2.007" />
            </g>
          </g>
        </g>
      </g>
      <g
         id="g1066">
        <g
           id="g1068">
          <g
             id="g1074">
            <g
               id="g1076">
              <path
                 id="path1086"
                 style="fill:url(#linearGradient1084);stroke:none"
                 d="m 1735.045,423.769 c -2.223,-0.059 -4.449,-0.018 -6.673,-0.018 v 0 c -1.487,0 -2.189,-0.954 -1.745,-2.374 v 0 c 0.215,-0.682 0.393,-1.372 0.51,-2.076 v 0 c 0.114,-0.685 -0.211,-1.424 -0.713,-1.732 v 0 c -0.686,-0.42 -1.325,-0.37 -1.932,0.137 v 0 c -0.535,0.448 -0.645,1.033 -0.537,1.694 v 0 c 0.12,0.742 0.338,1.46 0.547,2.178 v 0 c 0.334,1.147 -0.37,2.163 -1.529,2.169 v 0 c -2.35,0.013 -4.699,0.011 -7.05,0 v 0 c -0.975,-0.004 -1.69,-0.743 -1.693,-1.709 v 0 c 0,-1.436 -0.038,-2.872 0.017,-4.305 v 0 c 0.023,-0.583 -0.186,-0.642 -0.652,-0.547 v 0 c -1.471,0.3 -2.791,-0.041 -3.974,-0.958 v 0 c -2.488,-1.926 -2.514,-5.7 0.107,-7.662 v 0 c 1.138,-0.852 2.426,-1.164 3.847,-0.872 v 0 c 0.646,0.132 0.652,0.1 0.652,-0.567 v 0 c 0,-1.274 0.044,-2.55 -0.013,-3.82 v 0 c -0.047,-1.027 0.201,-1.831 1.2,-2.275 v 0 h 20.351 c 0.937,0.426 1.206,1.165 1.202,2.166 v 0 c -0.032,6.225 -0.04,12.45 0.01,18.673 v 0 c 0.01,0.976 -0.818,1.898 -1.88,1.898 v 0 c -0.016,0 -0.032,0 -0.048,0" />
            </g>
          </g>
        </g>
      </g>
      <g
         id="g1088">
        <g
           id="g1090">
          <g
             id="g1096">
            <g
               id="g1098">
              <path
                 id="path1108"
                 style="fill:url(#linearGradient1106);stroke:none"
                 d="m 1681.817,435.316 c 0.315,-1.056 0.79,-1.839 1.573,-1.849 v 0 c 2.439,-0.03 4.88,-0.02 7.321,-0.005 v 0 c 0.706,0.005 1.309,0.702 1.498,1.73 v 0 c 0.127,0.691 0.066,1.388 -0.086,2.073 v 0 c -0.282,1.274 -0.564,2.55 -0.512,3.937 v 0 c 0.047,1.228 0.807,2.401 1.588,2.419 v 0 c 0.991,0.022 1.787,-1.492 1.634,-3.179 v 0 c -0.103,-1.139 -0.334,-2.236 -0.548,-3.337 v 0 c -0.402,-2.066 0.33,-3.647 1.684,-3.648 v 0 c 0.679,-10e-4 1.357,0.005 2.037,0.01 v 0 c 1.564,0.013 3.128,0.026 4.691,-0.04 v 0 c 1.103,-0.046 1.882,1.439 1.849,2.907 v 0 c -0.043,1.862 -0.011,3.726 -0.011,5.588 v 0 c 0,1.829 0,1.829 1.162,1.702 v 0 c 3.316,-0.366 5.837,4.146 5.178,9.264 v 0 c -0.28,2.176 -1.117,3.262 -2.518,3.262 v 0 c -8.847,0.001 -17.693,0.001 -26.54,0.001 v 0 z" />
            </g>
          </g>
        </g>
      </g>
      <g
         id="g1110">
        <g
           id="g1112">
          <g
             id="g1118">
            <g
               id="g1120">
              <path
                 id="path1130"
                 style="fill:url(#linearGradient1128);stroke:none"
                 d="m 1715.994,456.15 c -1.074,0 -1.75,-0.672 -1.753,-1.739 v 0 c 0,-2.314 -0.01,-4.629 0,-6.945 v 0 c 0,-1.334 0.928,-2.025 2.23,-1.661 v 0 c 0.707,0.196 1.404,0.428 2.133,0.534 v 0 c 0.638,0.093 1.226,0.011 1.655,-0.519 v 0 c 0.544,-0.667 0.585,-1.243 0.182,-1.928 v 0 c -0.341,-0.579 -1.054,-0.857 -1.827,-0.735 v 0 c -0.727,0.115 -1.426,0.337 -2.133,0.536 v 0 c -1.331,0.372 -2.241,-0.32 -2.243,-1.702 v 0 c 0,-2.207 0,-4.415 0,-6.621 v 0 c 0,-1.318 0.614,-1.925 1.946,-1.926 v 0 c 1.4,0 2.8,-0.009 4.199,0.006 v 0 c 0.35,0.004 0.507,-0.092 0.425,-0.456 v 0 c -0.027,-0.123 -0.029,-0.25 -0.05,-0.374 v 0 c -0.389,-2.23 0.855,-4.409 3.032,-5.306 v 0 c 1.978,-0.815 4.397,-0.108 5.655,1.657 v 0 c 0.798,1.119 1.1,2.353 0.865,3.715 v 0 c -0.131,0.752 -0.122,0.758 0.619,0.758 v 0 c 1.399,0 2.798,-0.001 4.198,0 v 0 c 1.181,0.002 1.826,0.647 1.826,1.83 v 0 c 0,3.177 0,6.353 0,9.528 v 0 h -0.01 c 0,3.195 0,6.39 -10e-4,9.583 v 0 c 0,1.114 -0.658,1.765 -1.779,1.766 v 0 c -3.194,0 -6.388,0 -9.582,0 v 0 c -3.194,0 -6.389,0 -9.583,-0.001" />
            </g>
          </g>
        </g>
      </g>
    </g>
  </g>
</svg>
