<?xml version="1.0" encoding="UTF-8" standalone="no"?>
<svg
   xmlns:dc="http://purl.org/dc/elements/1.1/"
   xmlns:cc="http://creativecommons.org/ns#"
   xmlns:rdf="http://www.w3.org/1999/02/22-rdf-syntax-ns#"
   xmlns:svg="http://www.w3.org/2000/svg"
   xmlns="http://www.w3.org/2000/svg"
   xmlns:sodipodi="http://sodipodi.sourceforge.net/DTD/sodipodi-0.dtd"
   xmlns:inkscape="http://www.inkscape.org/namespaces/inkscape"
   sodipodi:docname="share.svg"
   inkscape:version="1.0 (6e3e5246a0, 2020-05-07)"
   id="svg17289"
   version="1.1"
   viewBox="0 0 19.793655 24.804863"
   height="24.804863mm"
   width="19.793655mm">
  <defs
     id="defs17283">
    <linearGradient
       id="linearGradient9227"
       spreadMethod="pad"
       gradientTransform="matrix(-100.55222,-51.733387,-51.733387,100.55222,923.52692,836.04559)"
       gradientUnits="userSpaceOnUse"
       y2="0"
       x2="1"
       y1="0"
       x1="0">
      <stop
         id="stop9221"
         offset="0"
         style="stop-opacity:1;stop-color:#63d7c2" />
      <stop
         id="stop9223"
         offset="0.67807152"
         style="stop-opacity:1;stop-color:#63d7c2" />
      <stop
         id="stop9225"
         offset="1"
         style="stop-opacity:1;stop-color:#1e0757" />
    </linearGradient>
    <linearGradient
       id="linearGradient9249"
       spreadMethod="pad"
       gradientTransform="matrix(35.204838,4.9745965,4.9745965,-35.204838,827.35638,809.45099)"
       gradientUnits="userSpaceOnUse"
       y2="0"
       x2="1"
       y1="0"
       x1="0">
      <stop
         id="stop9243"
         offset="0"
         style="stop-opacity:1;stop-color:#63d7c2" />
      <stop
         id="stop9245"
         offset="0.67807152"
         style="stop-opacity:1;stop-color:#63d7c2" />
      <stop
         id="stop9247"
         offset="1"
         style="stop-opacity:1;stop-color:#1e0757" />
    </linearGradient>
    <linearGradient
       id="linearGradient9271"
       spreadMethod="pad"
       gradientTransform="matrix(43.527718,-7.8445559,-7.8445559,-43.527718,846.61584,840.25342)"
       gradientUnits="userSpaceOnUse"
       y2="0"
       x2="1"
       y1="0"
       x1="0">
      <stop
         id="stop9265"
         offset="0"
         style="stop-opacity:1;stop-color:#63d7c2" />
      <stop
         id="stop9267"
         offset="0.67807152"
         style="stop-opacity:1;stop-color:#63d7c2" />
      <stop
         id="stop9269"
         offset="1"
         style="stop-opacity:1;stop-color:#1e0757" />
    </linearGradient>
    <linearGradient
       id="linearGradient9293"
       spreadMethod="pad"
       gradientTransform="matrix(25.925301,8.8968744,8.8968744,-25.925301,863.22565,783.4552)"
       gradientUnits="userSpaceOnUse"
       y2="0"
       x2="1"
       y1="0"
       x1="0">
      <stop
         id="stop9287"
         offset="0"
         style="stop-opacity:1;stop-color:#63d7c2" />
      <stop
         id="stop9289"
         offset="0.67807152"
         style="stop-opacity:1;stop-color:#63d7c2" />
      <stop
         id="stop9291"
         offset="1"
         style="stop-opacity:1;stop-color:#1e0757" />
    </linearGradient>
  </defs>
  <sodipodi:namedview
     inkscape:window-maximized="0"
     inkscape:window-y="27"
     inkscape:window-x="122"
     inkscape:window-height="1016"
     inkscape:window-width="1428"
     showgrid="false"
     inkscape:document-rotation="0"
     inkscape:current-layer="layer1"
     inkscape:document-units="mm"
     inkscape:cy="381.16104"
     inkscape:cx="-602.59466"
     inkscape:zoom="0.35"
     inkscape:pageshadow="2"
     inkscape:pageopacity="0.0"
     borderopacity="1.0"
     bordercolor="#666666"
     pagecolor="#ffffff"
     id="base" />
  <metadata
     id="metadata17286">
    <rdf:RDF>
      <cc:Work
         rdf:about="">
        <dc:format>image/svg+xml</dc:format>
        <dc:type
           rdf:resource="http://purl.org/dc/dcmitype/StillImage" />
        <dc:title></dc:title>
      </cc:Work>
    </rdf:RDF>
  </metadata>
  <g
     transform="translate(-82.32936,-47.317808)"
     id="layer1"
     inkscape:groupmode="layer"
     inkscape:label="Layer 1">
    <g
       transform="matrix(0.35277777,0,0,-0.35277777,-210.80145,345.95054)"
       id="g13645">
      <g
         id="g9209">
        <g
           id="g9211">
          <g
             id="g9217">
            <g
               id="g9219">
              <path
                 d="m 864.07,835.039 c 0,-0.611 0.061,-1.206 0.153,-1.791 v 0 c -0.066,-0.337 -0.136,-0.68 -0.212,-1.036 v 0 c -4.396,-3.127 -9.56,-6.854 -14.811,-10.454 v 0 c -0.312,-0.213 -0.826,-0.173 -1.355,-0.072 v 0 c -1.62,0.874 -3.474,1.37 -5.442,1.37 v 0 c -6.342,0 -11.481,-5.139 -11.481,-11.479 v 0 c 0,-6.34 5.139,-11.481 11.481,-11.481 v 0 c 2.258,0 4.358,0.663 6.135,1.79 v 0 c 5.156,-3.67 10.246,-7.258 15.268,-10.935 v 0 c 0.215,-0.157 0.407,-0.425 0.555,-0.729 v 0 c -0.185,-0.817 -0.291,-1.665 -0.291,-2.537 v 0 c 0,-6.34 5.14,-11.48 11.48,-11.48 v 0 c 6.339,0 11.479,5.14 11.479,11.48 v 0 c 0,6.339 -5.14,11.479 -11.479,11.479 v 0 c -1.949,0 -3.78,-0.488 -5.388,-1.345 v 0 c -0.625,0.01 -1.271,0.16 -1.703,0.447 v 0 c -4.68,3.108 -9.27,6.352 -13.868,9.587 v 0 c -0.418,0.295 -0.728,0.829 -0.931,1.485 v 0 c 0.143,0.724 0.222,1.473 0.222,2.239 v 0 c 0,0.722 -0.075,1.428 -0.203,2.114 v 0 c 0.218,0.706 0.547,1.291 0.989,1.606 v 0 c 4.33,3.082 8.641,6.194 13.038,9.176 v 0 c 0.548,0.371 1.466,0.643 2.169,0.596 v 0 c 1.675,-0.957 3.608,-1.511 5.675,-1.511 v 0 c 6.339,0 11.479,5.141 11.479,11.481 v 0 c 0,6.339 -5.14,11.479 -11.479,11.479 v 0 c -6.34,0 -11.48,-5.14 -11.48,-11.479"
                 style="fill:url(#linearGradient9227);stroke:none"
                 id="path9229" />
            </g>
          </g>
        </g>
      </g>
      <g
         id="g9231">
        <g
           id="g9233">
          <g
             id="g9239">
            <g
               id="g9241">
              <path
                 d="m 830.922,811.577 c 0,-6.34 5.139,-11.481 11.481,-11.481 v 0 c 6.339,0 11.479,5.141 11.479,11.481 v 0 c 0,6.34 -5.14,11.479 -11.479,11.479 v 0 c -6.342,0 -11.481,-5.139 -11.481,-11.479"
                 style="fill:url(#linearGradient9249);stroke:none"
                 id="path9251" />
            </g>
          </g>
        </g>
      </g>
      <g
         id="g9253">
        <g
           id="g9255">
          <g
             id="g9261">
            <g
               id="g9263">
              <path
                 d="m 864.07,835.039 c 0,-6.34 5.14,-11.481 11.48,-11.481 v 0 c 6.339,0 11.48,5.141 11.48,11.481 v 0 c 0,6.339 -5.141,11.479 -11.48,11.479 v 0 c -6.34,0 -11.48,-5.14 -11.48,-11.479"
                 style="fill:url(#linearGradient9271);stroke:none"
                 id="path9273" />
            </g>
          </g>
        </g>
      </g>
      <g
         id="g9275">
        <g
           id="g9277">
          <g
             id="g9283">
            <g
               id="g9285">
              <path
                 d="m 864.07,787.685 c 0,-6.34 5.14,-11.48 11.48,-11.48 v 0 c 6.339,0 11.48,5.14 11.48,11.48 v 0 c 0,6.339 -5.141,11.479 -11.48,11.479 v 0 c -6.34,0 -11.48,-5.14 -11.48,-11.479"
                 style="fill:url(#linearGradient9293);stroke:none"
                 id="path9295" />
            </g>
          </g>
        </g>
      </g>
    </g>
  </g>
</svg>
