<?xml version="1.0" encoding="UTF-8" standalone="no"?>
<svg
   xmlns:dc="http://purl.org/dc/elements/1.1/"
   xmlns:cc="http://creativecommons.org/ns#"
   xmlns:rdf="http://www.w3.org/1999/02/22-rdf-syntax-ns#"
   xmlns:svg="http://www.w3.org/2000/svg"
   xmlns="http://www.w3.org/2000/svg"
   xmlns:sodipodi="http://sodipodi.sourceforge.net/DTD/sodipodi-0.dtd"
   xmlns:inkscape="http://www.inkscape.org/namespaces/inkscape"
   sodipodi:docname="trash.svg"
   inkscape:version="1.0 (6e3e5246a0, 2020-05-07)"
   id="svg18179"
   version="1.1"
   viewBox="0 0 23.785105 23.632704"
   height="23.632704mm"
   width="23.785105mm">
  <defs
     id="defs18173">
    <linearGradient
       id="linearGradient2035"
       spreadMethod="pad"
       gradientTransform="matrix(55.671074,0,0,-55.671074,621.13373,717.19183)"
       gradientUnits="userSpaceOnUse"
       y2="0"
       x2="1"
       y1="0"
       x1="0">
      <stop
         id="stop2029"
         offset="0"
         style="stop-opacity:1;stop-color:#63d7c2" />
      <stop
         id="stop2031"
         offset="0.67807152"
         style="stop-opacity:1;stop-color:#63d7c2" />
      <stop
         id="stop2033"
         offset="1"
         style="stop-opacity:1;stop-color:#1e0757" />
    </linearGradient>
    <linearGradient
       id="linearGradient2057"
       spreadMethod="pad"
       gradientTransform="matrix(67.422089,0,0,-67.422089,615.21594,689.12231)"
       gradientUnits="userSpaceOnUse"
       y2="0"
       x2="1"
       y1="0"
       x1="0">
      <stop
         id="stop2051"
         offset="0"
         style="stop-opacity:1;stop-color:#e35db8" />
      <stop
         id="stop2053"
         offset="0.60396321"
         style="stop-opacity:1;stop-color:#1e0757" />
      <stop
         id="stop2055"
         offset="1"
         style="stop-opacity:1;stop-color:#1e0757" />
    </linearGradient>
  </defs>
  <sodipodi:namedview
     inkscape:window-maximized="0"
     inkscape:window-y="27"
     inkscape:window-x="122"
     inkscape:window-height="1016"
     inkscape:window-width="1428"
     showgrid="false"
     inkscape:document-rotation="0"
     inkscape:current-layer="layer1"
     inkscape:document-units="mm"
     inkscape:cy="430.3745"
     inkscape:cx="713.51965"
     inkscape:zoom="0.35"
     inkscape:pageshadow="2"
     inkscape:pageopacity="0.0"
     borderopacity="1.0"
     bordercolor="#666666"
     pagecolor="#ffffff"
     id="base" />
  <metadata
     id="metadata18176">
    <rdf:RDF>
      <cc:Work
         rdf:about="">
        <dc:format>image/svg+xml</dc:format>
        <dc:type
           rdf:resource="http://purl.org/dc/dcmitype/StillImage" />
        <dc:title></dc:title>
      </cc:Work>
    </rdf:RDF>
  </metadata>
  <g
     transform="translate(82.952074,-34.296747)"
     id="layer1"
     inkscape:groupmode="layer"
     inkscape:label="Layer 1">
    <g
       transform="matrix(0.35277777,0,0,-0.35277777,-299.9866,293.40955)"
       id="g13722">
      <g
         id="g2017">
        <g
           id="g2019">
          <g
             id="g2025">
            <g
               id="g2027">
              <path
                 d="m 645.109,732.029 c -6.415,-7.461 -12.985,-14.789 -19.488,-22.167 v 0 c -0.901,-1.041 -1.824,-2.07 -2.709,-3.133 v 0 c -1.526,-1.829 -2.853,-3.791 -0.49,-5.843 v 0 c 2.335,-2.028 4.049,-0.578 5.676,1.273 v 0 c 2.397,2.728 4.889,5.371 7.342,8.048 v 0 c 3.862,4.507 7.784,8.964 11.555,13.545 v 0 c 1.488,1.807 2.455,1.914 3.998,0.015 v 0 c 3.642,-4.476 7.484,-8.791 11.244,-13.171 v 0 c 2.442,-2.696 4.904,-5.371 7.317,-8.092 v 0 c 1.693,-1.912 3.482,-3.915 6.034,-1.514 v 0 c 2.49,2.343 0.645,4.364 -0.98,6.268 v 0 c -0.782,0.917 -1.521,1.874 -2.279,2.813 v 0 c -6.546,7.334 -13.205,14.571 -19.588,22.047 v 0 c -1.381,1.617 -2.588,2.375 -3.768,2.375 v 0 c -1.259,0 -2.487,-0.862 -3.864,-2.464"
                 style="fill:url(#linearGradient2035);stroke:none"
                 id="path2037" />
            </g>
          </g>
        </g>
      </g>
      <g
         id="g2039">
        <g
           id="g2041">
          <g
             id="g2047">
            <g
               id="g2049">
              <path
                 d="m 635.44,710.207 c -2.453,-2.677 -4.945,-5.32 -7.342,-8.048 v 0 c -1.627,-1.851 -3.341,-3.301 -5.676,-1.273 v 0 c -2.363,2.052 -1.036,4.014 0.49,5.843 v 0 c 0.885,1.063 1.808,2.092 2.709,3.133 v 0 c -2.085,0.116 -4.167,0.348 -6.245,0.317 v 0 c -0.277,-0.004 -0.592,0.023 -0.917,0.05 v 0 c -1.176,0.098 -2.491,0.196 -2.67,-1.193 v 0 c -0.487,-3.767 -1.139,-7.83 0.332,-11.325 v 0 c 0.64,-1.52 2.294,-1.323 3.966,-1.127 v 0 c 0.809,0.095 1.621,0.19 2.326,0.092 v 0 h 0.002 c 0.613,-1.301 4.695,-19.062 6.167,-26.604 v 0 c 0.503,-2.579 2.461,-2.508 4.469,-2.502 v 0 c 10.503,0.028 21.009,0.144 31.507,-0.065 v 0 c 3.356,-0.067 4.714,1.302 5.342,4.317 v 0 c 1.425,6.853 3.119,13.651 4.448,20.522 v 0 c 0.516,2.666 1.464,4.134 4.382,3.978 v 0 c 3.288,-0.174 3.971,1.706 3.904,4.71 v 0 c -0.237,10.446 1.229,9.167 -9.255,9.108 v 0 c -0.351,-0.002 -0.7,-0.045 -1.05,-0.069 v 0 c 0.758,-0.939 1.497,-1.896 2.279,-2.813 v 0 c 1.625,-1.904 3.47,-3.925 0.98,-6.268 v 0 c -2.552,-2.401 -4.341,-0.398 -6.034,1.514 v 0 c -2.413,2.721 -4.875,5.396 -7.316,8.092 v 0 c -4.357,0.079 -7.646,0.146 -10.881,0.146 v 0 c -4.497,0 -8.891,-0.129 -15.917,-0.535 m 1.149,-32.662 c -0.572,5.012 -1.118,10.028 -1.675,15.042 v 0 c -0.027,1.427 -0.773,2.973 0.687,4.154 v 0 c 0,0 3.096,1.344 3.563,-2.8 v 0 c 0.605,-5.361 1.113,-10.735 1.631,-16.106 v 0 c 0.133,-1.368 0.362,-2.983 -1.756,-3.057 v 0 c -0.044,-0.002 -0.087,-0.003 -0.129,-0.003 v 0 c -1.745,0 -2.157,1.332 -2.321,2.77 m 12.419,-2.821 c -1.647,0.008 -1.984,1.076 -1.994,2.424 v 0 c -0.047,5.747 -0.113,11.492 -0.13,17.239 v 0 c -0.005,1.42 0.687,2.264 2.241,2.226 v 0 c 1.534,-0.039 2.145,-0.828 2.131,-2.303 v 0 c -0.028,-2.959 -0.009,-5.917 -0.009,-8.876 v 0 c -0.048,0 -0.148,-5.569 -0.148,-8.355 v 0 c 0,-1.398 -0.49,-2.355 -2.073,-2.355 v 0 c -0.006,0 -0.012,0 -0.018,0 m 9.847,0.037 c -2.289,0.251 -1.963,1.765 -1.751,3.484 v 0 c 0.618,5.013 1.035,10.052 1.513,15.083 v 0 c 0.154,1.632 0.315,3.284 2.527,3.21 v 0 c 2.483,-0.081 1.937,-1.924 1.87,-3.722 v 0 c -0.588,-4.923 -1.193,-10.115 -1.838,-15.303 v 0 c -0.162,-1.296 -0.282,-2.773 -1.957,-2.773 v 0 c -0.114,0 -0.235,0.006 -0.364,0.021"
                 style="fill:url(#linearGradient2057);stroke:none"
                 id="path2059" />
            </g>
          </g>
        </g>
      </g>
    </g>
  </g>
</svg>
