<?xml version="1.0" encoding="UTF-8" standalone="no"?>
<svg
   xmlns:dc="http://purl.org/dc/elements/1.1/"
   xmlns:cc="http://creativecommons.org/ns#"
   xmlns:rdf="http://www.w3.org/1999/02/22-rdf-syntax-ns#"
   xmlns:svg="http://www.w3.org/2000/svg"
   xmlns="http://www.w3.org/2000/svg"
   xmlns:sodipodi="http://sodipodi.sourceforge.net/DTD/sodipodi-0.dtd"
   xmlns:inkscape="http://www.inkscape.org/namespaces/inkscape"
   sodipodi:docname="upload.svg"
   inkscape:version="1.0 (6e3e5246a0, 2020-05-07)"
   id="svg17664"
   version="1.1"
   viewBox="0 0 24.106764 17.209492"
   height="17.209492mm"
   width="24.106764mm">
  <defs
     id="defs17658">
    <linearGradient
       id="linearGradient8261"
       spreadMethod="pad"
       gradientTransform="matrix(66.583054,47.067333,47.067333,-66.583054,1461.4924,778.79675)"
       gradientUnits="userSpaceOnUse"
       y2="0"
       x2="1"
       y1="0"
       x1="0">
      <stop
         id="stop8255"
         offset="0"
         style="stop-opacity:1;stop-color:#63d7c2" />
      <stop
         id="stop8257"
         offset="0.67807152"
         style="stop-opacity:1;stop-color:#63d7c2" />
      <stop
         id="stop8259"
         offset="1"
         style="stop-opacity:1;stop-color:#1e0757" />
    </linearGradient>
    <linearGradient
       id="linearGradient8283"
       spreadMethod="pad"
       gradientTransform="matrix(22.242186,20.233213,20.233213,-22.242186,1490.3468,798.94006)"
       gradientUnits="userSpaceOnUse"
       y2="0"
       x2="1"
       y1="0"
       x1="0">
      <stop
         id="stop8277"
         offset="0"
         style="stop-opacity:1;stop-color:#4d1f81" />
      <stop
         id="stop8279"
         offset="0.32192848"
         style="stop-opacity:1;stop-color:#f263bd" />
      <stop
         id="stop8281"
         offset="1"
         style="stop-opacity:1;stop-color:#f263bd" />
    </linearGradient>
  </defs>
  <sodipodi:namedview
     inkscape:window-maximized="0"
     inkscape:window-y="27"
     inkscape:window-x="122"
     inkscape:window-height="1016"
     inkscape:window-width="1428"
     showgrid="false"
     inkscape:document-rotation="0"
     inkscape:current-layer="layer1"
     inkscape:document-units="mm"
     inkscape:cy="646.80758"
     inkscape:cx="-857.30106"
     inkscape:zoom="0.35"
     inkscape:pageshadow="2"
     inkscape:pageopacity="0.0"
     borderopacity="1.0"
     bordercolor="#666666"
     pagecolor="#ffffff"
     id="base" />
  <metadata
     id="metadata17661">
    <rdf:RDF>
      <cc:Work
         rdf:about="">
        <dc:format>image/svg+xml</dc:format>
        <dc:type
           rdf:resource="http://purl.org/dc/dcmitype/StillImage" />
        <dc:title></dc:title>
      </cc:Work>
    </rdf:RDF>
  </metadata>
  <g
     transform="translate(-332.66091,22.96784)"
     id="layer1"
     inkscape:groupmode="layer"
     inkscape:label="Layer 1">
    <g
       transform="matrix(0.35277777,0,0,-0.35277777,-184.1348,271.86724)"
       id="g13589">
      <g
         id="g8243">
        <g
           id="g8245">
          <g
             id="g8251">
            <g
               id="g8253">
              <path
                 d="m 1490.491,834.493 c -3.873,-1.656 -6.671,-4.626 -8.036,-6.96 v 0 c -1.776,-3.036 -2.583,-6.385 -3.404,-9.978 v 0 c -6.875,-0.141 -13.234,-5.539 -14.096,-12.947 v 0 c 0,-0.04 -0.479,-7.821 3.007,-12.231 v 0 c 2.435,-3.082 6.201,-5.242 10.247,-5.277 v 0 c 13.887,-0.119 27.778,-0.238 41.659,0.043 v 0 c 6.142,0.124 12.015,4.845 13.139,11.599 v 0 c 0.194,1.168 1.036,5.402 -1.911,11.587 v 0 c -2.349,4.935 -6.96,6.938 -12.577,7.246 v 0 c -0.523,5.8 -3.49,10.963 -7.667,14.502 v 0 c -2.536,2.147 -5.679,3.429 -9.073,3.575 v 0 c -1.157,0.049 -2.366,0.101 -3.591,0.101 v 0 c -2.62,0 -5.31,-0.239 -7.697,-1.26 m -4.182,-30.846 c -1.826,1.7 -1.938,3.181 -0.192,4.951 v 0 c 3.29,3.337 6.623,6.633 9.987,9.896 v 0 c 1.729,1.676 3.242,1.64 4.991,-0.069 v 0 c 3.297,-3.221 6.572,-6.464 9.82,-9.735 v 0 c 1.621,-1.631 1.773,-3.627 0.486,-4.913 v 0 c -1.491,-1.488 -3.521,-1.396 -5.22,0.28 v 0 c -1.147,1.133 -2.243,2.313 -3.584,3.702 v 0 c -0.265,-3.715 -0.365,-6.877 -0.757,-10.004 v 0 c -0.259,-2.059 -1.839,-3.078 -3.827,-2.687 v 0 c -1.805,0.356 -2.826,1.652 -2.771,3.673 v 0 c 0.078,2.916 0.02,5.836 0.02,9.47 v 0 c -1.807,-1.741 -3.111,-3.006 -4.426,-4.263 v 0 c -1.001,-0.958 -1.734,-1.429 -2.45,-1.429 v 0 c -0.644,0 -1.275,0.38 -2.077,1.128"
                 style="fill:url(#linearGradient8261);stroke:none"
                 id="path8263" />
            </g>
          </g>
        </g>
      </g>
      <g
         id="g8265">
        <g
           id="g8267">
          <g
             id="g8273">
            <g
               id="g8275">
              <path
                 d="m 1496.104,818.494 c -3.364,-3.263 -6.697,-6.559 -9.987,-9.896 v 0 c -1.746,-1.77 -1.634,-3.251 0.192,-4.951 v 0 c 1.694,-1.579 2.625,-1.519 4.527,0.301 v 0 c 1.315,1.257 2.619,2.522 4.426,4.263 v 0 c 0,-3.634 0.058,-6.554 -0.02,-9.47 v 0 c -0.055,-2.021 0.966,-3.317 2.771,-3.673 v 0 c 1.988,-0.391 3.568,0.628 3.827,2.687 v 0 c 0.392,3.127 0.492,6.289 0.757,10.004 v 0 c 1.341,-1.389 2.437,-2.569 3.584,-3.702 v 0 c 1.699,-1.677 3.729,-1.768 5.22,-0.28 v 0 c 1.287,1.286 1.135,3.282 -0.486,4.913 v 0 c -3.247,3.27 -6.523,6.514 -9.82,9.735 v 0 c -0.888,0.868 -1.715,1.304 -2.541,1.304 v 0 c -0.8,0 -1.599,-0.41 -2.45,-1.235"
                 style="fill:url(#linearGradient8283);stroke:none"
                 id="path8285" />
            </g>
          </g>
        </g>
      </g>
    </g>
  </g>
</svg>
