<svg width="33" height="33" viewBox="0 0 33 33" fill="none" xmlns="http://www.w3.org/2000/svg">
<g clip-path="url(#clip0_1_1292)">
<path d="M23.4127 13.9462L16.9348 22.8623C15.69 24.5757 13.2939 24.9552 11.5804 23.7103C9.867 22.4654 9.4875 20.0693 10.7324 18.3559L17.7736 8.66456C18.5509 7.59463 20.0501 7.35718 21.1201 8.13452C22.19 8.91187 22.4274 10.4111 21.6501 11.481L15.7355 19.6218C15.4257 20.0482 14.8233 20.1436 14.3969 19.8338C13.9705 19.524 13.8751 18.9216 14.1849 18.4952L19.5362 11.1297L18.3732 10.2848L13.0219 17.6502C12.2446 18.7202 12.482 20.2194 13.552 20.9967C14.6219 21.7741 16.1211 21.5366 16.8985 20.4667L22.8131 12.326C24.0579 10.6125 23.6784 8.21644 21.965 6.97156C20.2516 5.72668 17.8555 6.10618 16.6106 7.81961L9.56942 17.511C7.857 19.8679 8.37856 23.1609 10.7355 24.8733C13.0924 26.5857 16.3854 26.0641 18.0978 23.7072L24.5757 14.7912L23.4127 13.9462Z" fill="#A0A0B2"/>
</g>
<defs>
<clipPath id="clip0_1_1292">
<rect width="23" height="23" fill="white" transform="translate(14) rotate(36)"/>
</clipPath>
</defs>
</svg>
