<svg width="38" height="38" viewBox="0 0 38 38" fill="none" xmlns="http://www.w3.org/2000/svg">
<rect width="38" height="38" rx="5" fill="#EDEEF0"/>
<g clip-path="url(#clip0_1_1512)">
<path d="M14.965 18.0925C16.045 20.215 17.785 21.9475 19.9075 23.035L21.5575 21.385C21.76 21.1825 22.06 21.115 22.3225 21.205C23.1625 21.4825 24.07 21.6325 25 21.6325C25.4125 21.6325 25.75 21.97 25.75 22.3825V25C25.75 25.4125 25.4125 25.75 25 25.75C17.9575 25.75 12.25 20.0425 12.25 13C12.25 12.5875 12.5875 12.25 13 12.25H15.625C16.0375 12.25 16.375 12.5875 16.375 13C16.375 13.9375 16.525 14.8375 16.8025 15.6775C16.885 15.94 16.825 16.2325 16.615 16.4425L14.965 18.0925Z" fill="#3F3960"/>
</g>
<defs>
<clipPath id="clip0_1_1512">
<rect width="18" height="18" fill="white" transform="translate(10 10)"/>
</clipPath>
</defs>
</svg>
