<svg width="19" height="21" viewBox="0 0 19 21" fill="none" xmlns="http://www.w3.org/2000/svg">
<path d="M14.7464 5.90144L15.4341 6.58917C15.7253 6.88037 15.7253 7.35124 15.4341 7.63934L9.41498 13.6616C9.12378 13.9528 8.65291 13.9528 8.36481 13.6616L2.34255 7.63934C2.05135 7.34814 2.05135 6.87727 2.34255 6.58917L3.03027 5.90144C3.32457 5.60714 3.80474 5.61334 4.09284 5.91383L7.6492 9.64676V0.743488C7.6492 0.331472 7.98067 0 8.39269 0H9.384C9.79602 0 10.1275 0.331472 10.1275 0.743488V9.64676L13.6838 5.91383C13.9719 5.61024 14.4521 5.60404 14.7464 5.90144V5.90144Z" fill="#3F3960"/>
<line y1="19.5" x2="18.2483" y2="19.5" stroke="#3F3960" stroke-width="2"/>
</svg>
