<svg width="24" height="24" viewBox="0 0 24 24" fill="none" xmlns="http://www.w3.org/2000/svg">
<path d="M3 6.25C3 5.38805 3.34241 4.5614 3.9519 3.9519C4.5614 3.34241 5.38805 3 6.25 3H17.75C18.612 3 19.4386 3.34241 20.0481 3.9519C20.6576 4.5614 21 5.38805 21 6.25V17.75C21 18.612 20.6576 19.4386 20.0481 20.0481C19.4386 20.6576 18.612 21 17.75 21H6.25C5.38805 21 4.5614 20.6576 3.9519 20.0481C3.34241 19.4386 3 18.612 3 17.75V6.25ZM12.75 7.75C12.75 7.55109 12.671 7.36032 12.5303 7.21967C12.3897 7.07902 12.1989 7 12 7C11.8011 7 11.6103 7.07902 11.4697 7.21967C11.329 7.36032 11.25 7.55109 11.25 7.75V11.25H7.75C7.55109 11.25 7.36032 11.329 7.21967 11.4697C7.07902 11.6103 7 11.8011 7 12C7 12.1989 7.07902 12.3897 7.21967 12.5303C7.36032 12.671 7.55109 12.75 7.75 12.75H11.25V16.25C11.25 16.4489 11.329 16.6397 11.4697 16.7803C11.6103 16.921 11.8011 17 12 17C12.1989 17 12.3897 16.921 12.5303 16.7803C12.671 16.6397 12.75 16.4489 12.75 16.25V12.75H16.25C16.4489 12.75 16.6397 12.671 16.7803 12.5303C16.921 12.3897 17 12.1989 17 12C17 11.8011 16.921 11.6103 16.7803 11.4697C16.6397 11.329 16.4489 11.25 16.25 11.25H12.75V7.75Z" fill="#3F3960"/>
</svg>
