<svg width="30" height="30" viewBox="0 0 30 30" fill="none" xmlns="http://www.w3.org/2000/svg">
<circle cx="15" cy="15" r="15" fill="#261F34"/>
<path d="M20.8572 8.71429C20.8024 8.71467 20.7479 8.72294 20.6954 8.73885C20.6799 8.74304 20.6647 8.74788 20.6496 8.75336L8.08601 12.7489V12.7511C7.977 12.7918 7.88301 12.8648 7.81659 12.9603C7.75018 13.0558 7.71451 13.1694 7.71436 13.2857C7.71456 13.3838 7.74004 13.4803 7.78832 13.5657C7.8366 13.6511 7.90607 13.7227 7.99003 13.7734L11.8081 16.8025L19.3561 10.7868L13.3405 18.3348L16.3673 22.1507C16.418 22.2354 16.4897 22.3055 16.5756 22.3542C16.6615 22.4029 16.7585 22.4285 16.8572 22.4286C16.9736 22.4284 17.0871 22.3928 17.1826 22.3263C17.2782 22.2599 17.3511 22.1659 17.3918 22.0569H17.394L21.3929 9.48215C21.397 9.47074 21.4007 9.4592 21.4041 9.44755C21.42 9.39507 21.4283 9.34057 21.4286 9.28572C21.4286 9.13417 21.3684 8.98883 21.2613 8.88166C21.1541 8.7745 21.0088 8.71429 20.8572 8.71429V8.71429Z" fill="white"/>
</svg>
