<svg width="24" height="24" viewBox="0 0 24 24" fill="none" xmlns="http://www.w3.org/2000/svg">
<path fill-rule="evenodd" clip-rule="evenodd" d="M21.0628 8.85809C21.2115 9.28933 21.6046 9.6 22.0608 9.6H23.0002C23.5525 9.6 24.0002 10.0477 24.0002 10.6V13.4C24.0002 13.9523 23.5525 14.4 23.0002 14.4H22.0611C21.6054 14.4 21.2124 14.7102 21.0638 15.141C20.8676 15.71 20.6206 16.2549 20.3263 16.7692C20.0856 17.19 20.1278 17.7265 20.4704 18.0694L20.8936 18.4929C21.2839 18.8835 21.2838 19.5164 20.8934 19.9069L19.9076 20.8926C19.517 21.2833 18.8836 21.2832 18.4931 20.8924L18.0701 20.4691C17.7276 20.1264 17.1914 20.0837 16.7709 20.3244C16.2561 20.619 15.7115 20.8664 15.1424 21.0626C14.7111 21.2113 14.4002 21.6045 14.4002 22.0607V23C14.4002 23.5523 13.9525 24 13.4002 24H10.6002C10.048 24 9.60024 23.5523 9.60024 23V22.0605C9.60024 21.6044 9.28957 21.2112 8.85835 21.0625C8.2897 20.8664 7.74522 20.6191 7.23087 20.3247C6.81029 20.0839 6.27387 20.1264 5.9312 20.469L5.50735 20.8929C5.11683 21.2834 4.48366 21.2834 4.09314 20.8929L3.10735 19.9071C2.71683 19.5166 2.71683 18.8834 3.10735 18.4929L3.53046 18.0698C3.87346 17.7268 3.91559 17.1897 3.67455 16.7688C3.38048 16.2552 3.13348 15.7109 2.93757 15.1422C2.78897 14.7108 2.39577 14.4 1.93953 14.4H1.00024C0.447959 14.4 0.000244141 13.9523 0.000244141 13.4V10.6C0.000244141 10.0477 0.44796 9.6 1.00024 9.6H1.93953C2.39577 9.6 2.78896 9.2892 2.93749 8.85781C3.13325 8.2892 3.38002 7.74505 3.67428 7.23131C3.91542 6.8103 3.87337 6.27313 3.5303 5.93006L3.10735 5.50711C2.71683 5.11658 2.71683 4.48342 3.10735 4.09289L4.09314 3.10711C4.48366 2.71658 5.11683 2.71658 5.50735 3.10711L5.9303 3.53006C6.27337 3.87313 6.81055 3.91517 7.23155 3.67403C7.74529 3.37977 8.28944 3.13301 8.85805 2.93724C9.28944 2.78872 9.60024 2.39553 9.60024 1.93929V1C9.60024 0.447715 10.048 0 10.6002 0H13.4002C13.9525 0 14.4002 0.447715 14.4002 1V1.93889C14.4002 2.39476 14.7105 2.78775 15.1415 2.93639C15.7109 3.13279 16.2558 3.38002 16.7708 3.67457C17.1914 3.91511 17.7276 3.87243 18.0701 3.5297L18.4931 3.1064C18.8836 2.71564 19.517 2.71553 19.9076 3.10615L20.8934 4.09194C21.2838 4.48237 21.2839 5.11534 20.8936 5.50591L20.4692 5.93059C20.1266 6.27345 20.0844 6.81002 20.3253 7.23068C20.6196 7.74479 20.8667 8.28942 21.0628 8.85809ZM12.0002 16.8C14.6512 16.8 16.8002 14.6509 16.8002 12C16.8002 9.34903 14.6512 7.2 12.0002 7.2C9.34928 7.2 7.20024 9.34903 7.20024 12C7.20024 14.6509 9.34928 16.8 12.0002 16.8Z" fill="#3F3960"/>
</svg>
