<svg width="20" height="20" viewBox="0 0 20 20" fill="none" xmlns="http://www.w3.org/2000/svg">
<path d="M10 10C12.7617 10 15 7.76172 15 5C15 2.23828 12.7617 0 10 0C7.23828 0 5 2.23828 5 5C5 7.76172 7.23828 10 10 10ZM13.5 11.25H12.8477C11.9805 11.6484 11.0156 11.875 10 11.875C8.98438 11.875 8.02344 11.6484 7.15234 11.25H6.5C3.60156 11.25 1.25 13.6016 1.25 16.5V18.125C1.25 19.1602 2.08984 20 3.125 20H16.875C17.9102 20 18.75 19.1602 18.75 18.125V16.5C18.75 13.6016 16.3984 11.25 13.5 11.25Z" fill="#7A4BD8"/>
</svg>
