<svg width="50" height="50" viewBox="0 0 50 50" fill="none" xmlns="http://www.w3.org/2000/svg">
<circle cx="25" cy="25" r="24" fill="white" stroke="#614AD3" stroke-width="2"/>
<path d="M13 15.9054V34.8188C12.9978 35.1821 13.1015 35.5384 13.2986 35.8447M13 15.9054L13.5 15.9059C13.5 15.9058 13.5 15.9058 13.5 15.9057M13 15.9054H13.5V15.9057M13 15.9054C13.0006 15.4002 13.2034 14.9159 13.5639 14.5587C13.9244 14.2015 14.4133 14.0006 14.9231 14L14.9286 36.2273M13.5 15.9057V34.8188V34.8219C13.4984 35.0879 13.5743 35.3492 13.7191 35.5742L13.2986 35.8447M13.5 15.9057C13.5005 15.5345 13.6495 15.1778 13.9158 14.9139C14.1823 14.6498 14.5446 14.5005 14.9234 14.5H36.0766C36.4555 14.5005 36.8177 14.6498 37.0842 14.9139C37.3506 15.1778 37.4996 15.5347 37.5 15.9059V31.1476C37.4996 31.5188 37.3506 31.8757 37.0842 32.1396C36.8177 32.4037 36.4553 32.5531 36.0764 32.5535H20.0312H19.8502L19.7112 32.6693L15.8406 35.8932L15.8387 35.8948C15.5851 36.1082 15.2627 36.2263 14.9286 36.2273M13.2986 35.8447L13.7191 35.5742C13.8639 35.7993 14.0717 35.9789 14.318 36.0908L14.322 36.0926C14.5116 36.1808 14.7187 36.2268 14.9286 36.2273M13.2986 35.8447C13.4957 36.1511 13.7779 36.3946 14.1112 36.546C14.3669 36.6649 14.6458 36.7268 14.9283 36.7273L14.9286 36.2273M36.0769 31.6482H36.5769V31.1482V15.9054V15.4054H36.0769H14.9231H14.4231V15.9054V34.8188V35.886L15.2431 35.203L19.1136 31.9794C19.3701 31.766 19.695 31.6483 20.0314 31.6482H36.0769ZM24.5577 23.5269C24.5577 23.3442 24.6124 23.1652 24.7153 23.0125C24.8183 22.8598 24.9652 22.7401 25.1379 22.6692C25.3107 22.5983 25.501 22.5797 25.6847 22.6159C25.8684 22.6521 26.0365 22.7413 26.168 22.8716C26.2994 23.0018 26.3884 23.1672 26.4244 23.3465C26.4604 23.5258 26.442 23.7117 26.3712 23.8809L26.8325 24.0737L26.3712 23.8809C26.3005 24.0501 26.1803 24.1955 26.0253 24.2981L26.3013 24.7151L26.0253 24.2981C25.8702 24.4008 25.6874 24.4559 25.5 24.4559C25.2486 24.4559 25.0084 24.3569 24.8321 24.1822C24.6559 24.0076 24.5577 23.7718 24.5577 23.5269ZM19.9155 22.6159L20.0122 22.1253L19.9155 22.6159C20.0992 22.6521 20.2673 22.7413 20.3987 22.8716C20.5302 23.0018 20.6192 23.1672 20.6552 23.3465C20.6912 23.5258 20.6727 23.7117 20.602 23.8809C20.5313 24.0501 20.4111 24.1955 20.2561 24.2981L20.5321 24.7151L20.2561 24.2981C20.101 24.4008 19.9182 24.4559 19.7308 24.4559C19.4794 24.4559 19.2392 24.3569 19.0628 24.1822C18.8866 24.0076 18.7885 23.7718 18.7885 23.5269C18.7885 23.3442 18.8431 23.1652 18.9461 23.0125C19.0491 22.8598 19.196 22.7401 19.3687 22.6692C19.5414 22.5983 19.7318 22.5797 19.9155 22.6159ZM32.1936 23.3465L32.6838 23.2481L32.1936 23.3465C32.2296 23.5258 32.2112 23.7117 32.1404 23.8809C32.0697 24.0501 31.9496 24.1955 31.7945 24.2981C31.6394 24.4008 31.4566 24.4559 31.2692 24.4559C31.0178 24.4559 30.7777 24.3569 30.6013 24.1822C30.4251 24.0076 30.3269 23.7718 30.3269 23.5269C30.3269 23.3442 30.3816 23.1652 30.4845 23.0125C30.5875 22.8598 30.7344 22.7401 30.9071 22.6692C31.0799 22.5983 31.2702 22.5797 31.4539 22.6159C31.6376 22.6521 31.8057 22.7413 31.9372 22.8716C32.0686 23.0018 32.1576 23.1672 32.1936 23.3465Z" fill="#624BD4" stroke="#614AD3"/>
</svg>
