<svg xmlns="http://www.w3.org/2000/svg" width="25" height="23" viewBox="0 0 25 23" fill="none">
<path d="M3.47091e-05 1.90535V20.8188C-0.00217845 21.1821 0.10149 21.5384 0.298594 21.8447M3.47091e-05 1.90535L0.500034 1.90592C0.500035 1.90584 0.500035 1.90576 0.500035 1.90567M3.47091e-05 1.90535H0.500035V1.90567M3.47091e-05 1.90535C0.00060733 1.4002 0.2034 0.915891 0.563923 0.558691C0.924445 0.201492 1.41325 0.000567344 1.92311 0L1.92856 22.2273M0.500035 1.90567V20.8188V20.8219C0.498405 21.0879 0.574301 21.3492 0.71909 21.5742L0.298594 21.8447M0.500035 1.90567C0.500521 1.53452 0.649506 1.17775 0.915835 0.913878C1.18232 0.649848 1.54458 0.500487 1.92342 0.5H23.0766C23.4555 0.500487 23.8177 0.649848 24.0842 0.913877C24.3506 1.17781 24.4996 1.53467 24.5 1.90592V17.1476C24.4996 17.5188 24.3506 17.8757 24.0842 18.1396C23.8177 18.4037 23.4553 18.5531 23.0764 18.5535H7.03116H6.8502L6.71116 18.6693L2.84061 21.8932L2.8387 21.8948C2.58509 22.1082 2.2627 22.2263 1.92856 22.2273M0.298594 21.8447L0.719091 21.5742C0.863913 21.7993 1.07168 21.9789 1.31797 22.0908L1.32197 22.0926C1.51163 22.1808 1.71869 22.2268 1.92856 22.2273M0.298594 21.8447C0.495698 22.1511 0.777862 22.3946 1.11121 22.546C1.36692 22.6649 1.64582 22.7268 1.92828 22.7273L1.92856 22.2273M23.0769 17.6482H23.5769V17.1482V1.90535V1.40535H23.0769H1.92311H1.42311V1.90535V20.8188V21.886L2.24309 21.203L6.11361 17.9794C6.3701 17.766 6.69503 17.6483 7.03142 17.6482H23.0769ZM11.5577 9.52688C11.5577 9.34417 11.6124 9.16518 11.7153 9.01252C11.8183 8.85981 11.9652 8.74008 12.1379 8.6692C12.3107 8.5983 12.501 8.57968 12.6847 8.61588C12.8684 8.65208 13.0365 8.74132 13.168 8.8716C13.2994 9.00183 13.3884 9.16719 13.4244 9.34651C13.4604 9.5258 13.442 9.71169 13.3712 9.88088L13.8325 10.0737L13.3712 9.88088C13.3005 10.0501 13.1803 10.1955 13.0253 10.2981L13.3013 10.7151L13.0253 10.2981C12.8702 10.4008 12.6874 10.4559 12.5 10.4559C12.2486 10.4559 12.0084 10.3569 11.8321 10.1822C11.6559 10.0076 11.5577 9.77177 11.5577 9.52688ZM6.91549 8.61588L7.01218 8.12532L6.9155 8.61589C7.09917 8.65208 7.26726 8.74132 7.39875 8.8716C7.53019 9.00183 7.61917 9.16718 7.65517 9.34651C7.69116 9.5258 7.67273 9.71169 7.602 9.88088C7.53125 10.0501 7.41112 10.1955 7.25609 10.2981L7.5321 10.7151L7.25609 10.2981C7.101 10.4008 6.91819 10.4559 6.73079 10.4559C6.47939 10.4559 6.23921 10.3569 6.06284 10.1822C5.88663 10.0076 5.78849 9.77177 5.78849 9.52688C5.78849 9.34417 5.84315 9.16518 5.9461 9.01252C6.04909 8.85981 6.19597 8.74008 6.36868 8.6692C6.54144 8.5983 6.7318 8.57968 6.91549 8.61588ZM19.1936 9.34651L19.6838 9.24809L19.1936 9.34651C19.2296 9.5258 19.2112 9.71169 19.1404 9.88088C19.0697 10.0501 18.9496 10.1955 18.7945 10.2981C18.6394 10.4008 18.4566 10.4559 18.2692 10.4559C18.0178 10.4559 17.7777 10.3569 17.6013 10.1822C17.4251 10.0076 17.3269 9.77177 17.3269 9.52688C17.3269 9.34417 17.3816 9.16518 17.4845 9.01252C17.5875 8.85981 17.7344 8.74008 17.9071 8.6692C18.0799 8.5983 18.2702 8.57968 18.4539 8.61588C18.6376 8.65208 18.8057 8.74132 18.9372 8.8716C19.0686 9.00183 19.1576 9.16719 19.1936 9.34651Z" fill="#624BD4" stroke="#614AD3"/>
</svg>