<svg width="25" height="24" viewBox="0 0 25 24" fill="none" xmlns="http://www.w3.org/2000/svg">
<path d="M3.47091e-05 2.3152V21.2287C-0.00217845 21.592 0.10149 21.9482 0.298594 22.2546C0.495698 22.561 0.777862 22.8045 1.11121 22.9559C1.36692 23.0748 1.64582 23.1366 1.92828 23.1371M3.47091e-05 2.3152L0.500034 2.31577C0.500035 2.31569 0.500035 2.31561 0.500035 2.31553M3.47091e-05 2.3152H0.500035V2.31553M3.47091e-05 2.3152C0.00060733 1.81005 0.2034 1.32574 0.563923 0.968543C0.924445 0.611343 1.41325 0.410418 1.92311 0.409851L24.5 2.31577M0.500035 2.31553V21.2287V21.2317C0.498405 21.4978 0.574301 21.759 0.719091 21.9841C0.863913 22.2092 1.07168 22.3888 1.31797 22.5007L1.32197 22.5025C1.51163 22.5906 1.7187 22.6367 1.92856 22.6371M0.500035 2.31553C0.500521 1.94437 0.649506 1.5876 0.915836 1.32373C1.18232 1.0597 1.54458 0.910338 1.92342 0.909851H23.0766C23.4555 0.910338 23.8177 1.0597 24.0842 1.32373C24.3506 1.58766 24.4996 1.94453 24.5 2.31577M1.92856 22.6371C1.92813 22.6371 1.92769 22.6371 1.92726 22.6371L1.92828 23.1371M1.92856 22.6371C2.2627 22.6362 2.58509 22.518 2.8387 22.3047L2.8406 22.3031L6.71116 19.0792L6.8502 18.9634H7.03116H23.0764M1.92856 22.6371C1.92877 22.6371 1.92899 22.6371 1.9292 22.6371L1.92828 23.1371M1.92828 23.1371C2.37982 23.1362 2.81643 22.9768 3.16061 22.6872L23.0764 18.9634M23.0764 18.9634C23.4553 18.963 23.8177 18.8136 24.0842 18.5495C24.3506 18.2856 24.4996 17.9287 24.5 17.5575M23.0764 18.9634L24.5 17.558V17.5575M24.5 17.5575V2.31577M24.5 17.5575V2.31577M23.0769 18.058H23.5769V17.558V2.3152V1.8152H23.0769H1.92311H1.42311V2.3152V21.2287V22.2958L2.24309 21.6129L6.11361 18.3893C6.3701 18.1758 6.69503 18.0582 7.03142 18.058H23.0769ZM11.5577 9.93674C11.5577 9.75403 11.6124 9.57504 11.7153 9.42238C11.8183 9.26967 11.9652 9.14994 12.1379 9.07906C12.3107 9.00816 12.501 8.98954 12.6847 9.02574C12.8684 9.06194 13.0365 9.15118 13.168 9.28146C13.2994 9.41169 13.3884 9.57705 13.4244 9.75637C13.4604 9.93566 13.442 10.1216 13.3712 10.2907C13.3005 10.46 13.1803 10.6054 13.0253 10.708L13.3013 11.1249L13.0253 10.708C12.8702 10.8107 12.6874 10.8658 12.5 10.8658C12.2486 10.8658 12.0084 10.7668 11.8321 10.592C11.6559 10.4174 11.5577 10.1816 11.5577 9.93674ZM19.1936 9.75637L19.6838 9.65795L19.1936 9.75637C19.2296 9.93566 19.2112 10.1216 19.1404 10.2907C19.0697 10.46 18.9496 10.6054 18.7945 10.708C18.6394 10.8107 18.4566 10.8658 18.2692 10.8658C18.0178 10.8658 17.7777 10.7668 17.6013 10.592C17.4251 10.4174 17.3269 10.1816 17.3269 9.93674C17.3269 9.75403 17.3816 9.57504 17.4845 9.42238C17.5875 9.26967 17.7344 9.14994 17.9071 9.07906C18.0799 9.00816 18.2702 8.98954 18.4539 9.02574C18.6376 9.06194 18.8057 9.15118 18.9372 9.28146C19.0686 9.41169 19.1576 9.57705 19.1936 9.75637ZM7.25609 10.708L7.5321 11.1249L7.25609 10.708C7.101 10.8107 6.91819 10.8658 6.73079 10.8658C6.47939 10.8658 6.23921 10.7668 6.06284 10.592C5.88663 10.4174 5.78849 10.1816 5.78849 9.93674C5.78849 9.75403 5.84315 9.57504 5.9461 9.42238C6.04909 9.26967 6.19597 9.14994 6.36868 9.07906C6.54144 9.00816 6.7318 8.98954 6.9155 9.02574C7.09917 9.06194 7.26726 9.15118 7.39875 9.28146C7.53019 9.41169 7.61917 9.57704 7.65517 9.75637C7.69116 9.93566 7.67273 10.1216 7.602 10.2907C7.53125 10.46 7.41112 10.6054 7.25609 10.708Z" fill="#624BD4" stroke="#614AD3"/>
</svg>
