<svg width="18" height="18" viewBox="0 0 18 18" fill="none" xmlns="http://www.w3.org/2000/svg">
<path fill-rule="evenodd" clip-rule="evenodd" d="M9 18C13.9706 18 18 13.9706 18 9C18 4.02944 13.9706 0 9 0C4.02944 0 0 4.02944 0 9C0 13.9706 4.02944 18 9 18ZM8.21371 9.93195H8.92424L9.50824 12.4615H11.0072V12.3855L10.2966 9.57058C11.098 9.1997 11.5393 8.54036 11.6204 7.59256C11.6723 6.96809 11.5295 6.47517 11.1921 6.1138C10.8547 5.75243 10.3696 5.56224 9.73698 5.54322L7.59564 5.53846L6.36923 12.4615H7.76597L8.21371 9.93195ZM9.15298 8.77652L8.41811 8.76701L8.78797 6.7034L9.67858 6.70816C10.0387 6.73352 10.2253 6.95382 10.2382 7.36908C10.2415 7.79068 10.1458 8.12986 9.95111 8.38662C9.75645 8.64022 9.4904 8.77018 9.15298 8.77652Z" fill="black"/>
</svg>
