<svg width="154" height="119" viewBox="0 0 154 119" fill="none" xmlns="http://www.w3.org/2000/svg">
<path d="M129.925 9.95258C119.867 5.27581 109.225 1.95276 98.2829 0.0712891C96.9198 2.52003 95.3273 5.81359 94.2291 8.4338C82.431 6.67092 70.7413 6.67092 59.1601 8.4338C58.0625 5.81419 56.4341 2.52003 55.0584 0.0712891C44.1051 1.95363 33.4547 5.28514 23.3913 9.97699C3.36589 40.0483 -2.06286 69.3719 0.651215 98.2805C13.9334 108.137 26.8051 114.124 39.46 118.042C42.6051 113.745 45.3852 109.194 47.7718 104.439C43.2281 102.72 38.8479 100.602 34.6831 98.109C35.7791 97.3018 36.8493 96.4605 37.8921 95.5864C63.1288 107.316 90.5499 107.316 115.486 95.5864C116.533 96.4547 117.603 97.2958 118.694 98.109C114.523 100.608 110.134 102.731 105.581 104.451C107.982 109.226 110.757 113.781 113.893 118.054C126.56 114.137 139.444 108.149 152.726 98.2805C155.911 64.7685 147.286 35.7135 129.925 9.95198V9.95258ZM51.2102 80.5022C43.6342 80.5022 37.4212 73.4739 37.4212 64.9156C37.4212 56.3572 43.5018 49.317 51.2102 49.317C58.9193 49.317 65.1317 56.3447 64.9992 64.9156C65.0112 73.4739 58.9193 80.5022 51.2102 80.5022ZM102.167 80.5022C94.591 80.5022 88.3786 73.4739 88.3786 64.9156C88.3786 56.3572 94.4586 49.317 102.167 49.317C109.876 49.317 116.088 56.3447 115.956 64.9156C115.956 73.4739 109.876 80.5022 102.167 80.5022Z" fill="#5865F2"/>
</svg>
