<svg width="119" height="119" viewBox="0 0 119 119" fill="none" xmlns="http://www.w3.org/2000/svg">
<path d="M59.0626 0C34.4125 0 27.2034 0.0254293 25.802 0.141677C20.7434 0.562168 17.5956 1.35865 14.1663 3.06604C11.5235 4.37837 9.4392 5.89959 7.38215 8.03201C3.63588 11.9209 1.36541 16.7052 0.5435 22.3923C0.143897 25.1532 0.0276493 25.7162 0.00403639 39.8186C-0.00504549 44.5194 0.00403639 50.7059 0.00403639 59.0041C0.00403639 83.6341 0.031282 90.836 0.149346 92.2346C0.558031 97.157 1.32999 100.254 2.96473 103.641C6.08889 110.126 12.0557 114.994 19.0851 116.81C21.519 117.437 24.2072 117.782 27.6584 117.945C29.1205 118.009 44.0239 118.054 58.9363 118.054C73.8488 118.054 88.7612 118.036 90.1871 117.964C94.1831 117.776 96.5035 117.464 99.0692 116.801C106.144 114.976 112.002 110.18 115.189 103.605C116.792 100.299 117.605 97.0844 117.973 92.419C118.053 91.4018 118.087 75.1843 118.087 58.9886C118.087 42.7902 118.05 26.6026 117.97 25.5855C117.598 20.8447 116.785 17.657 115.13 14.2876C113.773 11.5294 112.265 9.46967 110.076 7.36359C106.17 3.63275 101.393 1.36228 95.7007 0.54128C92.9425 0.142585 92.3931 0.0245211 78.2798 0H59.0626Z" fill="url(#paint0_radial)"/>
<path d="M59.0626 0C34.4125 0 27.2034 0.0254293 25.802 0.141677C20.7434 0.562168 17.5956 1.35865 14.1663 3.06604C11.5235 4.37837 9.4392 5.89959 7.38215 8.03201C3.63588 11.9209 1.36541 16.7052 0.5435 22.3923C0.143897 25.1532 0.0276493 25.7162 0.00403639 39.8186C-0.00504549 44.5194 0.00403639 50.7059 0.00403639 59.0041C0.00403639 83.6341 0.031282 90.836 0.149346 92.2346C0.558031 97.157 1.32999 100.254 2.96473 103.641C6.08889 110.126 12.0557 114.994 19.0851 116.81C21.519 117.437 24.2072 117.782 27.6584 117.945C29.1205 118.009 44.0239 118.054 58.9363 118.054C73.8488 118.054 88.7612 118.036 90.1871 117.964C94.1831 117.776 96.5035 117.464 99.0692 116.801C106.144 114.976 112.002 110.18 115.189 103.605C116.792 100.299 117.605 97.0844 117.973 92.419C118.053 91.4018 118.087 75.1843 118.087 58.9886C118.087 42.7902 118.05 26.6026 117.97 25.5855C117.598 20.8447 116.785 17.657 115.13 14.2876C113.773 11.5294 112.265 9.46967 110.076 7.36359C106.17 3.63275 101.393 1.36228 95.7007 0.54128C92.9425 0.142585 92.3931 0.0245211 78.2798 0H59.0626Z" fill="url(#paint1_radial)"/>
<path d="M59.0351 15.4392C47.196 15.4392 45.7102 15.491 41.0603 15.7026C36.4194 15.9151 33.2517 16.6498 30.4799 17.7278C27.6127 18.8413 25.1806 20.3307 22.7576 22.7547C20.3327 25.1777 18.8433 27.6098 17.7262 30.4761C16.6455 33.2488 15.9098 36.4174 15.7009 41.0565C15.493 45.7064 15.4385 47.1931 15.4385 59.0322C15.4385 70.8714 15.4912 72.3526 15.7019 77.0025C15.9153 81.6434 16.65 84.8111 17.7271 87.5829C18.8415 90.4501 20.3309 92.8822 22.7548 95.3053C25.177 97.7301 27.6091 99.2232 30.4744 100.337C33.248 101.415 36.4167 102.149 41.0566 102.362C45.7066 102.573 47.1914 102.625 59.0297 102.625C70.8697 102.625 72.351 102.573 77.0009 102.362C81.6417 102.149 84.8131 101.415 87.5867 100.337C90.453 99.2232 92.8815 97.7301 95.3036 95.3053C97.7285 92.8822 99.2179 90.4501 100.335 87.5838C101.407 84.8111 102.142 81.6425 102.36 77.0034C102.569 72.3535 102.624 70.8714 102.624 59.0322C102.624 47.1931 102.569 45.7073 102.36 41.0574C102.142 36.4165 101.407 33.2488 100.335 30.477C99.2179 27.6098 97.7285 25.1777 95.3036 22.7547C92.8787 20.3298 90.4539 18.8404 87.584 17.7278C84.805 16.6498 81.6354 15.9151 76.9945 15.7026C72.3446 15.491 70.8643 15.4392 59.0215 15.4392H59.0351ZM55.1245 23.295C56.2851 23.2932 57.5802 23.295 59.0351 23.295C70.6745 23.295 72.054 23.3368 76.6503 23.5457C80.9007 23.74 83.2075 24.4502 84.7441 25.0469C86.7784 25.8371 88.2288 26.7816 89.7537 28.3073C91.2794 29.8331 92.2239 31.2862 93.0159 33.3205C93.6126 34.8554 94.3237 37.1622 94.5171 41.4125C94.726 46.0079 94.7714 47.3883 94.7714 59.0222C94.7714 70.6561 94.726 72.0366 94.5171 76.632C94.3228 80.8823 93.6126 83.1891 93.0159 84.724C92.2258 86.7583 91.2794 88.2069 89.7537 89.7317C88.2279 91.2575 86.7794 92.202 84.7441 92.9921C83.2093 93.5915 80.9007 94.2999 76.6503 94.4942C72.0549 94.7031 70.6745 94.7485 59.0351 94.7485C47.3949 94.7485 46.0153 94.7031 41.4199 94.4942C37.1696 94.2981 34.8628 93.5879 33.3252 92.9912C31.2909 92.2011 29.8378 91.2566 28.312 89.7308C26.7863 88.205 25.8418 86.7556 25.0498 84.7203C24.4531 83.1855 23.742 80.8787 23.5486 76.6284C23.3397 72.0329 23.2979 70.6525 23.2979 59.0113C23.2979 47.3702 23.3397 45.997 23.5486 41.4016C23.7429 37.1513 24.4531 34.8445 25.0498 33.3078C25.84 31.2735 26.7863 29.8204 28.312 28.2946C29.8378 26.7689 31.2909 25.8243 33.3252 25.0324C34.8619 24.433 37.1696 23.7246 41.4199 23.5293C45.4414 23.3477 46.9998 23.2932 55.1245 23.2841V23.295ZM82.3047 30.5333C79.4167 30.5333 77.0735 32.8737 77.0735 35.7626C77.0735 38.6507 79.4167 40.9938 82.3047 40.9938C85.1927 40.9938 87.5359 38.6507 87.5359 35.7626C87.5359 32.8746 85.1927 30.5315 82.3047 30.5315V30.5333ZM59.0351 36.6454C46.672 36.6454 36.6483 46.6691 36.6483 59.0322C36.6483 71.3954 46.672 81.4145 59.0351 81.4145C71.3983 81.4145 81.4183 71.3954 81.4183 59.0322C81.4183 46.6691 71.3974 36.6454 59.0342 36.6454H59.0351ZM59.0351 44.5012C67.0599 44.5012 73.5661 51.0066 73.5661 59.0322C73.5661 67.057 67.0599 73.5632 59.0351 73.5632C51.0095 73.5632 44.5041 67.057 44.5041 59.0322C44.5041 51.0066 51.0095 44.5012 59.0351 44.5012Z" fill="white"/>
<defs>
<radialGradient id="paint0_radial" cx="0" cy="0" r="1" gradientUnits="userSpaceOnUse" gradientTransform="translate(31.3669 127.147) rotate(-90) scale(117.001 108.849)">
<stop stop-color="#FFDD55"/>
<stop offset="0.1" stop-color="#FFDD55"/>
<stop offset="0.5" stop-color="#FF543E"/>
<stop offset="1" stop-color="#C837AB"/>
</radialGradient>
<radialGradient id="paint1_radial" cx="0" cy="0" r="1" gradientUnits="userSpaceOnUse" gradientTransform="translate(-19.7801 8.50444) rotate(78.6776) scale(52.3003 215.638)">
<stop stop-color="#3771C8"/>
<stop offset="0.128" stop-color="#3771C8"/>
<stop offset="1" stop-color="#6600FF" stop-opacity="0"/>
</radialGradient>
</defs>
</svg>
