<svg width="131" height="108" viewBox="0 0 131 108" fill="none" xmlns="http://www.w3.org/2000/svg">
<path d="M131 12.7211C126.18 14.8694 121 16.3213 115.563 16.9744C121.113 13.6314 125.374 8.33764 127.381 2.03015C122.105 5.17662 116.333 7.39351 110.314 8.58502C105.412 3.33547 98.4271 0.0546875 90.6965 0.0546875C75.8536 0.0546875 63.8195 12.1492 63.8195 27.0662C63.8195 29.1836 64.0575 31.245 64.5154 33.2225C42.1789 32.0956 22.3754 21.342 9.11934 4.99926C6.80637 8.98876 5.48102 13.6294 5.48102 18.5791C5.48102 27.9508 10.2262 36.2183 17.4373 41.0626C13.1693 40.9283 8.99524 39.7697 5.26354 37.6836C5.262 37.7968 5.262 37.9099 5.262 38.0236C5.262 51.1112 14.5262 62.029 26.8207 64.5105C22.863 65.5923 18.7117 65.7506 14.6838 64.9734C18.1036 75.705 28.0294 83.5142 39.7897 83.7328C30.5916 90.9774 19.0027 95.296 6.41132 95.296C4.24164 95.296 2.10265 95.168 0 94.9185C11.8939 102.583 26.0209 107.055 41.1985 107.055C90.6341 107.055 117.667 65.894 117.667 30.1989C117.667 29.0273 117.641 27.8624 117.589 26.7041C122.851 22.8812 127.392 18.1461 131 12.7211Z" fill="#55ACEE"/>
</svg>
