<svg width="11" height="14" viewBox="0 0 11 14" fill="none" xmlns="http://www.w3.org/2000/svg">
    <path d="M6.34506 0.133789C6.34506 0.133789 6.83885 1.76277 6.83885 3.08439C6.83885 4.35069 5.93801 5.37725 4.56341 5.37725C3.18213 5.37725 2.14117 4.35069 2.14117 3.08439L2.16119 2.8631C0.813273 4.3384 0.00585938 6.25014 0.00585938 8.32786C0.00585938 11.0449 2.39474 13.2455 5.34413 13.2455C8.29352 13.2455 10.6824 11.0449 10.6824 8.32786C10.6824 5.01458 8.95413 2.05783 6.34506 0.133789ZM5.15062 11.4014C3.96285 11.4014 3.00196 10.5408 3.00196 9.47121C3.00196 8.47539 3.70261 7.77462 4.87703 7.55332C6.05812 7.33203 7.27925 6.80953 7.95988 5.96737C8.22012 6.76035 8.35358 7.59635 8.35358 8.4508C8.35358 10.0798 6.91892 11.4014 5.15062 11.4014Z"
          fill="#E77345"/>
</svg>
