<svg width="15" height="13" viewBox="0 0 15 13" fill="none" xmlns="http://www.w3.org/2000/svg">
    <path d="M6.43977 0.658338C6.5008 0.635712 6.56606 0.624392 6.63184 0.625025C6.69762 0.625658 6.76262 0.638231 6.82312 0.662026L11.7277 2.59836C11.8107 2.63118 11.8826 2.6841 11.9356 2.75151C11.9886 2.81891 12.0208 2.89829 12.0288 2.9812C12.0369 3.06412 12.0203 3.14749 11.9811 3.22246C11.9418 3.29743 11.8812 3.3612 11.8057 3.40701L11.8047 3.40885L11.7937 3.41531C11.7181 3.46266 11.6443 3.51249 11.5725 3.56468C11.4244 3.6698 11.2242 3.82194 11.019 4.00727C10.6256 4.36319 10.2713 4.78918 10.1482 5.20964C10.3884 5.85048 10.7307 6.58444 11.023 7.17732C11.1818 7.49899 11.3453 7.81867 11.5135 8.13627L13.1129 9.02145C13.424 9.19349 13.6814 9.43676 13.8601 9.7276C14.0388 10.0184 14.1328 10.347 14.1329 10.6812V12.1509C14.1329 12.2708 14.0823 12.3861 13.9917 12.4721C13.901 12.5582 13.7775 12.6084 13.6474 12.612L13.6324 12.1509L13.6474 12.612H13.6134C13.474 12.6153 13.3345 12.6153 13.195 12.612C11.5058 12.5757 9.82743 12.3538 8.19539 11.9508C5.2827 11.2206 1.85953 9.66689 0.167967 6.35392C0.135633 6.29079 0.119283 6.22172 0.12015 6.15192C0.121017 6.08212 0.139078 6.01341 0.172972 5.95098C0.693453 4.99296 1.74443 3.86435 2.89549 2.89434C4.04355 1.92525 5.35677 1.05667 6.43877 0.658338H6.43977ZM13.132 11.6881V11.1929C6.7991 10.6756 3.28385 8.25706 1.55925 5.62457C1.41512 5.81175 1.289 5.9934 1.18191 6.16674C2.72834 8.98549 5.73312 10.3778 8.45864 11.0611C9.98448 11.4375 11.5529 11.6479 13.132 11.6881ZM12.5975 9.81166L11.2082 9.04358L10.3174 9.86422C11.1491 10.0376 12.053 10.1722 13.0319 10.2589C12.9393 10.0728 12.7879 9.91695 12.5975 9.81166ZM9.27439 9.51936L10.5235 8.37047L10.5155 8.35388C10.3776 8.09032 10.2428 7.82536 10.1112 7.55906C9.79786 6.93201 9.51171 6.29374 9.25337 5.64578L7.68292 5.40512L9.04418 7.28613C9.10131 7.36536 9.13044 7.45894 9.12757 7.55402C9.12471 7.64911 9.08998 7.74105 9.02816 7.81724L7.91013 9.19111C8.31851 9.33864 8.75091 9.47511 9.20633 9.59866C9.22584 9.57004 9.24866 9.54345 9.27439 9.51936ZM9.27439 4.71357C9.51061 4.15665 9.94801 3.68363 10.3184 3.34892C10.4004 3.27515 10.4815 3.20508 10.5596 3.14053L6.62594 1.58778C5.80118 1.92894 4.78123 2.58637 3.81234 3.37474L4.97842 4.44802C5.02486 4.49091 5.06167 4.54182 5.08675 4.59782C5.11182 4.65383 5.12467 4.71384 5.12455 4.77443V7.81447C5.66805 8.17407 6.27962 8.51063 6.96626 8.81399L8.01523 7.52494L6.20956 5.02984C6.15561 4.95504 6.12655 4.86735 6.12595 4.77755C6.12535 4.68775 6.15323 4.59974 6.20617 4.52434C6.25911 4.44893 6.33481 4.38941 6.42396 4.35308C6.51311 4.31676 6.61184 4.30521 6.70802 4.31985L9.27339 4.71357H9.27439ZM3.08066 4.0045C2.77438 4.28297 2.48711 4.56512 2.22587 4.8445C2.72317 5.67477 3.36417 6.42473 4.12363 7.06483V4.96529L3.08066 4.0045Z"
          fill="#FFF500"/>
</svg>
