<?xml version="1.0" encoding="UTF-8" standalone="no"?>
<svg
   xmlns:dc="http://purl.org/dc/elements/1.1/"
   xmlns:cc="http://creativecommons.org/ns#"
   xmlns:rdf="http://www.w3.org/1999/02/22-rdf-syntax-ns#"
   xmlns:svg="http://www.w3.org/2000/svg"
   xmlns="http://www.w3.org/2000/svg"
   xmlns:sodipodi="http://sodipodi.sourceforge.net/DTD/sodipodi-0.dtd"
   xmlns:inkscape="http://www.inkscape.org/namespaces/inkscape"
   sodipodi:docname="360.svg"
   inkscape:version="1.0 (6e3e5246a0, 2020-05-07)"
   id="svg16430"
   version="1.1"
   viewBox="0 0 28.215149 20.236559"
   height="20.236559mm"
   width="28.215149mm">
  <defs
     id="defs16424">
    <linearGradient
       id="linearGradient8877"
       spreadMethod="pad"
       gradientTransform="matrix(48.269081,0,0,-48.269081,849.44867,944.24225)"
       gradientUnits="userSpaceOnUse"
       y2="0"
       x2="1"
       y1="0"
       x1="0">
      <stop
         id="stop8871"
         offset="0"
         style="stop-opacity:1;stop-color:#f6d348" />
      <stop
         id="stop8873"
         offset="0.03027482"
         style="stop-opacity:1;stop-color:#f6d348" />
      <stop
         id="stop8875"
         offset="1"
         style="stop-opacity:1;stop-color:#f263bd" />
    </linearGradient>
    <linearGradient
       id="linearGradient8899"
       spreadMethod="pad"
       gradientTransform="matrix(10.331854,3.2526207,3.2526207,-10.331854,888.495,926.63562)"
       gradientUnits="userSpaceOnUse"
       y2="0"
       x2="1"
       y1="0"
       x1="0">
      <stop
         id="stop8893"
         offset="0"
         style="stop-opacity:1;stop-color:#e35db8" />
      <stop
         id="stop8895"
         offset="0.60396321"
         style="stop-opacity:1;stop-color:#1e0757" />
      <stop
         id="stop8897"
         offset="1"
         style="stop-opacity:1;stop-color:#1e0757" />
    </linearGradient>
    <linearGradient
       id="linearGradient8921"
       spreadMethod="pad"
       gradientTransform="matrix(153.3515,-4.1136088,-4.1136088,-153.3515,822.70538,938.73755)"
       gradientUnits="userSpaceOnUse"
       y2="0"
       x2="1"
       y1="0"
       x1="0">
      <stop
         id="stop8915"
         offset="0"
         style="stop-opacity:1;stop-color:#63d7c2" />
      <stop
         id="stop8917"
         offset="0.67807152"
         style="stop-opacity:1;stop-color:#63d7c2" />
      <stop
         id="stop8919"
         offset="1"
         style="stop-opacity:1;stop-color:#1e0757" />
    </linearGradient>
    <clipPath
       id="clipPath8931"
       clipPathUnits="userSpaceOnUse">
      <path
         id="path8929"
         d="M 0,1080 H 1920 V 0 H 0 Z" />
    </clipPath>
    <linearGradient
       id="linearGradient8963"
       spreadMethod="pad"
       gradientTransform="matrix(150.0032,-1.9133064,-1.9133064,-150.0032,792.00879,952.13818)"
       gradientUnits="userSpaceOnUse"
       y2="0"
       x2="1"
       y1="0"
       x1="0">
      <stop
         id="stop8957"
         offset="0"
         style="stop-opacity:1;stop-color:#e35db8" />
      <stop
         id="stop8959"
         offset="0.60396321"
         style="stop-opacity:1;stop-color:#1e0757" />
      <stop
         id="stop8961"
         offset="1"
         style="stop-opacity:1;stop-color:#1e0757" />
    </linearGradient>
    <linearGradient
       id="linearGradient8985"
       spreadMethod="pad"
       gradientTransform="matrix(10.182792,0,0,-10.182792,824.96368,929.24384)"
       gradientUnits="userSpaceOnUse"
       y2="0"
       x2="1"
       y1="0"
       x1="0">
      <stop
         id="stop8979"
         offset="0"
         style="stop-opacity:1;stop-color:#e35db8" />
      <stop
         id="stop8981"
         offset="0.60396321"
         style="stop-opacity:1;stop-color:#1e0757" />
      <stop
         id="stop8983"
         offset="1"
         style="stop-opacity:1;stop-color:#1e0757" />
    </linearGradient>
    <linearGradient
       id="linearGradient9007"
       spreadMethod="pad"
       gradientTransform="matrix(21.866339,0,0,-21.866339,827.83173,943.87207)"
       gradientUnits="userSpaceOnUse"
       y2="0"
       x2="1"
       y1="0"
       x1="0">
      <stop
         id="stop9001"
         offset="0"
         style="stop-opacity:1;stop-color:#f6d348" />
      <stop
         id="stop9003"
         offset="0.03027482"
         style="stop-opacity:1;stop-color:#f6d348" />
      <stop
         id="stop9005"
         offset="1"
         style="stop-opacity:1;stop-color:#f263bd" />
    </linearGradient>
    <linearGradient
       id="linearGradient9029"
       spreadMethod="pad"
       gradientTransform="matrix(6.5575695,0,0,-6.5575695,882.08179,931.98871)"
       gradientUnits="userSpaceOnUse"
       y2="0"
       x2="1"
       y1="0"
       x1="0">
      <stop
         id="stop9023"
         offset="0"
         style="stop-opacity:1;stop-color:#e35db8" />
      <stop
         id="stop9025"
         offset="0.60396321"
         style="stop-opacity:1;stop-color:#1e0757" />
      <stop
         id="stop9027"
         offset="1"
         style="stop-opacity:1;stop-color:#1e0757" />
    </linearGradient>
    <linearGradient
       id="linearGradient9051"
       spreadMethod="pad"
       gradientTransform="matrix(8.5629311,0,0,-8.5629311,847.03308,952.83289)"
       gradientUnits="userSpaceOnUse"
       y2="0"
       x2="1"
       y1="0"
       x1="0">
      <stop
         id="stop9045"
         offset="0"
         style="stop-opacity:1;stop-color:#f6d348" />
      <stop
         id="stop9047"
         offset="0.03027482"
         style="stop-opacity:1;stop-color:#f6d348" />
      <stop
         id="stop9049"
         offset="1"
         style="stop-opacity:1;stop-color:#f263bd" />
    </linearGradient>
  </defs>
  <sodipodi:namedview
     inkscape:window-maximized="0"
     inkscape:window-y="27"
     inkscape:window-x="492"
     inkscape:window-height="1016"
     inkscape:window-width="1428"
     showgrid="false"
     inkscape:document-rotation="0"
     inkscape:current-layer="layer1"
     inkscape:document-units="mm"
     inkscape:cy="323.9566"
     inkscape:cx="341.89139"
     inkscape:zoom="0.35"
     inkscape:pageshadow="2"
     inkscape:pageopacity="0.0"
     borderopacity="1.0"
     bordercolor="#666666"
     pagecolor="#ffffff"
     id="base" />
  <metadata
     id="metadata16427">
    <rdf:RDF>
      <cc:Work
         rdf:about="">
        <dc:format>image/svg+xml</dc:format>
        <dc:type
           rdf:resource="http://purl.org/dc/dcmitype/StillImage" />
        <dc:title></dc:title>
      </cc:Work>
    </rdf:RDF>
  </metadata>
  <g
     transform="translate(-15.374569,-62.45315)"
     id="layer1"
     inkscape:groupmode="layer"
     inkscape:label="Layer 1">
    <g
       transform="matrix(0.35277777,0,0,-0.35277777,-274.81515,402.39369)"
       id="g13437">
      <g
         id="g8859">
        <g
           id="g8861">
          <g
             id="g8867">
            <g
               id="g8869">
              <path
                 d="m 880.559,954.785 c -2.432,-2.423 -4.856,-4.854 -7.281,-7.285 v 0 c -0.021,-0.021 -10e-4,-0.081 0.046,-0.165 v 0 l -0.173,0.038 -3.44,-3.382 v 2.309 l -5.775,5.44 -14.488,-13.647 10.902,0.644 21.302,-4.056 7.573,-1.632 4.704,3.739 3.789,4.309 -2.466,1.397 c -4.093,4.103 -8.077,8.096 -12.061,12.088 v 0 c -0.132,0.133 -0.259,0.269 -0.399,0.392 v 0 c -0.353,0.306 -0.682,0.462 -1.014,0.462 v 0 c -0.389,0 -0.781,-0.214 -1.219,-0.651"
                 style="fill:url(#linearGradient8877);stroke:none"
                 id="path8879" />
            </g>
          </g>
        </g>
      </g>
      <g
         id="g8881">
        <g
           id="g8883">
          <g
             id="g8889">
            <g
               id="g8891">
              <path
                 d="m 900.012,943.518 c -2.781,-2.656 -6.173,-4.259 -9.744,-5.529 v 0 c -0.73,-0.258 -0.937,-0.597 -0.934,-1.354 v 0 c 0.032,-7.388 0.017,-14.777 0.017,-22.164 v 0 c 0,-0.219 0.019,-0.438 0.035,-0.814 v 0 c 3.717,1.525 7.316,2.973 9.779,6.193 v 0 c 0.648,0.848 1.036,1.813 1.035,2.906 v 0 c -0.002,6.782 0,13.564 -0.001,20.347 v 0 c 0,0.136 -0.012,0.271 -0.017,0.407 v 0 c -0.05,0.004 -0.101,0.017 -0.136,0.017 v 0 c -0.015,0 -0.027,-0.002 -0.034,-0.009"
                 style="fill:url(#linearGradient8899);stroke:none"
                 id="path8901" />
            </g>
          </g>
        </g>
      </g>
      <g
         id="g8903">
        <g
           id="g8905">
          <g
             id="g8911">
            <g
               id="g8913">
              <path
                 d="m 853.375,963.21 c -6.263,-0.532 -12.425,-1.582 -18.381,-3.636 v 0 c -3.155,-1.088 -6.189,-2.448 -8.798,-4.597 v 0 c -2.301,-1.894 -3.652,-4.167 -3.61,-7.315 v 0 c 0.107,-7.832 0.034,-15.666 0.039,-23.499 v 0 c 0,-0.493 0.003,-0.993 0.084,-1.477 v 0 c 0.397,-2.348 1.817,-4.035 3.606,-5.466 v 0 c 2.7,-2.159 5.826,-3.488 9.051,-4.621 v 0 c 1.484,-0.523 2.106,-0.094 2.106,1.486 v 0 c 10e-4,5.985 0.018,11.971 -0.021,17.956 v 0 c -0.005,0.759 0.252,0.996 0.936,1.191 v 0 c 5.907,1.679 11.947,2.518 18.06,2.868 v 0 c 6.875,0.394 13.728,0.141 20.549,-0.834 v 0 c 1.389,-0.198 2.766,-0.496 4.16,-0.623 v 0 c 0.392,-0.035 0.945,0.284 1.198,0.613 v 0 c 0.179,0.235 0.108,0.848 -0.088,1.131 v 0 c -0.199,0.291 -0.667,0.481 -1.049,0.553 v 0 c -5.095,0.964 -10.237,1.496 -15.42,1.615 v 0 c -0.385,0.008 -0.767,0.041 -1.161,0.063 v 0 c 0.021,0.126 0.011,0.194 0.041,0.223 v 0 c 0.396,0.412 0.8,0.818 1.197,1.231 v 0 c 0.693,0.719 0.764,1.377 0.212,1.908 v 0 c -0.507,0.487 -1.192,0.411 -1.853,-0.237 v 0 c -0.874,-0.855 -1.702,-1.761 -2.612,-2.574 v 0 c -0.333,-0.298 -0.833,-0.529 -1.273,-0.563 v 0 c -2.152,-0.163 -4.31,-0.246 -6.465,-0.365 v 0 c -0.78,-0.042 -1.56,-0.103 -2.484,-0.164 v 0 c 0.215,0.233 0.315,0.348 0.422,0.457 v 0 c 3.588,3.588 7.174,7.176 10.763,10.763 v 0 c 0.129,0.129 0.26,0.258 0.405,0.366 v 0 c 0.572,0.426 1.204,0.48 1.708,-0.015 v 0 c 1.241,-1.215 2.425,-2.49 3.643,-3.752 v 0 c -0.135,-0.162 -0.311,-0.353 -0.464,-0.56 v 0 c -0.407,-0.546 -0.358,-1.089 0.123,-1.542 v 0 c 0.455,-0.428 0.991,-0.422 1.493,-0.056 v 0 c 0.228,0.168 0.427,0.38 0.629,0.582 v 0 c 3.294,3.294 6.585,6.589 9.879,9.883 v 0 c 1.072,1.072 1.656,1.069 2.744,-0.018 v 0 c 3.793,-3.789 7.584,-7.578 11.374,-11.368 v 0 c 0.154,-0.155 0.293,-0.326 0.466,-0.518 v 0 c -0.236,-0.135 -0.406,-0.256 -0.595,-0.335 v 0 c -1.748,-0.73 -3.498,-1.454 -5.25,-2.176 v 0 c -0.855,-0.353 -1.199,-0.93 -0.944,-1.604 v 0 c 0.251,-0.661 0.927,-0.944 1.762,-0.581 v 0 c 2.45,1.061 4.918,2.097 7.294,3.307 v 0 c 1.2,0.611 2.218,1.578 3.371,2.422 v 0 -1.001 c 0,-6.089 -0.011,-12.178 0.011,-18.269 v 0 c 0.005,-1.232 -0.378,-2.287 -1.107,-3.248 v 0 c -1.358,-1.788 -3.208,-2.947 -5.161,-3.944 v 0 c -1.233,-0.63 -2.527,-1.144 -3.872,-1.747 v 0 c -0.018,0.385 -0.035,0.591 -0.035,0.797 v 0 c -0.002,2.107 0.011,4.216 -0.009,6.323 v 0 c -0.009,0.855 -0.493,1.351 -1.203,1.334 v 0 c -0.681,-0.017 -1.124,-0.501 -1.127,-1.316 v 0 c -0.011,-2.862 -0.018,-5.724 0.003,-8.587 v 0 c 0.008,-1.063 0.753,-1.606 1.735,-1.193 v 0 c 2.366,0.996 4.773,1.929 7.027,3.144 v 0 c 2.897,1.564 5.296,3.687 6.081,7.121 v 0 26.86 c -0.455,1.593 -1.176,3.015 -2.354,4.226 v 0 c -2.151,2.215 -4.787,3.654 -7.587,4.804 v 0 c -7.176,2.947 -14.733,4.145 -22.41,4.704 v 0 c -2.506,0.182 -5.012,0.271 -7.519,0.271 v 0 c -3.107,-10e-4 -6.215,-0.137 -9.32,-0.401 m -27.571,-12.039 c 1.005,1.438 2.338,2.508 3.825,3.389 v 0 c 4.283,2.537 8.993,3.89 13.822,4.874 v 0 c 8.463,1.727 17.015,2.121 25.62,1.617 v 0 c 6.877,-0.403 13.649,-1.406 20.192,-3.64 v 0 c 3.235,-1.104 6.353,-2.458 8.907,-4.834 v 0 c 2.673,-2.486 2.71,-5.134 0.088,-7.673 v 0 c -0.478,-0.467 -1.021,-0.868 -1.564,-1.325 v 0 c -0.252,0.24 -0.46,0.431 -0.659,0.631 v 0 c -3.882,3.882 -7.762,7.767 -11.643,11.65 v 0 c -2.01,2.013 -4.029,2.019 -6.037,0.012 v 0 c -2.722,-2.722 -5.441,-5.447 -8.204,-8.213 v 0 c -0.177,0.144 -0.341,0.258 -0.48,0.396 v 0 c -0.96,0.954 -1.915,1.913 -2.872,2.869 v 0 c -1.926,1.924 -3.984,1.919 -5.929,-0.022 v 0 c -2.964,-2.96 -5.925,-5.924 -8.888,-8.885 v 0 c -0.199,-0.198 -0.407,-0.387 -0.692,-0.657 v 0 c -2.159,2.172 -4.248,4.277 -6.339,6.377 v 0 c -1.8,1.807 -3.603,3.611 -5.406,5.414 v 0 c -1.974,1.976 -4.016,1.987 -5.98,0.027 v 0 c -2.248,-2.242 -4.493,-4.485 -6.734,-6.733 v 0 c -0.2,-0.202 -0.37,-0.434 -0.549,-0.646 v 0 c -1.542,1.395 -1.699,3.628 -0.478,5.372 m 11.683,-12.945 c 0.039,0.865 -0.365,1.296 -1.144,1.618 v 0 c -2.084,0.86 -4.15,1.766 -6.186,2.73 v 0 c -0.809,0.381 -1.523,0.964 -2.325,1.486 v 0 c 0.172,0.203 0.276,0.345 0.4,0.469 v 0 c 2.37,2.375 4.737,4.75 7.113,7.117 v 0 c 0.793,0.79 1.433,0.834 2.181,0.184 v 0 c 0.137,-0.119 0.261,-0.253 0.39,-0.382 v 0 c 3.892,-3.9 7.784,-7.802 11.782,-11.808 v 0 c -0.678,-0.645 -1.336,-1.294 -2.024,-1.908 v 0 c -0.16,-0.143 -0.414,-0.203 -0.636,-0.251 v 0 c -3.017,-0.65 -6.037,-1.293 -9.055,-1.936 v 0 c -0.149,-0.031 -0.299,-0.049 -0.504,-0.082 v 0 c 0,0.948 -0.033,1.857 0.008,2.763 m -11.553,-17.227 c -0.607,0.799 -0.972,1.709 -0.971,2.74 v 0 c 0.003,6.397 0,12.794 0.002,19.192 v 0 c 0,0.128 0.011,0.256 0.016,0.384 v 0 c 0.067,0.005 0.136,0.03 0.16,0.007 v 0 c 2.605,-2.504 5.784,-4.017 9.129,-5.213 v 0 c 0.685,-0.246 0.88,-0.563 0.877,-1.278 v 0 c -0.031,-6.97 -0.017,-13.939 -0.018,-20.908 v 0 c 0,-0.206 -0.016,-0.412 -0.033,-0.767 v 0 c -3.482,1.438 -6.855,2.804 -9.162,5.843"
                 style="fill:url(#linearGradient8921);stroke:none"
                 id="path8923" />
            </g>
          </g>
        </g>
      </g>
      <g
         id="g8925">
        <g
           id="g8927"
           clip-path="url(#clipPath8931)">
          <g
             id="g8933"
             transform="translate(861.9385,918.7305)">
            <path
               d="m 0,0 c -2.848,-0.071 -4.744,-2.263 -4.659,-5.386 0.073,-2.691 2.179,-4.799 4.759,-4.761 2.747,0.039 4.79,2.302 4.709,5.218 C 4.728,-2.021 2.69,0.066 0,0 m -4.647,0.76 c 0.918,0.438 1.759,0.974 2.677,1.256 4.325,1.327 8.619,-1.607 9.048,-6.108 0.306,-3.212 -0.699,-5.834 -3.577,-7.452 -4.429,-2.489 -9.93,0.252 -10.381,5.32 C -7.176,-2.898 -7.162,0.5 -6.84,3.822 -6.344,8.938 -0.317,11.547 3.958,8.69 4.857,8.09 5.095,7.481 4.681,6.84 4.268,6.2 3.595,6.16 2.7,6.724 0.775,7.936 -1.51,7.764 -3.128,6.271 -4.068,5.402 -4.581,4.315 -4.642,3.038 -4.678,2.271 -4.647,1.499 -4.647,0.76"
               style="fill:#63d7c2;fill-opacity:1;fill-rule:nonzero;stroke:none"
               id="path8935" />
          </g>
          <g
             id="g8937"
             transform="translate(882.6221,917.4639)">
            <path
               d="M 0,0 C 0,1.663 0.121,3.336 -0.029,4.985 -0.233,7.23 -2.305,8.889 -4.518,8.785 -6.86,8.675 -8.729,6.95 -8.785,4.65 -8.862,1.531 -8.863,-1.591 -8.786,-4.71 c 0.057,-2.327 1.98,-4.089 4.335,-4.161 2.204,-0.067 4.227,1.617 4.426,3.886 C 0.118,-3.336 0.002,-1.663 0,0 m -11.141,0.054 c 0,1.559 -0.067,3.122 0.014,4.677 0.173,3.316 2.81,6.034 5.9,6.348 3.671,0.373 6.697,-1.954 7.48,-5.29 C 2.33,5.463 2.366,5.119 2.364,4.784 2.348,1.304 2.491,-2.188 2.243,-5.652 c -0.229,-3.22 -3.824,-5.78 -7.027,-5.55 -3.484,0.25 -6.445,3.179 -6.394,6.966 0.02,1.429 0.003,2.859 0.003,4.29 z"
               style="fill:#63d7c2;fill-opacity:1;fill-rule:nonzero;stroke:none"
               id="path8939" />
          </g>
          <g
             id="g8941"
             transform="translate(848.6201,920.2198)">
            <path
               d="m 0,0 c 2.003,-1.243 3.267,-2.9 3.731,-5.153 0.858,-4.161 -2.253,-8.343 -6.482,-8.744 -2.612,-0.249 -4.745,0.615 -6.46,2.561 -0.665,0.756 -0.68,1.418 -0.097,1.915 0.532,0.452 1.23,0.374 1.833,-0.348 1.733,-2.071 4.608,-2.302 6.561,-1.114 1.786,1.086 2.792,3.35 2.34,5.376 -0.486,2.178 -2.282,3.782 -4.453,3.983 -0.258,0.024 -0.515,0.072 -0.769,0.126 -0.599,0.127 -0.897,0.548 -0.894,1.116 0.003,0.565 0.3,0.987 0.904,1.107 0.229,0.045 0.462,0.075 0.692,0.119 1.08,0.209 1.756,0.874 2.041,1.912 0.276,1.003 -0.136,2.095 -0.991,2.691 C -2.937,6.168 -3.881,6.203 -4.839,5.69 -5.021,5.593 -5.181,5.453 -5.359,5.348 -5.971,4.985 -6.586,5.073 -6.963,5.569 -7.367,6.101 -7.272,6.73 -6.715,7.228 -4.808,8.927 -1.606,8.698 0.103,6.742 1.707,4.905 1.789,2.382 0.309,0.437 0.217,0.315 0.133,0.188 0,0"
               style="fill:#63d7c2;fill-opacity:1;fill-rule:nonzero;stroke:none"
               id="path8943" />
          </g>
        </g>
      </g>
      <g
         id="g8945">
        <g
           id="g8947">
          <g
             id="g8953">
            <g
               id="g8955">
              <path
                 d="m 843.451,959.434 c -4.829,-0.984 -9.539,-2.337 -13.822,-4.874 v 0 c -1.487,-0.881 -2.82,-1.951 -3.825,-3.389 v 0 c -1.221,-1.744 -1.064,-3.977 0.478,-5.372 v 0 c 0.179,0.212 0.349,0.444 0.549,0.646 v 0 c 2.241,2.248 4.486,4.491 6.734,6.733 v 0 c 1.964,1.96 4.006,1.949 5.98,-0.027 v 0 c 1.803,-1.803 3.606,-3.607 5.406,-5.414 v 0 c 2.091,-2.1 4.18,-4.205 6.339,-6.377 v 0 c 0.285,0.27 0.493,0.459 0.692,0.657 v 0 c 2.963,2.961 5.924,5.925 8.888,8.885 v 0 c 1.945,1.941 4.003,1.946 5.929,0.022 v 0 c 0.957,-0.956 1.912,-1.915 2.872,-2.869 v 0 c 0.139,-0.138 0.303,-0.252 0.48,-0.396 v 0 c 2.763,2.766 5.482,5.491 8.204,8.213 v 0 c 2.008,2.007 4.027,2.001 6.037,-0.012 v 0 c 3.881,-3.883 7.761,-7.768 11.643,-11.65 v 0 c 0.199,-0.2 0.407,-0.391 0.659,-0.631 v 0 c 0.543,0.457 1.086,0.858 1.564,1.325 v 0 c 2.622,2.539 2.585,5.187 -0.088,7.673 v 0 c -2.554,2.376 -5.672,3.73 -8.907,4.834 v 0 c -6.543,2.234 -13.315,3.237 -20.192,3.64 v 0 c -2.271,0.133 -4.538,0.203 -6.801,0.203 v 0 c -6.312,0 -12.59,-0.548 -18.819,-1.82 m 3.576,-6.597 c -0.005,2.33 1.919,4.267 4.255,4.288 v 0 c 2.403,0.021 4.314,-1.87 4.319,-4.273 v 0 c 0.007,-2.345 -1.88,-4.269 -4.228,-4.31 v 0 c -0.024,0 -0.049,0 -0.073,0 v 0 c -2.301,0 -4.267,1.968 -4.273,4.295"
                 style="fill:url(#linearGradient8963);stroke:none"
                 id="path8965" />
            </g>
          </g>
        </g>
      </g>
      <g
         id="g8967">
        <g
           id="g8969">
          <g
             id="g8975">
            <g
               id="g8977">
              <path
                 d="m 824.981,943.315 c -0.005,-0.128 -0.016,-0.256 -0.016,-0.384 v 0 c -0.002,-6.398 10e-4,-12.795 -0.002,-19.192 v 0 c -10e-4,-1.031 0.364,-1.941 0.971,-2.74 v 0 c 2.307,-3.039 5.68,-4.405 9.162,-5.843 v 0 c 0.017,0.355 0.033,0.561 0.033,0.767 v 0 c 10e-4,6.969 -0.013,13.938 0.018,20.908 v 0 c 0.003,0.715 -0.192,1.032 -0.877,1.278 v 0 c -3.345,1.196 -6.524,2.709 -9.129,5.213 v 0 c -0.007,0.007 -0.019,0.01 -0.033,0.01 v 0 c -0.032,0 -0.08,-0.014 -0.127,-0.017"
                 style="fill:url(#linearGradient8985);stroke:none"
                 id="path8987" />
            </g>
          </g>
        </g>
      </g>
      <g
         id="g8989">
        <g
           id="g8991">
          <g
             id="g8997">
            <g
               id="g8999">
              <path
                 d="m 835.345,951.646 c -2.376,-2.367 -4.743,-4.742 -7.113,-7.117 v 0 c -0.124,-0.124 -0.228,-0.266 -0.4,-0.469 v 0 c 0.802,-0.522 1.516,-1.105 2.325,-1.486 v 0 c 2.036,-0.964 4.102,-1.87 6.186,-2.73 v 0 c 0.779,-0.322 1.183,-0.753 1.144,-1.618 v 0 c -0.041,-0.906 -0.008,-1.815 -0.008,-2.763 v 0 c 0.205,0.033 0.355,0.051 0.504,0.082 v 0 c 3.018,0.643 6.038,1.286 9.055,1.936 v 0 c 0.222,0.048 0.476,0.108 0.636,0.251 v 0 c 0.688,0.614 1.346,1.263 2.024,1.908 v 0 c -3.998,4.006 -7.89,7.908 -11.782,11.808 v 0 c -0.129,0.129 -0.253,0.263 -0.39,0.382 v 0 c -0.345,0.299 -0.666,0.451 -0.99,0.451 v 0 c -0.38,0 -0.763,-0.209 -1.191,-0.635"
                 style="fill:url(#linearGradient9007);stroke:none"
                 id="path9009" />
            </g>
          </g>
        </g>
      </g>
      <g
         id="g9011">
        <g
           id="g9013">
          <g
             id="g9019">
            <g
               id="g9021">
              <path
                 d="m 882.082,931.906 c 0.031,-1.759 1.533,-3.215 3.297,-3.196 v 0 c 1.729,0.02 3.259,1.553 3.26,3.27 v 0 c 0,1.683 -1.569,3.264 -3.266,3.286 v 0 c -0.013,0.001 -0.026,0.001 -0.04,0.001 v 0 c -1.744,0 -3.282,-1.585 -3.251,-3.361"
                 style="fill:url(#linearGradient9029);stroke:none"
                 id="path9031" />
            </g>
          </g>
        </g>
      </g>
      <g
         id="g9033">
        <g
           id="g9035">
          <g
             id="g9041">
            <g
               id="g9043">
              <path
                 d="m 847.033,952.9 c -0.031,-2.265 2.133,-4.412 4.395,-4.358 v 0 c 2.271,0.054 4.186,2.053 4.168,4.355 v 0 c -0.019,2.326 -1.932,4.228 -4.255,4.228 v 0 c -2.273,-10e-4 -4.276,-1.965 -4.308,-4.225"
                 style="fill:url(#linearGradient9051);stroke:none"
                 id="path9053" />
            </g>
          </g>
        </g>
      </g>
    </g>
    <g
       id="g16698"
       transform="matrix(0.35277777,0,0,-0.35277777,-274.81515,402.39369)">
      <g
         id="g16610">
        <g
           id="g16608">
          <g
             id="g16606">
            <g
               id="g16604">
              <path
                 id="path16602"
                 style="fill:url(#linearGradient8877);stroke:none"
                 d="m 880.559,954.785 c -2.432,-2.423 -4.856,-4.854 -7.281,-7.285 v 0 c -0.021,-0.021 -10e-4,-0.081 0.046,-0.165 v 0 l -0.173,0.038 -3.44,-3.382 v 2.309 l -5.775,5.44 -14.488,-13.647 10.902,0.644 21.302,-4.056 7.573,-1.632 4.704,3.739 3.789,4.309 -2.466,1.397 c -4.093,4.103 -8.077,8.096 -12.061,12.088 v 0 c -0.132,0.133 -0.259,0.269 -0.399,0.392 v 0 c -0.353,0.306 -0.682,0.462 -1.014,0.462 v 0 c -0.389,0 -0.781,-0.214 -1.219,-0.651" />
            </g>
          </g>
        </g>
      </g>
      <g
         id="g16620">
        <g
           id="g16618">
          <g
             id="g16616">
            <g
               id="g16614">
              <path
                 id="path16612"
                 style="fill:url(#linearGradient8899);stroke:none"
                 d="m 900.012,943.518 c -2.781,-2.656 -6.173,-4.259 -9.744,-5.529 v 0 c -0.73,-0.258 -0.937,-0.597 -0.934,-1.354 v 0 c 0.032,-7.388 0.017,-14.777 0.017,-22.164 v 0 c 0,-0.219 0.019,-0.438 0.035,-0.814 v 0 c 3.717,1.525 7.316,2.973 9.779,6.193 v 0 c 0.648,0.848 1.036,1.813 1.035,2.906 v 0 c -0.002,6.782 0,13.564 -0.001,20.347 v 0 c 0,0.136 -0.012,0.271 -0.017,0.407 v 0 c -0.05,0.004 -0.101,0.017 -0.136,0.017 v 0 c -0.015,0 -0.027,-0.002 -0.034,-0.009" />
            </g>
          </g>
        </g>
      </g>
      <g
         id="g16630">
        <g
           id="g16628">
          <g
             id="g16626">
            <g
               id="g16624">
              <path
                 id="path16622"
                 style="fill:url(#linearGradient8921);stroke:none"
                 d="m 853.375,963.21 c -6.263,-0.532 -12.425,-1.582 -18.381,-3.636 v 0 c -3.155,-1.088 -6.189,-2.448 -8.798,-4.597 v 0 c -2.301,-1.894 -3.652,-4.167 -3.61,-7.315 v 0 c 0.107,-7.832 0.034,-15.666 0.039,-23.499 v 0 c 0,-0.493 0.003,-0.993 0.084,-1.477 v 0 c 0.397,-2.348 1.817,-4.035 3.606,-5.466 v 0 c 2.7,-2.159 5.826,-3.488 9.051,-4.621 v 0 c 1.484,-0.523 2.106,-0.094 2.106,1.486 v 0 c 10e-4,5.985 0.018,11.971 -0.021,17.956 v 0 c -0.005,0.759 0.252,0.996 0.936,1.191 v 0 c 5.907,1.679 11.947,2.518 18.06,2.868 v 0 c 6.875,0.394 13.728,0.141 20.549,-0.834 v 0 c 1.389,-0.198 2.766,-0.496 4.16,-0.623 v 0 c 0.392,-0.035 0.945,0.284 1.198,0.613 v 0 c 0.179,0.235 0.108,0.848 -0.088,1.131 v 0 c -0.199,0.291 -0.667,0.481 -1.049,0.553 v 0 c -5.095,0.964 -10.237,1.496 -15.42,1.615 v 0 c -0.385,0.008 -0.767,0.041 -1.161,0.063 v 0 c 0.021,0.126 0.011,0.194 0.041,0.223 v 0 c 0.396,0.412 0.8,0.818 1.197,1.231 v 0 c 0.693,0.719 0.764,1.377 0.212,1.908 v 0 c -0.507,0.487 -1.192,0.411 -1.853,-0.237 v 0 c -0.874,-0.855 -1.702,-1.761 -2.612,-2.574 v 0 c -0.333,-0.298 -0.833,-0.529 -1.273,-0.563 v 0 c -2.152,-0.163 -4.31,-0.246 -6.465,-0.365 v 0 c -0.78,-0.042 -1.56,-0.103 -2.484,-0.164 v 0 c 0.215,0.233 0.315,0.348 0.422,0.457 v 0 c 3.588,3.588 7.174,7.176 10.763,10.763 v 0 c 0.129,0.129 0.26,0.258 0.405,0.366 v 0 c 0.572,0.426 1.204,0.48 1.708,-0.015 v 0 c 1.241,-1.215 2.425,-2.49 3.643,-3.752 v 0 c -0.135,-0.162 -0.311,-0.353 -0.464,-0.56 v 0 c -0.407,-0.546 -0.358,-1.089 0.123,-1.542 v 0 c 0.455,-0.428 0.991,-0.422 1.493,-0.056 v 0 c 0.228,0.168 0.427,0.38 0.629,0.582 v 0 c 3.294,3.294 6.585,6.589 9.879,9.883 v 0 c 1.072,1.072 1.656,1.069 2.744,-0.018 v 0 c 3.793,-3.789 7.584,-7.578 11.374,-11.368 v 0 c 0.154,-0.155 0.293,-0.326 0.466,-0.518 v 0 c -0.236,-0.135 -0.406,-0.256 -0.595,-0.335 v 0 c -1.748,-0.73 -3.498,-1.454 -5.25,-2.176 v 0 c -0.855,-0.353 -1.199,-0.93 -0.944,-1.604 v 0 c 0.251,-0.661 0.927,-0.944 1.762,-0.581 v 0 c 2.45,1.061 4.918,2.097 7.294,3.307 v 0 c 1.2,0.611 2.218,1.578 3.371,2.422 v 0 -1.001 c 0,-6.089 -0.011,-12.178 0.011,-18.269 v 0 c 0.005,-1.232 -0.378,-2.287 -1.107,-3.248 v 0 c -1.358,-1.788 -3.208,-2.947 -5.161,-3.944 v 0 c -1.233,-0.63 -2.527,-1.144 -3.872,-1.747 v 0 c -0.018,0.385 -0.035,0.591 -0.035,0.797 v 0 c -0.002,2.107 0.011,4.216 -0.009,6.323 v 0 c -0.009,0.855 -0.493,1.351 -1.203,1.334 v 0 c -0.681,-0.017 -1.124,-0.501 -1.127,-1.316 v 0 c -0.011,-2.862 -0.018,-5.724 0.003,-8.587 v 0 c 0.008,-1.063 0.753,-1.606 1.735,-1.193 v 0 c 2.366,0.996 4.773,1.929 7.027,3.144 v 0 c 2.897,1.564 5.296,3.687 6.081,7.121 v 0 26.86 c -0.455,1.593 -1.176,3.015 -2.354,4.226 v 0 c -2.151,2.215 -4.787,3.654 -7.587,4.804 v 0 c -7.176,2.947 -14.733,4.145 -22.41,4.704 v 0 c -2.506,0.182 -5.012,0.271 -7.519,0.271 v 0 c -3.107,-10e-4 -6.215,-0.137 -9.32,-0.401 m -27.571,-12.039 c 1.005,1.438 2.338,2.508 3.825,3.389 v 0 c 4.283,2.537 8.993,3.89 13.822,4.874 v 0 c 8.463,1.727 17.015,2.121 25.62,1.617 v 0 c 6.877,-0.403 13.649,-1.406 20.192,-3.64 v 0 c 3.235,-1.104 6.353,-2.458 8.907,-4.834 v 0 c 2.673,-2.486 2.71,-5.134 0.088,-7.673 v 0 c -0.478,-0.467 -1.021,-0.868 -1.564,-1.325 v 0 c -0.252,0.24 -0.46,0.431 -0.659,0.631 v 0 c -3.882,3.882 -7.762,7.767 -11.643,11.65 v 0 c -2.01,2.013 -4.029,2.019 -6.037,0.012 v 0 c -2.722,-2.722 -5.441,-5.447 -8.204,-8.213 v 0 c -0.177,0.144 -0.341,0.258 -0.48,0.396 v 0 c -0.96,0.954 -1.915,1.913 -2.872,2.869 v 0 c -1.926,1.924 -3.984,1.919 -5.929,-0.022 v 0 c -2.964,-2.96 -5.925,-5.924 -8.888,-8.885 v 0 c -0.199,-0.198 -0.407,-0.387 -0.692,-0.657 v 0 c -2.159,2.172 -4.248,4.277 -6.339,6.377 v 0 c -1.8,1.807 -3.603,3.611 -5.406,5.414 v 0 c -1.974,1.976 -4.016,1.987 -5.98,0.027 v 0 c -2.248,-2.242 -4.493,-4.485 -6.734,-6.733 v 0 c -0.2,-0.202 -0.37,-0.434 -0.549,-0.646 v 0 c -1.542,1.395 -1.699,3.628 -0.478,5.372 m 11.683,-12.945 c 0.039,0.865 -0.365,1.296 -1.144,1.618 v 0 c -2.084,0.86 -4.15,1.766 -6.186,2.73 v 0 c -0.809,0.381 -1.523,0.964 -2.325,1.486 v 0 c 0.172,0.203 0.276,0.345 0.4,0.469 v 0 c 2.37,2.375 4.737,4.75 7.113,7.117 v 0 c 0.793,0.79 1.433,0.834 2.181,0.184 v 0 c 0.137,-0.119 0.261,-0.253 0.39,-0.382 v 0 c 3.892,-3.9 7.784,-7.802 11.782,-11.808 v 0 c -0.678,-0.645 -1.336,-1.294 -2.024,-1.908 v 0 c -0.16,-0.143 -0.414,-0.203 -0.636,-0.251 v 0 c -3.017,-0.65 -6.037,-1.293 -9.055,-1.936 v 0 c -0.149,-0.031 -0.299,-0.049 -0.504,-0.082 v 0 c 0,0.948 -0.033,1.857 0.008,2.763 m -11.553,-17.227 c -0.607,0.799 -0.972,1.709 -0.971,2.74 v 0 c 0.003,6.397 0,12.794 0.002,19.192 v 0 c 0,0.128 0.011,0.256 0.016,0.384 v 0 c 0.067,0.005 0.136,0.03 0.16,0.007 v 0 c 2.605,-2.504 5.784,-4.017 9.129,-5.213 v 0 c 0.685,-0.246 0.88,-0.563 0.877,-1.278 v 0 c -0.031,-6.97 -0.017,-13.939 -0.018,-20.908 v 0 c 0,-0.206 -0.016,-0.412 -0.033,-0.767 v 0 c -3.482,1.438 -6.855,2.804 -9.162,5.843" />
            </g>
          </g>
        </g>
      </g>
      <g
         id="g16646">
        <g
           clip-path="url(#clipPath8931)"
           id="g16644">
          <g
             transform="translate(861.9385,918.7305)"
             id="g16634">
            <path
               id="path16632"
               style="fill:#63d7c2;fill-opacity:1;fill-rule:nonzero;stroke:none"
               d="m 0,0 c -2.848,-0.071 -4.744,-2.263 -4.659,-5.386 0.073,-2.691 2.179,-4.799 4.759,-4.761 2.747,0.039 4.79,2.302 4.709,5.218 C 4.728,-2.021 2.69,0.066 0,0 m -4.647,0.76 c 0.918,0.438 1.759,0.974 2.677,1.256 4.325,1.327 8.619,-1.607 9.048,-6.108 0.306,-3.212 -0.699,-5.834 -3.577,-7.452 -4.429,-2.489 -9.93,0.252 -10.381,5.32 C -7.176,-2.898 -7.162,0.5 -6.84,3.822 -6.344,8.938 -0.317,11.547 3.958,8.69 4.857,8.09 5.095,7.481 4.681,6.84 4.268,6.2 3.595,6.16 2.7,6.724 0.775,7.936 -1.51,7.764 -3.128,6.271 -4.068,5.402 -4.581,4.315 -4.642,3.038 -4.678,2.271 -4.647,1.499 -4.647,0.76" />
          </g>
          <g
             transform="translate(882.6221,917.4639)"
             id="g16638">
            <path
               id="path16636"
               style="fill:#63d7c2;fill-opacity:1;fill-rule:nonzero;stroke:none"
               d="M 0,0 C 0,1.663 0.121,3.336 -0.029,4.985 -0.233,7.23 -2.305,8.889 -4.518,8.785 -6.86,8.675 -8.729,6.95 -8.785,4.65 -8.862,1.531 -8.863,-1.591 -8.786,-4.71 c 0.057,-2.327 1.98,-4.089 4.335,-4.161 2.204,-0.067 4.227,1.617 4.426,3.886 C 0.118,-3.336 0.002,-1.663 0,0 m -11.141,0.054 c 0,1.559 -0.067,3.122 0.014,4.677 0.173,3.316 2.81,6.034 5.9,6.348 3.671,0.373 6.697,-1.954 7.48,-5.29 C 2.33,5.463 2.366,5.119 2.364,4.784 2.348,1.304 2.491,-2.188 2.243,-5.652 c -0.229,-3.22 -3.824,-5.78 -7.027,-5.55 -3.484,0.25 -6.445,3.179 -6.394,6.966 0.02,1.429 0.003,2.859 0.003,4.29 z" />
          </g>
          <g
             transform="translate(848.6201,920.2198)"
             id="g16642">
            <path
               id="path16640"
               style="fill:#63d7c2;fill-opacity:1;fill-rule:nonzero;stroke:none"
               d="m 0,0 c 2.003,-1.243 3.267,-2.9 3.731,-5.153 0.858,-4.161 -2.253,-8.343 -6.482,-8.744 -2.612,-0.249 -4.745,0.615 -6.46,2.561 -0.665,0.756 -0.68,1.418 -0.097,1.915 0.532,0.452 1.23,0.374 1.833,-0.348 1.733,-2.071 4.608,-2.302 6.561,-1.114 1.786,1.086 2.792,3.35 2.34,5.376 -0.486,2.178 -2.282,3.782 -4.453,3.983 -0.258,0.024 -0.515,0.072 -0.769,0.126 -0.599,0.127 -0.897,0.548 -0.894,1.116 0.003,0.565 0.3,0.987 0.904,1.107 0.229,0.045 0.462,0.075 0.692,0.119 1.08,0.209 1.756,0.874 2.041,1.912 0.276,1.003 -0.136,2.095 -0.991,2.691 C -2.937,6.168 -3.881,6.203 -4.839,5.69 -5.021,5.593 -5.181,5.453 -5.359,5.348 -5.971,4.985 -6.586,5.073 -6.963,5.569 -7.367,6.101 -7.272,6.73 -6.715,7.228 -4.808,8.927 -1.606,8.698 0.103,6.742 1.707,4.905 1.789,2.382 0.309,0.437 0.217,0.315 0.133,0.188 0,0" />
          </g>
        </g>
      </g>
      <g
         id="g16656">
        <g
           id="g16654">
          <g
             id="g16652">
            <g
               id="g16650">
              <path
                 id="path16648"
                 style="fill:url(#linearGradient8963);stroke:none"
                 d="m 843.451,959.434 c -4.829,-0.984 -9.539,-2.337 -13.822,-4.874 v 0 c -1.487,-0.881 -2.82,-1.951 -3.825,-3.389 v 0 c -1.221,-1.744 -1.064,-3.977 0.478,-5.372 v 0 c 0.179,0.212 0.349,0.444 0.549,0.646 v 0 c 2.241,2.248 4.486,4.491 6.734,6.733 v 0 c 1.964,1.96 4.006,1.949 5.98,-0.027 v 0 c 1.803,-1.803 3.606,-3.607 5.406,-5.414 v 0 c 2.091,-2.1 4.18,-4.205 6.339,-6.377 v 0 c 0.285,0.27 0.493,0.459 0.692,0.657 v 0 c 2.963,2.961 5.924,5.925 8.888,8.885 v 0 c 1.945,1.941 4.003,1.946 5.929,0.022 v 0 c 0.957,-0.956 1.912,-1.915 2.872,-2.869 v 0 c 0.139,-0.138 0.303,-0.252 0.48,-0.396 v 0 c 2.763,2.766 5.482,5.491 8.204,8.213 v 0 c 2.008,2.007 4.027,2.001 6.037,-0.012 v 0 c 3.881,-3.883 7.761,-7.768 11.643,-11.65 v 0 c 0.199,-0.2 0.407,-0.391 0.659,-0.631 v 0 c 0.543,0.457 1.086,0.858 1.564,1.325 v 0 c 2.622,2.539 2.585,5.187 -0.088,7.673 v 0 c -2.554,2.376 -5.672,3.73 -8.907,4.834 v 0 c -6.543,2.234 -13.315,3.237 -20.192,3.64 v 0 c -2.271,0.133 -4.538,0.203 -6.801,0.203 v 0 c -6.312,0 -12.59,-0.548 -18.819,-1.82 m 3.576,-6.597 c -0.005,2.33 1.919,4.267 4.255,4.288 v 0 c 2.403,0.021 4.314,-1.87 4.319,-4.273 v 0 c 0.007,-2.345 -1.88,-4.269 -4.228,-4.31 v 0 c -0.024,0 -0.049,0 -0.073,0 v 0 c -2.301,0 -4.267,1.968 -4.273,4.295" />
            </g>
          </g>
        </g>
      </g>
      <g
         id="g16666">
        <g
           id="g16664">
          <g
             id="g16662">
            <g
               id="g16660">
              <path
                 id="path16658"
                 style="fill:url(#linearGradient8985);stroke:none"
                 d="m 824.981,943.315 c -0.005,-0.128 -0.016,-0.256 -0.016,-0.384 v 0 c -0.002,-6.398 10e-4,-12.795 -0.002,-19.192 v 0 c -10e-4,-1.031 0.364,-1.941 0.971,-2.74 v 0 c 2.307,-3.039 5.68,-4.405 9.162,-5.843 v 0 c 0.017,0.355 0.033,0.561 0.033,0.767 v 0 c 10e-4,6.969 -0.013,13.938 0.018,20.908 v 0 c 0.003,0.715 -0.192,1.032 -0.877,1.278 v 0 c -3.345,1.196 -6.524,2.709 -9.129,5.213 v 0 c -0.007,0.007 -0.019,0.01 -0.033,0.01 v 0 c -0.032,0 -0.08,-0.014 -0.127,-0.017" />
            </g>
          </g>
        </g>
      </g>
      <g
         id="g16676">
        <g
           id="g16674">
          <g
             id="g16672">
            <g
               id="g16670">
              <path
                 id="path16668"
                 style="fill:url(#linearGradient9007);stroke:none"
                 d="m 835.345,951.646 c -2.376,-2.367 -4.743,-4.742 -7.113,-7.117 v 0 c -0.124,-0.124 -0.228,-0.266 -0.4,-0.469 v 0 c 0.802,-0.522 1.516,-1.105 2.325,-1.486 v 0 c 2.036,-0.964 4.102,-1.87 6.186,-2.73 v 0 c 0.779,-0.322 1.183,-0.753 1.144,-1.618 v 0 c -0.041,-0.906 -0.008,-1.815 -0.008,-2.763 v 0 c 0.205,0.033 0.355,0.051 0.504,0.082 v 0 c 3.018,0.643 6.038,1.286 9.055,1.936 v 0 c 0.222,0.048 0.476,0.108 0.636,0.251 v 0 c 0.688,0.614 1.346,1.263 2.024,1.908 v 0 c -3.998,4.006 -7.89,7.908 -11.782,11.808 v 0 c -0.129,0.129 -0.253,0.263 -0.39,0.382 v 0 c -0.345,0.299 -0.666,0.451 -0.99,0.451 v 0 c -0.38,0 -0.763,-0.209 -1.191,-0.635" />
            </g>
          </g>
        </g>
      </g>
      <g
         id="g16686">
        <g
           id="g16684">
          <g
             id="g16682">
            <g
               id="g16680">
              <path
                 id="path16678"
                 style="fill:url(#linearGradient9029);stroke:none"
                 d="m 882.082,931.906 c 0.031,-1.759 1.533,-3.215 3.297,-3.196 v 0 c 1.729,0.02 3.259,1.553 3.26,3.27 v 0 c 0,1.683 -1.569,3.264 -3.266,3.286 v 0 c -0.013,0.001 -0.026,0.001 -0.04,0.001 v 0 c -1.744,0 -3.282,-1.585 -3.251,-3.361" />
            </g>
          </g>
        </g>
      </g>
      <g
         id="g16696">
        <g
           id="g16694">
          <g
             id="g16692">
            <g
               id="g16690">
              <path
                 id="path16688"
                 style="fill:url(#linearGradient9051);stroke:none"
                 d="m 847.033,952.9 c -0.031,-2.265 2.133,-4.412 4.395,-4.358 v 0 c 2.271,0.054 4.186,2.053 4.168,4.355 v 0 c -0.019,2.326 -1.932,4.228 -4.255,4.228 v 0 c -2.273,-10e-4 -4.276,-1.965 -4.308,-4.225" />
            </g>
          </g>
        </g>
      </g>
    </g>
  </g>
</svg>
