<?xml version="1.0" encoding="UTF-8" standalone="no"?>
<svg
   xmlns:dc="http://purl.org/dc/elements/1.1/"
   xmlns:cc="http://creativecommons.org/ns#"
   xmlns:rdf="http://www.w3.org/1999/02/22-rdf-syntax-ns#"
   xmlns:svg="http://www.w3.org/2000/svg"
   xmlns="http://www.w3.org/2000/svg"
   xmlns:sodipodi="http://sodipodi.sourceforge.net/DTD/sodipodi-0.dtd"
   xmlns:inkscape="http://www.inkscape.org/namespaces/inkscape"
   sodipodi:docname="airplane.svg"
   inkscape:version="1.0 (6e3e5246a0, 2020-05-07)"
   id="svg13205"
   version="1.1"
   viewBox="0 0 24.638367 24.884203"
   height="24.884203mm"
   width="24.638367mm">
  <defs
     id="defs13199">
    <linearGradient
       x1="0"
       y1="0"
       x2="1"
       y2="0"
       gradientUnits="userSpaceOnUse"
       gradientTransform="matrix(69.390961,0,0,-69.390961,1030.6216,573.4986)"
       spreadMethod="pad"
       id="linearGradient5196">
      <stop
         style="stop-opacity:1;stop-color:#63d7c2"
         offset="0"
         id="stop5190" />
      <stop
         style="stop-opacity:1;stop-color:#63d7c2"
         offset="0.67807152"
         id="stop5192" />
      <stop
         style="stop-opacity:1;stop-color:#1e0757"
         offset="1"
         id="stop5194" />
    </linearGradient>
    <linearGradient
       x1="0"
       y1="0"
       x2="1"
       y2="0"
       gradientUnits="userSpaceOnUse"
       gradientTransform="matrix(22.840534,0,0,-22.840534,1066.5632,552.14691)"
       spreadMethod="pad"
       id="linearGradient5218">
      <stop
         style="stop-opacity:1;stop-color:#4d1f81"
         offset="0"
         id="stop5212" />
      <stop
         style="stop-opacity:1;stop-color:#f263bd"
         offset="0.32192848"
         id="stop5214" />
      <stop
         style="stop-opacity:1;stop-color:#f263bd"
         offset="1"
         id="stop5216" />
    </linearGradient>
    <linearGradient
       x1="0"
       y1="0"
       x2="1"
       y2="0"
       gradientUnits="userSpaceOnUse"
       gradientTransform="matrix(26.966684,0,0,-26.966684,1030.3551,586.18854)"
       spreadMethod="pad"
       id="linearGradient5240">
      <stop
         style="stop-opacity:1;stop-color:#4d1f81"
         offset="0"
         id="stop5234" />
      <stop
         style="stop-opacity:1;stop-color:#f263bd"
         offset="0.32192848"
         id="stop5236" />
      <stop
         style="stop-opacity:1;stop-color:#f263bd"
         offset="1"
         id="stop5238" />
    </linearGradient>
    <linearGradient
       x1="0"
       y1="0"
       x2="1"
       y2="0"
       gradientUnits="userSpaceOnUse"
       gradientTransform="matrix(3.6108062,0,0,-3.6108062,1090.0671,556.15448)"
       spreadMethod="pad"
       id="linearGradient5262">
      <stop
         style="stop-opacity:1;stop-color:#f6d348"
         offset="0"
         id="stop5256" />
      <stop
         style="stop-opacity:1;stop-color:#f6d348"
         offset="0.03027482"
         id="stop5258" />
      <stop
         style="stop-opacity:1;stop-color:#f263bd"
         offset="1"
         id="stop5260" />
    </linearGradient>
    <linearGradient
       x1="0"
       y1="0"
       x2="1"
       y2="0"
       gradientUnits="userSpaceOnUse"
       gradientTransform="matrix(3.7194571,0,0,-3.7194571,1086.7975,565.49432)"
       spreadMethod="pad"
       id="linearGradient5284">
      <stop
         style="stop-opacity:1;stop-color:#f6d348"
         offset="0"
         id="stop5278" />
      <stop
         style="stop-opacity:1;stop-color:#f6d348"
         offset="0.03027482"
         id="stop5280" />
      <stop
         style="stop-opacity:1;stop-color:#f263bd"
         offset="1"
         id="stop5282" />
    </linearGradient>
    <linearGradient
       x1="0"
       y1="0"
       x2="1"
       y2="0"
       gradientUnits="userSpaceOnUse"
       gradientTransform="matrix(5.5422788,0,0,-5.5422788,1044.5125,600.31274)"
       spreadMethod="pad"
       id="linearGradient5306">
      <stop
         style="stop-opacity:1;stop-color:#f6d348"
         offset="0"
         id="stop5300" />
      <stop
         style="stop-opacity:1;stop-color:#f6d348"
         offset="0.03027482"
         id="stop5302" />
      <stop
         style="stop-opacity:1;stop-color:#f263bd"
         offset="1"
         id="stop5304" />
    </linearGradient>
    <linearGradient
       x1="0"
       y1="0"
       x2="1"
       y2="0"
       gradientUnits="userSpaceOnUse"
       gradientTransform="matrix(5.4775076,0,0,-5.4775076,1053.8615,597.0368)"
       spreadMethod="pad"
       id="linearGradient5328">
      <stop
         style="stop-opacity:1;stop-color:#f6d348"
         offset="0"
         id="stop5322" />
      <stop
         style="stop-opacity:1;stop-color:#f6d348"
         offset="0.03027482"
         id="stop5324" />
      <stop
         style="stop-opacity:1;stop-color:#f263bd"
         offset="1"
         id="stop5326" />
    </linearGradient>
    <linearGradient
       x1="0"
       y1="0"
       x2="1"
       y2="0"
       gradientUnits="userSpaceOnUse"
       gradientTransform="matrix(-2.0966542,-10.560351,-11.351054,2.2536407,1095.4719,609.14282)"
       spreadMethod="pad"
       id="linearGradient5350">
      <stop
         style="stop-opacity:1;stop-color:#f6d348"
         offset="0"
         id="stop5344" />
      <stop
         style="stop-opacity:1;stop-color:#f6d348"
         offset="0.03027482"
         id="stop5346" />
      <stop
         style="stop-opacity:1;stop-color:#f263bd"
         offset="1"
         id="stop5348" />
    </linearGradient>
  </defs>
  <sodipodi:namedview
     inkscape:window-maximized="0"
     inkscape:window-y="27"
     inkscape:window-x="122"
     inkscape:window-height="1016"
     inkscape:window-width="1428"
     showgrid="false"
     inkscape:document-rotation="0"
     inkscape:current-layer="layer1"
     inkscape:document-units="mm"
     inkscape:cy="-318.68901"
     inkscape:cx="-44.867866"
     inkscape:zoom="0.35"
     inkscape:pageshadow="2"
     inkscape:pageopacity="0.0"
     borderopacity="1.0"
     bordercolor="#666666"
     pagecolor="#ffffff"
     id="base" />
  <metadata
     id="metadata13202">
    <rdf:RDF>
      <cc:Work
         rdf:about="">
        <dc:format>image/svg+xml</dc:format>
        <dc:type
           rdf:resource="http://purl.org/dc/dcmitype/StillImage" />
        <dc:title></dc:title>
      </cc:Work>
    </rdf:RDF>
  </metadata>
  <g
     transform="translate(-117.70462,-232.48647)"
     id="layer1"
     inkscape:groupmode="layer"
     inkscape:label="Layer 1">
    <g
       transform="matrix(0.35277777,0,0,-0.35277777,-245.78171,447.42091)"
       id="g9563">
      <g
         id="g5178">
        <g
           id="g5180">
          <g
             id="g5186">
            <g
               id="g5188">
              <path
                 id="path5198"
                 style="fill:url(#linearGradient5196);stroke:none"
                 d="m 1090.661,607.789 c -0.127,-0.106 -0.273,-0.197 -0.457,-0.253 v 0 c -2.915,-0.886 -4.831,-3.092 -6.873,-5.142 v 0 c -3.458,-3.468 -6.955,-6.901 -10.37,-10.412 v 0 c -1.021,-1.049 -1.902,-1.41 -3.307,-0.669 v 0 c -3.29,1.729 -6.814,2.882 -10.39,3.873 v 0 c -1.801,0.712 -3.602,1.424 -5.403,2.138 v 0 c -1.287,0.379 -2.574,0.756 -3.861,1.134 v 0 c -1.866,0.621 -3.916,0.773 -5.487,2.147 v 0 c -1.317,-0.215 -2.461,0.407 -3.657,0.763 v 0 c -5.048,1.506 -6.62,0.865 -9.376,-3.849 v 0 c 6.73,-5.326 13.455,-10.659 20.191,-15.977 v 0 c 1.345,-1.063 2.744,-2.056 4.089,-3.118 v 0 c 0.661,-0.52 1.87,-0.84 1.489,-1.933 v 0 c -0.311,-0.885 -1.01,-1.744 -2.232,-1.621 v 0 c -10e-4,-1.045 -0.799,-1.589 -1.429,-2.224 v 0 c -2.114,-2.133 -4.394,-4.122 -6.326,-6.408 v 0 c -2.353,-2.784 -4.424,-3.873 -8.623,-2.937 v 0 c -0.582,0.13 -1.643,0.12 -2.351,0.11 v 0 c -0.282,-0.004 -0.508,-0.008 -0.625,-0.003 v 0 c -2.099,0.087 -3.784,-0.299 -4.756,-2.323 v 0 c -1.075,-2.241 1.163,-2.815 2.133,-3.845 v 0 c 2.514,-2.669 5.702,-4.807 3.685,-9.381 v 0 c -0.68,-1.546 1.327,-3.43 2.86,-2.789 v 0 c 3.73,1.554 6.168,-0.005 8.354,-2.796 v 0 c 0.725,-0.923 1.714,-1.636 2.479,-2.534 v 0 c 0.93,-1.091 1.812,-0.867 2.851,-0.197 v 0 c 1.707,1.102 1.566,2.788 1.853,4.521 v 0 c 0.482,2.919 -2.153,5.866 -0.238,8.484 v 0 c 1.747,2.391 4.207,4.259 6.346,6.366 v 0 c 1.037,1.021 2.056,2.062 3.092,3.085 v 0 c 0.641,0.633 1.206,1.397 2.242,1.405 v 0 c 1.39,2.764 1.704,2.807 3.508,0.553 v 0 c 6.44,-8.044 12.887,-16.082 19.331,-24.123 v 0 c 4.988,4.152 5.299,4.333 3.54,9.654 v 0 c -0.414,1.25 -0.916,2.564 -0.743,3.962 v 0 c -1.375,1.526 -1.394,3.592 -2.133,5.371 v 0 c -0.461,1.274 -1.153,2.483 -1.109,3.9 v 0 c -1.219,1.64 -1.746,3.553 -2.16,5.507 v 0 c -1.175,3.034 -2.141,6.174 -3.596,9.066 v 0 c -1.04,2.069 -0.506,3.217 0.996,4.65 v 0 c 3.933,3.757 7.757,7.633 11.561,11.524 v 0 c 3.738,3.824 5.009,7.994 3.826,12.133 v 0 c -0.361,0.408 -0.738,0.797 -1.152,1.141 v 0 c -1.226,1.017 -2.691,1.274 -4.219,1.274 v 0 c -1.175,0 -2.386,-0.152 -3.553,-0.227" />
            </g>
          </g>
        </g>
      </g>
      <g
         id="g5200">
        <g
           id="g5202">
          <g
             id="g5208">
            <g
               id="g5210">
              <path
                 id="path5220"
                 style="fill:url(#linearGradient5218);stroke:none"
                 d="m 1066.564,563.404 c 0.246,-0.263 0.514,-0.51 0.737,-0.792 v 0 c 5.746,-7.299 11.476,-14.612 17.24,-21.898 v 0 c 1.323,-1.672 2.801,-3.033 4.862,-0.88 v 0 c -6.444,8.041 -12.891,16.079 -19.331,24.123 v 0 c -0.849,1.06 -1.367,1.612 -1.823,1.612 v 0 c -0.514,0 -0.949,-0.701 -1.685,-2.165" />
            </g>
          </g>
        </g>
      </g>
      <g
         id="g5222">
        <g
           id="g5224">
          <g
             id="g5230">
            <g
               id="g5232">
              <path
                 id="path5242"
                 style="fill:url(#linearGradient5240);stroke:none"
                 d="m 1032.287,592.973 c 7.558,-6.058 15.149,-12.072 22.73,-18.103 v 0 c 1.222,-0.123 1.921,0.736 2.232,1.621 v 0 c 0.381,1.093 -0.828,1.413 -1.489,1.933 v 0 c -1.345,1.062 -2.744,2.055 -4.089,3.118 v 0 c -6.736,5.318 -13.461,10.65 -20.191,15.977 v 0 c -2.223,-1.955 -0.72,-3.323 0.807,-4.546" />
            </g>
          </g>
        </g>
      </g>
      <g
         id="g5244">
        <g
           id="g5246">
          <g
             id="g5252">
            <g
               id="g5254">
              <path
                 id="path5264"
                 style="fill:url(#linearGradient5262);stroke:none"
                 d="m 1090.067,558.821 c 0.739,-1.779 0.758,-3.845 2.133,-5.371 v 0 c 1.083,0.911 1.864,1.962 1.277,3.463 v 0 c -0.526,1.343 -1.504,1.947 -2.808,1.947 v 0 c -0.194,0 -0.394,-0.013 -0.602,-0.039" />
            </g>
          </g>
        </g>
      </g>
      <g
         id="g5266">
        <g
           id="g5268">
          <g
             id="g5274">
            <g
               id="g5276">
              <path
                 id="path5286"
                 style="fill:url(#linearGradient5284);stroke:none"
                 d="m 1086.798,568.228 c 0.414,-1.954 0.941,-3.867 2.16,-5.507 v 0 c 1.386,0.875 1.929,2.094 1.297,3.64 v 0 c -0.54,1.323 -1.553,1.905 -2.858,1.905 v 0 c -0.193,0 -0.393,-0.012 -0.599,-0.038" />
            </g>
          </g>
        </g>
      </g>
      <g
         id="g5288">
        <g
           id="g5290">
          <g
             id="g5296">
            <g
               id="g5298">
              <path
                 id="path5308"
                 style="fill:url(#linearGradient5306);stroke:none"
                 d="m 1044.513,600.605 c 1.571,-1.374 3.621,-1.526 5.487,-2.147 v 0 c 0.246,1.606 -0.337,2.813 -1.835,3.451 v 0 c -0.416,0.177 -0.805,0.259 -1.167,0.259 v 0 c -1.003,0 -1.811,-0.624 -2.485,-1.563" />
            </g>
          </g>
        </g>
      </g>
      <g
         id="g5310">
        <g
           id="g5312">
          <g
             id="g5318">
            <g
               id="g5320">
              <path
                 id="path5330"
                 style="fill:url(#linearGradient5328);stroke:none"
                 d="m 1053.861,597.324 c 1.801,-0.714 3.602,-1.426 5.403,-2.138 v 0 c 0.302,1.622 -0.316,2.816 -1.806,3.432 v 0 c -0.436,0.18 -0.848,0.268 -1.234,0.268 v 0 c -0.962,0 -1.761,-0.546 -2.363,-1.562" />
            </g>
          </g>
        </g>
      </g>
      <g
         id="g5332">
        <g
           id="g5334">
          <g
             id="g5340">
            <g
               id="g5342">
              <path
                 id="path5352"
                 style="fill:url(#linearGradient5350);stroke:none"
                 d="m 1088.749,604.99 c -0.58,-2.918 1.49,-5.785 4.627,-6.408 v 0 c 3.133,-0.622 6.143,1.237 6.723,4.154 v 0 c 0.579,2.919 -1.493,5.785 -4.626,6.406 v 0 c -0.409,0.082 -0.817,0.121 -1.216,0.121 v 0 c -2.664,0 -5.004,-1.735 -5.508,-4.273" />
            </g>
          </g>
        </g>
      </g>
    </g>
  </g>
</svg>
