<?xml version="1.0" encoding="UTF-8" standalone="no"?>
<svg
   xmlns:dc="http://purl.org/dc/elements/1.1/"
   xmlns:cc="http://creativecommons.org/ns#"
   xmlns:rdf="http://www.w3.org/1999/02/22-rdf-syntax-ns#"
   xmlns:svg="http://www.w3.org/2000/svg"
   xmlns="http://www.w3.org/2000/svg"
   xmlns:sodipodi="http://sodipodi.sourceforge.net/DTD/sodipodi-0.dtd"
   xmlns:inkscape="http://www.inkscape.org/namespaces/inkscape"
   sodipodi:docname="award.svg"
   inkscape:version="1.0 (6e3e5246a0, 2020-05-07)"
   id="svg11875"
   version="1.1"
   viewBox="0 0 16.47196 23.49262"
   height="23.49262mm"
   width="16.47196mm">
  <defs
     id="defs11869">
    <linearGradient
       x1="0"
       y1="0"
       x2="1"
       y2="0"
       gradientUnits="userSpaceOnUse"
       gradientTransform="matrix(42.135975,0,0,-42.135975,1693.8341,684.03125)"
       spreadMethod="pad"
       id="linearGradient3980">
      <stop
         style="stop-opacity:1;stop-color:#f6d348"
         offset="0"
         id="stop3974" />
      <stop
         style="stop-opacity:1;stop-color:#f6d348"
         offset="0.03027482"
         id="stop3976" />
      <stop
         style="stop-opacity:1;stop-color:#f263bd"
         offset="1"
         id="stop3978" />
    </linearGradient>
    <linearGradient
       x1="0"
       y1="0"
       x2="1"
       y2="0"
       gradientUnits="userSpaceOnUse"
       gradientTransform="matrix(46.692127,0,0,-46.692127,1691.5193,710.90369)"
       spreadMethod="pad"
       id="linearGradient4002">
      <stop
         style="stop-opacity:1;stop-color:#63d7c2"
         offset="0"
         id="stop3996" />
      <stop
         style="stop-opacity:1;stop-color:#63d7c2"
         offset="0.67807152"
         id="stop3998" />
      <stop
         style="stop-opacity:1;stop-color:#1e0757"
         offset="1"
         id="stop4000" />
    </linearGradient>
    <linearGradient
       x1="0"
       y1="0"
       x2="1"
       y2="0"
       gradientUnits="userSpaceOnUse"
       gradientTransform="matrix(32.728611,0,0,-32.728611,1698.501,710.90369)"
       spreadMethod="pad"
       id="linearGradient4024">
      <stop
         style="stop-opacity:1;stop-color:#4d1f81"
         offset="0"
         id="stop4018" />
      <stop
         style="stop-opacity:1;stop-color:#f263bd"
         offset="0.32192848"
         id="stop4020" />
      <stop
         style="stop-opacity:1;stop-color:#f263bd"
         offset="1"
         id="stop4022" />
    </linearGradient>
  </defs>
  <sodipodi:namedview
     inkscape:window-maximized="0"
     inkscape:window-y="27"
     inkscape:window-x="122"
     inkscape:window-height="1016"
     inkscape:window-width="1428"
     showgrid="false"
     inkscape:document-rotation="0"
     inkscape:current-layer="layer1"
     inkscape:document-units="mm"
     inkscape:cy="-115.60449"
     inkscape:cx="-248.8719"
     inkscape:zoom="0.35"
     inkscape:pageshadow="2"
     inkscape:pageopacity="0.0"
     borderopacity="1.0"
     bordercolor="#666666"
     pagecolor="#ffffff"
     id="base" />
  <metadata
     id="metadata11872">
    <rdf:RDF>
      <cc:Work
         rdf:about="">
        <dc:format>image/svg+xml</dc:format>
        <dc:type
           rdf:resource="http://purl.org/dc/dcmitype/StillImage" />
        <dc:title></dc:title>
      </cc:Work>
    </rdf:RDF>
  </metadata>
  <g
     transform="translate(-171.68069,-178.75369)"
     id="layer1"
     inkscape:groupmode="layer"
     inkscape:label="Layer 1">
    <g
       transform="matrix(0.35277777,0,0,-0.35277777,-425.0497,437.79664)"
       id="g9328">
      <g
         id="g3962">
        <g
           id="g3964">
          <g
             id="g3970">
            <g
               id="g3972">
              <path
                 id="path3982"
                 style="fill:url(#linearGradient3980);stroke:none"
                 d="m 1694.358,683.666 c -0.74,-2.502 -0.977,-3.847 1.209,-3.867 v 0 c 5.64,-0.052 10.399,-3.476 14.15,-10.463 v 0 c 0.052,-0.095 0.125,-0.157 0.177,-0.251 v 0 c 1.04,-1.893 1.77,-2.019 2.389,0.729 v 0 c 0.633,2.807 1.506,5.469 2.466,8.874 v 0 c 0.888,-3.093 1.694,-5.379 2.208,-7.831 v 0 c 0.639,-3.042 1.316,-3.408 2.739,-1.036 v 0 c 3.439,5.733 7.259,10.286 12.53,10.089 v 0 c 1.183,-0.044 2.375,0.575 3.743,0.935 v 0 c -1.892,6.783 -3.664,13.137 -5.438,19.49 v 0 c -0.497,-3.746 -1.725,-5.82 -4.249,-5.192 v 0 c -1.825,0.453 -3.161,-0.871 -4.101,-3.394 v 0 c -1.27,-3.406 -2.919,-4.441 -5.07,-2.095 v 0 c -1.615,1.762 -3.237,1.634 -4.793,-0.064 v 0 c -2.2,-2.4 -3.803,-1.266 -5.053,2.103 v 0 c -0.951,2.559 -2.3,3.785 -4.109,3.372 v 0 c -2.534,-0.578 -3.799,1.395 -4.185,5.296 v 0 c -1.527,-5.573 -2.986,-11.2 -4.613,-16.695" />
            </g>
          </g>
        </g>
      </g>
      <g
         id="g3984">
        <g
           id="g3986">
          <g
             id="g3992">
            <g
               id="g3994">
              <path
                 id="path4004"
                 style="fill:url(#linearGradient4002);stroke:none"
                 d="m 1717.214,733.491 c -1.584,-1.077 -3.253,-1.047 -4.815,0.009 v 0 c -2.088,1.413 -3.669,0.859 -4.915,-1.12 v 0 c -1.071,-1.696 -2.539,-2.45 -4.54,-2.206 v 0 c -2.322,0.282 -3.514,-0.822 -3.754,-3.102 v 0 c -0.207,-1.959 -1.184,-3.347 -3.104,-3.985 v 0 c -2.362,-0.784 -2.847,-2.527 -2.175,-4.65 v 0 c 0.61,-1.924 0.319,-3.523 -1.1,-4.937 v 0 c -1.694,-1.687 -1.745,-3.406 -0.016,-5.087 v 0 c 1.44,-1.399 1.872,-3.043 1.234,-4.918 v 0 c -0.805,-2.362 -0.12,-3.954 2.266,-4.766 v 0 c 1.84,-0.626 2.797,-1.898 2.822,-3.853 v 0 c 0.386,-2.384 1.651,-3.59 4.184,-3.238 v 0 c 1.81,0.253 3.159,-0.496 4.109,-2.059 v 0 c 1.25,-2.058 2.854,-2.751 5.052,-1.285 v 0 c 1.557,1.037 3.179,1.116 4.795,0.039 v 0 c 2.15,-1.432 3.8,-0.801 5.069,1.28 v 0 c 0.941,1.541 2.277,2.351 4.102,2.074 v 0 c 2.523,-0.384 3.752,0.884 4.249,3.173 v 0 c 0,2.094 1.147,3.316 3.022,3.972 v 0 c 2.093,0.733 2.785,2.286 2.137,4.254 v 0 c -0.755,2.292 -0.241,4.076 1.394,5.75 v 0 c 1.391,1.422 1.262,2.988 -0.125,4.344 v 0 c -1.708,1.668 -2.058,3.523 -1.315,5.767 v 0 c 0.643,1.947 -0.112,3.404 -2.088,4.032 v 0 c -2.04,0.648 -3.1,2.051 -3.311,4.088 v 0 c -0.24,2.324 -1.451,3.352 -3.749,3.107 v 0 c -1.978,-0.21 -3.486,0.431 -4.532,2.2 v 0 c -0.743,1.257 -1.642,1.921 -2.703,1.921 v 0 c -0.667,0 -1.398,-0.262 -2.193,-0.804" />
            </g>
          </g>
        </g>
      </g>
      <g
         id="g4006">
        <g
           id="g4008">
          <g
             id="g4014">
            <g
               id="g4016">
              <path
                 id="path4026"
                 style="fill:url(#linearGradient4024);stroke:none"
                 d="m 1714.857,727.259 c -8.698,-0.009 -16.374,-7.696 -16.356,-16.378 v 0 c 0.019,-8.67 7.746,-16.36 16.413,-16.333 v 0 c 8.719,0.027 16.332,7.676 16.315,16.391 v 0 c -0.016,8.722 -7.632,16.321 -16.353,16.32 v 0 c -0.01,0 -0.013,0 -0.019,0" />
            </g>
          </g>
        </g>
      </g>
    </g>
  </g>
</svg>
