<?xml version="1.0" encoding="UTF-8" standalone="no"?>
<svg
   xmlns:dc="http://purl.org/dc/elements/1.1/"
   xmlns:cc="http://creativecommons.org/ns#"
   xmlns:rdf="http://www.w3.org/1999/02/22-rdf-syntax-ns#"
   xmlns:svg="http://www.w3.org/2000/svg"
   xmlns="http://www.w3.org/2000/svg"
   xmlns:sodipodi="http://sodipodi.sourceforge.net/DTD/sodipodi-0.dtd"
   xmlns:inkscape="http://www.inkscape.org/namespaces/inkscape"
   sodipodi:docname="basketball.svg"
   inkscape:version="1.0 (6e3e5246a0, 2020-05-07)"
   id="svg18656"
   version="1.1"
   viewBox="0 0 24.363539 24.363539"
   height="24.363539mm"
   width="24.363539mm">
  <defs
     id="defs18650">
    <linearGradient
       x1="0"
       y1="0"
       x2="1"
       y2="0"
       gradientUnits="userSpaceOnUse"
       gradientTransform="matrix(68.181381,0,0,-68.181381,821.51135,286.40781)"
       spreadMethod="pad"
       id="linearGradient6164">
      <stop
         style="stop-opacity:1;stop-color:#f6d348"
         offset="0"
         id="stop6158" />
      <stop
         style="stop-opacity:1;stop-color:#f6d348"
         offset="0.03027482"
         id="stop6160" />
      <stop
         style="stop-opacity:1;stop-color:#f263bd"
         offset="1"
         id="stop6162" />
    </linearGradient>
    <clipPath
       clipPathUnits="userSpaceOnUse"
       id="clipPath6174">
      <path
         d="M 0,1080 H 1920 V 0 H 0 Z"
         id="path6172" />
    </clipPath>
    <linearGradient
       x1="0"
       y1="0"
       x2="1"
       y2="0"
       gradientUnits="userSpaceOnUse"
       gradientTransform="matrix(69.0623,0,0,69.0623,-68.6214,1080.0003)"
       spreadMethod="pad"
       id="linearGradient6184">
      <stop
         style="stop-opacity:1;stop-color:#e35db8"
         offset="0"
         id="stop6178" />
      <stop
         style="stop-opacity:1;stop-color:#1e0757"
         offset="0.60396321"
         id="stop6180" />
      <stop
         style="stop-opacity:1;stop-color:#1e0757"
         offset="1"
         id="stop6182" />
    </linearGradient>
    <linearGradient
       x1="0"
       y1="0"
       x2="1"
       y2="0"
       gradientUnits="userSpaceOnUse"
       gradientTransform="matrix(1.3197008,0,0,-1.3197008,828.98999,272.33069)"
       spreadMethod="pad"
       id="linearGradient6206">
      <stop
         style="stop-opacity:1;stop-color:#63d7c2"
         offset="0"
         id="stop6200" />
      <stop
         style="stop-opacity:1;stop-color:#63d7c2"
         offset="0.67807152"
         id="stop6202" />
      <stop
         style="stop-opacity:1;stop-color:#1e0757"
         offset="1"
         id="stop6204" />
    </linearGradient>
    <linearGradient
       x1="0"
       y1="0"
       x2="1"
       y2="0"
       gradientUnits="userSpaceOnUse"
       gradientTransform="matrix(36.23703,-45.490192,-45.490192,-36.23703,847.55029,296.56213)"
       spreadMethod="pad"
       id="linearGradient6232">
      <stop
         style="stop-opacity:1;stop-color:#f6d348"
         offset="0"
         id="stop6222" />
      <stop
         style="stop-opacity:1;stop-color:#f6d348"
         offset="0.0264623"
         id="stop6224" />
      <stop
         style="stop-opacity:1;stop-color:#f6d348"
         offset="0.04620044"
         id="stop6226" />
      <stop
         style="stop-opacity:1;stop-color:#f263bd"
         offset="0.678428"
         id="stop6228" />
      <stop
         style="stop-opacity:1;stop-color:#f263bd"
         offset="1"
         id="stop6230" />
    </linearGradient>
    <linearGradient
       x1="0"
       y1="0"
       x2="1"
       y2="0"
       gradientUnits="userSpaceOnUse"
       gradientTransform="matrix(0.0432043,0,0,-0.0432043,862.55841,261.03922)"
       spreadMethod="pad"
       id="linearGradient6254">
      <stop
         style="stop-opacity:1;stop-color:#e35db8"
         offset="0"
         id="stop6248" />
      <stop
         style="stop-opacity:1;stop-color:#1e0757"
         offset="0.60396321"
         id="stop6250" />
      <stop
         style="stop-opacity:1;stop-color:#1e0757"
         offset="1"
         id="stop6252" />
    </linearGradient>
    <linearGradient
       x1="0"
       y1="0"
       x2="1"
       y2="0"
       gradientUnits="userSpaceOnUse"
       gradientTransform="matrix(66.490883,0,0,-66.490883,822.11578,286.89243)"
       spreadMethod="pad"
       id="linearGradient6276">
      <stop
         style="stop-opacity:1;stop-color:#e35db8"
         offset="0"
         id="stop6270" />
      <stop
         style="stop-opacity:1;stop-color:#1e0757"
         offset="0.60396321"
         id="stop6272" />
      <stop
         style="stop-opacity:1;stop-color:#1e0757"
         offset="1"
         id="stop6274" />
    </linearGradient>
  </defs>
  <sodipodi:namedview
     inkscape:window-maximized="0"
     inkscape:window-y="27"
     inkscape:window-x="122"
     inkscape:window-height="1016"
     inkscape:window-width="1428"
     showgrid="false"
     inkscape:document-rotation="0"
     inkscape:current-layer="layer1"
     inkscape:document-units="mm"
     inkscape:cy="-519.67294"
     inkscape:cx="-205.38723"
     inkscape:zoom="0.35"
     inkscape:pageshadow="2"
     inkscape:pageopacity="0.0"
     borderopacity="1.0"
     bordercolor="#666666"
     pagecolor="#ffffff"
     id="base" />
  <metadata
     id="metadata18653">
    <rdf:RDF>
      <cc:Work
         rdf:about="">
        <dc:format>image/svg+xml</dc:format>
        <dc:type
           rdf:resource="http://purl.org/dc/dcmitype/StillImage" />
        <dc:title></dc:title>
      </cc:Work>
    </rdf:RDF>
  </metadata>
  <g
     transform="translate(-1.4253711,-285.66347)"
     id="layer1"
     inkscape:groupmode="layer"
     inkscape:label="Layer 1">
    <g
       transform="matrix(0.35277777,0,0,-0.35277777,-288.23019,398.88354)"
       id="g10404">
      <g
         id="g6146">
        <g
           id="g6148">
          <g
             id="g6154">
            <g
               id="g6156">
              <path
                 id="path6166"
                 style="fill:url(#linearGradient6164);stroke:none"
                 d="m 821.512,286.408 c 0,-18.828 15.262,-34.09 34.09,-34.09 v 0 c 18.828,0 34.09,15.262 34.09,34.09 v 0 c 0,18.827 -15.262,34.09 -34.09,34.09 v 0 c -18.828,0 -34.09,-15.263 -34.09,-34.09" />
            </g>
          </g>
        </g>
      </g>
      <g
         id="g6168">
        <g
           clip-path="url(#clipPath6174)"
           id="g6170">
          <g
             transform="translate(889.6924,286.4083)"
             id="g6176">
            <path
               id="path6186"
               style="fill:none;stroke:url(#linearGradient6184);stroke-width:0.881;stroke-linecap:butt;stroke-linejoin:miter;stroke-miterlimit:10;stroke-dasharray:none;stroke-opacity:1"
               d="m 0,0 c 0,-18.828 -15.263,-34.091 -34.09,-34.091 -18.828,0 -34.091,15.263 -34.091,34.091 0,18.827 15.263,34.09 34.091,34.09 C -15.263,34.09 0,18.827 0,0 Z" />
          </g>
        </g>
      </g>
      <g
         id="g6188">
        <g
           id="g6190">
          <g
             id="g6196">
            <g
               id="g6198">
              <path
                 id="path6208"
                 style="fill:url(#linearGradient6206);stroke:none"
                 d="m 828.99,272.622 c 0.239,-0.67 0.77,-0.629 1.319,-0.548 v 0 c -0.28,0.406 -0.667,0.557 -1.116,0.557 v 0 c -0.067,0 -0.134,-0.003 -0.203,-0.009" />
            </g>
          </g>
        </g>
      </g>
      <g
         id="g6210">
        <g
           id="g6212">
          <g
             id="g6218">
            <g
               id="g6220">
              <path
                 id="path6234"
                 style="fill:url(#linearGradient6232);stroke:none"
                 d="m 826.851,286.454 c 0,-15.879 12.872,-28.751 28.751,-28.751 v 0 c 15.879,0 28.752,12.872 28.752,28.751 v 0 c 0,15.879 -12.873,28.751 -28.752,28.751 v 0 c -15.879,0 -28.751,-12.872 -28.751,-28.751" />
            </g>
          </g>
        </g>
      </g>
      <g
         id="g6236">
        <g
           id="g6238">
          <g
             id="g6244">
            <g
               id="g6246">
              <path
                 id="path6256"
                 style="fill:url(#linearGradient6254);stroke:none"
                 d="m 862.559,261.031 0.042,0.007 c -0.014,0.004 -0.028,0.006 -0.043,0.009 v 0 c 0,-0.005 0,-0.01 10e-4,-0.016" />
            </g>
          </g>
        </g>
      </g>
      <g
         id="g6258">
        <g
           id="g6260">
          <g
             id="g6266">
            <g
               id="g6268">
              <path
                 id="path6278"
                 style="fill:url(#linearGradient6276);stroke:none"
                 d="m 845.185,319.224 c 0.948,-1.296 2.638,-1.529 3.833,-1.966 v 0 c 5.787,-2.034 10.297,-5.796 14.302,-10.327 v 0 c 3.618,-4.094 7.044,-8.611 12.359,-10.544 v 0 c 2.897,-1.054 2.806,-2.812 2.43,-4.957 v 0 c -0.662,-3.77 -0.722,-3.754 -4.162,-2.062 v 0 c -9.835,4.84 -20.205,7.375 -31.203,7.242 v 0 c -1.214,-0.015 -2.429,-0.012 -3.643,-0.011 v 0 c -4.269,0.009 -8.536,0.017 -12.77,-0.713 v 0 l -3.668,-0.404 -0.547,-2.498 2.918,0.479 c 4.763,0.495 9.513,1.499 14.31,1.188 v 0 c 12.063,-0.782 23.861,-2.722 34.829,-8.274 v 0 c 2.002,-1.014 2.156,-1.886 1.034,-3.502 v 0 c -0.241,-0.347 -0.366,-0.772 -0.569,-1.145 v 0 c -0.763,-1.402 -1.222,-3.214 -2.385,-4.087 v 0 c -1.407,-1.058 -2.42,1.12 -3.831,1.47 v 0 c -6.294,1.561 -12.278,0.58 -18.115,-1.912 v 0 c -8.923,-3.811 -20.51,-4.056 -21.409,-3.93 v 0 l -0.035,0.022 c -2.887,0.097 -4.573,0.959 -4.585,-0.095 v 0 c 0.077,-0.485 -0.048,-1.068 0.616,-1.267 v 0 c 1.817,-0.586 2.463,-0.783 7.283,-1.297 v 0 c 7.791,0.072 15.038,2.49 22.268,5.059 v 0 c 4.709,1.672 9.475,2.47 14.274,0.129 v 0 c 1.436,-0.701 1.837,-1.123 0.709,-2.724 v 0 c -4.132,-5.866 -12.062,-11.779 -15.798,-13.455 v 0 c -1.287,-0.859 -4.661,-2.42 -7.154,-3.328 v 0 c -0.9,-0.328 -2.588,0.072 -2.592,-1.737 v 0 c 0.029,-0.326 1.451,-1.099 2.443,-0.647 v 0 c 1.974,0.742 3.906,1.652 5.934,2.186 v 0 c 3.114,0.818 5.624,2.547 8.328,4.256 v 0 c 1.046,0.658 3.722,2.556 4.609,3.469 v 0 c 2.658,2.736 5.388,5.397 7.577,8.806 v 0 c 1.407,-2.116 2.379,-4.061 2.074,-6.426 v 0 c -0.301,-3.068 -1.916,-5.465 -3.929,-7.657 v 0 c -0.733,-0.798 -1.742,-1.484 -1.068,-2.813 v 0 c 1.172,0.805 2.774,0.839 3.712,2.066 v 0 c 1.816,3.452 4.035,6.778 3.392,10.988 v 0 c -0.254,1.018 -0.538,2.029 -0.755,3.054 v 0 c -0.272,1.285 -2.166,1.979 -1.437,3.573 v 0 c 1.095,2.402 2.262,4.778 3.526,7.094 v 0 c 0.436,0.799 1.27,0.559 1.933,0.053 v 0 c 1.258,-0.959 2.512,-1.92 3.767,-2.88 v 0 c 1.354,-1.173 2.182,-2.885 3.852,-3.734 v 0 c 0.665,0.694 0.942,1.49 0.647,2.438 v 0 c -1.25,1.122 -3.982,3.759 -4.121,3.875 v 0 c -5.01,4.129 -4.416,7.212 -3.539,11.628 v 0 c 0.546,2.744 7.11,1.649 7.151,3.46 v 0 c -0.045,0.372 -0.092,0.744 -0.138,1.116 v 0 c -1.104,-0.081 -4.672,-1.829 -6.42,0.573 v 0 c -1.058,1.454 -1.271,9.739 -1.874,11.915 v 0 c -0.638,0.639 -1.277,1.276 -1.915,1.914 v 0 c -1.783,-1.249 1.213,-10.169 1.229,-13.376 v 0 c 0.009,-1.913 -0.958,-1.617 -1.979,-0.94 v 0 c -2.4,1.588 -5.007,2.999 -6.836,5.244 v 0 c -3.878,4.761 -8.806,10.295 -15.295,14.149 v 0 c -1.943,0.882 -3.592,1.527 -5.859,2.03 v 0 c -1.236,-0.255 -2.472,-0.513 -3.708,-0.768" />
            </g>
          </g>
        </g>
      </g>
    </g>
  </g>
</svg>
