<?xml version="1.0" encoding="UTF-8" standalone="no"?>
<svg
   xmlns:dc="http://purl.org/dc/elements/1.1/"
   xmlns:cc="http://creativecommons.org/ns#"
   xmlns:rdf="http://www.w3.org/1999/02/22-rdf-syntax-ns#"
   xmlns:svg="http://www.w3.org/2000/svg"
   xmlns="http://www.w3.org/2000/svg"
   xmlns:sodipodi="http://sodipodi.sourceforge.net/DTD/sodipodi-0.dtd"
   xmlns:inkscape="http://www.inkscape.org/namespaces/inkscape"
   sodipodi:docname="binoculars.svg"
   inkscape:version="1.0 (6e3e5246a0, 2020-05-07)"
   id="svg14087"
   version="1.1"
   viewBox="0 0 28.106422 21.187065"
   height="21.187065mm"
   width="28.106422mm">
  <defs
     id="defs14081">
    <linearGradient
       x1="0"
       y1="0"
       x2="1"
       y2="0"
       gradientUnits="userSpaceOnUse"
       gradientTransform="matrix(54.872383,0,0,-54.872383,1672.2974,583.25659)"
       spreadMethod="pad"
       id="linearGradient4398">
      <stop
         style="stop-opacity:1;stop-color:#f6d348"
         offset="0"
         id="stop4392" />
      <stop
         style="stop-opacity:1;stop-color:#f6d348"
         offset="0.03027482"
         id="stop4394" />
      <stop
         style="stop-opacity:1;stop-color:#f263bd"
         offset="1"
         id="stop4396" />
    </linearGradient>
    <linearGradient
       x1="0"
       y1="0"
       x2="1"
       y2="0"
       gradientUnits="userSpaceOnUse"
       gradientTransform="matrix(12.603068,0,0,-12.603068,1671.8765,587.73718)"
       spreadMethod="pad"
       id="linearGradient4420">
      <stop
         style="stop-opacity:1;stop-color:#e35db8"
         offset="0"
         id="stop4414" />
      <stop
         style="stop-opacity:1;stop-color:#1e0757"
         offset="0.60396321"
         id="stop4416" />
      <stop
         style="stop-opacity:1;stop-color:#1e0757"
         offset="1"
         id="stop4418" />
    </linearGradient>
    <linearGradient
       x1="0"
       y1="0"
       x2="1"
       y2="0"
       gradientUnits="userSpaceOnUse"
       gradientTransform="matrix(10.701747,0,0,-10.701747,1692.7977,599.33276)"
       spreadMethod="pad"
       id="linearGradient4442">
      <stop
         style="stop-opacity:1;stop-color:#e35db8"
         offset="0"
         id="stop4436" />
      <stop
         style="stop-opacity:1;stop-color:#1e0757"
         offset="0.60396321"
         id="stop4438" />
      <stop
         style="stop-opacity:1;stop-color:#1e0757"
         offset="1"
         id="stop4440" />
    </linearGradient>
    <linearGradient
       x1="0"
       y1="0"
       x2="1"
       y2="0"
       gradientUnits="userSpaceOnUse"
       gradientTransform="matrix(65.504326,0,0,-65.504326,1683.006,571.5957)"
       spreadMethod="pad"
       id="linearGradient4464">
      <stop
         style="stop-opacity:1;stop-color:#e35db8"
         offset="0"
         id="stop4458" />
      <stop
         style="stop-opacity:1;stop-color:#1e0757"
         offset="0.60396321"
         id="stop4460" />
      <stop
         style="stop-opacity:1;stop-color:#1e0757"
         offset="1"
         id="stop4462" />
    </linearGradient>
    <clipPath
       clipPathUnits="userSpaceOnUse"
       id="clipPath4474">
      <path
         d="M 0,1080 H 1920 V 0 H 0 Z"
         id="path4472" />
    </clipPath>
    <linearGradient
       x1="0"
       y1="0"
       x2="1"
       y2="0"
       gradientUnits="userSpaceOnUse"
       gradientTransform="matrix(12.941174,0,0,-12.941174,1737.1252,576.59186)"
       spreadMethod="pad"
       id="linearGradient4498">
      <stop
         style="stop-opacity:1;stop-color:#e35db8"
         offset="0"
         id="stop4492" />
      <stop
         style="stop-opacity:1;stop-color:#1e0757"
         offset="0.60396321"
         id="stop4494" />
      <stop
         style="stop-opacity:1;stop-color:#1e0757"
         offset="1"
         id="stop4496" />
    </linearGradient>
    <linearGradient
       x1="0"
       y1="0"
       x2="1"
       y2="0"
       gradientUnits="userSpaceOnUse"
       gradientTransform="matrix(16.664453,0,0,-16.664453,1734.8839,576.453)"
       spreadMethod="pad"
       id="linearGradient4520">
      <stop
         style="stop-opacity:1;stop-color:#63d7c2"
         offset="0"
         id="stop4514" />
      <stop
         style="stop-opacity:1;stop-color:#63d7c2"
         offset="0.67807152"
         id="stop4516" />
      <stop
         style="stop-opacity:1;stop-color:#1e0757"
         offset="1"
         id="stop4518" />
    </linearGradient>
    <linearGradient
       x1="0"
       y1="0"
       x2="1"
       y2="0"
       gradientUnits="userSpaceOnUse"
       gradientTransform="matrix(13.687243,0,0,-13.687243,1736.3792,576.72485)"
       spreadMethod="pad"
       id="linearGradient4542">
      <stop
         style="stop-opacity:1;stop-color:#f6d348"
         offset="0"
         id="stop4536" />
      <stop
         style="stop-opacity:1;stop-color:#f6d348"
         offset="0.03027482"
         id="stop4538" />
      <stop
         style="stop-opacity:1;stop-color:#f263bd"
         offset="1"
         id="stop4540" />
    </linearGradient>
    <clipPath
       clipPathUnits="userSpaceOnUse"
       id="clipPath4552">
      <path
         d="M 0,1080 H 1920 V 0 H 0 Z"
         id="path4550" />
    </clipPath>
    <linearGradient
       x1="0"
       y1="0"
       x2="1"
       y2="0"
       gradientUnits="userSpaceOnUse"
       gradientTransform="matrix(13.955381,0,0,-13.955381,1704.6143,555.43414)"
       spreadMethod="pad"
       id="linearGradient4576">
      <stop
         style="stop-opacity:1;stop-color:#e35db8"
         offset="0"
         id="stop4570" />
      <stop
         style="stop-opacity:1;stop-color:#1e0757"
         offset="0.60396321"
         id="stop4572" />
      <stop
         style="stop-opacity:1;stop-color:#1e0757"
         offset="1"
         id="stop4574" />
    </linearGradient>
    <linearGradient
       x1="0"
       y1="0"
       x2="1"
       y2="0"
       gradientUnits="userSpaceOnUse"
       gradientTransform="matrix(17.970457,0,0,-17.970457,1702.1973,555.28247)"
       spreadMethod="pad"
       id="linearGradient4598">
      <stop
         style="stop-opacity:1;stop-color:#63d7c2"
         offset="0"
         id="stop4592" />
      <stop
         style="stop-opacity:1;stop-color:#63d7c2"
         offset="0.67807152"
         id="stop4594" />
      <stop
         style="stop-opacity:1;stop-color:#1e0757"
         offset="1"
         id="stop4596" />
    </linearGradient>
    <linearGradient
       x1="0"
       y1="0"
       x2="1"
       y2="0"
       gradientUnits="userSpaceOnUse"
       gradientTransform="matrix(14.759919,0,0,-14.759919,1703.8097,555.57941)"
       spreadMethod="pad"
       id="linearGradient4620">
      <stop
         style="stop-opacity:1;stop-color:#f6d348"
         offset="0"
         id="stop4614" />
      <stop
         style="stop-opacity:1;stop-color:#f6d348"
         offset="0.03027482"
         id="stop4616" />
      <stop
         style="stop-opacity:1;stop-color:#f263bd"
         offset="1"
         id="stop4618" />
    </linearGradient>
  </defs>
  <sodipodi:namedview
     inkscape:window-maximized="0"
     inkscape:window-y="27"
     inkscape:window-x="122"
     inkscape:window-height="1016"
     inkscape:window-width="1428"
     showgrid="false"
     inkscape:document-rotation="0"
     inkscape:current-layer="layer1"
     inkscape:document-units="mm"
     inkscape:cy="-619.96145"
     inkscape:cx="-1066.8855"
     inkscape:zoom="0.35"
     inkscape:pageshadow="2"
     inkscape:pageopacity="0.0"
     borderopacity="1.0"
     bordercolor="#666666"
     pagecolor="#ffffff"
     id="base" />
  <metadata
     id="metadata14084">
    <rdf:RDF>
      <cc:Work
         rdf:about="">
        <dc:format>image/svg+xml</dc:format>
        <dc:type
           rdf:resource="http://purl.org/dc/dcmitype/StillImage" />
        <dc:title></dc:title>
      </cc:Work>
    </rdf:RDF>
  </metadata>
  <g
     transform="translate(-388.11345,-312.19813)"
     id="layer1"
     inkscape:groupmode="layer"
     inkscape:label="Layer 1">
    <g
       transform="matrix(0.35277777,0,0,-0.35277777,-201.68732,525.28402)"
       id="g9722">
      <g
         id="g4380">
        <g
           id="g4382">
          <g
             id="g4388">
            <g
               id="g4390">
              <path
                 id="path4400"
                 style="fill:url(#linearGradient4398);stroke:none"
                 d="m 1708.372,603.569 c -1.604,-0.574 -3.247,-1.039 -4.873,-1.552 v 0 c -4.278,-1.278 -7.737,-3.801 -10.663,-7.132 v 0 c -2.528,-1.759 -5.842,-1.497 -8.356,-3.293 v 0 c -5.679,-1.379 -8.919,-5.371 -11.086,-10.511 v 0 c 0.217,-2.267 -2.496,-4.709 -0.105,-6.727 v 0 c 4.179,-3.528 6.713,-8.563 11.09,-11.864 v 0 c 0.284,1.379 -0.823,2.549 -0.418,4.028 v 0 c 2.119,7.755 7.013,13.572 14.467,15.391 v 0 c 7.516,1.836 13.625,5.047 18.775,10.632 v 0 c 2.652,2.877 5.897,4.64 9.967,4.355 v 0 c -0.387,0.331 -0.722,0.829 -1.167,0.967 v 0 c -4.729,1.463 -9.422,2.975 -13.659,5.664 v 0 c -0.561,0.356 -1.16,0.496 -1.776,0.496 v 0 c -0.722,0 -1.466,-0.192 -2.196,-0.454" />
            </g>
          </g>
        </g>
      </g>
      <g
         id="g4402">
        <g
           id="g4404">
          <g
             id="g4410">
            <g
               id="g4412">
              <path
                 id="path4422"
                 style="fill:url(#linearGradient4420);stroke:none"
                 d="m 1678.698,594.354 c -5.859,-0.853 -8.831,-8.36 -5.305,-13.272 v 0 c 3.545,3.665 6.704,7.743 11.087,10.51 v 0 c -1.79,0.849 -3.108,2.801 -5.25,2.801 v 0 c -0.172,0 -0.349,-0.013 -0.532,-0.039" />
            </g>
          </g>
        </g>
      </g>
      <g
         id="g4424">
        <g
           id="g4426">
          <g
             id="g4432">
            <g
               id="g4434">
              <path
                 id="path4444"
                 style="fill:url(#linearGradient4442);stroke:none"
                 d="m 1696.398,601.925 c -2.157,-1.821 -3.882,-3.919 -3.562,-7.041 v 0 c 3.929,1.811 7.439,4.256 10.663,7.133 v 0 c -1.843,1.17 -2.885,1.765 -3.826,1.765 v 0 c -0.953,0 -1.802,-0.612 -3.275,-1.857" />
            </g>
          </g>
        </g>
      </g>
      <g
         id="g4446">
        <g
           id="g4448">
          <g
             id="g4454">
            <g
               id="g4456">
              <path
                 id="path4466"
                 style="fill:url(#linearGradient4464);stroke:none"
                 d="m 1715.019,592.298 c -4.473,-4.662 -9.785,-7.357 -15.985,-8.896 v 0 c -7.307,-1.816 -12.246,-6.659 -15.227,-13.611 v 0 c -1.114,-2.598 -1.192,-4.991 0.571,-7.3 v 0 c 4.963,-4.046 9.131,-8.922 13.732,-13.346 v 0 c 1.481,-1.424 2.75,-3.158 4.983,-3.496 v 0 c 1.098,0.78 1.226,1.986 1.32,3.172 v 0 c 0.526,6.633 4.214,11.305 9.257,15.105 v 0 c 1.062,0.801 2.468,1.183 2.838,2.705 v 0 c -2.971,2.374 -6.482,3.786 -9.763,5.607 v 0 c -0.432,0.24 -1.014,0.412 -1.49,0.671 v 0 c -0.741,0.198 -1.389,0.887 -1.189,1.858 v 0 c 0.609,2.945 3.563,5.869 6.352,6.81 v 0 c 2.811,0.95 6.225,0.17 8.598,-1.618 v 0 c 0.317,-0.077 0.618,-0.203 0.894,-0.373 v 0 c 1.329,-0.28 2.568,-1.238 3.801,-2.43 v 0 c 1.606,-1.552 3.316,-3.001 4.866,-4.608 v 0 c 2.432,-2.519 5.161,-4.722 8.85,-5.502 v 0 c 1.676,2.675 0.08,5.825 1.684,8.519 v 0 c 1.524,4.348 4.482,7.63 7.799,10.643 v 0 c 0.018,0.057 0.238,0.029 0.454,0.002 v 0 c 0.214,-0.028 0.424,-0.057 0.43,0 v 0 c 0.511,0.031 0.206,0.405 0.717,0.436 v 0 c -0.401,0.706 -1.059,0.893 -1.801,0.914 v 0 c -1.937,1.414 -4.158,2.226 -6.333,3.175 v 0 c -4.452,1.941 -9.322,2.988 -13.207,6.161 v 0 c -1.162,0.448 -2.239,0.645 -3.244,0.645 v 0 c -3.655,10e-4 -6.374,-2.603 -8.907,-5.243" />
            </g>
          </g>
        </g>
      </g>
      <g
         id="g4468">
        <g
           clip-path="url(#clipPath4474)"
           id="g4470">
          <g
             transform="translate(1737.125,569.6251)"
             id="g4476">
            <path
               id="path4478"
               style="fill:#f7f8f3;fill-opacity:1;fill-rule:nonzero;stroke:none"
               d="m 0,0 c -1.224,1.421 -0.685,2.878 -0.19,4.383 1.211,3.689 3.588,6.64 6.803,9.049 1.833,1.373 3.396,1.464 4.031,-1.083 C 11.063,6.315 6.236,0.716 0,0" />
          </g>
        </g>
      </g>
      <g
         id="g4480">
        <g
           id="g4482">
          <g
             id="g4488">
            <g
               id="g4490">
              <path
                 id="path4500"
                 style="fill:url(#linearGradient4498);stroke:none"
                 d="m 1746.286,583.16 c 0.438,-0.6 1.292,-1.199 1.466,-1.236 v 0 c -1.731,-5.4 -4.282,-10.209 -10.627,-12.299 v 0 c 1.15,-1.213 2.621,-0.797 4.037,-0.66 v 0 c 3.119,1.954 5.092,4.816 7.203,7.567 v 0 c 0.503,1.856 1.57,4.174 1.698,6.242 v 0 c 0.049,0.778 -0.575,1.454 -1.423,1.55 v 0 c -0.457,0.052 -0.841,0.075 -1.162,0.075 v 0 c -1.65,0 -1.644,-0.62 -1.192,-1.239" />
            </g>
          </g>
        </g>
      </g>
      <g
         id="g4502">
        <g
           id="g4504">
          <g
             id="g4510">
            <g
               id="g4512">
              <path
                 id="path4522"
                 style="fill:url(#linearGradient4520);stroke:none"
                 d="m 1734.897,567.823 c 0,0 4.2,-4.472 9.798,0.961 v 0 c 0,0 0.01,-0.005 0.027,-0.008 v 0 c 0.072,-0.017 0.282,-0.034 0.583,0.235 v 0 c 1.168,0.891 1.985,2.079 2.659,3.357 v 0 c 0.376,0.711 0.796,1.4 1.262,2.056 v 0 c 1.846,2.606 2.415,4.734 2.31,6.303 v 0 c -0.01,0.118 -0.022,0.241 -0.038,0.364 v 0 c 0.139,1.265 -0.093,2.592 -0.878,4.014 v 0 c 0,0.007 0,0.012 -0.01,0.018 v 0 c -0.486,0.882 -1.34,1.347 -2.301,1.69 v 0 c -9.007,-3.385 -13.701,-10.03 -13.414,-18.99 m 8.614,12.988 c -1.665,-2.386 -3.529,-5.18 -5.097,-7.566 v 0 c 0.743,3.579 2.536,6.21 5.097,7.566" />
            </g>
          </g>
        </g>
      </g>
      <g
         id="g4524">
        <g
           id="g4526">
          <g
             id="g4532">
            <g
               id="g4534">
              <path
                 id="path4544"
                 style="fill:url(#linearGradient4542);stroke:none"
                 d="m 1745.202,584.01 c -3.856,-2.864 -6.708,-6.371 -8.161,-10.757 v 0 c -0.296,-0.894 -0.605,-1.776 -0.658,-2.642 v 0 c -0.09,-1.48 1.305,-2.589 2.711,-2.24 v 0 c 6.489,1.61 11.279,7.618 10.957,14.099 v 0 c -0.01,0.168 -0.034,0.337 -0.081,0.497 v 0 c -0.442,1.534 -1.198,2.176 -2.146,2.176 v 0 c -0.769,0 -1.665,-0.422 -2.622,-1.133" />
            </g>
          </g>
        </g>
      </g>
      <g
         id="g4546">
        <g
           clip-path="url(#clipPath4552)"
           id="g4548">
          <g
             transform="translate(1704.6143,547.8243)"
             id="g4554">
            <path
               id="path4556"
               style="fill:#f7f8f3;fill-opacity:1;fill-rule:nonzero;stroke:none"
               d="m 0,0 c -1.319,1.552 -0.739,3.143 -0.206,4.787 1.307,4.03 3.871,7.254 7.338,9.885 1.975,1.5 3.66,1.6 4.346,-1.184 C 11.93,6.898 6.725,0.781 0,0" />
          </g>
        </g>
      </g>
      <g
         id="g4558">
        <g
           id="g4560">
          <g
             id="g4566">
            <g
               id="g4568">
              <path
                 id="path4578"
                 style="fill:url(#linearGradient4576);stroke:none"
                 d="m 1714.493,562.61 c 0.472,-0.655 1.394,-1.31 1.582,-1.35 v 0 c -1.868,-5.899 -4.618,-11.153 -11.461,-13.435 v 0 c 1.241,-1.326 2.826,-0.872 4.354,-0.722 v 0 c 3.363,2.135 5.49,5.26 7.768,8.266 v 0 c 0.541,2.026 1.692,4.56 1.83,6.819 v 0 c 0.053,0.849 -0.62,1.587 -1.535,1.693 v 0 c -0.492,0.056 -0.906,0.082 -1.253,0.082 v 0 c -1.778,0 -1.772,-0.677 -1.285,-1.353" />
            </g>
          </g>
        </g>
      </g>
      <g
         id="g4580">
        <g
           id="g4582">
          <g
             id="g4588">
            <g
               id="g4590">
              <path
                 id="path4600"
                 style="fill:url(#linearGradient4598);stroke:none"
                 d="m 1702.21,545.855 c 0,0 4.53,-4.884 10.568,1.051 v 0 c 0,0 0.25,-0.119 0.657,0.248 v 0 c 1.26,0.971 2.14,2.271 2.868,3.666 v 0 c 0.405,0.776 0.858,1.529 1.36,2.245 v 0 c 1.991,2.848 2.605,5.173 2.492,6.885 v 0 c -0.01,0.13 -0.023,0.264 -0.041,0.4 v 0 c 0.15,1.38 -0.102,2.83 -0.947,4.385 v 0 c 0,0.006 -0.01,0.012 -0.01,0.018 v 0 c -0.523,0.964 -1.445,1.472 -2.481,1.846 v 0 c -9.714,-3.697 -14.776,-10.955 -14.467,-20.744 m 9.29,14.189 c -1.796,-2.607 -3.806,-5.66 -5.496,-8.267 v 0 c 0.801,3.912 2.735,6.785 5.496,8.267" />
            </g>
          </g>
        </g>
      </g>
      <g
         id="g4602">
        <g
           id="g4604">
          <g
             id="g4610">
            <g
               id="g4612">
              <path
                 id="path4622"
                 style="fill:url(#linearGradient4620);stroke:none"
                 d="m 1713.325,563.538 c -4.159,-3.128 -7.235,-6.961 -8.802,-11.751 v 0 c -0.319,-0.977 -0.653,-1.939 -0.709,-2.888 v 0 c -0.096,-1.614 1.408,-2.826 2.924,-2.445 v 0 c 6.997,1.758 12.162,8.321 11.815,15.402 v 0 c -0.01,0.182 -0.037,0.367 -0.088,0.542 v 0 c -0.476,1.676 -1.292,2.377 -2.314,2.377 v 0 c -0.829,0 -1.795,-0.461 -2.826,-1.237" />
            </g>
          </g>
        </g>
      </g>
    </g>
  </g>
</svg>
