<?xml version="1.0" encoding="UTF-8" standalone="no"?>
<svg
   xmlns:dc="http://purl.org/dc/elements/1.1/"
   xmlns:cc="http://creativecommons.org/ns#"
   xmlns:rdf="http://www.w3.org/1999/02/22-rdf-syntax-ns#"
   xmlns:svg="http://www.w3.org/2000/svg"
   xmlns="http://www.w3.org/2000/svg"
   xmlns:sodipodi="http://sodipodi.sourceforge.net/DTD/sodipodi-0.dtd"
   xmlns:inkscape="http://www.inkscape.org/namespaces/inkscape"
   sodipodi:docname="car.svg"
   inkscape:version="1.0 (6e3e5246a0, 2020-05-07)"
   id="svg12646"
   version="1.1"
   viewBox="0 0 24.832325 21.28828"
   height="21.28828mm"
   width="24.832325mm">
  <defs
     id="defs12640">
    <linearGradient
       x1="0"
       y1="0"
       x2="1"
       y2="0"
       gradientUnits="userSpaceOnUse"
       gradientTransform="matrix(70.390709,0,0,-70.390709,620.07379,582.69006)"
       spreadMethod="pad"
       id="linearGradient4844">
      <stop
         style="stop-opacity:1;stop-color:#4d1f81"
         offset="0"
         id="stop4838" />
      <stop
         style="stop-opacity:1;stop-color:#f263bd"
         offset="0.32192848"
         id="stop4840" />
      <stop
         style="stop-opacity:1;stop-color:#f263bd"
         offset="1"
         id="stop4842" />
    </linearGradient>
    <linearGradient
       x1="0"
       y1="0"
       x2="1"
       y2="0"
       gradientUnits="userSpaceOnUse"
       gradientTransform="matrix(63.394924,0,0,-63.394924,623.58722,550.14624)"
       spreadMethod="pad"
       id="linearGradient4866">
      <stop
         style="stop-opacity:1;stop-color:#63d7c2"
         offset="0"
         id="stop4860" />
      <stop
         style="stop-opacity:1;stop-color:#63d7c2"
         offset="0.67807152"
         id="stop4862" />
      <stop
         style="stop-opacity:1;stop-color:#1e0757"
         offset="1"
         id="stop4864" />
    </linearGradient>
    <linearGradient
       x1="0"
       y1="0"
       x2="1"
       y2="0"
       gradientUnits="userSpaceOnUse"
       gradientTransform="matrix(68.417236,0,0,-68.417236,621.34613,558.94952)"
       spreadMethod="pad"
       id="linearGradient4888">
      <stop
         style="stop-opacity:1;stop-color:#f6d348"
         offset="0"
         id="stop4882" />
      <stop
         style="stop-opacity:1;stop-color:#f6d348"
         offset="0.03027482"
         id="stop4884" />
      <stop
         style="stop-opacity:1;stop-color:#f263bd"
         offset="1"
         id="stop4886" />
    </linearGradient>
    <linearGradient
       x1="0"
       y1="0"
       x2="1"
       y2="0"
       gradientUnits="userSpaceOnUse"
       gradientTransform="matrix(4.8690023,0,0,-4.8690023,676.63611,580.50891)"
       spreadMethod="pad"
       id="linearGradient4910">
      <stop
         style="stop-opacity:1;stop-color:#63d7c2"
         offset="0"
         id="stop4904" />
      <stop
         style="stop-opacity:1;stop-color:#63d7c2"
         offset="0.67807152"
         id="stop4906" />
      <stop
         style="stop-opacity:1;stop-color:#1e0757"
         offset="1"
         id="stop4908" />
    </linearGradient>
    <linearGradient
       x1="0"
       y1="0"
       x2="1"
       y2="0"
       gradientUnits="userSpaceOnUse"
       gradientTransform="matrix(4.871285,0,0,-4.871285,628.97742,580.54303)"
       spreadMethod="pad"
       id="linearGradient4932">
      <stop
         style="stop-opacity:1;stop-color:#63d7c2"
         offset="0"
         id="stop4926" />
      <stop
         style="stop-opacity:1;stop-color:#63d7c2"
         offset="0.67807152"
         id="stop4928" />
      <stop
         style="stop-opacity:1;stop-color:#1e0757"
         offset="1"
         id="stop4930" />
    </linearGradient>
    <linearGradient
       x1="0"
       y1="0"
       x2="1"
       y2="0"
       gradientUnits="userSpaceOnUse"
       gradientTransform="matrix(39.663452,0,0,-39.663452,635.43445,590.95911)"
       spreadMethod="pad"
       id="linearGradient4954">
      <stop
         style="stop-opacity:1;stop-color:#63d7c2"
         offset="0"
         id="stop4948" />
      <stop
         style="stop-opacity:1;stop-color:#63d7c2"
         offset="0.67807152"
         id="stop4950" />
      <stop
         style="stop-opacity:1;stop-color:#1e0757"
         offset="1"
         id="stop4952" />
    </linearGradient>
    <linearGradient
       x1="0"
       y1="0"
       x2="1"
       y2="0"
       gradientUnits="userSpaceOnUse"
       gradientTransform="matrix(36.690994,0,0,-36.690994,636.93695,596.96381)"
       spreadMethod="pad"
       id="linearGradient4976">
      <stop
         style="stop-opacity:1;stop-color:#f6d348"
         offset="0"
         id="stop4970" />
      <stop
         style="stop-opacity:1;stop-color:#f6d348"
         offset="0.03027482"
         id="stop4972" />
      <stop
         style="stop-opacity:1;stop-color:#f263bd"
         offset="1"
         id="stop4974" />
    </linearGradient>
    <linearGradient
       x1="0"
       y1="0"
       x2="1"
       y2="0"
       gradientUnits="userSpaceOnUse"
       gradientTransform="matrix(9.6606197,0,0,-9.6606197,625.31451,569.61792)"
       spreadMethod="pad"
       id="linearGradient4998">
      <stop
         style="stop-opacity:1;stop-color:#f6d348"
         offset="0"
         id="stop4992" />
      <stop
         style="stop-opacity:1;stop-color:#f6d348"
         offset="0.03027482"
         id="stop4994" />
      <stop
         style="stop-opacity:1;stop-color:#f263bd"
         offset="1"
         id="stop4996" />
    </linearGradient>
    <linearGradient
       x1="0"
       y1="0"
       x2="1"
       y2="0"
       gradientUnits="userSpaceOnUse"
       gradientTransform="matrix(9.6590033,0,0,-9.6590033,675.61414,569.61792)"
       spreadMethod="pad"
       id="linearGradient5020">
      <stop
         style="stop-opacity:1;stop-color:#f6d348"
         offset="0"
         id="stop5014" />
      <stop
         style="stop-opacity:1;stop-color:#f6d348"
         offset="0.03027482"
         id="stop5016" />
      <stop
         style="stop-opacity:1;stop-color:#f263bd"
         offset="1"
         id="stop5018" />
    </linearGradient>
  </defs>
  <sodipodi:namedview
     inkscape:window-maximized="0"
     inkscape:window-y="27"
     inkscape:window-x="122"
     inkscape:window-height="1016"
     inkscape:window-width="1428"
     showgrid="false"
     inkscape:document-rotation="0"
     inkscape:current-layer="layer1"
     inkscape:document-units="mm"
     inkscape:cy="-1031.1987"
     inkscape:cx="61.212938"
     inkscape:zoom="0.35"
     inkscape:pageshadow="2"
     inkscape:pageopacity="0.0"
     borderopacity="1.0"
     bordercolor="#666666"
     pagecolor="#ffffff"
     id="base" />
  <metadata
     id="metadata12643">
    <rdf:RDF>
      <cc:Work
         rdf:about="">
        <dc:format>image/svg+xml</dc:format>
        <dc:type
           rdf:resource="http://purl.org/dc/dcmitype/StillImage" />
        <dc:title></dc:title>
      </cc:Work>
    </rdf:RDF>
  </metadata>
  <g
     transform="translate(-89.63741,-421.00467)"
     id="layer1"
     inkscape:groupmode="layer"
     inkscape:label="Layer 1">
    <g
       transform="matrix(0.35277777,0,0,-0.35277777,-129.11074,634.141)"
       id="g9474">
      <g
         id="g4826">
        <g
           id="g4828">
          <g
             id="g4834">
            <g
               id="g4836">
              <path
                 id="path4846"
                 style="fill:url(#linearGradient4844);stroke:none"
                 d="m 647.812,603.526 c -5.4,-0.891 -10.15,-2.904 -12.859,-8.112 v 0 c -1.627,-3.128 -2.231,-6.525 -2.524,-9.978 v 0 c -0.098,-1.149 -0.257,-2.133 -1.273,-2.801 v 0 c 0.315,-0.158 0.615,-0.351 0.945,-0.465 v 0 c 1.127,-0.391 2.044,-1.069 1.657,-2.344 v 0 c -0.36,-1.185 -1.511,-1.475 -2.661,-1.347 v 0 c -0.702,0.079 -1.383,0.337 -2.073,0.515 v 0 c -0.824,-0.369 -1.683,-0.676 -2.467,-1.117 v 0 c -5.72,-3.21 -8.25,-11.328 -5.142,-16.422 v 0 c 3.279,-0.002 6.56,-0.001 9.84,-0.001 v 0 c 7.615,0.002 15.228,0.004 22.842,-0.023 v 0 c 11.532,-0.043 23.805,-0.142 35.336,-0.216 v 0 c 0.39,0 0.491,0.241 0.852,1.293 v 0 c 0.287,2.254 0.186,4.664 0,7.109 v 0 c -1.548,4.428 -4.049,7.958 -8.81,9.359 v 0 c -0.177,-0.033 -0.353,-0.065 -0.529,-0.099 v 0 c -1.512,-0.29 -3.415,-1.334 -4.167,0.782 v 0 c -0.727,2.048 1.494,2.229 2.677,2.996 v 0 c -2.069,1.683 -1.307,4.181 -1.705,6.304 v 0 c -1.279,6.8 -4.529,11.902 -11.522,13.793 v 0 c -3.563,0.964 -7.167,1.414 -10.79,1.414 v 0 c -2.536,0 -5.082,-0.221 -7.627,-0.64 m -10.875,-10.724 c 2.109,4.642 5.978,6.96 10.761,7.834 v 0 c 5.492,1.004 10.993,1.034 16.47,-0.355 v 0 c 4.304,-1.091 7.569,-3.382 9.46,-7.473 v 0 c 0.813,-2.399 1.531,-4.817 1.466,-7.579 v 0 c -13.13,3.426 -26.343,3.464 -39.648,-0.092 v 0 c -0.122,2.719 0.76,5.178 1.491,7.665 m -6.892,-28.015 c -2.667,0.047 -4.774,2.245 -4.73,4.932 v 0 c 0.045,2.678 2.23,4.778 4.922,4.73 v 0 c 2.677,-0.048 4.788,-2.24 4.737,-4.924 v 0 c -0.049,-2.633 -2.208,-4.739 -4.841,-4.739 v 0 c -0.029,0 -0.059,0 -0.088,0.001 m 45.569,4.831 c -0.004,2.696 2.126,4.83 4.82,4.831 v 0 c 2.683,0.001 4.838,-2.145 4.839,-4.822 v 0 c 0.002,-2.676 -2.153,-4.837 -4.829,-4.84 v 0 c -0.002,0 -0.004,0 -0.007,0 v 0 c -2.672,0 -4.819,2.15 -4.823,4.831" />
            </g>
          </g>
        </g>
      </g>
      <g
         id="g4848">
        <g
           id="g4850">
          <g
             id="g4856">
            <g
               id="g4858">
              <path
                 id="path4868"
                 style="fill:url(#linearGradient4866);stroke:none"
                 d="m 623.625,547.733 c 0.045,-1.958 1.08,-3.351 3.019,-3.678 v 0 c 1.979,-0.334 4.453,-0.631 5.361,1.523 v 0 c 1,2.375 1.149,4.995 4.677,4.996 v 0 c 0.772,0 1.134,1.306 1.134,2.275 v 0 c -10e-4,0.808 0,1.616 0,2.51 v 0 c 11.696,-2.814 23.211,-2.826 34.764,-0.043 v 0 c 0.064,-0.278 0.183,-0.532 0.166,-0.776 v 0 c -0.206,-2.871 0.512,-4.908 3.983,-4.65 v 0 c 1.42,0.105 0.918,-1.033 0.987,-1.738 v 0 c 0.306,-3.129 1.6,-4.281 4.805,-4.225 v 0 c 3.057,0.053 4.372,1.384 4.433,4.598 v 0 c 0.049,2.638 0.018,5.279 0.022,7.918 v 0 c -21.126,0.009 -42.252,0.019 -63.38,0.028 v 0 c 0.005,-2.913 -0.037,-5.828 0.029,-8.738" />
            </g>
          </g>
        </g>
      </g>
      <g
         id="g4870">
        <g
           id="g4872">
          <g
             id="g4878">
            <g
               id="g4880">
              <path
                 id="path4890"
                 style="fill:url(#linearGradient4888);stroke:none"
                 d="m 631.255,561.454 c -3.28,0 -6.561,-10e-4 -9.84,0.001 v 0 c -0.309,-2.115 0.417,-3.777 2.181,-4.984 v 0 c 21.128,-0.009 42.254,-0.019 63.38,-0.028 v 0 c 1.644,0.343 3.022,2.209 2.753,4.772 v 0 c -11.53,0.074 -24.1,0.173 -35.632,0.216 v 0 c -5.71,0.02 -11.421,0.024 -17.132,0.024 v 0 c -1.903,0 -3.807,0 -5.71,-0.001" />
            </g>
          </g>
        </g>
      </g>
      <g
         id="g4892">
        <g
           id="g4894">
          <g
             id="g4900">
            <g
               id="g4902">
              <path
                 id="path4912"
                 style="fill:url(#linearGradient4910);stroke:none"
                 d="m 676.779,579.659 c 0.752,-2.116 2.655,-1.072 4.167,-0.782 v 0 c 0.176,0.034 0.352,0.066 0.529,0.099 v 0 c 0.194,1.702 -0.544,2.891 -2.019,3.679 v 0 c -1.183,-0.767 -3.404,-0.948 -2.677,-2.996" />
            </g>
          </g>
        </g>
      </g>
      <g
         id="g4914">
        <g
           id="g4916">
          <g
             id="g4922">
            <g
               id="g4924">
              <path
                 id="path4934"
                 style="fill:url(#linearGradient4932);stroke:none"
                 d="m 629.024,578.994 c 0.69,-0.178 1.371,-0.436 2.073,-0.515 v 0 c 1.15,-0.128 2.301,0.162 2.661,1.347 v 0 c 0.387,1.275 -0.53,1.953 -1.657,2.344 v 0 c -0.33,0.114 -0.63,0.307 -0.945,0.465 v 0 c -1.534,-0.731 -2.394,-1.857 -2.132,-3.641" />
            </g>
          </g>
        </g>
      </g>
      <g
         id="g4936">
        <g
           id="g4938">
          <g
             id="g4944">
            <g
               id="g4946">
              <path
                 id="path4956"
                 style="fill:url(#linearGradient4954);stroke:none"
                 d="m 641.058,593.779 c -1.252,-0.542 -2.567,-1.44 -4.122,-0.979 v 0 c -0.73,-2.485 -1.612,-4.944 -1.49,-7.663 v 0 c 13.305,3.556 26.518,3.518 39.648,0.092 v 0 c 0.065,2.762 -0.653,5.18 -1.466,7.579 v 0 c -1.404,-0.712 -2.448,0.338 -3.565,0.801 v 0 c -4.982,2.074 -9.956,3.172 -14.942,3.172 v 0 c -4.675,0 -9.359,-0.967 -14.063,-3.002" />
            </g>
          </g>
        </g>
      </g>
      <g
         id="g4958">
        <g
           id="g4960">
          <g
             id="g4966">
            <g
               id="g4968">
              <path
                 id="path4978"
                 style="fill:url(#linearGradient4976);stroke:none"
                 d="m 647.698,600.636 c -4.783,-0.874 -8.652,-3.192 -10.762,-7.836 v 0 c 1.555,-0.461 2.87,0.437 4.122,0.979 v 0 c 9.719,4.206 19.351,3.848 29.005,-0.17 v 0 c 1.117,-0.463 2.161,-1.513 3.565,-0.801 v 0 c -1.891,4.091 -5.156,6.382 -9.46,7.473 v 0 c -2.925,0.742 -5.858,1.079 -8.792,1.079 v 0 c -2.559,0 -5.119,-0.256 -7.678,-0.724" />
            </g>
          </g>
        </g>
      </g>
      <g
         id="g4980">
        <g
           id="g4982">
          <g
             id="g4988">
            <g
               id="g4990">
              <path
                 id="path5000"
                 style="fill:url(#linearGradient4998);stroke:none"
                 d="m 625.315,569.719 c -0.044,-2.687 2.063,-4.885 4.73,-4.932 v 0 c 2.672,-0.048 4.88,2.075 4.929,4.738 v 0 c 0.051,2.684 -2.06,4.876 -4.737,4.924 v 0 c -0.03,0.001 -0.06,0.001 -0.09,0.001 v 0 c -2.651,0 -4.787,-2.083 -4.832,-4.731" />
            </g>
          </g>
        </g>
      </g>
      <g
         id="g5002">
        <g
           id="g5004">
          <g
             id="g5010">
            <g
               id="g5012">
              <path
                 id="path5022"
                 style="fill:url(#linearGradient5020);stroke:none"
                 d="m 680.434,574.449 c -2.694,-10e-4 -4.824,-2.135 -4.82,-4.831 v 0 c 0.004,-2.684 2.154,-4.835 4.83,-4.831 v 0 c 2.676,0.003 4.831,2.164 4.829,4.84 v 0 c -10e-4,2.676 -2.155,4.822 -4.837,4.822 v 0 c -0.001,0 -0.001,0 -0.002,0" />
            </g>
          </g>
        </g>
      </g>
    </g>
  </g>
</svg>
