<?xml version="1.0" encoding="UTF-8" standalone="no"?>
<svg
   xmlns:dc="http://purl.org/dc/elements/1.1/"
   xmlns:cc="http://creativecommons.org/ns#"
   xmlns:rdf="http://www.w3.org/1999/02/22-rdf-syntax-ns#"
   xmlns:svg="http://www.w3.org/2000/svg"
   xmlns="http://www.w3.org/2000/svg"
   xmlns:sodipodi="http://sodipodi.sourceforge.net/DTD/sodipodi-0.dtd"
   xmlns:inkscape="http://www.inkscape.org/namespaces/inkscape"
   sodipodi:docname="cardboard.svg"
   inkscape:version="1.0 (6e3e5246a0, 2020-05-07)"
   id="svg15951"
   version="1.1"
   viewBox="0 0 24.977371 18.292938"
   height="18.292938mm"
   width="24.977371mm">
  <defs
     id="defs15945">
    <linearGradient
       id="linearGradient8459"
       spreadMethod="pad"
       gradientTransform="matrix(59.658298,0,0,-59.658298,408.35486,957.78894)"
       gradientUnits="userSpaceOnUse"
       y2="0"
       x2="1"
       y1="0"
       x1="0">
      <stop
         id="stop8453"
         offset="0"
         style="stop-opacity:1;stop-color:#e35db8" />
      <stop
         id="stop8455"
         offset="0.60396321"
         style="stop-opacity:1;stop-color:#1e0757" />
      <stop
         id="stop8457"
         offset="1"
         style="stop-opacity:1;stop-color:#1e0757" />
    </linearGradient>
    <linearGradient
       id="linearGradient8481"
       spreadMethod="pad"
       gradientTransform="matrix(70.802864,0,0,-70.802864,402.82529,931.6731)"
       gradientUnits="userSpaceOnUse"
       y2="0"
       x2="1"
       y1="0"
       x1="0">
      <stop
         id="stop8475"
         offset="0"
         style="stop-opacity:1;stop-color:#f6d348" />
      <stop
         id="stop8477"
         offset="0.03027482"
         style="stop-opacity:1;stop-color:#f6d348" />
      <stop
         id="stop8479"
         offset="1"
         style="stop-opacity:1;stop-color:#f263bd" />
    </linearGradient>
    <linearGradient
       id="linearGradient8503"
       spreadMethod="pad"
       gradientTransform="matrix(22.211603,0,0,-22.211603,427.15317,921.7193)"
       gradientUnits="userSpaceOnUse"
       y2="0"
       x2="1"
       y1="0"
       x1="0">
      <stop
         id="stop8497"
         offset="0"
         style="stop-opacity:1;stop-color:#f6d348" />
      <stop
         id="stop8499"
         offset="0.03027482"
         style="stop-opacity:1;stop-color:#f6d348" />
      <stop
         id="stop8501"
         offset="1"
         style="stop-opacity:1;stop-color:#f263bd" />
    </linearGradient>
    <linearGradient
       id="linearGradient8525"
       spreadMethod="pad"
       gradientTransform="matrix(89.734062,41.136085,41.136085,-89.734062,386.90265,908.61127)"
       gradientUnits="userSpaceOnUse"
       y2="0"
       x2="1"
       y1="0"
       x1="0">
      <stop
         id="stop8519"
         offset="0"
         style="stop-opacity:1;stop-color:#63d7c2" />
      <stop
         id="stop8521"
         offset="0.67807152"
         style="stop-opacity:1;stop-color:#63d7c2" />
      <stop
         id="stop8523"
         offset="1"
         style="stop-opacity:1;stop-color:#1e0757" />
    </linearGradient>
    <linearGradient
       id="linearGradient8547"
       spreadMethod="pad"
       gradientTransform="matrix(15.522647,0,0,-15.522647,446.49295,932.24713)"
       gradientUnits="userSpaceOnUse"
       y2="0"
       x2="1"
       y1="0"
       x1="0">
      <stop
         id="stop8541"
         offset="0"
         style="stop-opacity:1;stop-color:#e35db8" />
      <stop
         id="stop8543"
         offset="0.60396321"
         style="stop-opacity:1;stop-color:#1e0757" />
      <stop
         id="stop8545"
         offset="1"
         style="stop-opacity:1;stop-color:#1e0757" />
    </linearGradient>
    <linearGradient
       id="linearGradient8569"
       spreadMethod="pad"
       gradientTransform="matrix(15.517879,0,0,-15.517879,414.40274,932.24377)"
       gradientUnits="userSpaceOnUse"
       y2="0"
       x2="1"
       y1="0"
       x1="0">
      <stop
         id="stop8563"
         offset="0"
         style="stop-opacity:1;stop-color:#e35db8" />
      <stop
         id="stop8565"
         offset="0.60396321"
         style="stop-opacity:1;stop-color:#1e0757" />
      <stop
         id="stop8567"
         offset="1"
         style="stop-opacity:1;stop-color:#1e0757" />
    </linearGradient>
    <linearGradient
       id="linearGradient8591"
       spreadMethod="pad"
       gradientTransform="matrix(57.190548,13.903467,13.903467,-57.190548,408.71338,949.92108)"
       gradientUnits="userSpaceOnUse"
       y2="0"
       x2="1"
       y1="0"
       x1="0">
      <stop
         id="stop8585"
         offset="0"
         style="stop-opacity:1;stop-color:#f6d348" />
      <stop
         id="stop8587"
         offset="0.03027482"
         style="stop-opacity:1;stop-color:#f6d348" />
      <stop
         id="stop8589"
         offset="1"
         style="stop-opacity:1;stop-color:#f263bd" />
    </linearGradient>
  </defs>
  <sodipodi:namedview
     inkscape:window-maximized="0"
     inkscape:window-y="27"
     inkscape:window-x="492"
     inkscape:window-height="1016"
     inkscape:window-width="1428"
     showgrid="false"
     inkscape:document-rotation="0"
     inkscape:current-layer="layer1"
     inkscape:document-units="mm"
     inkscape:cy="303.14076"
     inkscape:cx="-284.22726"
     inkscape:zoom="0.35"
     inkscape:pageshadow="2"
     inkscape:pageopacity="0.0"
     borderopacity="1.0"
     bordercolor="#666666"
     pagecolor="#ffffff"
     id="base" />
  <metadata
     id="metadata15948">
    <rdf:RDF>
      <cc:Work
         rdf:about="">
        <dc:format>image/svg+xml</dc:format>
        <dc:type
           rdf:resource="http://purl.org/dc/dcmitype/StillImage" />
        <dc:title></dc:title>
      </cc:Work>
    </rdf:RDF>
  </metadata>
  <g
     transform="translate(-22.285128,-67.960673)"
     id="layer1"
     inkscape:groupmode="layer"
     inkscape:label="Layer 1">
    <g
       transform="matrix(0.35277777,0,0,-0.35277777,-119.82293,406.92931)"
       id="g13350">
      <g
         id="g8441">
        <g
           id="g8443">
          <g
             id="g8449">
            <g
               id="g8451">
              <path
                 d="m 412.406,960.832 c -1.506,-0.219 -2.975,-1.186 -3.448,-2.301 v 0 c 0,0 -0.081,-0.155 -0.173,-0.4 v 0 c -0.476,-0.95 -0.446,-1.97 -0.415,-2.991 v 0 c 0.085,-0.38 0.37,-0.392 0.683,-0.386 v 0 c 0.592,0.011 1.184,0.004 1.776,0.004 v 0 c 18.66,-0.001 37.321,-0.004 55.979,0.006 v 0 c 0.091,0 0.188,-0.011 0.285,-0.022 v 0 c 0.352,-0.038 0.722,-0.077 0.92,0.392 v 0 c -0.01,0.325 -0.02,0.649 -0.029,0.975 v 0 c -0.016,0.256 -0.033,0.513 -0.05,0.769 v 0 c -0.073,0.662 -0.294,1.272 -0.654,1.833 v 0 c -0.888,1.573 -2.313,2.142 -4.035,2.143 v 0 c -16.684,0 -33.367,0 -50.05,-0.001 v 0 c -0.123,0 -0.247,0.003 -0.37,0.003 v 0 c -0.141,0 -0.281,-0.004 -0.419,-0.024"
                 style="fill:url(#linearGradient8459);stroke:none"
                 id="path8461" />
            </g>
          </g>
        </g>
      </g>
      <g
         id="g8463">
        <g
           id="g8465">
          <g
             id="g8471">
            <g
               id="g8473">
              <path
                 d="m 407.57,954.345 c -2.619,0 -4.744,-2.125 -4.744,-4.745 v 0 -36.455 c 0,-2.288 1.854,-4.143 4.142,-4.143 v 0 h 17.236 c 1.552,0 2.299,0.973 2.911,2.397 v 0 c 1.847,4.298 4.462,10.258 5.61,12.905 v 0 c 0.667,1.539 2.672,2.416 4.284,2.7 v 0 c 2.937,0.517 6.021,-0.981 7.069,-3.632 v 0 c 1.265,-3.201 2.652,-6.353 3.982,-9.529 v 0 c 0.022,-0.054 0.645,-1.375 1.306,-2.785 v 0 c 0.638,-1.363 1.262,-2.056 2.768,-2.056 v 0 h 17.35 c 2.29,0 4.144,1.855 4.144,4.143 v 0 36.454 c 0,2.621 -2.124,4.746 -4.745,4.746 v 0 z"
                 style="fill:url(#linearGradient8481);stroke:none"
                 id="path8483" />
            </g>
          </g>
        </g>
      </g>
      <g
         id="g8485">
        <g
           id="g8487">
          <g
             id="g8493">
            <g
               id="g8495">
              <path
                 d="m 437.058,929.933 c -1.614,-0.284 -2.964,-1.214 -3.631,-2.753 v 0 c -1.525,-3.517 -4.813,-10.234 -6.273,-13.777 v 0 c 3.063,10e-4 7.083,-0.002 11.105,-0.005 v 0 c 4.021,-0.002 8.042,-0.004 11.107,-0.002 v 0 c -0.014,0.129 -1.958,3.44 -2.006,3.555 v 0 c -1.329,3.177 -2.717,6.329 -3.981,9.531 v 0 c -0.897,2.268 -2.74,3.562 -5.094,3.562 v 0 c -0.395,0 -0.805,-0.037 -1.227,-0.111"
                 style="fill:url(#linearGradient8503);stroke:none"
                 id="path8505" />
            </g>
          </g>
        </g>
      </g>
      <g
         id="g8507">
        <g
           id="g8509">
          <g
             id="g8515">
            <g
               id="g8517">
              <path
                 d="m 407.57,954.918 c -2.619,0 -4.744,-2.124 -4.744,-4.745 v 0 -36.454 c 0,-2.288 1.854,-4.143 4.142,-4.143 v 0 h 17.236 c 1.552,0 2.953,0.919 3.565,2.344 v 0 c 1.847,4.298 4.462,10.257 5.611,12.906 v 0 c 0.667,1.539 2.017,2.468 3.629,2.752 v 0 c 2.937,0.516 5.274,-0.801 6.322,-3.451 v 0 c 1.264,-3.201 2.652,-6.355 3.982,-9.53 v 0 c 0.022,-0.054 0.644,-1.375 1.305,-2.785 v 0 c 0.639,-1.364 2.01,-2.236 3.516,-2.236 v 0 h 17.35 c 2.29,0 4.144,1.855 4.144,4.143 v 0 36.454 c 0,2.621 -2.124,4.745 -4.745,4.745 v 0 z"
                 style="fill:url(#linearGradient8525);stroke:none"
                 id="path8527" />
            </g>
          </g>
        </g>
      </g>
      <g
         id="g8529">
        <g
           id="g8531">
          <g
             id="g8537">
            <g
               id="g8539">
              <path
                 d="m 454.328,939.846 c -4.438,-0.05 -7.798,-3.223 -7.834,-7.608 v 0 c -0.041,-4.803 4.1,-7.671 7.835,-7.589 v 0 c 4.209,0.092 7.679,3.394 7.687,7.501 v 0 c 0.007,4.219 -3.377,7.696 -7.6,7.696 v 0 c -0.029,0 -0.059,0 -0.088,0"
                 style="fill:url(#linearGradient8547);stroke:none"
                 id="path8549" />
            </g>
          </g>
        </g>
      </g>
      <g
         id="g8551">
        <g
           id="g8553">
          <g
             id="g8559">
            <g
               id="g8561">
              <path
                 d="m 421.679,939.809 c -4.359,-0.205 -7.23,-3.395 -7.276,-7.708 v 0 c -0.044,-4.082 3.478,-7.499 7.755,-7.431 v 0 c 4.23,-0.096 7.881,3.387 7.76,7.518 v 0 c -0.122,4.143 -2.951,7.633 -7.76,7.632 v 0 c -0.157,0 -0.318,-0.004 -0.479,-0.011"
                 style="fill:url(#linearGradient8569);stroke:none"
                 id="path8571" />
            </g>
          </g>
        </g>
      </g>
      <g
         id="g8573">
        <g
           id="g8575">
          <g
             id="g8581">
            <g
               id="g8583">
              <path
                 d="m 411.893,960.138 c -1.954,0 -3.539,-1.584 -3.539,-3.539 v 0 -1.557 c 0,-0.178 0.144,-0.32 0.322,-0.32 v 0 h 59.016 c 0.178,0 0.321,0.142 0.321,0.32 v 0 1.557 c 0,1.955 -1.584,3.539 -3.538,3.539 v 0 z"
                 style="fill:url(#linearGradient8591);stroke:none"
                 id="path8593" />
            </g>
          </g>
        </g>
      </g>
    </g>
  </g>
</svg>
