<?xml version="1.0" encoding="UTF-8" standalone="no"?>
<svg
   xmlns:dc="http://purl.org/dc/elements/1.1/"
   xmlns:cc="http://creativecommons.org/ns#"
   xmlns:rdf="http://www.w3.org/1999/02/22-rdf-syntax-ns#"
   xmlns:svg="http://www.w3.org/2000/svg"
   xmlns="http://www.w3.org/2000/svg"
   xmlns:sodipodi="http://sodipodi.sourceforge.net/DTD/sodipodi-0.dtd"
   xmlns:inkscape="http://www.inkscape.org/namespaces/inkscape"
   sodipodi:docname="cell.svg"
   inkscape:version="1.0 (6e3e5246a0, 2020-05-07)"
   id="svg21368"
   version="1.1"
   viewBox="0 0 20.524128 20.522417"
   height="20.522417mm"
   width="20.524128mm">
  <defs
     id="defs21362">
    <clipPath
       clipPathUnits="userSpaceOnUse"
       id="clipPath1248">
      <path
         d="M 0,1080 H 1920 V 0 H 0 Z"
         id="path1246" />
    </clipPath>
    <linearGradient
       x1="0"
       y1="0"
       x2="1"
       y2="0"
       gradientUnits="userSpaceOnUse"
       gradientTransform="matrix(5.4592862,0,0,-5.4592862,829.88708,146.46942)"
       spreadMethod="pad"
       id="linearGradient1272">
      <stop
         style="stop-opacity:1;stop-color:#f6d348"
         offset="0"
         id="stop1266" />
      <stop
         style="stop-opacity:1;stop-color:#f6d348"
         offset="0.03027482"
         id="stop1268" />
      <stop
         style="stop-opacity:1;stop-color:#f263bd"
         offset="1"
         id="stop1270" />
    </linearGradient>
    <linearGradient
       x1="0"
       y1="0"
       x2="1"
       y2="0"
       gradientUnits="userSpaceOnUse"
       gradientTransform="matrix(3.7487974,0,0,-3.7487974,829.88708,157.60271)"
       spreadMethod="pad"
       id="linearGradient1294">
      <stop
         style="stop-opacity:1;stop-color:#f6d348"
         offset="0"
         id="stop1288" />
      <stop
         style="stop-opacity:1;stop-color:#f6d348"
         offset="0.03027482"
         id="stop1290" />
      <stop
         style="stop-opacity:1;stop-color:#f263bd"
         offset="1"
         id="stop1292" />
    </linearGradient>
    <linearGradient
       x1="0"
       y1="0"
       x2="1"
       y2="0"
       gradientUnits="userSpaceOnUse"
       gradientTransform="matrix(51.160893,0,0,-51.160893,833.52057,143.96024)"
       spreadMethod="pad"
       id="linearGradient1316">
      <stop
         style="stop-opacity:1;stop-color:#f6d348"
         offset="0"
         id="stop1310" />
      <stop
         style="stop-opacity:1;stop-color:#f6d348"
         offset="0.03027482"
         id="stop1312" />
      <stop
         style="stop-opacity:1;stop-color:#f263bd"
         offset="1"
         id="stop1314" />
    </linearGradient>
    <linearGradient
       x1="0"
       y1="0"
       x2="1"
       y2="0"
       gradientUnits="userSpaceOnUse"
       gradientTransform="matrix(23.861368,0,0,-23.861368,864.20337,161.23544)"
       spreadMethod="pad"
       id="linearGradient1338">
      <stop
         style="stop-opacity:1;stop-color:#f6d348"
         offset="0"
         id="stop1332" />
      <stop
         style="stop-opacity:1;stop-color:#f6d348"
         offset="0.03027482"
         id="stop1334" />
      <stop
         style="stop-opacity:1;stop-color:#f263bd"
         offset="1"
         id="stop1336" />
    </linearGradient>
    <linearGradient
       x1="0"
       y1="0"
       x2="1"
       y2="0"
       gradientUnits="userSpaceOnUse"
       gradientTransform="matrix(4.3256483,0,0,-4.3256483,873.4007,144.62196)"
       spreadMethod="pad"
       id="linearGradient1360">
      <stop
         style="stop-opacity:1;stop-color:#f6d348"
         offset="0"
         id="stop1354" />
      <stop
         style="stop-opacity:1;stop-color:#f6d348"
         offset="0.03027482"
         id="stop1356" />
      <stop
         style="stop-opacity:1;stop-color:#f263bd"
         offset="1"
         id="stop1358" />
    </linearGradient>
    <linearGradient
       x1="0"
       y1="0"
       x2="1"
       y2="0"
       gradientUnits="userSpaceOnUse"
       gradientTransform="matrix(6.2351675,0,0,-6.2351675,834.11206,169.46269)"
       spreadMethod="pad"
       id="linearGradient1382">
      <stop
         style="stop-opacity:1;stop-color:#f6d348"
         offset="0"
         id="stop1376" />
      <stop
         style="stop-opacity:1;stop-color:#f6d348"
         offset="0.03027482"
         id="stop1378" />
      <stop
         style="stop-opacity:1;stop-color:#f263bd"
         offset="1"
         id="stop1380" />
    </linearGradient>
    <linearGradient
       x1="0"
       y1="0"
       x2="1"
       y2="0"
       gradientUnits="userSpaceOnUse"
       gradientTransform="matrix(5.7950015,0,0,-5.7950015,863.05566,146.98375)"
       spreadMethod="pad"
       id="linearGradient1404">
      <stop
         style="stop-opacity:1;stop-color:#f6d348"
         offset="0"
         id="stop1398" />
      <stop
         style="stop-opacity:1;stop-color:#f6d348"
         offset="0.03027482"
         id="stop1400" />
      <stop
         style="stop-opacity:1;stop-color:#f263bd"
         offset="1"
         id="stop1402" />
    </linearGradient>
    <linearGradient
       x1="0"
       y1="0"
       x2="1"
       y2="0"
       gradientUnits="userSpaceOnUse"
       gradientTransform="matrix(5.7430172,0,0,-5.7430172,881.70422,122.11964)"
       spreadMethod="pad"
       id="linearGradient1426">
      <stop
         style="stop-opacity:1;stop-color:#f6d348"
         offset="0"
         id="stop1420" />
      <stop
         style="stop-opacity:1;stop-color:#f6d348"
         offset="0.03027482"
         id="stop1422" />
      <stop
         style="stop-opacity:1;stop-color:#f263bd"
         offset="1"
         id="stop1424" />
    </linearGradient>
    <linearGradient
       x1="0"
       y1="0"
       x2="1"
       y2="0"
       gradientUnits="userSpaceOnUse"
       gradientTransform="matrix(6.0684614,0,0,-6.0684614,834.37231,135.24908)"
       spreadMethod="pad"
       id="linearGradient1448">
      <stop
         style="stop-opacity:1;stop-color:#f6d348"
         offset="0"
         id="stop1442" />
      <stop
         style="stop-opacity:1;stop-color:#f6d348"
         offset="0.03027482"
         id="stop1444" />
      <stop
         style="stop-opacity:1;stop-color:#f263bd"
         offset="1"
         id="stop1446" />
    </linearGradient>
    <linearGradient
       x1="0"
       y1="0"
       x2="1"
       y2="0"
       gradientUnits="userSpaceOnUse"
       gradientTransform="matrix(5.4596043,0,0,-5.4596043,857.37952,156.9108)"
       spreadMethod="pad"
       id="linearGradient1470">
      <stop
         style="stop-opacity:1;stop-color:#f6d348"
         offset="0"
         id="stop1464" />
      <stop
         style="stop-opacity:1;stop-color:#f6d348"
         offset="0.03027482"
         id="stop1466" />
      <stop
         style="stop-opacity:1;stop-color:#f263bd"
         offset="1"
         id="stop1468" />
    </linearGradient>
    <linearGradient
       x1="0"
       y1="0"
       x2="1"
       y2="0"
       gradientUnits="userSpaceOnUse"
       gradientTransform="matrix(5.5328684,0,0,-5.5328684,851.45966,168.9986)"
       spreadMethod="pad"
       id="linearGradient1492">
      <stop
         style="stop-opacity:1;stop-color:#f6d348"
         offset="0"
         id="stop1486" />
      <stop
         style="stop-opacity:1;stop-color:#f6d348"
         offset="0.03027482"
         id="stop1488" />
      <stop
         style="stop-opacity:1;stop-color:#f263bd"
         offset="1"
         id="stop1490" />
    </linearGradient>
    <linearGradient
       x1="0"
       y1="0"
       x2="1"
       y2="0"
       gradientUnits="userSpaceOnUse"
       gradientTransform="matrix(5.016572,0,0,-5.016572,855.8905,118.42095)"
       spreadMethod="pad"
       id="linearGradient1514">
      <stop
         style="stop-opacity:1;stop-color:#f6d348"
         offset="0"
         id="stop1508" />
      <stop
         style="stop-opacity:1;stop-color:#f6d348"
         offset="0.03027482"
         id="stop1510" />
      <stop
         style="stop-opacity:1;stop-color:#f263bd"
         offset="1"
         id="stop1512" />
    </linearGradient>
    <linearGradient
       x1="0"
       y1="0"
       x2="1"
       y2="0"
       gradientUnits="userSpaceOnUse"
       gradientTransform="matrix(6.1610484,0,0,-6.1610484,881.03619,139.09972)"
       spreadMethod="pad"
       id="linearGradient1536">
      <stop
         style="stop-opacity:1;stop-color:#f6d348"
         offset="0"
         id="stop1530" />
      <stop
         style="stop-opacity:1;stop-color:#f6d348"
         offset="0.03027482"
         id="stop1532" />
      <stop
         style="stop-opacity:1;stop-color:#f263bd"
         offset="1"
         id="stop1534" />
    </linearGradient>
    <linearGradient
       x1="0"
       y1="0"
       x2="1"
       y2="0"
       gradientUnits="userSpaceOnUse"
       gradientTransform="matrix(5.5140228,0,0,-5.5140228,844.36566,125.07035)"
       spreadMethod="pad"
       id="linearGradient1558">
      <stop
         style="stop-opacity:1;stop-color:#f6d348"
         offset="0"
         id="stop1552" />
      <stop
         style="stop-opacity:1;stop-color:#f6d348"
         offset="0.03027482"
         id="stop1554" />
      <stop
         style="stop-opacity:1;stop-color:#f263bd"
         offset="1"
         id="stop1556" />
    </linearGradient>
    <linearGradient
       x1="0"
       y1="0"
       x2="1"
       y2="0"
       gradientUnits="userSpaceOnUse"
       gradientTransform="matrix(3.5188797,0,0,-3.5188797,884.54248,130.33467)"
       spreadMethod="pad"
       id="linearGradient1580">
      <stop
         style="stop-opacity:1;stop-color:#f6d348"
         offset="0"
         id="stop1574" />
      <stop
         style="stop-opacity:1;stop-color:#f6d348"
         offset="0.03027482"
         id="stop1576" />
      <stop
         style="stop-opacity:1;stop-color:#f263bd"
         offset="1"
         id="stop1578" />
    </linearGradient>
    <linearGradient
       x1="0"
       y1="0"
       x2="1"
       y2="0"
       gradientUnits="userSpaceOnUse"
       gradientTransform="matrix(3.4040923,0,0,-3.4040923,871.0199,116.755)"
       spreadMethod="pad"
       id="linearGradient1602">
      <stop
         style="stop-opacity:1;stop-color:#f6d348"
         offset="0"
         id="stop1596" />
      <stop
         style="stop-opacity:1;stop-color:#f6d348"
         offset="0.03027482"
         id="stop1598" />
      <stop
         style="stop-opacity:1;stop-color:#f263bd"
         offset="1"
         id="stop1600" />
    </linearGradient>
    <linearGradient
       x1="0"
       y1="0"
       x2="1"
       y2="0"
       gradientUnits="userSpaceOnUse"
       gradientTransform="matrix(44.255531,0,0,-44.255531,836.93237,143.9841)"
       spreadMethod="pad"
       id="linearGradient1626">
      <stop
         style="stop-opacity:1;stop-color:#4d1f81"
         offset="0"
         id="stop1618" />
      <stop
         style="stop-opacity:1;stop-color:#4d1f81"
         offset="0.463165"
         id="stop1620" />
      <stop
         style="stop-opacity:1;stop-color:#f263bd"
         offset="0.63598748"
         id="stop1622" />
      <stop
         style="stop-opacity:1;stop-color:#f263bd"
         offset="1"
         id="stop1624" />
    </linearGradient>
    <linearGradient
       x1="0"
       y1="0"
       x2="1"
       y2="0"
       gradientUnits="userSpaceOnUse"
       gradientTransform="matrix(17.000381,0,0,-17.000381,867.6106,161.26173)"
       spreadMethod="pad"
       id="linearGradient1648">
      <stop
         style="stop-opacity:1;stop-color:#4d1f81"
         offset="0"
         id="stop1642" />
      <stop
         style="stop-opacity:1;stop-color:#f263bd"
         offset="0.32192848"
         id="stop1644" />
      <stop
         style="stop-opacity:1;stop-color:#f263bd"
         offset="1"
         id="stop1646" />
    </linearGradient>
    <linearGradient
       x1="0"
       y1="0"
       x2="1"
       y2="0"
       gradientUnits="userSpaceOnUse"
       gradientTransform="matrix(10.174908,0,0,-10.174908,867.63452,130.32205)"
       spreadMethod="pad"
       id="linearGradient1670">
      <stop
         style="stop-opacity:1;stop-color:#63d7c2"
         offset="0"
         id="stop1664" />
      <stop
         style="stop-opacity:1;stop-color:#63d7c2"
         offset="0.67807152"
         id="stop1666" />
      <stop
         style="stop-opacity:1;stop-color:#1e0757"
         offset="1"
         id="stop1668" />
    </linearGradient>
    <linearGradient
       x1="0"
       y1="0"
       x2="1"
       y2="0"
       gradientUnits="userSpaceOnUse"
       gradientTransform="matrix(10.203762,0,0,-10.203762,840.36414,157.60287)"
       spreadMethod="pad"
       id="linearGradient1692">
      <stop
         style="stop-opacity:1;stop-color:#63d7c2"
         offset="0"
         id="stop1686" />
      <stop
         style="stop-opacity:1;stop-color:#63d7c2"
         offset="0.67807152"
         id="stop1688" />
      <stop
         style="stop-opacity:1;stop-color:#1e0757"
         offset="1"
         id="stop1690" />
    </linearGradient>
    <linearGradient
       x1="0"
       y1="0"
       x2="1"
       y2="0"
       gradientUnits="userSpaceOnUse"
       gradientTransform="matrix(4.9216309,0,0,-4.9216309,842.99695,147.53163)"
       spreadMethod="pad"
       id="linearGradient1714">
      <stop
         style="stop-opacity:1;stop-color:#63d7c2"
         offset="0"
         id="stop1708" />
      <stop
         style="stop-opacity:1;stop-color:#63d7c2"
         offset="0.67807152"
         id="stop1710" />
      <stop
         style="stop-opacity:1;stop-color:#1e0757"
         offset="1"
         id="stop1712" />
    </linearGradient>
    <linearGradient
       x1="0"
       y1="0"
       x2="1"
       y2="0"
       gradientUnits="userSpaceOnUse"
       gradientTransform="matrix(4.9216309,0,0,-4.9216309,849.84283,145.68402)"
       spreadMethod="pad"
       id="linearGradient1736">
      <stop
         style="stop-opacity:1;stop-color:#63d7c2"
         offset="0"
         id="stop1730" />
      <stop
         style="stop-opacity:1;stop-color:#63d7c2"
         offset="0.67807152"
         id="stop1732" />
      <stop
         style="stop-opacity:1;stop-color:#1e0757"
         offset="1"
         id="stop1734" />
    </linearGradient>
    <linearGradient
       x1="0"
       y1="0"
       x2="1"
       y2="0"
       gradientUnits="userSpaceOnUse"
       gradientTransform="matrix(4.9216309,0,0,-4.9216309,850.47144,136.49402)"
       spreadMethod="pad"
       id="linearGradient1758">
      <stop
         style="stop-opacity:1;stop-color:#63d7c2"
         offset="0"
         id="stop1752" />
      <stop
         style="stop-opacity:1;stop-color:#63d7c2"
         offset="0.67807152"
         id="stop1754" />
      <stop
         style="stop-opacity:1;stop-color:#1e0757"
         offset="1"
         id="stop1756" />
    </linearGradient>
    <linearGradient
       x1="0"
       y1="0"
       x2="1"
       y2="0"
       gradientUnits="userSpaceOnUse"
       gradientTransform="matrix(4.9216309,0,0,-4.9216309,858.33777,137.12627)"
       spreadMethod="pad"
       id="linearGradient1780">
      <stop
         style="stop-opacity:1;stop-color:#63d7c2"
         offset="0"
         id="stop1774" />
      <stop
         style="stop-opacity:1;stop-color:#63d7c2"
         offset="0.67807152"
         id="stop1776" />
      <stop
         style="stop-opacity:1;stop-color:#1e0757"
         offset="1"
         id="stop1778" />
    </linearGradient>
    <linearGradient
       x1="0"
       y1="0"
       x2="1"
       y2="0"
       gradientUnits="userSpaceOnUse"
       gradientTransform="matrix(4.9216309,0,0,-4.9216309,860.06018,130.32205)"
       spreadMethod="pad"
       id="linearGradient1802">
      <stop
         style="stop-opacity:1;stop-color:#63d7c2"
         offset="0"
         id="stop1796" />
      <stop
         style="stop-opacity:1;stop-color:#63d7c2"
         offset="0.67807152"
         id="stop1798" />
      <stop
         style="stop-opacity:1;stop-color:#1e0757"
         offset="1"
         id="stop1800" />
    </linearGradient>
  </defs>
  <sodipodi:namedview
     inkscape:window-maximized="0"
     inkscape:window-y="27"
     inkscape:window-x="122"
     inkscape:window-height="1016"
     inkscape:window-width="1428"
     showgrid="false"
     inkscape:document-rotation="0"
     inkscape:current-layer="layer1"
     inkscape:document-units="mm"
     inkscape:cy="38.782527"
     inkscape:cx="38.785742"
     inkscape:zoom="0.35"
     inkscape:pageshadow="2"
     inkscape:pageopacity="0.0"
     borderopacity="1.0"
     bordercolor="#666666"
     pagecolor="#ffffff"
     id="base" />
  <metadata
     id="metadata21365">
    <rdf:RDF>
      <cc:Work
         rdf:about="">
        <dc:format>image/svg+xml</dc:format>
        <dc:type
           rdf:resource="http://purl.org/dc/dcmitype/StillImage" />
        <dc:title></dc:title>
      </cc:Work>
    </rdf:RDF>
  </metadata>
  <g
     transform="translate(-95.571272,-137.90546)"
     id="layer1"
     inkscape:groupmode="layer"
     inkscape:label="Layer 1">
    <g
       transform="matrix(0.35277777,0,0,-0.35277777,-197.19406,198.99563)"
       id="g10827">
      <g
         id="g1242">
        <g
           clip-path="url(#clipPath1248)"
           id="g1244">
          <g
             transform="translate(829.8867,147.2637)"
             id="g1250">
            <path
               id="path1252"
               style="fill:#fefefe;fill-opacity:1;fill-rule:nonzero;stroke:none"
               d="M 0,0 V 8.635 C 1.212,8.634 2.424,8.632 3.636,8.63 3.81,7.256 3.841,5.867 4.083,4.5 4.257,3.523 4.41,2.544 4.573,1.565 3.049,1.044 1.524,0.521 0,0" />
          </g>
        </g>
      </g>
      <g
         id="g1254">
        <g
           id="g1256">
          <g
             id="g1262">
            <g
               id="g1264">
              <path
                 id="path1274"
                 style="fill:url(#linearGradient1272);stroke:none"
                 d="m 829.886,147.263 v -0.113 c 0.408,-0.869 0.626,-1.805 0.953,-2.703 v 0 c 0.079,-0.215 0.109,-0.425 0.455,-0.3 v 0 c 1.345,0.482 2.7,0.933 4.053,1.396 v 0 c -0.214,1.118 -0.531,2.207 -0.887,3.286 v 0 c -1.524,-0.522 -3.049,-1.044 -4.574,-1.566" />
            </g>
          </g>
        </g>
      </g>
      <g
         id="g1276">
        <g
           id="g1278">
          <g
             id="g1284">
            <g
               id="g1286">
              <path
                 id="path1296"
                 style="fill:url(#linearGradient1294);stroke:none"
                 d="m 829.886,159.308 v -3.409 c 1.213,-0.002 2.424,-0.004 3.636,-0.006 v 0 c 0.035,1.14 -0.078,2.285 0.114,3.419 v 0 c -1.249,-0.001 -2.5,-0.003 -3.75,-0.004" />
            </g>
          </g>
        </g>
      </g>
      <g
         id="g1298">
        <g
           id="g1300">
          <g
             id="g1306">
            <g
               id="g1308">
              <path
                 id="path1318"
                 style="fill:url(#linearGradient1316);stroke:none"
                 d="m 842.501,169.154 c -0.727,-0.187 -1.389,-0.588 -2.153,-0.633 v 0 c -0.149,-0.44 -0.619,-0.429 -0.926,-0.648 v 0 c -0.632,-0.45 -1.287,-0.869 -1.932,-1.301 v 0 c -0.6,-0.724 -1.272,-1.384 -1.818,-2.157 v 0 c -1.086,-1.541 -1.71,-3.262 -2.036,-5.103 v 0 c -0.192,-1.134 -0.079,-2.279 -0.114,-3.419 v 0 c 0.174,-1.374 0.206,-2.763 0.448,-4.13 v 0 c 0.173,-0.976 0.327,-1.955 0.49,-2.934 v 0 c 0.356,-1.079 0.673,-2.168 0.887,-3.286 v 0 c 0.163,-0.123 0.192,-0.314 0.252,-0.493 v 0 c 0.702,-2.099 1.61,-4.112 2.633,-6.074 v 0 c 0.154,-0.292 0.446,-0.531 0.401,-0.913 v 0 c 0.575,-0.457 0.774,-1.172 1.189,-1.741 v 0 c 0.254,-0.347 0.619,-0.667 0.619,-1.16 v 0 c 0.369,-0.103 0.478,-0.461 0.677,-0.72 v 0 c 1.198,-1.563 2.392,-3.129 3.869,-4.449 v 0 c 0.021,-0.17 0.166,-0.239 0.272,-0.341 v 0 c 0.672,-0.645 1.342,-1.291 2.014,-1.937 v 0 c 0.818,-0.621 1.634,-1.244 2.455,-1.863 v 0 c 0.098,-0.075 0.142,-0.17 0.152,-0.287 v 0 c 0.106,0.028 0.2,0.06 0.314,-0.022 v 0 c 2.345,-1.694 4.897,-3.014 7.529,-4.189 v 0 c 1.056,-0.395 2.088,-0.854 3.185,-1.137 v 0 c 3.292,-1.055 6.677,-1.602 10.122,-1.816 v 0 c 0.374,0.012 0.75,0.003 1.125,-0.006 v 0 c 0.756,-0.018 1.511,-0.036 2.262,0.12 v 0 c 2.031,0.305 3.865,1.071 5.513,2.304 v 0 c 0.635,0.474 1.154,1.075 1.774,1.565 v 0 c 0.719,0.892 1.277,1.892 1.923,2.833 v 0 c -0.043,0.24 0.081,0.443 0.166,0.647 v 0 c 0.371,0.894 0.592,1.825 0.749,2.776 v 0 c 0.186,1.129 0.186,2.26 0,3.389 v 0 c -0.213,1.536 -0.756,2.96 -1.473,4.325 v 0 c -0.573,0.869 -1.155,1.73 -1.92,2.448 v 0 c -0.06,0.058 -0.076,0.162 -0.113,0.246 v 0 c -0.21,0.006 -0.326,0.168 -0.469,0.288 v 0 c -1.162,0.971 -2.427,1.764 -3.871,2.252 v 0 c -1.06,0.411 -2.158,0.64 -3.295,0.681 v 0 c -1.783,-0.005 -3.548,0.167 -5.249,0.716 v 0 c -0.782,0.25 -1.596,0.464 -2.261,0.996 v 0 c -1.064,0.422 -1.981,1.071 -2.835,1.819 v 0 c -0.374,0.301 -0.747,0.601 -1.121,0.902 v 0 c -1.008,1.05 -1.914,2.179 -2.611,3.458 v 0 c -0.77,1.407 -1.382,2.877 -1.596,4.485 v 0 c -0.285,0.931 -0.344,1.889 -0.348,2.854 v 0 c 0,0.206 0,0.412 0,0.618 v 0 c -0.038,0.372 -0.06,0.749 -0.117,1.119 v 0 c -0.347,2.286 -1.216,4.339 -2.756,6.086 v 0 c -0.15,0.171 -0.304,0.338 -0.322,0.581 v 0 c -0.478,0.201 -0.796,0.607 -1.192,0.913 v 0 c -0.505,0.389 -1.022,0.762 -1.533,1.142 v 0 c -0.443,0.202 -0.881,0.418 -1.331,0.605 v 0 c -1.538,0.638 -3.098,0.973 -4.686,0.973 v 0 c -0.97,0 -1.95,-0.125 -2.942,-0.382 m 4.898,-36.867 v 0.001 c -1.759,1.928 -3.461,3.9 -4.862,6.117 v 0 c -2.515,3.978 -4.214,8.269 -5.039,12.905 v 0 c -0.365,2.048 -0.564,4.113 -0.566,6.195 v 0 c -0.003,4.142 2.855,7.649 6.903,8.473 v 0 c 4.706,0.957 9.444,-2.451 10.038,-7.209 v 0 c 0.185,-1.479 0.132,-2.974 0.406,-4.449 v 0 c 0.449,-2.431 1.326,-4.678 2.64,-6.764 v 0 c 0.718,-1.141 1.557,-2.181 2.504,-3.135 v 0 c 0.004,-0.036 0.007,-0.071 0.01,-0.108 v 0 c 1.665,-1.528 3.463,-2.862 5.541,-3.792 v 0 c 1.82,-0.815 3.717,-1.327 5.698,-1.563 v 0 c 1.421,-0.17 2.86,-0.059 4.272,-0.425 v 0 c 3.301,-0.852 5.898,-3.892 6.202,-7.308 v 0 c 0.285,-3.226 -0.872,-5.817 -3.433,-7.747 v 0 c -1.829,-1.378 -3.941,-1.808 -6.212,-1.599 v 0 c -1.088,0.1 -2.181,0.128 -3.269,0.259 v 0 c -2.653,0.318 -5.226,0.949 -7.731,1.856 v 0 c -3.931,1.423 -7.482,3.517 -10.698,6.177 v 0 c -0.799,0.663 -1.533,1.405 -2.297,2.111 v 0 l -0.054,-0.002 z m -1.054,-1.123 c -0.183,-0.181 -0.368,-0.358 -0.553,-0.537 v 0 c 0.185,0.179 0.37,0.356 0.553,0.537" />
            </g>
          </g>
        </g>
      </g>
      <g
         id="g1320">
        <g
           id="g1322">
          <g
             id="g1328">
            <g
               id="g1330">
              <path
                 id="path1340"
                 style="fill:url(#linearGradient1338);stroke:none"
                 d="m 870.223,173.169 c -0.047,-0.032 -0.091,-0.085 -0.14,-0.09 v 0 c -3.439,-0.332 -6.452,-3.897 -5.787,-7.835 v 0 c 0.494,-2.919 3.029,-5.561 6.423,-5.693 v 0 c 1.072,-0.042 2.001,-0.328 2.785,-1.057 v 0 c 0.473,-0.629 0.824,-1.309 0.888,-2.106 v 0 c 0.029,-0.358 0.007,-0.721 0.054,-1.075 v 0 c 0.545,-3.991 4.255,-6.645 8.205,-5.88 v 0 c 3.016,0.585 5.387,3.477 5.413,6.563 v 0 c 0.024,2.851 -0.636,5.54 -1.95,8.056 v 0 c -0.797,1.525 -1.77,2.941 -3.053,4.118 v 0 c -0.18,0.328 -0.52,0.488 -0.783,0.728 v 0 c -1.893,1.721 -4.106,2.857 -6.542,3.601 v 0 c -1.027,0.313 -2.102,0.375 -3.127,0.67 v 0 z m 7.633,-17.015 c -0.068,1.849 -0.707,3.408 -1.953,4.743 v 0 c -0.034,0.002 -0.067,0.003 -0.101,0.003 v 0 c -1.276,1.398 -2.905,1.985 -4.753,2.04 v 0 c -1.867,0.056 -3.36,1.458 -3.436,3.254 v 0 c -0.081,1.926 1.462,3.569 3.406,3.559 v 0 c 3.17,-0.018 6.006,-1.024 8.498,-2.983 v 0 c 0.356,-0.281 0.693,-0.584 1.038,-0.877 v 0 c 0.004,-0.037 0.007,-0.073 0.007,-0.11 v 0 c 1.818,-1.744 2.999,-3.861 3.62,-6.288 v 0 c 0.332,-1.295 0.543,-2.612 0.363,-3.961 v 0 c -0.173,-1.297 -1.406,-2.508 -2.692,-2.715 v 0 c -0.204,-0.033 -0.406,-0.049 -0.604,-0.049 v 0 c -1.816,0 -3.318,1.344 -3.393,3.384 m -2.433,4.423 c -0.03,-0.026 -0.06,-0.049 -0.088,-0.076 v 0 c 0.028,0.027 0.058,0.05 0.088,0.076 m -1.348,-1.349 c -0.107,-0.103 -0.229,-0.195 -0.336,-0.302 v 0 c 0.107,0.107 0.229,0.199 0.336,0.302" />
            </g>
          </g>
        </g>
      </g>
      <g
         id="g1342">
        <g
           id="g1344">
          <g
             id="g1350">
            <g
               id="g1352">
              <path
                 id="path1362"
                 style="fill:url(#linearGradient1360);stroke:none"
                 d="m 874.403,147.371 c -0.323,-1.702 -0.666,-3.402 -1.002,-5.102 v 0 c 1.137,-0.041 2.235,-0.27 3.295,-0.681 v 0 c 0.333,1.643 0.658,3.288 1.003,4.929 v 0 c 0.085,0.402 -0.019,0.572 -0.445,0.637 v 0 c -0.819,0.125 -1.632,0.297 -2.441,0.479 v 0 c -0.066,0.015 -0.122,0.024 -0.169,0.024 v 0 c -0.142,0 -0.201,-0.079 -0.241,-0.286" />
            </g>
          </g>
        </g>
      </g>
      <g
         id="g1364">
        <g
           id="g1366">
          <g
             id="g1372">
            <g
               id="g1374">
              <path
                 id="path1384"
                 style="fill:url(#linearGradient1382);stroke:none"
                 d="m 836.156,172.205 c -0.619,-0.636 -1.247,-1.264 -1.884,-1.884 v 0 c -0.207,-0.202 -0.219,-0.352 -0.005,-0.561 v 0 c 1.08,-1.057 2.149,-2.124 3.223,-3.188 v 0 c 0.645,0.432 1.3,0.85 1.932,1.301 v 0 c 0.307,0.219 0.777,0.208 0.926,0.648 v 0 c -1.211,1.22 -2.426,2.437 -3.632,3.663 v 0 c -0.104,0.107 -0.197,0.169 -0.293,0.169 v 0 c -0.082,0 -0.168,-0.046 -0.267,-0.148" />
            </g>
          </g>
        </g>
      </g>
      <g
         id="g1386">
        <g
           id="g1388">
          <g
             id="g1394">
            <g
               id="g1396">
              <path
                 id="path1406"
                 style="fill:url(#linearGradient1404);stroke:none"
                 d="m 866.025,149.8 c -0.986,-1.336 -1.979,-2.667 -2.969,-4 v 0 c 0.854,-0.748 1.771,-1.397 2.835,-1.819 v 0 c 0.93,1.238 1.858,2.477 2.794,3.71 v 0 c 0.164,0.218 0.279,0.381 -0.021,0.597 v 0 c -0.722,0.514 -1.43,1.05 -2.133,1.592 v 0 c -0.093,0.072 -0.17,0.106 -0.239,0.106 v 0 c -0.096,0 -0.178,-0.065 -0.267,-0.186" />
            </g>
          </g>
        </g>
      </g>
      <g
         id="g1408">
        <g
           id="g1410">
          <g
             id="g1416">
            <g
               id="g1418">
              <path
                 id="path1428"
                 style="fill:url(#linearGradient1426);stroke:none"
                 d="m 881.704,122.384 c 1.052,-1.059 2.109,-2.113 3.152,-3.182 v 0 c 0.217,-0.224 0.359,-0.25 0.587,-0.011 v 0 c 0.6,0.631 1.217,1.243 1.842,1.847 v 0 c 0.21,0.202 0.221,0.336 0.006,0.547 v 0 c -1.228,1.204 -2.443,2.42 -3.664,3.632 v 0 c -0.646,-0.941 -1.204,-1.941 -1.923,-2.833" />
            </g>
          </g>
        </g>
      </g>
      <g
         id="g1430">
        <g
           id="g1432">
          <g
             id="g1438">
            <g
               id="g1440">
              <path
                 id="path1450"
                 style="fill:url(#linearGradient1448);stroke:none"
                 d="m 834.613,135.394 c -0.264,-0.173 -0.319,-0.293 -0.124,-0.569 v 0 c 0.492,-0.695 0.962,-1.406 1.417,-2.125 v 0 c 0.197,-0.315 0.353,-0.339 0.666,-0.125 v 0 c 1.278,0.879 2.577,1.727 3.869,2.587 v 0 c 0,0.493 -0.365,0.813 -0.619,1.16 v 0 c -0.415,0.569 -0.614,1.284 -1.189,1.741 v 0 c -1.338,-0.891 -2.672,-1.79 -4.02,-2.669" />
            </g>
          </g>
        </g>
      </g>
      <g
         id="g1452">
        <g
           id="g1454">
          <g
             id="g1460">
            <g
               id="g1462">
              <path
                 id="path1472"
                 style="fill:url(#linearGradient1470);stroke:none"
                 d="m 861.496,159.127 c -1.362,-0.377 -2.743,-0.679 -4.116,-1.01 v 0 c 0,-0.206 0,-0.412 0,-0.618 v 0 c 0.004,-0.965 0.063,-1.923 0.348,-2.854 v 0 c 1.554,0.386 3.106,0.78 4.664,1.153 v 0 c 0.391,0.094 0.525,0.253 0.405,0.666 v 0 c -0.211,0.724 -0.385,1.458 -0.543,2.194 v 0 c -0.074,0.344 -0.18,0.519 -0.455,0.519 v 0 c -0.083,0 -0.183,-0.017 -0.303,-0.05" />
            </g>
          </g>
        </g>
      </g>
      <g
         id="g1474">
        <g
           id="g1476">
          <g
             id="g1482">
            <g
               id="g1484">
              <path
                 id="path1494"
                 style="fill:url(#linearGradient1492);stroke:none"
                 d="m 854.05,171.883 c -0.851,-1.316 -1.725,-2.618 -2.59,-3.925 v 0 c 0.511,-0.38 1.028,-0.753 1.533,-1.142 v 0 c 0.396,-0.306 0.714,-0.714 1.192,-0.913 v 0 c 0.888,1.338 1.768,2.681 2.673,4.008 v 0 c 0.192,0.283 0.197,0.437 -0.103,0.628 v 0 c -0.734,0.465 -1.459,0.946 -2.173,1.44 v 0 c -0.106,0.074 -0.189,0.115 -0.263,0.115 v 0 c -0.094,0 -0.174,-0.065 -0.269,-0.211" />
            </g>
          </g>
        </g>
      </g>
      <g
         id="g1496">
        <g
           id="g1498">
          <g
             id="g1504">
            <g
               id="g1506">
              <path
                 id="path1516"
                 style="fill:url(#linearGradient1514);stroke:none"
                 d="m 855.952,117.016 c -0.109,-0.259 -0.093,-0.385 0.2,-0.495 v 0 c 0.793,-0.296 1.582,-0.608 2.353,-0.957 v 0 c 0.39,-0.177 0.522,-0.035 0.655,0.303 v 0 c 0.572,1.454 1.163,2.902 1.748,4.35 v 0 c -1.097,0.283 -2.129,0.742 -3.185,1.137 v 0 c -0.588,-1.446 -1.172,-2.894 -1.771,-4.338" />
            </g>
          </g>
        </g>
      </g>
      <g
         id="g1518">
        <g
           id="g1520">
          <g
             id="g1526">
            <g
               id="g1528">
              <path
                 id="path1538"
                 style="fill:url(#linearGradient1536);stroke:none"
                 d="m 884.996,141.7 c -1.309,-0.901 -2.638,-1.772 -3.96,-2.652 v 0 c 0.037,-0.084 0.053,-0.188 0.113,-0.245 v 0 c 0.765,-0.719 1.347,-1.58 1.92,-2.449 v 0 c 1.309,0.867 2.611,1.743 3.93,2.592 v 0 c 0.286,0.184 0.22,0.311 0.069,0.529 v 0 c -0.473,0.684 -0.947,1.369 -1.381,2.079 v 0 c -0.12,0.197 -0.221,0.292 -0.35,0.292 v 0 c -0.093,0 -0.201,-0.05 -0.341,-0.146" />
            </g>
          </g>
        </g>
      </g>
      <g
         id="g1540">
        <g
           id="g1542">
          <g
             id="g1548">
            <g
               id="g1550">
              <path
                 id="path1560"
                 style="fill:url(#linearGradient1558);stroke:none"
                 d="m 844.536,125.01 c -0.238,-0.229 -0.218,-0.37 0.009,-0.588 v 0 c 0.627,-0.6 1.24,-1.214 1.843,-1.84 v 0 c 0.209,-0.217 0.343,-0.203 0.545,0.006 v 0 c 0.975,1 1.963,1.986 2.947,2.977 v 0 c -0.01,0.117 -0.054,0.212 -0.152,0.287 v 0 c -0.82,0.619 -1.637,1.242 -2.455,1.863 v 0 c -0.91,-0.903 -1.815,-1.814 -2.737,-2.705" />
            </g>
          </g>
        </g>
      </g>
      <g
         id="g1562">
        <g
           id="g1564">
          <g
             id="g1570">
            <g
               id="g1572">
              <path
                 id="path1582"
                 style="fill:url(#linearGradient1580);stroke:none"
                 d="m 887.6,132.036 c -1.019,-0.018 -2.039,-0.007 -3.058,-0.007 v 0 c 0.186,-1.129 0.186,-2.26 0,-3.389 v 0 c 1.019,0 2.039,0.01 3.058,-0.008 v 0 c 0.325,-0.005 0.473,0.055 0.461,0.429 v 0 c -0.029,0.849 -0.029,1.699 0,2.548 v 0 c 0.012,0.358 -0.125,0.428 -0.425,0.428 v 0 c -0.012,0 -0.024,-0.001 -0.036,-0.001" />
            </g>
          </g>
        </g>
      </g>
      <g
         id="g1584">
        <g
           id="g1586">
          <g
             id="g1592">
            <g
               id="g1594">
              <path
                 id="path1604"
                 style="fill:url(#linearGradient1602);stroke:none"
                 d="m 872.155,118.395 c -0.375,0.009 -0.751,0.018 -1.125,0.006 v 0 c -0.002,-0.981 0.009,-1.963 -0.009,-2.944 v 0 c -0.007,-0.325 0.054,-0.474 0.427,-0.461 v 0 c 0.849,0.029 1.7,0.029 2.548,0 v 0 c 0.373,-0.013 0.432,0.136 0.428,0.461 v 0 c -0.018,1.018 -0.007,2.038 -0.007,3.058 v 0 c -0.751,-0.156 -1.506,-0.138 -2.262,-0.12" />
            </g>
          </g>
        </g>
      </g>
      <g
         id="g1606">
        <g
           id="g1608">
          <g
             id="g1614">
            <g
               id="g1616">
              <path
                 id="path1628"
                 style="fill:url(#linearGradient1626);stroke:none"
                 d="m 843.835,165.978 c -4.048,-0.824 -6.906,-4.331 -6.903,-8.473 v 0 c 0.002,-2.082 0.201,-4.147 0.566,-6.195 v 0 c 0.825,-4.636 2.524,-8.927 5.039,-12.905 v 0 c 1.401,-2.217 3.103,-4.189 4.862,-6.118 v 0 l 0.053,-0.007 c 0,0 0.054,0.002 0.054,0.001 v 0 c 0.764,-0.705 1.498,-1.447 2.297,-2.11 v 0 c 3.216,-2.66 6.767,-4.754 10.698,-6.177 v 0 c 2.505,-0.907 5.078,-1.538 7.731,-1.856 v 0 c 1.088,-0.131 2.181,-0.159 3.269,-0.259 v 0 c 2.271,-0.209 4.383,0.221 6.212,1.599 v 0 c 2.561,1.93 3.718,4.521 3.433,7.747 v 0 c -0.304,3.416 -2.901,6.456 -6.202,7.308 v 0 c -1.412,0.366 -2.851,0.255 -4.272,0.425 v 0 c -1.981,0.236 -3.878,0.748 -5.698,1.563 v 0 c -2.078,0.93 -3.876,2.264 -5.541,3.792 v 0 c -0.003,0.037 -0.006,0.072 -0.01,0.108 v 0 c -0.947,0.954 -1.786,1.994 -2.504,3.135 v 0 c -1.314,2.086 -2.191,4.333 -2.64,6.764 v 0 c -0.274,1.475 -0.221,2.97 -0.406,4.449 v 0 c -0.526,4.215 -4.305,7.37 -8.432,7.371 v 0 c -0.532,0 -1.069,-0.053 -1.606,-0.162 m 1.588,-13.463 c -2.927,0.016 -5.084,2.209 -5.059,5.133 v 0 c 0.025,2.905 2.185,5.044 5.092,5.043 v 0 c 2.923,-0.001 5.003,-2.178 5.112,-5.104 v 0 c -0.127,-2.912 -2.204,-5.072 -5.109,-5.072 v 0 c -0.012,0 -0.024,0 -0.036,0 m -0.224,-7.324 c -0.644,0.639 -1.277,1.288 -1.93,1.919 v 0 c -0.225,0.218 -0.176,0.361 0.023,0.555 v 0 c 0.635,0.62 1.265,1.247 1.884,1.886 v 0 c 0.207,0.213 0.351,0.21 0.556,-0.003 v 0 c 0.617,-0.637 1.251,-1.26 1.883,-1.886 v 0 c 0.162,-0.16 0.28,-0.295 0.059,-0.513 v 0 c -0.676,-0.66 -1.339,-1.334 -2.009,-2 v 0 c -0.053,-0.051 -0.117,-0.091 -0.16,-0.124 v 0 c -0.008,0 -0.016,-0.001 -0.023,-0.001 v 0 c -0.142,0 -0.209,0.092 -0.283,0.167 m 6.749,-1.649 c -0.587,0.616 -1.189,1.217 -1.804,1.804 v 0 c -0.242,0.233 -0.278,0.39 -0.015,0.64 v 0 c 0.631,0.598 1.236,1.223 1.85,1.84 v 0 c 0.154,0.155 0.288,0.303 0.51,0.075 v 0 c 0.662,-0.675 1.337,-1.339 2.003,-2.009 v 0 c 0.062,-0.063 0.107,-0.145 0.168,-0.23 v 0 c -0.089,-0.106 -0.156,-0.196 -0.234,-0.275 v 0 c -0.613,-0.617 -1.24,-1.22 -1.839,-1.851 v 0 c -0.119,-0.125 -0.218,-0.186 -0.316,-0.186 v 0 c -0.101,0 -0.202,0.066 -0.323,0.192 m 8.569,-8.551 c -0.629,0.626 -1.25,1.26 -1.887,1.877 v 0 c -0.205,0.199 -0.235,0.341 -0.014,0.554 v 0 c 0.639,0.616 1.263,1.246 1.883,1.881 v 0 c 0.187,0.192 0.329,0.267 0.553,0.035 v 0 c 0.629,-0.652 1.276,-1.287 1.919,-1.926 v 0 c 0.148,-0.147 0.251,-0.274 0.054,-0.468 v 0 c -0.686,-0.675 -1.363,-1.36 -2.045,-2.038 v 0 c -0.052,-0.051 -0.12,-0.082 -0.198,-0.136 v 0 c -0.098,0.081 -0.188,0.144 -0.265,0.221 m -8.494,-0.042 c -1.025,0.884 -1.031,0.876 -0.073,1.834 v 0 c 0.281,0.281 0.561,0.561 0.841,0.842 v 0 c 0.726,0.725 0.726,0.726 1.468,-0.022 v 0 c 0.133,-0.133 0.258,-0.271 0.362,-0.381 v 0 c 0.012,-0.177 -0.088,-0.247 -0.165,-0.325 v 0 c -0.64,-0.642 -1.286,-1.278 -1.92,-1.925 v 0 c -0.095,-0.097 -0.174,-0.15 -0.26,-0.15 v 0 c -0.074,0 -0.154,0.04 -0.253,0.127 m 15.612,-4.565 c 0.029,2.909 2.207,5.05 5.108,5.038 v 0 c 2.93,-0.012 5.094,-2.217 5.066,-5.137 v 0 c -0.029,-2.909 -2.206,-4.959 -5.108,-5.063 v 0 c -2.929,0.126 -5.096,2.243 -5.066,5.162 m -5.421,-2.212 c -0.617,0.636 -1.245,1.263 -1.882,1.882 v 0 c -0.206,0.2 -0.228,0.342 -0.009,0.552 v 0 c 0.65,0.63 1.286,1.278 1.925,1.919 v 0 c 0.127,0.126 0.248,0.247 0.425,0.068 v 0 c 0.693,-0.694 1.388,-1.387 2.081,-2.083 v 0 c 0.049,-0.05 0.076,-0.123 0.12,-0.195 v 0 c -0.071,-0.087 -0.124,-0.162 -0.189,-0.228 v 0 c -0.639,-0.642 -1.288,-1.275 -1.917,-1.927 v 0 c -0.102,-0.105 -0.187,-0.154 -0.271,-0.154 v 0 c -0.09,0 -0.179,0.058 -0.283,0.166" />
            </g>
          </g>
        </g>
      </g>
      <g
         id="g1630">
        <g
           id="g1632">
          <g
             id="g1638">
            <g
               id="g1640">
              <path
                 id="path1650"
                 style="fill:url(#linearGradient1648);stroke:none"
                 d="m 867.613,166.194 c 0.076,-1.796 1.569,-3.198 3.436,-3.254 v 0 c 1.848,-0.055 3.477,-0.642 4.753,-2.04 v 0 c 0.034,0 0.067,-0.001 0.101,-0.003 v 0 c 1.246,-1.335 1.885,-2.894 1.953,-4.743 v 0 c 0.083,-2.262 1.922,-3.669 3.997,-3.335 v 0 c 1.286,0.207 2.519,1.418 2.692,2.715 v 0 c 0.18,1.349 -0.031,2.666 -0.363,3.961 v 0 c -0.621,2.427 -1.802,4.544 -3.62,6.288 v 0 c 0,0.037 -0.003,0.073 -0.007,0.11 v 0 c -0.345,0.293 -0.682,0.596 -1.038,0.877 v 0 c -2.492,1.959 -5.328,2.965 -8.498,2.983 v 0 c -0.006,0 -0.013,0 -0.019,0 v 0 c -1.935,0 -3.467,-1.639 -3.387,-3.559" />
            </g>
          </g>
        </g>
      </g>
      <g
         id="g1652">
        <g
           id="g1654">
          <g
             id="g1660">
            <g
               id="g1662">
              <path
                 id="path1672"
                 style="fill:url(#linearGradient1670);stroke:none"
                 d="m 867.635,130.384 c -0.03,-2.92 2.137,-5.036 5.066,-5.162 v 0 c 2.902,0.104 5.079,2.154 5.109,5.063 v 0 c 0.027,2.92 -2.137,5.125 -5.067,5.137 v 0 c -0.007,0 -0.015,0 -0.023,0 v 0 c -2.89,0 -5.056,-2.137 -5.085,-5.038" />
            </g>
          </g>
        </g>
      </g>
      <g
         id="g1674">
        <g
           id="g1676">
          <g
             id="g1682">
            <g
               id="g1684">
              <path
                 id="path1694"
                 style="fill:url(#linearGradient1692);stroke:none"
                 d="m 840.364,157.648 c -0.025,-2.924 2.132,-5.117 5.059,-5.133 v 0 c 2.924,-0.018 5.018,2.148 5.145,5.072 v 0 c -0.109,2.926 -2.189,5.103 -5.112,5.104 v 0 c -2.907,0.001 -5.067,-2.138 -5.092,-5.043" />
            </g>
          </g>
        </g>
      </g>
      <g
         id="g1696">
        <g
           id="g1698">
          <g
             id="g1704">
            <g
               id="g1706">
              <path
                 id="path1716"
                 style="fill:url(#linearGradient1714);stroke:none"
                 d="m 842.997,147.553 c -0.013,-1.409 1.028,-2.467 2.44,-2.476 v 0 c 1.411,-0.009 2.421,1.036 2.482,2.446 v 0 c -0.052,1.412 -1.057,2.462 -2.467,2.464 v 0 c -1.4,0 -2.443,-1.033 -2.455,-2.434" />
            </g>
          </g>
        </g>
      </g>
      <g
         id="g1718">
        <g
           id="g1720">
          <g
             id="g1726">
            <g
               id="g1728">
              <path
                 id="path1738"
                 style="fill:url(#linearGradient1736);stroke:none"
                 d="m 849.843,145.705 c -0.013,-1.409 1.028,-2.466 2.44,-2.475 v 0 c 1.41,-0.009 2.42,1.036 2.481,2.446 v 0 c -0.052,1.411 -1.055,2.462 -2.466,2.463 v 0 c -1.4,0 -2.442,-1.032 -2.455,-2.434" />
            </g>
          </g>
        </g>
      </g>
      <g
         id="g1740">
        <g
           id="g1742">
          <g
             id="g1748">
            <g
               id="g1750">
              <path
                 id="path1760"
                 style="fill:url(#linearGradient1758);stroke:none"
                 d="m 850.472,136.516 c -0.013,-1.411 1.028,-2.468 2.439,-2.477 v 0 c 1.411,-0.007 2.421,1.037 2.482,2.448 v 0 c -0.052,1.41 -1.056,2.461 -2.467,2.461 v 0 c -1.401,0.001 -2.441,-1.031 -2.454,-2.432" />
            </g>
          </g>
        </g>
      </g>
      <g
         id="g1762">
        <g
           id="g1764">
          <g
             id="g1770">
            <g
               id="g1772">
              <path
                 id="path1782"
                 style="fill:url(#linearGradient1780);stroke:none"
                 d="m 858.338,137.147 c -0.012,-1.409 1.028,-2.467 2.439,-2.476 v 0 c 1.411,-0.008 2.421,1.037 2.482,2.448 v 0 c -0.052,1.411 -1.056,2.461 -2.466,2.462 v 0 c -1.4,0 -2.442,-1.032 -2.455,-2.434" />
            </g>
          </g>
        </g>
      </g>
      <g
         id="g1784">
        <g
           id="g1786">
          <g
             id="g1792">
            <g
               id="g1794">
              <path
                 id="path1804"
                 style="fill:url(#linearGradient1802);stroke:none"
                 d="m 860.061,130.343 c -0.013,-1.409 1.028,-2.467 2.439,-2.475 v 0 c 1.411,-0.009 2.421,1.036 2.481,2.447 v 0 c -0.052,1.411 -1.055,2.461 -2.465,2.461 v 0 c -1.401,0 -2.444,-1.03 -2.455,-2.433" />
            </g>
          </g>
        </g>
      </g>
    </g>
  </g>
</svg>
