<?xml version="1.0" encoding="UTF-8" standalone="no"?>
<svg
   xmlns:dc="http://purl.org/dc/elements/1.1/"
   xmlns:cc="http://creativecommons.org/ns#"
   xmlns:rdf="http://www.w3.org/1999/02/22-rdf-syntax-ns#"
   xmlns:svg="http://www.w3.org/2000/svg"
   xmlns="http://www.w3.org/2000/svg"
   xmlns:sodipodi="http://sodipodi.sourceforge.net/DTD/sodipodi-0.dtd"
   xmlns:inkscape="http://www.inkscape.org/namespaces/inkscape"
   sodipodi:docname="download.svg"
   inkscape:version="1.0 (6e3e5246a0, 2020-05-07)"
   id="svg17176"
   version="1.1"
   viewBox="0 0 15.176852 20.515085"
   height="20.515085mm"
   width="15.176852mm">
  <defs
     id="defs17170">
    <linearGradient
       id="linearGradient8305"
       spreadMethod="pad"
       gradientTransform="matrix(-52.807255,-27.168949,-27.168949,52.807255,679.59979,830.29053)"
       gradientUnits="userSpaceOnUse"
       y2="0"
       x2="1"
       y1="0"
       x1="0">
      <stop
         id="stop8299"
         offset="0"
         style="stop-opacity:1;stop-color:#63d7c2" />
      <stop
         id="stop8301"
         offset="0.67807152"
         style="stop-opacity:1;stop-color:#63d7c2" />
      <stop
         id="stop8303"
         offset="1"
         style="stop-opacity:1;stop-color:#1e0757" />
    </linearGradient>
    <linearGradient
       id="linearGradient8327"
       spreadMethod="pad"
       gradientTransform="matrix(43.964767,-2.2522933,-2.2522933,-43.964767,629.63129,785.39319)"
       gradientUnits="userSpaceOnUse"
       y2="0"
       x2="1"
       y1="0"
       x1="0">
      <stop
         id="stop8321"
         offset="0"
         style="stop-opacity:1;stop-color:#f6d348" />
      <stop
         id="stop8323"
         offset="0.03027482"
         style="stop-opacity:1;stop-color:#f6d348" />
      <stop
         id="stop8325"
         offset="1"
         style="stop-opacity:1;stop-color:#f263bd" />
    </linearGradient>
  </defs>
  <sodipodi:namedview
     inkscape:window-maximized="0"
     inkscape:window-y="27"
     inkscape:window-x="122"
     inkscape:window-height="1016"
     inkscape:window-width="1428"
     showgrid="false"
     inkscape:document-rotation="0"
     inkscape:current-layer="layer1"
     inkscape:document-units="mm"
     inkscape:cy="130.19724"
     inkscape:cx="411.53782"
     inkscape:zoom="0.35"
     inkscape:pageshadow="2"
     inkscape:pageopacity="0.0"
     borderopacity="1.0"
     bordercolor="#666666"
     pagecolor="#ffffff"
     id="base" />
  <metadata
     id="metadata17173">
    <rdf:RDF>
      <cc:Work
         rdf:about="">
        <dc:format>image/svg+xml</dc:format>
        <dc:type
           rdf:resource="http://purl.org/dc/dcmitype/StillImage" />
        <dc:title></dc:title>
      </cc:Work>
    </rdf:RDF>
  </metadata>
  <g
     transform="translate(3.0527138,-113.71865)"
     id="layer1"
     inkscape:groupmode="layer"
     inkscape:label="Layer 1">
    <g
       transform="matrix(0.35277777,0,0,-0.35277777,-225.31047,410.20649)"
       id="g13657">
      <g
         id="g8287">
        <g
           id="g8289">
          <g
             id="g8295">
            <g
               id="g8297">
              <path
                 d="m 649.561,840.028 c -2.052,-1.578 -2.943,-3.695 -2.796,-6.677 v 0 c 0.194,-3.879 0.048,-7.781 0.048,-11.674 v 0 -11.646 c -1.498,1.838 -2.85,3.853 -4.406,5.623 v 0 c -1.864,2.118 -5.671,2.401 -7.243,0.67 v 0 c -1.879,-2.07 -1.927,-5.954 0.167,-8.505 v 0 c 4.153,-5.06 8.407,-10.012 12.691,-14.922 v 0 c 1.851,-2.119 4.892,-2.302 6.704,-0.259 v 0 c 4.448,5.018 8.805,10.154 13.101,15.353 v 0 c 1.631,1.974 1.875,4.614 0.928,7.014 v 0 c -0.87,2.199 -3.154,2.665 -4.738,2.355 v 0 c -1.462,-0.285 -2.632,-0.69 -3.596,-1.929 v 0 c -1.199,-1.541 -2.855,-4.109 -4.051,-5.653 v 0 c -0.048,8.084 -0.264,16.25 -0.103,23.575 v 0 c 0.068,3.019 -0.774,5.161 -2.893,6.745 v 0 c -0.68,0.235 -1.278,0.34 -1.843,0.34 v 0 c -0.675,0 -1.304,-0.151 -1.97,-0.41"
                 style="fill:url(#linearGradient8305);stroke:none"
                 id="path8307" />
            </g>
          </g>
        </g>
      </g>
      <g
         id="g8309">
        <g
           id="g8311">
          <g
             id="g8317">
            <g
               id="g8319">
              <path
                 d="m 631.587,786.257 c -0.861,0 -1.565,-0.703 -1.565,-1.563 v 0 -0.844 c 0,-0.861 0.704,-1.565 1.565,-1.565 v 0 h 39.891 c 0.861,0 1.565,0.704 1.565,1.565 v 0 0.844 c 0,0.86 -0.704,1.563 -1.565,1.563 v 0 z"
                 style="fill:url(#linearGradient8327);stroke:none"
                 id="path8329" />
            </g>
          </g>
        </g>
      </g>
    </g>
  </g>
</svg>
