<?xml version="1.0" encoding="UTF-8" standalone="no"?>
<svg
   xmlns:dc="http://purl.org/dc/elements/1.1/"
   xmlns:cc="http://creativecommons.org/ns#"
   xmlns:rdf="http://www.w3.org/1999/02/22-rdf-syntax-ns#"
   xmlns:svg="http://www.w3.org/2000/svg"
   xmlns="http://www.w3.org/2000/svg"
   xmlns:sodipodi="http://sodipodi.sourceforge.net/DTD/sodipodi-0.dtd"
   xmlns:inkscape="http://www.inkscape.org/namespaces/inkscape"
   sodipodi:docname="flipflops.svg"
   inkscape:version="1.0 (6e3e5246a0, 2020-05-07)"
   id="svg16980"
   version="1.1"
   viewBox="0 0 29.253675 31.217239"
   height="31.217239mm"
   width="29.253675mm">
  <defs
     id="defs16974">
    <linearGradient
       x1="0"
       y1="0"
       x2="1"
       y2="0"
       gradientUnits="userSpaceOnUse"
       gradientTransform="matrix(30.51708,0,0,-30.51708,1242.5085,454.09979)"
       spreadMethod="pad"
       id="linearGradient7742">
      <stop
         style="stop-opacity:1;stop-color:#63d7c2"
         offset="0"
         id="stop7736" />
      <stop
         style="stop-opacity:1;stop-color:#63d7c2"
         offset="0.67807152"
         id="stop7738" />
      <stop
         style="stop-opacity:1;stop-color:#1e0757"
         offset="1"
         id="stop7740" />
    </linearGradient>
    <linearGradient
       x1="0"
       y1="0"
       x2="1"
       y2="0"
       gradientUnits="userSpaceOnUse"
       gradientTransform="matrix(30.522181,0,0,-30.522181,1278.928,454.08719)"
       spreadMethod="pad"
       id="linearGradient7764">
      <stop
         style="stop-opacity:1;stop-color:#63d7c2"
         offset="0"
         id="stop7758" />
      <stop
         style="stop-opacity:1;stop-color:#63d7c2"
         offset="0.67807152"
         id="stop7760" />
      <stop
         style="stop-opacity:1;stop-color:#1e0757"
         offset="1"
         id="stop7762" />
    </linearGradient>
    <linearGradient
       x1="0"
       y1="0"
       x2="1"
       y2="0"
       gradientUnits="userSpaceOnUse"
       gradientTransform="matrix(22.705051,0,0,-22.705051,1294.7305,451.78555)"
       spreadMethod="pad"
       id="linearGradient7786">
      <stop
         style="stop-opacity:1;stop-color:#63d7c2"
         offset="0"
         id="stop7780" />
      <stop
         style="stop-opacity:1;stop-color:#63d7c2"
         offset="0.67807152"
         id="stop7782" />
      <stop
         style="stop-opacity:1;stop-color:#1e0757"
         offset="1"
         id="stop7784" />
    </linearGradient>
    <linearGradient
       x1="0"
       y1="0"
       x2="1"
       y2="0"
       gradientUnits="userSpaceOnUse"
       gradientTransform="matrix(22.733431,0,0,-22.733431,1234.511,451.78754)"
       spreadMethod="pad"
       id="linearGradient7808">
      <stop
         style="stop-opacity:1;stop-color:#63d7c2"
         offset="0"
         id="stop7802" />
      <stop
         style="stop-opacity:1;stop-color:#63d7c2"
         offset="0.67807152"
         id="stop7804" />
      <stop
         style="stop-opacity:1;stop-color:#1e0757"
         offset="1"
         id="stop7806" />
    </linearGradient>
    <linearGradient
       x1="0"
       y1="0"
       x2="1"
       y2="0"
       gradientUnits="userSpaceOnUse"
       gradientTransform="matrix(25.446424,0,0,-25.446424,1242.1134,418.21872)"
       spreadMethod="pad"
       id="linearGradient7830">
      <stop
         style="stop-opacity:1;stop-color:#63d7c2"
         offset="0"
         id="stop7824" />
      <stop
         style="stop-opacity:1;stop-color:#63d7c2"
         offset="0.67807152"
         id="stop7826" />
      <stop
         style="stop-opacity:1;stop-color:#1e0757"
         offset="1"
         id="stop7828" />
    </linearGradient>
    <linearGradient
       x1="0"
       y1="0"
       x2="1"
       y2="0"
       gradientUnits="userSpaceOnUse"
       gradientTransform="matrix(25.521194,0,0,-25.521194,1284.3865,418.25604)"
       spreadMethod="pad"
       id="linearGradient7852">
      <stop
         style="stop-opacity:1;stop-color:#63d7c2"
         offset="0"
         id="stop7846" />
      <stop
         style="stop-opacity:1;stop-color:#63d7c2"
         offset="0.67807152"
         id="stop7848" />
      <stop
         style="stop-opacity:1;stop-color:#1e0757"
         offset="1"
         id="stop7850" />
    </linearGradient>
    <linearGradient
       x1="0"
       y1="0"
       x2="1"
       y2="0"
       gradientUnits="userSpaceOnUse"
       gradientTransform="matrix(19.103069,0,0,-19.103069,1294.1294,409.50027)"
       spreadMethod="pad"
       id="linearGradient7874">
      <stop
         style="stop-opacity:1;stop-color:#63d7c2"
         offset="0"
         id="stop7868" />
      <stop
         style="stop-opacity:1;stop-color:#63d7c2"
         offset="0.67807152"
         id="stop7870" />
      <stop
         style="stop-opacity:1;stop-color:#1e0757"
         offset="1"
         id="stop7872" />
    </linearGradient>
    <linearGradient
       x1="0"
       y1="0"
       x2="1"
       y2="0"
       gradientUnits="userSpaceOnUse"
       gradientTransform="matrix(19.126787,0,0,-19.126787,1238.6929,409.5625)"
       spreadMethod="pad"
       id="linearGradient7896">
      <stop
         style="stop-opacity:1;stop-color:#63d7c2"
         offset="0"
         id="stop7890" />
      <stop
         style="stop-opacity:1;stop-color:#63d7c2"
         offset="0.67807152"
         id="stop7892" />
      <stop
         style="stop-opacity:1;stop-color:#1e0757"
         offset="1"
         id="stop7894" />
    </linearGradient>
    <linearGradient
       x1="0"
       y1="0"
       x2="1"
       y2="0"
       gradientUnits="userSpaceOnUse"
       gradientTransform="matrix(33.641285,0,0,-33.641285,1236.8688,436.03342)"
       spreadMethod="pad"
       id="linearGradient7918">
      <stop
         style="stop-opacity:1;stop-color:#4d1f81"
         offset="0"
         id="stop7912" />
      <stop
         style="stop-opacity:1;stop-color:#f263bd"
         offset="0.32192848"
         id="stop7914" />
      <stop
         style="stop-opacity:1;stop-color:#f263bd"
         offset="1"
         id="stop7916" />
    </linearGradient>
    <linearGradient
       x1="0"
       y1="0"
       x2="1"
       y2="0"
       gradientUnits="userSpaceOnUse"
       gradientTransform="matrix(33.637268,0,0,-33.637268,1281.4352,436.02808)"
       spreadMethod="pad"
       id="linearGradient7940">
      <stop
         style="stop-opacity:1;stop-color:#4d1f81"
         offset="0"
         id="stop7934" />
      <stop
         style="stop-opacity:1;stop-color:#f263bd"
         offset="0.32192848"
         id="stop7936" />
      <stop
         style="stop-opacity:1;stop-color:#f263bd"
         offset="1"
         id="stop7938" />
    </linearGradient>
    <linearGradient
       x1="0"
       y1="0"
       x2="1"
       y2="0"
       gradientUnits="userSpaceOnUse"
       gradientTransform="matrix(9.5345898,0,0,-9.5345898,1300.7966,449.2551)"
       spreadMethod="pad"
       id="linearGradient7962">
      <stop
         style="stop-opacity:1;stop-color:#63d7c2"
         offset="0"
         id="stop7956" />
      <stop
         style="stop-opacity:1;stop-color:#63d7c2"
         offset="0.67807152"
         id="stop7958" />
      <stop
         style="stop-opacity:1;stop-color:#1e0757"
         offset="1"
         id="stop7960" />
    </linearGradient>
    <linearGradient
       x1="0"
       y1="0"
       x2="1"
       y2="0"
       gradientUnits="userSpaceOnUse"
       gradientTransform="matrix(9.5307865,0,0,-9.5307865,1241.6155,449.25354)"
       spreadMethod="pad"
       id="linearGradient7984">
      <stop
         style="stop-opacity:1;stop-color:#63d7c2"
         offset="0"
         id="stop7978" />
      <stop
         style="stop-opacity:1;stop-color:#63d7c2"
         offset="0.67807152"
         id="stop7980" />
      <stop
         style="stop-opacity:1;stop-color:#1e0757"
         offset="1"
         id="stop7982" />
    </linearGradient>
    <linearGradient
       x1="0"
       y1="0"
       x2="1"
       y2="0"
       gradientUnits="userSpaceOnUse"
       gradientTransform="matrix(13.428746,0,0,-13.428746,1244.1951,442.61392)"
       spreadMethod="pad"
       id="linearGradient8006">
      <stop
         style="stop-opacity:1;stop-color:#63d7c2"
         offset="0"
         id="stop8000" />
      <stop
         style="stop-opacity:1;stop-color:#63d7c2"
         offset="0.67807152"
         id="stop8002" />
      <stop
         style="stop-opacity:1;stop-color:#1e0757"
         offset="1"
         id="stop8004" />
    </linearGradient>
    <linearGradient
       x1="0"
       y1="0"
       x2="1"
       y2="0"
       gradientUnits="userSpaceOnUse"
       gradientTransform="matrix(13.444616,0,0,-13.444616,1294.3004,442.604)"
       spreadMethod="pad"
       id="linearGradient8028">
      <stop
         style="stop-opacity:1;stop-color:#63d7c2"
         offset="0"
         id="stop8022" />
      <stop
         style="stop-opacity:1;stop-color:#63d7c2"
         offset="0.67807152"
         id="stop8024" />
      <stop
         style="stop-opacity:1;stop-color:#1e0757"
         offset="1"
         id="stop8026" />
    </linearGradient>
  </defs>
  <sodipodi:namedview
     inkscape:window-maximized="0"
     inkscape:window-y="27"
     inkscape:window-x="492"
     inkscape:window-height="1016"
     inkscape:window-width="1428"
     showgrid="false"
     inkscape:document-rotation="0"
     inkscape:current-layer="layer1"
     inkscape:document-units="mm"
     inkscape:cy="133.27891"
     inkscape:cx="238.13966"
     inkscape:zoom="0.35"
     inkscape:pageshadow="2"
     inkscape:pageopacity="0.0"
     borderopacity="1.0"
     bordercolor="#666666"
     pagecolor="#ffffff"
     id="base" />
  <metadata
     id="metadata16977">
    <rdf:RDF>
      <cc:Work
         rdf:about="">
        <dc:format>image/svg+xml</dc:format>
        <dc:type
           rdf:resource="http://purl.org/dc/dcmitype/StillImage" />
        <dc:title></dc:title>
      </cc:Work>
    </rdf:RDF>
  </metadata>
  <g
     transform="translate(-42.825549,-112.90329)"
     id="layer1"
     inkscape:groupmode="layer"
     inkscape:label="Layer 1">
    <g
       transform="matrix(0.35277777,0,0,-0.35277777,-392.68259,279.70967)"
       id="g10125">
      <g
         id="g7724">
        <g
           id="g7726">
          <g
             id="g7732">
            <g
               id="g7734">
              <path
                 id="path7744"
                 style="fill:url(#linearGradient7742);stroke:none"
                 d="m 1255.035,472.837 c 0.01,-0.334 0.298,-0.382 0.506,-0.518 v 0 c 1.061,-0.691 1.866,-2.227 1.676,-3.186 v 0 c -0.36,-1.813 -1.396,-2.929 -2.978,-3.209 v 0 c -1.33,-0.236 -2.667,-0.205 -4.004,-0.174 v 0 c -0.715,0.016 -1.429,0.032 -2.142,0.009 v 0 c -0.521,-0.018 -1.043,-0.014 -1.565,-0.009 v 0 c -0.449,0.004 -0.899,0.008 -1.348,-0.002 v 0 c -1.588,-0.037 -2.682,-1.346 -2.672,-3.167 v 0 c 0.01,-1.669 1.216,-3.033 2.734,-3.044 v 0 c 2.314,-0.017 4.627,-0.01 6.941,-0.002 v 0 c 1.369,0.004 2.592,-0.321 3.472,-1.48 v 0 c 0.041,-0.055 0.156,-0.053 0.237,-0.077 v 0 c 0.576,0.952 0.943,2.02 1.649,2.901 v 0 c 0.997,1.243 2.217,1.626 3.278,0.998 v 0 c 0.417,-0.246 0.603,-0.445 0.253,-0.982 v 0 c -0.907,-1.39 -1.746,-2.833 -2.124,-4.483 v 0 c -0.063,-0.279 -0.103,-0.562 -0.15,-0.844 v 0 c -0.202,-1.197 0.202,-2.072 1.074,-2.972 v 0 c 4.598,-4.733 8.048,-10.183 9.805,-16.631 v 0 c 0.057,-0.207 0.043,-0.469 0.276,-0.602 v 0 c 0.646,2.411 1.345,4.81 1.824,7.265 v 0 c 1.03,5.27 1.663,10.558 0.935,15.935 v 0 c -0.861,6.364 -4.316,10.661 -10.16,13.11 v 0 c -1.428,0.598 -2.95,0.785 -4.428,1.164 v 0 z" />
            </g>
          </g>
        </g>
      </g>
      <g
         id="g7746">
        <g
           id="g7748">
          <g
             id="g7754">
            <g
               id="g7756">
              <path
                 id="path7766"
                 style="fill:url(#linearGradient7764);stroke:none"
                 d="m 1293.473,472.837 c -0.094,-0.198 -0.284,-0.152 -0.445,-0.179 v 0 c -5.081,-0.883 -9.092,-3.394 -11.791,-7.882 v 0 c -1.84,-3.059 -2.231,-6.486 -2.3,-9.948 v 0 c -0.132,-6.669 1.245,-13.117 3.038,-19.49 v 0 c 0.466,1.346 0.879,2.712 1.402,4.033 v 0 c 1.985,5.007 4.884,9.436 8.69,13.208 v 0 c 1.177,1.167 1.242,2.346 0.951,3.742 v 0 c -0.351,1.692 -1.226,3.152 -2.146,4.571 v 0 c -0.343,0.529 -0.179,0.736 0.243,0.986 v 0 c 0.829,0.492 1.878,0.358 2.69,-0.375 v 0 c 0.691,-0.624 1.154,-1.416 1.585,-2.232 v 0 c 0.227,-0.429 0.316,-0.926 0.659,-1.293 v 0 c 0.767,0.615 1.481,1.29 2.523,1.467 v 0 c 0.546,0.093 1.078,0.079 1.616,0.082 v 0 c 2.056,0.014 4.115,0.085 6.167,-0.019 v 0 c 1.645,-0.084 3.16,1.458 3.093,3.161 v 0 c -0.076,1.936 -1.169,3.083 -3.117,3.084 v 0 c -0.737,0 -1.474,-0.003 -2.211,-0.006 v 0 c -1.748,-0.005 -3.496,-0.011 -5.243,0.02 v 0 c -1.145,0.02 -2.207,0.3 -3.095,1.176 v 0 c -1.697,1.677 -1.213,4.046 0.541,5.337 v 0 c 0.22,0.161 0.564,0.183 0.582,0.557 v 0 z" />
            </g>
          </g>
        </g>
      </g>
      <g
         id="g7768">
        <g
           id="g7770">
          <g
             id="g7776">
            <g
               id="g7778">
              <path
                 id="path7788"
                 style="fill:url(#linearGradient7786);stroke:none"
                 d="m 1296.905,472.837 c -0.018,-0.374 -0.362,-0.396 -0.582,-0.557 v 0 c -1.754,-1.291 -2.238,-3.66 -0.541,-5.337 v 0 c 0.888,-0.876 1.95,-1.156 3.095,-1.176 v 0 c 1.747,-0.031 3.495,-0.025 5.243,-0.02 v 0 c 0.737,0.003 1.474,0.006 2.211,0.006 v 0 c 1.948,-10e-4 3.041,-1.148 3.117,-3.084 v 0 c 0.067,-1.703 -1.448,-3.245 -3.093,-3.161 v 0 c -2.052,0.104 -4.111,0.033 -6.167,0.019 v 0 c -0.538,-0.003 -1.07,0.011 -1.616,-0.082 v 0 c -1.042,-0.177 -1.756,-0.852 -2.523,-1.467 v 0 c 0.284,-0.902 0.579,-1.8 0.845,-2.708 v 0 c 0.081,-0.275 0.253,-0.44 0.47,-0.584 v 0 c 1.143,-0.756 2.288,-1.509 3.433,-2.264 v 0 c 2.169,0.009 4.338,0.041 6.507,0.018 v 0 c 1.476,-0.016 2.69,-1.128 2.966,-2.624 v 0 c 0.273,-1.475 -0.379,-2.783 -1.702,-3.418 v 0 c -0.226,-0.108 -0.45,-0.223 -0.676,-0.336 v 0 c 2.454,-2.877 4.519,-5.991 5.766,-9.601 v 0 c 0.535,-1.549 0.937,-3.13 1.128,-4.763 v 0 c 0.038,-0.329 0.02,-0.695 0.286,-0.963 v 0 c 0.035,0.254 0.061,0.511 0.108,0.763 v 0 c 0.696,3.683 1.64,7.317 2.014,11.063 v 0 c 0.53,5.315 0.242,10.549 -1.425,15.644 v 0 c -2.278,6.961 -6.908,11.523 -13.913,13.631 v 0 c -1.406,0.423 -2.87,0.553 -4.264,1.001 v 0 z" />
            </g>
          </g>
        </g>
      </g>
      <g
         id="g7790">
        <g
           id="g7792">
          <g
             id="g7798">
            <g
               id="g7800">
              <path
                 id="path7810"
                 style="fill:url(#linearGradient7808);stroke:none"
                 d="m 1254.521,472.837 c -1.323,-0.291 -2.66,-0.524 -3.964,-0.881 v 0 c -5.574,-1.525 -9.918,-4.683 -12.719,-9.852 v 0 c -1.59,-2.932 -2.454,-6.085 -2.921,-9.381 v 0 c -0.698,-4.919 -0.473,-9.794 0.503,-14.651 v 0 c 0.491,-2.442 0.967,-4.888 1.449,-7.334 v 0 c 0.422,0.598 0.312,1.323 0.431,1.986 v 0 c 0.894,4.981 3.243,9.214 6.493,12.996 v 0 c 0.092,0.108 0.171,0.227 0.257,0.341 v 0 c -1.009,0.486 -1.979,0.978 -2.311,2.215 v 0 c -0.57,2.122 0.896,4.159 3.07,4.168 v 0 c 2.112,0.009 4.224,-0.014 6.338,-0.023 v 0 c 1.144,0.754 2.289,1.507 3.433,2.263 v 0 c 0.218,0.144 0.385,0.311 0.466,0.586 v 0 c 0.268,0.908 0.562,1.806 0.846,2.708 v 0 c -0.081,0.024 -0.196,0.022 -0.237,0.077 v 0 c -0.88,1.159 -2.103,1.484 -3.472,1.48 v 0 c -2.314,-0.008 -4.627,-0.015 -6.941,0.002 v 0 c -1.518,0.011 -2.725,1.375 -2.734,3.044 v 0 c -0.01,1.821 1.084,3.13 2.672,3.167 v 0 c 0.449,0.01 0.899,0.006 1.349,0.002 v 0 c 0.521,-0.005 1.043,-0.009 1.564,0.009 v 0 c 0.713,0.023 1.427,0.007 2.142,-0.009 v 0 c 1.337,-0.031 2.674,-0.062 4.004,0.174 v 0 c 1.582,0.28 2.618,1.396 2.978,3.209 v 0 c 0.19,0.959 -0.615,2.495 -1.676,3.186 v 0 c -0.208,0.136 -0.5,0.184 -0.506,0.518 v 0 z" />
            </g>
          </g>
        </g>
      </g>
      <g
         id="g7812">
        <g
           id="g7814">
          <g
             id="g7820">
            <g
               id="g7822">
              <path
                 id="path7832"
                 style="fill:url(#linearGradient7830);stroke:none"
                 d="m 1255.894,451.877 c -2.364,-1.729 -4.589,-3.614 -6.54,-5.815 v 0 c 1.596,-0.001 3.198,-0.088 4.79,0.016 v 0 c 1.789,0.118 3.533,-1.633 3.479,-3.463 v 0 c -0.058,-1.926 -1.536,-3.461 -3.503,-3.467 v 0 c -3.308,-0.01 -6.617,0.002 -9.925,0.004 v 0 c -0.893,-1.425 -1.609,-2.932 -2.082,-4.554 v 0 c 0.692,-1.147 1.655,-1.715 3.04,-1.691 v 0 c 3.058,0.055 6.119,0.026 9.178,0.013 v 0 c 1.603,-0.007 3.075,-1.205 3.411,-2.728 v 0 c 0.349,-1.581 -0.509,-3.322 -2.001,-3.99 v 0 c -0.6,-0.269 -1.252,-0.364 -1.913,-0.363 v 0 c -2.031,0.004 -4.06,0.004 -6.091,10e-4 v 0 c -2.073,-0.003 -3.516,-1.437 -3.513,-3.487 v 0 c 0,-2.032 1.404,-3.449 3.455,-3.417 v 0 c 2.112,0.033 4.218,-0.068 6.326,-0.181 v 0 c 1.776,-0.096 3.104,-1.644 3.09,-3.588 v 0 c -0.013,-1.62 -1.672,-3.291 -3.354,-3.315 v 0 c -1.139,-0.017 -2.278,-0.014 -3.417,-0.01 v 0 c -0.892,0.002 -1.783,0.005 -2.674,-10e-4 v 0 c -1.504,-0.011 -3.358,-1.097 -3.645,-2.907 v 0 c -0.24,-1.517 0.604,-3.294 2.06,-3.831 v 0 c 0.587,-0.216 1.193,-0.355 1.835,-0.349 v 0 c 1.973,0.019 3.947,0.011 5.92,0.006 v 0 c 1.791,-0.003 3.514,-1.715 3.422,-3.481 v 0 c -0.108,-2.1 -1.79,-3.411 -3.413,-3.424 v 0 c -1.062,-0.01 -2.125,-0.007 -3.186,-0.005 v 0 c -1.169,0.004 -2.337,0.007 -3.504,-0.006 v 0 c -2.379,-0.027 -3.861,-2.168 -3.085,-4.411 v 0 c 0.394,-1.14 1.524,-1.965 2.748,-1.973 v 0 c 1.296,-0.008 2.593,-0.007 3.889,-0.005 v 0 c 0.677,0 1.354,0.001 2.031,0.001 v 0 c 1.675,-0.002 3.051,-1.062 3.453,-2.659 v 0 c 0.403,-1.598 -0.284,-3.086 -1.792,-3.891 v 0 c -0.199,-0.107 -0.432,-0.164 -0.558,-0.379 v 0 c 0.809,-0.265 1.644,-0.172 2.46,-0.125 v 0 c 4.218,0.24 7.607,1.913 9.597,5.851 v 0 c 1.217,2.407 1.569,5.023 1.653,7.684 v 0 c 0.168,5.352 -0.532,10.6 -1.885,15.769 v 0 c -0.9,-1.151 -1.809,-2.293 -2.694,-3.455 v 0 c -0.301,-0.396 -0.518,-0.53 -0.899,-0.064 v 0 c -0.471,0.575 -0.998,1.111 -1.54,1.621 v 0 c -0.441,0.413 -0.36,0.701 0,1.148 v 0 c 3.136,3.937 4.953,8.443 5.517,13.446 v 0 c 0.822,7.288 -1.399,13.797 -5.154,19.886 v 0 c -1.178,1.909 -2.513,3.707 -3.938,5.437 v 0 c -0.2,0.245 -0.365,0.365 -0.552,0.365 v 0 c -0.143,0 -0.298,-0.071 -0.492,-0.213" />
            </g>
          </g>
        </g>
      </g>
      <g
         id="g7834">
        <g
           id="g7836">
          <g
             id="g7842">
            <g
               id="g7844">
              <path
                 id="path7854"
                 style="fill:url(#linearGradient7852);stroke:none"
                 d="m 1295.115,451.867 c -4.273,-5.184 -7.657,-10.834 -8.887,-17.56 v 0 c -1.447,-7.913 0.344,-15.061 5.251,-21.406 v 0 c 0.312,-0.403 0.346,-0.665 0,-1.021 v 0 c -0.566,-0.569 -1.131,-1.143 -1.654,-1.752 v 0 c -0.332,-0.385 -0.525,-0.268 -0.78,0.061 v 0 c -0.911,1.179 -1.834,2.346 -2.752,3.518 v 0 c -0.984,-3.876 -1.707,-7.796 -1.85,-11.802 v 0 c -0.112,-3.19 -0.124,-6.373 0.772,-9.492 v 0 c 1.82,-6.346 7.44,-8.63 12.903,-7.888 v 0 c -0.441,0.452 -1.069,0.612 -1.521,1.086 v 0 c -1.578,1.657 -1.036,4.578 1.06,5.497 v 0 c 0.556,0.245 1.118,0.369 1.735,0.359 v 0 c 1.859,-0.028 3.717,-0.013 5.576,-0.009 v 0 c 1.598,0.003 2.941,1.154 3.091,2.638 v 0 c 0.194,1.916 -0.734,3.295 -2.503,3.588 v 0 c -1.583,0.26 -3.177,0.218 -4.771,0.176 v 0 c -0.775,-0.02 -1.551,-0.04 -2.325,-0.026 v 0 c -1.162,0.023 -2.102,0.397 -2.879,1.261 v 0 c -0.944,1.05 -1.1,2.28 -0.568,3.503 v 0 c 0.536,1.231 1.478,2.135 2.936,2.155 v 0 c 0.949,0.014 1.899,0.009 2.848,0.005 v 0 c 1.138,-0.005 2.276,-0.011 3.413,0.015 v 0 c 1.474,0.033 2.677,0.558 3.414,2.004 v 0 c 1.023,2.007 -0.119,4.277 -2.234,4.883 v 0 c -0.466,0.134 -0.94,0.197 -1.434,0.193 v 0 c -1.829,-0.02 -3.659,-0.012 -5.489,-0.008 v 0 c -1.923,0.006 -3.627,1.611 -3.618,3.401 v 0 c 0.012,2.125 1.433,3.415 3.596,3.538 v 0 c 2.109,0.118 4.217,0.117 6.327,0.152 v 0 c 1.147,0.019 2.452,1.12 2.819,2.305 v 0 c 0.445,1.442 0.017,2.976 -1.082,3.806 v 0 c -0.701,0.531 -1.467,0.824 -2.378,0.806 v 0 c -2.03,-0.041 -4.06,-0.033 -6.09,-0.005 v 0 c -1.07,0.017 -2.049,0.264 -2.862,1.101 v 0 c -1.096,1.127 -1.28,2.398 -0.785,3.801 v 0 c 0.432,1.228 1.856,2.165 3.207,2.171 v 0 c 3.002,0.011 6.004,0.038 9.006,-0.013 v 0 c 1.271,-0.021 2.298,0.305 3.02,1.405 v 0 c 0.053,0.082 0.187,0.109 0.286,0.162 v 0 c -0.555,1.638 -1.229,3.218 -2.164,4.678 v 0 c -3.308,-0.003 -6.617,-0.013 -9.924,-0.005 v 0 c -1.65,0.003 -3.244,1.333 -3.478,2.864 v 0 c -0.268,1.746 0.752,3.417 2.438,3.962 v 0 c 0.238,0.078 0.505,0.078 0.758,0.079 v 0 c 1.683,0.009 3.365,0.008 5.049,0.01 v 0 c -1.97,2.222 -4.212,4.132 -6.613,5.86 v 0 c -0.163,0.117 -0.303,0.198 -0.444,0.198 v 0 c -0.132,0 -0.265,-0.072 -0.416,-0.254" />
            </g>
          </g>
        </g>
      </g>
      <g
         id="g7856">
        <g
           id="g7858">
          <g
             id="g7864">
            <g
               id="g7866">
              <path
                 id="path7876"
                 style="fill:url(#linearGradient7874);stroke:none"
                 d="m 1309.623,434.313 c -0.722,-1.1 -1.749,-1.426 -3.02,-1.405 v 0 c -3.002,0.051 -6.004,0.024 -9.006,0.013 v 0 c -1.351,-0.006 -2.775,-0.943 -3.207,-2.171 v 0 c -0.495,-1.403 -0.311,-2.674 0.785,-3.801 v 0 c 0.813,-0.837 1.792,-1.084 2.862,-1.101 v 0 c 2.03,-0.028 4.06,-0.036 6.09,0.005 v 0 c 0.911,0.018 1.677,-0.275 2.378,-0.806 v 0 c 1.099,-0.83 1.527,-2.364 1.082,-3.806 v 0 c -0.367,-1.185 -1.672,-2.286 -2.819,-2.305 v 0 c -2.11,-0.035 -4.218,-0.034 -6.327,-0.152 v 0 c -2.163,-0.123 -3.584,-1.413 -3.596,-3.538 v 0 c -0.01,-1.79 1.695,-3.395 3.618,-3.401 v 0 c 1.83,-0.004 3.66,-0.012 5.489,0.008 v 0 c 0.494,0.004 0.968,-0.059 1.434,-0.193 v 0 c 2.115,-0.606 3.257,-2.876 2.234,-4.883 v 0 c -0.737,-1.446 -1.94,-1.971 -3.414,-2.004 v 0 c -1.137,-0.026 -2.275,-0.02 -3.413,-0.015 v 0 c -0.949,0.004 -1.899,0.009 -2.848,-0.005 v 0 c -1.458,-0.02 -2.4,-0.924 -2.936,-2.155 v 0 c -0.532,-1.223 -0.376,-2.453 0.568,-3.503 v 0 c 0.777,-0.864 1.717,-1.238 2.879,-1.261 v 0 c 0.774,-0.014 1.55,0.006 2.325,0.026 v 0 c 1.594,0.042 3.188,0.084 4.771,-0.176 v 0 c 1.769,-0.293 2.697,-1.672 2.503,-3.588 v 0 c -0.15,-1.484 -1.493,-2.635 -3.091,-2.638 v 0 c -1.859,-0.004 -3.717,-0.019 -5.576,0.009 v 0 c -0.617,0.01 -1.179,-0.114 -1.735,-0.359 v 0 c -2.096,-0.919 -2.638,-3.84 -1.06,-5.497 v 0 c 0.452,-0.474 1.08,-0.634 1.521,-1.086 v 0 c 1.516,0.013 2.998,0.337 4.483,0.572 v 0 c 3.677,0.582 6.509,2.474 8.316,5.813 v 0 c 2.292,4.235 2.533,8.816 2.197,13.474 v 0 c -0.186,2.572 -0.68,5.119 -0.491,7.72 v 0 c 0.129,1.803 0.158,3.614 0.233,5.42 v 0 c -0.751,-1.405 -1.477,-2.827 -2.263,-4.214 v 0 c -0.451,-0.799 -1.015,-1.53 -1.497,-2.311 v 0 c -0.272,-0.441 -0.495,-0.399 -0.874,-0.108 v 0 c -1.828,1.408 -1.81,1.38 -0.646,3.388 v 0 c 3.701,6.385 4.8,13.084 2.337,20.196 v 0 c -0.099,-0.053 -0.233,-0.08 -0.286,-0.162" />
            </g>
          </g>
        </g>
      </g>
      <g
         id="g7878">
        <g
           id="g7880">
          <g
             id="g7886">
            <g
               id="g7888">
              <path
                 id="path7898"
                 style="fill:url(#linearGradient7896);stroke:none"
                 d="m 1240.748,426.172 c 0.129,-4.76 1.758,-9.024 4.293,-12.972 v 0 c 0.402,-0.626 0.416,-0.965 -0.223,-1.442 v 0 c -1.68,-1.254 -1.648,-1.285 -2.824,0.491 v 0 c -0.982,1.486 -1.766,3.079 -2.528,4.686 v 0 c -0.108,0.228 -0.137,0.505 -0.394,0.639 v 0 c 0.034,-0.771 0.06,-1.542 0.104,-2.312 v 0 c 0.153,-2.699 0.331,-5.395 -0.043,-8.094 v 0 c -0.593,-4.272 -0.72,-8.537 0.468,-12.74 v 0 c 1.042,-3.689 2.945,-6.731 6.552,-8.383 v 0 c 2.431,-1.111 5.073,-1.229 7.672,-1.518 v 0 c 0.126,0.215 0.359,0.272 0.558,0.379 v 0 c 1.508,0.805 2.195,2.293 1.792,3.891 v 0 c -0.402,1.597 -1.778,2.657 -3.453,2.659 v 0 c -0.677,0 -1.354,-0.001 -2.031,-0.001 v 0 c -1.296,-0.002 -2.593,-0.003 -3.889,0.005 v 0 c -1.224,0.008 -2.354,0.833 -2.748,1.973 v 0 c -0.776,2.243 0.706,4.384 3.085,4.411 v 0 c 1.167,0.013 2.335,0.01 3.504,0.006 v 0 c 1.062,-0.002 2.124,-0.005 3.186,0.005 v 0 c 1.623,0.013 3.305,1.324 3.413,3.424 v 0 c 0.092,1.766 -1.631,3.478 -3.422,3.481 v 0 c -1.973,0.005 -3.947,0.013 -5.92,-0.006 v 0 c -0.642,-0.006 -1.248,0.133 -1.835,0.349 v 0 c -1.456,0.537 -2.3,2.314 -2.06,3.831 v 0 c 0.287,1.81 2.141,2.896 3.645,2.907 v 0 c 0.891,0.006 1.783,0.003 2.674,10e-4 v 0 c 1.139,-0.004 2.278,-0.007 3.417,0.01 v 0 c 1.682,0.024 3.341,1.695 3.354,3.315 v 0 c 0.014,1.944 -1.314,3.492 -3.09,3.588 v 0 c -2.108,0.113 -4.214,0.214 -6.326,0.181 v 0 c -2.051,-0.032 -3.453,1.385 -3.455,3.417 v 0 c 0,2.05 1.44,3.484 3.513,3.487 v 0 c 2.031,0.003 4.06,0.003 6.091,-10e-4 v 0 c 0.661,-10e-4 1.313,0.094 1.913,0.363 v 0 c 1.492,0.668 2.35,2.409 2.001,3.99 v 0 c -0.336,1.523 -1.808,2.721 -3.411,2.728 v 0 c -3.059,0.013 -6.12,0.042 -9.178,-0.013 v 0 c -1.385,-0.024 -2.348,0.544 -3.04,1.691 v 0 c -1.104,-2.702 -1.444,-5.528 -1.365,-8.426" />
            </g>
          </g>
        </g>
      </g>
      <g
         id="g7900">
        <g
           id="g7902">
          <g
             id="g7908">
            <g
               id="g7910">
              <path
                 id="path7920"
                 style="fill:url(#linearGradient7918);stroke:none"
                 d="m 1257.541,460.879 c -0.706,-0.881 -1.073,-1.949 -1.649,-2.901 v 0 c -0.284,-0.902 -0.578,-1.8 -0.846,-2.708 v 0 c -0.081,-0.275 -0.248,-0.442 -0.466,-0.586 v 0 c -1.144,-0.756 -2.289,-1.509 -3.433,-2.263 v 0 c -1.85,-1.463 -3.707,-2.916 -5.381,-4.588 v 0 c -0.581,-0.582 -1.145,-1.181 -1.716,-1.772 v 0 c -0.086,-0.114 -0.165,-0.233 -0.257,-0.341 v 0 c -3.25,-3.782 -5.599,-8.015 -6.493,-12.996 v 0 c -0.119,-0.663 -0.01,-1.388 -0.431,-1.986 v 0 c 0.37,-1.232 0.012,-2.488 0.106,-3.739 v 0 c 0.131,-1.723 0.335,-3.416 0.797,-5.074 v 0 c 0.404,-1.458 0.864,-2.9 1.3,-4.351 v 0 c 0.257,-0.134 0.286,-0.411 0.394,-0.639 v 0 c 0.762,-1.607 1.546,-3.2 2.528,-4.686 v 0 c 1.176,-1.776 1.144,-1.745 2.824,-0.491 v 0 c 0.639,0.477 0.625,0.816 0.223,1.442 v 0 c -2.535,3.948 -4.164,8.212 -4.293,12.972 v 0 c -0.079,2.898 0.261,5.724 1.365,8.426 v 0 c 0.473,1.622 1.189,3.129 2.082,4.554 v 0 c 1.378,2.562 3.142,4.832 5.159,6.91 v 0 c 1.951,2.201 4.176,4.086 6.54,5.815 v 0 c 0.446,0.326 0.69,0.28 1.044,-0.152 v 0 c 1.425,-1.73 2.76,-3.528 3.938,-5.437 v 0 c 3.755,-6.089 5.976,-12.598 5.154,-19.886 v 0 c -0.564,-5.003 -2.381,-9.509 -5.517,-13.446 v 0 c -0.356,-0.447 -0.437,-0.735 0,-1.148 v 0 c 0.542,-0.51 1.069,-1.046 1.54,-1.621 v 0 c 0.381,-0.466 0.598,-0.332 0.899,0.064 v 0 c 0.885,1.162 1.794,2.304 2.694,3.455 v 0 c 1.622,2.645 3.075,5.37 3.904,8.387 v 0 c 0.517,1.877 0.906,3.766 0.948,5.738 v 0 c 0.053,2.535 -0.156,5.037 -0.549,7.532 v 0 c -0.233,0.133 -0.219,0.395 -0.276,0.602 v 0 c -1.757,6.448 -5.207,11.898 -9.805,16.631 v 0 c -0.872,0.9 -1.276,1.775 -1.074,2.972 v 0 c 0.047,0.282 0.087,0.565 0.15,0.844 v 0 c 0.378,1.65 1.217,3.093 2.124,4.483 v 0 c 0.35,0.537 0.164,0.736 -0.253,0.982 v 0 c -0.338,0.2 -0.691,0.298 -1.048,0.298 v 0 c -0.766,0 -1.55,-0.448 -2.23,-1.296" />
            </g>
          </g>
        </g>
      </g>
      <g
         id="g7922">
        <g
           id="g7924">
          <g
             id="g7930">
            <g
               id="g7932">
              <path
                 id="path7942"
                 style="fill:url(#linearGradient7940);stroke:none"
                 d="m 1291.115,461.878 c -0.422,-0.25 -0.586,-0.457 -0.243,-0.986 v 0 c 0.92,-1.419 1.795,-2.879 2.146,-4.571 v 0 c 0.291,-1.396 0.226,-2.575 -0.951,-3.742 v 0 c -3.806,-3.772 -6.705,-8.201 -8.69,-13.208 v 0 c -0.523,-1.321 -0.936,-2.687 -1.402,-4.033 v 0 c 0,-0.259 0.043,-0.531 -0.023,-0.774 v 0 c -0.644,-2.361 -0.521,-4.776 -0.481,-7.179 v 0 c 0.044,-2.604 0.8,-5.062 1.651,-7.497 v 0 c 0.774,-2.212 2.032,-4.163 3.167,-6.181 v 0 c 0.918,-1.172 1.841,-2.339 2.752,-3.518 v 0 c 0.255,-0.329 0.448,-0.446 0.78,-0.061 v 0 c 0.523,0.609 1.088,1.183 1.654,1.752 v 0 c 0.35,0.356 0.316,0.618 0,1.021 v 0 c -4.907,6.345 -6.698,13.493 -5.251,21.406 v 0 c 1.23,6.726 4.614,12.376 8.887,17.56 v 0 c 0.312,0.376 0.544,0.282 0.86,0.056 v 0 c 2.401,-1.728 4.643,-3.638 6.613,-5.86 v 0 c 2.013,-2.08 3.779,-4.348 5.157,-6.911 v 0 c 0.935,-1.459 1.609,-3.039 2.164,-4.677 v 0 c 2.463,-7.112 1.364,-13.811 -2.337,-20.196 v 0 c -1.164,-2.008 -1.182,-1.98 0.646,-3.388 v 0 c 0.379,-0.291 0.602,-0.333 0.874,0.108 v 0 c 0.482,0.781 1.046,1.512 1.497,2.311 v 0 c 0.786,1.387 1.512,2.809 2.263,4.214 v 0 c 1.335,4.044 2.477,8.119 2.082,12.458 v 0 c -0.022,0.245 0.089,0.501 0.138,0.753 v 0 c -0.266,0.268 -0.248,0.634 -0.286,0.963 v 0 c -0.191,1.633 -0.593,3.214 -1.128,4.763 v 0 c -1.247,3.61 -3.312,6.724 -5.766,9.601 v 0 c -2.144,2.371 -4.58,4.41 -7.095,6.36 v 0 c -1.145,0.755 -2.29,1.508 -3.433,2.264 v 0 c -0.217,0.144 -0.389,0.309 -0.47,0.584 v 0 c -0.266,0.908 -0.561,1.806 -0.845,2.708 v 0 c -0.343,0.367 -0.432,0.864 -0.659,1.293 v 0 c -0.431,0.816 -0.894,1.608 -1.585,2.232 v 0 c -0.49,0.443 -1.067,0.667 -1.629,0.667 v 0 c -0.369,0 -0.733,-0.097 -1.061,-0.292" />
            </g>
          </g>
        </g>
      </g>
      <g
         id="g7944">
        <g
           id="g7946">
          <g
             id="g7952">
            <g
               id="g7954">
              <path
                 id="path7964"
                 style="fill:url(#linearGradient7962);stroke:none"
                 d="m 1300.797,452.422 c 2.515,-1.95 4.951,-3.989 7.095,-6.36 v 0 c 0.226,0.113 0.45,0.228 0.676,0.336 v 0 c 1.323,0.635 1.975,1.943 1.702,3.418 v 0 c -0.276,1.496 -1.49,2.608 -2.966,2.624 v 0 c -0.556,0.006 -1.112,0.008 -1.668,0.008 v 0 c -1.613,0 -3.226,-0.019 -4.839,-0.026" />
            </g>
          </g>
        </g>
      </g>
      <g
         id="g7966">
        <g
           id="g7968">
          <g
             id="g7974">
            <g
               id="g7976">
              <path
                 id="path7986"
                 style="fill:url(#linearGradient7984);stroke:none"
                 d="m 1244.809,452.444 c -2.174,-0.009 -3.64,-2.046 -3.07,-4.168 v 0 c 0.332,-1.237 1.302,-1.729 2.311,-2.215 v 0 c 0.571,0.591 1.135,1.19 1.716,1.772 v 0 c 1.674,1.672 3.531,3.125 5.381,4.588 v 0 c -1.783,0.008 -3.564,0.025 -5.346,0.025 v 0 c -0.33,0 -0.661,0 -0.992,-0.002" />
            </g>
          </g>
        </g>
      </g>
      <g
         id="g7988">
        <g
           id="g7990">
          <g
             id="g7996">
            <g
               id="g7998">
              <path
                 id="path8008"
                 style="fill:url(#linearGradient8006);stroke:none"
                 d="m 1254.144,446.078 c -1.592,-0.104 -3.194,-0.017 -4.79,-0.016 v 0 c -2.017,-2.078 -3.781,-4.348 -5.159,-6.91 v 0 c 3.308,-0.002 6.617,-0.014 9.925,-0.004 v 0 c 1.967,0.006 3.445,1.541 3.503,3.467 v 0 c 0.052,1.772 -1.58,3.469 -3.308,3.468 v 0 c -0.057,0 -0.114,-0.001 -0.171,-0.005" />
            </g>
          </g>
        </g>
      </g>
      <g
         id="g8010">
        <g
           id="g8012">
          <g
             id="g8018">
            <g
               id="g8020">
              <path
                 id="path8030"
                 style="fill:url(#linearGradient8028);stroke:none"
                 d="m 1297.539,446.053 c -0.253,-10e-4 -0.52,-10e-4 -0.758,-0.079 v 0 c -1.686,-0.545 -2.706,-2.216 -2.438,-3.962 v 0 c 0.234,-1.531 1.828,-2.861 3.478,-2.864 v 0 c 3.307,-0.008 6.616,0.002 9.924,0.004 v 0 c -1.378,2.563 -3.144,4.831 -5.157,6.911 v 0 c -1.684,-0.002 -3.366,-10e-4 -5.049,-0.01" />
            </g>
          </g>
        </g>
      </g>
    </g>
  </g>
</svg>
