<?xml version="1.0" encoding="UTF-8" standalone="no"?>
<svg
   xmlns:dc="http://purl.org/dc/elements/1.1/"
   xmlns:cc="http://creativecommons.org/ns#"
   xmlns:rdf="http://www.w3.org/1999/02/22-rdf-syntax-ns#"
   xmlns:svg="http://www.w3.org/2000/svg"
   xmlns="http://www.w3.org/2000/svg"
   xmlns:sodipodi="http://sodipodi.sourceforge.net/DTD/sodipodi-0.dtd"
   xmlns:inkscape="http://www.inkscape.org/namespaces/inkscape"
   sodipodi:docname="gear_multi.svg"
   inkscape:version="1.0 (6e3e5246a0, 2020-05-07)"
   id="svg17045"
   version="1.1"
   viewBox="0 0 31.951868 30.039"
   height="30.039mm"
   width="31.951868mm">
  <defs
     id="defs17039">
    <linearGradient
       id="linearGradient4125"
       spreadMethod="pad"
       gradientTransform="matrix(56.251205,-28.316935,-28.316935,-56.251205,384.95898,829.91943)"
       gradientUnits="userSpaceOnUse"
       y2="0"
       x2="1"
       y1="0"
       x1="0">
      <stop
         id="stop4119"
         offset="0"
         style="stop-opacity:1;stop-color:#4d1f81" />
      <stop
         id="stop4121"
         offset="0.32192848"
         style="stop-opacity:1;stop-color:#f263bd" />
      <stop
         id="stop4123"
         offset="1"
         style="stop-opacity:1;stop-color:#f263bd" />
    </linearGradient>
    <linearGradient
       id="linearGradient4147"
       spreadMethod="pad"
       gradientTransform="matrix(43.478367,0,0,-43.478367,439.05304,790.46881)"
       gradientUnits="userSpaceOnUse"
       y2="0"
       x2="1"
       y1="0"
       x1="0">
      <stop
         id="stop4141"
         offset="0"
         style="stop-opacity:1;stop-color:#f6d348" />
      <stop
         id="stop4143"
         offset="0.03027482"
         style="stop-opacity:1;stop-color:#f6d348" />
      <stop
         id="stop4145"
         offset="1"
         style="stop-opacity:1;stop-color:#f263bd" />
    </linearGradient>
    <linearGradient
       id="linearGradient4169"
       spreadMethod="pad"
       gradientTransform="matrix(24.49032,42.858063,42.858063,-24.49032,448.37903,817.6911)"
       gradientUnits="userSpaceOnUse"
       y2="0"
       x2="1"
       y1="0"
       x1="0">
      <stop
         id="stop4163"
         offset="0"
         style="stop-opacity:1;stop-color:#63d7c2" />
      <stop
         id="stop4165"
         offset="0.67807152"
         style="stop-opacity:1;stop-color:#63d7c2" />
      <stop
         id="stop4167"
         offset="1"
         style="stop-opacity:1;stop-color:#1e0757" />
    </linearGradient>
  </defs>
  <sodipodi:namedview
     inkscape:window-maximized="0"
     inkscape:window-y="27"
     inkscape:window-x="492"
     inkscape:window-height="1016"
     inkscape:window-width="1428"
     showgrid="false"
     inkscape:document-rotation="0"
     inkscape:current-layer="layer1"
     inkscape:document-units="mm"
     inkscape:cy="536.7666"
     inkscape:cx="-1213.9042"
     inkscape:zoom="0.35"
     inkscape:pageshadow="2"
     inkscape:pageopacity="0.0"
     borderopacity="1.0"
     bordercolor="#666666"
     pagecolor="#ffffff"
     id="base" />
  <metadata
     id="metadata17042">
    <rdf:RDF>
      <cc:Work
         rdf:about="">
        <dc:format>image/svg+xml</dc:format>
        <dc:type
           rdf:resource="http://purl.org/dc/dcmitype/StillImage" />
        <dc:title></dc:title>
      </cc:Work>
    </rdf:RDF>
  </metadata>
  <g
     transform="translate(-427.01216,-6.1471694)"
     id="layer1"
     inkscape:groupmode="layer"
     inkscape:label="Layer 1">
    <g
       transform="matrix(0.35277777,0,0,-0.35277777,288.73773,307.39716)"
       id="g13674">
      <g
         id="g4107">
        <g
           id="g4109">
          <g
             id="g4115">
            <g
               id="g4117">
              <path
                 d="m 415.187,838.695 c -1.62,-0.192 -2.137,-1.015 -2.552,-2.404 v 0 c -0.887,-2.958 -3.679,-3.903 -6.165,-2.031 v 0 c -1.196,0.901 -2.047,1.213 -3.424,0.313 v 0 c -1.378,-0.902 -1.456,-1.821 -1.063,-3.257 v 0 c 0.798,-2.917 -1.313,-5.508 -4.125,-5.006 v 0 c -1.433,0.255 -2.369,0.41 -3.167,-1.159 v 0 c -0.792,-1.557 -0.516,-2.453 0.679,-3.665 v 0 c 2.106,-2.135 1.361,-5.198 -1.481,-6.312 v 0 c -1.428,-0.561 -2.02,-1.224 -1.919,-2.821 v 0 c 0.102,-1.639 0.884,-2.174 2.331,-2.562 v 0 c 2.989,-0.803 4.097,-3.738 2.223,-6.064 v 0 c -1.081,-1.341 -1.186,-2.269 -0.248,-3.724 v 0 c 0.979,-1.52 2.025,-1.126 3.328,-0.785 v 0 c 2.837,0.742 5.197,-1.429 4.647,-4.386 v 0 c -0.287,-1.543 0.025,-2.35 1.456,-3.092 v 0 c 1.471,-0.761 2.263,-0.347 3.361,0.686 v 0 c 2.313,2.176 5.205,1.556 6.383,-1.326 v 0 c 0.56,-1.371 1.139,-2.078 2.784,-2.003 v 0 c 1.639,0.076 2.198,0.831 2.638,2.239 v 0 c 1.002,3.21 3.647,4.098 6.309,2.105 v 0 c 1.089,-0.817 1.916,-1.121 3.149,-0.31 v 0 c 1.281,0.843 1.627,1.731 1.242,3.257 v 0 c -0.78,3.087 1.067,5.221 4.233,5.003 v 0 c 1.519,-0.536 2.447,0.057 3.25,1.606 v 0 c 0.82,1.583 0.049,2.3 -0.901,3.31 v 0 c -1.821,1.939 -1.346,5.137 0.896,6.125 v 0 c 1.306,0.576 2.602,0.722 2.535,2.754 v 0 c -0.069,2.095 -1.325,2.399 -2.849,2.892 v 0 c -2.465,0.795 -3.44,3.819 -1.826,5.845 v 0 c 0.995,1.248 1.506,2.152 0.471,3.695 v 0 c -1.076,1.602 -2.165,1.232 -3.644,0.837 v 0 c -2.411,-0.644 -5.067,1.728 -4.595,4.111 v 0 c 0.307,1.543 0.496,2.593 -1.229,3.466 v 0 c -1.62,0.818 -2.464,0.385 -3.597,-0.828 v 0 c -1.848,-1.977 -5.107,-1.286 -6.159,1.237 v 0 c -0.536,1.286 -0.973,2.284 -2.488,2.284 v 0 c -0.15,0 -0.311,-0.01 -0.483,-0.03 m -12.08,-24.813 c -0.03,7.742 5.926,13.726 13.66,13.726 v 0 c 7.681,0 13.672,-6.042 13.639,-13.756 v 0 c -0.031,-7.54 -5.94,-13.465 -13.495,-13.532 v 0 c -0.045,-0.001 -0.088,-0.001 -0.133,-0.001 v 0 c -7.705,0.001 -13.641,5.876 -13.671,13.563"
                 style="fill:url(#linearGradient4125);stroke:none"
                 id="path4127" />
            </g>
          </g>
        </g>
      </g>
      <g
         id="g4129">
        <g
           id="g4131">
          <g
             id="g4137">
            <g
               id="g4139">
              <path
                 d="m 455.048,811.997 c -1.304,-0.366 -1.569,-0.983 -1.717,-2.195 v 0 c -0.387,-3.164 -2.477,-4.363 -5.295,-3.053 v 0 c -1.075,0.499 -1.794,0.764 -2.763,-0.236 v 0 c -0.947,-0.976 -1.183,-1.706 -0.578,-3.042 v 0 c 1.279,-2.825 0.012,-5 -3.107,-5.241 v 0 c -1.538,-0.12 -1.893,-0.83 -2.34,-2.04 v 0 c -0.523,-1.416 0.188,-2.022 1.206,-2.473 v 0 c 1.442,-0.64 1.81,-1.748 1.635,-3.175 v 0 c 0.175,-1.297 -0.178,-2.322 -1.458,-2.907 v 0 c -1.148,-0.524 -1.945,-1.107 -1.406,-2.697 v 0 c 0.444,-1.309 0.962,-1.806 2.409,-1.932 v 0 c 3.036,-0.264 4.23,-2.524 2.849,-5.389 v 0 c -0.581,-1.206 -0.459,-1.866 0.428,-2.735 v 0 c 0.85,-0.835 1.512,-1.083 2.743,-0.563 v 0 c 3.181,1.347 5.101,0.224 5.443,-3.169 v 0 c 0.131,-1.308 0.577,-1.791 1.788,-2.125 v 0 c 1.175,-0.325 1.822,-0.285 2.649,0.81 v 0 c 2.25,2.979 4.106,2.923 6.516,-0.145 v 0 c 0.733,-0.935 1.307,-1.067 2.358,-0.744 v 0 c 1.099,0.335 1.742,0.641 1.905,2.034 v 0 c 0.402,3.439 2.43,4.617 5.43,3.187 v 0 c 1.205,-0.574 1.866,-0.463 2.737,0.425 v 0 c 0.831,0.849 1.094,1.513 0.579,2.748 v 0 c -1.342,3.21 -0.255,5.073 3.158,5.453 v 0 c 1.313,0.146 1.763,0.626 2.122,1.817 v 0 c 0.373,1.235 0.152,1.823 -0.906,2.603 v 0 c -2.791,2.058 -2.771,4.247 0.034,6.318 v 0 c 1.038,0.767 1.26,1.364 0.91,2.609 v 0 c -0.35,1.243 -0.858,1.618 -2.133,1.763 v 0 c -3.154,0.362 -4.425,2.538 -3.194,5.289 v 0 c 0.457,1.018 0.952,1.78 -0.122,2.777 v 0 c -0.968,0.899 -1.68,1.26 -3.059,0.641 v 0 c -2.85,-1.281 -5.016,-0.015 -5.275,3.062 v 0 c -0.124,1.468 -0.643,1.964 -1.999,2.346 v 0 c -1.325,0.371 -1.852,-0.078 -2.578,-1.042 v 0 c -1.962,-2.604 -4.339,-2.663 -6.122,-0.106 v 0 c -0.594,0.852 -1.092,1.281 -1.892,1.281 v 0 c -0.277,0 -0.59,-0.051 -0.955,-0.154 m 5.649,-33.838 c -6.912,0.088 -12.368,5.668 -12.259,12.539 v 0 c 0.108,6.908 5.663,12.295 12.594,12.209 v 0 c 6.912,-0.084 12.372,-5.66 12.268,-12.529 v 0 c -0.103,-6.822 -5.617,-12.221 -12.441,-12.22 v 0 c -0.054,0 -0.109,0 -0.162,10e-4"
                 style="fill:url(#linearGradient4147);stroke:none"
                 id="path4149" />
            </g>
          </g>
        </g>
      </g>
      <g
         id="g4151">
        <g
           id="g4153">
          <g
             id="g4159">
            <g
               id="g4161">
              <path
                 d="m 454.009,852.315 c -0.982,-3.387 -2.55,-3.642 -5.482,-2.271 v 0 c -1.662,0.776 -3.316,0.035 -2.842,-2.354 v 0 c 0.582,-2.938 -0.207,-4.664 -3.513,-4.327 v 0 c -1.069,0.11 -1.475,-0.461 -1.851,-1.259 v 0 c -0.442,-0.942 -0.563,-1.761 0.46,-2.449 v 0 c 0.808,-0.543 1.464,-1.231 1.194,-2.455 v 0 c -0.058,-1.266 -0.363,-2.453 -1.927,-2.898 v 0 c -1.15,-0.327 -1.237,-1.251 -1.094,-2.28 v 0 c 0.129,-0.933 0.531,-1.458 1.528,-1.635 v 0 c 3.027,-0.538 3.414,-2.284 2.263,-4.881 v 0 c -1.064,-2.399 -0.071,-3.406 2.718,-3.101 v 0 c 2.315,0.252 3.928,-0.635 3.839,-3.209 v 0 c -0.035,-1.054 -0.059,-1.813 1.05,-2.295 v 0 c 1.101,-0.479 1.828,-0.382 2.762,0.555 v 0 c 1.886,1.89 3.764,1.706 5.086,-0.761 v 0 c 0.522,-0.975 1.159,-1.35 2.257,-1.228 v 0 c 1.137,0.127 1.575,0.685 1.8,1.783 v 0 c 0.578,2.827 2.366,3.07 4.732,2.086 v 0 c 2.473,-1.028 3.583,-0.104 3.219,2.56 v 0 c -0.324,2.37 0.568,3.964 3.089,3.883 v 0 c 1.279,-0.042 1.981,0.184 2.478,1.354 v 0 c 0.433,1.016 0.267,1.657 -0.566,2.448 v 0 c -2.019,1.916 -1.72,3.748 0.705,5.053 v 0 c 1.001,0.539 1.35,1.15 1.258,2.233 v 0 c -0.095,1.119 -0.588,1.685 -1.71,1.877 v 0 c -2.932,0.501 -3.271,2.385 -2.084,4.63 v 0 c 0.575,1.088 0.771,1.803 -10e-4,2.829 v 0 c -0.729,0.97 -1.431,0.795 -2.447,0.578 v 0 c -2.47,-0.528 -4.263,0.24 -4.051,3.146 v 0 c 0.083,1.127 -0.1,1.84 -1.138,2.247 v 0 c -0.93,0.365 -1.747,0.425 -2.555,-0.449 v 0 c -2.288,-2.469 -3.878,-1.467 -5.505,0.969 v 0 c -0.544,0.816 -1.262,1.243 -1.93,1.243 v 0 c -0.742,0 -1.424,-0.525 -1.742,-1.622 m 4.005,-28.645 c -6.11,0.035 -10.769,4.687 -10.811,10.796 v 0 c -0.043,6.31 4.647,11.014 10.953,10.986 v 0 c 6.125,-0.027 10.779,-4.658 10.828,-10.774 v 0 c 0.049,-6.254 -4.666,-11.009 -10.901,-11.008 v 0 c -0.022,0 -0.046,0 -0.069,0"
                 style="fill:url(#linearGradient4169);stroke:none"
                 id="path4171" />
            </g>
          </g>
        </g>
      </g>
    </g>
  </g>
</svg>
