<?xml version="1.0" encoding="UTF-8" standalone="no"?>
<svg
   xmlns:dc="http://purl.org/dc/elements/1.1/"
   xmlns:cc="http://creativecommons.org/ns#"
   xmlns:rdf="http://www.w3.org/1999/02/22-rdf-syntax-ns#"
   xmlns:svg="http://www.w3.org/2000/svg"
   xmlns="http://www.w3.org/2000/svg"
   xmlns:sodipodi="http://sodipodi.sourceforge.net/DTD/sodipodi-0.dtd"
   xmlns:inkscape="http://www.inkscape.org/namespaces/inkscape"
   sodipodi:docname="glasses.svg"
   inkscape:version="1.0 (6e3e5246a0, 2020-05-07)"
   id="svg13854"
   version="1.1"
   viewBox="0 0 26.627546 16.251808"
   height="16.251808mm"
   width="26.627546mm">
  <defs
     id="defs13848">
    <linearGradient
       x1="0"
       y1="0"
       x2="1"
       y2="0"
       gradientUnits="userSpaceOnUse"
       gradientTransform="matrix(75.478844,0,0,-75.478844,1458.9418,573.99384)"
       spreadMethod="pad"
       id="linearGradient3276">
      <stop
         style="stop-opacity:1;stop-color:#e35db8"
         offset="0"
         id="stop3270" />
      <stop
         style="stop-opacity:1;stop-color:#1e0757"
         offset="0.60396321"
         id="stop3272" />
      <stop
         style="stop-opacity:1;stop-color:#1e0757"
         offset="1"
         id="stop3274" />
    </linearGradient>
    <linearGradient
       x1="0"
       y1="0"
       x2="1"
       y2="0"
       gradientUnits="userSpaceOnUse"
       gradientTransform="matrix(24.202818,0,0,-24.202818,1463.639,564.69019)"
       spreadMethod="pad"
       id="linearGradient3298">
      <stop
         style="stop-opacity:1;stop-color:#f6d348"
         offset="0"
         id="stop3292" />
      <stop
         style="stop-opacity:1;stop-color:#f6d348"
         offset="0.03027482"
         id="stop3294" />
      <stop
         style="stop-opacity:1;stop-color:#f263bd"
         offset="1"
         id="stop3296" />
    </linearGradient>
    <linearGradient
       x1="0"
       y1="0"
       x2="1"
       y2="0"
       gradientUnits="userSpaceOnUse"
       gradientTransform="matrix(23.361977,0,0,-23.361977,1501.6023,566.41748)"
       spreadMethod="pad"
       id="linearGradient3320">
      <stop
         style="stop-opacity:1;stop-color:#f6d348"
         offset="0"
         id="stop3314" />
      <stop
         style="stop-opacity:1;stop-color:#f6d348"
         offset="0.03027482"
         id="stop3316" />
      <stop
         style="stop-opacity:1;stop-color:#f263bd"
         offset="1"
         id="stop3318" />
    </linearGradient>
    <linearGradient
       x1="0"
       y1="0"
       x2="1"
       y2="0"
       gradientUnits="userSpaceOnUse"
       gradientTransform="matrix(2.7603719,0,0,-2.7603719,1528.5558,572.79974)"
       spreadMethod="pad"
       id="linearGradient3342">
      <stop
         style="stop-opacity:1;stop-color:#63d7c2"
         offset="0"
         id="stop3336" />
      <stop
         style="stop-opacity:1;stop-color:#63d7c2"
         offset="0.67807152"
         id="stop3338" />
      <stop
         style="stop-opacity:1;stop-color:#1e0757"
         offset="1"
         id="stop3340" />
    </linearGradient>
    <linearGradient
       x1="0"
       y1="0"
       x2="1"
       y2="0"
       gradientUnits="userSpaceOnUse"
       gradientTransform="matrix(2.7603719,0,0,-2.7603719,1460.8787,573.46899)"
       spreadMethod="pad"
       id="linearGradient3364">
      <stop
         style="stop-opacity:1;stop-color:#63d7c2"
         offset="0"
         id="stop3358" />
      <stop
         style="stop-opacity:1;stop-color:#63d7c2"
         offset="0.67807152"
         id="stop3360" />
      <stop
         style="stop-opacity:1;stop-color:#1e0757"
         offset="1"
         id="stop3362" />
    </linearGradient>
  </defs>
  <sodipodi:namedview
     inkscape:window-maximized="0"
     inkscape:window-y="27"
     inkscape:window-x="122"
     inkscape:window-height="1016"
     inkscape:window-width="1428"
     showgrid="false"
     inkscape:document-rotation="0"
     inkscape:current-layer="layer1"
     inkscape:document-units="mm"
     inkscape:cy="30.712075"
     inkscape:cx="50.319764"
     inkscape:zoom="0.35"
     inkscape:pageshadow="2"
     inkscape:pageopacity="0.0"
     borderopacity="1.0"
     bordercolor="#666666"
     pagecolor="#ffffff"
     id="base" />
  <metadata
     id="metadata13851">
    <rdf:RDF>
      <cc:Work
         rdf:about="">
        <dc:format>image/svg+xml</dc:format>
        <dc:type
           rdf:resource="http://purl.org/dc/dcmitype/StillImage" />
        <dc:title></dc:title>
      </cc:Work>
    </rdf:RDF>
  </metadata>
  <g
     transform="translate(-92.519563,-140.04076)"
     id="layer1"
     inkscape:groupmode="layer"
     inkscape:label="Layer 1">
    <g
       transform="matrix(0.35277777,0,0,-0.35277777,-422.16239,350.65897)"
       id="g9662">
      <g
         id="g3258">
        <g
           id="g3260">
          <g
             id="g3266">
            <g
               id="g3268">
              <path
                 id="path3278"
                 style="fill:url(#linearGradient3276);stroke:none"
                 d="m 1499.107,591.505 c -0.368,-0.712 -0.772,-1.475 -0.246,-2.286 v 0 c 0.646,-0.992 1.606,-1.184 2.667,-0.883 v 0 c 2.204,0.623 4.088,1.842 5.752,3.368 v 0 c 1.617,1.483 3.271,1.598 4.946,0.276 v 0 c 4.592,-3.622 8.019,-8.172 11.667,-13.785 v 0 c -7.101,0.482 -13.013,0.452 -18.741,-1.261 v 0 c -3.795,-1.134 -7.686,-1.267 -11.505,-0.872 v 0 c -8.165,0.846 -16.128,3.367 -25.63,2.024 v 0 c 2.911,4.957 6.134,7.717 9.079,10.689 v 0 c 3.85,3.883 3.969,5.053 8.964,1.141 v 0 c 1.105,-0.864 2.497,-1.365 3.76,-2.023 v 0 c 0.986,-0.514 1.962,-0.655 2.652,0.422 v 0 c 0.586,0.913 0.606,1.931 0.077,2.894 v 0 c -2.897,5.281 -13.253,6.955 -17.653,2.676 v 0 c -5.429,-5.279 -9.926,-11.326 -13.748,-17.867 v 0 c -1.114,-0.573 -2.049,-1.296 -2.207,-2.664 v 0 c 0,0 10e-4,0 10e-4,-0.002 v 0 c 0.51,-5.955 2.955,-11.367 5.909,-16.286 v 0 c 4.844,-8.075 19.164,-8.054 24.85,-0.453 v 0 c 2.369,3.167 3.707,6.759 4.785,10.503 v 0 c 0.271,0.94 0.796,1.969 2.072,1.778 v 0 c 0.882,-0.131 1.312,-0.899 1.605,-1.681 v 0 c 1.141,-3.045 2.026,-6.184 3.757,-8.996 v 0 c 4.007,-6.508 10.148,-7.558 17.041,-6.881 v 0 c 6.114,0.602 9.303,4.41 11.129,9.857 v 0 c 1.023,3.055 1.484,6.331 3.631,8.96 v 0 c 1.029,1.26 0.895,2.727 -0.218,3.904 v 0 c -6.028,6.372 -10.256,14.201 -16.532,20.369 v 0 c -1.807,1.775 -4.479,2.602 -7.242,2.602 v 0 c -4.292,0 -8.802,-1.995 -10.622,-5.523 m -30.652,-19.501 c 4.814,1.095 9.669,1.822 14.6,1.916 v 0 c -15.742,-0.599 -19.376,-3.996 -15.382,-14.048 v 0 c -1.794,2.733 -1.883,6.374 -2.893,9.744 v 0 c 1.519,0.187 2.404,1.008 2.683,2.436 v 0 c 0.308,-0.025 0.617,-0.048 0.928,-0.048 v 0 c 0.021,0 0.043,0 0.064,0" />
            </g>
          </g>
        </g>
      </g>
      <g
         id="g3280">
        <g
           id="g3282">
          <g
             id="g3288">
            <g
               id="g3290">
              <path
                 id="path3300"
                 style="fill:url(#linearGradient3298);stroke:none"
                 d="m 1468.918,573.799 c -1.565,-0.256 -2.989,-1.056 -4.027,-2.255 v 0 c -0.01,-0.011 -0.017,-0.021 -0.027,-0.031 v 0 c -0.901,-1.042 -1.334,-2.404 -1.201,-3.775 v 0 c 0.492,-5.04 2.728,-9.701 8.514,-13.169 v 0 c -1.48,2.715 -2.34,4.216 -3.13,5.756 v 0 c -3.358,6.541 -1.368,10.707 5.85,11.742 v 0 c 4.073,0.584 8.136,1.903 12.945,-0.007 v 0 c -1.339,2.762 -3.049,2.448 -4.55,2.593 v 0 c -1.136,0.109 -2.311,0.158 -3.508,0.158 v 0 c -3.592,0 -7.378,-0.441 -10.866,-1.012" />
            </g>
          </g>
        </g>
      </g>
      <g
         id="g3302">
        <g
           id="g3304">
          <g
             id="g3310">
            <g
               id="g3312">
              <path
                 id="path3322"
                 style="fill:url(#linearGradient3320);stroke:none"
                 d="m 1514.287,575.467 c -1.491,-0.256 -2.967,-0.51 -4.459,-0.766 v 0 c -1.493,-0.113 -2.953,-0.425 -4.348,-1.212 v 0 c -1.639,-0.925 -3.065,-1.989 -3.608,-3.87 v 0 c -0.792,-2.745 0.302,-5.278 1.427,-7.58 v 0 c 1.04,-2.131 2.088,-4.72 5.67,-5.177 v 0 c -1.347,2.618 -2.63,4.637 -3.458,6.828 v 0 c -1.454,3.848 -0.492,6.061 3.313,7.73 v 0 c 1.424,0.624 2.937,1.042 4.449,1.465 v 0 c 1.286,0.36 2.612,0.545 3.948,0.545 v 0 h 7.743 c -2.467,1.604 -4.953,2.543 -7.489,2.543 v 0 c -1.054,0 -2.115,-0.162 -3.188,-0.506" />
            </g>
          </g>
        </g>
      </g>
      <g
         id="g3324">
        <g
           id="g3326">
          <g
             id="g3332">
            <g
               id="g3334">
              <path
                 id="path3344"
                 style="fill:url(#linearGradient3342);stroke:none"
                 d="m 1528.555,572.964 c 0.193,-0.231 0.348,-0.604 0.586,-0.669 v 0 c 0.756,-0.204 1.561,-0.337 2.171,0.348 v 0 c 0.041,0.044 -0.291,0.608 -0.523,0.671 v 0 c -0.316,0.089 -0.639,0.155 -0.957,0.155 v 0 c -0.443,0 -0.877,-0.128 -1.277,-0.505" />
            </g>
          </g>
        </g>
      </g>
      <g
         id="g3346">
        <g
           id="g3348">
          <g
             id="g3354">
            <g
               id="g3356">
              <path
                 id="path3366"
                 style="fill:url(#linearGradient3364);stroke:none"
                 d="m 1460.879,573.633 c 0.191,-0.23 0.347,-0.604 0.586,-0.668 v 0 c 0.756,-0.205 1.561,-0.338 2.171,0.348 v 0 c 0.038,0.044 -0.294,0.607 -0.524,0.671 v 0 c -0.317,0.088 -0.639,0.154 -0.956,0.154 v 0 c -0.443,0 -0.877,-0.128 -1.277,-0.505" />
            </g>
          </g>
        </g>
      </g>
    </g>
  </g>
</svg>
