<?xml version="1.0" encoding="UTF-8" standalone="no"?>
<svg
   xmlns:dc="http://purl.org/dc/elements/1.1/"
   xmlns:cc="http://creativecommons.org/ns#"
   xmlns:rdf="http://www.w3.org/1999/02/22-rdf-syntax-ns#"
   xmlns:svg="http://www.w3.org/2000/svg"
   xmlns="http://www.w3.org/2000/svg"
   xmlns:sodipodi="http://sodipodi.sourceforge.net/DTD/sodipodi-0.dtd"
   xmlns:inkscape="http://www.inkscape.org/namespaces/inkscape"
   sodipodi:docname="hmd.svg"
   inkscape:version="1.0 (6e3e5246a0, 2020-05-07)"
   id="svg16181"
   version="1.1"
   viewBox="0 0 33.361992 25.727533"
   height="25.727533mm"
   width="33.361992mm">
  <defs
     id="defs16175">
    <linearGradient
       id="linearGradient4257"
       spreadMethod="pad"
       gradientTransform="matrix(8.8012085,-31.378223,31.378223,8.8012085,611.38037,969.13055)"
       gradientUnits="userSpaceOnUse"
       y2="0"
       x2="1"
       y1="0"
       x1="0">
      <stop
         id="stop4251"
         offset="0"
         style="stop-opacity:1;stop-color:#f6d348" />
      <stop
         id="stop4253"
         offset="0.03027482"
         style="stop-opacity:1;stop-color:#f6d348" />
      <stop
         id="stop4255"
         offset="1"
         style="stop-opacity:1;stop-color:#f263bd" />
    </linearGradient>
    <linearGradient
       id="linearGradient4279"
       spreadMethod="pad"
       gradientTransform="matrix(6.7401118,-1.6975096,-1.6975096,-6.7401118,605.03668,920.08698)"
       gradientUnits="userSpaceOnUse"
       y2="0"
       x2="1"
       y1="0"
       x1="0">
      <stop
         id="stop4273"
         offset="0"
         style="stop-opacity:1;stop-color:#f6d348" />
      <stop
         id="stop4275"
         offset="0.03027482"
         style="stop-opacity:1;stop-color:#f6d348" />
      <stop
         id="stop4277"
         offset="1"
         style="stop-opacity:1;stop-color:#f263bd" />
    </linearGradient>
    <linearGradient
       id="linearGradient4301"
       spreadMethod="pad"
       gradientTransform="matrix(-8.8012085,-31.378223,-31.378223,8.8012085,689.422,969.13055)"
       gradientUnits="userSpaceOnUse"
       y2="0"
       x2="1"
       y1="0"
       x1="0">
      <stop
         id="stop4295"
         offset="0"
         style="stop-opacity:1;stop-color:#f6d348" />
      <stop
         id="stop4297"
         offset="0.03027482"
         style="stop-opacity:1;stop-color:#f6d348" />
      <stop
         id="stop4299"
         offset="1"
         style="stop-opacity:1;stop-color:#f263bd" />
    </linearGradient>
    <linearGradient
       id="linearGradient4323"
       spreadMethod="pad"
       gradientTransform="matrix(-6.7401118,-1.6975096,1.6975096,-6.7401118,695.76569,920.08698)"
       gradientUnits="userSpaceOnUse"
       y2="0"
       x2="1"
       y1="0"
       x1="0">
      <stop
         id="stop4317"
         offset="0"
         style="stop-opacity:1;stop-color:#f6d348" />
      <stop
         id="stop4319"
         offset="0.03027482"
         style="stop-opacity:1;stop-color:#f6d348" />
      <stop
         id="stop4321"
         offset="1"
         style="stop-opacity:1;stop-color:#f263bd" />
    </linearGradient>
    <linearGradient
       id="linearGradient4345"
       spreadMethod="pad"
       gradientTransform="matrix(-49.650299,28.699594,28.699594,49.650299,676.53284,948.35175)"
       gradientUnits="userSpaceOnUse"
       y2="0"
       x2="1"
       y1="0"
       x1="0">
      <stop
         id="stop4339"
         offset="0"
         style="stop-opacity:1;stop-color:#63d7c2" />
      <stop
         id="stop4341"
         offset="0.67807152"
         style="stop-opacity:1;stop-color:#63d7c2" />
      <stop
         id="stop4343"
         offset="1"
         style="stop-opacity:1;stop-color:#1e0757" />
    </linearGradient>
    <linearGradient
       id="linearGradient4367"
       spreadMethod="pad"
       gradientTransform="matrix(-27.077101,102.35738,102.35738,27.077101,668.49261,850.42603)"
       gradientUnits="userSpaceOnUse"
       y2="0"
       x2="1"
       y1="0"
       x1="0">
      <stop
         id="stop4361"
         offset="0"
         style="stop-opacity:1;stop-color:#63d7c2" />
      <stop
         id="stop4363"
         offset="0.67807152"
         style="stop-opacity:1;stop-color:#63d7c2" />
      <stop
         id="stop4365"
         offset="1"
         style="stop-opacity:1;stop-color:#1e0757" />
    </linearGradient>
    <linearGradient
       id="linearGradient4389"
       spreadMethod="pad"
       gradientTransform="matrix(-153.25583,-5.5485888,-5.5485888,153.25583,681.03186,919.71619)"
       gradientUnits="userSpaceOnUse"
       y2="0"
       x2="1"
       y1="0"
       x1="0">
      <stop
         id="stop4383"
         offset="0"
         style="stop-opacity:1;stop-color:#4d1f81" />
      <stop
         id="stop4385"
         offset="0.3351476"
         style="stop-opacity:1;stop-color:#f263bd" />
      <stop
         id="stop4387"
         offset="1"
         style="stop-opacity:1;stop-color:#f263bd" />
    </linearGradient>
  </defs>
  <sodipodi:namedview
     inkscape:window-maximized="0"
     inkscape:window-y="27"
     inkscape:window-x="122"
     inkscape:window-height="1016"
     inkscape:window-width="1428"
     showgrid="false"
     inkscape:document-rotation="0"
     inkscape:current-layer="layer1"
     inkscape:document-units="mm"
     inkscape:cy="354.33325"
     inkscape:cx="154.47487"
     inkscape:zoom="0.35"
     inkscape:pageshadow="2"
     inkscape:pageopacity="0.0"
     borderopacity="1.0"
     bordercolor="#666666"
     pagecolor="#ffffff"
     id="base" />
  <metadata
     id="metadata16178">
    <rdf:RDF>
      <cc:Work
         rdf:about="">
        <dc:format>image/svg+xml</dc:format>
        <dc:type
           rdf:resource="http://purl.org/dc/dcmitype/StillImage" />
        <dc:title></dc:title>
      </cc:Work>
    </rdf:RDF>
  </metadata>
  <g
     transform="translate(-64.961858,-54.415994)"
     id="layer1"
     inkscape:groupmode="layer"
     inkscape:label="Layer 1">
    <g
       transform="matrix(0.35277777,0,0,-0.35277777,-147.80416,397.10185)"
       id="g13387">
      <g
         id="g4239">
        <g
           id="g4241">
          <g
             id="g4247">
            <g
               id="g4249">
              <path
                 d="m 618.522,967.679 c -4.639,-1.866 -15.402,-7.845 -15.402,-18.99 v 0 -28.89 c 0,-1.914 -0.346,-8.019 5.639,-8.019 v 0 13.137 c 0,1.483 -0.425,16.694 3.163,23.247 v 0 c 3.587,6.552 11.958,9.661 21.094,9.183 v 0 l 1.244,11.768 c 0,0 -1.104,0.042 -2.759,0.042 v 0 c -3.597,0 -9.802,-0.201 -12.979,-1.478"
                 style="fill:url(#linearGradient4257);stroke:none"
                 id="path4259" />
            </g>
          </g>
        </g>
      </g>
      <g
         id="g4261">
        <g
           id="g4263">
          <g
             id="g4269">
            <g
               id="g4271">
              <path
                 d="m 609.092,926.21 c -0.865,0 -1.57,-0.707 -1.57,-1.571 v 0 -10.253 c 0,-1.854 1.516,-3.373 3.372,-3.373 v 0 c 1.854,0 3.371,1.519 3.371,3.373 v 0 8.451 c 0,1.855 -1.517,3.373 -3.371,3.373 v 0 z"
                 style="fill:url(#linearGradient4279);stroke:none"
                 id="path4281" />
            </g>
          </g>
        </g>
      </g>
      <g
         id="g4283">
        <g
           id="g4285">
          <g
             id="g4291">
            <g
               id="g4293">
              <path
                 d="m 666.543,969.115 1.243,-11.768 c 9.136,0.478 17.507,-2.631 21.095,-9.183 v 0 c 3.587,-6.553 3.162,-21.764 3.162,-23.247 v 0 -13.137 c 5.985,0 5.639,6.105 5.639,8.019 v 0 28.89 c 0,11.145 -10.762,17.124 -15.403,18.99 v 0 c -3.177,1.277 -9.381,1.478 -12.977,1.478 v 0 c -1.656,0 -2.759,-0.042 -2.759,-0.042"
                 style="fill:url(#linearGradient4301);stroke:none"
                 id="path4303" />
            </g>
          </g>
        </g>
      </g>
      <g
         id="g4305">
        <g
           id="g4307">
          <g
             id="g4313">
            <g
               id="g4315">
              <path
                 d="m 689.909,926.21 c -1.854,0 -3.372,-1.518 -3.372,-3.373 v 0 -8.451 c 0,-1.854 1.518,-3.373 3.372,-3.373 v 0 c 1.854,0 3.372,1.519 3.372,3.373 v 0 10.253 c 0,0.864 -0.707,1.571 -1.57,1.571 v 0 z"
                 style="fill:url(#linearGradient4323);stroke:none"
                 id="path4325" />
            </g>
          </g>
        </g>
      </g>
      <g
         id="g4327">
        <g
           id="g4329">
          <g
             id="g4335">
            <g
               id="g4337">
              <path
                 d="m 637.205,971.393 c -3.383,0 -6.15,-2.767 -6.15,-6.15 v 0 -3.835 c 0,-3.381 2.767,-6.149 6.15,-6.149 v 0 h 26.844 c 3.383,0 6.15,2.768 6.15,6.149 v 0 3.835 c 0,3.383 -2.767,6.15 -6.15,6.15 v 0 z"
                 style="fill:url(#linearGradient4345);stroke:none"
                 id="path4347" />
            </g>
          </g>
        </g>
      </g>
      <g
         id="g4349">
        <g
           id="g4351">
          <g
             id="g4357">
            <g
               id="g4359">
              <path
                 d="m 650.423,939.101 v -0.02 c -12.1,0 -22.812,0.013 -35.239,-0.008 v 0 c -3.115,-0.005 -3.508,-0.465 -3.514,-4.167 v 0 c -0.016,-10.826 0.075,-21.652 -0.035,-32.475 v 0 c -0.03,-3.084 1.035,-3.989 3.463,-3.956 v 0 c 6.975,0.098 15.716,0.08 22.692,-0.01 v 0 c 1.424,-0.018 2.182,0.511 2.899,1.975 v 0 c 5.408,11.044 13.794,11.107 19.234,0.085 v 0 c 0.811,-1.643 1.678,-2.06 3.132,-2.045 v 0 c 4.629,0.044 10.075,0.042 15.225,0.039 v 0 c 2.416,0 4.767,-0.002 6.939,0.002 v 0 c 3.367,0.007 3.858,0.521 3.869,4.444 v 0 c 0.031,10.616 0.029,21.233 0.01,31.85 v 0 c -0.008,3.771 -0.474,4.282 -3.701,4.284 v 0 c -5.342,0.003 -10.407,0.004 -15.47,0.004 v 0 c -6.328,0 -12.651,-0.002 -19.504,-0.002"
                 style="fill:url(#linearGradient4367);stroke:none"
                 id="path4369" />
            </g>
          </g>
        </g>
      </g>
      <g
         id="g4371">
        <g
           id="g4373">
          <g
             id="g4379">
            <g
               id="g4381">
              <path
                 d="m 650.416,933.271 v -0.014 c -10.002,0 -20.005,0.008 -30.006,-0.006 v 0 c -2.654,-0.004 -2.989,-0.336 -2.994,-3.012 v 0 c -0.013,-7.821 0.064,-15.642 -0.03,-23.463 v 0 c -0.026,-2.227 0.882,-2.882 2.949,-2.857 v 0 c 5.941,0.069 11.883,0.057 17.824,-0.008 v 0 c 1.212,-0.013 1.856,0.369 2.468,1.427 v 0 c 4.605,7.979 14.746,8.024 19.379,0.06 v 0 c 0.689,-1.186 1.428,-1.487 2.667,-1.477 v 0 c 4.005,0.034 8.01,0.032 12.015,0.029 v 0 c 1.785,-0.001 3.571,-0.002 5.356,10e-4 v 0 c 2.868,0.005 3.286,0.377 3.295,3.211 v 0 c 0.027,7.671 0.025,15.341 0.008,23.012 v 0 c -0.004,2.725 -0.402,3.094 -3.15,3.095 v 0 c -4.255,0.003 -8.509,0.003 -12.764,0.003 v 0 c -5.672,0 -11.345,-0.001 -17.017,-0.001"
                 style="fill:url(#linearGradient4389);stroke:none"
                 id="path4391" />
            </g>
          </g>
        </g>
      </g>
    </g>
  </g>
</svg>
