<?xml version="1.0" encoding="UTF-8" standalone="no"?>
<svg
   xmlns:dc="http://purl.org/dc/elements/1.1/"
   xmlns:cc="http://creativecommons.org/ns#"
   xmlns:rdf="http://www.w3.org/1999/02/22-rdf-syntax-ns#"
   xmlns:svg="http://www.w3.org/2000/svg"
   xmlns="http://www.w3.org/2000/svg"
   xmlns:sodipodi="http://sodipodi.sourceforge.net/DTD/sodipodi-0.dtd"
   xmlns:inkscape="http://www.inkscape.org/namespaces/inkscape"
   sodipodi:docname="home.svg"
   inkscape:version="1.0 (6e3e5246a0, 2020-05-07)"
   id="svg17420"
   version="1.1"
   viewBox="0 0 25.995832 24.412155"
   height="24.412155mm"
   width="25.995832mm">
  <defs
     id="defs17414">
    <linearGradient
       id="linearGradient9315"
       spreadMethod="pad"
       gradientTransform="matrix(80.741524,-33.482857,-33.482857,-80.741524,1024.7258,828.80371)"
       gradientUnits="userSpaceOnUse"
       y2="0"
       x2="1"
       y1="0"
       x1="0">
      <stop
         id="stop9309"
         offset="0"
         style="stop-opacity:1;stop-color:#63d7c2" />
      <stop
         id="stop9311"
         offset="0.67807152"
         style="stop-opacity:1;stop-color:#63d7c2" />
      <stop
         id="stop9313"
         offset="1"
         style="stop-opacity:1;stop-color:#1e0757" />
    </linearGradient>
    <linearGradient
       id="linearGradient9337"
       spreadMethod="pad"
       gradientTransform="matrix(73.689033,0,0,-73.689033,1037.9521,838.72455)"
       gradientUnits="userSpaceOnUse"
       y2="0"
       x2="1"
       y1="0"
       x1="0">
      <stop
         id="stop9331"
         offset="0"
         style="stop-opacity:1;stop-color:#e35db8" />
      <stop
         id="stop9333"
         offset="0.60396321"
         style="stop-opacity:1;stop-color:#1e0757" />
      <stop
         id="stop9335"
         offset="1"
         style="stop-opacity:1;stop-color:#1e0757" />
    </linearGradient>
  </defs>
  <sodipodi:namedview
     inkscape:window-maximized="0"
     inkscape:window-y="27"
     inkscape:window-x="122"
     inkscape:window-height="1016"
     inkscape:window-width="1428"
     showgrid="false"
     inkscape:document-rotation="0"
     inkscape:current-layer="layer1"
     inkscape:document-units="mm"
     inkscape:cy="560.41892"
     inkscape:cx="-10.874024"
     inkscape:zoom="0.35"
     inkscape:pageshadow="2"
     inkscape:pageopacity="0.0"
     borderopacity="1.0"
     bordercolor="#666666"
     pagecolor="#ffffff"
     id="base" />
  <metadata
     id="metadata17417">
    <rdf:RDF>
      <cc:Work
         rdf:about="">
        <dc:format>image/svg+xml</dc:format>
        <dc:type
           rdf:resource="http://purl.org/dc/dcmitype/StillImage" />
        <dc:title></dc:title>
      </cc:Work>
    </rdf:RDF>
  </metadata>
  <g
     transform="translate(-108.71042,0.11083835)"
     id="layer1"
     inkscape:groupmode="layer"
     inkscape:label="Layer 1">
    <g
       transform="matrix(0.35277777,0,0,-0.35277777,-257.45606,301.60623)"
       id="g13623">
      <g
         id="g9297">
        <g
           id="g9299">
          <g
             id="g9305">
            <g
               id="g9307">
              <path
                 d="m 1073.154,835.879 c -8.224,-6.438 -16.501,-12.806 -24.773,-19.182 v 0 c -1.269,-0.978 -1.908,-2.133 -1.881,-3.804 v 0 c 0.078,-5.044 -0.138,-10.098 0.083,-15.134 v 0 c 0.211,-4.821 3.315,-8.907 7.626,-10.03 v 0 c 3.036,-0.792 6.155,-1.317 9.368,-1.33 v 0 c 2.778,-0.011 4.214,0.698 3.971,3.767 v 0 c -0.191,2.415 -0.039,4.855 -0.039,7.285 v 0 h 0.012 c 0,2.617 0,5.233 10e-4,7.849 v 0 c 10e-4,0.373 0,0.751 0.056,1.119 v 0 c 0.555,3.918 3.218,6.569 6.939,6.923 v 0 c 3.52,0.334 6.405,-1.517 7.917,-4.975 v 0 c 0.616,-1.411 0.8,-2.853 0.785,-4.365 v 0 c -0.027,-3.177 -0.01,-6.354 -0.01,-9.531 v 0 c 10e-4,-8.935 0.378,-9.255 9.113,-7.68 v 0 c 0.547,0.099 1.073,0.313 1.62,0.419 v 0 c 6.163,1.199 9.519,4.858 9.737,11.032 v 0 c 0.172,4.854 0,9.717 0.059,14.575 v 0 c 0.021,1.624 -0.448,2.891 -1.747,3.888 v 0 c -8.286,6.357 -16.563,12.727 -24.837,19.1 v 0 c -0.706,0.544 -1.377,0.857 -2.072,0.857 v 0 c -0.611,0 -1.242,-0.242 -1.932,-0.783"
                 style="fill:url(#linearGradient9315);stroke:none"
                 id="path9317" />
            </g>
          </g>
        </g>
      </g>
      <g
         id="g9319">
        <g
           id="g9321">
          <g
             id="g9327">
            <g
               id="g9329">
              <path
                 d="m 1073.236,854.532 -33.905,-26.025 c -1.545,-1.186 -1.835,-3.398 -0.649,-4.941 v 0 c 0.693,-0.904 1.739,-1.378 2.796,-1.378 v 0 c 0.75,0 1.503,0.236 2.144,0.728 v 0 l 30.348,23.296 c 0.825,0.633 1.971,0.629 2.793,-0.007 v 0 l 29.197,-22.652 c 1.728,-1.341 4.309,-0.823 5.336,1.251 v 0 c 0.746,1.507 0.238,3.344 -1.091,4.375 v 0 l -32.664,25.342 c -0.636,0.493 -1.398,0.74 -2.16,0.74 v 0 c -0.757,0 -1.513,-0.243 -2.145,-0.729"
                 style="fill:url(#linearGradient9337);stroke:none"
                 id="path9339" />
            </g>
          </g>
        </g>
      </g>
    </g>
  </g>
</svg>
