<?xml version="1.0" encoding="UTF-8" standalone="no"?>
<svg
   xmlns:dc="http://purl.org/dc/elements/1.1/"
   xmlns:cc="http://creativecommons.org/ns#"
   xmlns:rdf="http://www.w3.org/1999/02/22-rdf-syntax-ns#"
   xmlns:svg="http://www.w3.org/2000/svg"
   xmlns="http://www.w3.org/2000/svg"
   xmlns:sodipodi="http://sodipodi.sourceforge.net/DTD/sodipodi-0.dtd"
   xmlns:inkscape="http://www.inkscape.org/namespaces/inkscape"
   sodipodi:docname="image.svg"
   inkscape:version="1.0 (6e3e5246a0, 2020-05-07)"
   id="svg18012"
   version="1.1"
   viewBox="0 0 22.612349 17.229321"
   height="17.229321mm"
   width="22.612349mm">
  <defs
     id="defs18006">
    <linearGradient
       id="linearGradient1163"
       spreadMethod="pad"
       gradientTransform="matrix(82.080841,18.176411,18.176411,-82.080841,400.6011,694.20374)"
       gradientUnits="userSpaceOnUse"
       y2="0"
       x2="1"
       y1="0"
       x1="0">
      <stop
         id="stop1157"
         offset="0"
         style="stop-opacity:1;stop-color:#4d1f81" />
      <stop
         id="stop1159"
         offset="0.32192848"
         style="stop-opacity:1;stop-color:#f263bd" />
      <stop
         id="stop1161"
         offset="1"
         style="stop-opacity:1;stop-color:#f263bd" />
    </linearGradient>
    <linearGradient
       id="linearGradient1185"
       spreadMethod="pad"
       gradientTransform="matrix(63.521278,0,0,-63.521278,399.75998,690.1908)"
       gradientUnits="userSpaceOnUse"
       y2="0"
       x2="1"
       y1="0"
       x1="0">
      <stop
         id="stop1179"
         offset="0"
         style="stop-opacity:1;stop-color:#63d7c2" />
      <stop
         id="stop1181"
         offset="0.67807152"
         style="stop-opacity:1;stop-color:#63d7c2" />
      <stop
         id="stop1183"
         offset="1"
         style="stop-opacity:1;stop-color:#1e0757" />
    </linearGradient>
    <linearGradient
       id="linearGradient1207"
       spreadMethod="pad"
       gradientTransform="matrix(11.228838,0,0,-11.228838,437.45715,708.50452)"
       gradientUnits="userSpaceOnUse"
       y2="0"
       x2="1"
       y1="0"
       x1="0">
      <stop
         id="stop1201"
         offset="0"
         style="stop-opacity:1;stop-color:#f6d348" />
      <stop
         id="stop1203"
         offset="0.03027482"
         style="stop-opacity:1;stop-color:#f6d348" />
      <stop
         id="stop1205"
         offset="1"
         style="stop-opacity:1;stop-color:#f263bd" />
    </linearGradient>
  </defs>
  <sodipodi:namedview
     inkscape:window-maximized="0"
     inkscape:window-y="27"
     inkscape:window-x="492"
     inkscape:window-height="1016"
     inkscape:window-width="1428"
     showgrid="false"
     inkscape:document-rotation="0"
     inkscape:current-layer="layer1"
     inkscape:document-units="mm"
     inkscape:cy="-76.012078"
     inkscape:cx="437.01773"
     inkscape:zoom="0.35"
     inkscape:pageshadow="2"
     inkscape:pageopacity="0.0"
     borderopacity="1.0"
     bordercolor="#666666"
     pagecolor="#ffffff"
     id="base" />
  <metadata
     id="metadata18009">
    <rdf:RDF>
      <cc:Work
         rdf:about="">
        <dc:format>image/svg+xml</dc:format>
        <dc:type
           rdf:resource="http://purl.org/dc/dcmitype/StillImage" />
        <dc:title></dc:title>
      </cc:Work>
    </rdf:RDF>
  </metadata>
  <g
     transform="translate(9.7942742,-168.2782)"
     id="layer1"
     inkscape:groupmode="layer"
     inkscape:label="Layer 1">
    <g
       transform="matrix(0.35277777,0,0,-0.35277777,-150.82001,424.18954)"
       id="g13710">
      <g
         id="g1145">
        <g
           id="g1147">
          <g
             id="g1153">
            <g
               id="g1155">
              <path
                 d="m 419.833,725.411 h -17.954 c -1.356,-10e-4 -2.113,-0.762 -2.113,-2.123 v 0 c -0.003,-14.035 -0.005,-28.069 -0.008,-42.104 v 0 c 0,-0.25 0.019,-0.5 0.028,-0.75 v 0 c 0.202,0.18 0.412,0.351 0.603,0.541 v 0 c 7.365,7.322 14.729,14.644 22.088,21.971 v 0 c 0.589,0.585 1.21,1.02 2.099,0.799 v 0 c 0.514,-0.129 0.876,-0.445 1.199,-0.848 v 0 c 4.386,-5.482 8.781,-10.958 13.163,-16.444 v 0 c 0.291,-0.364 0.477,-0.409 0.824,-0.055 v 0 c 1.777,1.819 3.576,3.618 5.372,5.419 v 0 c 1.206,1.209 2.185,1.218 3.382,0.016 v 0 c 2.792,-2.807 5.614,-5.586 8.413,-8.387 v 0 c 1.942,-1.946 3.9,-3.879 5.873,-5.796 v 0 c 0.177,-0.172 0.392,-0.316 0.479,-0.566 v 0 c 0.266,0.266 0.575,0.48 0.575,0.882 v 0 46.196 c 0,0.47 0,1.256 -2.111,1.256 v 0 c -13.971,-0.009 -27.941,-0.007 -41.912,-0.007 m 23.203,-22.516 c -3.01,0.018 -5.625,2.544 -5.578,5.634 v 0 c 0.047,3.08 2.559,5.596 5.648,5.585 v 0 c 3.081,-0.01 5.589,-2.549 5.579,-5.645 v 0 c -0.008,-3.061 -2.54,-5.575 -5.615,-5.575 v 0 c -0.011,0 -0.023,10e-4 -0.034,10e-4"
                 style="fill:url(#linearGradient1163);stroke:none"
                 id="path1165" />
            </g>
          </g>
        </g>
      </g>
      <g
         id="g1167">
        <g
           id="g1169">
          <g
             id="g1175">
            <g
               id="g1177">
              <path
                 d="m 422.477,702.946 c -7.359,-7.327 -14.723,-14.649 -22.088,-21.971 v 0 c -0.191,-0.19 -0.401,-0.361 -0.603,-0.541 v 0 c -0.009,-0.562 -0.025,-1.125 -0.026,-1.687 v 0 c -0.002,-1.429 0.725,-2.163 2.143,-2.163 v 0 c 19.937,-10e-4 39.874,0 59.811,-0.005 v 0 c 0.59,-0.002 1.108,0.138 1.567,0.505 v 0 c -0.087,0.25 -0.302,0.394 -0.479,0.566 v 0 c -1.973,1.917 -3.931,3.85 -5.873,5.796 v 0 c -2.799,2.801 -5.621,5.58 -8.413,8.387 v 0 c -1.197,1.202 -2.176,1.193 -3.382,-0.016 v 0 c -1.796,-1.801 -3.595,-3.6 -5.372,-5.419 v 0 c -0.347,-0.354 -0.533,-0.309 -0.824,0.055 v 0 c -4.382,5.486 -8.777,10.962 -13.163,16.444 v 0 c -0.323,0.403 -0.685,0.719 -1.199,0.848 v 0 c -0.161,0.04 -0.313,0.059 -0.458,0.059 v 0 c -0.655,0 -1.159,-0.379 -1.641,-0.858"
                 style="fill:url(#linearGradient1185);stroke:none"
                 id="path1187" />
            </g>
          </g>
        </g>
      </g>
      <g
         id="g1189">
        <g
           id="g1191">
          <g
             id="g1197">
            <g
               id="g1199">
              <path
                 d="m 437.458,708.529 c -0.047,-3.09 2.568,-5.616 5.578,-5.634 v 0 c 3.09,-0.019 5.641,2.502 5.649,5.574 v 0 c 0.01,3.096 -2.498,5.635 -5.579,5.645 v 0 c -0.007,0 -0.013,0 -0.02,0 v 0 c -3.079,0 -5.581,-2.511 -5.628,-5.585"
                 style="fill:url(#linearGradient1207);stroke:none"
                 id="path1209" />
            </g>
          </g>
        </g>
      </g>
    </g>
  </g>
</svg>
