<?xml version="1.0" encoding="UTF-8" standalone="no"?>
<svg
   xmlns:dc="http://purl.org/dc/elements/1.1/"
   xmlns:cc="http://creativecommons.org/ns#"
   xmlns:rdf="http://www.w3.org/1999/02/22-rdf-syntax-ns#"
   xmlns:svg="http://www.w3.org/2000/svg"
   xmlns="http://www.w3.org/2000/svg"
   xmlns:sodipodi="http://sodipodi.sourceforge.net/DTD/sodipodi-0.dtd"
   xmlns:inkscape="http://www.inkscape.org/namespaces/inkscape"
   sodipodi:docname="link.svg"
   inkscape:version="1.0 (6e3e5246a0, 2020-05-07)"
   id="svg17533"
   version="1.1"
   viewBox="0 0 23.244869 23.794008"
   height="23.794008mm"
   width="23.244869mm">
  <defs
     id="defs17527">
    <linearGradient
       id="linearGradient9359"
       spreadMethod="pad"
       gradientTransform="matrix(-21.718304,20.822155,20.822155,21.718304,1297.8854,801.05896)"
       gradientUnits="userSpaceOnUse"
       y2="0"
       x2="1"
       y1="0"
       x1="0">
      <stop
         id="stop9353"
         offset="0"
         style="stop-opacity:1;stop-color:#63d7c2" />
      <stop
         id="stop9355"
         offset="0.67807152"
         style="stop-opacity:1;stop-color:#63d7c2" />
      <stop
         id="stop9357"
         offset="1"
         style="stop-opacity:1;stop-color:#1e0757" />
    </linearGradient>
    <linearGradient
       id="linearGradient9381"
       spreadMethod="pad"
       gradientTransform="matrix(24.268494,48.041714,48.041714,-24.268494,1262.9242,773.40466)"
       gradientUnits="userSpaceOnUse"
       y2="0"
       x2="1"
       y1="0"
       x1="0">
      <stop
         id="stop9375"
         offset="0"
         style="stop-opacity:1;stop-color:#63d7c2" />
      <stop
         id="stop9377"
         offset="0.67807152"
         style="stop-opacity:1;stop-color:#63d7c2" />
      <stop
         id="stop9379"
         offset="1"
         style="stop-opacity:1;stop-color:#1e0757" />
    </linearGradient>
    <linearGradient
       id="linearGradient9403"
       spreadMethod="pad"
       gradientTransform="matrix(-21.718304,20.822155,20.822155,21.718304,1297.881,801.05438)"
       gradientUnits="userSpaceOnUse"
       y2="0"
       x2="1"
       y1="0"
       x1="0">
      <stop
         id="stop9397"
         offset="0"
         style="stop-opacity:1;stop-color:#63d7c2" />
      <stop
         id="stop9399"
         offset="0.67807152"
         style="stop-opacity:1;stop-color:#63d7c2" />
      <stop
         id="stop9401"
         offset="1"
         style="stop-opacity:1;stop-color:#1e0757" />
    </linearGradient>
    <linearGradient
       id="linearGradient9425"
       spreadMethod="pad"
       gradientTransform="matrix(-36.650379,59.433052,59.433052,36.650379,1312.6753,797.16522)"
       gradientUnits="userSpaceOnUse"
       y2="0"
       x2="1"
       y1="0"
       x1="0">
      <stop
         id="stop9419"
         offset="0"
         style="stop-opacity:1;stop-color:#4d1f81" />
      <stop
         id="stop9421"
         offset="0.32192848"
         style="stop-opacity:1;stop-color:#f263bd" />
      <stop
         id="stop9423"
         offset="1"
         style="stop-opacity:1;stop-color:#f263bd" />
    </linearGradient>
  </defs>
  <sodipodi:namedview
     inkscape:window-maximized="0"
     inkscape:window-y="27"
     inkscape:window-x="122"
     inkscape:window-height="1016"
     inkscape:window-width="1428"
     showgrid="false"
     inkscape:document-rotation="0"
     inkscape:current-layer="layer1"
     inkscape:document-units="mm"
     inkscape:cy="644.96504"
     inkscape:cx="-421.78696"
     inkscape:zoom="0.35"
     inkscape:pageshadow="2"
     inkscape:pageopacity="0.0"
     borderopacity="1.0"
     bordercolor="#666666"
     pagecolor="#ffffff"
     id="base" />
  <metadata
     id="metadata17530">
    <rdf:RDF>
      <cc:Work
         rdf:about="">
        <dc:format>image/svg+xml</dc:format>
        <dc:type
           rdf:resource="http://purl.org/dc/dcmitype/StillImage" />
        <dc:title></dc:title>
      </cc:Work>
    </rdf:RDF>
  </metadata>
  <g
     transform="translate(-217.43113,22.480335)"
     id="layer1"
     inkscape:groupmode="layer"
     inkscape:label="Layer 1">
    <g
       transform="matrix(0.35277777,0,0,-0.35277777,-224.94459,275.64722)"
       id="g13611">
      <g
         id="g9341">
        <g
           id="g9343">
          <g
             id="g9349">
            <g
               id="g9351">
              <path
                 d="m 1296.159,807.749 c -0.953,-0.994 -2.081,-1.717 -3.288,-2.185 v 0 c -0.422,-1.112 -1.062,-2.136 -1.907,-3.015 v 0 l -3.099,-3.235 c 0.215,-0.024 0.43,-0.056 0.646,-0.071 v 0 c 3.18,-0.219 6.412,0.578 9.167,2.376 v 0 c 1.23,2.266 1.859,4.83 1.803,7.486 v 0 c -0.013,0.655 -0.072,1.299 -0.166,1.935 v 0 z"
                 style="fill:url(#linearGradient9359);stroke:none"
                 id="path9361" />
            </g>
          </g>
        </g>
      </g>
      <g
         id="g9363">
        <g
           id="g9365">
          <g
             id="g9371">
            <g
               id="g9373">
              <path
                 d="m 1282.924,820.438 c -0.953,-0.993 -1.628,-2.152 -2.046,-3.377 v 0 c 1.056,0.453 2.2,0.705 3.389,0.73 v 0 c 0.279,0.005 0.556,-0.001 0.831,-0.02 v 0 c 2.107,-0.144 4.07,-1.007 5.599,-2.472 v 0 c 1.729,-1.658 2.709,-3.902 2.76,-6.32 v 0 c 0.026,-1.188 -0.179,-2.342 -0.586,-3.415 v 0 c -0.422,-1.112 -1.062,-2.136 -1.907,-3.015 v 0 l -3.099,-3.235 -12.348,-12.88 c -1.659,-1.728 -3.903,-2.71 -6.321,-2.76 v 0 c -2.422,-0.055 -4.701,0.834 -6.43,2.492 v 0 c -1.729,1.657 -2.709,3.903 -2.761,6.319 v 0 c -0.051,2.418 0.835,4.702 2.492,6.432 v 0 l 12.339,12.869 c -0.523,3.371 0.108,6.891 1.905,9.916 v 0 c -1.141,-0.682 -2.2,-1.518 -3.145,-2.502 v 0 l -15.448,-16.114 c -2.772,-2.891 -4.252,-6.701 -4.166,-10.728 v 0 c 0.084,-4.026 1.723,-7.77 4.614,-10.542 v 0 c 2.642,-2.533 5.975,-3.909 9.369,-4.142 v 0 c 4.297,-0.295 8.693,1.245 11.902,4.59 v 0 l 15.447,16.114 c 0.942,0.983 1.732,2.074 2.364,3.241 v 0 c 1.23,2.266 1.859,4.83 1.803,7.486 v 0 c -0.013,0.655 -0.072,1.299 -0.166,1.935 v 0 c -0.487,3.281 -2.026,6.286 -4.448,8.609 v 0 c -2.422,2.321 -5.49,3.733 -8.788,4.08 v 0 z"
                 style="fill:url(#linearGradient9381);stroke:none"
                 id="path9383" />
            </g>
          </g>
        </g>
      </g>
      <g
         id="g9385">
        <g
           id="g9387">
          <g
             id="g9393">
            <g
               id="g9395">
              <path
                 d="m 1284.14,823.814 c -2.657,-0.055 -5.187,-0.79 -7.399,-2.112 v 0 c -1.797,-3.025 -2.428,-6.545 -1.905,-9.916 v 0 l 3.11,3.244 c 0.844,0.88 1.84,1.562 2.932,2.031 v 0 c 0.418,1.225 1.093,2.384 2.046,3.377 v 0 l 3.155,3.291 c -0.534,0.057 -1.074,0.089 -1.618,0.089 v 0 c -0.107,0 -0.214,-10e-4 -0.321,-0.004"
                 style="fill:url(#linearGradient9403);stroke:none"
                 id="path9405" />
            </g>
          </g>
        </g>
      </g>
      <g
         id="g9407">
        <g
           id="g9409">
          <g
             id="g9415">
            <g
               id="g9417">
              <path
                 d="m 1304.678,845.083 c -3.987,-0.084 -7.693,-1.706 -10.438,-4.569 v 0 L 1278.791,824.4 c -0.802,-0.835 -1.481,-1.742 -2.05,-2.698 v 0 c -1.797,-3.025 -2.428,-6.545 -1.905,-9.916 v 0 c 0.487,-3.114 1.954,-6.099 4.4,-8.442 v 0 c 2.447,-2.347 5.494,-3.678 8.629,-4.03 v 0 l 3.099,3.235 c 0.845,0.879 1.485,1.903 1.907,3.015 v 0 c -3.221,-1.252 -7.02,-0.634 -9.673,1.912 v 0 c -2.656,2.546 -3.434,6.314 -2.32,9.585 v 0 c 0.418,1.225 1.093,2.384 2.046,3.377 v 0 l 3.155,3.291 12.294,12.824 c 1.686,1.757 3.967,2.755 6.424,2.807 v 0 c 0.285,0.005 0.568,-0.002 0.847,-0.02 v 0 c 2.142,-0.148 4.137,-1.023 5.692,-2.514 v 0 c 1.758,-1.685 2.755,-3.968 2.806,-6.426 v 0 c 0.052,-2.457 -0.849,-4.779 -2.533,-6.536 v 0 l -12.294,-12.824 c 0.094,-0.636 0.153,-1.28 0.166,-1.935 v 0 c 0.056,-2.656 -0.573,-5.22 -1.803,-7.486 v 0 c 0.933,0.609 1.811,1.33 2.615,2.168 v 0 l 15.448,16.115 c 2.745,2.861 4.209,6.632 4.125,10.62 v 0 c -0.084,3.986 -1.706,7.693 -4.568,10.436 v 0 10e-4 c -2.784,2.67 -6.435,4.127 -10.3,4.127 v 0 c -0.107,0 -0.213,-10e-4 -0.32,-0.003"
                 style="fill:url(#linearGradient9425);stroke:none"
                 id="path9427" />
            </g>
          </g>
        </g>
      </g>
    </g>
  </g>
</svg>
