<?xml version="1.0" encoding="UTF-8" standalone="no"?>
<svg
   xmlns:dc="http://purl.org/dc/elements/1.1/"
   xmlns:cc="http://creativecommons.org/ns#"
   xmlns:rdf="http://www.w3.org/1999/02/22-rdf-syntax-ns#"
   xmlns:svg="http://www.w3.org/2000/svg"
   xmlns="http://www.w3.org/2000/svg"
   xmlns:sodipodi="http://sodipodi.sourceforge.net/DTD/sodipodi-0.dtd"
   xmlns:inkscape="http://www.inkscape.org/namespaces/inkscape"
   sodipodi:docname="mail.svg"
   inkscape:version="1.0 (6e3e5246a0, 2020-05-07)"
   id="svg16751"
   version="1.1"
   viewBox="0 0 27.390371 17.662201"
   height="17.662201mm"
   width="27.390371mm">
  <defs
     id="defs16745">
    <linearGradient
       id="linearGradient1229"
       spreadMethod="pad"
       gradientTransform="matrix(77.641274,0,0,-77.641274,1460.2783,934.42511)"
       gradientUnits="userSpaceOnUse"
       y2="0"
       x2="1"
       y1="0"
       x1="0">
      <stop
         id="stop1223"
         offset="0"
         style="stop-opacity:1;stop-color:#63d7c2" />
      <stop
         id="stop1225"
         offset="0.67807152"
         style="stop-opacity:1;stop-color:#63d7c2" />
      <stop
         id="stop1227"
         offset="1"
         style="stop-opacity:1;stop-color:#1e0757" />
    </linearGradient>
    <linearGradient
       id="linearGradient1251"
       spreadMethod="pad"
       gradientTransform="matrix(76.795059,0,0,-76.795059,1460.7025,945.26947)"
       gradientUnits="userSpaceOnUse"
       y2="0"
       x2="1"
       y1="0"
       x1="0">
      <stop
         id="stop1245"
         offset="0"
         style="stop-opacity:1;stop-color:#4d1f81" />
      <stop
         id="stop1247"
         offset="0.32192848"
         style="stop-opacity:1;stop-color:#f263bd" />
      <stop
         id="stop1249"
         offset="1"
         style="stop-opacity:1;stop-color:#f263bd" />
    </linearGradient>
  </defs>
  <sodipodi:namedview
     inkscape:window-maximized="0"
     inkscape:window-y="27"
     inkscape:window-x="122"
     inkscape:window-height="1016"
     inkscape:window-width="1428"
     showgrid="false"
     inkscape:document-rotation="0"
     inkscape:current-layer="layer1"
     inkscape:document-units="mm"
     inkscape:cy="156.23452"
     inkscape:cx="-562.52437"
     inkscape:zoom="0.35"
     inkscape:pageshadow="2"
     inkscape:pageopacity="0.0"
     borderopacity="1.0"
     bordercolor="#666666"
     pagecolor="#ffffff"
     id="base" />
  <metadata
     id="metadata16748">
    <rdf:RDF>
      <cc:Work
         rdf:about="">
        <dc:format>image/svg+xml</dc:format>
        <dc:type
           rdf:resource="http://purl.org/dc/dcmitype/StillImage" />
        <dc:title></dc:title>
      </cc:Work>
    </rdf:RDF>
  </metadata>
  <g
     transform="translate(-254.66791,-106.82962)"
     id="layer1"
     inkscape:groupmode="layer"
     inkscape:label="Layer 1">
    <g
       transform="matrix(0.35277777,0,0,-0.35277777,-260.48571,445.48287)"
       id="g13538">
      <g
         id="g1211">
        <g
           id="g1213">
          <g
             id="g1219">
            <g
               id="g1221">
              <path
                 d="m 1460.289,957.45 c 0,-15.032 -0.01,-30.063 -0.011,-45.095 v 0 c 0,-1.54 0.948,-2.435 2.552,-2.435 v 0 c 14.374,-0.002 28.748,-10e-4 43.122,-10e-4 v 0 c 9.55,0 19.099,0.021 28.648,-0.023 v 0 c 1.416,-0.005 2.588,0.218 3.32,1.545 v 0 46.856 c -0.283,0.127 -0.212,0.481 -0.422,0.653 v 0 c -1.812,-1.136 -3.457,-2.501 -5.171,-3.769 v 0 c -3.103,-2.298 -6.192,-4.614 -9.288,-6.921 v 0 c -4.042,-3.014 -8.083,-6.027 -12.125,-9.039 v 0 c -3.754,-2.798 -7.513,-5.589 -11.255,-8.402 v 0 c -0.414,-0.312 -0.672,-0.33 -1.101,-0.008 v 0 c -7.154,5.356 -14.323,10.69 -21.489,16.03 v 0 c -5.222,3.891 -10.443,7.784 -15.666,11.672 v 0 c -0.221,0.165 -0.466,0.295 -0.701,0.441 v 0 c -0.319,-0.452 -0.413,-0.961 -0.413,-1.504"
                 style="fill:url(#linearGradient1229);stroke:none"
                 id="path1231" />
            </g>
          </g>
        </g>
      </g>
      <g
         id="g1233">
        <g
           id="g1235">
          <g
             id="g1241">
            <g
               id="g1243">
              <path
                 d="m 1462.399,959.945 c -0.69,-0.111 -1.317,-0.343 -1.697,-0.991 v 0 c 0.235,-0.146 0.48,-0.276 0.701,-0.441 v 0 c 5.223,-3.888 10.444,-7.781 15.666,-11.672 v 0 c 7.166,-5.34 14.335,-10.674 21.489,-16.03 v 0 c 0.429,-0.322 0.687,-0.304 1.101,0.008 v 0 c 3.742,2.813 7.501,5.604 11.255,8.402 v 0 c 4.042,3.012 8.083,6.025 12.125,9.039 v 0 c 3.096,2.307 6.185,4.623 9.288,6.921 v 0 c 1.714,1.268 3.359,2.633 5.17,3.769 v 0 c -0.544,0.842 -1.372,1.009 -2.299,1.009 v 0 c -24.064,-0.005 -48.129,-0.004 -72.193,-0.004 v 0 c -0.116,0 -0.233,0.007 -0.349,0.007 v 0 c -0.086,0 -0.172,-0.004 -0.257,-0.017"
                 style="fill:url(#linearGradient1251);stroke:none"
                 id="path1253" />
            </g>
          </g>
        </g>
      </g>
    </g>
  </g>
</svg>
