<?xml version="1.0" encoding="UTF-8" standalone="no"?>
<svg
   xmlns:dc="http://purl.org/dc/elements/1.1/"
   xmlns:cc="http://creativecommons.org/ns#"
   xmlns:rdf="http://www.w3.org/1999/02/22-rdf-syntax-ns#"
   xmlns:svg="http://www.w3.org/2000/svg"
   xmlns="http://www.w3.org/2000/svg"
   xmlns:sodipodi="http://sodipodi.sourceforge.net/DTD/sodipodi-0.dtd"
   xmlns:inkscape="http://www.inkscape.org/namespaces/inkscape"
   sodipodi:docname="message.svg"
   inkscape:version="1.0 (6e3e5246a0, 2020-05-07)"
   id="svg17777"
   version="1.1"
   viewBox="0 0 17.16917 17.447683"
   height="17.447683mm"
   width="17.16917mm">
  <defs
     id="defs17771">
    <linearGradient
       id="linearGradient569"
       spreadMethod="pad"
       gradientTransform="matrix(48.66576,0,0,-48.66576,1688.0146,811.36176)"
       gradientUnits="userSpaceOnUse"
       y2="0"
       x2="1"
       y1="0"
       x1="0">
      <stop
         id="stop563"
         offset="0"
         style="stop-opacity:1;stop-color:#63d7c2" />
      <stop
         id="stop565"
         offset="0.67807152"
         style="stop-opacity:1;stop-color:#63d7c2" />
      <stop
         id="stop567"
         offset="1"
         style="stop-opacity:1;stop-color:#1e0757" />
    </linearGradient>
    <linearGradient
       id="linearGradient591"
       spreadMethod="pad"
       gradientTransform="matrix(6.5581584,0,0,-6.5581584,1698.3707,817.98798)"
       gradientUnits="userSpaceOnUse"
       y2="0"
       x2="1"
       y1="0"
       x1="0">
      <stop
         id="stop585"
         offset="0"
         style="stop-opacity:1;stop-color:#f6d348" />
      <stop
         id="stop587"
         offset="0.03027482"
         style="stop-opacity:1;stop-color:#f6d348" />
      <stop
         id="stop589"
         offset="1"
         style="stop-opacity:1;stop-color:#f263bd" />
    </linearGradient>
    <linearGradient
       id="linearGradient613"
       spreadMethod="pad"
       gradientTransform="matrix(6.5743132,0,0,-6.5743132,1719.7799,817.98187)"
       gradientUnits="userSpaceOnUse"
       y2="0"
       x2="1"
       y1="0"
       x1="0">
      <stop
         id="stop607"
         offset="0"
         style="stop-opacity:1;stop-color:#f6d348" />
      <stop
         id="stop609"
         offset="0.03027482"
         style="stop-opacity:1;stop-color:#f6d348" />
      <stop
         id="stop611"
         offset="1"
         style="stop-opacity:1;stop-color:#f263bd" />
    </linearGradient>
    <linearGradient
       id="linearGradient635"
       spreadMethod="pad"
       gradientTransform="matrix(6.561233,0,0,-6.561233,1709.4382,817.99036)"
       gradientUnits="userSpaceOnUse"
       y2="0"
       x2="1"
       y1="0"
       x1="0">
      <stop
         id="stop629"
         offset="0"
         style="stop-opacity:1;stop-color:#f6d348" />
      <stop
         id="stop631"
         offset="0.03027482"
         style="stop-opacity:1;stop-color:#f6d348" />
      <stop
         id="stop633"
         offset="1"
         style="stop-opacity:1;stop-color:#f263bd" />
    </linearGradient>
  </defs>
  <sodipodi:namedview
     inkscape:window-maximized="0"
     inkscape:window-y="27"
     inkscape:window-x="122"
     inkscape:window-height="1016"
     inkscape:window-width="1428"
     showgrid="false"
     inkscape:document-rotation="0"
     inkscape:current-layer="layer1"
     inkscape:document-units="mm"
     inkscape:cy="252.57492"
     inkscape:cx="9.8933809"
     inkscape:zoom="0.35"
     inkscape:pageshadow="2"
     inkscape:pageopacity="0.0"
     borderopacity="1.0"
     bordercolor="#666666"
     pagecolor="#ffffff"
     id="base" />
  <metadata
     id="metadata17774">
    <rdf:RDF>
      <cc:Work
         rdf:about="">
        <dc:format>image/svg+xml</dc:format>
        <dc:type
           rdf:resource="http://purl.org/dc/dcmitype/StillImage" />
        <dc:title></dc:title>
      </cc:Work>
    </rdf:RDF>
  </metadata>
  <g
     transform="translate(-103.21571,-81.339552)"
     id="layer1"
     inkscape:groupmode="layer"
     inkscape:label="Layer 1">
    <g
       transform="matrix(0.35277777,0,0,-0.35277777,-492.27847,376.29387)"
       id="g13577">
      <g
         id="g551">
        <g
           id="g553">
          <g
             id="g559">
            <g
               id="g561">
              <path
                 d="m 1695.605,836.065 c -5.722,-0.017 -7.495,-1.783 -7.543,-7.638 v 0 c -0.068,-8.149 -0.057,-16.299 0,-24.447 v 0 c 0.035,-5.255 1.848,-7.09 7.029,-7.14 v 0 c 6.262,-0.061 12.53,-0.14 18.788,0.04 v 0 c 2.904,0.084 5.064,-0.92 7.101,-2.846 v 0 c 2.672,-2.525 5.324,-5.114 9.114,-7.401 v 0 c 0,3.02 0,5.466 -10e-4,7.912 v 0 c 0,1.173 0.168,2.036 1.66,2.307 v 0 c 4.075,0.738 4.956,3.703 4.93,7.341 v 0 c -0.058,8.149 0.012,16.299 -0.028,24.448 v 0 c -0.029,5.589 -1.772,7.398 -7.225,7.419 v 0 c -5.503,0.022 -11.007,0.031 -16.51,0.031 v 0 c -5.771,0 -11.541,-0.01 -17.312,-0.026"
                 style="fill:url(#linearGradient569);stroke:none"
                 id="path571" />
            </g>
          </g>
        </g>
      </g>
      <g
         id="g573">
        <g
           id="g575">
          <g
             id="g581">
            <g
               id="g583">
              <path
                 d="m 1698.372,818.4 c -0.058,-2.006 1.534,-3.72 3.409,-3.673 v 0 c 1.827,0.045 3.142,1.424 3.147,3.299 v 0 c 0.01,2.157 -0.941,3.147 -3.081,3.221 v 0 c -0.074,0.003 -0.147,0.004 -0.219,0.004 v 0 c -2.045,0 -3.202,-1.01 -3.256,-2.851"
                 style="fill:url(#linearGradient591);stroke:none"
                 id="path593" />
            </g>
          </g>
        </g>
      </g>
      <g
         id="g595">
        <g
           id="g597">
          <g
             id="g603">
            <g
               id="g605">
              <path
                 d="m 1719.793,818.408 c -0.158,-2.218 1.133,-3.682 3.261,-3.703 v 0 c 1.719,-0.018 3.18,1.445 3.292,3.291 v 0 c 0.119,1.981 -0.996,3.153 -3.094,3.255 v 0 c -0.117,0.005 -0.23,0.008 -0.34,0.008 v 0 c -1.988,0 -2.982,-0.912 -3.119,-2.851"
                 style="fill:url(#linearGradient613);stroke:none"
                 id="path615" />
            </g>
          </g>
        </g>
      </g>
      <g
         id="g617">
        <g
           id="g619">
          <g
             id="g625">
            <g
               id="g627">
              <path
                 d="m 1712.602,821.249 c -2.154,-0.032 -3.138,-1.011 -3.164,-3.148 v 0 c -0.024,-1.958 1.19,-3.283 3.081,-3.368 v 0 c 1.914,-0.084 3.528,1.575 3.479,3.575 v 0 c -0.047,1.947 -1.159,2.942 -3.29,2.942 v 0 c -0.035,0 -0.071,0 -0.106,-10e-4"
                 style="fill:url(#linearGradient635);stroke:none"
                 id="path637" />
            </g>
          </g>
        </g>
      </g>
    </g>
  </g>
</svg>
