<?xml version="1.0" encoding="UTF-8" standalone="no"?>
<svg
   xmlns:dc="http://purl.org/dc/elements/1.1/"
   xmlns:cc="http://creativecommons.org/ns#"
   xmlns:rdf="http://www.w3.org/1999/02/22-rdf-syntax-ns#"
   xmlns:svg="http://www.w3.org/2000/svg"
   xmlns="http://www.w3.org/2000/svg"
   xmlns:sodipodi="http://sodipodi.sourceforge.net/DTD/sodipodi-0.dtd"
   xmlns:inkscape="http://www.inkscape.org/namespaces/inkscape"
   sodipodi:docname="microphone.svg"
   inkscape:version="1.0 (6e3e5246a0, 2020-05-07)"
   id="svg18274"
   version="1.1"
   viewBox="0 0 16.726851 26.333483"
   height="26.333483mm"
   width="16.726851mm">
  <defs
     id="defs18268">
    <linearGradient
       id="linearGradient305"
       spreadMethod="pad"
       gradientTransform="matrix(29.597115,0,0,-29.597115,845.72546,715.67896)"
       gradientUnits="userSpaceOnUse"
       y2="0"
       x2="1"
       y1="0"
       x1="0">
      <stop
         id="stop299"
         offset="0"
         style="stop-opacity:1;stop-color:#63d7c2" />
      <stop
         id="stop301"
         offset="0.67807152"
         style="stop-opacity:1;stop-color:#63d7c2" />
      <stop
         id="stop303"
         offset="1"
         style="stop-opacity:1;stop-color:#1e0757" />
    </linearGradient>
    <linearGradient
       id="linearGradient327"
       spreadMethod="pad"
       gradientTransform="matrix(47.414955,0,0,-47.414955,836.8573,685.94122)"
       gradientUnits="userSpaceOnUse"
       y2="0"
       x2="1"
       y1="0"
       x1="0">
      <stop
         id="stop321"
         offset="0"
         style="stop-opacity:1;stop-color:#e35db8" />
      <stop
         id="stop323"
         offset="0.60396321"
         style="stop-opacity:1;stop-color:#1e0757" />
      <stop
         id="stop325"
         offset="1"
         style="stop-opacity:1;stop-color:#1e0757" />
    </linearGradient>
  </defs>
  <sodipodi:namedview
     inkscape:window-maximized="0"
     inkscape:window-y="27"
     inkscape:window-x="122"
     inkscape:window-height="1016"
     inkscape:window-width="1428"
     showgrid="false"
     inkscape:document-rotation="0"
     inkscape:current-layer="layer1"
     inkscape:document-units="mm"
     inkscape:cy="515.47835"
     inkscape:cx="280.18124"
     inkscape:zoom="0.35"
     inkscape:pageshadow="2"
     inkscape:pageopacity="0.0"
     borderopacity="1.0"
     bordercolor="#666666"
     pagecolor="#ffffff"
     id="base" />
  <metadata
     id="metadata18271">
    <rdf:RDF>
      <cc:Work
         rdf:about="">
        <dc:format>image/svg+xml</dc:format>
        <dc:type
           rdf:resource="http://purl.org/dc/dcmitype/StillImage" />
        <dc:title></dc:title>
      </cc:Work>
    </rdf:RDF>
  </metadata>
  <g
     transform="translate(-31.702048,-11.779687)"
     id="layer1"
     inkscape:groupmode="layer"
     inkscape:label="Layer 1">
    <g
       transform="matrix(0.35277777,0,0,-0.35277777,-263.52261,272.24257)"
       id="g13734">
      <g
         id="g287">
        <g
           id="g289">
          <g
             id="g295">
            <g
               id="g297">
              <path
                 d="m 847.357,729.703 c -0.53,-1.041 0.216,-2.283 1.383,-2.346 v 0 c 0.322,-0.018 0.64,-0.016 0.952,-0.013 v 0 c 0.525,0.004 1.038,0.008 1.541,-0.08 v 0 c 1.009,-0.178 1.884,-0.71 2.052,-1.637 v 0 c 0.257,-1.424 -1.051,-1.917 -2.061,-2.195 v 0 c -1.237,-0.341 -2.575,-0.301 -3.869,-0.446 v 0 c -0.883,-0.098 -1.289,-0.698 -1.299,-1.507 v 0 c -0.01,-0.811 0.416,-1.459 1.255,-1.562 v 0 c 1.474,-0.18 2.967,-0.21 4.441,-0.38 v 0 c 0.829,-0.096 1.396,-0.764 1.462,-1.486 v 0 c 0.071,-0.756 -0.535,-1.439 -1.297,-1.568 v 0 c -1.459,-0.246 -2.947,-0.315 -4.423,-0.467 v 0 c -0.856,-0.089 -1.394,-0.638 -1.401,-1.434 v 0 c -0.006,-0.796 0.525,-1.356 1.379,-1.448 v 0 c 1.476,-0.158 2.963,-0.225 4.425,-0.463 v 0 c 0.775,-0.126 1.379,-0.824 1.324,-1.561 v 0 c -0.054,-0.71 -0.624,-1.349 -1.451,-1.504 v 0 c -0.546,-0.102 -1.105,-0.132 -1.657,-0.205 v 0 c -4.194,-0.568 -4.942,-1.503 -4.058,-5.617 v 0 c 0.304,-1.42 0.877,-2.903 1.722,-4.072 v 0 c 7.517,-10.404 21.672,-7.783 26.177,1.921 v 0 c 0.965,2.077 1.875,4.265 1.041,6.443 v 0 c -0.598,1.563 -1.872,1.447 -3.151,1.331 v 0 c -0.624,-0.057 -1.251,-0.113 -1.8,0.024 v 0 c -0.179,0.045 -0.377,0.014 -0.553,0.064 v 0 c -0.699,0.199 -1.535,0.271 -1.63,1.228 v 0 c -0.11,1.115 0.612,1.767 1.538,1.983 v 0 c 1.074,0.251 2.209,0.237 3.317,0.332 v 0 c 1.12,0.094 2.4,0.103 2.302,1.688 v 0 c -0.073,1.173 -1.106,1.312 -2.066,1.373 v 0 c -1.114,0.07 -2.244,0.054 -3.337,0.25 v 0 c -0.958,0.172 -1.77,0.834 -1.806,1.845 v 0 c -0.042,1.177 0.947,1.458 1.922,1.512 v 0 c 1.116,0.064 2.237,0.045 3.354,0.089 v 0 c 0.999,0.039 1.906,0.366 1.995,1.492 v 0 c 0.123,1.545 -1.034,1.733 -2.208,1.808 v 0 c -1.112,0.071 -2.244,0.045 -3.331,0.252 v 0 c -0.953,0.182 -1.694,0.843 -1.763,1.888 v 0 c -0.074,1.122 0.771,1.601 1.677,1.911 v 0 c 0.771,0.265 1.61,0.178 2.427,0.22 v 0 c 1.063,0.051 1.825,1.091 1.49,2.103 v 0 c -1.629,4.922 -6.285,8.326 -12.247,8.809 v 0 c -0.347,0.028 -0.694,0.042 -1.038,0.042 v 0 c -5.196,0 -9.962,-3.182 -12.73,-8.617"
                 style="fill:url(#linearGradient305);stroke:none"
                 id="path307" />
            </g>
          </g>
        </g>
      </g>
      <g
         id="g309">
        <g
           id="g311">
          <g
             id="g317">
            <g
               id="g319">
              <path
                 d="m 879.485,706.246 c -0.171,-1.47 -0.474,-2.948 -0.932,-4.353 v 0 c -4.552,-13.974 -22.243,-18.162 -31.913,-7.336 v 0 c -2.84,3.179 -4.82,6.626 -5.234,10.862 v 0 c -0.167,1.701 -0.519,2.918 -2.581,2.771 v 0 c -2.298,-0.162 -1.974,-1.901 -1.924,-3.31 v 0 c 0.055,-1.489 0.248,-2.975 0.671,-4.405 v 0 c 2.661,-8.984 9.267,-14.329 18.917,-16.777 v 0 c 0.587,-0.149 1.081,-0.555 1.329,-1.108 v 0 c 0.829,-1.847 0.386,-4.345 0.318,-6.545 v 0 c -0.074,-2.387 0.927,-5.178 -0.613,-7.057 v 0 c -1.008,-1.229 -2.596,-1.07 -4.191,-0.911 v 0 c -0.747,0.075 -1.496,0.15 -2.188,0.082 v 0 c -1.398,-0.137 -2.665,-0.318 -2.622,-2.127 v 0 c 0.038,-1.628 1.056,-2.31 2.543,-2.33 v 0 c 2.985,-0.038 5.972,-0.011 8.959,-0.011 v 0 -0.009 c 3.171,0 6.344,0.014 9.516,-0.008 v 0 c 1.562,-0.01 2.553,0.756 2.665,2.256 v 0 c 0.126,1.68 -1.081,2.169 -2.532,2.2 v 0 c -1.119,0.025 -2.244,0.098 -3.357,0.018 v 0 c -2.327,-0.167 -3.466,0.701 -3.348,3.186 v 0 c 0.125,2.609 0.235,5.25 -0.031,7.838 v 0 c -0.319,3.119 0.642,4.826 3.875,5.445 v 0 c 4.969,0.95 8.816,3.923 12.054,7.659 v 0 c 3.277,3.782 4.953,8.291 5.382,13.253 v 0 c 0.12,1.387 -0.159,2.634 -2.01,2.675 v 0 c -0.084,0.002 -0.167,0.003 -0.249,0.003 v 0 c -1.316,0 -2.307,-0.281 -2.504,-1.961"
                 style="fill:url(#linearGradient327);stroke:none"
                 id="path329" />
            </g>
          </g>
        </g>
      </g>
    </g>
  </g>
</svg>
