<?xml version="1.0" encoding="UTF-8" standalone="no"?>
<svg
   xmlns:dc="http://purl.org/dc/elements/1.1/"
   xmlns:cc="http://creativecommons.org/ns#"
   xmlns:rdf="http://www.w3.org/1999/02/22-rdf-syntax-ns#"
   xmlns:svg="http://www.w3.org/2000/svg"
   xmlns="http://www.w3.org/2000/svg"
   xmlns:sodipodi="http://sodipodi.sourceforge.net/DTD/sodipodi-0.dtd"
   xmlns:inkscape="http://www.inkscape.org/namespaces/inkscape"
   sodipodi:docname="notification.svg"
   inkscape:version="1.0 (6e3e5246a0, 2020-05-07)"
   id="svg17908"
   version="1.1"
   viewBox="0 0 18.553553 24.118006"
   height="24.118006mm"
   width="18.553553mm">
  <defs
     id="defs17902">
    <linearGradient
       id="linearGradient8415"
       spreadMethod="pad"
       gradientTransform="matrix(49.448898,22.653929,22.653929,-49.448898,186.6288,687.20312)"
       gradientUnits="userSpaceOnUse"
       y2="0"
       x2="1"
       y1="0"
       x1="0">
      <stop
         id="stop8409"
         offset="0"
         style="stop-opacity:1;stop-color:#63d7c2" />
      <stop
         id="stop8411"
         offset="0.59296646"
         style="stop-opacity:1;stop-color:#63d7c2" />
      <stop
         id="stop8413"
         offset="1"
         style="stop-opacity:1;stop-color:#1e0757" />
    </linearGradient>
    <linearGradient
       id="linearGradient8437"
       spreadMethod="pad"
       gradientTransform="matrix(-40.466431,19.515724,19.515724,40.466431,235.17659,666.93921)"
       gradientUnits="userSpaceOnUse"
       y2="0"
       x2="1"
       y1="0"
       x1="0">
      <stop
         id="stop8431"
         offset="0"
         style="stop-opacity:1;stop-color:#4d1f81" />
      <stop
         id="stop8433"
         offset="0.32192848"
         style="stop-opacity:1;stop-color:#f263bd" />
      <stop
         id="stop8435"
         offset="1"
         style="stop-opacity:1;stop-color:#f263bd" />
    </linearGradient>
  </defs>
  <sodipodi:namedview
     inkscape:window-maximized="0"
     inkscape:window-y="27"
     inkscape:window-x="122"
     inkscape:window-height="1016"
     inkscape:window-width="1428"
     showgrid="false"
     inkscape:document-rotation="0"
     inkscape:current-layer="layer1"
     inkscape:document-units="mm"
     inkscape:cy="451.29162"
     inkscape:cx="1432.2047"
     inkscape:zoom="0.35"
     inkscape:pageshadow="2"
     inkscape:pageopacity="0.0"
     borderopacity="1.0"
     bordercolor="#666666"
     pagecolor="#ffffff"
     id="base" />
  <metadata
     id="metadata17905">
    <rdf:RDF>
      <cc:Work
         rdf:about="">
        <dc:format>image/svg+xml</dc:format>
        <dc:type
           rdf:resource="http://purl.org/dc/dcmitype/StillImage" />
        <dc:title></dc:title>
      </cc:Work>
    </rdf:RDF>
  </metadata>
  <g
     transform="translate(273.10416,-28.762426)"
     id="layer1"
     inkscape:groupmode="layer"
     inkscape:label="Layer 1">
    <g
       transform="matrix(0.35277777,0,0,-0.35277777,-341.18392,288.11794)"
       id="g13693">
      <g
         id="g8397">
        <g
           id="g8399">
          <g
             id="g8405">
            <g
               id="g8407">
              <path
                 d="m 219.742,735.178 c -3.194,-0.081 -4.073,-1.836 -3.866,-4.626 v 0 c 0.146,-1.97 -0.438,-2.952 -2.605,-3.56 v 0 c -8.165,-2.289 -12.979,-11.477 -12.4,-17.886 v 0 c 0.024,-0.262 -0.036,-0.537 0.009,-0.793 v 0 c 1.559,-8.783 -1.582,-15.944 -7.021,-22.314 v 0 c -0.556,-0.653 -0.877,-1.472 -0.877,-2.329 v 0 -0.22 c 0,-1.456 0.895,-2.765 2.252,-3.292 v 0 c 0.91,-0.354 1.823,-0.651 2.735,-0.659 v 0 c 14.327,-0.122 28.656,-0.119 42.983,10e-4 v 0 c 1.512,0.013 3.952,0.67 4.311,1.648 v 0 c 0.564,1.529 0.368,4.136 -0.631,5.331 v 0 c -5.697,6.811 -7.475,14.45 -6.79,23.242 v 0 c 0.599,7.674 -4.08,14.384 -11.171,17.105 v 0 c -2.05,0.785 -2.989,1.471 -2.976,3.759 v 0 c 0.014,2.424 -0.589,4.596 -3.766,4.596 v 0 c -0.061,0 -0.124,-0.001 -0.187,-0.003"
                 style="fill:url(#linearGradient8415);stroke:none"
                 id="path8417" />
            </g>
          </g>
        </g>
      </g>
      <g
         id="g8419">
        <g
           id="g8421">
          <g
             id="g8427">
            <g
               id="g8429">
              <path
                 d="m 207.919,678.175 c 0,-6.275 5.086,-11.36 11.36,-11.36 v 0 c 6.274,0 11.36,5.085 11.36,11.36 v 0 z"
                 style="fill:url(#linearGradient8437);stroke:none"
                 id="path8439" />
            </g>
          </g>
        </g>
      </g>
    </g>
  </g>
</svg>
