<?xml version="1.0" encoding="UTF-8" standalone="no"?>
<svg
   xmlns:dc="http://purl.org/dc/elements/1.1/"
   xmlns:cc="http://creativecommons.org/ns#"
   xmlns:rdf="http://www.w3.org/1999/02/22-rdf-syntax-ns#"
   xmlns:svg="http://www.w3.org/2000/svg"
   xmlns="http://www.w3.org/2000/svg"
   xmlns:sodipodi="http://sodipodi.sourceforge.net/DTD/sodipodi-0.dtd"
   xmlns:inkscape="http://www.inkscape.org/namespaces/inkscape"
   sodipodi:docname="paintbrushes.svg"
   inkscape:version="1.0 (6e3e5246a0, 2020-05-07)"
   id="svg19107"
   version="1.1"
   viewBox="0 0 29.608004 30.218439"
   height="30.218439mm"
   width="29.608004mm">
  <defs
     id="defs19101">
    <linearGradient
       x1="0"
       y1="0"
       x2="1"
       y2="0"
       gradientUnits="userSpaceOnUse"
       gradientTransform="matrix(21.430399,0,0,-21.430399,1274.7028,314.5871)"
       spreadMethod="pad"
       id="linearGradient666">
      <stop
         style="stop-opacity:1;stop-color:#63d7c2"
         offset="0"
         id="stop660" />
      <stop
         style="stop-opacity:1;stop-color:#63d7c2"
         offset="0.67807152"
         id="stop662" />
      <stop
         style="stop-opacity:1;stop-color:#1e0757"
         offset="1"
         id="stop664" />
    </linearGradient>
    <linearGradient
       x1="0"
       y1="0"
       x2="1"
       y2="0"
       gradientUnits="userSpaceOnUse"
       gradientTransform="matrix(37.885014,0,0,-37.885014,1278.119,269.44046)"
       spreadMethod="pad"
       id="linearGradient688">
      <stop
         style="stop-opacity:1;stop-color:#63d7c2"
         offset="0"
         id="stop682" />
      <stop
         style="stop-opacity:1;stop-color:#63d7c2"
         offset="0.67807152"
         id="stop684" />
      <stop
         style="stop-opacity:1;stop-color:#1e0757"
         offset="1"
         id="stop686" />
    </linearGradient>
    <linearGradient
       x1="0"
       y1="0"
       x2="1"
       y2="0"
       gradientUnits="userSpaceOnUse"
       gradientTransform="matrix(30.808964,0,0,-30.808964,1247.4893,277.78021)"
       spreadMethod="pad"
       id="linearGradient710">
      <stop
         style="stop-opacity:1;stop-color:#63d7c2"
         offset="0"
         id="stop704" />
      <stop
         style="stop-opacity:1;stop-color:#63d7c2"
         offset="0.67807152"
         id="stop706" />
      <stop
         style="stop-opacity:1;stop-color:#1e0757"
         offset="1"
         id="stop708" />
    </linearGradient>
    <linearGradient
       x1="0"
       y1="0"
       x2="1"
       y2="0"
       gradientUnits="userSpaceOnUse"
       gradientTransform="matrix(14.75786,0,0,-14.75786,1278.0995,275.94067)"
       spreadMethod="pad"
       id="linearGradient732">
      <stop
         style="stop-opacity:1;stop-color:#f6d348"
         offset="0"
         id="stop726" />
      <stop
         style="stop-opacity:1;stop-color:#f6d348"
         offset="0.03027482"
         id="stop728" />
      <stop
         style="stop-opacity:1;stop-color:#f263bd"
         offset="1"
         id="stop730" />
    </linearGradient>
    <linearGradient
       x1="0"
       y1="0"
       x2="1"
       y2="0"
       gradientUnits="userSpaceOnUse"
       gradientTransform="matrix(22.978067,0,0,-22.978067,1303.5371,303.01224)"
       spreadMethod="pad"
       id="linearGradient754">
      <stop
         style="stop-opacity:1;stop-color:#e35db8"
         offset="0"
         id="stop748" />
      <stop
         style="stop-opacity:1;stop-color:#1e0757"
         offset="0.60396321"
         id="stop750" />
      <stop
         style="stop-opacity:1;stop-color:#1e0757"
         offset="1"
         id="stop752" />
    </linearGradient>
    <linearGradient
       x1="0"
       y1="0"
       x2="1"
       y2="0"
       gradientUnits="userSpaceOnUse"
       gradientTransform="matrix(15.096543,0,0,-15.096543,1311.1776,304.61551)"
       spreadMethod="pad"
       id="linearGradient776">
      <stop
         style="stop-opacity:1;stop-color:#f6d348"
         offset="0"
         id="stop770" />
      <stop
         style="stop-opacity:1;stop-color:#f6d348"
         offset="0.03027482"
         id="stop772" />
      <stop
         style="stop-opacity:1;stop-color:#f263bd"
         offset="1"
         id="stop774" />
    </linearGradient>
    <linearGradient
       x1="0"
       y1="0"
       x2="1"
       y2="0"
       gradientUnits="userSpaceOnUse"
       gradientTransform="matrix(10.769428,0,0,-10.769428,1242.587,307.71826)"
       spreadMethod="pad"
       id="linearGradient798">
      <stop
         style="stop-opacity:1;stop-color:#e35db8"
         offset="0"
         id="stop792" />
      <stop
         style="stop-opacity:1;stop-color:#1e0757"
         offset="0.60396321"
         id="stop794" />
      <stop
         style="stop-opacity:1;stop-color:#1e0757"
         offset="1"
         id="stop796" />
    </linearGradient>
  </defs>
  <sodipodi:namedview
     inkscape:window-maximized="0"
     inkscape:window-y="27"
     inkscape:window-x="122"
     inkscape:window-height="1016"
     inkscape:window-width="1428"
     showgrid="false"
     inkscape:document-rotation="0"
     inkscape:current-layer="layer1"
     inkscape:document-units="mm"
     inkscape:cy="57.105718"
     inkscape:cx="55.952128"
     inkscape:zoom="0.35"
     inkscape:pageshadow="2"
     inkscape:pageopacity="0.0"
     borderopacity="1.0"
     bordercolor="#666666"
     pagecolor="#ffffff"
     id="base" />
  <metadata
     id="metadata19104">
    <rdf:RDF>
      <cc:Work
         rdf:about="">
        <dc:format>image/svg+xml</dc:format>
        <dc:type
           rdf:resource="http://purl.org/dc/dcmitype/StillImage" />
        <dc:title></dc:title>
      </cc:Work>
    </rdf:RDF>
  </metadata>
  <g
     transform="translate(-91.029333,-133.05745)"
     id="layer1"
     inkscape:groupmode="layer"
     inkscape:label="Layer 1">
    <g
       transform="matrix(0.35277777,0,0,-0.35277777,-347.32777,249.20494)"
       id="g10478">
      <g
         id="g648">
        <g
           id="g650">
          <g
             id="g656">
            <g
               id="g658">
              <path
                 id="path668"
                 style="fill:url(#linearGradient666);stroke:none"
                 d="m 1285.266,329.237 c -0.028,-0.392 -0.316,-0.642 -0.525,-0.922 v 0 c -3.226,-4.335 -6.454,-8.667 -9.701,-12.985 v 0 c -0.401,-0.533 -0.444,-0.961 -0.132,-1.578 v 0 c 2.31,-4.591 4.578,-9.203 6.86,-13.809 v 0 c 2.438,-0.002 4.876,-0.004 7.312,-0.006 v 0 c 0.129,0.307 0.241,0.62 0.388,0.917 v 0 c 2.147,4.331 4.285,8.668 6.466,12.982 v 0 c 0.298,0.588 0.263,0.985 -0.119,1.492 v 0 c -2.585,3.428 -5.169,6.859 -7.711,10.323 v 0 c -0.861,1.174 -1.883,2.241 -2.506,3.586 v 0 z" />
            </g>
          </g>
        </g>
      </g>
      <g
         id="g670">
        <g
           id="g672">
          <g
             id="g678">
            <g
               id="g680">
              <path
                 id="path690"
                 style="fill:url(#linearGradient688);stroke:none"
                 d="m 1292.856,277.452 c -4.498,-7.505 -8.997,-15.008 -13.494,-22.514 v 0 c -0.56,-0.935 -0.91,-1.955 -1.199,-3 v 0 c -0.153,-1.016 0.145,-2.012 0.135,-3.02 v 0 c 0.159,-0.066 0.18,-0.197 0.153,-0.346 v 0 c 0.119,-0.249 0.233,-0.502 0.356,-0.75 v 0 c 0.965,-1.931 2.421,-3.335 4.506,-3.919 v 0 c 3.559,-0.997 6.612,0.327 8.596,3.64 v 0 c 7.655,12.775 15.31,25.551 22.959,38.329 v 0 c 0.397,0.663 0.865,1.287 1.136,2.024 v 0 c -3.057,1.836 -6.109,3.682 -9.174,5.503 v 0 c -1.09,0.648 -2.117,1.407 -3.293,1.904 v 0 c -3.561,-5.95 -7.12,-11.9 -10.681,-17.851" />
            </g>
          </g>
        </g>
      </g>
      <g
         id="g692">
        <g
           id="g694">
          <g
             id="g700">
            <g
               id="g702">
              <path
                 id="path712"
                 style="fill:url(#linearGradient710);stroke:none"
                 d="m 1247.489,302.775 c 0.014,-0.353 0.214,-0.623 0.399,-0.901 v 0 c 0.689,-1.044 1.37,-2.092 2.066,-3.131 v 0 c 0.251,-0.373 0.436,-0.754 0.488,-1.216 v 0 c 0.24,-2.094 0.506,-4.187 0.758,-6.281 v 0 c 0.083,-0.686 0.142,-1.355 0.547,-1.972 v 0 c 3.541,-5.384 7.06,-10.784 10.588,-16.178 v 0 c 4.655,-7.114 9.305,-14.233 13.974,-21.336 v 0 c 0.634,-0.966 1.153,-2.018 1.989,-2.842 v 0 c 0.01,1.008 -0.288,2.004 -0.135,3.02 v 0 c -0.013,1.5 -0.033,3 -0.036,4.502 v 0 c -0.012,6.42 -0.019,12.841 -0.027,19.262 v 0 c -0.164,0.223 -0.336,0.439 -0.487,0.669 v 0 c -4.501,6.878 -9.004,13.756 -13.495,20.641 v 0 c -0.402,0.617 -0.863,1.116 -1.527,1.477 v 0 c -1.41,0.764 -2.754,1.656 -4.174,2.4 v 0 c -1.333,0.698 -2.405,1.584 -3.149,2.94 v 0 c -0.541,0.987 -1.15,1.961 -1.912,2.814 v 0 c -1.918,-1.348 -3.803,-2.744 -5.867,-3.868" />
            </g>
          </g>
        </g>
      </g>
      <g
         id="g714">
        <g
           id="g716">
          <g
             id="g722">
            <g
               id="g724">
              <path
                 id="path734"
                 style="fill:url(#linearGradient732);stroke:none"
                 d="m 1278.252,289.365 c -0.119,-0.354 -0.122,-0.707 -0.122,-1.066 v 0 c -0.011,-4.2 -0.021,-8.397 -0.03,-12.597 v 0 c 0.01,-6.421 0.015,-12.842 0.027,-19.262 v 0 c 0,-1.502 0.023,-3.002 0.036,-4.502 v 0 c 0.289,1.045 0.639,2.065 1.199,3 v 0 c 4.497,7.506 8.996,15.009 13.495,22.515 v 0 c -0.246,0.291 -0.142,0.641 -0.143,0.964 v 0 c -0.01,3.284 -0.01,6.57 -10e-4,9.854 v 0 c 0,0.452 -0.066,0.877 -0.208,1.306 v 0 c -1.147,3.451 -2.284,6.906 -3.425,10.36 v 0 c -2.436,0.002 -4.874,0.004 -7.312,0.006 v 0 c -1.171,-3.526 -2.336,-7.054 -3.516,-10.578" />
            </g>
          </g>
        </g>
      </g>
      <g
         id="g736">
        <g
           id="g738">
          <g
             id="g744">
            <g
               id="g746">
              <path
                 id="path756"
                 style="fill:url(#linearGradient754);stroke:none"
                 d="m 1325.18,317.955 c -1.804,-0.848 -3.606,-1.702 -5.407,-2.556 v 0 c -2.077,-0.986 -4.135,-2.01 -6.232,-2.951 v 0 c -2.363,-1.061 -4.602,-2.26 -6.299,-4.317 v 0 c -1.218,-1.478 -2.148,-3.087 -2.707,-4.921 v 0 c -0.786,-2.579 -0.59,-5.281 -0.998,-7.907 v 0 c 1.176,-0.497 2.203,-1.256 3.293,-1.904 v 0 c 3.065,-1.821 6.117,-3.667 9.174,-5.503 v 0 c 0.729,0.219 1.28,0.748 1.903,1.144 v 0 c 2.023,1.282 4.077,2.502 5.613,4.45 v 0 c 1.781,2.257 2.695,4.816 2.947,7.627 v 0 c 0.175,1.965 -0.181,3.931 -0.193,5.901 v 0 c -2.601,-0.689 -5.363,-0.818 -7.797,-2.072 v 0 c -1.836,-0.947 -3.08,-2.478 -3.646,-4.526 v 0 c -0.143,-0.521 -0.248,-1.1 -0.761,-1.432 v 0 c -0.62,-0.401 -1.274,-0.553 -1.951,-0.157 v 0 c -0.746,0.437 -1.082,1.18 -0.887,2.075 v 0 c 0.372,1.712 1.148,3.244 2.255,4.584 v 0 c 1.865,2.254 4.301,3.489 7.15,4.006 v 0 c 1.622,0.294 3.223,0.71 4.835,1.063 v 0 c 0.213,0.047 0.434,0.05 0.651,0.073 v 0 c -0.101,2.357 -0.21,4.714 -0.297,7.074 v 0 c -0.012,0.324 -0.099,0.423 -0.218,0.423 v 0 c -0.124,0 -0.282,-0.105 -0.428,-0.174" />
            </g>
          </g>
        </g>
      </g>
      <g
         id="g758">
        <g
           id="g760">
          <g
             id="g766">
            <g
               id="g768">
              <path
                 id="path778"
                 style="fill:url(#linearGradient776);stroke:none"
                 d="m 1325.472,310.559 c -1.612,-0.353 -3.213,-0.769 -4.835,-1.063 v 0 c -2.849,-0.517 -5.285,-1.752 -7.15,-4.006 v 0 c -1.107,-1.34 -1.883,-2.872 -2.255,-4.584 v 0 c -0.195,-0.895 0.141,-1.638 0.887,-2.075 v 0 c 0.677,-0.396 1.331,-0.244 1.951,0.157 v 0 c 0.513,0.332 0.618,0.911 0.761,1.432 v 0 c 0.566,2.048 1.81,3.579 3.646,4.526 v 0 c 2.434,1.254 5.196,1.383 7.797,2.072 v 0 c -0.05,1.205 -0.102,2.409 -0.151,3.614 v 0 c -0.217,-0.023 -0.438,-0.026 -0.651,-0.073" />
            </g>
          </g>
        </g>
      </g>
      <g
         id="g780">
        <g
           id="g782">
          <g
             id="g788">
            <g
               id="g790">
              <path
                 id="path800"
                 style="fill:url(#linearGradient798);stroke:none"
                 d="m 1248.841,312.579 c -1.893,-0.684 -3.786,-1.37 -5.693,-2.012 v 0 c -0.629,-0.213 -0.712,-0.437 -0.334,-0.997 v 0 c 1.161,-1.721 2.255,-3.488 3.421,-5.205 v 0 c 0.377,-0.556 0.565,-1.28 1.254,-1.59 v 0 c 2.064,1.124 3.949,2.52 5.867,3.868 v 0 c -1.097,1.986 -2.417,3.83 -3.639,5.737 v 0 c -0.131,0.204 -0.295,0.281 -0.484,0.281 v 0 c -0.121,0 -0.253,-0.032 -0.392,-0.082" />
            </g>
          </g>
        </g>
      </g>
    </g>
  </g>
</svg>
