<?xml version="1.0" encoding="UTF-8" standalone="no"?>
<svg
   xmlns:dc="http://purl.org/dc/elements/1.1/"
   xmlns:cc="http://creativecommons.org/ns#"
   xmlns:rdf="http://www.w3.org/1999/02/22-rdf-syntax-ns#"
   xmlns:svg="http://www.w3.org/2000/svg"
   xmlns="http://www.w3.org/2000/svg"
   xmlns:sodipodi="http://sodipodi.sourceforge.net/DTD/sodipodi-0.dtd"
   xmlns:inkscape="http://www.inkscape.org/namespaces/inkscape"
   sodipodi:docname="planet.svg"
   inkscape:version="1.0 (6e3e5246a0, 2020-05-07)"
   id="svg14547"
   version="1.1"
   viewBox="0 0 19.758392 19.804239"
   height="19.804239mm"
   width="19.758392mm">
  <defs
     id="defs14541">
    <linearGradient
       x1="0"
       y1="0"
       x2="1"
       y2="0"
       gradientUnits="userSpaceOnUse"
       gradientTransform="matrix(56.00824,0,0,-56.00824,394.80566,428.59171)"
       spreadMethod="pad"
       id="linearGradient1936">
      <stop
         style="stop-opacity:1;stop-color:#e35db8"
         offset="0"
         id="stop1930" />
      <stop
         style="stop-opacity:1;stop-color:#1e0757"
         offset="0.60396321"
         id="stop1932" />
      <stop
         style="stop-opacity:1;stop-color:#1e0757"
         offset="1"
         id="stop1934" />
    </linearGradient>
    <linearGradient
       x1="0"
       y1="0"
       x2="1"
       y2="0"
       gradientUnits="userSpaceOnUse"
       gradientTransform="matrix(41.231533,0,0,-41.231533,397.28888,437.53271)"
       spreadMethod="pad"
       id="linearGradient1958">
      <stop
         style="stop-opacity:1;stop-color:#63d7c2"
         offset="0"
         id="stop1952" />
      <stop
         style="stop-opacity:1;stop-color:#63d7c2"
         offset="0.67807152"
         id="stop1954" />
      <stop
         style="stop-opacity:1;stop-color:#1e0757"
         offset="1"
         id="stop1956" />
    </linearGradient>
    <linearGradient
       x1="0"
       y1="0"
       x2="1"
       y2="0"
       gradientUnits="userSpaceOnUse"
       gradientTransform="matrix(47.321716,0,0,-47.321716,401.08041,423.51431)"
       spreadMethod="pad"
       id="linearGradient1980">
      <stop
         style="stop-opacity:1;stop-color:#63d7c2"
         offset="0"
         id="stop1974" />
      <stop
         style="stop-opacity:1;stop-color:#63d7c2"
         offset="0.67807152"
         id="stop1976" />
      <stop
         style="stop-opacity:1;stop-color:#1e0757"
         offset="1"
         id="stop1978" />
    </linearGradient>
    <linearGradient
       x1="0"
       y1="0"
       x2="1"
       y2="0"
       gradientUnits="userSpaceOnUse"
       gradientTransform="matrix(28.359209,0,0,-28.359209,399.17416,444.9534)"
       spreadMethod="pad"
       id="linearGradient2002">
      <stop
         style="stop-opacity:1;stop-color:#f6d348"
         offset="0"
         id="stop1996" />
      <stop
         style="stop-opacity:1;stop-color:#f6d348"
         offset="0.03027482"
         id="stop1998" />
      <stop
         style="stop-opacity:1;stop-color:#f263bd"
         offset="1"
         id="stop2000" />
    </linearGradient>
    <linearGradient
       x1="0"
       y1="0"
       x2="1"
       y2="0"
       gradientUnits="userSpaceOnUse"
       gradientTransform="matrix(45.028729,0,0,-45.028729,398.31165,431.31818)"
       spreadMethod="pad"
       id="linearGradient2024">
      <stop
         style="stop-opacity:1;stop-color:#f6d348"
         offset="0"
         id="stop2018" />
      <stop
         style="stop-opacity:1;stop-color:#f6d348"
         offset="0.03027482"
         id="stop2020" />
      <stop
         style="stop-opacity:1;stop-color:#f263bd"
         offset="1"
         id="stop2022" />
    </linearGradient>
    <linearGradient
       x1="0"
       y1="0"
       x2="1"
       y2="0"
       gradientUnits="userSpaceOnUse"
       gradientTransform="matrix(33.373318,0,0,-33.373318,413.86893,412.10834)"
       spreadMethod="pad"
       id="linearGradient2046">
      <stop
         style="stop-opacity:1;stop-color:#f6d348"
         offset="0"
         id="stop2040" />
      <stop
         style="stop-opacity:1;stop-color:#f6d348"
         offset="0.03027482"
         id="stop2042" />
      <stop
         style="stop-opacity:1;stop-color:#f263bd"
         offset="1"
         id="stop2044" />
    </linearGradient>
  </defs>
  <sodipodi:namedview
     inkscape:window-maximized="0"
     inkscape:window-y="27"
     inkscape:window-x="492"
     inkscape:window-height="1016"
     inkscape:window-width="1428"
     showgrid="false"
     inkscape:document-rotation="0"
     inkscape:current-layer="layer1"
     inkscape:document-units="mm"
     inkscape:cy="-474.00324"
     inkscape:cx="125.91012"
     inkscape:zoom="0.35"
     inkscape:pageshadow="2"
     inkscape:pageopacity="0.0"
     borderopacity="1.0"
     bordercolor="#666666"
     pagecolor="#ffffff"
     id="base" />
  <metadata
     id="metadata14544">
    <rdf:RDF>
      <cc:Work
         rdf:about="">
        <dc:format>image/svg+xml</dc:format>
        <dc:type
           rdf:resource="http://purl.org/dc/dcmitype/StillImage" />
        <dc:title></dc:title>
      </cc:Work>
    </rdf:RDF>
  </metadata>
  <g
     transform="translate(-72.519613,-273.58002)"
     id="layer1"
     inkscape:groupmode="layer"
     inkscape:label="Layer 1">
    <g
       transform="matrix(0.35277777,0,0,-0.35277777,-66.759167,434.67952)"
       id="g9766">
      <g
         id="g1918">
        <g
           id="g1920">
          <g
             id="g1926">
            <g
               id="g1928">
              <path
                 id="path1938"
                 style="fill:url(#linearGradient1936);stroke:none"
                 d="m 394.806,428.643 c 0.001,-15.492 12.59,-28.125 28.019,-28.121 v 0 c 15.531,0.004 28.016,12.639 27.989,28.323 v 0 c -0.026,15.251 -12.622,27.802 -27.912,27.815 v 0 c -0.008,0 -0.014,0 -0.022,0 v 0 c -15.486,-0.001 -28.076,-12.56 -28.074,-28.017" />
            </g>
          </g>
        </g>
      </g>
      <g
         id="g1940">
        <g
           id="g1942">
          <g
             id="g1948">
            <g
               id="g1950">
              <path
                 id="path1960"
                 style="fill:url(#linearGradient1958);stroke:none"
                 d="m 429.504,448.448 c -1.738,-7.584 -9.477,-14.551 -17.202,-15.5 v 0 c -0.571,-0.07 -1.301,0.272 -1.798,0.64 v 0 c -1.922,1.417 -3.321,1.44 -5.313,0.279 v 0 c -0.689,-0.402 -1.771,-0.573 -2.515,-0.342 v 0 c -1.552,0.486 -2.996,1.309 -5.031,2.244 v 0 c -0.152,-3.37 -0.373,-6.385 -0.355,-9.398 v 0 c 0.005,-0.655 0.731,-1.612 1.369,-1.907 v 0 c 6.415,-2.988 13.052,-3.363 19.849,-1.435 v 0 c 2.262,0.64 3.56,2.086 4.123,4.355 v 0 c 1.304,5.259 3.518,7.155 9.035,7.809 v 0 c 1.877,0.223 3.516,1 4.121,2.775 v 0 c 1.078,3.155 1.878,6.407 2.697,9.645 v 0 c 0.126,0.504 -0.08,1.383 -0.454,1.675 v 0 c -2.349,1.844 -4.935,3.263 -7.979,3.938 v 0 c -0.189,-1.724 -0.207,-3.287 -0.547,-4.778" />
            </g>
          </g>
        </g>
      </g>
      <g
         id="g1962">
        <g
           id="g1964">
          <g
             id="g1970">
            <g
               id="g1972">
              <path
                 id="path1982"
                 style="fill:url(#linearGradient1980);stroke:none"
                 d="m 441.103,430.992 c -0.484,-1.177 -0.71,-2.526 -0.758,-3.809 v 0 c -0.265,-6.927 -4.018,-10.192 -10.993,-9.738 v 0 c -1.803,0.117 -3.684,-0.342 -5.473,-0.766 v 0 c -2.173,-0.513 -4.259,-1.402 -6.434,-1.899 v 0 c -5.303,-1.207 -10.627,-0.975 -15.931,0.197 v 0 c -0.144,-0.164 -0.289,-0.33 -0.433,-0.495 v 0 c 1.566,-1.721 3.121,-3.458 4.707,-5.165 v 0 c 1.385,-1.491 3.036,-2.23 5.155,-2.044 v 0 c 2.354,0.207 4.734,0.107 7.09,0.302 v 0 c 2.466,0.205 4.8,0.069 7.114,-0.983 v 0 c 2.374,-1.078 5.131,0.246 5.279,2.7 v 0 c 0.125,2.079 1.307,2.687 2.802,3.412 v 0 c 6.635,3.216 11.667,8.038 14.449,14.956 v 0 c 1.912,4.758 -0.358,8.825 -2.173,13.155 v 0 c -1.574,-3.48 -3.078,-6.613 -4.401,-9.823" />
            </g>
          </g>
        </g>
      </g>
      <g
         id="g1984">
        <g
           id="g1986">
          <g
             id="g1992">
            <g
               id="g1994">
              <path
                 id="path2004"
                 style="fill:url(#linearGradient2002);stroke:none"
                 d="m 419.76,448.195 c -0.073,-0.357 -0.926,-0.552 -1.419,-0.824 v 0 c -0.212,0.514 -0.592,1.023 -0.599,1.539 v 0 c -0.018,1.215 0.266,2.444 0.165,3.646 v 0 c -0.032,0.38 -0.978,1.066 -1.36,0.979 v 0 c -4.727,-1.091 -8.727,-3.475 -12.071,-6.934 v 0 c 1.205,-2.079 2.899,-3.02 5.376,-2.788 v 0 c 1.279,0.12 2.508,0.694 3.788,0.904 v 0 c 0.499,0.084 1.071,-0.263 1.609,-0.412 v 0 c -0.216,-0.517 -0.342,-1.103 -0.675,-1.527 v 0 c -0.241,-0.305 -0.744,-0.434 -1.155,-0.574 v 0 c -3.98,-1.362 -7.607,-0.944 -10.795,2.459 v 0 c -0.946,-1.508 -1.877,-2.822 -2.616,-4.236 v 0 c -0.44,-0.844 -1.437,-1.728 -0.328,-2.833 v 0 c 1.374,-1.371 3.651,-2.142 4.817,-1.48 v 0 c 2.287,1.305 4.476,1.142 6.739,-0.121 v 0 c 0.668,-0.372 1.673,-0.579 2.385,-0.374 v 0 c 5.18,1.486 9.458,4.382 11.954,9.201 v 0 c 1.158,2.232 1.443,4.942 1.947,7.473 v 0 c 0.101,0.514 -0.528,1.653 -0.924,1.705 v 0 c -2.064,0.271 -4.165,0.282 -5.96,0.371 v 0 c -0.323,-2.445 -0.501,-4.33 -0.878,-6.174" />
            </g>
          </g>
        </g>
      </g>
      <g
         id="g2006">
        <g
           id="g2008">
          <g
             id="g2014">
            <g
               id="g2016">
              <path
                 id="path2026"
                 style="fill:url(#linearGradient2024);stroke:none"
                 d="m 438.167,437.596 c -1.077,-2.896 -3.345,-4.348 -6.401,-4.697 v 0 c -4.321,-0.49 -6.016,-2.035 -6.984,-6.223 v 0 c -0.672,-2.916 -2.358,-5.062 -5.305,-5.658 v 0 c -3.39,-0.685 -6.877,-1.381 -10.3,-1.288 v 0 c -3.61,0.1 -7.195,1.125 -10.866,1.759 v 0 c 0.351,-3.027 0.75,-3.504 3.713,-4.22 v 0 c 6.792,-1.645 13.498,-1.292 20.01,1.205 v 0 c 2.746,1.051 5.453,1.517 8.378,1.267 v 0 c 4.608,-0.394 7.433,2.46 7.746,7.04 v 0 c 0.163,2.353 0.961,4.7 1.726,6.962 v 0 c 0.912,2.699 2.215,5.268 3.124,7.97 v 0 c 0.795,2.364 0.176,3.467 -1.992,4.66 v 0 c -0.934,-2.91 -1.775,-5.888 -2.849,-8.777" />
            </g>
          </g>
        </g>
      </g>
      <g
         id="g2028">
        <g
           id="g2030">
          <g
             id="g2036">
            <g
               id="g2038">
              <path
                 id="path2048"
                 style="fill:url(#linearGradient2046);stroke:none"
                 d="m 433.606,410.257 c -0.426,-0.204 -0.667,-0.974 -0.824,-1.528 v 0 c -1.03,-3.648 -4.678,-5.959 -7.912,-4.445 v 0 c -3.702,1.728 -7.32,0.691 -11,0.428 v 0 c 7.921,-3.041 15.546,-2.341 22.745,2.182 v 0 c 5.43,3.41 8.951,8.269 10.627,14.46 v 0 c -3.646,-4.841 -8.2,-8.491 -13.636,-11.097" />
            </g>
          </g>
        </g>
      </g>
    </g>
  </g>
</svg>
