<?xml version="1.0" encoding="UTF-8" standalone="no"?>
<svg
   xmlns:dc="http://purl.org/dc/elements/1.1/"
   xmlns:cc="http://creativecommons.org/ns#"
   xmlns:rdf="http://www.w3.org/1999/02/22-rdf-syntax-ns#"
   xmlns:svg="http://www.w3.org/2000/svg"
   xmlns="http://www.w3.org/2000/svg"
   xmlns:sodipodi="http://sodipodi.sourceforge.net/DTD/sodipodi-0.dtd"
   xmlns:inkscape="http://www.inkscape.org/namespaces/inkscape"
   sodipodi:docname="ship.svg"
   inkscape:version="1.0 (6e3e5246a0, 2020-05-07)"
   id="svg13516"
   version="1.1"
   viewBox="0 0 23.90909 27.083101"
   height="27.083101mm"
   width="23.90909mm">
  <defs
     id="defs13510">
    <linearGradient
       x1="0"
       y1="0"
       x2="1"
       y2="0"
       gradientUnits="userSpaceOnUse"
       gradientTransform="matrix(64.225624,0,0,-64.225624,1246.6025,560.258)"
       spreadMethod="pad"
       id="linearGradient5372">
      <stop
         style="stop-opacity:1;stop-color:#4d1f81"
         offset="0"
         id="stop5366" />
      <stop
         style="stop-opacity:1;stop-color:#f263bd"
         offset="0.32192848"
         id="stop5368" />
      <stop
         style="stop-opacity:1;stop-color:#f263bd"
         offset="1"
         id="stop5370" />
    </linearGradient>
    <linearGradient
       x1="0"
       y1="0"
       x2="1"
       y2="0"
       gradientUnits="userSpaceOnUse"
       gradientTransform="matrix(67.773682,0,0,-67.773682,1244.8307,541.42499)"
       spreadMethod="pad"
       id="linearGradient5394">
      <stop
         style="stop-opacity:1;stop-color:#63d7c2"
         offset="0"
         id="stop5388" />
      <stop
         style="stop-opacity:1;stop-color:#63d7c2"
         offset="0.67807152"
         id="stop5390" />
      <stop
         style="stop-opacity:1;stop-color:#1e0757"
         offset="1"
         id="stop5392" />
    </linearGradient>
    <linearGradient
       x1="0"
       y1="0"
       x2="1"
       y2="0"
       gradientUnits="userSpaceOnUse"
       gradientTransform="matrix(45.836903,0,0,-45.836903,1255.8157,582.021)"
       spreadMethod="pad"
       id="linearGradient5416">
      <stop
         style="stop-opacity:1;stop-color:#63d7c2"
         offset="0"
         id="stop5410" />
      <stop
         style="stop-opacity:1;stop-color:#63d7c2"
         offset="0.67807152"
         id="stop5412" />
      <stop
         style="stop-opacity:1;stop-color:#1e0757"
         offset="1"
         id="stop5414" />
    </linearGradient>
    <linearGradient
       x1="0"
       y1="0"
       x2="1"
       y2="0"
       gradientUnits="userSpaceOnUse"
       gradientTransform="matrix(36.745884,0,0,-36.745884,1261.2775,601.63647)"
       spreadMethod="pad"
       id="linearGradient5438">
      <stop
         style="stop-opacity:1;stop-color:#63d7c2"
         offset="0"
         id="stop5432" />
      <stop
         style="stop-opacity:1;stop-color:#63d7c2"
         offset="0.67807152"
         id="stop5434" />
      <stop
         style="stop-opacity:1;stop-color:#1e0757"
         offset="1"
         id="stop5436" />
    </linearGradient>
    <linearGradient
       x1="0"
       y1="0"
       x2="1"
       y2="0"
       gradientUnits="userSpaceOnUse"
       gradientTransform="matrix(53.433319,0,0,-53.433319,1251.8508,592.92639)"
       spreadMethod="pad"
       id="linearGradient5460">
      <stop
         style="stop-opacity:1;stop-color:#4d1f81"
         offset="0"
         id="stop5454" />
      <stop
         style="stop-opacity:1;stop-color:#f263bd"
         offset="0.32192848"
         id="stop5456" />
      <stop
         style="stop-opacity:1;stop-color:#f263bd"
         offset="1"
         id="stop5458" />
    </linearGradient>
    <linearGradient
       x1="0"
       y1="0"
       x2="1"
       y2="0"
       gradientUnits="userSpaceOnUse"
       gradientTransform="matrix(40.65638,0,0,-40.65638,1258.3678,609.578)"
       spreadMethod="pad"
       id="linearGradient5482">
      <stop
         style="stop-opacity:1;stop-color:#4d1f81"
         offset="0"
         id="stop5476" />
      <stop
         style="stop-opacity:1;stop-color:#f263bd"
         offset="0.32192848"
         id="stop5478" />
      <stop
         style="stop-opacity:1;stop-color:#f263bd"
         offset="1"
         id="stop5480" />
    </linearGradient>
    <linearGradient
       x1="0"
       y1="0"
       x2="1"
       y2="0"
       gradientUnits="userSpaceOnUse"
       gradientTransform="matrix(34.564434,0,0,-34.564434,1260.9056,611.81897)"
       spreadMethod="pad"
       id="linearGradient5504">
      <stop
         style="stop-opacity:1;stop-color:#63d7c2"
         offset="0"
         id="stop5498" />
      <stop
         style="stop-opacity:1;stop-color:#63d7c2"
         offset="0.67807152"
         id="stop5500" />
      <stop
         style="stop-opacity:1;stop-color:#1e0757"
         offset="1"
         id="stop5502" />
    </linearGradient>
    <linearGradient
       x1="0"
       y1="0"
       x2="1"
       y2="0"
       gradientUnits="userSpaceOnUse"
       gradientTransform="matrix(6.8606467,0,0,-6.8606467,1270.0983,584.84521)"
       spreadMethod="pad"
       id="linearGradient5526">
      <stop
         style="stop-opacity:1;stop-color:#f6d348"
         offset="0"
         id="stop5520" />
      <stop
         style="stop-opacity:1;stop-color:#f6d348"
         offset="0.03027482"
         id="stop5522" />
      <stop
         style="stop-opacity:1;stop-color:#f263bd"
         offset="1"
         id="stop5524" />
    </linearGradient>
    <linearGradient
       x1="0"
       y1="0"
       x2="1"
       y2="0"
       gradientUnits="userSpaceOnUse"
       gradientTransform="matrix(6.8738127,0,0,-6.8738127,1259.8009,584.8446)"
       spreadMethod="pad"
       id="linearGradient5548">
      <stop
         style="stop-opacity:1;stop-color:#f6d348"
         offset="0"
         id="stop5542" />
      <stop
         style="stop-opacity:1;stop-color:#f6d348"
         offset="0.03027482"
         id="stop5544" />
      <stop
         style="stop-opacity:1;stop-color:#f263bd"
         offset="1"
         id="stop5546" />
    </linearGradient>
    <linearGradient
       x1="0"
       y1="0"
       x2="1"
       y2="0"
       gradientUnits="userSpaceOnUse"
       gradientTransform="matrix(6.8570204,0,0,-6.8570204,1280.4799,584.84027)"
       spreadMethod="pad"
       id="linearGradient5570">
      <stop
         style="stop-opacity:1;stop-color:#f6d348"
         offset="0"
         id="stop5564" />
      <stop
         style="stop-opacity:1;stop-color:#f6d348"
         offset="0.03027482"
         id="stop5566" />
      <stop
         style="stop-opacity:1;stop-color:#f263bd"
         offset="1"
         id="stop5568" />
    </linearGradient>
    <linearGradient
       x1="0"
       y1="0"
       x2="1"
       y2="0"
       gradientUnits="userSpaceOnUse"
       gradientTransform="matrix(6.8869433,0,0,-6.8869433,1290.7537,584.84717)"
       spreadMethod="pad"
       id="linearGradient5592">
      <stop
         style="stop-opacity:1;stop-color:#f6d348"
         offset="0"
         id="stop5586" />
      <stop
         style="stop-opacity:1;stop-color:#f6d348"
         offset="0.03027482"
         id="stop5588" />
      <stop
         style="stop-opacity:1;stop-color:#f263bd"
         offset="1"
         id="stop5590" />
    </linearGradient>
    <linearGradient
       x1="0"
       y1="0"
       x2="1"
       y2="0"
       gradientUnits="userSpaceOnUse"
       gradientTransform="matrix(6.1282973,0,0,-6.1282973,1266.4025,601.49042)"
       spreadMethod="pad"
       id="linearGradient5614">
      <stop
         style="stop-opacity:1;stop-color:#f6d348"
         offset="0"
         id="stop5608" />
      <stop
         style="stop-opacity:1;stop-color:#f6d348"
         offset="0.03027482"
         id="stop5610" />
      <stop
         style="stop-opacity:1;stop-color:#f263bd"
         offset="1"
         id="stop5612" />
    </linearGradient>
    <linearGradient
       x1="0"
       y1="0"
       x2="1"
       y2="0"
       gradientUnits="userSpaceOnUse"
       gradientTransform="matrix(6.1294684,0,0,-6.1294684,1284.9139,601.45514)"
       spreadMethod="pad"
       id="linearGradient5636">
      <stop
         style="stop-opacity:1;stop-color:#f6d348"
         offset="0"
         id="stop5630" />
      <stop
         style="stop-opacity:1;stop-color:#f6d348"
         offset="0.03027482"
         id="stop5632" />
      <stop
         style="stop-opacity:1;stop-color:#f263bd"
         offset="1"
         id="stop5634" />
    </linearGradient>
    <linearGradient
       x1="0"
       y1="0"
       x2="1"
       y2="0"
       gradientUnits="userSpaceOnUse"
       gradientTransform="matrix(6.0706644,0,0,-6.0706644,1275.6459,601.47052)"
       spreadMethod="pad"
       id="linearGradient5658">
      <stop
         style="stop-opacity:1;stop-color:#f6d348"
         offset="0"
         id="stop5652" />
      <stop
         style="stop-opacity:1;stop-color:#f6d348"
         offset="0.03027482"
         id="stop5654" />
      <stop
         style="stop-opacity:1;stop-color:#f263bd"
         offset="1"
         id="stop5656" />
    </linearGradient>
  </defs>
  <sodipodi:namedview
     inkscape:window-maximized="0"
     inkscape:window-y="27"
     inkscape:window-x="122"
     inkscape:window-height="1016"
     inkscape:window-width="1428"
     showgrid="false"
     inkscape:document-rotation="0"
     inkscape:current-layer="layer1"
     inkscape:document-units="mm"
     inkscape:cy="-271.67647"
     inkscape:cx="-203.3889"
     inkscape:zoom="0.35"
     inkscape:pageshadow="2"
     inkscape:pageopacity="0.0"
     borderopacity="1.0"
     bordercolor="#666666"
     pagecolor="#ffffff"
     id="base" />
  <metadata
     id="metadata13513">
    <rdf:RDF>
      <cc:Work
         rdf:about="">
        <dc:format>image/svg+xml</dc:format>
        <dc:type
           rdf:resource="http://purl.org/dc/dcmitype/StillImage" />
        <dc:title></dc:title>
      </cc:Work>
    </rdf:RDF>
  </metadata>
  <g
     transform="translate(-159.64665,-220.04773)"
     id="layer1"
     inkscape:groupmode="layer"
     inkscape:label="Layer 1">
    <g
       transform="matrix(0.35277777,0,0,-0.35277777,-279.50187,436.08143)"
       id="g9635">
      <g
         id="g5354">
        <g
           id="g5356">
          <g
             id="g5362">
            <g
               id="g5364">
              <path
                 id="path5374"
                 style="fill:url(#linearGradient5372);stroke:none"
                 d="m 1276.255,578.431 c -6.799,-1.689 -13.617,-3.3 -20.429,-4.938 v 0 c -1.949,-0.486 -3.897,-0.972 -5.847,-1.459 v 0 c -3.205,-1.146 -3.664,-1.82 -3.246,-4.755 v 0 l 0.616,-1.09 c 0.051,-0.112 0.102,-0.224 0.154,-0.336 v 0 c 0.694,-0.723 1.099,-1.612 1.46,-2.528 v 0 c 0.209,-0.05 0.307,-0.183 0.29,-0.402 v 0 l 0.015,-0.055 c 1.159,-1.701 2.224,-3.454 3.016,-5.361 v 0 l 0.278,-0.402 c 1.963,-3.339 3.927,-6.68 5.89,-10.02 v 0 c 3.965,0.335 7.697,-0.368 11.115,-2.484 v 0 c 6.082,-3.767 12.19,-3.816 18.262,-0.018 v 0 c 3.479,2.178 7.292,2.768 11.291,2.641 v 0 c 0.851,1.456 1.7,2.911 2.551,4.365 v 0 l 0.027,0.043 c 2.741,4.828 5.439,9.683 8.247,14.472 v 0 c 1.066,1.82 1.34,3.464 -0.155,5.132 v 0 c -0.741,0.376 -1.652,0.273 -2.331,0.825 v 0 c -1.977,0.319 -3.926,0.752 -5.814,1.431 v 0 c -6.869,1.65 -13.747,3.26 -20.596,4.983 v 0 c -0.775,0.195 -1.521,0.286 -2.264,0.286 v 0 c -0.837,0 -1.669,-0.116 -2.53,-0.33 m -27.292,-15.108 c 0,10e-4 0,10e-4 0,0.002 v 0 c 0,10e-4 -0.01,0.002 -0.013,0.003 v 0 z" />
            </g>
          </g>
        </g>
      </g>
      <g
         id="g5376">
        <g
           id="g5378">
          <g
             id="g5384">
            <g
               id="g5386">
              <path
                 id="path5396"
                 style="fill:url(#linearGradient5394);stroke:none"
                 d="m 1287.829,544.583 c -6.072,-3.798 -12.18,-3.749 -18.262,0.018 v 0 c -3.418,2.116 -7.15,2.819 -11.115,2.484 v 0 c -1.001,-0.135 -1.725,-0.452 -2.778,-1.074 v 0 c -0.98,-0.706 -1.337,-0.976 -2.05,-1.435 v 0 c -1.112,-0.718 -2.384,-1.251 -3.63,-1.686 v 0 c -1.109,-0.388 -2.434,-0.607 -3.401,-1.311 v 0 c -0.674,-0.491 -1.394,-1.105 -1.682,-1.929 v 0 c -0.254,-1.354 0.087,-2.904 1.106,-3.997 v 0 c 15.632,-0.014 31.262,-0.029 46.894,-0.045 v 0 c 3.998,0.003 7.998,0.004 11.995,0.005 v 0 c 2.3,0.037 4.599,0.075 6.9,0.113 v 0 c 0.346,0.145 0.609,0.431 0.715,1.029 v 0 c 0.08,1.237 0.106,2.051 0.062,3.061 v 0 c -0.041,0.181 -0.048,0.479 -0.225,0.716 v 0 c -1.189,0.835 -2.419,1.41 -3.837,1.967 v 0 c -2.454,0.963 -3.949,1.79 -6.055,3.058 v 0 c -0.79,0.49 -1.77,1.219 -3.345,1.668 v 0 c -0.335,0.011 -0.668,0.016 -1,0.016 v 0 c -3.636,0 -7.104,-0.662 -10.292,-2.658" />
            </g>
          </g>
        </g>
      </g>
      <g
         id="g5398">
        <g
           id="g5400">
          <g
             id="g5406">
            <g
               id="g5408">
              <path
                 id="path5418"
                 style="fill:url(#linearGradient5416);stroke:none"
                 d="m 1255.827,590.546 c -10e-4,-0.361 0,-0.722 0,-1.083 v 0 c 0,-4.845 -0.01,-9.689 -0.01,-14.533 v 0 c 0,-0.479 0.01,-0.959 0.011,-1.437 v 0 c 6.812,1.638 13.63,3.249 20.429,4.938 v 0 c 1.625,0.404 3.144,0.459 4.794,0.044 v 0 c 6.849,-1.723 13.727,-3.333 20.596,-4.983 v 0 c 0,0.478 0,0.956 0.01,1.435 v 0 c 10e-4,4.966 10e-4,9.933 10e-4,14.899 v 0 c 0,0.241 -0.01,0.482 -0.01,0.725 v 0 c -15.273,-0.003 -30.546,-0.004 -45.819,-0.005 m 38.371,-9.136 c -1.913,0.019 -3.467,1.562 -3.444,3.424 v 0 c 0.023,1.921 1.72,3.527 3.643,3.448 v 0 c 1.753,-0.071 3.216,-1.64 3.244,-3.476 v 0 c 0.026,-1.851 -1.529,-3.396 -3.41,-3.396 v 0 c -0.011,0 -0.022,0 -0.033,0 m -31.073,0 c -1.858,0.026 -3.309,1.498 -3.324,3.373 v 0 c -0.016,1.924 1.524,3.492 3.433,3.497 v 0 c 1.849,0.003 3.464,-1.643 3.44,-3.509 v 0 c -0.025,-1.892 -1.558,-3.362 -3.496,-3.361 v 0 c -0.018,0 -0.036,0 -0.053,0 m 10.267,0.016 c -1.955,0.084 -3.404,1.67 -3.288,3.596 v 0 c 0.109,1.775 1.753,3.292 3.517,3.246 v 0 c 2.012,-0.053 3.463,-1.687 3.33,-3.749 v 0 c -0.118,-1.807 -1.541,-3.097 -3.384,-3.097 v 0 c -0.058,0 -0.116,0.002 -0.175,0.004 m 10.451,-0.012 c -2.023,0.029 -3.396,1.454 -3.363,3.492 v 0 c 0.032,1.924 1.607,3.421 3.535,3.358 v 0 c 1.783,-0.057 3.358,-1.687 3.321,-3.438 v 0 c -0.04,-1.93 -1.541,-3.412 -3.44,-3.412 v 0 c -0.018,0 -0.036,0 -0.053,0" />
            </g>
          </g>
        </g>
      </g>
      <g
         id="g5420">
        <g
           id="g5422">
          <g
             id="g5428">
            <g
               id="g5430">
              <path
                 id="path5440"
                 style="fill:url(#linearGradient5438);stroke:none"
                 d="m 1275.072,607.647 c -4.596,0.035 -9.192,0.071 -13.788,-0.005 v 0 c 0,-0.242 0,-0.483 -0.01,-0.725 v 0 c -10e-4,-3.757 -10e-4,-7.513 0,-11.268 v 0 c 0.01,-0.12 0.01,-0.24 0,-0.359 v 0 c 11.639,0.003 23.277,0.005 34.916,0.008 v 0 c 0,2.778 0.034,5.558 -0.021,8.336 v 0 c -0.034,1.754 -0.284,3.539 1.846,4.348 v 0 c -7.647,-0.454 -15.299,-0.395 -22.951,-0.335 m -5.723,-9.187 c -1.662,0.033 -2.97,1.381 -2.946,3.035 v 0 c 0.024,1.662 1.367,3.019 2.994,3.027 v 0 c 1.783,0.007 3.129,-1.308 3.135,-3.063 v 0 c 0,-1.685 -1.37,-2.999 -3.114,-2.999 v 0 c -0.023,0 -0.046,0 -0.069,0 m 6.297,2.995 c -0.01,1.733 1.357,3.053 3.135,3.026 v 0 c 1.745,-0.026 2.928,-1.23 2.936,-2.988 v 0 c 0.01,-1.729 -1.202,-2.993 -2.903,-3.033 v 0 c -0.029,0 -0.057,-0.001 -0.084,-0.001 v 0 c -1.738,0 -3.074,1.29 -3.084,2.996 m 9.268,0.086 c 0.015,1.663 1.308,2.92 3.025,2.937 v 0 c 1.778,0.017 3.114,-1.302 3.104,-3.065 v 0 c -0.01,-1.6 -1.402,-2.961 -3.051,-2.981 v 0 c -0.014,0 -0.027,0 -0.041,0 v 0 c -1.722,0 -3.052,1.358 -3.037,3.109" />
            </g>
          </g>
        </g>
      </g>
      <g
         id="g5442">
        <g
           id="g5444">
          <g
             id="g5450">
            <g
               id="g5452">
              <path
                 id="path5462"
                 style="fill:url(#linearGradient5460);stroke:none"
                 d="m 1299.325,595.274 c -1.044,-0.031 -2.088,-0.063 -3.127,0.024 v 0 c -11.639,-0.003 -23.277,-0.005 -34.916,-0.008 v 0 l -0.179,-0.008 c 0,0 -0.18,0.015 -0.18,0.016 v 0 c -2.059,-0.009 -4.118,-0.037 -6.178,-0.02 v 0 c -1.507,0.014 -2.681,-0.478 -2.872,-2.107 v 0 c -0.193,-1.637 0.882,-2.544 2.868,-2.621 v 0 c 0.361,-0.002 0.724,-0.003 1.086,-0.004 v 0 c 15.273,10e-4 30.546,0.002 45.819,0.005 v 0 c 0.241,-0.001 0.483,-0.001 0.724,-0.003 v 0 c 0.48,0.018 0.959,0.034 1.439,0.052 v 0 c 0.241,0.119 0.482,0.239 0.722,0.36 v 0 c 0.442,0.642 0.7,1.333 0.753,2.075 v 0 c -0.099,0.289 -0.207,0.581 -0.343,0.876 v 0 c -0.054,0.115 -0.115,0.227 -0.179,0.334 v 0 c -0.019,0.029 -0.036,0.061 -0.054,0.091 v 0 c -0.133,0.214 -0.279,0.416 -0.421,0.616 v 0 c -1.106,0.285 -2.223,0.355 -3.342,0.355 v 0 c -0.54,0 -1.08,-0.017 -1.62,-0.033" />
            </g>
          </g>
        </g>
      </g>
      <g
         id="g5464">
        <g
           id="g5466">
          <g
             id="g5472">
            <g
               id="g5474">
              <path
                 id="path5484"
                 style="fill:url(#linearGradient5482);stroke:none"
                 d="m 1258.448,609.886 c -0.236,-0.941 0.038,-1.769 1.028,-2.198 v 0 c 0.603,-0.015 1.205,-0.03 1.808,-0.046 v 0 c 4.596,0.076 9.192,0.04 13.788,0.005 v 0 c 7.652,-0.06 15.304,-0.119 22.951,0.335 v 0 c 0.717,0.199 0.928,0.686 1.001,1.25 v 0 c -0.192,0.619 -0.442,1.211 -0.819,1.747 v 0 c -0.572,0.315 -1.217,0.307 -1.862,0.299 v 0 c -0.296,-0.003 -0.591,-0.007 -0.879,0.021 v 0 c -11.06,-0.011 -22.121,-0.023 -33.18,-0.03 v 0 c -0.474,0 -0.976,-0.093 -1.379,0.28 v 0 c -1.09,-0.158 -2.152,-0.436 -2.457,-1.663" />
            </g>
          </g>
        </g>
      </g>
      <g
         id="g5486">
        <g
           id="g5488">
          <g
             id="g5494">
            <g
               id="g5496">
              <path
                 id="path5506"
                 style="fill:url(#linearGradient5504);stroke:none"
                 d="m 1294.21,612.379 c -10.657,-0.013 -21.314,-0.009 -31.971,-0.008 v 0 c -0.616,0 -1.26,0.053 -1.334,-0.822 v 0 c 0.403,-0.373 0.905,-0.28 1.379,-0.28 v 0 c 11.06,0.007 22.12,0.019 33.18,0.03 v 0 c 0.07,0.926 -0.47,1.08 -1.247,1.08 v 0 c 0,0 -0.01,0 -0.01,0" />
            </g>
          </g>
        </g>
      </g>
      <g
         id="g5508">
        <g
           id="g5510">
          <g
             id="g5516">
            <g
               id="g5518">
              <path
                 id="path5528"
                 style="fill:url(#linearGradient5526);stroke:none"
                 d="m 1270.104,585.022 c -0.116,-1.926 1.333,-3.512 3.288,-3.596 v 0 c 1.927,-0.085 3.437,1.229 3.559,3.093 v 0 c 0.133,2.062 -1.318,3.696 -3.33,3.749 v 0 c -0.026,10e-4 -0.052,10e-4 -0.078,10e-4 v 0 c -1.735,0 -3.331,-1.498 -3.439,-3.247" />
            </g>
          </g>
        </g>
      </g>
      <g
         id="g5530">
        <g
           id="g5532">
          <g
             id="g5538">
            <g
               id="g5540">
              <path
                 id="path5550"
                 style="fill:url(#linearGradient5548);stroke:none"
                 d="m 1263.234,588.28 c -1.909,-0.005 -3.449,-1.573 -3.433,-3.497 v 0 c 0.015,-1.875 1.466,-3.347 3.324,-3.373 v 0 c 1.963,-0.027 3.524,1.452 3.549,3.361 v 0 c 0.024,1.864 -1.587,3.509 -3.434,3.509 v 0 c 0,0 0,0 -0.01,0" />
            </g>
          </g>
        </g>
      </g>
      <g
         id="g5552">
        <g
           id="g5554">
          <g
             id="g5560">
            <g
               id="g5562">
              <path
                 id="path5572"
                 style="fill:url(#linearGradient5570);stroke:none"
                 d="m 1280.48,584.906 c -0.033,-2.038 1.34,-3.463 3.363,-3.492 v 0 c 1.924,-0.028 3.452,1.465 3.493,3.412 v 0 c 0.037,1.751 -1.538,3.381 -3.321,3.438 v 0 c -0.04,0.002 -0.078,0.002 -0.118,0.002 v 0 c -1.873,0 -3.386,-1.476 -3.417,-3.36" />
            </g>
          </g>
        </g>
      </g>
      <g
         id="g5574">
        <g
           id="g5576">
          <g
             id="g5582">
            <g
               id="g5584">
              <path
                 id="path5594"
                 style="fill:url(#linearGradient5592);stroke:none"
                 d="m 1290.754,584.834 c -0.023,-1.862 1.531,-3.405 3.444,-3.424 v 0 c 1.896,-0.018 3.47,1.534 3.443,3.396 v 0 c -0.028,1.836 -1.491,3.405 -3.244,3.476 v 0 c -0.045,0.002 -0.09,0.003 -0.135,0.003 v 0 c -1.867,0 -3.485,-1.575 -3.508,-3.451" />
            </g>
          </g>
        </g>
      </g>
      <g
         id="g5596">
        <g
           id="g5598">
          <g
             id="g5604">
            <g
               id="g5606">
              <path
                 id="path5616"
                 style="fill:url(#linearGradient5614);stroke:none"
                 d="m 1269.397,604.522 c -1.627,-0.008 -2.97,-1.365 -2.994,-3.027 v 0 c -0.024,-1.654 1.284,-3.002 2.946,-3.035 v 0 c 1.777,-0.035 3.185,1.292 3.183,2.999 v 0 c -0.01,1.75 -1.345,3.063 -3.121,3.063 v 0 c 0,0 -0.01,0 -0.014,0" />
            </g>
          </g>
        </g>
      </g>
      <g
         id="g5618">
        <g
           id="g5620">
          <g
             id="g5626">
            <g
               id="g5628">
              <path
                 id="path5638"
                 style="fill:url(#linearGradient5636);stroke:none"
                 d="m 1287.939,604.478 c -1.717,-0.017 -3.01,-1.274 -3.025,-2.937 v 0 c -0.016,-1.765 1.336,-3.13 3.078,-3.109 v 0 c 1.649,0.02 3.042,1.381 3.051,2.981 v 0 c 0.01,1.752 -1.309,3.065 -3.07,3.065 v 0 c -0.012,0 -0.023,0 -0.034,0" />
            </g>
          </g>
        </g>
      </g>
      <g
         id="g5640">
        <g
           id="g5642">
          <g
             id="g5648">
            <g
               id="g5650">
              <path
                 id="path5660"
                 style="fill:url(#linearGradient5658);stroke:none"
                 d="m 1275.646,601.455 c 0.01,-1.734 1.389,-3.037 3.168,-2.995 v 0 c 1.701,0.04 2.909,1.304 2.903,3.033 v 0 c -0.01,1.758 -1.191,2.962 -2.936,2.988 v 0 c -0.017,10e-4 -0.034,10e-4 -0.052,10e-4 v 0 c -1.753,0 -3.093,-1.311 -3.083,-3.027" />
            </g>
          </g>
        </g>
      </g>
    </g>
  </g>
</svg>
