<?xml version="1.0" encoding="UTF-8" standalone="no"?>
<svg
   xmlns:dc="http://purl.org/dc/elements/1.1/"
   xmlns:cc="http://creativecommons.org/ns#"
   xmlns:rdf="http://www.w3.org/1999/02/22-rdf-syntax-ns#"
   xmlns:svg="http://www.w3.org/2000/svg"
   xmlns="http://www.w3.org/2000/svg"
   xmlns:sodipodi="http://sodipodi.sourceforge.net/DTD/sodipodi-0.dtd"
   xmlns:inkscape="http://www.inkscape.org/namespaces/inkscape"
   sodipodi:docname="soccer_ball.svg"
   inkscape:version="1.0 (6e3e5246a0, 2020-05-07)"
   id="svg18342"
   version="1.1"
   viewBox="0 0 24.295202 24.231476"
   height="24.231476mm"
   width="24.295202mm">
  <defs
     id="defs18336">
    <linearGradient
       x1="0"
       y1="0"
       x2="1"
       y2="0"
       gradientUnits="userSpaceOnUse"
       gradientTransform="matrix(25.428448,0,0,-25.428448,607.78979,317.86636)"
       spreadMethod="pad"
       id="linearGradient5900">
      <stop
         style="stop-opacity:1;stop-color:#e35db8"
         offset="0"
         id="stop5894" />
      <stop
         style="stop-opacity:1;stop-color:#1e0757"
         offset="0.60396321"
         id="stop5896" />
      <stop
         style="stop-opacity:1;stop-color:#1e0757"
         offset="1"
         id="stop5898" />
    </linearGradient>
    <linearGradient
       x1="0"
       y1="0"
       x2="1"
       y2="0"
       gradientUnits="userSpaceOnUse"
       gradientTransform="matrix(22.663713,0,0,-22.663713,635.43951,268.32068)"
       spreadMethod="pad"
       id="linearGradient5922">
      <stop
         style="stop-opacity:1;stop-color:#e35db8"
         offset="0"
         id="stop5916" />
      <stop
         style="stop-opacity:1;stop-color:#1e0757"
         offset="0.60396321"
         id="stop5918" />
      <stop
         style="stop-opacity:1;stop-color:#1e0757"
         offset="1"
         id="stop5920" />
    </linearGradient>
    <linearGradient
       x1="0"
       y1="0"
       x2="1"
       y2="0"
       gradientUnits="userSpaceOnUse"
       gradientTransform="matrix(22.961643,0,0,-22.961643,600.58826,260.68121)"
       spreadMethod="pad"
       id="linearGradient5944">
      <stop
         style="stop-opacity:1;stop-color:#e35db8"
         offset="0"
         id="stop5938" />
      <stop
         style="stop-opacity:1;stop-color:#1e0757"
         offset="0.60396321"
         id="stop5940" />
      <stop
         style="stop-opacity:1;stop-color:#1e0757"
         offset="1"
         id="stop5942" />
    </linearGradient>
    <linearGradient
       x1="0"
       y1="0"
       x2="1"
       y2="0"
       gradientUnits="userSpaceOnUse"
       gradientTransform="matrix(16.334038,0,0,-16.334038,643.08563,305.43652)"
       spreadMethod="pad"
       id="linearGradient5966">
      <stop
         style="stop-opacity:1;stop-color:#e35db8"
         offset="0"
         id="stop5960" />
      <stop
         style="stop-opacity:1;stop-color:#1e0757"
         offset="0.60396321"
         id="stop5962" />
      <stop
         style="stop-opacity:1;stop-color:#1e0757"
         offset="1"
         id="stop5964" />
    </linearGradient>
    <linearGradient
       x1="0"
       y1="0"
       x2="1"
       y2="0"
       gradientUnits="userSpaceOnUse"
       gradientTransform="matrix(6.6965723,38.457458,38.457458,-6.6965723,629.26056,233.86377)"
       spreadMethod="pad"
       id="linearGradient5988">
      <stop
         style="stop-opacity:1;stop-color:#63d7c2"
         offset="0"
         id="stop5982" />
      <stop
         style="stop-opacity:1;stop-color:#63d7c2"
         offset="0.67807152"
         id="stop5984" />
      <stop
         style="stop-opacity:1;stop-color:#1e0757"
         offset="1"
         id="stop5986" />
    </linearGradient>
    <linearGradient
       x1="0"
       y1="0"
       x2="1"
       y2="0"
       gradientUnits="userSpaceOnUse"
       gradientTransform="matrix(5.6540112,0,0,-5.6540112,591.79517,290.21637)"
       spreadMethod="pad"
       id="linearGradient6010">
      <stop
         style="stop-opacity:1;stop-color:#e35db8"
         offset="0"
         id="stop6004" />
      <stop
         style="stop-opacity:1;stop-color:#1e0757"
         offset="0.60396321"
         id="stop6006" />
      <stop
         style="stop-opacity:1;stop-color:#1e0757"
         offset="1"
         id="stop6008" />
    </linearGradient>
    <linearGradient
       x1="0"
       y1="0"
       x2="1"
       y2="0"
       gradientUnits="userSpaceOnUse"
       gradientTransform="matrix(6.4559808,0,0,-6.4559808,654.20825,284.60394)"
       spreadMethod="pad"
       id="linearGradient6032">
      <stop
         style="stop-opacity:1;stop-color:#63d7c2"
         offset="0"
         id="stop6026" />
      <stop
         style="stop-opacity:1;stop-color:#63d7c2"
         offset="0.67807152"
         id="stop6028" />
      <stop
         style="stop-opacity:1;stop-color:#1e0757"
         offset="1"
         id="stop6030" />
    </linearGradient>
    <linearGradient
       x1="0"
       y1="0"
       x2="1"
       y2="0"
       gradientUnits="userSpaceOnUse"
       gradientTransform="matrix(11.17721,0,0,-11.17721,593.29846,273.21133)"
       spreadMethod="pad"
       id="linearGradient6054">
      <stop
         style="stop-opacity:1;stop-color:#63d7c2"
         offset="0"
         id="stop6048" />
      <stop
         style="stop-opacity:1;stop-color:#63d7c2"
         offset="0.67807152"
         id="stop6050" />
      <stop
         style="stop-opacity:1;stop-color:#1e0757"
         offset="1"
         id="stop6052" />
    </linearGradient>
    <linearGradient
       x1="0"
       y1="0"
       x2="1"
       y2="0"
       gradientUnits="userSpaceOnUse"
       gradientTransform="matrix(14.547536,0,0,-14.547536,596.53351,308.02704)"
       spreadMethod="pad"
       id="linearGradient6076">
      <stop
         style="stop-opacity:1;stop-color:#63d7c2"
         offset="0"
         id="stop6070" />
      <stop
         style="stop-opacity:1;stop-color:#63d7c2"
         offset="0.67807152"
         id="stop6072" />
      <stop
         style="stop-opacity:1;stop-color:#1e0757"
         offset="1"
         id="stop6074" />
    </linearGradient>
    <linearGradient
       x1="0"
       y1="0"
       x2="1"
       y2="0"
       gradientUnits="userSpaceOnUse"
       gradientTransform="matrix(17.173634,0,0,-17.173634,627.30371,317.21738)"
       spreadMethod="pad"
       id="linearGradient6098">
      <stop
         style="stop-opacity:1;stop-color:#63d7c2"
         offset="0"
         id="stop6092" />
      <stop
         style="stop-opacity:1;stop-color:#63d7c2"
         offset="0.67807152"
         id="stop6094" />
      <stop
         style="stop-opacity:1;stop-color:#1e0757"
         offset="1"
         id="stop6096" />
    </linearGradient>
    <linearGradient
       x1="0"
       y1="0"
       x2="1"
       y2="0"
       gradientUnits="userSpaceOnUse"
       gradientTransform="matrix(89.255737,32.047878,32.047878,-89.255737,567.15936,268.05347)"
       spreadMethod="pad"
       id="linearGradient6120">
      <stop
         style="stop-opacity:1;stop-color:#63d7c2"
         offset="0"
         id="stop6114" />
      <stop
         style="stop-opacity:1;stop-color:#63d7c2"
         offset="0.67807152"
         id="stop6116" />
      <stop
         style="stop-opacity:1;stop-color:#1e0757"
         offset="1"
         id="stop6118" />
    </linearGradient>
    <linearGradient
       x1="0"
       y1="0"
       x2="1"
       y2="0"
       gradientUnits="userSpaceOnUse"
       gradientTransform="matrix(25.15587,0,0,-25.15587,608.11993,293.29532)"
       spreadMethod="pad"
       id="linearGradient6142">
      <stop
         style="stop-opacity:1;stop-color:#e35db8"
         offset="0"
         id="stop6136" />
      <stop
         style="stop-opacity:1;stop-color:#1e0757"
         offset="0.60396321"
         id="stop6138" />
      <stop
         style="stop-opacity:1;stop-color:#1e0757"
         offset="1"
         id="stop6140" />
    </linearGradient>
  </defs>
  <sodipodi:namedview
     inkscape:window-maximized="0"
     inkscape:window-y="27"
     inkscape:window-x="122"
     inkscape:window-height="1016"
     inkscape:window-width="1428"
     showgrid="false"
     inkscape:document-rotation="0"
     inkscape:current-layer="layer1"
     inkscape:document-units="mm"
     inkscape:cy="45.791781"
     inkscape:cx="45.912183"
     inkscape:zoom="0.35"
     inkscape:pageshadow="2"
     inkscape:pageopacity="0.0"
     borderopacity="1.0"
     bordercolor="#666666"
     pagecolor="#ffffff"
     id="base" />
  <metadata
     id="metadata18339">
    <rdf:RDF>
      <cc:Work
         rdf:about="">
        <dc:format>image/svg+xml</dc:format>
        <dc:type
           rdf:resource="http://purl.org/dc/dcmitype/StillImage" />
        <dc:title></dc:title>
      </cc:Work>
    </rdf:RDF>
  </metadata>
  <g
     transform="translate(-93.685735,-136.05092)"
     id="layer1"
     inkscape:groupmode="layer"
     inkscape:label="Layer 1">
    <g
       transform="matrix(0.35277777,0,0,-0.35277777,-115.08665,249.2051)"
       id="g10373">
      <g
         id="g5882">
        <g
           id="g5884">
          <g
             id="g5890">
            <g
               id="g5892">
              <path
                 id="path5902"
                 style="fill:url(#linearGradient5900);stroke:none"
                 d="m 607.79,315.596 c 0.384,-0.097 0.795,-0.055 1.207,-0.013 v 0 c 0.746,0.077 1.492,0.154 2.084,-0.602 v 0 c 5.617,0.05 10.473,3.888 16.223,3.28 v 0 c -0.004,1.17 0.742,1.384 1.672,1.251 v 0 c 1.491,-0.212 2.848,0.331 4.241,0.677 v 0 c -0.289,0.389 -1.399,0.563 -3.011,0.563 v 0 c -6.039,-0.001 -19.114,-2.439 -22.416,-5.156" />
            </g>
          </g>
        </g>
      </g>
      <g
         id="g5904">
        <g
           id="g5906">
          <g
             id="g5912">
            <g
               id="g5914">
              <path
                 id="path5924"
                 style="fill:url(#linearGradient5922);stroke:none"
                 d="m 649,278.947 c -2.756,-0.923 -5.526,-2.205 -8.562,-2.109 v 0 c -1.011,0.033 -1.239,-0.43 -1.291,-1.363 v 0 c -0.214,-3.768 -1.681,-7.105 -3.707,-10.268 v 0 c 1.584,-0.124 2.591,-1.273 3.787,-2.085 v 0 c 1.299,-1.022 2.477,-2.298 3.93,-3 v 0 c 1.777,-0.856 1.263,-1.791 0.608,-2.945 v 0 c 6.923,3.531 11.349,9.277 14.338,16.292 v 0 c -2.447,0.559 -2.997,2.732 -3.895,4.609 v 0 c -0.862,1.011 -1.737,1.386 -2.734,1.386 v 0 c -0.742,0 -1.552,-0.208 -2.474,-0.517" />
            </g>
          </g>
        </g>
      </g>
      <g
         id="g5926">
        <g
           id="g5928">
          <g
             id="g5934">
            <g
               id="g5936">
              <path
                 id="path5946"
                 style="fill:url(#linearGradient5944);stroke:none"
                 d="m 608.23,268.137 c -1.288,-0.4 -2.514,-0.328 -3.754,-0.555 v 0 c -1.013,-0.714 -2.949,-0.548 -2.077,-2.906 v 0 c 0.464,-1.258 -1.076,-0.842 -1.811,-0.993 v 0 c 5.553,-6.83 12.766,-10.429 21.48,-11.101 v 0 c 0.036,2.497 0.253,4.956 1.482,7.207 v 0 c -0.115,1.314 0.428,2.682 -1.7,3.292 v 0 c -1.836,0.525 -3.833,1.656 -4.997,3.125 v 0 c -1.521,1.92 -3.242,2.575 -5.057,2.575 v 0 c -1.16,-0.001 -2.358,-0.268 -3.566,-0.644" />
            </g>
          </g>
        </g>
      </g>
      <g
         id="g5948">
        <g
           id="g5950">
          <g
             id="g5956">
            <g
               id="g5958">
              <path
                 id="path5968"
                 style="fill:url(#linearGradient5966);stroke:none"
                 d="m 643.086,314.269 c 0.647,-1.5 0.774,-3.08 0.659,-4.685 v 0 c -0.244,-3.393 -0.259,-6.504 3.476,-8.448 v 0 c 2.545,-1.323 4.572,-3.551 6.462,-5.757 v 0 c 0.859,-1.004 1.586,-0.754 2.469,-0.262 v 0 c 1.086,0.11 2.113,1.217 3.263,0.186 v 0 c 0.014,0.63 0.011,1.21 -0.207,1.866 v 0 c -2.692,8.082 -7.754,14.289 -14.731,19.016 v 0 c -0.046,-0.943 -0.439,-1.633 -1.391,-1.916" />
            </g>
          </g>
        </g>
      </g>
      <g
         id="g5970">
        <g
           id="g5972">
          <g
             id="g5978">
            <g
               id="g5980">
              <path
                 id="path5990"
                 style="fill:url(#linearGradient5988);stroke:none"
                 d="m 623.55,259.789 c -1.229,-2.251 -1.446,-4.71 -1.482,-7.207 v 0 c 7.859,-1.442 15.08,0.141 21.697,4.595 v 0 c 0.655,1.154 1.169,2.089 -0.608,2.945 v 0 c -1.453,0.702 -2.631,1.978 -3.93,3 v 0 c -4.89,-2.702 -10.17,-3.55 -15.677,-3.333" />
            </g>
          </g>
        </g>
      </g>
      <g
         id="g5992">
        <g
           id="g5994">
          <g
             id="g6000">
            <g
               id="g6002">
              <path
                 id="path6012"
                 style="fill:url(#linearGradient6010);stroke:none"
                 d="m 594.193,299.464 c -2.838,-7.427 -3.182,-15.056 -0.894,-22.737 v 0 c 1.343,0.534 1.29,1.668 1.388,2.865 v 0 c 0.084,1.05 -0.685,2.329 0.618,3.148 v 0 c -0.19,1.642 0.207,3.267 1.017,4.57 v 0 c 1.589,2.55 1.249,4.957 0.494,7.66 v 0 c -0.472,1.69 -0.058,3.628 -0.04,5.454 v 0 c -0.081,1.094 -0.161,2.188 -0.242,3.282 v 0 c -1.859,-0.791 -1.797,-2.82 -2.341,-4.242" />
            </g>
          </g>
        </g>
      </g>
      <g
         id="g6014">
        <g
           id="g6016">
          <g
             id="g6022">
            <g
               id="g6024">
              <path
                 id="path6034"
                 style="fill:url(#linearGradient6032);stroke:none"
                 d="m 656.152,295.117 c 1.111,-5.881 0.561,-11.572 -1.944,-17.039 v 0 c 0.898,-1.877 1.448,-4.05 3.895,-4.609 v 0 c 2.371,7.161 3.676,14.386 1.312,21.834 v 0 c -0.36,0.322 -0.708,0.436 -1.049,0.436 v 0 c -0.75,0 -1.468,-0.546 -2.214,-0.622" />
            </g>
          </g>
        </g>
      </g>
      <g
         id="g6036">
        <g
           id="g6038">
          <g
             id="g6044">
            <g
               id="g6046">
              <path
                 id="path6056"
                 style="fill:url(#linearGradient6054);stroke:none"
                 d="m 594.687,279.592 c -0.098,-1.197 -0.045,-2.331 -1.388,-2.865 v 0 c 1.34,-4.961 3.573,-9.421 7.289,-13.044 v 0 c 0.735,0.151 2.275,-0.265 1.811,0.993 v 0 c -0.872,2.358 1.064,2.192 2.077,2.906 v 0 c -3.981,4.491 -6.949,9.596 -9.171,15.158 v 0 c -1.303,-0.819 -0.534,-2.098 -0.618,-3.148" />
            </g>
          </g>
        </g>
      </g>
      <g
         id="g6058">
        <g
           id="g6060">
          <g
             id="g6066">
            <g
               id="g6068">
              <path
                 id="path6078"
                 style="fill:url(#linearGradient6076);stroke:none"
                 d="m 608.997,315.583 c -0.412,-0.042 -0.823,-0.084 -1.207,0.013 v 0 c -4.765,-2.999 -8.183,-7.28 -11.256,-11.89 v 0 c 0.081,-1.094 0.161,-2.188 0.242,-3.282 v 0 c 0.585,0.079 0.957,0.396 1.209,0.942 v 0 c 2.795,6.057 7.549,10.221 13.096,13.615 v 0 c -0.412,0.526 -0.899,0.649 -1.408,0.649 v 0 c -0.223,0 -0.45,-0.024 -0.676,-0.047" />
            </g>
          </g>
        </g>
      </g>
      <g
         id="g6080">
        <g
           id="g6082">
          <g
             id="g6088">
            <g
               id="g6090">
              <path
                 id="path6100"
                 style="fill:url(#linearGradient6098);stroke:none"
                 d="m 628.976,319.512 c -0.93,0.133 -1.676,-0.081 -1.672,-1.251 v 0 c 4.428,0.212 8.471,-1.221 12.439,-2.95 v 0 c 1.081,-0.471 2.068,-1.21 3.343,-1.042 v 0 c 0.952,0.283 1.345,0.973 1.391,1.916 v 0 c -3.603,1.758 -7.098,3.823 -11.26,4.004 v 0 c -1.393,-0.346 -2.75,-0.889 -4.241,-0.677" />
            </g>
          </g>
        </g>
      </g>
      <g
         id="g6102">
        <g
           id="g6104">
          <g
             id="g6110">
            <g
               id="g6112">
              <path
                 id="path6122"
                 style="fill:url(#linearGradient6120);stroke:none"
                 d="m 611.081,314.981 c -5.547,-3.394 -10.301,-7.558 -13.096,-13.615 v 0 c -0.252,-0.546 -0.624,-0.863 -1.209,-0.942 v 0 c -0.018,-1.826 -0.432,-3.764 0.04,-5.454 v 0 c 0.755,-2.703 1.095,-5.11 -0.494,-7.66 v 0 c -0.81,-1.303 -1.207,-2.928 -1.017,-4.57 v 0 c 2.222,-5.562 5.19,-10.667 9.171,-15.158 v 0 c 1.24,0.227 2.466,0.155 3.754,0.555 v 0 c 3.097,0.964 6.13,1.216 8.623,-1.931 v 0 c 1.164,-1.469 3.161,-2.6 4.997,-3.125 v 0 c 2.128,-0.61 1.585,-1.978 1.7,-3.292 v 0 c 5.507,-0.217 10.787,0.631 15.677,3.333 v 0 c -1.196,0.812 -2.203,1.961 -3.787,2.085 v 0 c 2.026,3.163 3.493,6.5 3.707,10.268 v 0 c 0.052,0.933 0.28,1.396 1.291,1.363 v 0 c 3.036,-0.096 5.806,1.186 8.562,2.109 v 0 c 2.158,0.723 3.703,0.895 5.208,-0.869 v 0 c 2.505,5.467 3.055,11.158 1.944,17.039 v 0 c -0.883,-0.492 -1.61,-0.742 -2.469,0.262 v 0 c -1.89,2.206 -3.917,4.434 -6.462,5.757 v 0 c -3.735,1.944 -3.72,5.055 -3.476,8.448 v 0 c 0.115,1.605 -0.012,3.185 -0.659,4.685 v 0 c -1.275,-0.168 -2.262,0.571 -3.343,1.042 v 0 c -3.968,1.729 -8.011,3.162 -12.439,2.95 v 0 c -0.423,0.044 -0.84,0.065 -1.253,0.065 v 0 c -5.214,0 -9.765,-3.298 -14.97,-3.345 m 5.2,-33.676 c -2.101,3.977 -5.42,7.069 -7.858,10.813 v 0 c -0.621,0.956 -0.158,1.132 0.233,1.76 v 0 c 2.296,3.695 4.973,7.105 7.544,10.601 v 0 c 0.906,1.231 1.79,1.468 2.974,1.129 v 0 c 4.814,-1.386 9.031,-4.042 13.387,-6.407 v 0 c 0.588,-0.32 0.701,-0.648 0.713,-0.639 v 0 c -1.175,-4.906 -2.315,-9.209 -2.64,-13.676 v 0 c -0.055,-0.744 -0.576,-0.717 -1.121,-0.843 v 0 c -3.905,-0.898 -7.805,-1.816 -11.69,-2.8 v 0 c -0.354,-0.09 -0.676,-0.4 -0.986,-0.4 v 0 c -0.188,0 -0.372,0.114 -0.556,0.462" />
            </g>
          </g>
        </g>
      </g>
      <g
         id="g6124">
        <g
           id="g6126">
          <g
             id="g6132">
            <g
               id="g6134">
              <path
                 id="path6144"
                 style="fill:url(#linearGradient6142);stroke:none"
                 d="m 616.2,304.479 c -2.571,-3.496 -5.248,-6.906 -7.544,-10.601 v 0 c -0.391,-0.628 -0.854,-0.804 -0.233,-1.76 v 0 c 2.438,-3.744 5.757,-6.836 7.858,-10.813 v 0 c 0.487,-0.921 0.973,-0.206 1.542,-0.062 v 0 c 3.885,0.984 7.785,1.902 11.69,2.8 v 0 c 0.545,0.126 1.066,0.099 1.121,0.843 v 0 c 0.325,4.467 1.465,8.77 2.64,13.676 v 0 c -0.012,-0.009 -0.125,0.319 -0.713,0.639 v 0 c -4.356,2.365 -8.573,5.021 -13.387,6.407 v 0 c -0.318,0.091 -0.614,0.14 -0.895,0.14 v 0 c -0.765,0 -1.416,-0.368 -2.079,-1.269 m 17.074,-5.917 c 10e-4,0 10e-4,0.002 10e-4,0.005 v 0 c 0,-0.002 -10e-4,-0.003 -10e-4,-0.005" />
            </g>
          </g>
        </g>
      </g>
    </g>
  </g>
</svg>
