<?xml version="1.0" encoding="UTF-8" standalone="no"?>
<svg
   xmlns:dc="http://purl.org/dc/elements/1.1/"
   xmlns:cc="http://creativecommons.org/ns#"
   xmlns:rdf="http://www.w3.org/1999/02/22-rdf-syntax-ns#"
   xmlns:svg="http://www.w3.org/2000/svg"
   xmlns="http://www.w3.org/2000/svg"
   xmlns:sodipodi="http://sodipodi.sourceforge.net/DTD/sodipodi-0.dtd"
   xmlns:inkscape="http://www.inkscape.org/namespaces/inkscape"
   sodipodi:docname="space_shuttle.svg"
   inkscape:version="1.0 (6e3e5246a0, 2020-05-07)"
   id="svg12308"
   version="1.1"
   viewBox="0 0 29.558659 23.197481"
   height="23.197481mm"
   width="29.558659mm">
  <defs
     id="defs12302">
    <linearGradient
       x1="0"
       y1="0"
       x2="1"
       y2="0"
       gradientUnits="userSpaceOnUse"
       gradientTransform="matrix(93.275719,0,0,-93.275719,385.19318,589.93481)"
       spreadMethod="pad"
       id="linearGradient2068">
      <stop
         style="stop-opacity:1;stop-color:#63d7c2"
         offset="0"
         id="stop2062" />
      <stop
         style="stop-opacity:1;stop-color:#63d7c2"
         offset="0.67807152"
         id="stop2064" />
      <stop
         style="stop-opacity:1;stop-color:#1e0757"
         offset="1"
         id="stop2066" />
    </linearGradient>
    <linearGradient
       x1="0"
       y1="0"
       x2="1"
       y2="0"
       gradientUnits="userSpaceOnUse"
       gradientTransform="matrix(55.868546,-34.822174,-34.822174,-55.868546,399.12714,602.29449)"
       spreadMethod="pad"
       id="linearGradient2090">
      <stop
         style="stop-opacity:1;stop-color:#63d7c2"
         offset="0"
         id="stop2084" />
      <stop
         style="stop-opacity:1;stop-color:#63d7c2"
         offset="0.67807152"
         id="stop2086" />
      <stop
         style="stop-opacity:1;stop-color:#1e0757"
         offset="1"
         id="stop2088" />
    </linearGradient>
    <linearGradient
       x1="0"
       y1="0"
       x2="1"
       y2="0"
       gradientUnits="userSpaceOnUse"
       gradientTransform="matrix(93.275719,0,0,-93.275719,385.19318,573.99384)"
       spreadMethod="pad"
       id="linearGradient2112">
      <stop
         style="stop-opacity:1;stop-color:#63d7c2"
         offset="0"
         id="stop2106" />
      <stop
         style="stop-opacity:1;stop-color:#63d7c2"
         offset="0.67807152"
         id="stop2108" />
      <stop
         style="stop-opacity:1;stop-color:#1e0757"
         offset="1"
         id="stop2110" />
    </linearGradient>
    <linearGradient
       x1="0"
       y1="0"
       x2="1"
       y2="0"
       gradientUnits="userSpaceOnUse"
       gradientTransform="matrix(-15.354284,-95.856651,-95.856651,15.354284,434.96228,605.30145)"
       spreadMethod="pad"
       id="linearGradient2134">
      <stop
         style="stop-opacity:1;stop-color:#e35db8"
         offset="0"
         id="stop2128" />
      <stop
         style="stop-opacity:1;stop-color:#1e0757"
         offset="0.60396321"
         id="stop2130" />
      <stop
         style="stop-opacity:1;stop-color:#1e0757"
         offset="1"
         id="stop2132" />
    </linearGradient>
    <linearGradient
       x1="0"
       y1="0"
       x2="1"
       y2="0"
       gradientUnits="userSpaceOnUse"
       gradientTransform="matrix(91.400261,0,0,-91.400261,385.23102,565.33191)"
       spreadMethod="pad"
       id="linearGradient2156">
      <stop
         style="stop-opacity:1;stop-color:#63d7c2"
         offset="0"
         id="stop2150" />
      <stop
         style="stop-opacity:1;stop-color:#63d7c2"
         offset="0.67807152"
         id="stop2152" />
      <stop
         style="stop-opacity:1;stop-color:#1e0757"
         offset="1"
         id="stop2154" />
    </linearGradient>
    <linearGradient
       x1="0"
       y1="0"
       x2="1"
       y2="0"
       gradientUnits="userSpaceOnUse"
       gradientTransform="matrix(14.897222,0,0,14.897222,387.07523,565.41174)"
       spreadMethod="pad"
       id="linearGradient2178">
      <stop
         style="stop-opacity:1;stop-color:#f6d348"
         offset="0"
         id="stop2172" />
      <stop
         style="stop-opacity:1;stop-color:#f6d348"
         offset="0.03027482"
         id="stop2174" />
      <stop
         style="stop-opacity:1;stop-color:#f263bd"
         offset="1"
         id="stop2176" />
    </linearGradient>
    <linearGradient
       x1="0"
       y1="0"
       x2="1"
       y2="0"
       gradientUnits="userSpaceOnUse"
       gradientTransform="matrix(90.703949,0,0,-90.703949,385.25391,572.95306)"
       spreadMethod="pad"
       id="linearGradient2200">
      <stop
         style="stop-opacity:1;stop-color:#63d7c2"
         offset="0"
         id="stop2194" />
      <stop
         style="stop-opacity:1;stop-color:#63d7c2"
         offset="0.67807152"
         id="stop2196" />
      <stop
         style="stop-opacity:1;stop-color:#1e0757"
         offset="1"
         id="stop2198" />
    </linearGradient>
    <linearGradient
       x1="0"
       y1="0"
       x2="1"
       y2="0"
       gradientUnits="userSpaceOnUse"
       gradientTransform="matrix(10.54869,0,0,10.54869,387.39664,572.95306)"
       spreadMethod="pad"
       id="linearGradient2222">
      <stop
         style="stop-opacity:1;stop-color:#f6d348"
         offset="0"
         id="stop2216" />
      <stop
         style="stop-opacity:1;stop-color:#f6d348"
         offset="0.03027482"
         id="stop2218" />
      <stop
         style="stop-opacity:1;stop-color:#f263bd"
         offset="1"
         id="stop2220" />
    </linearGradient>
    <linearGradient
       x1="0"
       y1="0"
       x2="1"
       y2="0"
       gradientUnits="userSpaceOnUse"
       gradientTransform="matrix(6.7091737,13.300909,13.300909,-6.7091737,400.23062,544.90039)"
       spreadMethod="pad"
       id="linearGradient2244">
      <stop
         style="stop-opacity:1;stop-color:#f6d348"
         offset="0"
         id="stop2238" />
      <stop
         style="stop-opacity:1;stop-color:#f6d348"
         offset="0.03027482"
         id="stop2240" />
      <stop
         style="stop-opacity:1;stop-color:#f263bd"
         offset="1"
         id="stop2242" />
    </linearGradient>
    <linearGradient
       x1="0"
       y1="0"
       x2="1"
       y2="0"
       gradientUnits="userSpaceOnUse"
       gradientTransform="matrix(4.750751,9.4183445,9.4183445,-4.750751,407.10861,541.79102)"
       spreadMethod="pad"
       id="linearGradient2266">
      <stop
         style="stop-opacity:1;stop-color:#f6d348"
         offset="0"
         id="stop2260" />
      <stop
         style="stop-opacity:1;stop-color:#f6d348"
         offset="0.03027482"
         id="stop2262" />
      <stop
         style="stop-opacity:1;stop-color:#f263bd"
         offset="1"
         id="stop2264" />
    </linearGradient>
    <linearGradient
       x1="0"
       y1="0"
       x2="1"
       y2="0"
       gradientUnits="userSpaceOnUse"
       gradientTransform="matrix(93.275719,0,0,-93.275719,385.19318,589.69928)"
       spreadMethod="pad"
       id="linearGradient2288">
      <stop
         style="stop-opacity:1;stop-color:#63d7c2"
         offset="0"
         id="stop2282" />
      <stop
         style="stop-opacity:1;stop-color:#63d7c2"
         offset="0.67807152"
         id="stop2284" />
      <stop
         style="stop-opacity:1;stop-color:#1e0757"
         offset="1"
         id="stop2286" />
    </linearGradient>
    <linearGradient
       x1="0"
       y1="0"
       x2="1"
       y2="0"
       gradientUnits="userSpaceOnUse"
       gradientTransform="matrix(-13.775806,-27.121117,-27.121117,13.775806,452.66928,597.1037)"
       spreadMethod="pad"
       id="linearGradient2310">
      <stop
         style="stop-opacity:1;stop-color:#e35db8"
         offset="0"
         id="stop2304" />
      <stop
         style="stop-opacity:1;stop-color:#1e0757"
         offset="0.60396321"
         id="stop2306" />
      <stop
         style="stop-opacity:1;stop-color:#1e0757"
         offset="1"
         id="stop2308" />
    </linearGradient>
  </defs>
  <sodipodi:namedview
     inkscape:window-maximized="0"
     inkscape:window-y="27"
     inkscape:window-x="122"
     inkscape:window-height="1016"
     inkscape:window-width="1428"
     showgrid="false"
     inkscape:document-rotation="0"
     inkscape:current-layer="layer1"
     inkscape:document-units="mm"
     inkscape:cy="6.6948945"
     inkscape:cx="1241.5732"
     inkscape:zoom="0.35"
     inkscape:pageshadow="2"
     inkscape:pageopacity="0.0"
     borderopacity="1.0"
     bordercolor="#666666"
     pagecolor="#ffffff"
     id="base" />
  <metadata
     id="metadata12305">
    <rdf:RDF>
      <cc:Work
         rdf:about="">
        <dc:format>image/svg+xml</dc:format>
        <dc:type
           rdf:resource="http://purl.org/dc/dcmitype/StillImage" />
        <dc:title></dc:title>
      </cc:Work>
    </rdf:RDF>
  </metadata>
  <g
     transform="translate(222.66623,-146.39531)"
     id="layer1"
     inkscape:groupmode="layer"
     inkscape:label="Layer 1">
    <g
       transform="matrix(0.35277777,0,0,-0.35277777,-359.21804,360.48626)"
       id="g9427">
      <g
         id="g2050">
        <g
           id="g2052">
          <g
             id="g2058">
            <g
               id="g2060">
              <path
                 id="path2070"
                 style="fill:url(#linearGradient2068);stroke:none"
                 d="m 444.869,595.833 c 5.215,-4.525 5.977,-5.538 7.876,-12.647 v 0 c 3.428,2.593 3.584,5.751 0.526,10.455 v 0 c -1.289,1.984 -3.207,3.042 -5.245,3.042 v 0 c -1.044,0 -2.119,-0.277 -3.157,-0.85" />
            </g>
          </g>
        </g>
      </g>
      <g
         id="g2072">
        <g
           id="g2074">
          <g
             id="g2080">
            <g
               id="g2082">
              <path
                 id="path2092"
                 style="fill:url(#linearGradient2090);stroke:none"
                 d="m 459.433,603.881 c -3.344,-0.464 -6.723,-0.713 -10.041,-1.305 v 0 c -1.69,-0.301 -3.471,-0.865 -4.891,-1.799 v 0 c -9.005,-5.919 -17.921,-11.973 -26.864,-17.985 v 0 c -2.471,-1.659 -4.919,-3.349 -7.405,-4.986 v 0 c -0.913,-0.598 -2.108,-1.574 -2.803,-0.07 v 0 c -0.256,0.557 0.68,1.792 1.274,2.565 v 0 c 0.418,0.541 1.18,0.815 1.78,1.22 v 0 c 3.458,2.338 6.912,4.677 10.594,7.168 v 0 c -2.928,1.073 -5.553,1.801 -7.969,2.968 v 0 c -5.904,2.858 -9.437,2.374 -14.166,-2.144 v 0 c -1.086,-1.039 -1.16,-1.942 -0.382,-3.157 v 0 c 2.122,-3.319 4.246,-6.641 6.246,-10.036 v 0 c 1.09,-1.848 1.929,-3.845 2.64,-5.287 v 0 c 3.829,2.164 6.798,3.917 9.849,5.51 v 0 c 0.429,0.225 1.004,0.172 1.579,0.121 v 0 c 0.267,-0.024 0.534,-0.048 0.787,-0.044 v 0 c -0.248,-0.811 -0.347,-1.716 -0.794,-2.399 v 0 c -0.368,-0.56 -1.138,-0.859 -1.741,-1.26 v 0 c -3.084,-2.045 -6.171,-4.085 -9.257,-6.128 v 0 c -1.53,-1.013 -3.168,-2.088 -1.792,-4.216 v 0 c 1.366,-2.111 3.047,-1.081 4.612,-0.148 v 0 c 3.592,2.141 7.139,4.366 10.803,6.38 v 0 c 0.527,0.291 1.251,0.23 1.973,0.169 v 0 c 0.332,-0.029 0.664,-0.057 0.978,-0.051 v 0 c -0.471,-0.859 -0.733,-2 -1.449,-2.532 v 0 c -2.626,-1.958 -5.402,-3.713 -8.44,-5.752 v 0 c 3.234,-5.091 6.611,-10.446 10.063,-15.754 v 0 c 0.273,-0.42 1.092,-0.766 1.605,-0.704 v 0 c 4.012,0.482 8.409,4.583 8.842,8.521 v 0 c 0.434,3.921 0.506,7.881 0.748,11.991 v 0 c -1.367,-0.796 -2.808,-1.629 -4.241,-2.472 v 0 c -2.843,-1.671 -5.633,-3.441 -8.552,-4.964 v 0 c -0.766,-0.401 -1.926,-0.048 -2.903,-0.039 v 0 c 0.496,0.859 0.877,1.822 1.527,2.547 v 0 c 0.51,0.57 1.351,0.842 2.045,1.249 v 0 c 10.954,6.444 21.931,12.845 32.833,19.373 v 0 c 1.604,0.96 3.099,2.334 4.202,3.843 v 0 c 2.039,2.782 3.7,5.837 5.611,8.717 v 0 c 1.716,2.584 2.129,5.211 0.438,7.9 v 0 c -1.403,2.23 -3.409,3.103 -5.781,3.104 v 0 c -0.504,0 -1.024,-0.04 -1.558,-0.114 M 449.41,582.765 c -0.255,4.624 -2.298,8.038 -6.461,10.211 v 0 c -2.515,1.316 -2.606,4.389 0.044,5.415 v 0 c 2.438,0.944 5.224,0.984 7.857,1.425 v 0 l 0.11,-0.534 c 0.512,-0.227 1.041,-0.422 1.536,-0.684 v 0 c 5.673,-3.005 7.531,-11.65 3.56,-16.64 v 0 c -0.492,-0.621 -1.105,-1.184 -1.763,-1.627 v 0 c -0.756,-0.509 -1.5,-0.748 -2.17,-0.748 v 0 c -1.48,0 -2.602,1.166 -2.713,3.182" />
            </g>
          </g>
        </g>
      </g>
      <g
         id="g2094">
        <g
           id="g2096">
          <g
             id="g2102">
            <g
               id="g2104">
              <path
                 id="path2114"
                 style="fill:url(#linearGradient2112);stroke:none"
                 d="m 460.307,606.826 c -4.001,-0.346 -8.011,-0.728 -11.958,-1.435 v 0 c -1.991,-0.357 -4.001,-1.217 -5.733,-2.287 v 0 c -4.036,-2.488 -7.967,-5.151 -11.827,-7.903 v 0 c -5.535,-3.944 -11.07,-3.958 -16.946,-0.729 v 0 c -1.901,1.044 -4.173,1.675 -6.342,1.926 v 0 c -4.083,0.474 -7.149,-1.857 -10.095,-4.336 v 0 c -2.747,-2.309 -3.183,-4.27 -1.299,-7.337 v 0 c 2.82,-4.588 5.674,-9.154 8.591,-13.681 v 0 c 0.805,-1.255 1.012,-2.043 -0.309,-3.212 v 0 c -2.107,-1.861 -2.268,-4.77 -0.764,-7.016 v 0 c 1.444,-2.162 3.938,-2.911 6.608,-1.983 v 0 c 0.45,0.156 0.887,0.35 1.594,0.632 v 0 c 0.548,-0.825 0.999,-1.477 1.422,-2.148 v 0 c 2.868,-4.555 5.745,-9.107 8.587,-13.679 v 0 c 1.139,-1.833 2.831,-2.993 4.844,-2.338 v 0 c 4.576,1.49 8.974,3.528 10.632,8.583 v 0 c 0.632,1.928 0.812,4.097 0.754,6.145 v 0 c -0.177,6.618 2.146,11.681 8.188,14.899 v 0 c 4.037,2.155 7.966,4.529 11.844,6.96 v 0 c 1.606,1.009 3.265,2.209 4.348,3.716 v 0 c 2.524,3.518 4.788,7.232 7.012,10.954 v 0 c 1.939,3.246 1.849,6.658 -0.122,9.843 v 0 c -1.848,2.992 -4.622,4.471 -7.987,4.472 v 0 c -0.342,0 -0.689,-0.016 -1.042,-0.046 m -50.075,-29.02 c 2.486,1.637 4.934,3.327 7.405,4.986 v 0 c 8.943,6.012 17.859,12.066 26.864,17.985 v 0 c 1.42,0.934 3.201,1.498 4.891,1.799 v 0 c 3.318,0.592 6.697,0.841 10.041,1.305 v 0 c 3.052,0.423 5.637,-0.286 7.339,-2.99 v 0 c 1.691,-2.689 1.278,-5.316 -0.438,-7.9 v 0 c -1.911,-2.88 -3.572,-5.935 -5.611,-8.717 v 0 c -1.103,-1.509 -2.598,-2.883 -4.202,-3.843 v 0 c -10.902,-6.528 -21.879,-12.929 -32.833,-19.373 v 0 c -0.694,-0.407 -1.535,-0.679 -2.045,-1.249 v 0 c -0.65,-0.725 -1.031,-1.688 -1.527,-2.547 v 0 c 0.977,-0.009 2.137,-0.362 2.903,0.039 v 0 c 2.919,1.523 5.709,3.293 8.552,4.964 v 0 c 1.433,0.843 2.874,1.676 4.241,2.472 v 0 c -0.242,-4.11 -0.314,-8.07 -0.748,-11.991 v 0 c -0.433,-3.938 -4.83,-8.039 -8.842,-8.521 v 0 c -0.513,-0.062 -1.332,0.284 -1.605,0.704 v 0 c -3.452,5.308 -6.829,10.663 -10.063,15.754 v 0 c 3.038,2.039 5.814,3.794 8.44,5.752 v 0 c 0.716,0.532 0.978,1.673 1.449,2.532 v 0 c -0.314,-0.006 -0.646,0.022 -0.978,0.051 v 0 c -0.722,0.061 -1.446,0.122 -1.973,-0.169 v 0 c -3.664,-2.014 -7.211,-4.239 -10.803,-6.38 v 0 c -1.565,-0.933 -3.246,-1.963 -4.612,0.148 v 0 c -1.376,2.128 0.262,3.203 1.792,4.216 v 0 c 3.086,2.043 6.173,4.083 9.257,6.128 v 0 c 0.603,0.401 1.373,0.7 1.741,1.26 v 0 c 0.447,0.683 0.546,1.588 0.794,2.399 v 0 c -0.253,-0.004 -0.52,0.02 -0.787,0.044 v 0 c -0.575,0.051 -1.15,0.104 -1.579,-0.121 v 0 c -3.051,-1.593 -6.02,-3.346 -9.849,-5.51 v 0 c -0.711,1.442 -1.55,3.439 -2.64,5.287 v 0 c -2,3.395 -4.124,6.717 -6.246,10.036 v 0 c -0.778,1.215 -0.704,2.118 0.382,3.157 v 0 c 4.729,4.518 8.262,5.002 14.166,2.144 v 0 c 2.416,-1.167 5.041,-1.895 7.969,-2.968 v 0 c -3.682,-2.491 -7.136,-4.83 -10.594,-7.168 v 0 c -0.6,-0.405 -1.362,-0.679 -1.78,-1.22 v 0 c -0.594,-0.773 -1.53,-2.008 -1.274,-2.565 v 0 c 0.272,-0.589 0.621,-0.798 1,-0.798 v 0 c 0.588,0 1.247,0.504 1.803,0.868" />
            </g>
          </g>
        </g>
      </g>
      <g
         id="g2116">
        <g
           id="g2118">
          <g
             id="g2124">
            <g
               id="g2126">
              <path
                 id="path2136"
                 style="fill:url(#linearGradient2134);stroke:none"
                 d="m 460.307,606.826 c -4.001,-0.346 -8.011,-0.728 -11.958,-1.435 v 0 c -1.991,-0.357 -4.001,-1.217 -5.733,-2.287 v 0 c -4.036,-2.488 -7.967,-5.151 -11.827,-7.903 v 0 c -5.535,-3.944 -11.07,-3.958 -16.946,-0.729 v 0 c -1.901,1.044 -4.173,1.675 -6.342,1.926 v 0 c -4.083,0.474 -7.149,-1.857 -10.095,-4.336 v 0 c -2.747,-2.309 -3.183,-4.27 -1.299,-7.337 v 0 c 2.82,-4.588 5.674,-9.154 8.591,-13.681 v 0 c 0.805,-1.255 1.012,-2.043 -0.309,-3.212 v 0 c -2.107,-1.861 -2.268,-4.77 -0.764,-7.016 v 0 c 1.444,-2.162 3.938,-2.911 6.608,-1.983 v 0 c 0.45,0.156 0.887,0.35 1.594,0.632 v 0 c 0.548,-0.825 0.999,-1.477 1.422,-2.148 v 0 c 2.868,-4.555 5.745,-9.107 8.587,-13.679 v 0 c 1.139,-1.833 2.831,-2.993 4.844,-2.338 v 0 c 4.576,1.49 8.974,3.528 10.632,8.583 v 0 c 0.632,1.928 0.812,4.097 0.754,6.145 v 0 c -0.177,6.618 2.146,11.681 8.188,14.899 v 0 c 4.037,2.155 7.966,4.529 11.844,6.96 v 0 c 1.606,1.009 3.265,2.209 4.348,3.716 v 0 c 2.524,3.518 4.788,7.232 7.012,10.954 v 0 c 1.939,3.246 1.849,6.658 -0.122,9.843 v 0 c -1.848,2.992 -4.622,4.471 -7.987,4.472 v 0 c -0.342,0 -0.689,-0.016 -1.042,-0.046 m -50.075,-29.02 c 2.486,1.637 4.934,3.327 7.405,4.986 v 0 c 8.943,6.012 17.859,12.066 26.864,17.985 v 0 c 1.42,0.934 3.201,1.498 4.891,1.799 v 0 c 3.318,0.592 6.697,0.841 10.041,1.305 v 0 c 3.052,0.423 5.637,-0.286 7.339,-2.99 v 0 c 1.691,-2.689 1.278,-5.316 -0.438,-7.9 v 0 c -1.911,-2.88 -3.572,-5.935 -5.611,-8.717 v 0 c -1.103,-1.509 -2.598,-2.883 -4.202,-3.843 v 0 c -10.902,-6.528 -21.879,-12.929 -32.833,-19.373 v 0 c -0.694,-0.407 -1.535,-0.679 -2.045,-1.249 v 0 c -0.124,-0.139 -0.238,-0.285 -0.345,-0.439 v 0 c -0.787,-1.126 0.467,-2.694 1.697,-2.081 v 0 l 0.024,0.012 c 2.919,1.523 5.709,3.293 8.552,4.964 v 0 c 1.433,0.843 2.874,1.676 4.241,2.472 v 0 c -0.242,-4.11 -0.314,-8.07 -0.748,-11.991 v 0 c -0.433,-3.938 -4.83,-8.039 -8.842,-8.521 v 0 c -0.513,-0.062 -1.332,0.284 -1.605,0.704 v 0 c -3.452,5.308 -6.829,10.663 -10.063,15.754 v 0 c 3.038,2.039 5.814,3.794 8.44,5.752 v 0 c 0.08,0.058 0.154,0.126 0.223,0.198 v 0 c 0.953,1.005 -0.125,2.747 -1.447,2.333 v 0 c -0.098,-0.029 -0.191,-0.069 -0.278,-0.117 v 0 c -3.664,-2.014 -7.211,-4.239 -10.803,-6.38 v 0 c -1.565,-0.933 -3.246,-1.963 -4.612,0.148 v 0 c -1.376,2.128 0.262,3.203 1.792,4.216 v 0 c 3.086,2.043 6.173,4.083 9.257,6.128 v 0 c 0.603,0.401 1.373,0.7 1.741,1.26 v 0 c 0.104,0.159 0.189,0.33 0.262,0.509 v 0 c 0.418,1.032 -0.512,2.21 -1.584,1.911 v 0 c -0.088,-0.025 -0.171,-0.057 -0.25,-0.098 v 0 c -3.051,-1.593 -6.02,-3.346 -9.849,-5.51 v 0 c -0.711,1.442 -1.55,3.439 -2.64,5.287 v 0 c -2,3.395 -4.124,6.717 -6.246,10.036 v 0 c -0.778,1.215 -0.704,2.118 0.382,3.157 v 0 c 4.729,4.518 8.262,5.002 14.166,2.144 v 0 c 2.416,-1.167 5.041,-1.895 7.969,-2.968 v 0 c -3.682,-2.491 -7.136,-4.83 -10.594,-7.168 v 0 c -0.6,-0.405 -1.915,-1.036 -2.334,-1.577 v 0 c -0.594,-0.774 -1.291,-1.293 -0.72,-2.208 v 0 c 0.347,-0.556 0.715,-0.755 1.09,-0.755 v 0 c 0.573,0 1.161,0.464 1.713,0.825" />
            </g>
          </g>
        </g>
      </g>
      <g
         id="g2138">
        <g
           id="g2140">
          <g
             id="g2146">
            <g
               id="g2148">
              <path
                 id="path2158"
                 style="fill:url(#linearGradient2156);stroke:none"
                 d="m 399.411,570.447 c -3.863,-2.582 -7.689,-5.224 -11.425,-7.984 v 0 c -0.572,-0.423 -0.62,-1.554 -0.91,-2.358 v 0 c 0.268,10e-4 0.558,-0.031 0.846,-0.061 v 0 c 0.631,-0.069 1.261,-0.137 1.672,0.132 v 0 c 3.821,2.499 7.547,5.145 11.281,7.775 v 0 c 0.498,0.349 0.488,0.616 0.968,1.122 v 0 c 0.129,0.586 0.078,1.071 -0.09,1.213 v 0 c -0.311,0.263 -0.849,0.395 -1.354,0.395 v 0 c -0.386,0 -0.754,-0.077 -0.988,-0.234" />
            </g>
          </g>
        </g>
      </g>
      <g
         id="g2160">
        <g
           id="g2162">
          <g
             id="g2168">
            <g
               id="g2170">
              <path
                 id="path2180"
                 style="fill:url(#linearGradient2178);stroke:none"
                 d="m 399.411,570.447 c -3.863,-2.582 -7.689,-5.224 -11.425,-7.984 v 0 c -0.572,-0.423 -0.62,-1.554 -0.91,-2.358 v 0 c 0.268,10e-4 0.558,-0.031 0.846,-0.061 v 0 c 0.631,-0.069 1.261,-0.137 1.672,0.132 v 0 c 3.821,2.499 7.547,5.145 11.281,7.775 v 0 c 0.235,0.165 0.441,0.371 0.644,0.597 v 0 c 0.479,0.533 0.615,1.342 0.229,1.944 v 0 c -0.052,0.082 -0.111,0.12 -0.168,0.143 v 0 c -0.362,0.145 -0.682,0.206 -0.968,0.206 v 0 c -0.478,0 -0.864,-0.168 -1.201,-0.394" />
            </g>
          </g>
        </g>
      </g>
      <g
         id="g2182">
        <g
           id="g2184">
          <g
             id="g2190">
            <g
               id="g2192">
              <path
                 id="path2202"
                 style="fill:url(#linearGradient2200);stroke:none"
                 d="m 395.5,576.98 c -2.49,-1.903 -4.944,-3.865 -7.273,-5.961 v 0 c -0.551,-0.495 -0.569,-1.583 -0.83,-2.397 v 0 c 0.286,0.02 0.598,0.008 0.908,-0.004 v 0 c 0.675,-0.027 1.35,-0.054 1.777,0.26 v 0 c 2.397,1.752 4.632,3.728 6.913,5.641 v 0 c 0.418,0.353 0.224,0.269 0.697,0.766 v 0 c 0.511,0.67 0.102,1.828 -0.25,1.925 v 0 c -0.218,0.06 -0.474,0.093 -0.734,0.093 v 0 c -0.452,0 -0.916,-0.099 -1.208,-0.323" />
            </g>
          </g>
        </g>
      </g>
      <g
         id="g2204">
        <g
           id="g2206">
          <g
             id="g2212">
            <g
               id="g2214">
              <path
                 id="path2224"
                 style="fill:url(#linearGradient2222);stroke:none"
                 d="m 395.5,576.98 c -2.49,-1.903 -4.944,-3.865 -7.273,-5.961 v 0 c -0.551,-0.495 -0.569,-1.583 -0.83,-2.397 v 0 c 0.286,0.02 0.598,0.008 0.908,-0.004 v 0 c 0.675,-0.027 1.35,-0.054 1.777,0.26 v 0 c 2.397,1.752 4.632,3.728 6.913,5.641 v 0 c 0.161,0.136 0.31,0.284 0.46,0.443 v 0 c 0.529,0.558 0.672,1.439 0.22,2.061 v 0 c -0.069,0.095 -0.146,0.162 -0.233,0.187 v 0 c -0.218,0.06 -0.474,0.093 -0.734,0.093 v 0 c -0.452,0 -0.916,-0.099 -1.208,-0.323" />
            </g>
          </g>
        </g>
      </g>
      <g
         id="g2226">
        <g
           id="g2228">
          <g
             id="g2234">
            <g
               id="g2236">
              <path
                 id="path2246"
                 style="fill:url(#linearGradient2244);stroke:none"
                 d="m 409.535,556.384 c -0.292,-0.08 -0.57,-0.171 -0.823,-0.306 v 0 c -4.03,-2.149 -8.071,-4.284 -12.022,-6.571 v 0 c -0.62,-0.359 -0.809,-1.458 -1.197,-2.217 v 0 c 0.848,-0.103 1.88,-0.568 2.516,-0.248 v 0 c 4.146,2.092 8.228,4.319 12.273,6.605 v 0 c 0.565,0.319 1.056,0.816 1.144,1.852 v 0 c 0.005,0.06 -0.002,0.131 -0.051,0.214 v 0 c -0.283,0.48 -0.82,0.733 -1.371,0.733 v 0 c -0.157,0 -0.315,-0.021 -0.469,-0.062" />
            </g>
          </g>
        </g>
      </g>
      <g
         id="g2248">
        <g
           id="g2250">
          <g
             id="g2256">
            <g
               id="g2258">
              <path
                 id="path2268"
                 style="fill:url(#linearGradient2266);stroke:none"
                 d="m 413.433,549.868 c -0.211,-0.063 -0.41,-0.131 -0.603,-0.214 v 0 c -2.735,-1.173 -5.506,-2.279 -8.15,-3.629 v 0 c -0.69,-0.351 -0.97,-1.502 -1.438,-2.284 v 0 c 0.844,-0.133 1.825,-0.606 2.514,-0.339 v 0 c 2.92,1.136 5.777,2.444 8.599,3.81 v 0 c 0.521,0.252 0.957,1.026 1.078,1.63 v 0 c 0.018,0.09 -0.007,0.189 -0.061,0.293 v 0 c -0.272,0.527 -0.839,0.808 -1.422,0.808 v 0 c -0.174,0 -0.348,-0.025 -0.517,-0.075" />
            </g>
          </g>
        </g>
      </g>
      <g
         id="g2270">
        <g
           id="g2272">
          <g
             id="g2278">
            <g
               id="g2280">
              <path
                 id="path2290"
                 style="fill:url(#linearGradient2288);stroke:none"
                 d="m 442.993,598.391 c -2.65,-1.026 -2.559,-4.099 -0.044,-5.415 v 0 c 4.163,-2.173 6.206,-5.587 6.461,-10.211 v 0 c 0.162,-2.929 2.457,-4.065 4.883,-2.434 v 0 c 0.658,0.443 1.271,1.006 1.763,1.627 v 0 c 3.971,4.99 2.113,13.635 -3.56,16.64 v 0 c -0.495,0.262 -1.024,0.457 -1.536,0.684 v 0 l -0.11,0.534 c -2.633,-0.441 -5.419,-0.481 -7.857,-1.425 m 1.876,-2.558 c 3.066,1.69 6.452,0.808 8.402,-2.192 v 0 c 3.058,-4.704 2.902,-7.862 -0.526,-10.455 v 0 c -1.899,7.109 -2.661,8.122 -7.876,12.647" />
            </g>
          </g>
        </g>
      </g>
      <g
         id="g2292">
        <g
           id="g2294">
          <g
             id="g2300">
            <g
               id="g2302">
              <path
                 id="path2312"
                 style="fill:url(#linearGradient2310);stroke:none"
                 d="m 442.993,598.391 c -2.65,-1.026 -2.559,-4.099 -0.044,-5.415 v 0 c 4.163,-2.173 6.206,-5.587 6.461,-10.211 v 0 c 0.162,-2.929 2.457,-4.065 4.883,-2.434 v 0 c 0.658,0.443 1.271,1.006 1.763,1.627 v 0 c 3.971,4.99 2.113,13.635 -3.56,16.64 v 0 c -0.495,0.262 -1.024,0.457 -1.536,0.684 v 0 l -1.902,0.284 c -2.633,-0.441 -3.627,-0.231 -6.065,-1.175 m 1.876,-2.558 c 3.066,1.69 6.452,0.808 8.402,-2.192 v 0 c 3.058,-4.704 2.902,-7.862 -0.526,-10.455 v 0 c -1.899,7.109 -2.661,8.122 -7.876,12.647" />
            </g>
          </g>
        </g>
      </g>
    </g>
  </g>
</svg>
