<?xml version="1.0" encoding="UTF-8" standalone="no"?>
<svg
   xmlns:dc="http://purl.org/dc/elements/1.1/"
   xmlns:cc="http://creativecommons.org/ns#"
   xmlns:rdf="http://www.w3.org/1999/02/22-rdf-syntax-ns#"
   xmlns:svg="http://www.w3.org/2000/svg"
   xmlns="http://www.w3.org/2000/svg"
   xmlns:sodipodi="http://sodipodi.sourceforge.net/DTD/sodipodi-0.dtd"
   xmlns:inkscape="http://www.inkscape.org/namespaces/inkscape"
   sodipodi:docname="speaker.svg"
   inkscape:version="1.0 (6e3e5246a0, 2020-05-07)"
   id="svg11086"
   version="1.1"
   viewBox="0 0 19.333281 16.285986"
   height="16.285986mm"
   width="19.333281mm">
  <defs
     id="defs11080">
    <linearGradient
       x1="0"
       y1="0"
       x2="1"
       y2="0"
       gradientUnits="userSpaceOnUse"
       gradientTransform="matrix(31.57657,0,0,-31.57657,1048.9586,700.99792)"
       spreadMethod="pad"
       id="linearGradient8138">
      <stop
         style="stop-opacity:1;stop-color:#63d7c2"
         offset="0"
         id="stop8132" />
      <stop
         style="stop-opacity:1;stop-color:#63d7c2"
         offset="0.67807152"
         id="stop8134" />
      <stop
         style="stop-opacity:1;stop-color:#1e0757"
         offset="1"
         id="stop8136" />
    </linearGradient>
    <linearGradient
       x1="0"
       y1="0"
       x2="1"
       y2="0"
       gradientUnits="userSpaceOnUse"
       gradientTransform="matrix(19.799805,0,0,-19.799805,1083.9615,700.97192)"
       spreadMethod="pad"
       id="linearGradient8160">
      <stop
         style="stop-opacity:1;stop-color:#f6d348"
         offset="0"
         id="stop8154" />
      <stop
         style="stop-opacity:1;stop-color:#f6d348"
         offset="0.03027482"
         id="stop8156" />
      <stop
         style="stop-opacity:1;stop-color:#f263bd"
         offset="1"
         id="stop8158" />
    </linearGradient>
    <linearGradient
       x1="0"
       y1="0"
       x2="1"
       y2="0"
       gradientUnits="userSpaceOnUse"
       gradientTransform="matrix(10.907552,0,0,-10.907552,1083.9308,700.96442)"
       spreadMethod="pad"
       id="linearGradient8182">
      <stop
         style="stop-opacity:1;stop-color:#4d1f81"
         offset="0"
         id="stop8176" />
      <stop
         style="stop-opacity:1;stop-color:#f263bd"
         offset="0.32192848"
         id="stop8178" />
      <stop
         style="stop-opacity:1;stop-color:#f263bd"
         offset="1"
         id="stop8180" />
    </linearGradient>
  </defs>
  <sodipodi:namedview
     inkscape:window-maximized="0"
     inkscape:window-y="27"
     inkscape:window-x="122"
     inkscape:window-height="1016"
     inkscape:window-width="1428"
     showgrid="false"
     inkscape:document-rotation="0"
     inkscape:current-layer="layer1"
     inkscape:document-units="mm"
     inkscape:cy="93.633805"
     inkscape:cx="-152.03608"
     inkscape:zoom="0.35"
     inkscape:pageshadow="2"
     inkscape:pageopacity="0.0"
     borderopacity="1.0"
     bordercolor="#666666"
     pagecolor="#ffffff"
     id="base" />
  <metadata
     id="metadata11083">
    <rdf:RDF>
      <cc:Work
         rdf:about="">
        <dc:format>image/svg+xml</dc:format>
        <dc:type
           rdf:resource="http://purl.org/dc/dcmitype/StillImage" />
        <dc:title></dc:title>
      </cc:Work>
    </rdf:RDF>
  </metadata>
  <g
     transform="translate(-146.05955,-123.39272)"
     id="layer1"
     inkscape:groupmode="layer"
     inkscape:label="Layer 1">
    <g
       transform="matrix(0.35277777,0,0,-0.35277777,-223.98987,378.83205)"
       id="g9245">
      <g
         id="g8120">
        <g
           id="g8122">
          <g
             id="g8128">
            <g
               id="g8130">
              <path
                 id="path8140"
                 style="fill:url(#linearGradient8138);stroke:none"
                 d="m 1075.984,724.08 c -4.197,-3.256 -8.381,-6.529 -12.607,-9.747 v 0 c -0.535,-0.406 -1.289,-0.706 -1.953,-0.728 v 0 c -2.555,-0.083 -5.12,-0.143 -7.669,10e-4 v 0 c -1.966,0.113 -3.59,-0.285 -4.796,-1.911 v 0 -21.018 c 1.098,-1.661 2.529,-2.449 4.627,-2.295 v 0 c 2.478,0.18 4.985,0.141 7.469,-0.005 v 0 c 1.021,-0.061 2.174,-0.431 2.987,-1.038 v 0 c 3.579,-2.672 7.051,-5.487 10.572,-8.238 v 0 c 0.554,-0.431 1.162,-0.793 1.746,-1.186 v 0 h 1.876 c 1.933,0.896 2.314,2.432 2.3,4.475 v 0 c -0.092,12.61 -0.077,25.222 -0.012,37.831 v 0 c 0.01,1.719 -0.515,2.948 -1.912,3.859 v 0 z" />
            </g>
          </g>
        </g>
      </g>
      <g
         id="g8142">
        <g
           id="g8144">
          <g
             id="g8150">
            <g
               id="g8152">
              <path
                 id="path8162"
                 style="fill:url(#linearGradient8160);stroke:none"
                 d="m 1083.962,720.642 v -6.908 c 7.915,-0.256 13.312,-6.777 12.71,-13.855 v 0 c -0.422,-4.995 -4.49,-11.046 -12.708,-11.608 v 0 -6.969 c 0.581,0 1.074,-0.047 1.553,0.013 v 0 c 0.481,0.061 0.943,0.278 1.426,0.343 v 0 c 5.74,0.77 10.424,3.386 13.394,8.394 v 0 c 1.486,2.506 2.304,5.408 3.425,8.131 v 0 5.63 c -0.098,0.067 -0.271,0.124 -0.283,0.204 v 0 c -0.877,5.953 -3.87,10.539 -8.967,13.718 v 0 c -2.996,1.868 -6.224,2.925 -9.752,2.925 v 0 c -0.264,0 -0.531,-0.006 -0.798,-0.018" />
            </g>
          </g>
        </g>
      </g>
      <g
         id="g8164">
        <g
           id="g8166">
          <g
             id="g8172">
            <g
               id="g8174">
              <path
                 id="path8184"
                 style="fill:url(#linearGradient8182);stroke:none"
                 d="m 1083.93,704.781 c 2.607,-0.623 3.72,-1.799 3.69,-3.868 v 0 c -0.028,-1.955 -1.171,-3.108 -3.647,-3.673 v 0 -6.999 c 4.085,0.468 7.42,1.829 9.421,5.603 v 0 c 2.139,4.036 1.897,7.984 -0.694,11.588 v 0 c -2.054,2.858 -5.082,4.244 -8.77,4.257 v 0 z" />
            </g>
          </g>
        </g>
      </g>
    </g>
  </g>
</svg>
