<?xml version="1.0" encoding="UTF-8" standalone="no"?>
<svg
   xmlns:dc="http://purl.org/dc/elements/1.1/"
   xmlns:cc="http://creativecommons.org/ns#"
   xmlns:rdf="http://www.w3.org/1999/02/22-rdf-syntax-ns#"
   xmlns:svg="http://www.w3.org/2000/svg"
   xmlns="http://www.w3.org/2000/svg"
   xmlns:sodipodi="http://sodipodi.sourceforge.net/DTD/sodipodi-0.dtd"
   xmlns:inkscape="http://www.inkscape.org/namespaces/inkscape"
   sodipodi:docname="train.svg"
   inkscape:version="1.0 (6e3e5246a0, 2020-05-07)"
   id="svg12033"
   version="1.1"
   viewBox="0 0 24.668341 23.121164"
   height="23.121164mm"
   width="24.668341mm">
  <defs
     id="defs12027">
    <linearGradient
       x1="0"
       y1="0"
       x2="1"
       y2="0"
       gradientUnits="userSpaceOnUse"
       gradientTransform="matrix(69.925713,0,0,-69.925713,191.02243,578.33203)"
       spreadMethod="pad"
       id="linearGradient6860">
      <stop
         style="stop-opacity:1;stop-color:#63d7c2"
         offset="0"
         id="stop6854" />
      <stop
         style="stop-opacity:1;stop-color:#63d7c2"
         offset="0.67807152"
         id="stop6856" />
      <stop
         style="stop-opacity:1;stop-color:#1e0757"
         offset="1"
         id="stop6858" />
    </linearGradient>
    <linearGradient
       x1="0"
       y1="0"
       x2="1"
       y2="0"
       gradientUnits="userSpaceOnUse"
       gradientTransform="matrix(21.670927,0,0,-21.670927,230.37907,552.10693)"
       spreadMethod="pad"
       id="linearGradient6882">
      <stop
         style="stop-opacity:1;stop-color:#4d1f81"
         offset="0"
         id="stop6876" />
      <stop
         style="stop-opacity:1;stop-color:#f263bd"
         offset="0.32192848"
         id="stop6878" />
      <stop
         style="stop-opacity:1;stop-color:#f263bd"
         offset="1"
         id="stop6880" />
    </linearGradient>
    <linearGradient
       x1="0"
       y1="0"
       x2="1"
       y2="0"
       gradientUnits="userSpaceOnUse"
       gradientTransform="matrix(21.710041,0,0,-21.710041,199.93042,552.10492)"
       spreadMethod="pad"
       id="linearGradient6904">
      <stop
         style="stop-opacity:1;stop-color:#4d1f81"
         offset="0"
         id="stop6898" />
      <stop
         style="stop-opacity:1;stop-color:#f263bd"
         offset="0.32192848"
         id="stop6900" />
      <stop
         style="stop-opacity:1;stop-color:#f263bd"
         offset="1"
         id="stop6902" />
    </linearGradient>
    <linearGradient
       x1="0"
       y1="0"
       x2="1"
       y2="0"
       gradientUnits="userSpaceOnUse"
       gradientTransform="matrix(-15.880442,-10.331854,-10.331854,15.880442,249.98192,592.24146)"
       spreadMethod="pad"
       id="linearGradient6926">
      <stop
         style="stop-opacity:1;stop-color:#f6d348"
         offset="0"
         id="stop6920" />
      <stop
         style="stop-opacity:1;stop-color:#f6d348"
         offset="0.03027482"
         id="stop6922" />
      <stop
         style="stop-opacity:1;stop-color:#f263bd"
         offset="1"
         id="stop6924" />
    </linearGradient>
    <linearGradient
       x1="0"
       y1="0"
       x2="1"
       y2="0"
       gradientUnits="userSpaceOnUse"
       gradientTransform="matrix(-24.49032,-17.985079,-17.985079,24.49032,222.37982,597.28394)"
       spreadMethod="pad"
       id="linearGradient6948">
      <stop
         style="stop-opacity:1;stop-color:#f6d348"
         offset="0"
         id="stop6942" />
      <stop
         style="stop-opacity:1;stop-color:#f6d348"
         offset="0.03027482"
         id="stop6944" />
      <stop
         style="stop-opacity:1;stop-color:#f263bd"
         offset="1"
         id="stop6946" />
    </linearGradient>
    <linearGradient
       x1="0"
       y1="0"
       x2="1"
       y2="0"
       gradientUnits="userSpaceOnUse"
       gradientTransform="matrix(4.3668904,0,0,-4.3668904,239.03853,552.10028)"
       spreadMethod="pad"
       id="linearGradient6970">
      <stop
         style="stop-opacity:1;stop-color:#63d7c2"
         offset="0"
         id="stop6964" />
      <stop
         style="stop-opacity:1;stop-color:#63d7c2"
         offset="0.67807152"
         id="stop6966" />
      <stop
         style="stop-opacity:1;stop-color:#1e0757"
         offset="1"
         id="stop6968" />
    </linearGradient>
    <linearGradient
       x1="0"
       y1="0"
       x2="1"
       y2="0"
       gradientUnits="userSpaceOnUse"
       gradientTransform="matrix(4.3670173,0,0,-4.3670173,208.58902,552.10028)"
       spreadMethod="pad"
       id="linearGradient6992">
      <stop
         style="stop-opacity:1;stop-color:#63d7c2"
         offset="0"
         id="stop6986" />
      <stop
         style="stop-opacity:1;stop-color:#63d7c2"
         offset="0.67807152"
         id="stop6988" />
      <stop
         style="stop-opacity:1;stop-color:#1e0757"
         offset="1"
         id="stop6990" />
    </linearGradient>
  </defs>
  <sodipodi:namedview
     inkscape:window-maximized="0"
     inkscape:window-y="27"
     inkscape:window-x="122"
     inkscape:window-height="1016"
     inkscape:window-width="1428"
     showgrid="false"
     inkscape:document-rotation="0"
     inkscape:current-layer="layer1"
     inkscape:document-units="mm"
     inkscape:cy="-919.16361"
     inkscape:cx="986.61732"
     inkscape:zoom="0.35"
     inkscape:pageshadow="2"
     inkscape:pageopacity="0.0"
     borderopacity="1.0"
     bordercolor="#666666"
     pagecolor="#ffffff"
     id="base" />
  <metadata
     id="metadata12030">
    <rdf:RDF>
      <cc:Work
         rdf:about="">
        <dc:format>image/svg+xml</dc:format>
        <dc:type
           rdf:resource="http://purl.org/dc/dcmitype/StillImage" />
        <dc:title></dc:title>
      </cc:Work>
    </rdf:RDF>
  </metadata>
  <g
     transform="translate(155.20917,-391.36204)"
     id="layer1"
     inkscape:groupmode="layer"
     inkscape:label="Layer 1">
    <g
       transform="matrix(0.35277777,0,0,-0.35277777,-222.59748,605.41489)"
       id="g9365">
      <g
         id="g6842">
        <g
           id="g6844">
          <g
             id="g6850">
            <g
               id="g6852">
              <path
                 id="path6862"
                 style="fill:url(#linearGradient6860);stroke:none"
                 d="m 191.058,605.892 c 0.011,-17.849 0.009,-35.698 -0.036,-53.546 v 0 c -0.003,-1.38 1.115,-2.485 2.435,-2.444 v 0 c 2.197,0.065 4.395,0.018 6.594,0.018 v 0 c -0.145,1.56 -0.219,3.106 0.132,4.666 v 0 c 1.16,5.151 6.151,8.848 11.537,8.357 v 0 c 3.202,-0.294 5.792,-1.774 7.711,-4.381 v 0 c 1.772,-2.411 2.543,-5.077 2.075,-8.065 v 0 c -0.029,-0.188 -0.009,-0.385 -0.012,-0.577 v 0 h 9.006 c -0.142,1.537 -0.221,3.059 0.124,4.596 v 0 c 1.148,5.13 6.017,8.866 11.502,8.44 v 0 c 5.002,-0.388 9.222,-4.449 9.855,-9.364 v 0 c 0.159,-1.242 -0.004,-2.449 -0.038,-3.672 v 0 c 2.173,0 4.346,-0.003 6.518,0 v 0 c 1.631,0.002 2.487,0.863 2.487,2.504 v 0 c -0.003,8.521 -0.007,17.041 -0.012,25.561 v 0 c -10e-4,1.679 -0.853,2.525 -2.539,2.528 v 0 c -3.548,0.006 -7.095,0.011 -10.644,0.018 v 0 H 234.69 c -0.735,-0.002 -1.47,-0.002 -2.206,-0.002 v 0 c -1.897,0.002 -3.795,0.002 -5.69,-0.034 v 0 c -0.693,-0.014 -0.817,0.214 -0.817,0.847 v 0 c 0.015,8.189 -0.007,16.376 0.017,24.563 v 0 c 0.002,0.72 -0.202,0.859 -0.881,0.858 v 0 c -11.064,-0.023 -22.127,-0.023 -33.189,10e-4 v 0 c -0.003,0 -0.007,0 -0.01,0 v 0 c -0.698,0 -0.857,-0.183 -0.856,-0.872 m 11.197,-29.73 c -1.448,10e-4 -2.365,0.932 -2.366,2.402 v 0 c -0.008,5.702 -0.012,11.403 -0.015,17.104 v 0 c -0.001,1.603 0.804,2.419 2.385,2.42 v 0 c 4.228,0.002 8.456,0.002 12.684,-10e-4 v 0 c 1.431,-10e-4 2.377,-0.961 2.378,-2.408 v 0 c 0.003,-2.85 0.001,-5.7 0.001,-8.551 v 0 h -0.014 c 0,-2.851 0.002,-5.701 -0.001,-8.552 v 0 c -0.002,-1.517 -0.909,-2.414 -2.441,-2.415 v 0 c -2.102,-10e-4 -4.204,-0.002 -6.305,-0.002 v 0 c -2.102,0 -4.204,10e-4 -6.306,0.003" />
            </g>
          </g>
        </g>
      </g>
      <g
         id="g6864">
        <g
           id="g6866">
          <g
             id="g6872">
            <g
               id="g6874">
              <path
                 id="path6884"
                 style="fill:url(#linearGradient6882);stroke:none"
                 d="m 230.624,554.516 c -0.345,-1.537 -0.266,-3.059 -0.124,-4.596 v 0 c 0.333,-0.844 0.499,-1.746 0.915,-2.562 v 0 c 2.106,-4.123 6.56,-6.761 11.391,-6.004 v 0 c 3.176,0.497 5.614,2.091 7.444,4.705 v 0 c 0.828,1.181 1.27,2.513 1.693,3.861 v 0 c 0.034,1.223 0.197,2.43 0.038,3.672 v 0 c -0.633,4.915 -4.853,8.976 -9.855,9.364 v 0 c -0.285,0.022 -0.569,0.033 -0.851,0.033 v 0 c -5.13,0 -9.562,-3.61 -10.651,-8.473 m 10.551,-4.599 c -1.186,0.023 -2.14,1.002 -2.137,2.193 v 0 c 0.005,1.221 1.006,2.195 2.23,2.173 v 0 c 1.188,-0.022 2.142,-1.003 2.137,-2.193 v 0 c -0.004,-1.206 -0.984,-2.173 -2.189,-2.173 v 0 c -0.013,0 -0.027,0 -0.041,0" />
            </g>
          </g>
        </g>
      </g>
      <g
         id="g6886">
        <g
           id="g6888">
          <g
             id="g6894">
            <g
               id="g6896">
              <path
                 id="path6906"
                 style="fill:url(#linearGradient6904);stroke:none"
                 d="m 200.183,554.586 c -0.351,-1.56 -0.277,-3.106 -0.132,-4.666 v 0 c 0.134,-0.097 0.119,-0.251 0.15,-0.39 v 0 c 0.448,-2.01 1.448,-3.747 2.909,-5.144 v 0 c 2.594,-2.48 5.696,-3.573 9.312,-3.023 v 0 c 2.986,0.455 5.314,1.959 7.134,4.337 v 0 c 0.969,1.266 1.493,2.721 1.938,4.22 v 0 c 0.003,0.192 -0.017,0.389 0.012,0.577 v 0 c 0.468,2.988 -0.303,5.654 -2.075,8.065 v 0 c -1.919,2.607 -4.509,4.087 -7.711,4.381 v 0 c -0.323,0.029 -0.643,0.044 -0.962,0.044 v 0 c -5.007,-10e-4 -9.484,-3.558 -10.575,-8.401 m 10.528,-4.669 c -1.185,0.029 -2.132,1.015 -2.122,2.208 v 0 c 0.011,1.217 1.02,2.188 2.244,2.158 v 0 c 1.184,-0.028 2.135,-1.017 2.123,-2.208 v 0 c -0.012,-1.197 -0.993,-2.159 -2.191,-2.159 v 0 c -0.018,0 -0.036,10e-4 -0.054,10e-4" />
            </g>
          </g>
        </g>
      </g>
      <g
         id="g6908">
        <g
           id="g6910">
          <g
             id="g6916">
            <g
               id="g6918">
              <path
                 id="path6928"
                 style="fill:url(#linearGradient6926);stroke:none"
                 d="m 237.088,593.56 c -1.485,-10e-4 -2.382,-0.896 -2.384,-2.378 v 0 c -0.006,-3.551 -0.008,-7.101 -0.014,-10.651 v 0 h 13.063 c -0.004,3.574 -0.007,7.148 -0.014,10.723 v 0 c -0.001,1.355 -0.956,2.304 -2.318,2.306 v 0 c -1.254,0.001 -2.507,0.002 -3.761,0.002 v 0 c -1.524,0 -3.048,-10e-4 -4.572,-0.002" />
            </g>
          </g>
        </g>
      </g>
      <g
         id="g6930">
        <g
           id="g6932">
          <g
             id="g6938">
            <g
               id="g6940">
              <path
                 id="path6950"
                 style="fill:url(#linearGradient6948);stroke:none"
                 d="m 202.259,598.088 c -1.581,-10e-4 -2.386,-0.817 -2.385,-2.42 v 0 c 0.003,-5.701 0.007,-11.402 0.015,-17.104 v 0 c 10e-4,-1.47 0.918,-2.401 2.366,-2.402 v 0 c 4.204,-0.004 8.407,-0.003 12.611,-0.001 v 0 c 1.532,0.001 2.439,0.898 2.441,2.415 v 0 c 0.003,2.851 0.001,5.701 0.001,8.552 v 0 h 0.014 c 0,2.851 0.002,5.701 -0.001,8.551 v 0 c -0.001,1.447 -0.947,2.407 -2.378,2.408 v 0 c -2.114,0.002 -4.228,0.002 -6.342,0.002 v 0 c -2.114,0 -4.228,0 -6.342,-0.001" />
            </g>
          </g>
        </g>
      </g>
      <g
         id="g6952">
        <g
           id="g6954">
          <g
             id="g6960">
            <g
               id="g6962">
              <path
                 id="path6972"
                 style="fill:url(#linearGradient6970);stroke:none"
                 d="m 239.038,552.11 c -0.003,-1.191 0.951,-2.17 2.137,-2.193 v 0 c 1.224,-0.022 2.225,0.953 2.23,2.173 v 0 c 0.005,1.19 -0.949,2.171 -2.137,2.193 v 0 c -0.013,0 -0.027,0 -0.041,0 v 0 c -1.205,0 -2.184,-0.966 -2.189,-2.173" />
            </g>
          </g>
        </g>
      </g>
      <g
         id="g6974">
        <g
           id="g6976">
          <g
             id="g6982">
            <g
               id="g6984">
              <path
                 id="path6994"
                 style="fill:url(#linearGradient6992);stroke:none"
                 d="m 208.589,552.125 c -0.01,-1.193 0.937,-2.179 2.122,-2.208 v 0 c 1.222,-0.03 2.233,0.942 2.245,2.158 v 0 c 0.012,1.191 -0.939,2.18 -2.123,2.208 v 0 c -0.018,0 -0.036,10e-4 -0.055,10e-4 v 0 c -1.199,0 -2.178,-0.96 -2.189,-2.159" />
            </g>
          </g>
        </g>
      </g>
    </g>
  </g>
</svg>
