<?xml version="1.0" encoding="UTF-8" standalone="no"?>
<svg
   xmlns:dc="http://purl.org/dc/elements/1.1/"
   xmlns:cc="http://creativecommons.org/ns#"
   xmlns:rdf="http://www.w3.org/1999/02/22-rdf-syntax-ns#"
   xmlns:svg="http://www.w3.org/2000/svg"
   xmlns="http://www.w3.org/2000/svg"
   xmlns:sodipodi="http://sodipodi.sourceforge.net/DTD/sodipodi-0.dtd"
   xmlns:inkscape="http://www.inkscape.org/namespaces/inkscape"
   sodipodi:docname="umbrella.svg"
   inkscape:version="1.0 (6e3e5246a0, 2020-05-07)"
   id="svg14351"
   version="1.1"
   viewBox="0 0 31.968962 32.307739"
   height="32.307739mm"
   width="31.968962mm">
  <defs
     id="defs14345">
    <linearGradient
       x1="0"
       y1="0"
       x2="1"
       y2="0"
       gradientUnits="userSpaceOnUse"
       gradientTransform="matrix(16.041223,0,0,-16.041223,208.27567,405.603)"
       spreadMethod="pad"
       id="linearGradient4800">
      <stop
         style="stop-opacity:1;stop-color:#4d1f81"
         offset="0"
         id="stop4792" />
      <stop
         style="stop-opacity:1;stop-color:#4d1f81"
         offset="0.463165"
         id="stop4794" />
      <stop
         style="stop-opacity:1;stop-color:#f263bd"
         offset="0.63598748"
         id="stop4796" />
      <stop
         style="stop-opacity:1;stop-color:#f263bd"
         offset="1"
         id="stop4798" />
    </linearGradient>
    <linearGradient
       x1="0"
       y1="0"
       x2="1"
       y2="0"
       gradientUnits="userSpaceOnUse"
       gradientTransform="matrix(90.62149,0,0,-90.62149,176.32973,450.02267)"
       spreadMethod="pad"
       id="linearGradient4822">
      <stop
         style="stop-opacity:1;stop-color:#63d7c2"
         offset="0"
         id="stop4816" />
      <stop
         style="stop-opacity:1;stop-color:#63d7c2"
         offset="0.67807152"
         id="stop4818" />
      <stop
         style="stop-opacity:1;stop-color:#1e0757"
         offset="1"
         id="stop4820" />
    </linearGradient>
  </defs>
  <sodipodi:namedview
     inkscape:window-maximized="0"
     inkscape:window-y="27"
     inkscape:window-x="122"
     inkscape:window-height="1016"
     inkscape:window-width="1428"
     showgrid="false"
     inkscape:document-rotation="0"
     inkscape:current-layer="layer1"
     inkscape:document-units="mm"
     inkscape:cy="-424.66031"
     inkscape:cx="1363.2709"
     inkscape:zoom="0.35"
     inkscape:pageshadow="2"
     inkscape:pageopacity="0.0"
     borderopacity="1.0"
     bordercolor="#666666"
     pagecolor="#ffffff"
     id="base" />
  <metadata
     id="metadata14348">
    <rdf:RDF>
      <cc:Work
         rdf:about="">
        <dc:format>image/svg+xml</dc:format>
        <dc:type
           rdf:resource="http://purl.org/dc/dcmitype/StillImage" />
        <dc:title></dc:title>
      </cc:Work>
    </rdf:RDF>
  </metadata>
  <g
     transform="translate(254.86543,-260.52471)"
     id="layer1"
     inkscape:groupmode="layer"
     inkscape:label="Layer 1">
    <g
       transform="matrix(0.35277777,0,0,-0.35277777,-317.07073,427.87613)"
       id="g9734">
      <g
         id="g4780">
        <g
           id="g4782">
          <g
             id="g4788">
            <g
               id="g4790">
              <path
                 id="path4802"
                 style="fill:url(#linearGradient4800);stroke:none"
                 d="m 223.461,428.397 c -0.65,-0.061 -1.304,-0.047 -1.958,-0.035 v 0 c -0.354,0.007 -0.71,0.015 -1.063,0.01 v 0 c -0.199,-0.003 -0.371,-0.001 -0.521,10e-4 v 0 c -1.115,0.015 -0.947,0.031 -0.948,-1.938 v 0 c -0.011,-10.91 -0.011,-21.818 -0.014,-32.729 v 0 c 0,-1.304 -0.332,-2.395 -1.169,-3.128 v 0 c -0.883,-0.774 -1.802,-0.94 -2.755,-0.181 v 0 c -0.967,0.772 -1.455,1.847 -1.422,3.399 v 0 c 0.045,2.172 0.013,4.348 0.008,6.521 v 0 c -0.004,2.2 -1.155,3.822 -2.718,3.842 v 0 c -1.461,0.02 -2.613,-1.667 -2.617,-3.847 v 0 c -0.003,-2.254 -0.018,-4.507 0.001,-6.759 v 0 c 0.032,-3.826 1.258,-6.81 3.604,-8.997 v 0 c 0.957,-0.895 2.091,-1.209 3.155,-1.755 v 0 h 2.491 c 0.044,0.052 0.083,0.137 0.133,0.149 v 0 c 4.041,0.939 6.803,5.737 6.643,11.317 v 0 c -0.076,2.606 -0.015,5.219 -0.016,7.827 v 0 c -0.003,8.34 -0.01,16.681 0,25.022 v 0 c 0.001,0.761 -0.029,1.288 -0.694,1.288 v 0 c -0.044,0 -0.09,-0.002 -0.14,-0.007" />
            </g>
          </g>
        </g>
      </g>
      <g
         id="g4804">
        <g
           id="g4806">
          <g
             id="g4812">
            <g
               id="g4814">
              <path
                 id="path4824"
                 style="fill:url(#linearGradient4822);stroke:none"
                 d="m 218.206,468.285 c -4.309,-0.292 -8.604,-1.132 -12.882,-2.516 v 0 c -5.044,-1.634 -9.737,-3.984 -13.96,-7.211 v 0 c -3.051,-2.332 -5.81,-4.962 -8.011,-8.135 v 0 c -1.761,-2.213 -3.092,-4.669 -4.139,-7.288 v 0 c -0.596,-1.26 -1.082,-2.559 -1.37,-3.927 v 0 c -1.071,-3.202 -1.499,-6.517 -1.514,-9.868 v 0 c -0.008,-1.918 1.966,-3.095 3.669,-2.354 v 0 c 1.213,0.528 1.548,1.578 1.755,2.779 v 0 c 0.784,4.562 5.376,7.488 9.849,6.326 v 0 c 3.514,-0.912 5.836,-3.884 6.005,-7.685 v 0 c 0.066,-1.492 1.044,-2.584 2.429,-2.716 v 0 c 1.303,-0.121 2.513,0.749 2.828,2.069 v 0 c 0.081,0.34 0.072,0.704 0.091,1.059 v 0 c 0.288,5.537 6.228,9.163 11.249,6.823 v 0 c 3.046,-1.422 4.599,-3.887 4.751,-7.237 v 0 c 0.096,-2.097 2.09,-3.36 3.877,-2.43 v 0 c 1.06,0.55 1.441,1.473 1.478,2.636 v 0 c 0.176,5.481 5.689,9.149 10.807,7.212 v 0 c 3.107,-1.175 5.046,-3.935 5.191,-7.388 v 0 c 0.062,-1.505 1.016,-2.593 2.401,-2.74 v 0 c 1.326,-0.142 2.584,0.775 2.876,2.122 v 0 c 0.068,0.314 0.055,0.647 0.072,0.972 v 0 c 0.226,4.705 4.671,8.274 9.27,7.443 v 0 c 3.645,-0.66 5.938,-3.086 6.706,-7.094 v 0 c 0.304,-1.578 1.464,-2.52 2.921,-2.37 v 0 c 1.427,0.146 2.425,1.349 2.395,2.927 v 0 c -0.014,0.741 -0.066,1.481 -0.14,2.218 v 0 c -0.244,2.474 -0.577,4.933 -1.402,7.295 v 0 c -0.288,1.368 -0.773,2.668 -1.373,3.927 v 0 c -1.053,2.724 -2.537,5.203 -4.309,7.516 v 0 c -0.813,1.382 -1.982,2.473 -3.049,3.64 v 0 c -2.42,2.65 -5.291,4.759 -8.307,6.673 v 0 c -4.043,2.566 -8.443,4.339 -13.042,5.586 v 0 c -4.345,1.178 -8.679,1.788 -13.002,1.849 v 0 l -1.839,5.984 z" />
            </g>
          </g>
        </g>
      </g>
    </g>
  </g>
</svg>
