<svg width="375" height="120" viewBox="0 0 375 120" fill="none" xmlns="http://www.w3.org/2000/svg">
<g filter="url(#filter0_dii)">
<rect x="27" y="24" width="324" height="60" rx="16" fill="url(#paint0_linear)"/>
</g>
<path opacity="0.4" d="M55.1895 57.4209L53.5693 51.4121L51.9287 57.4209C51.8011 57.8766 51.6986 58.2048 51.6211 58.4053C51.5482 58.6012 51.4183 58.779 51.2314 58.9385C51.0446 59.0934 50.7962 59.1709 50.4863 59.1709C50.2357 59.1709 50.0283 59.123 49.8643 59.0273C49.7048 58.9362 49.5749 58.8063 49.4746 58.6377C49.3743 58.4645 49.2923 58.2617 49.2285 58.0293C49.1647 57.7923 49.1077 57.5736 49.0576 57.373L47.3896 50.626C47.2894 50.234 47.2393 49.9355 47.2393 49.7305C47.2393 49.4707 47.3304 49.252 47.5127 49.0742C47.695 48.8965 47.9206 48.8076 48.1895 48.8076C48.5586 48.8076 48.807 48.9261 48.9346 49.1631C49.0622 49.4001 49.1738 49.7441 49.2695 50.1953L50.582 56.0469L52.0518 50.5713C52.1611 50.152 52.2591 49.833 52.3457 49.6143C52.4323 49.3955 52.5736 49.2064 52.7695 49.0469C52.9655 48.8874 53.2321 48.8076 53.5693 48.8076C53.9111 48.8076 54.1755 48.8919 54.3623 49.0605C54.5537 49.2246 54.6859 49.4046 54.7588 49.6006C54.8317 49.7965 54.9297 50.1201 55.0527 50.5713L56.5361 56.0469L57.8486 50.1953C57.9124 49.89 57.9717 49.6507 58.0264 49.4775C58.0856 49.3044 58.1836 49.1494 58.3203 49.0127C58.4616 48.876 58.6644 48.8076 58.9287 48.8076C59.193 48.8076 59.4163 48.8965 59.5986 49.0742C59.7855 49.2474 59.8789 49.4661 59.8789 49.7305C59.8789 49.9173 59.8288 50.2158 59.7285 50.626L58.0605 57.373C57.9466 57.8288 57.8509 58.1637 57.7734 58.3779C57.7005 58.5876 57.5729 58.7721 57.3906 58.9316C57.2129 59.0911 56.96 59.1709 56.6318 59.1709C56.3219 59.1709 56.0736 59.0934 55.8867 58.9385C55.6999 58.7835 55.57 58.6104 55.4971 58.4189C55.4242 58.223 55.3216 57.8903 55.1895 57.4209ZM62.9277 49.9424V52.7109C63.1647 52.4375 63.3949 52.221 63.6182 52.0615C63.846 51.902 64.0967 51.7835 64.3701 51.7061C64.6436 51.624 64.9375 51.583 65.252 51.583C65.7259 51.583 66.1452 51.6833 66.5098 51.8838C66.8789 52.0843 67.1683 52.376 67.3779 52.7588C67.5101 52.9821 67.599 53.2327 67.6445 53.5107C67.6901 53.7842 67.7129 54.1009 67.7129 54.4609V58.0361C67.7129 58.4098 67.6263 58.6924 67.4531 58.8838C67.2845 59.0752 67.0589 59.1709 66.7764 59.1709C66.1611 59.1709 65.8535 58.7926 65.8535 58.0361V54.8848C65.8535 54.2878 65.7646 53.8298 65.5869 53.5107C65.4092 53.1872 65.0719 53.0254 64.5752 53.0254C64.2425 53.0254 63.9417 53.1211 63.6729 53.3125C63.4085 53.4993 63.2103 53.7568 63.0781 54.085C62.9779 54.363 62.9277 54.8574 62.9277 55.5684V58.0361C62.9277 58.4053 62.8434 58.6878 62.6748 58.8838C62.5107 59.0752 62.2806 59.1709 61.9844 59.1709C61.3691 59.1709 61.0615 58.7926 61.0615 58.0361V49.9424C61.0615 49.5641 61.1413 49.2816 61.3008 49.0947C61.4648 48.9033 61.6927 48.8076 61.9844 48.8076C62.2806 48.8076 62.5107 48.9033 62.6748 49.0947C62.8434 49.2861 62.9277 49.5687 62.9277 49.9424ZM74.7744 55.835H71.124C71.1286 56.2588 71.2129 56.6325 71.377 56.9561C71.5456 57.2796 71.7666 57.5234 72.04 57.6875C72.318 57.8516 72.6234 57.9336 72.9561 57.9336C73.1794 57.9336 73.3822 57.9085 73.5645 57.8584C73.7513 57.8037 73.9313 57.7217 74.1045 57.6123C74.2777 57.4984 74.4372 57.3776 74.583 57.25C74.7288 57.1224 74.918 56.9492 75.1504 56.7305C75.2461 56.6484 75.3828 56.6074 75.5605 56.6074C75.752 56.6074 75.9069 56.6598 76.0254 56.7646C76.1439 56.8695 76.2031 57.0176 76.2031 57.209C76.2031 57.3776 76.137 57.5758 76.0049 57.8037C75.8727 58.027 75.6722 58.2435 75.4033 58.4531C75.139 58.6582 74.804 58.8291 74.3984 58.9658C73.9974 59.1025 73.5348 59.1709 73.0107 59.1709C71.8122 59.1709 70.8802 58.8291 70.2148 58.1455C69.5495 57.4619 69.2168 56.5345 69.2168 55.3633C69.2168 54.8118 69.2988 54.3014 69.4629 53.832C69.627 53.3581 69.8662 52.9525 70.1807 52.6152C70.4951 52.278 70.8825 52.0205 71.3428 51.8428C71.8031 51.6605 72.3135 51.5693 72.874 51.5693C73.6032 51.5693 74.2275 51.7243 74.7471 52.0342C75.2712 52.3395 75.6631 52.736 75.9229 53.2236C76.1826 53.7113 76.3125 54.208 76.3125 54.7139C76.3125 55.1833 76.1781 55.4886 75.9092 55.6299C75.6403 55.7666 75.262 55.835 74.7744 55.835ZM71.124 54.7754H74.5078C74.4622 54.1374 74.2891 53.6611 73.9883 53.3467C73.6921 53.0277 73.3001 52.8682 72.8125 52.8682C72.3477 52.8682 71.9648 53.0299 71.6641 53.3535C71.3678 53.6725 71.1878 54.1465 71.124 54.7754ZM79.7441 56.4775V58.0361C79.7441 58.4144 79.6553 58.6992 79.4775 58.8906C79.2998 59.0775 79.0742 59.1709 78.8008 59.1709C78.5319 59.1709 78.3109 59.0752 78.1377 58.8838C77.9645 58.6924 77.8779 58.4098 77.8779 58.0361V52.8408C77.8779 52.0023 78.181 51.583 78.7871 51.583C79.097 51.583 79.3203 51.681 79.457 51.877C79.5938 52.0729 79.6689 52.3623 79.6826 52.7451C79.9059 52.3623 80.1338 52.0729 80.3662 51.877C80.6032 51.681 80.9176 51.583 81.3096 51.583C81.7015 51.583 82.082 51.681 82.4512 51.877C82.8203 52.0729 83.0049 52.3327 83.0049 52.6562C83.0049 52.8841 82.9251 53.0732 82.7656 53.2236C82.6107 53.3695 82.4421 53.4424 82.2598 53.4424C82.1914 53.4424 82.0251 53.4014 81.7607 53.3193C81.501 53.2327 81.2708 53.1895 81.0703 53.1895C80.7969 53.1895 80.5736 53.2624 80.4004 53.4082C80.2272 53.5495 80.0928 53.7614 79.9971 54.0439C79.9014 54.3265 79.8353 54.6637 79.7988 55.0557C79.7624 55.443 79.7441 55.917 79.7441 56.4775ZM88.8838 55.835H85.2334C85.238 56.2588 85.3223 56.6325 85.4863 56.9561C85.6549 57.2796 85.876 57.5234 86.1494 57.6875C86.4274 57.8516 86.7327 57.9336 87.0654 57.9336C87.2887 57.9336 87.4915 57.9085 87.6738 57.8584C87.8607 57.8037 88.0407 57.7217 88.2139 57.6123C88.387 57.4984 88.5465 57.3776 88.6924 57.25C88.8382 57.1224 89.0273 56.9492 89.2598 56.7305C89.3555 56.6484 89.4922 56.6074 89.6699 56.6074C89.8613 56.6074 90.0163 56.6598 90.1348 56.7646C90.2533 56.8695 90.3125 57.0176 90.3125 57.209C90.3125 57.3776 90.2464 57.5758 90.1143 57.8037C89.9821 58.027 89.7816 58.2435 89.5127 58.4531C89.2484 58.6582 88.9134 58.8291 88.5078 58.9658C88.1068 59.1025 87.6442 59.1709 87.1201 59.1709C85.9215 59.1709 84.9896 58.8291 84.3242 58.1455C83.6589 57.4619 83.3262 56.5345 83.3262 55.3633C83.3262 54.8118 83.4082 54.3014 83.5723 53.832C83.7363 53.3581 83.9756 52.9525 84.29 52.6152C84.6045 52.278 84.9919 52.0205 85.4521 51.8428C85.9124 51.6605 86.4229 51.5693 86.9834 51.5693C87.7126 51.5693 88.3369 51.7243 88.8564 52.0342C89.3805 52.3395 89.7725 52.736 90.0322 53.2236C90.292 53.7113 90.4219 54.208 90.4219 54.7139C90.4219 55.1833 90.2874 55.4886 90.0186 55.6299C89.7497 55.7666 89.3714 55.835 88.8838 55.835ZM85.2334 54.7754H88.6172C88.5716 54.1374 88.3984 53.6611 88.0977 53.3467C87.8014 53.0277 87.4095 52.8682 86.9219 52.8682C86.457 52.8682 86.0742 53.0299 85.7734 53.3535C85.4772 53.6725 85.2972 54.1465 85.2334 54.7754ZM96.6631 52.7451L97.8799 56.915L98.9873 53.0391C99.1058 52.6335 99.1924 52.3577 99.2471 52.2119C99.3063 52.0615 99.4134 51.9202 99.5684 51.7881C99.7279 51.6514 99.9443 51.583 100.218 51.583C100.496 51.583 100.712 51.6514 100.867 51.7881C101.027 51.9202 101.138 52.0661 101.202 52.2256C101.266 52.3805 101.355 52.6517 101.469 53.0391L102.576 56.915L103.807 52.7451C103.889 52.4443 103.955 52.2279 104.005 52.0957C104.055 51.959 104.139 51.8405 104.258 51.7402C104.376 51.6354 104.547 51.583 104.771 51.583C104.994 51.583 105.188 51.6605 105.352 51.8154C105.516 51.9704 105.598 52.1527 105.598 52.3623C105.598 52.5537 105.527 52.8431 105.386 53.2305L103.861 57.7012C103.729 58.0794 103.627 58.3529 103.554 58.5215C103.481 58.6901 103.365 58.8405 103.205 58.9727C103.05 59.1048 102.836 59.1709 102.562 59.1709C102.28 59.1709 102.057 59.1003 101.893 58.959C101.733 58.8177 101.615 58.6445 101.537 58.4395C101.46 58.2344 101.375 57.9678 101.284 57.6396L100.218 54.0029L99.1855 57.6396C99.0488 58.1455 98.9007 58.5283 98.7412 58.7881C98.5817 59.0433 98.3014 59.1709 97.9004 59.1709C97.6953 59.1709 97.5199 59.1299 97.374 59.0479C97.2327 58.9704 97.1143 58.8587 97.0186 58.7129C96.9229 58.5625 96.8385 58.387 96.7656 58.1865C96.6927 57.9814 96.6357 57.8197 96.5947 57.7012L95.084 53.2305C94.9336 52.8112 94.8584 52.5218 94.8584 52.3623C94.8584 52.1618 94.9382 51.9818 95.0977 51.8223C95.2572 51.6628 95.4531 51.583 95.6855 51.583C95.9954 51.583 96.2051 51.6719 96.3145 51.8496C96.4238 52.0228 96.54 52.3213 96.6631 52.7451ZM113.685 55.377C113.685 55.9329 113.598 56.4456 113.425 56.915C113.252 57.3844 113.001 57.7878 112.673 58.125C112.345 58.4622 111.953 58.722 111.497 58.9043C111.041 59.082 110.529 59.1709 109.959 59.1709C109.394 59.1709 108.886 59.0798 108.435 58.8975C107.983 58.7152 107.591 58.4554 107.259 58.1182C106.931 57.7764 106.68 57.3753 106.507 56.915C106.338 56.4502 106.254 55.9375 106.254 55.377C106.254 54.8118 106.34 54.2946 106.514 53.8252C106.687 53.3558 106.935 52.9548 107.259 52.6221C107.582 52.2894 107.974 52.0342 108.435 51.8564C108.895 51.6742 109.403 51.583 109.959 51.583C110.524 51.583 111.037 51.6742 111.497 51.8564C111.957 52.0387 112.352 52.2985 112.68 52.6357C113.008 52.973 113.256 53.374 113.425 53.8389C113.598 54.3037 113.685 54.8164 113.685 55.377ZM111.812 55.377C111.812 54.6159 111.643 54.0234 111.306 53.5996C110.973 53.1758 110.524 52.9639 109.959 52.9639C109.594 52.9639 109.273 53.0596 108.995 53.251C108.717 53.4378 108.503 53.7158 108.353 54.085C108.202 54.4541 108.127 54.8848 108.127 55.377C108.127 55.8646 108.2 56.2907 108.346 56.6553C108.496 57.0199 108.708 57.3001 108.981 57.4961C109.259 57.6875 109.585 57.7832 109.959 57.7832C110.524 57.7832 110.973 57.5713 111.306 57.1475C111.643 56.7191 111.812 56.1289 111.812 55.377ZM120.008 58.1182V57.8789C119.785 58.1615 119.55 58.3984 119.304 58.5898C119.058 58.7812 118.789 58.9225 118.497 59.0137C118.205 59.1094 117.873 59.1572 117.499 59.1572C117.048 59.1572 116.642 59.0638 116.282 58.877C115.927 58.6901 115.651 58.4326 115.455 58.1045C115.223 57.708 115.106 57.1383 115.106 56.3955V52.6973C115.106 52.3236 115.191 52.0456 115.359 51.8633C115.528 51.6764 115.751 51.583 116.029 51.583C116.312 51.583 116.54 51.6764 116.713 51.8633C116.886 52.0501 116.973 52.3281 116.973 52.6973V55.6846C116.973 56.1175 117.009 56.4821 117.082 56.7783C117.155 57.07 117.285 57.3001 117.472 57.4688C117.663 57.6328 117.921 57.7148 118.244 57.7148C118.559 57.7148 118.855 57.6214 119.133 57.4346C119.411 57.2477 119.614 57.0039 119.741 56.7031C119.846 56.4388 119.898 55.86 119.898 54.9668V52.6973C119.898 52.3281 119.985 52.0501 120.158 51.8633C120.331 51.6764 120.557 51.583 120.835 51.583C121.113 51.583 121.336 51.6764 121.505 51.8633C121.674 52.0456 121.758 52.3236 121.758 52.6973V58.1045C121.758 58.46 121.676 58.7266 121.512 58.9043C121.352 59.082 121.145 59.1709 120.89 59.1709C120.634 59.1709 120.423 59.0798 120.254 58.8975C120.09 58.7106 120.008 58.4508 120.008 58.1182ZM123.624 58.0361V49.9424C123.624 49.5687 123.706 49.2861 123.87 49.0947C124.039 48.9033 124.264 48.8076 124.547 48.8076C124.829 48.8076 125.057 48.9033 125.23 49.0947C125.404 49.2816 125.49 49.5641 125.49 49.9424V58.0361C125.49 58.4144 125.401 58.6992 125.224 58.8906C125.05 59.0775 124.825 59.1709 124.547 59.1709C124.273 59.1709 124.05 59.0729 123.877 58.877C123.708 58.681 123.624 58.4007 123.624 58.0361ZM132.538 58.1045V57.9199C132.287 58.207 132.039 58.4417 131.793 58.624C131.551 58.8018 131.287 58.9362 131 59.0273C130.717 59.123 130.408 59.1709 130.07 59.1709C129.624 59.1709 129.209 59.0775 128.826 58.8906C128.448 58.6992 128.12 58.4281 127.842 58.0771C127.564 57.7262 127.352 57.3138 127.206 56.8398C127.065 56.3659 126.994 55.8532 126.994 55.3018C126.994 54.1351 127.279 53.2259 127.849 52.5742C128.418 51.9225 129.168 51.5967 130.098 51.5967C130.635 51.5967 131.089 51.6901 131.458 51.877C131.827 52.0592 132.187 52.3418 132.538 52.7246V49.9697C132.538 49.5869 132.613 49.2975 132.764 49.1016C132.919 48.9056 133.137 48.8076 133.42 48.8076C133.702 48.8076 133.919 48.8988 134.069 49.0811C134.224 49.2588 134.302 49.5231 134.302 49.874V58.1045C134.302 58.46 134.22 58.7266 134.056 58.9043C133.892 59.082 133.68 59.1709 133.42 59.1709C133.165 59.1709 132.953 59.0798 132.784 58.8975C132.62 58.7106 132.538 58.4463 132.538 58.1045ZM128.867 55.3633C128.867 55.8691 128.945 56.2998 129.1 56.6553C129.259 57.0107 129.476 57.2796 129.749 57.4619C130.022 57.6396 130.321 57.7285 130.645 57.7285C130.973 57.7285 131.271 57.6442 131.54 57.4756C131.813 57.3024 132.03 57.0404 132.189 56.6895C132.354 56.334 132.436 55.8919 132.436 55.3633C132.436 54.8665 132.354 54.4404 132.189 54.085C132.03 53.7249 131.811 53.4515 131.533 53.2646C131.26 53.0732 130.959 52.9775 130.631 52.9775C130.289 52.9775 129.984 53.0755 129.715 53.2715C129.446 53.4629 129.236 53.7409 129.086 54.1055C128.94 54.4655 128.867 54.8848 128.867 55.3633ZM141.397 59.4033L141.568 58.9863L139.271 53.2031C139.13 52.8704 139.06 52.6289 139.06 52.4785C139.06 52.319 139.101 52.1709 139.183 52.0342C139.265 51.8975 139.376 51.7881 139.518 51.7061C139.663 51.624 139.814 51.583 139.969 51.583C140.238 51.583 140.44 51.6696 140.577 51.8428C140.714 52.0114 140.835 52.2552 140.939 52.5742L142.519 57.168L144.016 52.8955C144.134 52.5492 144.241 52.278 144.337 52.082C144.433 51.8861 144.533 51.7539 144.638 51.6855C144.747 51.6172 144.9 51.583 145.096 51.583C145.237 51.583 145.371 51.6217 145.499 51.6992C145.631 51.7721 145.731 51.8724 145.8 52C145.873 52.1276 145.909 52.262 145.909 52.4033C145.891 52.4899 145.861 52.613 145.82 52.7725C145.779 52.932 145.729 53.0938 145.67 53.2578L143.236 59.6289C143.027 60.1895 142.822 60.6292 142.621 60.9482C142.421 61.2673 142.154 61.5111 141.821 61.6797C141.493 61.8529 141.049 61.9395 140.488 61.9395C139.941 61.9395 139.531 61.8802 139.258 61.7617C138.984 61.6432 138.848 61.4268 138.848 61.1123C138.848 60.8981 138.911 60.7318 139.039 60.6133C139.171 60.4993 139.365 60.4424 139.62 60.4424C139.72 60.4424 139.818 60.4561 139.914 60.4834C140.033 60.5107 140.135 60.5244 140.222 60.5244C140.436 60.5244 140.604 60.4925 140.728 60.4287C140.851 60.3649 140.96 60.2533 141.056 60.0938C141.156 59.9388 141.27 59.7087 141.397 59.4033ZM154.058 55.377C154.058 55.9329 153.971 56.4456 153.798 56.915C153.625 57.3844 153.374 57.7878 153.046 58.125C152.718 58.4622 152.326 58.722 151.87 58.9043C151.414 59.082 150.902 59.1709 150.332 59.1709C149.767 59.1709 149.259 59.0798 148.808 58.8975C148.356 58.7152 147.965 58.4554 147.632 58.1182C147.304 57.7764 147.053 57.3753 146.88 56.915C146.711 56.4502 146.627 55.9375 146.627 55.377C146.627 54.8118 146.714 54.2946 146.887 53.8252C147.06 53.3558 147.308 52.9548 147.632 52.6221C147.955 52.2894 148.347 52.0342 148.808 51.8564C149.268 51.6742 149.776 51.583 150.332 51.583C150.897 51.583 151.41 51.6742 151.87 51.8564C152.33 52.0387 152.725 52.2985 153.053 52.6357C153.381 52.973 153.629 53.374 153.798 53.8389C153.971 54.3037 154.058 54.8164 154.058 55.377ZM152.185 55.377C152.185 54.6159 152.016 54.0234 151.679 53.5996C151.346 53.1758 150.897 52.9639 150.332 52.9639C149.967 52.9639 149.646 53.0596 149.368 53.251C149.09 53.4378 148.876 53.7158 148.726 54.085C148.575 54.4541 148.5 54.8848 148.5 55.377C148.5 55.8646 148.573 56.2907 148.719 56.6553C148.869 57.0199 149.081 57.3001 149.354 57.4961C149.632 57.6875 149.958 57.7832 150.332 57.7832C150.897 57.7832 151.346 57.5713 151.679 57.1475C152.016 56.7191 152.185 56.1289 152.185 55.377ZM160.381 58.1182V57.8789C160.158 58.1615 159.923 58.3984 159.677 58.5898C159.431 58.7812 159.162 58.9225 158.87 59.0137C158.578 59.1094 158.246 59.1572 157.872 59.1572C157.421 59.1572 157.015 59.0638 156.655 58.877C156.3 58.6901 156.024 58.4326 155.828 58.1045C155.596 57.708 155.479 57.1383 155.479 56.3955V52.6973C155.479 52.3236 155.564 52.0456 155.732 51.8633C155.901 51.6764 156.124 51.583 156.402 51.583C156.685 51.583 156.913 51.6764 157.086 51.8633C157.259 52.0501 157.346 52.3281 157.346 52.6973V55.6846C157.346 56.1175 157.382 56.4821 157.455 56.7783C157.528 57.07 157.658 57.3001 157.845 57.4688C158.036 57.6328 158.294 57.7148 158.617 57.7148C158.932 57.7148 159.228 57.6214 159.506 57.4346C159.784 57.2477 159.987 57.0039 160.114 56.7031C160.219 56.4388 160.271 55.86 160.271 54.9668V52.6973C160.271 52.3281 160.358 52.0501 160.531 51.8633C160.704 51.6764 160.93 51.583 161.208 51.583C161.486 51.583 161.709 51.6764 161.878 51.8633C162.047 52.0456 162.131 52.3236 162.131 52.6973V58.1045C162.131 58.46 162.049 58.7266 161.885 58.9043C161.725 59.082 161.518 59.1709 161.263 59.1709C161.007 59.1709 160.796 59.0798 160.627 58.8975C160.463 58.7106 160.381 58.4508 160.381 58.1182ZM167.497 58.0361V49.9424C167.497 49.5687 167.579 49.2861 167.743 49.0947C167.912 48.9033 168.137 48.8076 168.42 48.8076C168.702 48.8076 168.93 48.9033 169.104 49.0947C169.277 49.2816 169.363 49.5641 169.363 49.9424V58.0361C169.363 58.4144 169.274 58.6992 169.097 58.8906C168.924 59.0775 168.698 59.1709 168.42 59.1709C168.146 59.1709 167.923 59.0729 167.75 58.877C167.581 58.681 167.497 58.4007 167.497 58.0361ZM173.164 52.6426V58.0361C173.164 58.4098 173.075 58.6924 172.897 58.8838C172.72 59.0752 172.494 59.1709 172.221 59.1709C171.947 59.1709 171.724 59.0729 171.551 58.877C171.382 58.681 171.298 58.4007 171.298 58.0361V52.6973C171.298 52.3281 171.382 52.0501 171.551 51.8633C171.724 51.6764 171.947 51.583 172.221 51.583C172.494 51.583 172.72 51.6764 172.897 51.8633C173.075 52.0501 173.164 52.3099 173.164 52.6426ZM172.241 50.7148C171.981 50.7148 171.758 50.6351 171.571 50.4756C171.389 50.3161 171.298 50.0905 171.298 49.7988C171.298 49.5345 171.391 49.318 171.578 49.1494C171.77 48.9762 171.991 48.8896 172.241 48.8896C172.483 48.8896 172.697 48.9671 172.884 49.1221C173.071 49.277 173.164 49.5026 173.164 49.7988C173.164 50.0859 173.073 50.3115 172.891 50.4756C172.708 50.6351 172.492 50.7148 172.241 50.7148ZM179.747 58.3164L178.1 55.6094L177.088 56.5664V58.0498C177.088 58.4098 176.992 58.6878 176.801 58.8838C176.614 59.0752 176.397 59.1709 176.151 59.1709C175.864 59.1709 175.639 59.0752 175.475 58.8838C175.311 58.6924 175.229 58.4098 175.229 58.0361V50.0791C175.229 49.6644 175.308 49.3499 175.468 49.1357C175.627 48.917 175.855 48.8076 176.151 48.8076C176.438 48.8076 176.666 48.9056 176.835 49.1016C177.004 49.2975 177.088 49.5869 177.088 49.9697V54.4951L179.187 52.2939C179.446 52.0205 179.645 51.8337 179.781 51.7334C179.918 51.6331 180.084 51.583 180.28 51.583C180.513 51.583 180.706 51.6582 180.861 51.8086C181.016 51.9544 181.094 52.139 181.094 52.3623C181.094 52.6357 180.841 53.0003 180.335 53.4561L179.344 54.3652L181.258 57.373C181.399 57.5964 181.499 57.7673 181.559 57.8857C181.622 57.9997 181.654 58.109 181.654 58.2139C181.654 58.5101 181.572 58.7448 181.408 58.918C181.249 59.0866 181.037 59.1709 180.772 59.1709C180.545 59.1709 180.369 59.1094 180.246 58.9863C180.123 58.8633 179.957 58.64 179.747 58.3164ZM187.8 55.835H184.149C184.154 56.2588 184.238 56.6325 184.402 56.9561C184.571 57.2796 184.792 57.5234 185.065 57.6875C185.343 57.8516 185.649 57.9336 185.981 57.9336C186.205 57.9336 186.408 57.9085 186.59 57.8584C186.777 57.8037 186.957 57.7217 187.13 57.6123C187.303 57.4984 187.463 57.3776 187.608 57.25C187.754 57.1224 187.943 56.9492 188.176 56.7305C188.271 56.6484 188.408 56.6074 188.586 56.6074C188.777 56.6074 188.932 56.6598 189.051 56.7646C189.169 56.8695 189.229 57.0176 189.229 57.209C189.229 57.3776 189.162 57.5758 189.03 57.8037C188.898 58.027 188.698 58.2435 188.429 58.4531C188.164 58.6582 187.829 58.8291 187.424 58.9658C187.023 59.1025 186.56 59.1709 186.036 59.1709C184.838 59.1709 183.906 58.8291 183.24 58.1455C182.575 57.4619 182.242 56.5345 182.242 55.3633C182.242 54.8118 182.324 54.3014 182.488 53.832C182.652 53.3581 182.892 52.9525 183.206 52.6152C183.521 52.278 183.908 52.0205 184.368 51.8428C184.828 51.6605 185.339 51.5693 185.899 51.5693C186.629 51.5693 187.253 51.7243 187.772 52.0342C188.297 52.3395 188.688 52.736 188.948 53.2236C189.208 53.7113 189.338 54.208 189.338 54.7139C189.338 55.1833 189.203 55.4886 188.935 55.6299C188.666 55.7666 188.287 55.835 187.8 55.835ZM184.149 54.7754H187.533C187.488 54.1374 187.314 53.6611 187.014 53.3467C186.717 53.0277 186.326 52.8682 185.838 52.8682C185.373 52.8682 184.99 53.0299 184.689 53.3535C184.393 53.6725 184.213 54.1465 184.149 54.7754ZM194.52 51.7471H194.725V50.626C194.725 50.3252 194.731 50.0905 194.745 49.9219C194.763 49.7487 194.809 49.6006 194.882 49.4775C194.955 49.3499 195.06 49.2474 195.196 49.1699C195.333 49.0879 195.486 49.0469 195.654 49.0469C195.891 49.0469 196.105 49.1357 196.297 49.3135C196.424 49.432 196.504 49.5778 196.536 49.751C196.573 49.9196 196.591 50.1611 196.591 50.4756V51.7471H197.274C197.539 51.7471 197.739 51.8109 197.876 51.9385C198.017 52.0615 198.088 52.221 198.088 52.417C198.088 52.6676 197.988 52.8431 197.787 52.9434C197.591 53.0436 197.309 53.0938 196.939 53.0938H196.591V56.5254C196.591 56.8171 196.6 57.0426 196.618 57.2021C196.641 57.3571 196.696 57.4847 196.782 57.585C196.873 57.6807 197.019 57.7285 197.22 57.7285C197.329 57.7285 197.477 57.7103 197.664 57.6738C197.851 57.6328 197.997 57.6123 198.102 57.6123C198.252 57.6123 198.386 57.6738 198.505 57.7969C198.628 57.9154 198.689 58.0635 198.689 58.2412C198.689 58.542 198.525 58.7721 198.197 58.9316C197.869 59.0911 197.397 59.1709 196.782 59.1709C196.199 59.1709 195.757 59.0729 195.456 58.877C195.155 58.681 194.957 58.4098 194.861 58.0635C194.77 57.7171 194.725 57.2546 194.725 56.6758V53.0938H194.479C194.21 53.0938 194.005 53.0299 193.863 52.9023C193.722 52.7747 193.651 52.613 193.651 52.417C193.651 52.221 193.724 52.0615 193.87 51.9385C194.021 51.8109 194.237 51.7471 194.52 51.7471ZM206.366 55.377C206.366 55.9329 206.28 56.4456 206.106 56.915C205.933 57.3844 205.683 57.7878 205.354 58.125C205.026 58.4622 204.634 58.722 204.179 58.9043C203.723 59.082 203.21 59.1709 202.641 59.1709C202.076 59.1709 201.567 59.0798 201.116 58.8975C200.665 58.7152 200.273 58.4554 199.94 58.1182C199.612 57.7764 199.362 57.3753 199.188 56.915C199.02 56.4502 198.936 55.9375 198.936 55.377C198.936 54.8118 199.022 54.2946 199.195 53.8252C199.368 53.3558 199.617 52.9548 199.94 52.6221C200.264 52.2894 200.656 52.0342 201.116 51.8564C201.576 51.6742 202.085 51.583 202.641 51.583C203.206 51.583 203.718 51.6742 204.179 51.8564C204.639 52.0387 205.033 52.2985 205.361 52.6357C205.689 52.973 205.938 53.374 206.106 53.8389C206.28 54.3037 206.366 54.8164 206.366 55.377ZM204.493 55.377C204.493 54.6159 204.325 54.0234 203.987 53.5996C203.655 53.1758 203.206 52.9639 202.641 52.9639C202.276 52.9639 201.955 53.0596 201.677 53.251C201.399 53.4378 201.185 53.7158 201.034 54.085C200.884 54.4541 200.809 54.8848 200.809 55.377C200.809 55.8646 200.882 56.2907 201.027 56.6553C201.178 57.0199 201.39 57.3001 201.663 57.4961C201.941 57.6875 202.267 57.7832 202.641 57.7832C203.206 57.7832 203.655 57.5713 203.987 57.1475C204.325 56.7191 204.493 56.1289 204.493 55.377ZM218.206 52.9502V58.3711C218.206 58.9909 218.14 59.5241 218.008 59.9707C217.876 60.4173 217.664 60.7865 217.372 61.0781C217.08 61.3698 216.698 61.5863 216.224 61.7275C215.754 61.8688 215.169 61.9395 214.467 61.9395C213.824 61.9395 213.25 61.8483 212.744 61.666C212.238 61.4883 211.849 61.2559 211.575 60.9688C211.302 60.6862 211.165 60.3945 211.165 60.0938C211.165 59.8659 211.243 59.679 211.397 59.5332C211.552 59.3919 211.739 59.3213 211.958 59.3213C212.231 59.3213 212.471 59.4421 212.676 59.6836C212.776 59.8066 212.879 59.9297 212.983 60.0527C213.093 60.1803 213.211 60.2874 213.339 60.374C213.471 60.4652 213.628 60.5312 213.811 60.5723C213.993 60.6178 214.202 60.6406 214.439 60.6406C214.923 60.6406 215.296 60.5723 215.561 60.4355C215.829 60.3034 216.016 60.1165 216.121 59.875C216.23 59.6335 216.294 59.3737 216.312 59.0957C216.331 58.8223 216.344 58.3802 216.354 57.7695C216.066 58.1706 215.734 58.4759 215.355 58.6855C214.982 58.8952 214.535 59 214.016 59C213.391 59 212.844 58.8405 212.375 58.5215C211.91 58.2025 211.552 57.7559 211.302 57.1816C211.051 56.6074 210.926 55.9443 210.926 55.1924C210.926 54.6318 211.001 54.126 211.151 53.6748C211.306 53.2236 211.525 52.8431 211.808 52.5332C212.09 52.2233 212.416 51.9909 212.785 51.8359C213.154 51.6764 213.56 51.5967 214.002 51.5967C214.531 51.5967 214.989 51.6992 215.376 51.9043C215.763 52.1048 216.123 52.4215 216.456 52.8545V52.6016C216.456 52.278 216.536 52.0273 216.695 51.8496C216.855 51.6719 217.06 51.583 217.311 51.583C217.671 51.583 217.91 51.7015 218.028 51.9385C218.147 52.1709 218.206 52.5081 218.206 52.9502ZM212.799 55.3154C212.799 56.0719 212.963 56.6439 213.291 57.0312C213.624 57.4186 214.052 57.6123 214.576 57.6123C214.886 57.6123 215.178 57.5303 215.451 57.3662C215.729 57.1976 215.955 56.9469 216.128 56.6143C216.301 56.277 216.388 55.8691 216.388 55.3906C216.388 54.6296 216.219 54.0371 215.882 53.6133C215.549 53.1895 215.109 52.9775 214.562 52.9775C214.029 52.9775 213.601 53.1803 213.277 53.5859C212.958 53.9915 212.799 54.568 212.799 55.3154ZM226.724 55.377C226.724 55.9329 226.637 56.4456 226.464 56.915C226.291 57.3844 226.04 57.7878 225.712 58.125C225.384 58.4622 224.992 58.722 224.536 58.9043C224.08 59.082 223.568 59.1709 222.998 59.1709C222.433 59.1709 221.925 59.0798 221.474 58.8975C221.022 58.7152 220.631 58.4554 220.298 58.1182C219.97 57.7764 219.719 57.3753 219.546 56.915C219.377 56.4502 219.293 55.9375 219.293 55.377C219.293 54.8118 219.38 54.2946 219.553 53.8252C219.726 53.3558 219.974 52.9548 220.298 52.6221C220.621 52.2894 221.013 52.0342 221.474 51.8564C221.934 51.6742 222.442 51.583 222.998 51.583C223.563 51.583 224.076 51.6742 224.536 51.8564C224.996 52.0387 225.391 52.2985 225.719 52.6357C226.047 52.973 226.295 53.374 226.464 53.8389C226.637 54.3037 226.724 54.8164 226.724 55.377ZM224.851 55.377C224.851 54.6159 224.682 54.0234 224.345 53.5996C224.012 53.1758 223.563 52.9639 222.998 52.9639C222.633 52.9639 222.312 53.0596 222.034 53.251C221.756 53.4378 221.542 53.7158 221.392 54.085C221.241 54.4541 221.166 54.8848 221.166 55.377C221.166 55.8646 221.239 56.2907 221.385 56.6553C221.535 57.0199 221.747 57.3001 222.021 57.4961C222.299 57.6875 222.624 57.7832 222.998 57.7832C223.563 57.7832 224.012 57.5713 224.345 57.1475C224.682 56.7191 224.851 56.1289 224.851 55.377ZM227.852 51.665C227.852 51.2321 227.991 50.7946 228.269 50.3525C228.547 49.9059 228.952 49.5368 229.485 49.2451C230.019 48.9535 230.641 48.8076 231.352 48.8076C232.012 48.8076 232.596 48.9307 233.102 49.1768C233.607 49.4183 233.997 49.7487 234.271 50.168C234.549 50.5872 234.688 51.043 234.688 51.5352C234.688 51.9225 234.608 52.262 234.448 52.5537C234.293 52.8454 234.106 53.0983 233.888 53.3125C233.674 53.5221 233.286 53.8776 232.726 54.3789C232.571 54.5202 232.445 54.6455 232.35 54.7549C232.258 54.8597 232.19 54.9577 232.145 55.0488C232.099 55.1354 232.062 55.2243 232.035 55.3154C232.012 55.402 231.976 55.557 231.926 55.7803C231.839 56.2542 231.568 56.4912 231.112 56.4912C230.875 56.4912 230.675 56.4137 230.511 56.2588C230.351 56.1038 230.271 55.8737 230.271 55.5684C230.271 55.1855 230.331 54.8551 230.449 54.5771C230.568 54.2946 230.725 54.0485 230.921 53.8389C231.117 53.6247 231.381 53.3717 231.714 53.0801C232.006 52.8249 232.215 52.6335 232.343 52.5059C232.475 52.3737 232.584 52.2279 232.671 52.0684C232.762 51.9089 232.808 51.7357 232.808 51.5488C232.808 51.1842 232.671 50.8766 232.397 50.626C232.129 50.3753 231.78 50.25 231.352 50.25C230.85 50.25 230.481 50.3776 230.244 50.6328C230.007 50.8835 229.807 51.2549 229.643 51.7471C229.488 52.262 229.194 52.5195 228.761 52.5195C228.506 52.5195 228.289 52.4307 228.111 52.2529C227.938 52.0706 227.852 51.8747 227.852 51.665ZM231.188 59.1572C230.91 59.1572 230.666 59.0684 230.456 58.8906C230.251 58.7083 230.148 58.4554 230.148 58.1318C230.148 57.8447 230.249 57.6032 230.449 57.4072C230.65 57.2113 230.896 57.1133 231.188 57.1133C231.475 57.1133 231.716 57.2113 231.912 57.4072C232.108 57.6032 232.206 57.8447 232.206 58.1318C232.206 58.4508 232.104 58.7015 231.898 58.8838C231.693 59.0661 231.456 59.1572 231.188 59.1572Z" fill="#2D3556"/>
<path fill-rule="evenodd" clip-rule="evenodd" d="M329.606 63.6065C329.997 63.2159 329.997 62.5824 329.607 62.1919L326.665 59.2505C326.304 58.89 326.278 58.3188 326.556 57.891C327.497 56.4404 328.002 54.7421 328 53C328 48.032 323.968 44 319 44C314.032 44 310 48.032 310 53C310 57.968 314.032 62 319 62C320.742 62.0025 322.44 61.4972 323.891 60.5556C324.319 60.278 324.89 60.304 325.251 60.6647L328.192 63.6067C328.582 63.9973 329.216 63.9971 329.606 63.6065ZM326 53C326.003 54.8204 325.294 56.5699 324.025 57.875L323.875 58.025C322.57 59.2941 320.82 60.0029 319 60C315.132 60 312 56.867 312 53C312 49.132 315.132 46 319 46C322.867 46 326 49.132 326 53Z" fill="#051728"/>
<defs>
<filter id="filter0_dii" x="-3" y="0" width="384" height="120" filterUnits="userSpaceOnUse" color-interpolation-filters="sRGB">
<feFlood flood-opacity="0" result="BackgroundImageFix"/>
<feColorMatrix in="SourceAlpha" type="matrix" values="0 0 0 0 0 0 0 0 0 0 0 0 0 0 0 0 0 0 127 0" result="hardAlpha"/>
<feOffset dy="6"/>
<feGaussianBlur stdDeviation="15"/>
<feColorMatrix type="matrix" values="0 0 0 0 0.7988 0 0 0 0 0.7988 0 0 0 0 0.7988 0 0 0 0.441761 0"/>
<feBlend mode="normal" in2="BackgroundImageFix" result="effect1_dropShadow"/>
<feBlend mode="normal" in="SourceGraphic" in2="effect1_dropShadow" result="shape"/>
<feColorMatrix in="SourceAlpha" type="matrix" values="0 0 0 0 0 0 0 0 0 0 0 0 0 0 0 0 0 0 127 0" result="hardAlpha"/>
<feOffset dy="-6"/>
<feGaussianBlur stdDeviation="7.5"/>
<feComposite in2="hardAlpha" operator="arithmetic" k2="-1" k3="1"/>
<feColorMatrix type="matrix" values="0 0 0 0 1 0 0 0 0 1 0 0 0 0 1 0 0 0 1 0"/>
<feBlend mode="normal" in2="shape" result="effect2_innerShadow"/>
<feColorMatrix in="SourceAlpha" type="matrix" values="0 0 0 0 0 0 0 0 0 0 0 0 0 0 0 0 0 0 127 0" result="hardAlpha"/>
<feOffset dy="-3"/>
<feGaussianBlur stdDeviation="4"/>
<feComposite in2="hardAlpha" operator="arithmetic" k2="-1" k3="1"/>
<feColorMatrix type="matrix" values="0 0 0 0 1 0 0 0 0 1 0 0 0 0 1 0 0 0 0.818482 0"/>
<feBlend mode="normal" in2="effect2_innerShadow" result="effect3_innerShadow"/>
</filter>
<linearGradient id="paint0_linear" x1="-9.51262" y1="54" x2="-9.51262" y2="127.523" gradientUnits="userSpaceOnUse">
<stop stop-color="#FDFDFF"/>
<stop offset="1" stop-color="#C3DAF1"/>
</linearGradient>
</defs>
</svg>
