<svg width="227" height="18" viewBox="0 0 227 18" fill="none" xmlns="http://www.w3.org/2000/svg">
<path d="M2.24805 0.683594H6.02734C7.01042 0.683594 7.85352 0.77474 8.55664 0.957031C9.25977 1.13932 9.89779 1.48112 10.4707 1.98242C11.9616 3.25846 12.707 5.19857 12.707 7.80273C12.707 8.66211 12.6322 9.44661 12.4824 10.1562C12.3327 10.8659 12.1016 11.5072 11.7891 12.0801C11.4766 12.6465 11.0762 13.1543 10.5879 13.6035C10.2038 13.9486 9.78385 14.2253 9.32812 14.4336C8.8724 14.6419 8.38086 14.7884 7.85352 14.873C7.33268 14.9577 6.74349 15 6.08594 15H2.30664C1.7793 15 1.38216 14.9219 1.11523 14.7656C0.848307 14.6029 0.672526 14.3783 0.587891 14.0918C0.509766 13.7988 0.470703 13.4212 0.470703 12.959V2.46094C0.470703 1.83594 0.610677 1.38346 0.890625 1.10352C1.17057 0.823568 1.62305 0.683594 2.24805 0.683594ZM3.37109 2.97852V12.6953H5.56836C6.05013 12.6953 6.42773 12.6823 6.70117 12.6562C6.97461 12.6302 7.25781 12.5651 7.55078 12.4609C7.84375 12.3568 8.09766 12.2103 8.3125 12.0215C9.28255 11.2012 9.76758 9.78841 9.76758 7.7832C9.76758 6.37044 9.55273 5.3125 9.12305 4.60938C8.69987 3.90625 8.17578 3.46029 7.55078 3.27148C6.92578 3.07617 6.17057 2.97852 5.28516 2.97852H3.37109ZM25.0508 9.82422C25.0508 10.6185 24.9271 11.3509 24.6797 12.0215C24.4323 12.6921 24.0742 13.2682 23.6055 13.75C23.1367 14.2318 22.5768 14.6029 21.9258 14.8633C21.2747 15.1172 20.5423 15.2441 19.7285 15.2441C18.9212 15.2441 18.1953 15.1139 17.5508 14.8535C16.9062 14.5931 16.3464 14.222 15.8711 13.7402C15.4023 13.252 15.0443 12.679 14.7969 12.0215C14.556 11.3574 14.4355 10.625 14.4355 9.82422C14.4355 9.01693 14.5592 8.27799 14.8066 7.60742C15.054 6.93685 15.4089 6.36393 15.8711 5.88867C16.3333 5.41341 16.8932 5.04883 17.5508 4.79492C18.2083 4.53451 18.9342 4.4043 19.7285 4.4043C20.5358 4.4043 21.2682 4.53451 21.9258 4.79492C22.5833 5.05534 23.1465 5.42643 23.6152 5.9082C24.084 6.38997 24.4388 6.96289 24.6797 7.62695C24.9271 8.29102 25.0508 9.02344 25.0508 9.82422ZM22.375 9.82422C22.375 8.73698 22.1341 7.89062 21.6523 7.28516C21.1771 6.67969 20.5358 6.37695 19.7285 6.37695C19.2077 6.37695 18.7487 6.51367 18.3516 6.78711C17.9544 7.05404 17.6484 7.45117 17.4336 7.97852C17.2188 8.50586 17.1113 9.12109 17.1113 9.82422C17.1113 10.5208 17.2155 11.1296 17.4238 11.6504C17.6387 12.1712 17.9414 12.5716 18.332 12.8516C18.7292 13.125 19.1947 13.2617 19.7285 13.2617C20.5358 13.2617 21.1771 12.959 21.6523 12.3535C22.1341 11.7415 22.375 10.8984 22.375 9.82422ZM36.7207 11.9434C36.7207 12.2754 36.6198 12.6302 36.418 13.0078C36.2227 13.3854 35.9199 13.7467 35.5098 14.0918C35.1061 14.4303 34.5951 14.7038 33.9766 14.9121C33.3581 15.1204 32.6615 15.2246 31.8867 15.2246C30.2396 15.2246 28.9538 14.7461 28.0293 13.7891C27.1048 12.8255 26.6426 11.5365 26.6426 9.92188C26.6426 8.82812 26.8542 7.86133 27.2773 7.02148C27.7005 6.18164 28.3125 5.53385 29.1133 5.07812C29.9141 4.61589 30.8711 4.38477 31.9844 4.38477C32.6745 4.38477 33.306 4.48568 33.8789 4.6875C34.4583 4.88932 34.9466 5.14974 35.3438 5.46875C35.7474 5.78776 36.0534 6.12956 36.2617 6.49414C36.4766 6.85221 36.584 7.1875 36.584 7.5C36.584 7.81901 36.4635 8.08919 36.2227 8.31055C35.9883 8.5319 35.7018 8.64258 35.3633 8.64258C35.1419 8.64258 34.9564 8.58724 34.8066 8.47656C34.6634 8.35938 34.5007 8.17383 34.3184 7.91992C33.9928 7.42513 33.651 7.05404 33.293 6.80664C32.9414 6.55924 32.4922 6.43555 31.9453 6.43555C31.1576 6.43555 30.5228 6.74479 30.041 7.36328C29.5592 7.97526 29.3184 8.8151 29.3184 9.88281C29.3184 10.3841 29.3802 10.8464 29.5039 11.2695C29.6276 11.6862 29.8066 12.0443 30.041 12.3438C30.2754 12.6367 30.5586 12.8613 30.8906 13.0176C31.2227 13.1673 31.5872 13.2422 31.9844 13.2422C32.5182 13.2422 32.974 13.1185 33.3516 12.8711C33.7357 12.6237 34.0742 12.2461 34.3672 11.7383C34.5299 11.4388 34.7057 11.2044 34.8945 11.0352C35.0833 10.8659 35.3145 10.7812 35.5879 10.7812C35.9134 10.7812 36.1836 10.9049 36.3984 11.1523C36.6133 11.3997 36.7207 11.6634 36.7207 11.9434ZM39.2012 4.63867H39.4941V3.03711C39.4941 2.60742 39.5039 2.27214 39.5234 2.03125C39.5495 1.78385 39.6146 1.57227 39.7188 1.39648C39.8229 1.21419 39.9727 1.06771 40.168 0.957031C40.3633 0.839844 40.5814 0.78125 40.8223 0.78125C41.1608 0.78125 41.4668 0.908203 41.7402 1.16211C41.9225 1.33138 42.0365 1.53971 42.082 1.78711C42.1341 2.02799 42.1602 2.37305 42.1602 2.82227V4.63867H43.1367C43.5143 4.63867 43.8008 4.72982 43.9961 4.91211C44.1979 5.08789 44.2988 5.31576 44.2988 5.5957C44.2988 5.95378 44.1556 6.20443 43.8691 6.34766C43.5892 6.49089 43.1855 6.5625 42.6582 6.5625H42.1602V11.4648C42.1602 11.8815 42.1732 12.2038 42.1992 12.4316C42.2318 12.653 42.3099 12.8353 42.4336 12.9785C42.5638 13.1152 42.7721 13.1836 43.0586 13.1836C43.2148 13.1836 43.4264 13.1576 43.6934 13.1055C43.9603 13.0469 44.1686 13.0176 44.3184 13.0176C44.5332 13.0176 44.7253 13.1055 44.8945 13.2812C45.0703 13.4505 45.1582 13.6621 45.1582 13.916C45.1582 14.3457 44.9238 14.6745 44.4551 14.9023C43.9863 15.1302 43.3125 15.2441 42.4336 15.2441C41.6003 15.2441 40.9688 15.1042 40.5391 14.8242C40.1094 14.5443 39.8262 14.1569 39.6895 13.6621C39.5592 13.1673 39.4941 12.5065 39.4941 11.6797V6.5625H39.1426C38.7585 6.5625 38.4655 6.47135 38.2637 6.28906C38.0618 6.10677 37.9609 5.87565 37.9609 5.5957C37.9609 5.31576 38.0651 5.08789 38.2734 4.91211C38.4883 4.72982 38.7975 4.63867 39.2012 4.63867ZM56.125 9.82422C56.125 10.6185 56.0013 11.3509 55.7539 12.0215C55.5065 12.6921 55.1484 13.2682 54.6797 13.75C54.2109 14.2318 53.651 14.6029 53 14.8633C52.349 15.1172 51.6165 15.2441 50.8027 15.2441C49.9954 15.2441 49.2695 15.1139 48.625 14.8535C47.9805 14.5931 47.4206 14.222 46.9453 13.7402C46.4766 13.252 46.1185 12.679 45.8711 12.0215C45.6302 11.3574 45.5098 10.625 45.5098 9.82422C45.5098 9.01693 45.6335 8.27799 45.8809 7.60742C46.1283 6.93685 46.4831 6.36393 46.9453 5.88867C47.4076 5.41341 47.9674 5.04883 48.625 4.79492C49.2826 4.53451 50.0085 4.4043 50.8027 4.4043C51.61 4.4043 52.3424 4.53451 53 4.79492C53.6576 5.05534 54.2207 5.42643 54.6895 5.9082C55.1582 6.38997 55.513 6.96289 55.7539 7.62695C56.0013 8.29102 56.125 9.02344 56.125 9.82422ZM53.4492 9.82422C53.4492 8.73698 53.2083 7.89062 52.7266 7.28516C52.2513 6.67969 51.61 6.37695 50.8027 6.37695C50.2819 6.37695 49.8229 6.51367 49.4258 6.78711C49.0286 7.05404 48.7227 7.45117 48.5078 7.97852C48.293 8.50586 48.1855 9.12109 48.1855 9.82422C48.1855 10.5208 48.2897 11.1296 48.498 11.6504C48.7129 12.1712 49.0156 12.5716 49.4062 12.8516C49.8034 13.125 50.2689 13.2617 50.8027 13.2617C51.61 13.2617 52.2513 12.959 52.7266 12.3535C53.2083 11.7415 53.4492 10.8984 53.4492 9.82422ZM60.8809 11.3965V13.623C60.8809 14.1634 60.7539 14.5703 60.5 14.8438C60.2461 15.1107 59.9238 15.2441 59.5332 15.2441C59.1491 15.2441 58.8333 15.1074 58.5859 14.834C58.3385 14.5605 58.2148 14.1569 58.2148 13.623V6.20117C58.2148 5.00326 58.6478 4.4043 59.5137 4.4043C59.9564 4.4043 60.2754 4.54427 60.4707 4.82422C60.666 5.10417 60.7734 5.51758 60.793 6.06445C61.112 5.51758 61.4375 5.10417 61.7695 4.82422C62.1081 4.54427 62.5573 4.4043 63.1172 4.4043C63.6771 4.4043 64.2207 4.54427 64.748 4.82422C65.2754 5.10417 65.5391 5.47526 65.5391 5.9375C65.5391 6.26302 65.4251 6.5332 65.1973 6.74805C64.9759 6.95638 64.735 7.06055 64.4746 7.06055C64.377 7.06055 64.1393 7.00195 63.7617 6.88477C63.3906 6.76107 63.0618 6.69922 62.7754 6.69922C62.3848 6.69922 62.0658 6.80339 61.8184 7.01172C61.571 7.21354 61.3789 7.51628 61.2422 7.91992C61.1055 8.32357 61.0111 8.80534 60.959 9.36523C60.9069 9.91862 60.8809 10.5957 60.8809 11.3965ZM73.3027 15H68.9277C68.2962 15 67.8438 14.86 67.5703 14.5801C67.3034 14.2936 67.1699 13.8411 67.1699 13.2227V2.46094C67.1699 1.82943 67.3066 1.37695 67.5801 1.10352C67.86 0.823568 68.3092 0.683594 68.9277 0.683594H73.5664C74.25 0.683594 74.8424 0.725911 75.3438 0.810547C75.8451 0.895182 76.2943 1.05794 76.6914 1.29883C77.0299 1.50065 77.3294 1.75781 77.5898 2.07031C77.8503 2.3763 78.0488 2.7181 78.1855 3.0957C78.3223 3.4668 78.3906 3.86068 78.3906 4.27734C78.3906 5.70964 77.6745 6.75781 76.2422 7.42188C78.1237 8.02083 79.0645 9.1862 79.0645 10.918C79.0645 11.7188 78.8594 12.4414 78.4492 13.0859C78.0391 13.724 77.4857 14.196 76.7891 14.502C76.3529 14.6842 75.8516 14.8145 75.2852 14.8926C74.7188 14.9642 74.0579 15 73.3027 15ZM73.0879 8.64258H70.0703V12.8223H73.1855C75.1452 12.8223 76.125 12.1159 76.125 10.7031C76.125 9.98047 75.8711 9.45638 75.3633 9.13086C74.8555 8.80534 74.097 8.64258 73.0879 8.64258ZM70.0703 2.86133V6.5625H72.7266C73.4492 6.5625 74.0059 6.49414 74.3965 6.35742C74.7936 6.2207 75.0964 5.96029 75.3047 5.57617C75.4674 5.30273 75.5488 4.99674 75.5488 4.6582C75.5488 3.93555 75.2917 3.45703 74.7773 3.22266C74.263 2.98177 73.4785 2.86133 72.4238 2.86133H70.0703ZM84.0645 5.91797V13.623C84.0645 14.1569 83.9375 14.5605 83.6836 14.834C83.4297 15.1074 83.1074 15.2441 82.7168 15.2441C82.3262 15.2441 82.0072 15.1042 81.7598 14.8242C81.5189 14.5443 81.3984 14.1439 81.3984 13.623V5.99609C81.3984 5.46875 81.5189 5.07161 81.7598 4.80469C82.0072 4.53776 82.3262 4.4043 82.7168 4.4043C83.1074 4.4043 83.4297 4.53776 83.6836 4.80469C83.9375 5.07161 84.0645 5.44271 84.0645 5.91797ZM82.7461 3.16406C82.375 3.16406 82.056 3.05013 81.7891 2.82227C81.5286 2.5944 81.3984 2.27214 81.3984 1.85547C81.3984 1.47786 81.5319 1.16862 81.7988 0.927734C82.0723 0.680339 82.388 0.556641 82.7461 0.556641C83.0911 0.556641 83.3971 0.667318 83.6641 0.888672C83.931 1.11003 84.0645 1.43229 84.0645 1.85547C84.0645 2.26562 83.9342 2.58789 83.6738 2.82227C83.4134 3.05013 83.1042 3.16406 82.7461 3.16406ZM96.3887 11.9434C96.3887 12.2754 96.2878 12.6302 96.0859 13.0078C95.8906 13.3854 95.5879 13.7467 95.1777 14.0918C94.7741 14.4303 94.263 14.7038 93.6445 14.9121C93.026 15.1204 92.3294 15.2246 91.5547 15.2246C89.9076 15.2246 88.6217 14.7461 87.6973 13.7891C86.7728 12.8255 86.3105 11.5365 86.3105 9.92188C86.3105 8.82812 86.5221 7.86133 86.9453 7.02148C87.3685 6.18164 87.9805 5.53385 88.7812 5.07812C89.582 4.61589 90.5391 4.38477 91.6523 4.38477C92.3424 4.38477 92.974 4.48568 93.5469 4.6875C94.1263 4.88932 94.6146 5.14974 95.0117 5.46875C95.4154 5.78776 95.7214 6.12956 95.9297 6.49414C96.1445 6.85221 96.252 7.1875 96.252 7.5C96.252 7.81901 96.1315 8.08919 95.8906 8.31055C95.6562 8.5319 95.3698 8.64258 95.0312 8.64258C94.8099 8.64258 94.6243 8.58724 94.4746 8.47656C94.3314 8.35938 94.1686 8.17383 93.9863 7.91992C93.6608 7.42513 93.319 7.05404 92.9609 6.80664C92.6094 6.55924 92.1602 6.43555 91.6133 6.43555C90.8255 6.43555 90.1908 6.74479 89.709 7.36328C89.2272 7.97526 88.9863 8.8151 88.9863 9.88281C88.9863 10.3841 89.0482 10.8464 89.1719 11.2695C89.2956 11.6862 89.4746 12.0443 89.709 12.3438C89.9434 12.6367 90.2266 12.8613 90.5586 13.0176C90.8906 13.1673 91.2552 13.2422 91.6523 13.2422C92.1862 13.2422 92.6419 13.1185 93.0195 12.8711C93.4036 12.6237 93.7422 12.2461 94.0352 11.7383C94.1979 11.4388 94.3737 11.2044 94.5625 11.0352C94.7513 10.8659 94.9824 10.7812 95.2559 10.7812C95.5814 10.7812 95.8516 10.9049 96.0664 11.1523C96.2812 11.3997 96.3887 11.6634 96.3887 11.9434ZM100.822 2.06055V6.01562C101.161 5.625 101.49 5.31576 101.809 5.08789C102.134 4.86003 102.492 4.69076 102.883 4.58008C103.273 4.46289 103.693 4.4043 104.143 4.4043C104.82 4.4043 105.419 4.54753 105.939 4.83398C106.467 5.12044 106.88 5.53711 107.18 6.08398C107.368 6.40299 107.495 6.76107 107.561 7.1582C107.626 7.54883 107.658 8.0013 107.658 8.51562V13.623C107.658 14.1569 107.535 14.5605 107.287 14.834C107.046 15.1074 106.724 15.2441 106.32 15.2441C105.441 15.2441 105.002 14.7038 105.002 13.623V9.12109C105.002 8.26823 104.875 7.61393 104.621 7.1582C104.367 6.69596 103.885 6.46484 103.176 6.46484C102.701 6.46484 102.271 6.60156 101.887 6.875C101.509 7.14193 101.226 7.50977 101.037 7.97852C100.894 8.37565 100.822 9.08203 100.822 10.0977V13.623C100.822 14.1504 100.702 14.554 100.461 14.834C100.227 15.1074 99.8978 15.2441 99.4746 15.2441C98.5957 15.2441 98.1562 14.7038 98.1562 13.623V2.06055C98.1562 1.52018 98.2702 1.11654 98.498 0.849609C98.7324 0.576172 99.0579 0.439453 99.4746 0.439453C99.8978 0.439453 100.227 0.576172 100.461 0.849609C100.702 1.12305 100.822 1.52669 100.822 2.06055ZM122.688 10.4785C122.688 10.9342 122.574 11.429 122.346 11.9629C122.124 12.4902 121.773 13.0111 121.291 13.5254C120.809 14.0332 120.194 14.4466 119.445 14.7656C118.697 15.0846 117.824 15.2441 116.828 15.2441C116.073 15.2441 115.386 15.1725 114.768 15.0293C114.149 14.8861 113.586 14.6647 113.078 14.3652C112.577 14.0592 112.115 13.6589 111.691 13.1641C111.314 12.7148 110.992 12.2135 110.725 11.6602C110.458 11.1003 110.256 10.5046 110.119 9.87305C109.989 9.24154 109.924 8.57096 109.924 7.86133C109.924 6.70898 110.09 5.67708 110.422 4.76562C110.76 3.85417 111.242 3.07617 111.867 2.43164C112.492 1.7806 113.225 1.28581 114.064 0.947266C114.904 0.608724 115.799 0.439453 116.75 0.439453C117.909 0.439453 118.941 0.670573 119.846 1.13281C120.751 1.59505 121.444 2.16797 121.926 2.85156C122.408 3.52865 122.648 4.16992 122.648 4.77539C122.648 5.10742 122.531 5.40039 122.297 5.6543C122.062 5.9082 121.779 6.03516 121.447 6.03516C121.076 6.03516 120.796 5.94727 120.607 5.77148C120.425 5.5957 120.22 5.29297 119.992 4.86328C119.615 4.15365 119.169 3.62305 118.654 3.27148C118.146 2.91992 117.518 2.74414 116.77 2.74414C115.578 2.74414 114.628 3.19661 113.918 4.10156C113.215 5.00651 112.863 6.29232 112.863 7.95898C112.863 9.07227 113.02 10 113.332 10.7422C113.645 11.4779 114.087 12.028 114.66 12.3926C115.233 12.7572 115.904 12.9395 116.672 12.9395C117.505 12.9395 118.208 12.7344 118.781 12.3242C119.361 11.9076 119.797 11.2988 120.09 10.498C120.214 10.1204 120.367 9.81445 120.549 9.58008C120.731 9.33919 121.024 9.21875 121.428 9.21875C121.773 9.21875 122.069 9.33919 122.316 9.58008C122.564 9.82096 122.688 10.1204 122.688 10.4785ZM127.756 11.3965V13.623C127.756 14.1634 127.629 14.5703 127.375 14.8438C127.121 15.1107 126.799 15.2441 126.408 15.2441C126.024 15.2441 125.708 15.1074 125.461 14.834C125.214 14.5605 125.09 14.1569 125.09 13.623V6.20117C125.09 5.00326 125.523 4.4043 126.389 4.4043C126.831 4.4043 127.15 4.54427 127.346 4.82422C127.541 5.10417 127.648 5.51758 127.668 6.06445C127.987 5.51758 128.312 5.10417 128.645 4.82422C128.983 4.54427 129.432 4.4043 129.992 4.4043C130.552 4.4043 131.096 4.54427 131.623 4.82422C132.15 5.10417 132.414 5.47526 132.414 5.9375C132.414 6.26302 132.3 6.5332 132.072 6.74805C131.851 6.95638 131.61 7.06055 131.35 7.06055C131.252 7.06055 131.014 7.00195 130.637 6.88477C130.266 6.76107 129.937 6.69922 129.65 6.69922C129.26 6.69922 128.941 6.80339 128.693 7.01172C128.446 7.21354 128.254 7.51628 128.117 7.91992C127.98 8.32357 127.886 8.80534 127.834 9.36523C127.782 9.91862 127.756 10.5957 127.756 11.3965ZM140.109 13.7402C139.465 14.2415 138.84 14.6191 138.234 14.873C137.635 15.1204 136.962 15.2441 136.213 15.2441C135.529 15.2441 134.927 15.1107 134.406 14.8438C133.892 14.5703 133.495 14.2025 133.215 13.7402C132.935 13.278 132.795 12.7767 132.795 12.2363C132.795 11.5072 133.026 10.8854 133.488 10.3711C133.951 9.85677 134.585 9.51172 135.393 9.33594C135.562 9.29688 135.982 9.20898 136.652 9.07227C137.323 8.93555 137.896 8.81185 138.371 8.70117C138.853 8.58398 139.374 8.44401 139.934 8.28125C139.901 7.57812 139.758 7.0638 139.504 6.73828C139.257 6.40625 138.739 6.24023 137.951 6.24023C137.274 6.24023 136.763 6.33464 136.418 6.52344C136.079 6.71224 135.786 6.99544 135.539 7.37305C135.298 7.75065 135.126 8.0013 135.021 8.125C134.924 8.24219 134.709 8.30078 134.377 8.30078C134.077 8.30078 133.817 8.20638 133.596 8.01758C133.381 7.82227 133.273 7.57487 133.273 7.27539C133.273 6.80664 133.439 6.35091 133.771 5.9082C134.104 5.46549 134.621 5.10091 135.324 4.81445C136.027 4.52799 136.903 4.38477 137.951 4.38477C139.123 4.38477 140.044 4.52474 140.715 4.80469C141.385 5.07812 141.857 5.51432 142.131 6.11328C142.411 6.71224 142.551 7.50651 142.551 8.49609C142.551 9.12109 142.548 9.65169 142.541 10.0879C142.541 10.5241 142.538 11.0091 142.531 11.543C142.531 12.0443 142.613 12.5684 142.775 13.1152C142.945 13.6556 143.029 14.0039 143.029 14.1602C143.029 14.4336 142.899 14.6842 142.639 14.9121C142.385 15.1335 142.095 15.2441 141.77 15.2441C141.496 15.2441 141.226 15.1172 140.959 14.8633C140.692 14.6029 140.409 14.2285 140.109 13.7402ZM139.934 9.88281C139.543 10.026 138.973 10.179 138.225 10.3418C137.482 10.498 136.968 10.6152 136.682 10.6934C136.395 10.765 136.122 10.9115 135.861 11.1328C135.601 11.3477 135.471 11.6504 135.471 12.041C135.471 12.4447 135.624 12.7897 135.93 13.0762C136.236 13.3561 136.636 13.4961 137.131 13.4961C137.658 13.4961 138.143 13.3822 138.586 13.1543C139.035 12.9199 139.364 12.6204 139.572 12.2559C139.813 11.8522 139.934 11.1882 139.934 10.2637V9.88281ZM145.051 4.63867H145.686V3.83789C145.686 3.00456 145.79 2.34375 145.998 1.85547C146.213 1.36068 146.571 1.0026 147.072 0.78125C147.58 0.553385 148.273 0.439453 149.152 0.439453C150.708 0.439453 151.486 0.820312 151.486 1.58203C151.486 1.82943 151.405 2.04102 151.242 2.2168C151.079 2.39258 150.887 2.48047 150.666 2.48047C150.562 2.48047 150.383 2.46094 150.129 2.42188C149.875 2.38281 149.66 2.36328 149.484 2.36328C149.003 2.36328 148.693 2.50651 148.557 2.79297C148.42 3.07292 148.352 3.47656 148.352 4.00391V4.63867H149.006C150.021 4.63867 150.529 4.94466 150.529 5.55664C150.529 5.99284 150.393 6.26953 150.119 6.38672C149.852 6.50391 149.481 6.5625 149.006 6.5625H148.352V13.623C148.352 14.1504 148.225 14.554 147.971 14.834C147.723 15.1074 147.401 15.2441 147.004 15.2441C146.626 15.2441 146.311 15.1074 146.057 14.834C145.809 14.554 145.686 14.1504 145.686 13.623V6.5625H144.953C144.556 6.5625 144.25 6.47461 144.035 6.29883C143.82 6.11654 143.713 5.88216 143.713 5.5957C143.713 4.95768 144.159 4.63867 145.051 4.63867ZM152.072 4.63867H152.365V3.03711C152.365 2.60742 152.375 2.27214 152.395 2.03125C152.421 1.78385 152.486 1.57227 152.59 1.39648C152.694 1.21419 152.844 1.06771 153.039 0.957031C153.234 0.839844 153.452 0.78125 153.693 0.78125C154.032 0.78125 154.338 0.908203 154.611 1.16211C154.794 1.33138 154.908 1.53971 154.953 1.78711C155.005 2.02799 155.031 2.37305 155.031 2.82227V4.63867H156.008C156.385 4.63867 156.672 4.72982 156.867 4.91211C157.069 5.08789 157.17 5.31576 157.17 5.5957C157.17 5.95378 157.027 6.20443 156.74 6.34766C156.46 6.49089 156.057 6.5625 155.529 6.5625H155.031V11.4648C155.031 11.8815 155.044 12.2038 155.07 12.4316C155.103 12.653 155.181 12.8353 155.305 12.9785C155.435 13.1152 155.643 13.1836 155.93 13.1836C156.086 13.1836 156.298 13.1576 156.564 13.1055C156.831 13.0469 157.04 13.0176 157.189 13.0176C157.404 13.0176 157.596 13.1055 157.766 13.2812C157.941 13.4505 158.029 13.6621 158.029 13.916C158.029 14.3457 157.795 14.6745 157.326 14.9023C156.857 15.1302 156.184 15.2441 155.305 15.2441C154.471 15.2441 153.84 15.1042 153.41 14.8242C152.98 14.5443 152.697 14.1569 152.561 13.6621C152.43 13.1673 152.365 12.5065 152.365 11.6797V6.5625H152.014C151.63 6.5625 151.337 6.47135 151.135 6.28906C150.933 6.10677 150.832 5.87565 150.832 5.5957C150.832 5.31576 150.936 5.08789 151.145 4.91211C151.359 4.72982 151.669 4.63867 152.072 4.63867ZM161.262 7.25586C161.704 6.72852 162.186 6.33789 162.707 6.08398C163.228 5.83008 163.811 5.70312 164.455 5.70312C165.074 5.70312 165.643 5.82031 166.164 6.05469C166.691 6.28255 167.15 6.61133 167.541 7.04102C167.938 7.46419 168.244 7.96549 168.459 8.54492C168.674 9.12435 168.781 9.72982 168.781 10.3613C168.781 11.2793 168.57 12.1126 168.146 12.8613C167.73 13.61 167.144 14.196 166.389 14.6191C165.64 15.0358 164.79 15.2441 163.84 15.2441C162.746 15.2441 161.802 14.9772 161.008 14.4434C160.214 13.9095 159.605 13.1217 159.182 12.0801C158.765 11.0319 158.557 9.7526 158.557 8.24219C158.557 7.01172 158.684 5.91146 158.938 4.94141C159.191 3.97135 159.556 3.16732 160.031 2.5293C160.507 1.89128 161.083 1.40951 161.76 1.08398C162.437 0.758464 163.208 0.595703 164.074 0.595703C164.908 0.595703 165.64 0.758464 166.271 1.08398C166.91 1.40951 167.388 1.81315 167.707 2.29492C168.033 2.77669 168.195 3.23893 168.195 3.68164C168.195 3.94857 168.094 4.19271 167.893 4.41406C167.691 4.62891 167.434 4.73633 167.121 4.73633C166.848 4.73633 166.594 4.65169 166.359 4.48242C166.125 4.30664 165.952 4.06576 165.842 3.75977C165.692 3.36914 165.454 3.05664 165.129 2.82227C164.803 2.58138 164.426 2.46094 163.996 2.46094C163.651 2.46094 163.306 2.56185 162.961 2.76367C162.622 2.95898 162.336 3.22591 162.102 3.56445C161.626 4.25456 161.346 5.48503 161.262 7.25586ZM163.898 13.3203C164.556 13.3203 165.1 13.0534 165.529 12.5195C165.959 11.9792 166.174 11.2728 166.174 10.4004C166.174 9.80794 166.073 9.30013 165.871 8.87695C165.669 8.44727 165.393 8.12174 165.041 7.90039C164.689 7.67253 164.302 7.55859 163.879 7.55859C163.475 7.55859 163.088 7.66602 162.717 7.88086C162.352 8.0957 162.056 8.4082 161.828 8.81836C161.607 9.22201 161.496 9.69727 161.496 10.2441C161.496 11.123 161.724 11.8555 162.18 12.4414C162.635 13.0273 163.208 13.3203 163.898 13.3203ZM177.678 8.58398C177.248 9.0918 176.766 9.47591 176.232 9.73633C175.705 9.99023 175.119 10.1172 174.475 10.1172C173.863 10.1172 173.29 10 172.756 9.76562C172.229 9.52474 171.77 9.19271 171.379 8.76953C170.995 8.33984 170.699 7.8418 170.49 7.27539C170.282 6.70247 170.178 6.10352 170.178 5.47852C170.178 4.80794 170.295 4.17318 170.529 3.57422C170.764 2.96875 171.099 2.44466 171.535 2.00195C171.971 1.55924 172.489 1.21419 173.088 0.966797C173.693 0.719401 174.361 0.595703 175.09 0.595703C175.93 0.595703 176.678 0.748698 177.336 1.05469C177.993 1.36068 178.547 1.80664 178.996 2.39258C179.445 2.97201 179.79 3.70443 180.031 4.58984C180.272 5.47526 180.393 6.47786 180.393 7.59766C180.393 8.84766 180.266 9.95117 180.012 10.9082C179.758 11.8587 179.387 12.6595 178.898 13.3105C178.417 13.9551 177.837 14.4368 177.16 14.7559C176.483 15.0684 175.715 15.2246 174.855 15.2246C174.009 15.2246 173.273 15.0651 172.648 14.7461C172.023 14.4206 171.548 14.0202 171.223 13.5449C170.897 13.0632 170.734 12.6009 170.734 12.1582C170.734 11.8848 170.835 11.6406 171.037 11.4258C171.239 11.2109 171.496 11.1035 171.809 11.1035C172.095 11.1035 172.352 11.1849 172.58 11.3477C172.808 11.5039 172.98 11.7415 173.098 12.0605C173.241 12.4512 173.479 12.7669 173.811 13.0078C174.143 13.2422 174.517 13.3594 174.934 13.3594C175.305 13.3594 175.656 13.265 175.988 13.0762C176.32 12.8874 176.604 12.6204 176.838 12.2754C177.307 11.5788 177.587 10.3483 177.678 8.58398ZM177.453 5.5957C177.453 5.15299 177.391 4.74609 177.268 4.375C177.15 3.9974 176.981 3.67188 176.76 3.39844C176.545 3.125 176.285 2.91016 175.979 2.75391C175.679 2.59766 175.35 2.51953 174.992 2.51953C174.374 2.51953 173.85 2.78646 173.42 3.32031C172.99 3.84766 172.775 4.54753 172.775 5.41992C172.775 6.28581 172.99 6.97591 173.42 7.49023C173.85 8.00456 174.393 8.26172 175.051 8.26172C175.454 8.26172 175.839 8.15755 176.203 7.94922C176.574 7.73438 176.874 7.42513 177.102 7.02148C177.336 6.61784 177.453 6.14258 177.453 5.5957ZM181.311 17.5V16.5039H191.545V17.5H181.311ZM198.43 13.7598V11.9434H193.527C192.909 11.9434 192.443 11.8034 192.131 11.5234C191.825 11.2435 191.672 10.8626 191.672 10.3809C191.672 10.2572 191.695 10.1335 191.74 10.0098C191.786 9.87956 191.854 9.74609 191.945 9.60938C192.036 9.46615 192.131 9.32943 192.229 9.19922C192.326 9.06901 192.447 8.90951 192.59 8.7207L197.766 1.79688C198.104 1.34115 198.381 1.01237 198.596 0.810547C198.817 0.602214 199.081 0.498047 199.387 0.498047C200.376 0.498047 200.871 1.06445 200.871 2.19727V9.75586H201.291C201.792 9.75586 202.193 9.82422 202.492 9.96094C202.798 10.0977 202.951 10.3971 202.951 10.8594C202.951 11.237 202.827 11.5137 202.58 11.6895C202.333 11.8587 201.962 11.9434 201.467 11.9434H200.871V13.7598C200.871 14.2611 200.76 14.6354 200.539 14.8828C200.318 15.1237 200.021 15.2441 199.65 15.2441C199.286 15.2441 198.99 15.1204 198.762 14.873C198.54 14.6191 198.43 14.248 198.43 13.7598ZM194.23 9.75586H198.43V4.08203L194.23 9.75586ZM207.785 12.6953H212.883C213.391 12.6953 213.778 12.7995 214.045 13.0078C214.312 13.2161 214.445 13.4993 214.445 13.8574C214.445 14.1764 214.338 14.4466 214.123 14.668C213.915 14.8893 213.596 15 213.166 15H205.979C205.49 15 205.109 14.8665 204.836 14.5996C204.562 14.3262 204.426 14.0072 204.426 13.6426C204.426 13.4082 204.514 13.099 204.689 12.7148C204.865 12.3242 205.057 12.0182 205.266 11.7969C206.132 10.8984 206.913 10.1302 207.609 9.49219C208.306 8.84766 208.804 8.42448 209.104 8.22266C209.637 7.84505 210.08 7.46745 210.432 7.08984C210.79 6.70573 211.06 6.3151 211.242 5.91797C211.431 5.51432 211.525 5.12044 211.525 4.73633C211.525 4.31966 211.424 3.94857 211.223 3.62305C211.027 3.29102 210.757 3.03385 210.412 2.85156C210.074 2.66927 209.702 2.57812 209.299 2.57812C208.446 2.57812 207.775 2.95247 207.287 3.70117C207.222 3.79883 207.111 4.06576 206.955 4.50195C206.805 4.93815 206.633 5.27344 206.438 5.50781C206.249 5.74219 205.969 5.85938 205.598 5.85938C205.272 5.85938 205.002 5.75195 204.787 5.53711C204.572 5.32227 204.465 5.0293 204.465 4.6582C204.465 4.20898 204.566 3.74023 204.768 3.25195C204.969 2.76367 205.269 2.32096 205.666 1.92383C206.07 1.52669 206.577 1.20768 207.189 0.966797C207.808 0.719401 208.531 0.595703 209.357 0.595703C210.354 0.595703 211.203 0.751953 211.906 1.06445C212.362 1.27279 212.762 1.55924 213.107 1.92383C213.452 2.28841 213.719 2.71159 213.908 3.19336C214.104 3.66862 214.201 4.16341 214.201 4.67773C214.201 5.48503 213.999 6.2207 213.596 6.88477C213.199 7.54232 212.792 8.0599 212.375 8.4375C211.958 8.80859 211.258 9.39453 210.275 10.1953C209.299 10.9961 208.628 11.6178 208.264 12.0605C208.107 12.2363 207.948 12.4479 207.785 12.6953ZM226.154 7.97852C226.154 9.04622 226.089 9.96419 225.959 10.7324C225.829 11.5007 225.588 12.1973 225.236 12.8223C224.794 13.5905 224.221 14.1829 223.518 14.5996C222.814 15.0163 222.033 15.2246 221.174 15.2246C220.184 15.2246 219.296 14.9447 218.508 14.3848C217.727 13.8249 217.137 13.0501 216.74 12.0605C216.538 11.5202 216.389 10.9245 216.291 10.2734C216.2 9.61589 216.154 8.90625 216.154 8.14453C216.154 7.16146 216.206 6.27604 216.311 5.48828C216.415 4.70052 216.577 4.02344 216.799 3.45703C217.183 2.51953 217.74 1.80664 218.469 1.31836C219.204 0.823568 220.08 0.576172 221.096 0.576172C221.766 0.576172 222.375 0.686849 222.922 0.908203C223.469 1.12305 223.947 1.44206 224.357 1.86523C224.774 2.2819 225.126 2.79948 225.412 3.41797C225.907 4.49219 226.154 6.01237 226.154 7.97852ZM223.479 7.7832C223.479 6.5918 223.407 5.61849 223.264 4.86328C223.12 4.10156 222.88 3.52865 222.541 3.14453C222.202 2.75391 221.734 2.55859 221.135 2.55859C220.275 2.55859 219.676 2.99154 219.338 3.85742C219.006 4.72331 218.84 6.05794 218.84 7.86133C218.84 9.08529 218.911 10.0879 219.055 10.8691C219.198 11.6504 219.439 12.2428 219.777 12.6465C220.116 13.0436 220.575 13.2422 221.154 13.2422C221.753 13.2422 222.222 13.0339 222.561 12.6172C222.899 12.2005 223.137 11.6048 223.273 10.8301C223.41 10.0553 223.479 9.03971 223.479 7.7832Z" fill="#2D3556"/>
</svg>
