<svg width="41" height="41" viewBox="0 0 41 41" fill="none" xmlns="http://www.w3.org/2000/svg">
<path d="M17.4711 17.8274C16.5172 17.8274 15.7642 18.6607 15.7642 19.6774C15.7642 20.6941 16.534 21.5274 17.4711 21.5274C18.425 21.5274 19.178 20.6941 19.178 19.6774C19.1948 18.6607 18.425 17.8274 17.4711 17.8274ZM23.5793 17.8274C22.6254 17.8274 21.8723 18.6607 21.8723 19.6774C21.8723 20.6941 22.6421 21.5274 23.5793 21.5274C24.5331 21.5274 25.2862 20.6941 25.2862 19.6774C25.2862 18.6607 24.5331 17.8274 23.5793 17.8274Z" fill="#7289DA"/>
<path d="M31.7123 3.84399H9.28779C7.39677 3.84399 5.85718 5.37733 5.85718 7.27733V29.8107C5.85718 31.7107 7.39677 33.244 9.28779 33.244H28.2649L27.378 30.1607L29.52 32.144L31.5449 34.0107L35.1429 37.1773V7.27733C35.1429 5.37733 33.6033 3.84399 31.7123 3.84399ZM25.2527 25.6107C25.2527 25.6107 24.6502 24.894 24.1482 24.2607C26.3404 23.644 27.1772 22.2773 27.1772 22.2773C26.4911 22.7273 25.8384 23.044 25.2527 23.2607C24.416 23.6107 23.6127 23.844 22.8262 23.9773C21.2196 24.2773 19.747 24.194 18.4919 23.9607C17.538 23.7773 16.718 23.5107 16.0319 23.244C15.647 23.094 15.2286 22.9107 14.8102 22.6773C14.76 22.644 14.7098 22.6273 14.6596 22.594C14.6262 22.5773 14.6094 22.5607 14.5927 22.544C14.2915 22.3773 14.1241 22.2607 14.1241 22.2607C14.1241 22.2607 14.9274 23.594 17.0527 24.2273C16.5506 24.8607 15.9315 25.6107 15.9315 25.6107C12.2331 25.494 10.8274 23.0773 10.8274 23.0773C10.8274 17.7107 13.2372 13.3607 13.2372 13.3607C15.647 11.5607 17.9396 11.6107 17.9396 11.6107L18.107 11.8107C15.0947 12.6773 13.7057 13.994 13.7057 13.994C13.7057 13.994 14.0739 13.794 14.6931 13.5107C16.4837 12.7273 17.9062 12.5107 18.4919 12.4607C18.5923 12.444 18.676 12.4273 18.7764 12.4273C19.7972 12.294 20.9519 12.2607 22.1568 12.394C23.7466 12.5773 25.4535 13.044 27.1939 13.994C27.1939 13.994 25.8719 12.744 23.027 11.8773L23.2613 11.6107C23.2613 11.6107 25.5539 11.5607 27.9637 13.3607C27.9637 13.3607 30.3735 17.7107 30.3735 23.0773C30.3735 23.0773 28.9511 25.494 25.2527 25.6107Z" fill="#7289DA"/>
</svg>

