<svg width="324" height="89" viewBox="0 0 324 89" fill="none" xmlns="http://www.w3.org/2000/svg">
<g filter="url(#filter0_ddiii)">
<rect x="12" y="10" width="300" height="65" rx="32.5" fill="#8D7CF6"/>
</g>
<path d="M89.793 37.1973V44.6973C89.793 45.3483 89.7637 45.9017 89.7051 46.3574C89.653 46.8132 89.5293 47.2754 89.334 47.7441C89.0085 48.5319 88.4714 49.1471 87.7227 49.5898C86.974 50.026 86.0625 50.2441 84.9883 50.2441C84.0182 50.2441 83.2077 50.0911 82.5566 49.7852C81.9121 49.4792 81.3913 48.9844 80.9941 48.3008C80.7858 47.9362 80.6165 47.5163 80.4863 47.041C80.3561 46.5658 80.291 46.1133 80.291 45.6836C80.291 45.2279 80.418 44.8796 80.6719 44.6387C80.9258 44.3978 81.2513 44.2773 81.6484 44.2773C82.0326 44.2773 82.3223 44.388 82.5176 44.6094C82.7129 44.8307 82.8626 45.1758 82.9668 45.6445C83.0775 46.1458 83.1882 46.5462 83.2988 46.8457C83.4095 47.1452 83.5951 47.4023 83.8555 47.6172C84.1159 47.832 84.487 47.9395 84.9688 47.9395C86.2513 47.9395 86.8926 46.9987 86.8926 45.1172V37.1973C86.8926 36.6113 87.0195 36.1719 87.2734 35.8789C87.5339 35.5859 87.8854 35.4395 88.3281 35.4395C88.7773 35.4395 89.1322 35.5859 89.3926 35.8789C89.6595 36.1719 89.793 36.6113 89.793 37.1973ZM99.2363 35.4395C100.721 35.4395 101.993 35.7422 103.055 36.3477C104.122 36.9466 104.93 37.8027 105.477 38.916C106.023 40.0228 106.297 41.3249 106.297 42.8223C106.297 43.929 106.147 44.9349 105.848 45.8398C105.548 46.7448 105.099 47.5293 104.5 48.1934C103.901 48.8574 103.165 49.3652 102.293 49.7168C101.421 50.0684 100.421 50.2441 99.2949 50.2441C98.1751 50.2441 97.1725 50.0651 96.2871 49.707C95.4017 49.3424 94.6628 48.8314 94.0703 48.1738C93.4779 47.5163 93.0286 46.7253 92.7227 45.8008C92.4232 44.8763 92.2734 43.877 92.2734 42.8027C92.2734 41.7025 92.4297 40.6934 92.7422 39.7754C93.0612 38.8574 93.5202 38.0762 94.1191 37.4316C94.7181 36.7871 95.4473 36.2956 96.3066 35.957C97.166 35.612 98.1426 35.4395 99.2363 35.4395ZM103.357 42.8027C103.357 41.7546 103.188 40.8464 102.85 40.0781C102.511 39.3099 102.026 38.7305 101.395 38.3398C100.77 37.9427 100.05 37.7441 99.2363 37.7441C98.6569 37.7441 98.1198 37.8548 97.625 38.0762C97.1367 38.291 96.7135 38.6068 96.3555 39.0234C96.0039 39.4401 95.724 39.974 95.5156 40.625C95.3138 41.2695 95.2129 41.9954 95.2129 42.8027C95.2129 43.6165 95.3138 44.3522 95.5156 45.0098C95.724 45.6673 96.0137 46.2142 96.3848 46.6504C96.7624 47.0801 97.1921 47.4023 97.6738 47.6172C98.1621 47.832 98.696 47.9395 99.2754 47.9395C100.018 47.9395 100.698 47.7539 101.316 47.3828C101.941 47.0117 102.436 46.4388 102.801 45.6641C103.172 44.8893 103.357 43.9355 103.357 42.8027ZM108.895 48.4766V37.1973C108.895 36.6113 109.028 36.1719 109.295 35.8789C109.562 35.5859 109.907 35.4395 110.33 35.4395C110.766 35.4395 111.118 35.5859 111.385 35.8789C111.658 36.1654 111.795 36.6048 111.795 37.1973V48.4766C111.795 49.069 111.658 49.5117 111.385 49.8047C111.118 50.0977 110.766 50.2441 110.33 50.2441C109.913 50.2441 109.568 50.0977 109.295 49.8047C109.028 49.5052 108.895 49.0625 108.895 48.4766ZM118.826 37.1777L124.402 45.6152V37.0996C124.402 36.5462 124.52 36.1328 124.754 35.8594C124.995 35.5794 125.317 35.4395 125.721 35.4395C126.137 35.4395 126.466 35.5794 126.707 35.8594C126.948 36.1328 127.068 36.5462 127.068 37.0996V48.3594C127.068 49.6159 126.548 50.2441 125.506 50.2441C125.245 50.2441 125.011 50.2051 124.803 50.127C124.594 50.0553 124.399 49.9382 124.217 49.7754C124.035 49.6126 123.865 49.4238 123.709 49.209C123.553 48.9876 123.396 48.763 123.24 48.5352L117.801 40.1953V48.584C117.801 49.1309 117.674 49.5443 117.42 49.8242C117.166 50.1042 116.84 50.2441 116.443 50.2441C116.033 50.2441 115.704 50.1042 115.457 49.8242C115.21 49.5378 115.086 49.1243 115.086 48.584V37.5391C115.086 37.0703 115.138 36.7025 115.242 36.4355C115.366 36.1426 115.571 35.9049 115.857 35.7227C116.144 35.5339 116.453 35.4395 116.785 35.4395C117.046 35.4395 117.267 35.4818 117.449 35.5664C117.638 35.651 117.801 35.765 117.938 35.9082C118.081 36.0514 118.224 36.237 118.367 36.4648C118.517 36.6927 118.67 36.9303 118.826 37.1777ZM144.539 38.0762H141.375V48.4766C141.375 49.0755 141.242 49.5215 140.975 49.8145C140.708 50.1009 140.363 50.2441 139.939 50.2441C139.51 50.2441 139.158 50.0977 138.885 49.8047C138.618 49.5117 138.484 49.069 138.484 48.4766V38.0762H135.32C134.826 38.0762 134.458 37.9688 134.217 37.7539C133.976 37.5326 133.855 37.2428 133.855 36.8848C133.855 36.5137 133.979 36.2207 134.227 36.0059C134.48 35.791 134.845 35.6836 135.32 35.6836H144.539C145.04 35.6836 145.411 35.7943 145.652 36.0156C145.9 36.237 146.023 36.5267 146.023 36.8848C146.023 37.2428 145.9 37.5326 145.652 37.7539C145.405 37.9688 145.034 38.0762 144.539 38.0762ZM150.662 37.1973V41.2988H156.922V37.1973C156.922 36.6113 157.052 36.1719 157.312 35.8789C157.579 35.5859 157.928 35.4395 158.357 35.4395C158.794 35.4395 159.145 35.5859 159.412 35.8789C159.686 36.1654 159.822 36.6048 159.822 37.1973V48.4766C159.822 49.069 159.686 49.5117 159.412 49.8047C159.139 50.0977 158.787 50.2441 158.357 50.2441C157.921 50.2441 157.573 50.0977 157.312 49.8047C157.052 49.5052 156.922 49.0625 156.922 48.4766V43.6621H150.662V48.4766C150.662 49.069 150.525 49.5117 150.252 49.8047C149.979 50.0977 149.627 50.2441 149.197 50.2441C148.761 50.2441 148.413 50.0977 148.152 49.8047C147.892 49.5052 147.762 49.0625 147.762 48.4766V37.1973C147.762 36.6113 147.889 36.1719 148.143 35.8789C148.403 35.5859 148.755 35.4395 149.197 35.4395C149.633 35.4395 149.985 35.5859 150.252 35.8789C150.525 36.1654 150.662 36.6048 150.662 37.1973ZM172.371 37.9199H165.838V41.4355H171.854C172.296 41.4355 172.625 41.5365 172.84 41.7383C173.061 41.9336 173.172 42.194 173.172 42.5195C173.172 42.8451 173.064 43.112 172.85 43.3203C172.635 43.5221 172.303 43.623 171.854 43.623H165.838V47.6953H172.596C173.051 47.6953 173.393 47.8027 173.621 48.0176C173.855 48.2259 173.973 48.5059 173.973 48.8574C173.973 49.196 173.855 49.4727 173.621 49.6875C173.393 49.8958 173.051 50 172.596 50H164.715C164.083 50 163.628 49.86 163.348 49.5801C163.074 49.3001 162.938 48.8477 162.938 48.2227V37.4609C162.938 37.0443 162.999 36.7057 163.123 36.4453C163.247 36.1784 163.439 35.9863 163.699 35.8691C163.966 35.7454 164.305 35.6836 164.715 35.6836H172.371C172.833 35.6836 173.175 35.7878 173.396 35.9961C173.624 36.1979 173.738 36.4648 173.738 36.7969C173.738 37.1354 173.624 37.4089 173.396 37.6172C173.175 37.819 172.833 37.9199 172.371 37.9199ZM186.834 44.4238H184.178V48.4766C184.178 49.056 184.041 49.4954 183.768 49.7949C183.494 50.0944 183.149 50.2441 182.732 50.2441C182.296 50.2441 181.945 50.0977 181.678 49.8047C181.411 49.5052 181.277 49.069 181.277 48.4961V37.4609C181.277 36.8229 181.424 36.3672 181.717 36.0938C182.01 35.8203 182.475 35.6836 183.113 35.6836H186.834C187.934 35.6836 188.781 35.7682 189.373 35.9375C189.959 36.1003 190.464 36.3704 190.887 36.748C191.316 37.1257 191.642 37.5879 191.863 38.1348C192.085 38.6816 192.195 39.2969 192.195 39.9805C192.195 41.4388 191.746 42.5456 190.848 43.3008C189.949 44.0495 188.611 44.4238 186.834 44.4238ZM186.131 37.8613H184.178V42.2363H186.131C186.814 42.2363 187.384 42.1647 187.84 42.0215C188.302 41.8783 188.654 41.6439 188.895 41.3184C189.135 40.9928 189.256 40.5664 189.256 40.0391C189.256 39.4076 189.07 38.8932 188.699 38.4961C188.283 38.0729 187.426 37.8613 186.131 37.8613ZM202.02 48.3789L201.336 46.582H195.516L194.832 48.418C194.565 49.1341 194.337 49.6191 194.148 49.873C193.96 50.1204 193.65 50.2441 193.221 50.2441C192.856 50.2441 192.534 50.1107 192.254 49.8438C191.974 49.5768 191.834 49.2741 191.834 48.9355C191.834 48.7402 191.867 48.5384 191.932 48.3301C191.997 48.1217 192.104 47.832 192.254 47.4609L195.916 38.1641C196.02 37.8971 196.144 37.5781 196.287 37.207C196.437 36.8294 196.593 36.5169 196.756 36.2695C196.925 36.0221 197.143 35.8236 197.41 35.6738C197.684 35.5176 198.019 35.4395 198.416 35.4395C198.82 35.4395 199.155 35.5176 199.422 35.6738C199.695 35.8236 199.913 36.0189 200.076 36.2598C200.245 36.5007 200.385 36.7611 200.496 37.041C200.613 37.3145 200.76 37.6823 200.936 38.1445L204.676 47.3828C204.969 48.0859 205.115 48.597 205.115 48.916C205.115 49.248 204.975 49.554 204.695 49.834C204.422 50.1074 204.09 50.2441 203.699 50.2441C203.471 50.2441 203.276 50.2018 203.113 50.1172C202.951 50.0391 202.814 49.9316 202.703 49.7949C202.592 49.6517 202.472 49.4368 202.342 49.1504C202.218 48.8574 202.111 48.6003 202.02 48.3789ZM196.277 44.4043H200.555L198.396 38.4961L196.277 44.4043ZM211.15 43.877H210.135V48.4766C210.135 49.082 210.001 49.528 209.734 49.8145C209.467 50.1009 209.119 50.2441 208.689 50.2441C208.227 50.2441 207.869 50.0944 207.615 49.7949C207.361 49.4954 207.234 49.056 207.234 48.4766V37.4609C207.234 36.8359 207.374 36.3835 207.654 36.1035C207.934 35.8236 208.387 35.6836 209.012 35.6836H213.729C214.38 35.6836 214.936 35.7129 215.398 35.7715C215.861 35.8236 216.277 35.9342 216.648 36.1035C217.098 36.2923 217.495 36.5625 217.84 36.9141C218.185 37.2656 218.445 37.6758 218.621 38.1445C218.803 38.6068 218.895 39.0983 218.895 39.6191C218.895 40.6868 218.592 41.5397 217.986 42.1777C217.387 42.8158 216.476 43.2682 215.252 43.5352C215.766 43.8086 216.258 44.2122 216.727 44.7461C217.195 45.2799 217.612 45.8496 217.977 46.4551C218.348 47.054 218.634 47.5977 218.836 48.0859C219.044 48.5677 219.148 48.8997 219.148 49.082C219.148 49.2708 219.087 49.4596 218.963 49.6484C218.846 49.8307 218.683 49.974 218.475 50.0781C218.266 50.1888 218.025 50.2441 217.752 50.2441C217.426 50.2441 217.153 50.166 216.932 50.0098C216.71 49.86 216.518 49.668 216.355 49.4336C216.199 49.1992 215.984 48.8542 215.711 48.3984L214.549 46.4648C214.132 45.7552 213.758 45.2148 213.426 44.8438C213.1 44.4727 212.768 44.2188 212.43 44.082C212.091 43.9453 211.665 43.877 211.15 43.877ZM212.811 37.8613H210.135V41.7969H212.732C213.429 41.7969 214.015 41.7383 214.49 41.6211C214.965 41.4974 215.327 41.2923 215.574 41.0059C215.828 40.7129 215.955 40.3125 215.955 39.8047C215.955 39.4076 215.854 39.0592 215.652 38.7598C215.451 38.4538 215.171 38.2259 214.812 38.0762C214.474 37.9329 213.807 37.8613 212.811 37.8613ZM229.949 38.0762H226.785V48.4766C226.785 49.0755 226.652 49.5215 226.385 49.8145C226.118 50.1009 225.773 50.2441 225.35 50.2441C224.92 50.2441 224.568 50.0977 224.295 49.8047C224.028 49.5117 223.895 49.069 223.895 48.4766V38.0762H220.73C220.236 38.0762 219.868 37.9688 219.627 37.7539C219.386 37.5326 219.266 37.2428 219.266 36.8848C219.266 36.5137 219.389 36.2207 219.637 36.0059C219.891 35.791 220.255 35.6836 220.73 35.6836H229.949C230.451 35.6836 230.822 35.7943 231.062 36.0156C231.31 36.237 231.434 36.5267 231.434 36.8848C231.434 37.2428 231.31 37.5326 231.062 37.7539C230.815 37.9688 230.444 38.0762 229.949 38.0762ZM236.346 48.4766V43.9355L232.85 38.5156C232.544 38.0273 232.326 37.6465 232.195 37.373C232.072 37.0996 232.01 36.862 232.01 36.6602C232.01 36.3281 232.137 36.0417 232.391 35.8008C232.651 35.5599 232.97 35.4395 233.348 35.4395C233.745 35.4395 234.044 35.5534 234.246 35.7812C234.454 36.0026 234.764 36.4486 235.174 37.1191L237.85 41.4648L240.555 37.1191C240.717 36.8522 240.854 36.6276 240.965 36.4453C241.076 36.263 241.196 36.0938 241.326 35.9375C241.463 35.7747 241.613 35.651 241.775 35.5664C241.938 35.4818 242.137 35.4395 242.371 35.4395C242.736 35.4395 243.038 35.5599 243.279 35.8008C243.527 36.0352 243.65 36.3086 243.65 36.6211C243.65 36.875 243.589 37.1289 243.465 37.3828C243.341 37.6367 243.13 37.9883 242.83 38.4375L239.246 43.9355V48.4766C239.246 49.069 239.109 49.5117 238.836 49.8047C238.562 50.0977 238.214 50.2441 237.791 50.2441C237.361 50.2441 237.013 50.1009 236.746 49.8145C236.479 49.5215 236.346 49.0755 236.346 48.4766Z" fill="white"/>
<defs>
<filter id="filter0_ddiii" x="0" y="-2" width="324" height="91" filterUnits="userSpaceOnUse" color-interpolation-filters="sRGB">
<feFlood flood-opacity="0" result="BackgroundImageFix"/>
<feColorMatrix in="SourceAlpha" type="matrix" values="0 0 0 0 0 0 0 0 0 0 0 0 0 0 0 0 0 0 127 0" result="hardAlpha"/>
<feOffset dy="2"/>
<feGaussianBlur stdDeviation="6"/>
<feColorMatrix type="matrix" values="0 0 0 0 0.396126 0 0 0 0 0.42655 0 0 0 0 0.456975 0 0 0 0.164855 0"/>
<feBlend mode="normal" in2="BackgroundImageFix" result="effect1_dropShadow"/>
<feColorMatrix in="SourceAlpha" type="matrix" values="0 0 0 0 0 0 0 0 0 0 0 0 0 0 0 0 0 0 127 0" result="hardAlpha"/>
<feOffset dy="4"/>
<feGaussianBlur stdDeviation="3"/>
<feColorMatrix type="matrix" values="0 0 0 0 0.654902 0 0 0 0 0.658824 0 0 0 0 1 0 0 0 0.780048 0"/>
<feBlend mode="normal" in2="effect1_dropShadow" result="effect2_dropShadow"/>
<feBlend mode="normal" in="SourceGraphic" in2="effect2_dropShadow" result="shape"/>
<feColorMatrix in="SourceAlpha" type="matrix" values="0 0 0 0 0 0 0 0 0 0 0 0 0 0 0 0 0 0 127 0" result="hardAlpha"/>
<feOffset dy="12"/>
<feGaussianBlur stdDeviation="11"/>
<feComposite in2="hardAlpha" operator="arithmetic" k2="-1" k3="1"/>
<feColorMatrix type="matrix" values="0 0 0 0 1 0 0 0 0 1 0 0 0 0 1 0 0 0 0.5 0"/>
<feBlend mode="normal" in2="shape" result="effect3_innerShadow"/>
<feColorMatrix in="SourceAlpha" type="matrix" values="0 0 0 0 0 0 0 0 0 0 0 0 0 0 0 0 0 0 127 0" result="hardAlpha"/>
<feOffset dy="-12"/>
<feGaussianBlur stdDeviation="6"/>
<feComposite in2="hardAlpha" operator="arithmetic" k2="-1" k3="1"/>
<feColorMatrix type="matrix" values="0 0 0 0 0.432564 0 0 0 0 0.436588 0 0 0 0 0.975798 0 0 0 1 0"/>
<feBlend mode="normal" in2="effect3_innerShadow" result="effect4_innerShadow"/>
<feColorMatrix in="SourceAlpha" type="matrix" values="0 0 0 0 0 0 0 0 0 0 0 0 0 0 0 0 0 0 127 0" result="hardAlpha"/>
<feOffset dy="-2"/>
<feGaussianBlur stdDeviation="1"/>
<feComposite in2="hardAlpha" operator="arithmetic" k2="-1" k3="1"/>
<feColorMatrix type="matrix" values="0 0 0 0 1 0 0 0 0 1 0 0 0 0 1 0 0 0 0.691625 0"/>
<feBlend mode="normal" in2="effect4_innerShadow" result="effect5_innerShadow"/>
</filter>
</defs>
</svg>
