<svg width="54" height="54" viewBox="0 0 54 54" fill="none" xmlns="http://www.w3.org/2000/svg">
<path d="M43.6895 1.25558L27.0002 17.9455C21.4355 12.3843 15.8718 6.81951 10.3108 1.25558C-1.74647 -0.822993 -0.822996 -1.7465 1.2555 10.3131C6.81739 15.8724 12.3839 21.4382 17.943 27.0003L1.2555 43.6884C-0.822996 55.7462 -1.74647 54.8227 10.3108 52.745C15.8727 47.1811 21.4365 41.6162 27.0002 36.0541C32.5648 41.6181 38.1239 47.1811 43.6895 52.745C55.7459 54.8227 54.8224 55.7462 52.7457 43.6911C47.1811 38.1254 41.6165 32.5633 36.0528 27.0003C41.6174 21.4364 47.182 15.8715 52.7457 10.3103C54.8224 -1.7465 55.7459 -0.822993 43.6895 1.25558Z" fill="#FF0000"/>
</svg>
