<svg width="93" height="63" viewBox="0 0 93 63" fill="none" xmlns="http://www.w3.org/2000/svg">
<path d="M81.1584 33.262L79.4285 15.6718L67.4637 20.6282C61.5534 19.9479 59.9677 19.9479 55.3548 18.3929C52.6159 17.5183 49.1562 18.1014 47.4264 18.7817C44.8316 16.9352 27.9656 19.6563 26.0916 20.2394C21.0462 19.2676 13.5502 15.2831 13.5502 15.2831L11.0996 35.2056L14.4151 35.7887C14.7035 36.469 15.5684 38.1211 15.5684 38.1211C12.397 40.8422 16.145 44.0493 19.7488 42.9803C18.1631 45.7014 22.3436 48.2281 25.6591 46.4789C25.2267 49.0056 29.1188 50.8521 32.0019 49.1028C30.7045 52.1155 35.7499 54.3507 38.7771 51.9211C40.9394 52.8929 42.9576 53.6704 44.6874 54.0591C47.7147 54.9338 51.0302 52.9901 50.4536 50.5605C53.9133 53.2817 59.1028 50.6577 57.9496 47.6451C61.8417 49.6859 66.5988 46.2845 64.1482 43.2718C68.4728 44.9239 72.2208 40.4535 68.0404 37.538L81.1584 33.262Z" fill="#FFE1BD"/>
<path d="M20.0371 36.0803C22.1994 36.7606 23.641 38.9958 21.3345 40.9395L20.3254 41.7169C19.1722 42.6888 18.019 42.9803 16.8657 42.9803C17.7306 43.2719 18.7397 43.2719 19.7488 42.9803C19.893 42.6888 20.1813 42.3 20.6137 42.0085L21.6228 41.231C22.1994 40.7451 22.9202 40.3564 23.4968 40.162C24.65 38.1212 22.6319 36.1775 20.0371 36.0803Z" fill="#E6B796"/>
<path d="M36.6146 45.7015C38.9211 46.0902 40.6509 48.1311 38.9211 50.3663L38.0561 51.2409C37.1912 52.3099 36.038 52.7959 34.8848 52.893C36.4705 53.1846 38.2003 52.7959 39.3535 51.3381L40.2185 50.4635C42.2366 47.7423 39.4977 45.5071 36.6146 45.7015Z" fill="#E6B796"/>
<path d="M26.38 44.924L28.6865 42.4944C28.5423 41.1339 26.8125 39.9677 25.0826 39.8705C27.2449 40.5508 28.6865 42.786 26.38 44.7296L25.3709 45.5071C24.2177 46.4789 23.0645 46.7705 21.7671 46.7705C22.9203 47.1592 24.2177 47.062 25.5151 46.4789C25.6592 45.993 25.9475 45.4099 26.38 44.924Z" fill="#E6B796"/>
<path d="M32.5784 40.5508C34.8849 41.0367 36.4706 43.1747 34.4524 45.3128L31.7135 48.2283C30.7044 49.2973 29.5512 49.686 28.3979 49.686C29.8395 49.9776 31.7135 49.686 33.0109 48.3254L35.7498 45.41C38.0563 42.8832 35.4615 40.4536 32.5784 40.5508Z" fill="#E6B796"/>
<path d="M51.7511 42.9803C51.8952 42.9803 53.6251 42.7859 54.2017 42.7859C52.0394 41.3282 48.5797 42.4944 46.5615 41.7169C48.0031 43.369 51.0303 42.9803 51.3186 42.9803L54.7783 45.993C57.6614 48.4226 55.3549 51.2409 52.3277 51.5324C55.4991 52.2127 58.6704 49.9775 57.6614 47.5479C57.5172 47.4507 51.7511 42.9803 51.7511 42.9803Z" fill="#E6B796"/>
<path d="M55.2108 37.3437C55.2108 37.3437 57.3731 37.0522 59.2471 37.0522C57.0848 35.886 53.7692 36.955 51.6069 35.9832C52.4719 37.2465 54.3459 37.2465 54.9225 37.2465L61.5536 42.3972C64.5808 44.7296 62.4185 47.5479 59.3912 48.0339C62.8509 48.7141 66.1665 45.7015 64.0042 43.0775C62.5626 42.786 55.2108 37.3437 55.2108 37.3437Z" fill="#E6B796"/>
<path d="M50.5978 48.5198C48.4355 47.3536 45.4082 48.2282 44.1108 47.6451C44.8316 49.0057 47.5705 48.7142 47.7147 48.7142C50.1653 51.2409 47.5705 53.8649 44.5433 54.0592C47.5705 54.9339 50.8861 52.9902 50.3095 50.5606C50.1653 50.4634 48.1471 48.7142 48.1471 48.7142C48.4355 48.617 50.0211 48.5198 50.5978 48.5198Z" fill="#E6B796"/>
<path d="M79.5725 31.6099C79.5725 31.6099 77.1219 35.0113 67.6078 36.8578C66.3104 35.7888 63.5715 33.6507 60.4001 31.8043C62.4182 31.5127 63.4273 30.4437 65.013 30.2493C64.4364 29.8606 62.4182 30.055 60.8326 30.4437C57.9495 31.124 51.3184 28.0141 51.3184 28.0141L45.8406 28.5C41.9484 31.0268 33.5875 32.3874 33.155 28.5C32.8667 25.7789 41.6601 23.9324 44.399 22.1831C47.8587 19.9479 50.8859 17.1296 56.5079 19.0733C61.1209 20.6282 62.9949 20.531 69.3376 21.3085C71.4999 21.6 72.9415 22.2803 74.5272 23.7381C73.2298 21.6972 71.3558 20.8226 69.0493 20.531L79.1401 17.324L79.2842 15.6719L67.3195 20.2395C61.8416 19.6564 59.8235 19.6564 55.3547 18.1986C52.4716 17.2268 50.1652 17.5184 48.2912 18.2958C44.8315 16.9353 42.8133 17.2268 41.5159 17.4212C37.4796 18.2958 30.9927 18.393 25.2266 19.9479C26.2356 20.1423 27.2447 20.3367 27.9655 20.3367C33.5875 19.1705 39.4978 19.2676 42.2367 18.5874C43.1016 18.393 44.8315 18.393 46.7055 19.0733C45.5522 19.7536 44.5432 20.531 43.3899 21.3085C40.651 23.0578 32.2901 25.5845 32.8667 28.7916C33.155 30.3465 36.3264 34.4282 46.8496 29.8606L51.3184 29.4719C51.3184 29.4719 59.5352 32.0958 67.1753 38.1212C70.2025 40.4536 68.3285 42.9803 65.3013 43.5634C69.1935 44.0493 72.509 40.3564 68.761 37.8296L77.8427 34.5254L79.5725 31.6099Z" fill="#E6B796"/>
<path d="M76.978 16.6437L81.7351 33.262L77.8429 34.4282C75.8248 30.8324 72.7975 22.1831 73.5183 18.0042L76.978 16.6437Z" fill="#3B946F"/>
<path d="M16.001 37.7324C15.2802 36.5662 14.8477 35.0112 14.8477 35.0112L11.2439 33.3591L10.9556 35.2056L14.127 35.7887C14.5594 36.7605 14.9919 37.538 15.5685 38.1211L16.001 37.7324Z" fill="#E6B796"/>
<path d="M8.79346 34.9141L16.5778 16.7408L20.1816 18.393C20.7582 21.1141 14.1271 33.5535 11.6765 35.4L8.79346 34.9141Z" fill="#3B946F"/>
<path d="M76.8345 16.5465C75.6812 17.0324 79.8617 33.8451 81.5915 33.3592C87.0694 31.7071 89.52 31.2211 89.52 31.2211V11.2014C89.3758 11.2014 86.0603 12.8535 76.8345 16.5465Z" fill="#47B892"/>
<path d="M2.8833 9.54932V34.331C2.8833 34.331 5.47807 34.6226 8.79361 35.1085C10.6676 35.4 17.4428 17.1296 17.0104 16.838C12.1091 14.6028 2.8833 9.54932 2.8833 9.54932Z" fill="#47B892"/>
</svg>
