<svg width="22" height="21" viewBox="0 0 22 21" fill="none" xmlns="http://www.w3.org/2000/svg">
<path stroke="currentColor" d="M1 7.37722C1 7.0269 1 6.85174 1.01462 6.70421C1.1556 5.28127 2.28127 4.1556 3.70421 4.01462C3.85174 4 4.03636 4 4.40558 4C4.54785 4 4.61899 4 4.67939 3.99634C5.45061 3.94963 6.12595 3.46288 6.41414 2.746C6.43671 2.68986 6.45781 2.62657 6.5 2.5C6.54219 2.37343 6.56329 2.31014 6.58586 2.254C6.87405 1.53712 7.54939 1.05037 8.32061 1.00366C8.38101 1 8.44772 1 8.58114 1H13.4189C13.5523 1 13.619 1 13.6794 1.00366C14.4506 1.05037 15.126 1.53712 15.4141 2.254C15.4367 2.31014 15.4578 2.37343 15.5 2.5C15.5422 2.62657 15.5633 2.68986 15.5859 2.746C15.874 3.46288 16.5494 3.94963 17.3206 3.99634C17.381 4 17.4521 4 17.5944 4C17.9636 4 18.1483 4 18.2958 4.01462C19.7187 4.1556 20.8444 5.28127 20.9854 6.70421C21 6.85174 21 7.0269 21 7.37722V15.2C21 16.8802 21 17.7202 20.673 18.362C20.3854 18.9265 19.9265 19.3854 19.362 19.673C18.7202 20 17.8802 20 16.2 20H5.8C4.11984 20 3.27976 20 2.63803 19.673C2.07354 19.3854 1.6146 18.9265 1.32698 18.362C1 17.7202 1 16.8802 1 15.2V7.37722Z" stroke-width="2" stroke-linecap="round" stroke-linejoin="round"/>
<path stroke="currentColor" d="M11 15.5C13.2091 15.5 15 13.7091 15 11.5C15 9.29086 13.2091 7.5 11 7.5C8.79086 7.5 7 9.29086 7 11.5C7 13.7091 8.79086 15.5 11 15.5Z" stroke="#9CA0AA" stroke-width="2" stroke-linecap="round" stroke-linejoin="round"/>
</svg>
