<svg width="24" height="20" viewBox="0 0 24 20" fill="none" xmlns="http://www.w3.org/2000/svg">
<path d="M19.0011 19H20.0115C20.9826 19 21.4682 19 21.7359 18.7975C21.9691 18.6211 22.1134 18.3515 22.1308 18.0596C22.1508 17.7246 21.8815 17.3205 21.3428 16.5125L18.3324 11.9969C17.8873 11.3292 17.6647 10.9954 17.3842 10.8791C17.1389 10.7773 16.8633 10.7773 16.618 10.8791C16.3375 10.9954 16.115 11.3292 15.6698 11.9969L14.9256 13.1132M19.0011 19L11.3166 7.90018C10.8747 7.26182 10.6537 6.94264 10.3777 6.83044C10.1362 6.73228 9.86599 6.73228 9.62454 6.83044C9.34852 6.94264 9.12755 7.26182 8.68561 7.90018L2.73932 16.4893C2.17629 17.3025 1.89478 17.7092 1.9108 18.0473C1.92476 18.3419 2.06798 18.6152 2.30219 18.7943C2.57112 19 3.06569 19 4.05482 19H19.0011ZM21.0011 4C21.0011 5.65685 19.658 7 18.0011 7C16.3443 7 15.0011 5.65685 15.0011 4C15.0011 2.34315 16.3443 1 18.0011 1C19.658 1 21.0011 2.34315 21.0011 4Z" stroke="#9CA0AA" stroke-width="2" stroke-linecap="round" stroke-linejoin="round"/>
</svg>
