<svg width="18" height="24" viewBox="0 0 18 24" fill="none" xmlns="http://www.w3.org/2000/svg">
<path id="Vector" d="M18 21.6852L14.4545 13.8719C14.4545 13.8719 15.2695 13.3334 15.574 13.1122C16.6441 12.3767 17.2886 11.3301 17.2921 10.0069V7.81744C17.2921 5.4214 15.8824 3.2311 13.6499 2.15906L9.15322 0L4.50255 2.23236V3.5343C4.64278 3.5343 4.64278 3.5343 4.50255 3.5343C2.14771 3.5343 0.239643 5.36726 0.239643 7.62753C0.239643 9.8878 2.14858 11.7207 4.50255 11.7207V12.4646L2.67082 13.2922C1.0256 14.0352 -0.0171368 15.6299 0.000213222 17.3754V21.9534L4.49778 23.9975L4.50299 24L8.76589 21.9534L13.2222 24L18 21.6852ZM9.15409 0.832137L13.3033 2.82461C15.2852 3.77628 16.517 5.6892 16.517 7.81703V10.0036C16.5144 11.0302 16.0447 11.8719 15.1225 12.5054L15.1138 12.5112L15.106 12.5171C14.8184 12.7257 14.0225 13.2526 14.0147 13.2576L13.489 13.6053L16.9967 21.3366L13.5992 22.9846L9.7839 14.7815C11.1836 14.9443 12.6414 13.5895 12.6414 12.1506V9.94819C12.6414 7.508 11.1801 5.28604 8.88603 4.2365L5.39087 2.63802L9.15409 0.832137ZM4.50342 19.3445C4.50342 17.7386 5.40215 16.2559 6.85652 15.4625L8.76198 14.4196L8.76632 14.4212V21.1233L4.50342 23.1699V19.3445ZM1.01519 7.62878C1.01519 5.78208 2.57929 4.2794 4.50342 4.2794C6.42754 4.2794 7.99164 5.78125 7.99164 7.62878C7.99164 9.47631 6.42754 10.9782 4.50342 10.9782C2.5806 10.9773 1.01519 9.47548 1.01519 7.62878Z" fill="#9CA0AA"/>
</svg>
