<svg width="59" height="59" viewBox="0 0 59 59" fill="none" xmlns="http://www.w3.org/2000/svg">
<circle cx="29.1803" cy="29.6717" r="27.6803" stroke="white" stroke-width="3"/>
<path d="M18.1189 39.9199C18.1189 39.2461 18.3435 38.6992 18.7927 38.2793C19.2517 37.8594 19.823 37.6494 20.5066 37.6494C21.2 37.6494 21.7712 37.8594 22.2205 38.2793C22.6794 38.6992 22.9089 39.2461 22.9089 39.9199C22.9089 40.584 22.6843 41.126 22.2351 41.5459C21.7859 41.9561 21.2097 42.1611 20.5066 42.1611C19.8132 42.1611 19.2419 41.9561 18.7927 41.5459C18.3435 41.126 18.1189 40.584 18.1189 39.9199ZM26.8494 39.9199C26.8494 39.2461 27.074 38.6992 27.5232 38.2793C27.9822 37.8594 28.5535 37.6494 29.2371 37.6494C29.9304 37.6494 30.5017 37.8594 30.9509 38.2793C31.4099 38.6992 31.6394 39.2461 31.6394 39.9199C31.6394 40.584 31.4148 41.126 30.9656 41.5459C30.5164 41.9561 29.9402 42.1611 29.2371 42.1611C28.5437 42.1611 27.9724 41.9561 27.5232 41.5459C27.074 41.126 26.8494 40.584 26.8494 39.9199ZM35.5798 39.9199C35.5798 39.2461 35.8044 38.6992 36.2537 38.2793C36.7126 37.8594 37.2839 37.6494 37.9675 37.6494C38.6609 37.6494 39.2322 37.8594 39.6814 38.2793C40.1404 38.6992 40.3699 39.2461 40.3699 39.9199C40.3699 40.584 40.1453 41.126 39.696 41.5459C39.2468 41.9561 38.6707 42.1611 37.9675 42.1611C37.2742 42.1611 36.7029 41.9561 36.2537 41.5459C35.8044 41.126 35.5798 40.584 35.5798 39.9199Z" fill="white"/>
</svg>
