<svg width="59" height="59" viewBox="0 0 59 59" fill="none" xmlns="http://www.w3.org/2000/svg">
<circle cx="29.1803" cy="29.1803" r="27.6803" stroke="white" stroke-width="3"/>
<path d="M32.0859 35.6484H26.4609L25.6641 12H32.8828L32.0859 35.6484ZM29.2734 39.3516C30.4141 39.3516 31.3281 39.6875 32.0156 40.3594C32.7188 41.0312 33.0703 41.8906 33.0703 42.9375C33.0703 43.9688 32.7188 44.8203 32.0156 45.4922C31.3281 46.1641 30.4141 46.5 29.2734 46.5C28.1484 46.5 27.2344 46.1641 26.5312 45.4922C25.8438 44.8203 25.5 43.9688 25.5 42.9375C25.5 41.9062 25.8438 41.0547 26.5312 40.3828C27.2344 39.6953 28.1484 39.3516 29.2734 39.3516Z" fill="white"/>
</svg>
