<?xml version="1.0" standalone="no"?>
<!DOCTYPE svg PUBLIC "-//W3C//DTD SVG 20010904//EN"
 "http://www.w3.org/TR/2001/REC-SVG-20010904/DTD/svg10.dtd">
<svg version="1.0" xmlns="http://www.w3.org/2000/svg"
 width="700.000000pt" height="700.000000pt" viewBox="0 0 700.000000 700.000000"
 preserveAspectRatio="xMidYMid meet">
<metadata>
Created by potrace 1.14, written by Peter Selinger 2001-2017
</metadata>
<g transform="translate(0.000000,700.000000) scale(0.100000,-0.100000)"
fill="#000000" stroke="none">
<path d="M3480 6986 c-60 -33 -176 -89 -182 -88 -3 1 -12 -5 -18 -13 -7 -8
-20 -15 -29 -15 -9 0 -22 -5 -27 -10 -6 -6 -60 -34 -120 -63 -60 -29 -116 -57
-124 -62 -24 -15 -155 -77 -155 -73 0 1 -13 -6 -30 -18 -16 -11 -50 -29 -75
-39 -25 -10 -52 -25 -61 -32 -8 -7 -18 -13 -21 -13 -9 0 -119 -54 -283 -138
l-149 -77 1 -132 0 -133 -31 -1 c-47 -1 -127 -7 -161 -13 -84 -14 -107 -19
-195 -46 -257 -79 -506 -256 -668 -475 -60 -82 -141 -234 -172 -325 -12 -36
-25 -72 -28 -80 -6 -18 -7 -23 -31 -135 -14 -71 -18 -125 -16 -250 2 -88 6
-171 9 -185 4 -14 9 -40 12 -59 3 -19 10 -45 15 -58 5 -13 7 -23 4 -23 -9 0
58 -170 96 -245 88 -170 181 -287 334 -420 39 -33 187 -133 211 -141 11 -4 26
-13 35 -21 9 -7 25 -15 37 -18 11 -2 33 -10 49 -18 94 -49 286 -90 449 -98
l50 -2 1 -48 c1 -26 -4 -52 -10 -56 -7 -5 -53 -28 -103 -51 -103 -47 -290
-135 -409 -193 -153 -74 -328 -208 -421 -323 -21 -27 -44 -54 -50 -60 -19 -20
-89 -130 -121 -191 -54 -103 -110 -269 -128 -380 -15 -95 -17 -176 -18 -853
l-2 -714 50 -23 c44 -20 147 -69 550 -260 50 -23 131 -62 180 -85 50 -23 131
-62 180 -85 50 -24 138 -66 197 -94 l108 -51 372 186 c205 101 382 190 393
196 49 28 294 148 301 148 5 0 20 9 34 20 14 11 32 20 41 20 9 0 22 7 29 14
14 18 11 19 205 -74 196 -95 359 -172 470 -225 90 -43 247 -118 447 -214 160
-77 147 -74 214 -39 172 89 434 218 442 218 6 0 12 4 14 8 2 4 102 58 223 118
712 357 705 353 698 372 -3 9 -9 22 -13 27 -4 6 -11 21 -15 35 -4 14 -23 59
-43 100 -19 41 -42 93 -52 115 -24 54 -37 86 -115 260 -92 209 -93 211 -109
248 -8 17 -25 57 -39 87 -23 51 -253 571 -334 755 -19 44 -53 118 -74 163 -21
46 -39 87 -39 90 0 3 -9 24 -19 46 -11 23 -29 62 -40 89 -12 26 -31 68 -42 95
-43 94 -59 134 -59 146 0 6 37 39 83 73 203 152 274 212 362 314 53 61 175
259 159 259 -4 0 -2 6 3 13 23 28 67 194 78 293 6 50 7 891 1 924 -2 14 -7 52
-11 85 -8 71 -7 66 -35 185 -103 433 -371 828 -738 1083 -43 29 -97 65 -122
79 -94 53 -220 117 -220 112 0 -4 -6 -1 -14 5 -13 11 -1130 571 -1138 571 -2
0 -14 -7 -28 -14z m643 -607 c331 -166 610 -308 620 -317 9 -8 17 -11 17 -6 0
5 4 4 8 -1 4 -6 27 -24 52 -40 25 -16 47 -32 50 -35 3 -3 30 -24 60 -47 112
-85 265 -256 337 -377 19 -34 43 -72 52 -86 8 -14 16 -27 17 -30 0 -3 15 -36
33 -75 18 -38 34 -77 36 -85 2 -8 13 -38 23 -66 17 -46 29 -90 48 -174 7 -30
10 -48 21 -125 10 -74 11 -927 0 -975 -31 -146 -88 -272 -161 -358 -40 -46
-141 -141 -186 -173 -25 -18 -50 -37 -56 -43 -16 -16 -144 -112 -194 -146 -12
-8 -38 -27 -58 -42 -19 -16 -38 -28 -41 -28 -3 0 -19 -12 -35 -26 l-28 -25 47
-107 c26 -59 51 -111 56 -117 5 -5 9 -14 9 -21 0 -7 15 -45 34 -86 19 -40 95
-212 170 -383 75 -170 145 -328 155 -350 27 -57 53 -116 137 -308 40 -92 83
-188 95 -215 23 -51 45 -100 79 -177 12 -27 30 -68 40 -90 10 -22 25 -56 33
-75 8 -19 35 -80 60 -135 25 -55 52 -117 60 -137 l16 -37 -87 -43 c-48 -23
-88 -46 -90 -50 -2 -5 -10 -8 -17 -8 -13 0 -74 -29 -85 -40 -8 -8 -654 -330
-661 -330 -4 0 -26 44 -49 98 -24 53 -58 129 -75 167 -18 39 -49 108 -70 155
-20 47 -53 118 -71 158 -19 41 -34 75 -34 77 0 2 -18 43 -40 90 -22 47 -40 88
-40 90 0 2 -16 38 -35 80 -19 41 -34 78 -34 80 0 3 -11 27 -24 53 -29 56 -87
181 -87 187 0 3 -14 35 -31 72 -56 124 -46 101 -214 478 -59 132 -113 254
-120 270 -72 156 -103 230 -100 235 2 3 21 7 42 8 179 12 376 131 524 319 33
41 88 143 108 199 46 130 48 154 45 624 -3 428 -4 479 -18 545 -4 17 -9 46
-12 65 -3 19 -14 69 -25 110 -11 41 -21 82 -23 90 -20 77 -116 298 -161 370
-12 19 -23 38 -24 43 -1 7 -91 138 -100 147 -3 3 -22 25 -41 50 -32 42 -72 88
-130 149 -57 59 -200 176 -289 236 -81 53 -345 189 -561 288 -30 14 -120 56
-200 95 -80 38 -194 93 -255 122 l-110 52 40 21 c341 174 923 466 933 466 7 1
283 -135 615 -300z m-1758 -593 c17 -3 40 -9 53 -11 12 -3 31 -7 42 -10 11 -3
28 -7 38 -9 9 -2 49 -17 87 -32 325 -130 564 -420 628 -762 17 -86 19 -272 6
-356 -13 -76 -67 -246 -86 -268 -8 -9 -15 -23 -17 -31 -1 -8 -9 -26 -19 -40
-9 -15 -17 -31 -17 -36 0 -5 -3 -11 -7 -13 -5 -1 -21 -23 -38 -47 -46 -68
-173 -190 -253 -244 -66 -44 -200 -113 -241 -123 -9 -2 -39 -10 -68 -18 -87
-24 -113 -28 -243 -32 -179 -5 -311 23 -464 98 -203 100 -352 240 -455 430
-43 78 -94 215 -105 279 -3 19 -8 45 -11 59 -10 43 -12 217 -3 283 11 83 39
196 49 203 5 3 9 12 9 20 0 8 9 34 20 56 11 23 20 47 20 54 0 7 4 14 8 16 4 2
21 26 36 53 50 88 159 210 241 270 22 17 42 32 45 35 31 32 186 108 284 139
69 22 94 28 171 37 22 3 41 7 42 8 6 5 219 -2 248 -8z m975 -3965 l0 -939
-562 -281 c-308 -155 -563 -281 -565 -281 -7 0 3 1213 10 1240 4 13 9 41 12
62 11 70 72 247 106 308 5 8 13 24 18 36 11 24 72 126 81 134 3 3 24 30 46 60
23 30 67 80 97 111 54 56 190 169 202 169 4 0 21 11 39 25 18 14 35 25 39 25
3 0 40 20 81 45 42 25 81 45 85 45 5 0 11 3 13 8 2 4 19 15 38 26 41 22 88 49
185 104 39 23 71 41 73 41 1 1 2 -422 2 -938z"/>
</g>
</svg>
