<svg width="20" height="20" viewBox="0 0 20 20" fill="none" xmlns="http://www.w3.org/2000/svg">
<path d="M14.2629 12.7986C14.0374 13.0537 13.8006 13.3056 13.5531 13.5531C9.97329 17.1329 5.48837 18.452 3.53575 16.4994C2.19708 15.1607 2.39616 12.6318 3.80722 10.0204M5.74155 7.27121C5.97631 7.00428 6.22326 6.74079 6.48203 6.48203C10.0618 2.90222 14.5468 1.58313 16.4994 3.53575C17.839 4.87534 17.6387 7.40679 16.225 10.0202M13.5531 6.48203C17.1329 10.0618 18.452 14.5468 16.4994 16.4994C14.5468 18.452 10.0618 17.1329 6.48203 13.5531C2.90222 9.97329 1.58313 5.48837 3.53575 3.53575C5.48837 1.58313 9.97329 2.90222 13.5531 6.48203ZM10.8335 10.0002C10.8335 10.4604 10.4605 10.8335 10.0002 10.8335C9.53998 10.8335 9.16688 10.4604 9.16688 10.0002C9.16688 9.53992 9.53998 9.16682 10.0002 9.16682C10.4605 9.16682 10.8335 9.53992 10.8335 10.0002Z" stroke="#9CA0AA" stroke-width="1.75" stroke-linecap="round" stroke-linejoin="round"/>
</svg>
