<svg width="20" height="20" viewBox="0 0 20 20" fill="none" xmlns="http://www.w3.org/2000/svg">
<path d="M1.66602 6.98134C1.66602 6.68941 1.66602 6.54345 1.6782 6.4205C1.79568 5.23472 2.73374 4.29666 3.91952 4.17917C4.04247 4.16699 4.19631 4.16699 4.504 4.16699C4.62256 4.16699 4.68184 4.16699 4.73217 4.16394C5.37486 4.12502 5.93764 3.71939 6.1778 3.12199C6.19661 3.07521 6.21419 3.02247 6.24935 2.91699C6.28451 2.81152 6.30209 2.75878 6.32089 2.71199C6.56106 2.11459 7.12384 1.70896 7.76653 1.67004C7.81686 1.66699 7.87245 1.66699 7.98363 1.66699H12.0151C12.1262 1.66699 12.1818 1.66699 12.2322 1.67004C12.8749 1.70896 13.4376 2.11459 13.6778 2.71199C13.6966 2.75878 13.7142 2.81152 13.7493 2.91699C13.7845 3.02247 13.8021 3.07521 13.8209 3.12199C14.0611 3.71939 14.6238 4.12502 15.2665 4.16394C15.3169 4.16699 15.3761 4.16699 15.4947 4.16699C15.8024 4.16699 15.9562 4.16699 16.0792 4.17917C17.265 4.29666 18.203 5.23472 18.3205 6.4205C18.3327 6.54345 18.3327 6.68941 18.3327 6.98134V13.5003C18.3327 14.9005 18.3327 15.6005 18.0602 16.1353C17.8205 16.6057 17.4381 16.9882 16.9677 17.2278C16.4329 17.5003 15.7328 17.5003 14.3327 17.5003H5.66602C4.26588 17.5003 3.56582 17.5003 3.03104 17.2278C2.56063 16.9882 2.17818 16.6057 1.9385 16.1353C1.66602 15.6005 1.66602 14.9005 1.66602 13.5003V6.98134Z" stroke="#9CA0AA" stroke-width="1.75" stroke-linecap="round" stroke-linejoin="round"/>
<path d="M9.99935 13.7503C11.8403 13.7503 13.3327 12.2579 13.3327 10.417C13.3327 8.57604 11.8403 7.08366 9.99935 7.08366C8.1584 7.08366 6.66602 8.57604 6.66602 10.417C6.66602 12.2579 8.1584 13.7503 9.99935 13.7503Z" stroke="#9CA0AA" stroke-width="1.75" stroke-linecap="round" stroke-linejoin="round"/>
</svg>
