<?xml version="1.0" encoding="UTF-8" standalone="no"?>
<svg
   xmlns:dc="http://purl.org/dc/elements/1.1/"
   xmlns:cc="http://creativecommons.org/ns#"
   xmlns:rdf="http://www.w3.org/1999/02/22-rdf-syntax-ns#"
   xmlns:svg="http://www.w3.org/2000/svg"
   xmlns="http://www.w3.org/2000/svg"
   viewBox="0 0 561.14038 231.39632"
   height="231.39632"
   width="561.14038"
   xml:space="preserve"
   id="svg10"
   version="1.1"><metadata
     id="metadata16"><rdf:RDF><cc:Work
         rdf:about=""><dc:format>image/svg+xml</dc:format><dc:type
           rdf:resource="http://purl.org/dc/dcmitype/StillImage" /><dc:title></dc:title></cc:Work></rdf:RDF></metadata><defs
     id="defs14"><clipPath
       id="clipPath40"
       clipPathUnits="userSpaceOnUse"><path
         id="path38"
         d="M 0,1080 H 1920 V 0 H 0 Z" /></clipPath><linearGradient
       id="linearGradient76"
       spreadMethod="pad"
       gradientTransform="matrix(16.47946,16.47946,16.47946,-16.47946,515.16144,143.56116)"
       gradientUnits="userSpaceOnUse"
       y2="0"
       x2="1"
       y1="0"
       x1="0"><stop
         id="stop66"
         offset="0"
         style="stop-opacity:1;stop-color:#ffe900" /><stop
         id="stop68"
         offset="0.562788"
         style="stop-opacity:1;stop-color:#ff13bd" /><stop
         id="stop70"
         offset="0.703243"
         style="stop-opacity:1;stop-color:#ff13bd" /><stop
         id="stop72"
         offset="0.999917"
         style="stop-opacity:1;stop-color:#2a0c52" /><stop
         id="stop74"
         offset="1"
         style="stop-opacity:1;stop-color:#2a0c52" /></linearGradient><linearGradient
       id="linearGradient106"
       spreadMethod="pad"
       gradientTransform="matrix(-34.290596,-144.48659,-144.48659,34.290596,678.14227,426.22116)"
       gradientUnits="userSpaceOnUse"
       y2="0"
       x2="1"
       y1="0"
       x1="0"><stop
         id="stop92"
         offset="0"
         style="stop-opacity:1;stop-color:#ffe900" /><stop
         id="stop94"
         offset="0.0460893"
         style="stop-opacity:1;stop-color:#ffe900" /><stop
         id="stop96"
         offset="0.33199144"
         style="stop-opacity:1;stop-color:#fd3dbf" /><stop
         id="stop98"
         offset="0.374365"
         style="stop-opacity:1;stop-color:#fd3dbf" /><stop
         id="stop100"
         offset="0.83192314"
         style="stop-opacity:1;stop-color:#28094d" /><stop
         id="stop102"
         offset="0.99216"
         style="stop-opacity:1;stop-color:#28094d" /><stop
         id="stop104"
         offset="1"
         style="stop-opacity:1;stop-color:#28094d" /></linearGradient><linearGradient
       id="linearGradient130"
       spreadMethod="pad"
       gradientTransform="matrix(-152.06047,44.19492,44.19492,152.06047,824.70123,204.98512)"
       gradientUnits="userSpaceOnUse"
       y2="0"
       x2="1"
       y1="0"
       x1="0"><stop
         id="stop122"
         offset="0"
         style="stop-opacity:1;stop-color:#2ef6fd" /><stop
         id="stop124"
         offset="0.0795261"
         style="stop-opacity:1;stop-color:#2ef6fd" /><stop
         id="stop126"
         offset="0.85824906"
         style="stop-opacity:1;stop-color:#28094d" /><stop
         id="stop128"
         offset="1"
         style="stop-opacity:1;stop-color:#28094d" /></linearGradient><linearGradient
       id="linearGradient158"
       spreadMethod="pad"
       gradientTransform="matrix(179.27657,-68.414726,-68.414726,-179.27657,456.53983,285.73996)"
       gradientUnits="userSpaceOnUse"
       y2="0"
       x2="1"
       y1="0"
       x1="0"><stop
         id="stop146"
         offset="0"
         style="stop-opacity:1;stop-color:#ffe900" /><stop
         id="stop148"
         offset="0.01070992"
         style="stop-opacity:1;stop-color:#fd3dbf" /><stop
         id="stop150"
         offset="0.0533064"
         style="stop-opacity:1;stop-color:#fd3dbf" /><stop
         id="stop152"
         offset="0.09224526"
         style="stop-opacity:1;stop-color:#fd3dbf" /><stop
         id="stop154"
         offset="0.655923"
         style="stop-opacity:1;stop-color:#28094d" /><stop
         id="stop156"
         offset="1"
         style="stop-opacity:1;stop-color:#28094d" /></linearGradient><linearGradient
       id="linearGradient180"
       spreadMethod="pad"
       gradientTransform="matrix(-355.55685,385.5195,385.5195,355.55685,768.10602,472.44498)"
       gradientUnits="userSpaceOnUse"
       y2="0"
       x2="1"
       y1="0"
       x1="0"><stop
         id="stop174"
         offset="0"
         style="stop-opacity:1;stop-color:#000000" /><stop
         id="stop176"
         offset="0.74655837"
         style="stop-opacity:1;stop-color:#28094d" /><stop
         id="stop178"
         offset="1"
         style="stop-opacity:1;stop-color:#28094d" /></linearGradient><linearGradient
       id="linearGradient208"
       spreadMethod="pad"
       gradientTransform="matrix(13.813229,0,0,-13.813229,423.11838,555.27728)"
       gradientUnits="userSpaceOnUse"
       y2="0"
       x2="1"
       y1="0"
       x1="0"><stop
         id="stop204"
         offset="0"
         style="stop-opacity:1;stop-color:#4b2691" /><stop
         id="stop206"
         offset="1"
         style="stop-opacity:1;stop-color:#ff13bd" /></linearGradient><linearGradient
       id="linearGradient230"
       spreadMethod="pad"
       gradientTransform="matrix(143.82074,50.936512,50.936512,-143.82074,569.55023,671.40015)"
       gradientUnits="userSpaceOnUse"
       y2="0"
       x2="1"
       y1="0"
       x1="0"><stop
         id="stop224"
         offset="0"
         style="stop-opacity:1;stop-color:#2ef6fd" /><stop
         id="stop226"
         offset="0.75783759"
         style="stop-opacity:1;stop-color:#2ef6fd" /><stop
         id="stop228"
         offset="1"
         style="stop-opacity:1;stop-color:#28094d" /></linearGradient><linearGradient
       id="linearGradient250"
       spreadMethod="pad"
       gradientTransform="matrix(20.508516,-112.30853,-112.30853,-20.508516,489.94037,769.4516)"
       gradientUnits="userSpaceOnUse"
       y2="0"
       x2="1"
       y1="0"
       x1="0"><stop
         id="stop246"
         offset="0"
         style="stop-opacity:1;stop-color:#ffe900" /><stop
         id="stop248"
         offset="1"
         style="stop-opacity:1;stop-color:#ff13bd" /></linearGradient><linearGradient
       id="linearGradient272"
       spreadMethod="pad"
       gradientTransform="matrix(-355.55685,385.5195,385.5195,355.55685,1567.4513,473.91559)"
       gradientUnits="userSpaceOnUse"
       y2="0"
       x2="1"
       y1="0"
       x1="0"><stop
         id="stop266"
         offset="0"
         style="stop-opacity:1;stop-color:#000000" /><stop
         id="stop268"
         offset="0.74655837"
         style="stop-opacity:1;stop-color:#28094d" /><stop
         id="stop270"
         offset="1"
         style="stop-opacity:1;stop-color:#28094d" /></linearGradient><linearGradient
       id="linearGradient300"
       spreadMethod="pad"
       gradientTransform="matrix(13.813229,0,0,-13.813229,1222.4636,556.74792)"
       gradientUnits="userSpaceOnUse"
       y2="0"
       x2="1"
       y1="0"
       x1="0"><stop
         id="stop296"
         offset="0"
         style="stop-opacity:1;stop-color:#4b2691" /><stop
         id="stop298"
         offset="1"
         style="stop-opacity:1;stop-color:#ff13bd" /></linearGradient><linearGradient
       id="linearGradient320"
       spreadMethod="pad"
       gradientTransform="matrix(23.091269,-126.45219,-126.45219,-23.091269,1349.8931,831.1347)"
       gradientUnits="userSpaceOnUse"
       y2="0"
       x2="1"
       y1="0"
       x1="0"><stop
         id="stop316"
         offset="0"
         style="stop-opacity:1;stop-color:#ffe900" /><stop
         id="stop318"
         offset="1"
         style="stop-opacity:1;stop-color:#ff13bd" /></linearGradient><linearGradient
       id="linearGradient342"
       spreadMethod="pad"
       gradientTransform="matrix(182.93855,64.790733,64.790733,-182.93855,1291.8413,616.26184)"
       gradientUnits="userSpaceOnUse"
       y2="0"
       x2="1"
       y1="0"
       x1="0"><stop
         id="stop336"
         offset="0"
         style="stop-opacity:1;stop-color:#2ef6fd" /><stop
         id="stop338"
         offset="0.75783759"
         style="stop-opacity:1;stop-color:#2ef6fd" /><stop
         id="stop340"
         offset="1"
         style="stop-opacity:1;stop-color:#28094d" /></linearGradient><linearGradient
       id="linearGradient364"
       spreadMethod="pad"
       gradientTransform="matrix(-355.55685,385.5195,385.5195,355.55685,1167.7786,472.17047)"
       gradientUnits="userSpaceOnUse"
       y2="0"
       x2="1"
       y1="0"
       x1="0"><stop
         id="stop358"
         offset="0"
         style="stop-opacity:1;stop-color:#000000" /><stop
         id="stop360"
         offset="0.74655837"
         style="stop-opacity:1;stop-color:#28094d" /><stop
         id="stop362"
         offset="1"
         style="stop-opacity:1;stop-color:#28094d" /></linearGradient><linearGradient
       id="linearGradient392"
       spreadMethod="pad"
       gradientTransform="matrix(13.813229,0,0,-13.813229,822.98138,555.03375)"
       gradientUnits="userSpaceOnUse"
       y2="0"
       x2="1"
       y1="0"
       x1="0"><stop
         id="stop388"
         offset="0"
         style="stop-opacity:1;stop-color:#4b2691" /><stop
         id="stop390"
         offset="1"
         style="stop-opacity:1;stop-color:#ff13bd" /></linearGradient><linearGradient
       id="linearGradient420"
       spreadMethod="pad"
       gradientTransform="matrix(-98.876755,-197.75351,-197.75351,98.876755,1034.0394,820.51886)"
       gradientUnits="userSpaceOnUse"
       y2="0"
       x2="1"
       y1="0"
       x1="0"><stop
         id="stop408"
         offset="0"
         style="stop-opacity:1;stop-color:#ffe900" /><stop
         id="stop410"
         offset="0.13484585"
         style="stop-opacity:1;stop-color:#ffe900" /><stop
         id="stop412"
         offset="0.60086"
         style="stop-opacity:1;stop-color:#ff13bd" /><stop
         id="stop414"
         offset="0.78767635"
         style="stop-opacity:1;stop-color:#ff13bd" /><stop
         id="stop416"
         offset="0.999917"
         style="stop-opacity:1;stop-color:#2ef6fd" /><stop
         id="stop418"
         offset="1"
         style="stop-opacity:1;stop-color:#2ef6fd" /></linearGradient><clipPath
       id="clipPath430"
       clipPathUnits="userSpaceOnUse"><path
         id="path428"
         d="M 0,1080 H 1920 V 0 H 0 Z" /></clipPath><linearGradient
       id="linearGradient462"
       spreadMethod="pad"
       gradientTransform="matrix(197.73782,-150.68256,-150.68256,-197.73782,958.40076,366.33896)"
       gradientUnits="userSpaceOnUse"
       y2="0"
       x2="1"
       y1="0"
       x1="0"><stop
         id="stop448"
         offset="0"
         style="stop-opacity:1;stop-color:#ffe900" /><stop
         id="stop450"
         offset="0.00797159"
         style="stop-opacity:1;stop-color:#ffe900" /><stop
         id="stop452"
         offset="0.21312346"
         style="stop-opacity:1;stop-color:#fd3dbf" /><stop
         id="stop454"
         offset="0.36765"
         style="stop-opacity:1;stop-color:#fd3dbf" /><stop
         id="stop456"
         offset="0.76686373"
         style="stop-opacity:1;stop-color:#28094d" /><stop
         id="stop458"
         offset="0.99216"
         style="stop-opacity:1;stop-color:#28094d" /><stop
         id="stop460"
         offset="1"
         style="stop-opacity:1;stop-color:#28094d" /></linearGradient><linearGradient
       id="linearGradient482"
       spreadMethod="pad"
       gradientTransform="matrix(-101.51246,-97.282776,-97.282776,101.51246,1398.7056,291.3736)"
       gradientUnits="userSpaceOnUse"
       y2="0"
       x2="1"
       y1="0"
       x1="0"><stop
         id="stop478"
         offset="0"
         style="stop-opacity:1;stop-color:#2ef6fd" /><stop
         id="stop480"
         offset="1"
         style="stop-opacity:1;stop-color:#28094d" /></linearGradient><linearGradient
       id="linearGradient502"
       spreadMethod="pad"
       gradientTransform="matrix(-101.51246,-97.282776,-97.282776,101.51246,1368.8673,322.50919)"
       gradientUnits="userSpaceOnUse"
       y2="0"
       x2="1"
       y1="0"
       x1="0"><stop
         id="stop498"
         offset="0"
         style="stop-opacity:1;stop-color:#2ef6fd" /><stop
         id="stop500"
         offset="1"
         style="stop-opacity:1;stop-color:#28094d" /></linearGradient><linearGradient
       id="linearGradient530"
       spreadMethod="pad"
       gradientTransform="matrix(234.21886,-111.55796,-111.55796,-234.21886,1001.7685,332.14499)"
       gradientUnits="userSpaceOnUse"
       y2="0"
       x2="1"
       y1="0"
       x1="0"><stop
         id="stop518"
         offset="0"
         style="stop-opacity:1;stop-color:#ffe900" /><stop
         id="stop520"
         offset="0.01070992"
         style="stop-opacity:1;stop-color:#fd3dbf" /><stop
         id="stop522"
         offset="0.0533064"
         style="stop-opacity:1;stop-color:#fd3dbf" /><stop
         id="stop524"
         offset="0.09224526"
         style="stop-opacity:1;stop-color:#fd3dbf" /><stop
         id="stop526"
         offset="0.655923"
         style="stop-opacity:1;stop-color:#28094d" /><stop
         id="stop528"
         offset="1"
         style="stop-opacity:1;stop-color:#28094d" /></linearGradient><linearGradient
       id="linearGradient564"
       spreadMethod="pad"
       gradientTransform="matrix(16.47946,16.47946,16.47946,-16.47946,940.65637,145.8344)"
       gradientUnits="userSpaceOnUse"
       y2="0"
       x2="1"
       y1="0"
       x1="0"><stop
         id="stop554"
         offset="0"
         style="stop-opacity:1;stop-color:#ffe900" /><stop
         id="stop556"
         offset="0.562788"
         style="stop-opacity:1;stop-color:#ff13bd" /><stop
         id="stop558"
         offset="0.703243"
         style="stop-opacity:1;stop-color:#ff13bd" /><stop
         id="stop560"
         offset="0.999917"
         style="stop-opacity:1;stop-color:#2a0c52" /><stop
         id="stop562"
         offset="1"
         style="stop-opacity:1;stop-color:#2a0c52" /></linearGradient></defs><g
     transform="matrix(1.3333333,0,0,-1.3333333,-1784.6744,270.56583)"
     id="g18"><g
       transform="translate(374.98629,-170.42262)"
       id="g436"><g
         id="g438"><g
           id="g444"><g
             id="g446"><path
               d="m 972.121,353.944 c -3.7,-7.747 -4.887,-16.029 -4.697,-24.485 v 0 c 0.251,-11.108 2.573,-21.869 6.356,-32.304 v 0 c 0.527,-1.454 0.331,-2.572 -0.381,-3.915 v 0 c -4.948,-9.329 -8.646,-19.083 -9.655,-29.698 v 0 c -1.82,-19.156 7.451,-34.821 26.994,-39.757 v 0 c 10.327,-2.608 20.655,-1.653 30.965,0.387 v 0 c 1.017,0.202 2.414,-0.171 3.281,-0.781 v 0 c 2.918,-2.056 5.591,-4.459 8.509,-6.515 v 0 c 12.135,-8.546 25.064,-15.127 40.135,-16.819 v 0 c 17.875,-2.004 33.123,7.829 38.201,25.026 v 0 c 3.77,12.764 2.687,25.523 -0.243,38.239 v 0 c -2.965,12.876 -8.121,24.904 -14.412,36.474 v 0 c -1.591,2.929 -1.518,3.158 1.45,4.822 v 0 c 1.489,0.834 3.023,1.6 4.464,2.512 v 0 c 2.031,1.287 1.901,3.573 -0.307,4.513 v 0 c -9.142,3.89 -18.305,7.729 -27.48,11.542 v 0 c -2.089,0.868 -3.014,0.348 -3.51,-1.897 v 0 c -2.296,-10.383 -4.583,-20.767 -6.774,-31.173 v 0 c -0.176,-0.832 0.126,-2.21 0.713,-2.636 v 0 c 0.58,-0.421 1.951,-0.234 2.72,0.171 v 0 c 3.641,1.914 7.228,3.937 10.763,6.043 v 0 c 1.575,0.938 2.456,0.654 3.337,-0.921 v 0 c 6.564,-11.725 11.706,-23.992 14.199,-37.254 v 0 c 1.591,-8.463 2.248,-16.953 -0.258,-25.376 v 0 c -2.864,-9.62 -9.579,-14.51 -19.61,-14.058 v 0 c -3.152,0.142 -6.349,0.67 -9.397,1.497 v 0 c -9.243,2.509 -17.378,7.252 -25.044,12.791 v 0 c 7.722,4.143 15.189,8.102 22.599,12.161 v 0 c 1.568,0.859 2.372,0.486 3.125,-0.979 v 0 c 1.278,-2.484 2.559,-4.981 4.054,-7.334 v 0 c 0.579,-0.913 1.833,-2.099 2.617,-1.99 v 0 c 0.84,0.116 1.828,1.5 2.165,2.523 v 0 c 3.13,9.506 6.142,19.051 9.168,28.591 v 0 c 1.155,3.645 0.789,4.205 -3.056,4.957 v 0 c -9.14,1.79 -18.274,3.616 -27.431,5.32 v 0 c -0.996,0.185 -2.603,0.005 -3.063,-0.63 v 0 c -0.482,-0.666 -0.217,-2.229 0.233,-3.15 v 0 c 1.531,-3.135 3.206,-6.21 4.99,-9.209 v 0 c 1.081,-1.817 0.708,-2.832 -1.029,-3.961 v 0 c -8.572,-5.576 -17.727,-9.929 -27.298,-13.47 v 0 c -1.31,-0.485 -2.094,-0.18 -3.021,0.766 v 0 c -13.711,14.004 -24.852,29.784 -33.141,47.57 v 0 c -0.765,1.645 -0.559,2.776 0.438,4.2 v 0 c 5.771,8.246 12.3,15.83 19.652,22.692 v 0 c 16.369,15.273 34.611,27.554 56.045,34.613 v 0 c 9.822,3.235 19.839,5.177 30.247,3.534 v 0 c 9.787,-1.547 16.064,-7.079 17.023,-16.104 v 0 c 0.481,-4.53 0.179,-9.449 -1.119,-13.788 v 0 c -1.94,-6.487 -4.977,-12.659 -7.731,-18.883 v 0 c -1.788,-4.046 -0.644,-8.657 3.012,-10.815 v 0 c 3.725,-2.196 8.692,-1.207 10.866,2.547 v 0 c 7.022,12.127 11.882,24.918 11.519,39.25 v 0 c -0.355,14.054 -8.632,26.061 -21.714,31.165 v 0 c -9.291,3.623 -18.928,3.947 -28.682,2.684 v 0 c -13.316,-1.724 -25.782,-6.129 -37.704,-12.171 v 0 c -1.415,-0.717 -2.401,-0.67 -3.787,0.196 v 0 c -10.449,6.527 -21.544,11.254 -33.992,12.497 v 0 c -1.292,0.129 -2.572,0.193 -3.842,0.193 v 0 c -13.55,-10e-4 -25.654,-7.239 -31.462,-19.403 m 11.714,-28.846 c -0.639,5.584 -0.464,11.156 0.999,16.636 v 0 c 2.83,10.598 9.395,15.653 20.316,15.289 v 0 c 7.824,-0.262 14.915,-3.131 21.654,-6.609 v 0 c -7.22,-5.847 -14.65,-11.336 -21.447,-17.522 v 0 c -6.805,-6.193 -12.977,-13.082 -19.65,-19.895 v 0 c -0.623,3.953 -1.402,8.01 -1.872,12.101 m -2.877,-74.173 c -2.023,6.048 -1.447,12.104 0.053,18.135 v 0 c 0.515,2.073 1.234,4.094 2.052,6.77 v 0 c 7.402,-13.646 15.899,-25.696 25.871,-36.864 v 0 c -1.859,-0.31 -3.82,-0.474 -5.809,-0.474 v 0 c -9.299,0 -19.206,3.576 -22.167,12.433"
               style="fill:url(#linearGradient462);stroke:none"
               id="path464" /></g></g></g></g><g
       transform="translate(374.98629,-170.42262)"
       id="g466"><g
         id="g468"><g
           id="g474"><g
             id="g476"><path
               d="m 1336.768,289.507 c -1.805,-0.087 -3.634,-0.782 -5.345,-1.465 v 0 c -1.716,-0.685 -2.441,-2.192 -2.44,-4.058 v 0 c 0.01,-23.226 0.012,-46.451 0,-69.677 v 0 c -10e-4,-1.854 0.84,-3.158 2.456,-3.9 v 0 c 3.786,-1.736 7.603,-1.751 11.359,0.108 v 0 c 1.639,0.812 2.497,2.124 2.474,4.046 v 0 c -0.054,4.391 -0.023,8.785 -0.016,13.178 v 0 c 0,0.531 0.061,1.061 0.114,1.905 v 0 c 0.794,-0.518 1.34,-0.833 1.841,-1.206 v 0 c 8.166,-6.096 16.337,-12.184 24.476,-18.316 v 0 c 1.476,-1.111 3.017,-1.295 4.604,-0.569 v 0 c 3.597,1.646 6.199,4.297 7.583,8.043 v 0 c 1.008,2.73 0.536,4.256 -1.795,5.945 v 0 c -4.578,3.319 -9.169,6.623 -13.75,9.94 v 0 c -0.553,0.399 -1.079,0.837 -1.884,1.467 v 0 c 0.896,0.526 1.486,0.883 2.084,1.222 v 0 c 4.221,2.398 7.667,5.601 10.352,9.665 v 0 c 6.939,10.501 6.198,23.843 -2.127,33.097 v 0 c -5.128,5.702 -11.777,8.784 -19.275,10.076 v 0 c -3.607,0.621 -7.229,0.819 -10.856,0.819 v 0 c -3.283,0 -6.571,-0.162 -9.853,-0.32 m 8.502,-41.879 c -0.036,3.547 -0.01,7.095 -0.01,10.642 v 0 c 0,3.501 -0.013,7.001 10e-4,10.502 v 0 c 0.01,2.149 0.612,2.707 2.78,2.724 v 0 c 5.73,0.046 11.133,-1.156 16.018,-4.25 v 0 c 6.785,-4.297 7.123,-12.268 0.685,-17.103 v 0 c -3.697,-2.774 -7.913,-4.358 -12.51,-4.892 v 0 c -1.345,-0.156 -2.694,-0.306 -4.045,-0.367 v 0 c -0.082,-0.004 -0.163,-0.006 -0.241,-0.006 v 0 c -1.756,0 -2.661,0.921 -2.678,2.75"
               style="fill:url(#linearGradient482);stroke:none"
               id="path484" /></g></g></g></g><g
       transform="translate(374.98629,-170.42262)"
       id="g486"><g
         id="g488"><g
           id="g494"><g
             id="g496"><path
               d="m 1305.89,286.913 c -3.555,-5.58 -7.105,-11.162 -10.662,-16.741 v 0 c -0.714,-1.119 -1.45,-2.227 -2.325,-3.569 v 0 c -0.466,0.561 -0.74,0.833 -0.943,1.143 v 0 c -4.255,6.507 -8.523,13.008 -12.738,19.537 v 0 c -1.19,1.843 -2.889,2.795 -5.197,2.657 v 0 c -4.632,-0.274 -8.173,-2.321 -10.73,-5.785 v 0 c -1.426,-1.932 -1.392,-3.891 -0.053,-5.917 v 0 c 5.821,-8.812 11.543,-17.68 17.436,-26.453 v 0 c 1.105,-1.645 1,-2.818 -0.019,-4.424 v 0 c -5.785,-9.102 -11.439,-18.273 -17.146,-27.416 v 0 c -1.088,-1.742 -1.086,-3.462 0.019,-5.185 v 0 c 1.943,-3.032 4.858,-4.951 8.556,-5.76 v 0 c 4.051,-0.885 5.6,-0.154 7.672,3.179 v 0 c 3.969,6.388 7.938,12.775 11.921,19.156 v 0 c 0.306,0.49 0.723,0.922 1.231,1.561 v 0 c 0.485,-0.696 0.828,-1.15 1.13,-1.626 v 0 c 4.092,-6.431 8.172,-12.868 12.267,-19.297 v 0 c 1.653,-2.597 3.16,-3.223 6.369,-2.782 v 0 c 3.2,0.44 5.754,1.951 7.971,3.974 v 0 c 3.074,2.806 3.336,4.964 1.146,8.391 v 0 c -5.732,8.969 -11.438,17.953 -17.225,26.894 v 0 c -0.738,1.141 -0.656,1.965 0.054,3.053 v 0 c 5.796,8.882 11.547,17.788 17.28,26.704 v 0 c 1.767,2.748 1.535,5.051 -0.717,7.488 v 0 c -2.121,2.297 -4.814,3.777 -8.083,4.306 v 0 c -0.596,0.096 -1.155,0.145 -1.68,0.145 v 0 c -2.416,0 -4.13,-1.032 -5.534,-3.233"
               style="fill:url(#linearGradient502);stroke:none"
               id="path504" /></g></g></g></g><g
       transform="translate(374.98629,-170.42262)"
       id="g506"><g
         id="g508"><g
           id="g514"><g
             id="g516"><path
               d="m 1176.026,289.827 c -2.277,0 -4.443,-0.98 -5.946,-2.69 v 0 l -26.519,-30.19 h -0.343 v 24.966 c 0,4.372 -3.544,7.914 -7.915,7.914 v 0 h -3.236 c -4.371,0 -7.914,-3.542 -7.914,-7.914 v 0 -65 c 0,-4.372 3.543,-7.915 7.914,-7.915 v 0 h 3.236 c 4.371,0 7.915,3.543 7.915,7.915 v 0 17.622 l 4.679,4.767 c 0.33,0.336 0.878,0.309 1.173,-0.058 v 0 l 22.026,-27.3 c 1.503,-1.862 3.767,-2.946 6.16,-2.946 v 0 h 4.619 c 6.736,0 10.393,7.881 6.043,13.026 v 0 l -25.551,30.217 c -0.178,0.21 -0.17,0.521 0.018,0.721 v 0 l 22.028,23.544 c 4.73,5.056 1.144,13.321 -5.78,13.321 v 0 z m 67.837,-13.753 -0.034,-2.929 c -0.01,-0.477 -0.318,-0.897 -0.774,-1.039 v 0 l -2.796,-0.873 c -1.02,-0.319 -1.036,-1.756 -0.024,-2.098 v 0 l 2.775,-0.937 c 0.453,-0.153 0.755,-0.579 0.75,-1.057 v 0 l -0.035,-2.929 c -0.011,-1.068 1.35,-1.528 1.988,-0.672 v 0 l 1.749,2.35 c 0.285,0.384 0.785,0.539 1.238,0.387 v 0 l 2.774,-0.938 c 1.013,-0.342 1.871,0.812 1.253,1.683 v 0 l -1.694,2.389 c -0.276,0.39 -0.271,0.913 0.016,1.296 v 0 l 1.747,2.349 c 0.638,0.858 -0.192,2.031 -1.213,1.713 v 0 l -2.795,-0.873 c -0.457,-0.143 -0.952,0.025 -1.229,0.415 v 0 l -1.694,2.389 c -0.228,0.322 -0.56,0.467 -0.888,0.467 v 0 c -0.559,0 -1.106,-0.42 -1.114,-1.093 m -46.677,-18.07 c -1.408,-3.376 -1.632,-6.809 -0.252,-10.257 v 0 c 0.555,-1.385 1.579,-2.028 3.121,-1.985 v 0 c 2.819,0.078 5.649,0.183 8.461,0.033 v 0 c 1.893,-0.1 3.814,-0.451 5.633,-0.992 v 0 c 2.203,-0.656 3.805,-2.15 4.844,-4.717 v 0 c -4.434,2.027 -8.738,2.293 -13.078,1.284 v 0 c -4.49,-1.044 -8.085,-3.49 -10.477,-7.506 v 0 c -2.733,-4.585 -2.929,-14.56 2.658,-20.074 v 0 c 4.768,-4.706 13.993,-6.862 21.522,-2.265 v 0 c 1.764,-0.872 3.134,-1.839 4.652,-2.234 v 0 c 2.468,-0.642 4.964,-0.339 7.328,0.752 v 0 c 1.444,0.667 2.238,1.745 2.325,3.338 v 0 c 0.075,1.382 0.162,2.764 0.231,4.146 v 0 c 0.384,7.771 0.725,15.549 -0.497,23.275 v 0 c -1.536,9.712 -5.341,16.326 -17.074,18.149 v 0 c -5.535,0.86 -11.235,0.685 -16.861,0.934 v 0 c -0.041,0.002 -0.081,0.003 -0.121,0.003 v 0 c -1.21,0 -1.976,-0.83 -2.415,-1.884 m 8.67,-32.936 c -0.02,4.236 2.339,6.733 6.371,6.741 v 0 c 4.047,0.008 7.809,-3.126 7.785,-6.487 v 0 c -0.027,-3.868 -3.423,-6.941 -7.667,-6.937 v 0 c -3.982,0.003 -6.468,2.564 -6.489,6.683 m 42.398,32.149 c -3.717,0 -6.729,-3.013 -6.729,-6.73 v 0 -34.76 c 0,-3.716 3.012,-6.729 6.729,-6.729 v 0 h 2.421 c 3.716,0 6.728,3.013 6.728,6.729 v 0 34.76 c 0,3.717 -3.012,6.73 -6.728,6.73 v 0 z"
               style="fill:url(#linearGradient530);stroke:none"
               id="path532" /></g></g></g></g></g></svg>
