<svg height="512pt" viewBox="0 -96 512 512" width="512pt" xmlns="http://www.w3.org/2000/svg"><path d="m368.46875 126.398438c-18.308594 0-33.203125 14.894531-33.203125 33.203124 0 18.304688 14.894531 33.199219 33.203125 33.199219 18.304688 0 33.199219-14.894531 33.199219-33.199219 0-18.308593-14.894531-33.203124-33.199219-33.203124zm0 0"/><path d="m143.53125 126.398438c-18.304688 0-33.199219 14.894531-33.199219 33.203124 0 18.304688 14.894531 33.199219 33.199219 33.199219 18.308594 0 33.203125-14.894531 33.203125-33.199219 0-18.308593-14.894531-33.203124-33.203125-33.203124zm0 0"/><path d="m448.800781 0h-385.601562c-34.480469 0-63.199219 27.90625-63.199219 63.199219v192.800781c0 35.433594 28.847656 63.199219 63.199219 63.199219h92.464843c16.867188 0 32.75-6.5625 44.753907-18.511719l32.15625-32.15625c6.132812-6.167969 14.671875-9.703125 23.425781-9.703125s17.292969 3.535156 23.476562 9.753906l32.136719 32.132813c11.972657 11.921875 27.855469 18.484375 44.722657 18.484375h92.464843c34.480469 0 63.199219-27.90625 63.199219-63.199219v-192.800781c0-35.433594-28.847656-63.199219-63.199219-63.199219zm-305.269531 222.800781c-34.847656 0-63.199219-28.351562-63.199219-63.199219 0-34.847656 28.351563-63.203124 63.199219-63.203124 34.851562 0 63.203125 28.355468 63.203125 63.203124 0 34.847657-28.351563 63.199219-63.203125 63.199219zm224.9375 0c-34.851562 0-63.203125-28.351562-63.203125-63.199219 0-34.847656 28.351563-63.203124 63.203125-63.203124 34.847656 0 63.199219 28.355468 63.199219 63.203124 0 34.847657-28.351563 63.199219-63.199219 63.199219zm0 0"/></svg>