<svg width="20" height="20" viewBox="0 0 20 20" fill="none" xmlns="http://www.w3.org/2000/svg">
  <g clip-path="url(#clip0_6042_7909)">
    <path
      d="M12.084 4.5834L13.334 5.8334M9.58396 7.0834L10.834 8.3334M7.08396 9.5834L8.33396 10.8334M4.58396 12.0834L5.83396 13.3334M2.13866 14.6382L5.36252 17.862C5.52752 18.027 5.61003 18.1095 5.70516 18.1405C5.78885 18.1676 5.87899 18.1676 5.96268 18.1405C6.05782 18.1095 6.14032 18.027 6.30533 17.862L17.8625 6.30484C18.0275 6.13983 18.11 6.05733 18.1409 5.96219C18.1681 5.87851 18.1681 5.78836 18.1409 5.70468C18.11 5.60954 18.0275 5.52704 17.8625 5.36203L14.6387 2.13817C14.4737 1.97316 14.3911 1.89066 14.296 1.85975C14.2123 1.83256 14.1222 1.83256 14.0385 1.85975C13.9434 1.89066 13.8609 1.97316 13.6959 2.13817L2.13866 13.6954C1.97365 13.8604 1.89115 13.9429 1.86024 14.038C1.83305 14.1217 1.83305 14.2118 1.86024 14.2955C1.89115 14.3907 1.97365 14.4732 2.13866 14.6382Z"
      stroke="#9CA0AA"
      stroke-width="1.75"
      stroke-linecap="round"
      stroke-linejoin="round"
    />
  </g>
  <defs>
    <clipPath id="clip0_6042_7909">
      <rect width="20" height="20" fill="white" />
    </clipPath>
  </defs>
</svg>
