<svg width="44" height="44" viewBox="0 0 44 44" fill="none" xmlns="http://www.w3.org/2000/svg">
<circle opacity="0.3" cx="22" cy="22" r="22" fill="url(#paint0_radial)"/>
<path d="M25.2753 18.2821V24.2764C26.1066 26.7704 27.3755 32.1084 24.8377 35.915C24.4439 36.5275 23.5251 36.615 22.9563 36.09C22.5188 35.6962 22.475 35.0399 22.7813 34.5586C24.4877 31.9334 23.7439 27.908 22.7813 24.9327L20.1561 32.5897C19.8498 33.5523 18.6247 33.9023 17.8371 33.246L13.7242 29.6582C13.1992 29.2206 13.1554 28.4768 13.593 27.9518C14.0305 27.4267 14.8181 27.383 15.2994 27.8205L18.1434 30.227L19.5435 24.9765V18.5447C18.2746 18.5009 16.8745 18.4571 15.5619 18.4134C14.5993 18.3696 13.8555 17.5383 13.943 16.532L14.5118 9.83762C14.6868 9.35633 15.2119 9.05005 15.6932 9.05005C16.4807 9.05005 17.137 9.83762 16.9183 10.6252L16.4807 14.1693C16.3932 14.7818 16.9183 15.3506 17.5308 15.3506H24.7502C25.1003 15.3506 25.4065 15.2194 25.5816 14.9568C26.5879 13.6442 27.2442 11.544 27.5942 10.0126C27.8568 9.22506 28.3818 9.05005 28.9506 9.05005C29.6507 9.13756 30.132 9.83762 30.0007 10.5377C29.5194 12.7254 28.2505 17.0133 25.2753 18.2821Z" fill="white"/>
<path d="M19.8935 12.7692C19.1934 11.7191 19.0622 10.5377 19.631 9.53139C20.1123 8.5688 21.1186 8 22.1687 8C23.7439 8 25.0565 9.31262 25.0565 10.8878C25.0565 11.9379 24.4439 13.0755 23.5688 13.6443C23.1313 13.9505 22.65 14.0818 22.1687 14.0818C21.8187 14.0818 21.5124 13.9943 21.1624 13.863C20.6373 13.6443 20.1998 13.2942 19.8935 12.7692Z" fill="white"/>
<path d="M33.3564 39H28.4834V38.0332L30.7832 35.582C31.099 35.237 31.3317 34.9359 31.4814 34.6787C31.6344 34.4215 31.7109 34.1774 31.7109 33.9463C31.7109 33.6305 31.6312 33.3831 31.4717 33.2041C31.3122 33.0218 31.0843 32.9307 30.7881 32.9307C30.4691 32.9307 30.2168 33.0413 30.0312 33.2627C29.849 33.4808 29.7578 33.7689 29.7578 34.127H28.3418C28.3418 33.694 28.4443 33.2985 28.6494 32.9404C28.8577 32.5824 29.1507 32.3024 29.5283 32.1006C29.9059 31.8955 30.334 31.793 30.8125 31.793C31.5449 31.793 32.113 31.9688 32.5166 32.3203C32.9235 32.6719 33.127 33.1683 33.127 33.8096C33.127 34.1611 33.0358 34.5192 32.8535 34.8838C32.6712 35.2484 32.3587 35.6732 31.916 36.1582L30.2998 37.8623H33.3564V39Z" fill="white"/>
<path d="M11.8759 24C11.2512 24 10.6889 23.6823 10.2516 23.174C10.0017 22.8564 9.81427 22.4116 9.81427 22.0304C9.81427 22.0304 9.81427 21.9669 9.81427 21.9033V15.9311L8.00254 17.4559C7.75264 17.71 7.31533 17.6465 7.12791 17.3924C6.94049 17.1382 6.94049 16.6935 7.25285 16.5029L10.0642 14.1521C10.2516 13.9615 10.5015 13.9615 10.7514 14.0886C11.0013 14.2156 11.1262 14.4062 11.1262 14.6604V20.0608C11.1887 20.0608 11.2512 19.9973 11.3761 19.9973C12.0008 19.8067 12.6881 19.9338 13.1878 20.315C13.6876 20.6962 14 21.3315 14 21.9669C13.9375 23.047 13.0004 24 11.8759 24Z" fill="white"/>
<defs>
<radialGradient id="paint0_radial" cx="0" cy="0" r="1" gradientUnits="userSpaceOnUse" gradientTransform="translate(22 22) rotate(90) scale(22)">
<stop stop-color="white" stop-opacity="0"/>
<stop offset="1" stop-color="white"/>
</radialGradient>
</defs>
</svg>
