<svg width="44" height="44" viewBox="0 0 44 44" fill="none" xmlns="http://www.w3.org/2000/svg">
<path d="M30.1095 18.875C30.3684 18.875 30.595 18.7455 30.6921 18.4866C30.8215 18.1629 30.6921 17.7746 30.3684 17.6451C29.9476 17.4509 29.4945 17.2243 29.009 16.9654C27.7144 16.2857 26.3874 15.5413 25.0927 15.7679C24.7367 15.8326 24.5101 16.1562 24.5749 16.5123C24.6396 16.8683 24.9633 17.0949 25.3193 17.0301C26.1608 16.8683 27.2936 17.4833 28.3941 18.0658C28.8796 18.3248 29.365 18.5837 29.8505 18.8103C29.9476 18.8426 30.0124 18.875 30.1095 18.875Z" fill="white"/>
<path d="M35.1585 25.9955C35.5469 26.0926 35.9353 25.8337 36.0324 25.4129C36.2266 24.4743 36.3237 23.471 36.3237 22.5C36.3237 14.5056 29.7533 8 21.6618 8C13.5703 8 7 14.5056 7 22.5C7 30.4944 13.5703 37 21.6618 37C23.8627 37 25.9989 36.5145 27.9732 35.5759C28.3292 35.4141 28.4911 34.9609 28.3292 34.6049C28.1674 34.2489 27.7143 34.0871 27.3583 34.2489C25.5781 35.0904 23.6685 35.5112 21.6618 35.5112C14.3795 35.5112 8.48884 29.6853 8.48884 22.5C8.48884 15.3147 14.3795 9.48884 21.6618 9.48884C28.9442 9.48884 34.8348 15.3147 34.8348 22.5C34.8348 23.3739 34.7377 24.2801 34.5759 25.1217C34.5112 25.51 34.7377 25.8984 35.1585 25.9955Z" fill="white"/>
<path d="M16.4833 15.5089C16.8393 15.5413 17.163 15.25 17.163 14.894C17.1953 14.5379 16.904 14.2143 16.548 14.2143C15.221 14.1172 13.9911 14.9911 12.7936 15.8002C12.3404 16.0915 11.9197 16.3828 11.5313 16.6094C11.2076 16.7712 11.1105 17.192 11.3047 17.4833C11.4342 17.6774 11.6284 17.8069 11.8549 17.8069C11.952 17.8069 12.0815 17.7745 12.1786 17.7098C12.6317 17.4509 13.0849 17.1272 13.538 16.8359C14.5737 16.1562 15.6418 15.4442 16.4833 15.5089Z" fill="white"/>
<path d="M26.9699 19.231C26.1608 19.231 25.0927 19.5223 25.0603 19.5223C24.7043 19.6194 24.5101 19.9754 24.6072 20.3315C24.6719 20.6228 24.9632 20.817 25.2221 20.817C25.2869 20.817 25.3516 20.817 25.384 20.7846C25.6429 20.7199 26.4197 20.5257 26.9375 20.5257C27.5849 20.5257 28.4911 20.7846 28.4911 20.7846C28.8471 20.8817 29.2032 20.6875 29.3003 20.3315C29.3974 19.9754 29.2032 19.6194 28.8471 19.5223C28.8471 19.5223 27.7791 19.231 26.9699 19.231Z" fill="white"/>
<path d="M15.6418 21.2377C16.5534 21.2377 17.2924 20.4987 17.2924 19.5871C17.2924 18.6754 16.5534 17.9364 15.6418 17.9364C14.7301 17.9364 13.9911 18.6754 13.9911 19.5871C13.9911 20.4987 14.7301 21.2377 15.6418 21.2377Z" fill="white"/>
<path d="M21.2735 31.1417C20.9822 31.1417 20.7556 31.3683 20.7556 31.6596C20.7556 31.9509 20.9822 32.1775 21.2735 32.1775C22.9242 32.1775 24.2188 31.2712 24.2188 30.1384C24.2188 29.8147 24.2188 29.1027 23.7009 28.5848C24.1864 28.0993 24.1864 27.3873 24.1864 27.0636C24.1864 25.9308 22.8918 25.0246 21.2411 25.0246C20.9498 25.0246 20.7233 25.2511 20.7233 25.5424C20.7233 25.8337 20.9498 26.0603 21.2411 26.0603C22.3416 26.0603 23.1507 26.5781 23.1507 27.0636C23.1507 27.7433 23.0536 28.067 22.0826 28.067C21.8561 28.067 21.6619 28.2288 21.5972 28.423C21.5324 28.6496 21.6295 28.8761 21.8237 29.0056L21.8561 29.0379C21.9532 29.1027 22.0179 29.1027 22.115 29.1027C23.0536 29.1027 23.1831 29.4263 23.1831 30.106C23.2155 30.5915 22.3739 31.1417 21.2735 31.1417Z" fill="white"/>
<path d="M34.673 26.9989C33.6697 26.7076 32.634 27.0636 32.019 27.7757C31.663 28.1317 31.4364 28.423 31.3717 28.6496C31.4364 28.423 31.3717 28.067 31.2422 27.5815C31.0804 26.6429 30.3683 25.8337 29.365 25.5424C28.0056 25.154 26.5815 25.9308 26.2255 27.2255C25.9989 28.0022 26.2255 28.8114 26.711 29.4263L26.7433 29.4587C26.7757 29.4911 26.8081 29.5234 26.8081 29.5558C28.8471 31.7567 29.721 34.4755 29.721 34.4755C29.721 34.4755 31.8895 32.5982 34.7701 31.7567C34.8025 31.7567 34.8349 31.7243 34.8672 31.7243H34.8996C35.644 31.4654 36.2266 30.8828 36.4532 30.106C36.8415 28.7467 36.0324 27.3873 34.673 26.9989Z" fill="white"/>
<circle opacity="0.3" cx="22" cy="22" r="22" fill="url(#paint0_radial)"/>
<defs>
<radialGradient id="paint0_radial" cx="0" cy="0" r="1" gradientUnits="userSpaceOnUse" gradientTransform="translate(22 22) rotate(90) scale(22)">
<stop stop-color="white" stop-opacity="0"/>
<stop offset="1" stop-color="white"/>
</radialGradient>
</defs>
</svg>
