<svg width="453" height="43" viewBox="0 0 453 43" fill="none" xmlns="http://www.w3.org/2000/svg">
<path d="M48.7194 0.79639C48.4537 0.318163 47.7098 0.105612 47.2315 0.42443L24.4892 13.5491L1.64058 0.158748C1.16235 -0.106934 0.471581 0.0524818 0.152763 0.530709C-0.00664559 0.79639 -0.00664802 1.06207 0.0464883 1.32775C0.0996246 1.59343 0.312171 1.85911 0.524716 1.96538L23.8516 15.6214C24.0641 15.7277 24.2767 15.7808 24.4361 15.7808C24.4892 15.7808 24.4892 15.7808 24.5423 15.7808C24.7549 15.7808 24.9143 15.7277 25.0737 15.6214L48.2943 2.17794C48.5599 2.01853 48.7194 1.80598 48.8256 1.5403C48.9319 1.32775 48.8788 1.00894 48.7194 0.79639Z" fill="#A8A8FF"/>
<path d="M48.7182 9.82911C48.4525 9.35088 47.7086 9.13833 47.2304 9.45714L24.488 22.5818L1.63941 9.19146C1.16118 8.92578 0.470414 9.0852 0.151596 9.56342C-0.167222 10.0948 0.045322 10.7324 0.523549 11.0512L23.8504 24.7073C24.0629 24.8135 24.2755 24.8667 24.4349 24.8667C24.488 24.8667 24.488 24.8667 24.5412 24.8667C24.7537 24.8667 24.9131 24.8135 25.0725 24.7073L48.2931 11.3169C48.5588 11.1575 48.7182 10.945 48.7713 10.6793C48.9307 10.3605 48.8776 10.0417 48.7182 9.82911Z" fill="white"/>
<path d="M48.7182 18.8618C48.4525 18.3836 47.7617 18.171 47.2304 18.4899L24.488 31.6145L1.63941 18.2242C1.16118 17.9585 0.470414 18.1179 0.151596 18.5961C-0.167222 19.1275 0.045322 19.7651 0.523549 20.0839L23.8504 33.7931C24.0629 33.8994 24.2755 33.9525 24.4349 33.9525C24.488 33.9525 24.488 33.9525 24.5412 33.9525C24.7537 33.9525 24.9131 33.8994 25.0725 33.7931L48.2931 20.3496C48.5588 20.1902 48.7182 19.9777 48.7713 19.712C48.9307 19.3932 48.8776 19.0744 48.7182 18.8618Z" fill="white"/>
<path d="M48.7185 27.8959C48.4529 27.4177 47.7621 27.2051 47.2307 27.524L24.4884 40.6486L1.6929 27.2051C1.21467 26.9395 0.5239 27.0989 0.205082 27.5771C0.0456728 27.8428 -0.00746595 28.1085 0.0988067 28.3741C0.151943 28.6398 0.364489 28.9055 0.577034 29.0118L23.8507 42.7209C24.0633 42.8272 24.2758 42.8803 24.4352 42.8803C24.4884 42.8803 24.4884 42.8803 24.5415 42.8803C24.7541 42.8803 24.9135 42.8272 25.0729 42.7209L48.2934 29.2775C48.5591 29.1181 48.7185 28.9055 48.7717 28.6398C48.9311 28.4273 48.8779 28.1616 48.7185 27.8959Z" fill="white"/>
<path d="M103.554 4.30401H88.3038V42.3496H84.0529V4.30401H68.8028V0.584473H103.607V4.30401H103.554Z" fill="#A8A8FF"/>
<path d="M143.566 42.3496H139.315V23.5394H114.341V42.3496H110.09V0.584473H114.341V19.9261H139.315V0.584473H143.566V42.3496Z" fill="#A8A8FF"/>
<path d="M178.741 22.5298H158.071V38.7363H181.93V42.3496H153.82V0.584473H181.77V4.30401H158.071V18.8634H178.741V22.5298Z" fill="#A8A8FF"/>
<path d="M223.642 22.4235C223.642 28.7467 221.888 33.7416 218.434 37.408C214.98 41.0744 210.411 42.9342 204.778 42.9342C199.146 42.9342 194.576 41.0744 191.069 37.408C187.562 33.6884 185.809 28.6405 185.809 22.2641V20.6169C185.809 16.5254 186.606 12.859 188.2 9.72394C189.794 6.5889 192.026 4.19776 194.895 2.4974C197.764 0.850171 201.059 0 204.778 0C210.517 0 215.087 1.85977 218.541 5.63245C221.994 9.35199 223.695 14.4531 223.695 20.8294V22.4235H223.642ZM214.98 20.5106C214.98 16.1534 214.077 12.8058 212.271 10.521C210.464 8.23612 207.966 7.06712 204.725 7.06712C201.537 7.06712 198.986 8.23612 197.18 10.521C195.373 12.8058 194.47 16.1534 194.47 20.5106V22.4235C194.47 26.6744 195.373 29.9689 197.233 32.36C199.093 34.7511 201.59 35.9202 204.831 35.9202C208.073 35.9202 210.57 34.7511 212.377 32.4131C214.13 30.0751 215.034 26.7276 215.034 22.3704V20.5106H214.98Z" fill="white"/>
<path d="M244.419 31.191L245.109 33.9541L245.747 31.2441L256.162 0.584473H265.354L249.52 42.3496H240.699L224.865 0.584473H234.057L244.419 31.191Z" fill="white"/>
<path d="M296.652 24.2833H278.639V35.3888H299.734V42.3496H269.925V0.584473H299.628V7.59846H278.639V17.2693H296.652V24.2833Z" fill="white"/>
<path d="M322.422 27.0995H314.452V42.3496H305.737V0.584473H322.103C327.311 0.584473 331.349 1.70033 334.218 3.87891C337.088 6.0575 338.522 9.19255 338.522 13.2309C338.522 18.8634 335.812 22.7423 330.446 24.9209L340.276 41.9776V42.3496H330.977L322.422 27.0995ZM314.452 20.1386H322.103C324.707 20.1386 326.62 19.5541 327.895 18.4383C329.17 17.3224 329.808 15.7814 329.808 13.9217C329.808 12.0088 329.17 10.4678 327.948 9.29883C326.673 8.12983 324.76 7.59846 322.103 7.59846H314.452V20.1386Z" fill="white"/>
<path d="M354.198 35.3888H374.071V42.3496H345.484V0.584473H354.198V35.3888Z" fill="white"/>
<path d="M406.856 33.4227H389.587L386.186 42.3496H377.419L394.316 0.584473H402.287L419.078 42.3496H410.257L406.856 33.4227ZM392.138 26.7807H404.359L398.248 10.9461L392.138 26.7807Z" fill="white"/>
<path d="M433.425 19.6073L443.095 0.584473H452.66L437.622 27.8434V42.3496H428.961V27.4183L414.189 0.584473H423.754L433.425 19.6073Z" fill="white"/>
</svg>
