<svg width="61" height="61" viewBox="0 0 61 61" fill="none" xmlns="http://www.w3.org/2000/svg">
<g clip-path="url(#clip0)">
<path fill-rule="evenodd" clip-rule="evenodd" d="M0 30.4363C0 22.3641 3.20667 14.6225 8.91458 8.91458C14.6225 3.20667 22.3641 0 30.4363 0C38.5085 0 46.2501 3.20667 51.958 8.91458C57.6659 14.6225 60.8726 22.3641 60.8726 30.4363C60.8726 38.5085 57.6659 46.2501 51.958 51.958C46.2501 57.6659 38.5085 60.8726 30.4363 60.8726C22.3641 60.8726 14.6225 57.6659 8.91458 51.958C3.20667 46.2501 0 38.5085 0 30.4363H0ZM16.2327 24.349H20.2909V20.2909H16.2327V24.349ZM40.5817 24.349H44.6399V20.2909H40.5817V24.349ZM19.885 41.7992C21.1136 40.1611 22.7066 38.8316 24.538 37.916C26.3693 37.0003 28.3888 36.5236 30.4363 36.5236C32.4838 36.5236 34.5033 37.0003 36.3346 37.916C38.166 38.8316 39.759 40.1611 40.9875 41.7992L44.2341 39.3643C37.3352 30.1644 23.5374 30.1644 16.6385 39.3643L19.885 41.7992Z" fill="white"/>
</g>
<defs>
<clipPath id="clip0">
<rect width="60.8726" height="60.8726" fill="white"/>
</clipPath>
</defs>
</svg>
